<svg xmlns="http://www.w3.org/2000/svg" width="117" height="51" viewBox="0 0 117 51" fill="none">
  <g clip-path="url(#clip0_208_1093)">
    <path d="M109.676 31.5493C108.317 31.5493 106.995 31.3284 105.709 30.8709C104.44 30.4135 103.547 29.7703 103.029 28.9727L104.868 27.9052C105.136 28.3451 105.744 28.7361 106.726 29.0587C107.709 29.3812 108.727 29.5494 109.744 29.5494C111.228 29.5494 112.389 29.3637 113.228 28.9727C113.979 28.6169 114.354 28.1594 114.336 27.567C114.319 26.9747 113.961 26.5329 113.228 26.2455C112.835 26.0754 112.139 25.9073 111.566 25.8721C111.263 25.8213 110.37 25.7196 109.922 25.6688C107.902 25.5163 106.491 25.2797 105.652 24.9572C104.116 24.3648 103.365 23.3463 103.42 21.8722C103.42 20.3806 104.188 19.278 105.742 18.5664C106.903 18.0405 108.387 17.7863 110.172 17.7863C113.155 17.7863 115.085 18.6172 115.961 20.277L114.066 21.2251C113.566 20.2594 112.244 19.7843 110.1 19.7843C109.046 19.7843 108.063 19.9036 107.117 20.1734C106.188 20.4275 105.545 20.9358 105.527 21.6142C105.51 22.8184 106.368 23.1742 108.422 23.4948C108.798 23.5457 109.298 23.5965 109.924 23.6473C110.227 23.6649 110.639 23.7158 111.157 23.7822C112.409 23.9015 113.427 24.0872 114.196 24.3746C115.732 24.9513 116.483 25.9835 116.428 27.4595C116.41 27.5103 116.41 27.5944 116.41 27.6961C116.303 30.4584 113.105 31.5434 109.676 31.5434V31.5493Z" fill="white"/>
    <path d="M28.3061 16.7639C23.9465 16.7639 20.4139 20.2985 20.4139 24.6561C20.4139 29.0137 23.9485 32.5483 28.3061 32.5483C32.6637 32.5483 36.1983 29.0137 36.1983 24.6561C36.1983 20.2985 32.6637 16.7639 28.3061 16.7639ZM28.3061 30.2551C25.2133 30.2551 22.7071 27.7489 22.7071 24.6561C22.7071 21.5633 25.2133 19.0571 28.3061 19.0571C31.3988 19.0571 33.9051 21.5633 33.9051 24.6561C33.9051 27.7489 31.3988 30.2551 28.3061 30.2551Z" fill="white"/>
    <path d="M67.6263 31.2697V20.017H61.7301V17.9838H75.6651V20.017H69.7689V31.2697H67.6243H67.6263Z" fill="white"/>
    <path d="M11.765 31.3206L6.22661 25.354L2.54541 28.6599V31.3206H0.402771V18.0327H2.54737V25.8623L11.3369 18.0151H14.4629L7.79841 23.964L14.6232 31.3206H11.765Z" fill="white"/>
    <path d="M2.54742 25.8623L11.337 18.017H14.4629L2.54742 28.6599V25.8623Z" fill="white"/>
    <path d="M6.22662 25.354L7.79842 23.966L14.6252 31.3206H11.765L6.22662 25.354Z" fill="white"/>
    <path d="M41.9868 31.2697H44.1314V22.0677L55.4214 31.2697H55.9414V17.9818H53.7968V27.2699L42.456 18.0249H41.9868V31.2697Z" fill="white"/>
    <path d="M90.6323 3.76337C88.2121 2.52978 85.3148 1.76148 81.7763 1.41545C80.5799 1.30402 79.3307 1.24537 78.0599 1.24537C75.5106 1.24537 72.7971 1.46824 69.7591 1.9257C69.5089 1.96871 69.2587 2.00976 68.9811 2.05668C68.5862 2.12119 68.1795 2.18962 67.7768 2.26586L67.4699 0.750763L66.9694 1.20822C66.2343 1.88073 65.4367 2.58452 64.5746 3.17883C63.9451 3.61088 63.3996 3.93345 62.7819 4.09766L62.1191 4.29707C60.4261 4.80341 58.7018 5.36839 56.8466 6.02526C51.6562 7.84338 46.5869 10.2245 41.7777 13.1061C39.248 14.6564 36.9177 16.2536 34.8513 17.8508L34.515 18.1109L35.1543 18.7834L35.4299 18.5683C44.3485 11.6321 55.5329 7.0262 62.4143 5.18658C62.9148 4.99499 63.4798 4.89725 64.0936 4.89725C65.1435 4.89725 66.3458 5.16703 67.8804 5.7457L68.5295 5.99007L68.2206 4.45738C70.414 3.99796 74.627 3.26289 79.0511 3.26289C86.1457 3.26289 90.9666 5.04387 93.379 8.55303C94.7886 10.7054 94.9489 13.3759 93.858 16.4902L93.7563 16.7834L94.0222 16.9437C94.247 17.0806 94.4758 17.235 94.7025 17.4012L95.1092 17.7023L95.289 17.2311C95.8892 15.6593 96.2098 14.0856 96.245 12.5529C96.3056 8.94989 94.2079 5.66359 90.6343 3.76141L90.6323 3.76337Z" fill="white"/>
    <path d="M82.6932 30.7321L82.4528 30.4682L82.1732 30.6872C77.7218 34.1709 72.371 37.3067 65.818 40.2743C61.4506 42.155 57.7967 43.3944 54.3365 44.1764C54.0256 44.2136 53.705 44.2312 53.3844 44.2312C50.9583 44.2312 48.6182 43.1442 46.8509 42.196L46.1784 41.8363L46.5928 44.6182C43.6154 45.3865 40.6048 45.7756 37.645 45.7756C37.1797 45.7756 36.7124 45.7658 36.2511 45.7463C31.0821 45.5684 26.7695 43.7678 24.7109 40.9312C23.1958 38.8413 22.8732 36.2432 23.7491 33.2169C23.7764 33.1348 23.8038 33.0546 23.839 32.9549L23.9778 32.5639L23.7061 32.4036C23.6298 32.3587 23.5536 32.3098 23.4793 32.2629L23.0746 32.0048L22.8674 32.5757C22.8283 32.6812 22.7892 32.7868 22.754 32.8943C21.0512 38.0437 23.0296 42.7415 27.9112 45.1539C32.2512 47.3493 37.123 47.7736 41.7406 47.9045C42.1472 47.9124 42.5519 47.9163 42.9586 47.9163C44.3622 47.9163 45.7561 47.8733 47.0679 47.8303L47.4765 50.575L48.0082 50.0843C49.494 48.7139 50.9505 47.3982 52.4265 46.3601C53.2299 45.7873 53.9064 45.408 54.5515 45.1695L56.9092 44.4579C60.5376 43.3006 63.4779 42.2332 66.1679 41.1013C72.6213 38.3565 78.2652 35.166 82.9474 31.6177L83.2993 31.3518L82.9865 31.041C82.8848 30.9393 82.7851 30.8357 82.6893 30.7302L82.6932 30.7321Z" fill="white"/>
    <path d="M89.3479 16.7639C84.9883 16.7639 81.4557 20.2985 81.4557 24.6561C81.4557 29.0137 84.9903 32.5483 89.3479 32.5483C93.7055 32.5483 97.2401 29.0137 97.2401 24.6561C97.2401 20.2985 93.7055 16.7639 89.3479 16.7639ZM89.3479 30.2551C86.2551 30.2551 83.7489 27.7489 83.7489 24.6561C83.7489 21.5633 86.2551 19.0571 89.3479 19.0571C92.4406 19.0571 94.9469 21.5633 94.9469 24.6561C94.9469 27.7489 92.4406 30.2551 89.3479 30.2551Z" fill="white"/>
    <path d="M89.3479 26.1106C90.1512 26.1106 90.8024 25.4594 90.8024 24.6561C90.8024 23.8528 90.1512 23.2016 89.3479 23.2016C88.5446 23.2016 87.8934 23.8528 87.8934 24.6561C87.8934 25.4594 88.5446 26.1106 89.3479 26.1106Z" fill="white"/>
  </g>
  <defs>
    <clipPath id="clip0_208_1093">
      <rect width="116.029" height="49.8243" fill="white" transform="translate(0.402832 0.752747)"/>
    </clipPath>
  </defs>
</svg>
