<svg xmlns="http://www.w3.org/2000/svg" width="584" height="190" viewBox="0 0 584 190" fill="none">
  <mask id="path-1-inside-1_278_13484" fill="white">
    <path fill-rule="evenodd" clip-rule="evenodd" d="M497.717 0.412771C496.999 -0.137591 496.001 -0.13759 495.283 0.412771L482.778 10H13.5117C6.04938 10 0 16.0494 0 23.5117V176.488C0 183.951 6.04936 190 13.5116 190H570.488C577.951 190 584 183.951 584 176.488V23.5117C584 16.0494 577.951 10 570.488 10H510.222L497.717 0.412771Z"/>
  </mask>
  <path fill-rule="evenodd" clip-rule="evenodd" d="M497.717 0.412771C496.999 -0.137591 496.001 -0.13759 495.283 0.412771L482.778 10H13.5117C6.04938 10 0 16.0494 0 23.5117V176.488C0 183.951 6.04936 190 13.5116 190H570.488C577.951 190 584 183.951 584 176.488V23.5117C584 16.0494 577.951 10 570.488 10H510.222L497.717 0.412771Z" fill="#171818" fill-opacity="0.9"/>
  <path d="M495.283 0.412771L494.769 -0.257424V-0.257419L495.283 0.412771ZM497.717 0.412771L497.203 1.08296V1.08296L497.717 0.412771ZM482.778 10V10.8445H483.064L483.292 10.6702L482.778 10ZM510.222 10L509.708 10.6702L509.936 10.8445H510.222V10ZM495.797 1.08297C496.212 0.764978 496.788 0.764992 497.203 1.08296L498.231 -0.257414C497.21 -1.04017 495.79 -1.04016 494.769 -0.257424L495.797 1.08297ZM483.292 10.6702L495.797 1.08296L494.769 -0.257419L482.264 9.32981L483.292 10.6702ZM13.5117 10.8445H482.778V9.15552H13.5117V10.8445ZM0.844479 23.5117C0.844479 16.5158 6.51577 10.8445 13.5117 10.8445V9.15552C5.58299 9.15552 -0.844479 15.583 -0.844479 23.5117H0.844479ZM0.844479 176.488V23.5117H-0.844479V176.488H0.844479ZM13.5116 189.156C6.51575 189.156 0.844479 183.484 0.844479 176.488H-0.844479C-0.844479 184.417 5.58296 190.844 13.5116 190.844V189.156ZM570.488 189.156H13.5116V190.844H570.488V189.156ZM583.156 176.488C583.156 183.484 577.484 189.156 570.488 189.156V190.844C578.417 190.844 584.844 184.417 584.844 176.488H583.156ZM583.156 23.5117V176.488H584.844V23.5117H583.156ZM570.488 10.8445C577.484 10.8445 583.156 16.5158 583.156 23.5117H584.844C584.844 15.583 578.417 9.15552 570.488 9.15552V10.8445ZM510.222 10.8445H570.488V9.15552H510.222V10.8445ZM497.203 1.08296L509.708 10.6702L510.736 9.32981L498.231 -0.257419L497.203 1.08296Z" fill="url(#paint0_linear_278_13484)" mask="url(#path-1-inside-1_278_13484)"/>
  <defs>
    <linearGradient id="paint0_linear_278_13484" x1="322.173" y1="-6.19737" x2="260.494" y2="231.343" gradientUnits="userSpaceOnUse">
      <stop stop-color="#868B8E" stop-opacity="0"/>
      <stop offset="0.515625" stop-color="#868B8E"/>
      <stop offset="1" stop-color="#868B8E" stop-opacity="0"/>
    </linearGradient>
  </defs>
</svg>
