<svg xmlns="http://www.w3.org/2000/svg" width="584" height="236" viewBox="0 0 584 236" fill="none">
  <mask id="path-1-inside-1_278_13532" fill="white">
    <path fill-rule="evenodd" clip-rule="evenodd" d="M497.717 0.412771C496.999 -0.137591 496.001 -0.13759 495.283 0.412771L482.152 10.4799H13.5117C6.04938 10.4799 0 16.5293 0 23.9916V221.968C0 229.431 6.04936 235.48 13.5116 235.48H570.488C577.951 235.48 584 229.431 584 221.968V23.9916C584 16.5293 577.951 10.4799 570.488 10.4799H510.848L497.717 0.412771Z"/>
  </mask>
  <path fill-rule="evenodd" clip-rule="evenodd" d="M497.717 0.412771C496.999 -0.137591 496.001 -0.13759 495.283 0.412771L482.152 10.4799H13.5117C6.04938 10.4799 0 16.5293 0 23.9916V221.968C0 229.431 6.04936 235.48 13.5116 235.48H570.488C577.951 235.48 584 229.431 584 221.968V23.9916C584 16.5293 577.951 10.4799 570.488 10.4799H510.848L497.717 0.412771Z" fill="#171818" fill-opacity="0.9"/>
  <path d="M495.283 0.412771L494.769 -0.257424V-0.257419L495.283 0.412771ZM497.717 0.412771L497.203 1.08296V1.08296L497.717 0.412771ZM482.152 10.4799V11.3244H482.438L482.665 11.1501L482.152 10.4799ZM510.848 10.4799L510.334 11.1501L510.562 11.3244H510.848V10.4799ZM495.797 1.08297C496.212 0.764978 496.788 0.764992 497.203 1.08296L498.231 -0.257414C497.21 -1.04017 495.79 -1.04016 494.769 -0.257424L495.797 1.08297ZM482.665 11.1501L495.797 1.08296L494.769 -0.257419L481.638 9.80974L482.665 11.1501ZM13.5117 11.3244H482.152V9.63545H13.5117V11.3244ZM0.844479 23.9916C0.844479 16.9957 6.51577 11.3244 13.5117 11.3244V9.63545C5.58299 9.63545 -0.844479 16.0629 -0.844479 23.9916H0.844479ZM0.844479 221.968V23.9916H-0.844479V221.968H0.844479ZM13.5116 234.635C6.51575 234.635 0.844479 228.964 0.844479 221.968H-0.844479C-0.844479 229.897 5.58296 236.324 13.5116 236.324V234.635ZM570.488 234.635H13.5116V236.324H570.488V234.635ZM583.156 221.968C583.156 228.964 577.484 234.635 570.488 234.635V236.324C578.417 236.324 584.844 229.897 584.844 221.968H583.156ZM583.156 23.9916V221.968H584.844V23.9916H583.156ZM570.488 11.3244C577.484 11.3244 583.156 16.9957 583.156 23.9916H584.844C584.844 16.0629 578.417 9.63545 570.488 9.63545V11.3244ZM510.848 11.3244H570.488V9.63545H510.848V11.3244ZM497.203 1.08296L510.334 11.1501L511.362 9.80974L498.231 -0.25742L497.203 1.08296Z" fill="url(#paint0_linear_278_13532)" mask="url(#path-1-inside-1_278_13532)"/>
  <defs>
    <linearGradient id="paint0_linear_278_13532" x1="322.173" y1="-6.19737" x2="260.494" y2="231.343" gradientUnits="userSpaceOnUse">
      <stop stop-color="#868B8E" stop-opacity="0"/>
      <stop offset="0.515625" stop-color="#868B8E"/>
      <stop offset="1" stop-color="#868B8E" stop-opacity="0"/>
    </linearGradient>
  </defs>
</svg>
