<svg width="45" height="45" viewBox="0 0 45 45" fill="none" xmlns="http://www.w3.org/2000/svg">
<path d="M17.668 5.75862C19.8155 2.08046 25.1845 2.08046 27.332 5.75862L44.2442 34.7241C46.3917 38.4023 43.7073 43 39.4121 43H5.58788C1.29274 43 -1.39173 38.4023 0.755842 34.7241L17.668 5.75862Z" fill="#FF1E2B"/>
<path fill-rule="evenodd" clip-rule="evenodd" d="M25.3377 13.897H20.496L20.6244 16.4834L21.3398 30.2159H24.4938L25.2093 16.4823L25.3377 13.897ZM22.9341 33.1771C21.4253 33.1771 20.2085 34.3125 20.2085 35.9424C20.2085 36.7467 20.5061 37.4291 21.0129 37.9092C21.5166 38.3863 22.2006 38.6392 22.9341 38.6392C24.3935 38.6392 25.6252 37.5867 25.6252 35.9424C25.6252 34.3173 24.4132 33.1771 22.9341 33.1771Z" fill="white"/>
</svg>
