<svg width="84" height="89" viewBox="0 0 84 89" fill="none" xmlns="http://www.w3.org/2000/svg">
<mask id="mask0_1130_286" style="mask-type:alpha" maskUnits="userSpaceOnUse" x="30" y="15" width="10" height="9">
<path fill-rule="evenodd" clip-rule="evenodd" d="M30.99 19.6055C30.99 22.0292 32.9769 23.9941 35.4278 23.9941C37.8787 23.9941 39.8655 22.0292 39.8655 19.6055C39.8655 17.1822 37.8787 15.217 35.4278 15.217C32.9769 15.217 30.99 17.1822 30.99 19.6055Z" fill="white"/>
</mask>
<g mask="url(#mask0_1130_286)">
<path fill-rule="evenodd" clip-rule="evenodd" d="M30.99 19.6055C30.99 22.0292 32.9769 23.9941 35.4278 23.9941C37.8787 23.9941 39.8655 22.0292 39.8655 19.6055C39.8655 17.1822 37.8787 15.217 35.4278 15.217C32.9769 15.217 30.99 17.1822 30.99 19.6055Z" fill="#73E2F2"/>
</g>
<path fill-rule="evenodd" clip-rule="evenodd" d="M45.5411 4.69526C46.2877 4.76463 47.0278 4.8529 47.7617 4.9586C47.7644 4.93634 47.7687 4.91447 47.771 4.89182C47.8877 3.66833 46.9795 2.58352 45.742 2.46818C44.5049 2.35321 43.4077 3.25146 43.291 4.47497C43.2891 4.49797 43.2899 4.52058 43.2883 4.54396C44.0362 4.57511 44.7871 4.62519 45.5411 4.69526Z" fill="#73E2F2"/>
<path fill-rule="evenodd" clip-rule="evenodd" d="M52.8381 6.0046C52.8451 5.95938 52.8532 5.91486 52.8578 5.86887C52.9742 4.64572 52.0656 3.56056 50.8288 3.44559C49.7255 3.34285 48.7357 4.04638 48.4517 5.06706C49.9431 5.30663 51.4066 5.62002 52.8381 6.0046Z" fill="#73E2F2"/>
<path fill-rule="evenodd" clip-rule="evenodd" d="M57.7481 7.64597C57.794 7.50023 57.8261 7.34777 57.8408 7.18978C57.9575 5.96667 57.0493 4.8815 55.8122 4.76614C54.7823 4.67045 53.8513 5.27794 53.5007 6.18916C54.9515 6.60381 56.3687 7.09077 57.7481 7.64597Z" fill="#73E2F2"/>
<path fill-rule="evenodd" clip-rule="evenodd" d="M62.4306 9.86836C62.5396 9.64065 62.6134 9.3918 62.6389 9.12661C62.7549 7.90311 61.8467 6.81794 60.61 6.70296C59.6627 6.61508 58.7994 7.12132 58.3936 7.912C59.7806 8.49615 61.1271 9.14999 62.4306 9.86836Z" fill="#73E2F2"/>
<path fill-rule="evenodd" clip-rule="evenodd" d="M66.7936 12.6258C66.9493 12.358 67.0525 12.0546 67.0838 11.7272C67.2005 10.5036 66.2919 9.41886 65.0548 9.3035C64.2378 9.22748 63.4842 9.59501 63.0312 10.2044C64.3317 10.9483 65.5866 11.7576 66.7936 12.6258Z" fill="#73E2F2"/>
<path fill-rule="evenodd" clip-rule="evenodd" d="M70.7962 15.8882C71.0733 15.5562 71.2569 15.1416 71.3006 14.6806C71.4173 13.4575 70.5087 12.3723 69.2716 12.257C68.5129 12.1865 67.808 12.498 67.3489 13.031C68.5496 13.9248 69.6994 14.879 70.7962 15.8882Z" fill="#73E2F2"/>
<path fill-rule="evenodd" clip-rule="evenodd" d="M74.3782 19.6056C74.738 19.2518 74.9799 18.7767 75.0309 18.2378C75.1473 17.0146 74.2387 15.9295 73.0016 15.8141C72.3577 15.7544 71.7537 15.9707 71.3042 16.3623C72.3859 17.3904 73.4112 18.4733 74.3782 19.6056Z" fill="#73E2F2"/>
<path fill-rule="evenodd" clip-rule="evenodd" d="M20.677 61.3373C20.677 57.4197 23.8884 54.244 27.8504 54.244C28.2876 54.244 28.7122 54.3074 29.112 54.4241C28.7936 55.2218 28.6342 56.0995 28.6713 57.017C28.674 57.0788 28.6923 57.1368 28.6968 57.1982L39.3076 50.6526C37.5084 48.4589 34.7661 47.0526 31.6885 47.0526C22.9328 47.0526 15.8337 54.0728 15.8337 62.7333C15.8337 63.5197 15.875 64.2966 15.9459 65.0645L20.7171 62.1211C20.6995 61.861 20.677 61.6021 20.677 61.3373Z" fill="white"/>
<path fill-rule="evenodd" clip-rule="evenodd" d="M20.6647 22.1586C20.6647 15.9735 25.7348 10.9597 31.9894 10.9597C38.2435 10.9597 43.3142 15.9735 43.3142 22.1586C43.3142 28.3436 38.2435 33.3575 31.9894 33.3575C25.7348 33.3575 20.6647 28.3436 20.6647 22.1586ZM47.7142 45.4657L77.7068 26.9632C70.5922 14.4515 57.0483 5.99368 41.4994 5.99368V0C18.5794 0 0 18.3731 0 41.0383H37.7005C41.6597 41.0383 45.2512 42.7481 47.7142 45.4657Z" fill="white"/>
<path fill-rule="evenodd" clip-rule="evenodd" d="M34.6329 63.3253C38.3781 63.5781 41.4991 60.6467 41.4991 56.9957C41.4991 56.9334 41.4972 56.8735 41.4972 56.8117C41.4555 54.5702 40.6385 52.518 39.3074 50.8952L28.6968 57.4413C28.9185 60.5632 31.4582 63.1112 34.6329 63.3253Z" fill="white"/>
<path fill-rule="evenodd" clip-rule="evenodd" d="M83.02 47.2957C83.02 39.9956 81.0849 33.1464 77.7072 27.2065L47.7146 45.7088C49.7247 47.9256 50.9861 50.811 51.0688 54.0041C51.0723 54.1645 51.0746 54.3256 51.0746 54.4868C51.0746 64.7464 42.6642 73.0633 32.2894 73.0633C26.1444 73.0633 21.1271 68.3387 20.7179 62.3642L15.9463 65.3072C17.1374 78.2301 28.1197 88.3564 41.4998 88.3564C64.4307 88.3564 83.02 69.9735 83.02 47.2957Z" fill="white"/>
</svg>
