<svg width="411" height="317" viewBox="0 0 411 317" fill="none" xmlns="http://www.w3.org/2000/svg">
<g>
<path fill-rule="evenodd" clip-rule="evenodd" d="M407.182 150.136C389.769 129.482 370.188 110.711 348.768 94.2671C339.426 86.9863 329.98 80.3989 320.434 74.5049L282.199 112.791C290.167 126.164 294.717 141.815 294.717 158.507C294.469 207.986 254.508 248.006 205.1 248.254C188.433 248.254 172.8 243.697 159.451 235.723L131.409 263.806C156.434 273.91 181.311 279.061 205.1 279.061C316.226 279.061 403.671 171.285 407.182 166.431C410.941 161.627 410.941 154.94 407.182 150.136Z" fill="white"/>
<path fill-rule="evenodd" clip-rule="evenodd" d="M205.099 207.342C232.003 207.342 253.864 185.499 253.864 158.506C253.864 153.256 253.023 148.204 251.539 143.499L190.113 205.014C194.812 206.5 199.856 207.342 205.099 207.342Z" fill="white"/>
<path fill-rule="evenodd" clip-rule="evenodd" d="M127.995 204.222C120.033 190.849 115.483 175.198 115.483 158.506C115.483 108.927 155.592 68.7591 205.099 68.7591C221.766 68.7591 237.395 73.3158 250.748 81.29C255.1 83.8655 259.205 86.7877 263.014 90.0071L233.933 119.13C229.729 116.06 225.08 113.633 220.085 111.998C215.337 110.512 210.337 109.67 205.099 109.67C178.145 109.67 156.334 131.513 156.334 158.506C156.334 163.756 157.175 168.808 158.659 173.514C160.291 178.566 162.714 183.221 165.781 187.382L136.7 216.505C133.485 212.691 130.567 208.58 127.995 204.222ZM176.266 197.882L244.418 129.631L273.499 100.507L307.228 66.7284L361.181 12.6919C364.104 9.76966 364.104 5.06437 361.181 2.19167C358.318 -0.730557 353.619 -0.730557 350.701 2.19167L293.331 59.6457C288.484 57.2683 283.637 55.1385 278.79 53.2069C253.765 43.1029 228.938 37.9518 205.099 37.9518C93.9193 37.9518 6.4789 145.728 2.96743 150.136C-0.989145 154.99 -0.989145 162.023 2.96743 166.877C20.3764 187.53 39.9614 206.302 61.4259 222.746C70.7733 230.027 80.2196 236.663 89.7649 242.508C94.1666 245.282 98.5683 247.857 102.97 250.284L49.0121 304.32C46.0941 307.243 46.0941 311.948 49.0121 314.821C50.4464 316.307 52.3258 317 54.2546 317C56.134 317 58.0628 316.307 59.4971 314.821L116.867 257.367L147.185 227.005L176.266 197.882Z" fill="white"/>
</g>
</svg>
