<svg xmlns="http://www.w3.org/2000/svg" width="169.465" height="123.651" viewBox="0 0 169.465 123.651">
  <g id="Group_98" data-name="Group 98" transform="translate(169.465) rotate(90)">
    <path id="Path_266" data-name="Path 266" d="M.732,91.007c.39-5.583-.8-9.757.8-16.7C3,64.524,8.125,56.848,14.011,48.78c6.267-8.59,15.911-12.7,25.569-16.051a25.552,25.552,0,0,1-4.33-5.746c-3.526-6.6-.507-14.489,3.048-20.525C36.369,4.363,37.251,0,40.957,0c4.7,0,4.854,7,.5,7.512.039,1.1.4,2.036,1.348,1.214.029-.025.062-.033.091-.054.732-.789.991-1.47,1.841-2.059-.093-1.958.559-3.99,3.079-3.99a3.793,3.793,0,0,1,3.238,5.822c3.533,1.208,3.116,7.339-1.28,7.339A3.435,3.435,0,0,1,46.9,14.41a.39.39,0,0,0-.037.023c-3.176,1.768-5.626,4.345-5.73,8.328-.124,4.59,3.539,6.88,7.148,8.6a.989.989,0,0,1,.1.043l.06.037c.585.278,1.167.544,1.729.8l.014.01a1.272,1.272,0,0,1,.48.307c.035.035.074.058.111.091,4.47,2.137,9.542,1.793,14.312,2.572,3.4.247,6.917.715,9.724,2.292,5.33,3,8.912,8.046,13.39,12.084a1.2,1.2,0,0,1,.328.486,10.945,10.945,0,0,1,3.026,9.149C91,62.811,87.64,64.311,84.4,64.369a.55.55,0,0,1-.06.012c-2.512.025-5.066.144-7.619.181-8.061.962-17.335-1.181-23.324-6.845-2.585,1.838-4.969,4.955-5.169,8.118-.126,2.018,1.849,3.767,3.561,4.406a4.851,4.851,0,0,0,4.646-.849c-.264-2.053,1.441-4.322,3.384-4.322,5.828,0,5.828,7.56,0,7.56a6.531,6.531,0,0,1-2.247-.925,1.774,1.774,0,0,0-.785,1.455c.1.674.952,1.278,1.651,1.74.146.039.322.076.466.118a6.419,6.419,0,0,1,.73.163c.6-.831.779-1.414,3.3-1.414,4.973,0,5.035,7.345.2,7.543,1.3,2.23.276,5.859-3.1,5.859-3.081,0-4.207-3.015-3.4-5.237a8.483,8.483,0,0,1-1.49-.719c-4.678-1.944-10.571-4.005-12.681-9.038-2.77-6.6.6-13.147,4.1-18.78a7.37,7.37,0,0,0-.919-.153c-2.063,4.468-5.787,8.539-5.688,13.7a1.127,1.127,0,0,1-.284.785,1.174,1.174,0,0,1-.326.583,86.786,86.786,0,0,0-7.1,7.951,84.315,84.315,0,0,0-5.835,8.809c3.5-2.158,7.108-4.528,10.888-2.6,3.162,1.61,2.937,4.9,1.546,8.137a16.986,16.986,0,0,1-3.815,7.659c-.132.231-.286.445-.423.67a3.869,3.869,0,0,0,3.2,1.235c2.519-1.142,5.725-1.371,8.611-1.416A3.721,3.721,0,0,1,50.1,96.523c5.828,0,5.828,7.562,0,7.562a3.8,3.8,0,0,1-3.768-2.387c-3.765.344-9.948,1.173-9.821,4.025a19.489,19.489,0,0,1,.719,5.515c4.256.6,4.021,7.5-.641,7.5-3.691,0-4.6-4.33-2.708-6.434a21.857,21.857,0,0,1-.66-2.743,1.163,1.163,0,0,1-.15-.352c-.917-5.016-5.006-3.366-7.582-.635,1.8,2.137.876,6.352-2.764,6.352-4.639,0-4.856-6.832-.666-7.494a33.293,33.293,0,0,0,2.069-6.156c.006-.023.019-.037.025-.058A7.5,7.5,0,0,1,24.623,100a40.98,40.98,0,0,1-6.643,4.7c-5.2,13.491.5,29.361,6.785,41.442,6.4,12.29,17.294,17.646,31.166,15.55,13.4-2.026,23.31-5.828,27.22-23.365,1.22-5.476,1.461-10.738,1.937-16.218.225-2.6.418-7.053,3.256-7.045,2.552.008,2.622,4.825,2.552,5.835C89.777,137,88.531,154.841,72.828,163.956c-14.674,8.522-33.588,6.849-47.052-2.89-13.444-9.724-21.826-25.078-24.724-41.2C-.641,110.416.062,100.519.732,91.007ZM45.724,12.113c.124-.068.268-.12.4-.186a4.061,4.061,0,0,1,.649-2.15,3.507,3.507,0,0,1-1.1-.736,11.449,11.449,0,0,0-1.463,1.618C43.3,11.908,44.475,12.323,45.724,12.113ZM64.81,60.56a20.131,20.131,0,0,0,5.311,1.354,1.124,1.124,0,0,1,.15-.05c1.474-.194.942-2.152.229-2.873a3.971,3.971,0,0,0-3.456-.905A3.455,3.455,0,0,0,64.8,59.831.645.645,0,0,0,64.81,60.56Zm-6.62,19.221a1.192,1.192,0,0,1,.284.132,3.8,3.8,0,0,1,1.074-.262,3.749,3.749,0,0,1-.635-1.927c-.5-.031-3.615-.287-3.4.2A4.058,4.058,0,0,0,58.189,79.781Z" transform="translate(31.968 0)" fill="#e4e4e4"/>
    <path id="Path_267" data-name="Path 267" d="M4.371,20.33a6.6,6.6,0,0,1,2.661,1.3c3.7-1.4,8.644-4.213,4.342-7.094-.9-.6-2.4-1.123-3.184-1.75-.379.126.064.214-1.878.214-3.885,0-3.885-7.56,0-7.56,5.828,0,4.779,2.937,4.029,5.15,1.941.963,4.534.859,7.193-.334C18.011,9.617,18.65,9,19.151,8.376c.132-1.119.338-2.238.455-3.359.118-1.057.589-3.106,1.447-3.895,1.639-1.507,3.129-1.309,4.736-.5,1.338.361,2.756,1.908,3.471,2.686a15.444,15.444,0,0,1,2.549,3.285c-.084-.583-.249,1.053-.249,1.639v.016c0,2.308.266,4.61.163,6.913.074,2.31-.023,4.639.025,6.954.062,1.535-.975,2.428-1.908,1.335a21.344,21.344,0,0,1-4.159-8.6A40.218,40.218,0,0,0,17.3,27.824c-.33,1.406-.808,2.8-1.173,4,3.318,1.368,2.828,7.273-1.484,7.273-4.487,0-4.833-6.391-1.061-7.409.076-.342.12-.7.214-1.022A33.309,33.309,0,0,1,14.891,27.1c1.072-4.343-3.714-3.724-7.036-2.925A3.731,3.731,0,0,1,4.371,27.89C-1.457,27.89-1.457,20.33,4.371,20.33Z" transform="translate(0 75.241)" fill="#e4e4e4"/>
  </g>
</svg>
