<svg width="95" height="73" viewBox="0 0 95 73" fill="none" xmlns="http://www.w3.org/2000/svg">
<path d="M80.4191 6.14177C91.1315 21.9894 96.4218 39.8652 94.4442 60.4443C94.4359 60.5314 94.3908 60.6113 94.3197 60.6638C86.2074 66.6574 78.3477 70.2948 70.5983 72.707C70.5379 72.7254 70.4734 72.7244 70.4136 72.7041C70.3539 72.6838 70.302 72.6452 70.2651 72.5937C68.4748 70.0872 66.8481 67.4447 65.4229 64.6698C65.3411 64.5064 65.4158 64.3096 65.5842 64.2451C68.1677 63.2657 70.6244 62.0918 72.9874 60.702C73.1735 60.5922 73.1854 60.3238 73.0135 60.1949C72.5119 59.8203 72.0151 59.4267 71.5397 59.033C71.4508 58.9602 71.331 58.9459 71.2302 58.9948C55.889 66.1229 39.0836 66.1229 23.561 58.9948C23.4602 58.9495 23.3405 58.965 23.2539 59.0365C22.7796 59.4302 22.2817 59.8203 21.7849 60.1949C21.613 60.3238 21.6272 60.5922 21.8145 60.702C24.1775 62.0655 26.6342 63.2657 29.2142 64.2499C29.3814 64.3143 29.4608 64.5064 29.3778 64.6698C27.9835 67.4483 26.3568 70.0908 24.5332 72.5973C24.4538 72.6987 24.3234 72.7452 24.2001 72.707C16.4874 70.2948 8.62766 66.6574 0.515408 60.6638C0.447825 60.6113 0.399213 60.5278 0.392099 60.4407C-1.2607 42.6401 2.10774 24.6164 14.4042 6.13819C14.4338 6.08928 14.4789 6.0511 14.531 6.02843C20.5814 3.23445 27.0634 1.17893 33.8382 0.00502907C33.9615 -0.0140588 34.0849 0.0432047 34.1489 0.15296C34.986 1.6442 35.9428 3.55656 36.5901 5.11938C43.7313 4.02183 50.984 4.02183 58.2746 5.11938C58.922 3.58996 59.8456 1.6442 60.6791 0.15296C60.7088 0.0985115 60.7548 0.0548905 60.8106 0.0283243C60.8664 0.00175813 60.9291 -0.00639494 60.9897 0.00502907C67.7681 1.18251 74.2501 3.23803 80.2958 6.02843C80.3491 6.0511 80.393 6.08928 80.4191 6.14177ZM40.2206 39.9869C40.2953 34.7246 36.4823 30.3702 31.6958 30.3702C26.9484 30.3702 23.1721 34.6864 23.1721 39.9869C23.1721 45.2861 27.0231 49.6024 31.6958 49.6024C36.4443 49.6024 40.2206 45.2861 40.2206 39.9869ZM71.7377 39.9869C71.8124 34.7246 67.9993 30.3702 63.214 30.3702C58.4655 30.3702 54.6892 34.6864 54.6892 39.9869C54.6892 45.2861 58.5402 49.6024 63.214 49.6024C67.9993 49.6024 71.7377 45.2861 71.7377 39.9869Z" fill="white"/>
</svg>
