<svg width="49" height="38" viewBox="0 0 49 38" fill="none" xmlns="http://www.w3.org/2000/svg">
<mask id="mask0_0_2332" style="mask-type:luminance" maskUnits="userSpaceOnUse" x="0" y="0" width="49" height="38">
<path fill-rule="evenodd" clip-rule="evenodd" d="M0 0H49V38H0V0Z" fill="white"/>
</mask>
<g mask="url(#mask0_0_2332)">
<path fill-rule="evenodd" clip-rule="evenodd" d="M24.4541 35.2209C30.5683 35.2209 36.6828 35.2214 42.7971 35.2207C45.2951 35.2205 46.21 34.3066 46.2103 31.8114C46.2109 25.8866 46.2105 19.9617 46.2104 14.0368C46.2104 11.3094 46.2206 8.58196 46.2048 5.85466C46.1986 4.80644 45.9868 3.8253 44.9911 3.21708C44.3874 2.84836 43.7113 2.78138 43.0289 2.78116C30.6681 2.77765 18.3073 2.77855 5.94657 2.77901C5.81453 2.77901 5.68181 2.7772 5.55045 2.78817C4.10277 2.90832 3.23691 3.5144 2.94334 4.65008C2.82128 5.12232 2.7843 5.61051 2.78452 6.10333C2.78918 14.6614 2.7877 23.2197 2.78804 31.7779C2.78816 34.315 3.6919 35.2206 6.22415 35.2208C12.3008 35.2214 18.3774 35.2209 24.4541 35.2209ZM24.5133 37.9984C18.3223 37.9985 12.1312 37.9996 5.94033 37.998C2.30344 37.997 0.00215246 35.6982 0.00169871 32.0651C0.000450912 23.2796 -0.00181782 14.494 0.00340026 5.70848C0.00498838 2.9934 1.54886 0.927732 4.09165 0.20546C4.60235 0.0604177 5.12517 0.000115231 5.65719 0.000115231C18.2092 0.00169916 30.761 -0.00316577 43.3129 0.00441447C46.6105 0.00633781 48.9911 2.38744 48.9941 5.6802C49.0021 14.5599 49.0022 23.4396 48.9941 32.3193C48.991 35.6363 46.6044 37.9924 43.2562 37.9962C37.0086 38.0033 30.7609 37.9982 24.5133 37.9984Z" fill="black"/>
</g>
<path fill-rule="evenodd" clip-rule="evenodd" d="M16.3412 16.2258C17.8498 16.2296 18.979 15.1129 18.998 13.5985C19.0168 12.0958 17.9084 10.9706 16.3761 10.9364C14.8588 10.9027 13.6791 12.0694 13.6911 13.5919C13.7031 15.1052 14.8267 16.2221 16.3412 16.2258ZM16.3355 8.13307C19.2854 8.12764 21.797 10.6163 21.8106 13.558C21.8243 16.5196 19.2968 19.0407 16.3252 19.0292C13.3738 19.0178 10.8752 16.5164 10.8784 13.576C10.8816 10.6347 13.3844 8.1385 16.3355 8.13307Z" fill="black"/>
<path fill-rule="evenodd" clip-rule="evenodd" d="M25.8847 28.237C25.9071 29.2095 25.4962 29.7666 24.6925 29.8535C23.8201 29.9478 23.2604 29.4729 23.0958 28.4995C22.9988 27.9264 22.9248 27.3504 22.6783 26.8108C21.9635 25.2453 20.6485 24.5409 19.0253 24.4867C17.051 24.4205 15.0668 24.3285 13.0946 24.5576C11.2916 24.767 9.91513 26.1606 9.68315 27.9551C9.65422 28.1785 9.61418 28.4006 9.57799 28.623C9.43756 29.4851 8.89681 29.9235 8.05409 29.8594C7.28907 29.801 6.81037 29.2411 6.80163 28.3943C6.76794 25.1422 9.08534 22.3908 12.3419 21.7974C13.1663 21.6473 13.9951 21.6608 14.823 21.6796C16.6493 21.7208 18.4876 21.5043 20.3007 21.8049C23.5356 22.3415 25.8103 24.9951 25.8847 28.237Z" fill="black"/>
<path fill-rule="evenodd" clip-rule="evenodd" d="M35.3122 13.6118C33.5211 13.6118 31.7298 13.6212 29.9388 13.607C29.2267 13.6015 28.7143 13.1804 28.5793 12.5581C28.438 11.9061 28.7149 11.2855 29.3021 10.9929C29.4656 10.9114 29.6606 10.8524 29.8413 10.852C33.5179 10.8437 37.1947 10.8283 40.8711 10.8556C41.9462 10.8637 42.5424 12.0112 42.0232 12.9445C41.7292 13.4727 41.2469 13.6154 40.6859 13.6147C38.8947 13.6127 37.1034 13.6141 35.3122 13.6141V13.6118Z" fill="black"/>
<path fill-rule="evenodd" clip-rule="evenodd" d="M35.3137 19.0303C33.5225 19.0303 31.7312 19.0397 29.9401 19.0256C29.2274 19.0201 28.7154 18.6002 28.5797 17.978C28.4376 17.326 28.7137 16.7053 29.3009 16.4119C29.4643 16.3305 29.6592 16.2709 29.8399 16.2706C33.5165 16.2621 37.1931 16.2488 40.8697 16.2733C41.8744 16.2799 42.4754 17.2836 42.0964 18.2092C41.8391 18.8376 41.3248 19.0356 40.6873 19.034C38.8961 19.0297 37.1048 19.0325 35.3137 19.0325V19.0303Z" fill="black"/>
<path fill-rule="evenodd" clip-rule="evenodd" d="M35.3279 24.447C33.5178 24.447 31.7077 24.4578 29.8978 24.4414C29.2201 24.4352 28.7212 24.0126 28.5829 23.4102C28.4339 22.76 28.7092 22.1477 29.2848 21.8307C29.5263 21.6976 29.7859 21.6763 30.0514 21.6763C33.596 21.6759 37.1408 21.6711 40.6855 21.6793C41.6366 21.6816 42.1923 22.2101 42.1943 23.0621C42.1965 23.9341 41.6693 24.4405 40.7015 24.4471C38.9103 24.4592 37.119 24.4506 35.3279 24.4506V24.447Z" fill="black"/>
</svg>
