<svg width="49" height="38" viewBox="0 0 49 38" fill="none" xmlns="http://www.w3.org/2000/svg">
<mask id="mask0_43_7838" style="mask-type:luminance" maskUnits="userSpaceOnUse" x="0" y="0" width="49" height="38">
<path fill-rule="evenodd" clip-rule="evenodd" d="M0 0H49V38H0V0Z" fill="white"/>
</mask>
<g mask="url(#mask0_43_7838)">
<path fill-rule="evenodd" clip-rule="evenodd" d="M24.454 35.2209C30.5682 35.2209 36.6827 35.2214 42.797 35.2207C45.295 35.2205 46.2099 34.3065 46.2102 31.8114C46.2108 25.8866 46.2104 19.9617 46.2103 14.0368C46.2103 11.3094 46.2205 8.58195 46.2046 5.85465C46.1985 4.80642 45.9867 3.82529 44.991 3.21706C44.3873 2.84835 43.7112 2.78137 43.0288 2.78114C30.668 2.77764 18.3072 2.77854 5.94645 2.77899C5.81441 2.77899 5.68169 2.77718 5.55033 2.78816C4.10265 2.90831 3.23679 3.51439 2.94322 4.65007C2.82116 5.1223 2.78418 5.61049 2.7844 6.10332C2.78906 14.6614 2.78758 23.2197 2.78792 31.7779C2.78803 34.315 3.69178 35.2206 6.22403 35.2208C12.3007 35.2214 18.3773 35.2209 24.454 35.2209ZM24.5132 37.9983C18.3222 37.9985 12.1311 37.9996 5.94021 37.998C2.30332 37.997 0.00203226 35.6981 0.00157851 32.0651C0.000330708 23.2796 -0.00193802 14.494 0.00328006 5.70847C0.00486817 2.99339 1.54874 0.927721 4.09153 0.205449C4.60223 0.0604062 5.12505 0.000103775 5.65707 0.000103775C18.2091 0.0016877 30.7609 -0.00317722 43.3128 0.00440301C46.6104 0.00632635 48.991 2.38742 48.9939 5.68019C49.002 14.5599 49.0021 23.4395 48.9939 32.3193C48.9909 35.6363 46.6043 37.9923 43.2561 37.9962C37.0084 38.0033 30.7608 37.9982 24.5132 37.9983Z" fill="white"/>
</g>
<path fill-rule="evenodd" clip-rule="evenodd" d="M16.3412 16.2258C17.8498 16.2295 18.979 15.1129 18.998 13.5985C19.0168 12.0958 17.9084 10.9706 16.3761 10.9364C14.8588 10.9027 13.6791 12.0694 13.6911 13.5919C13.7031 15.1052 14.8267 16.2221 16.3412 16.2258ZM16.3355 8.13307C19.2854 8.12763 21.797 10.6163 21.8106 13.558C21.8243 16.5196 19.2968 19.0407 16.3252 19.0291C13.3738 19.0178 10.8752 16.5164 10.8784 13.576C10.8816 10.6347 13.3843 8.1385 16.3355 8.13307Z" fill="white"/>
<path fill-rule="evenodd" clip-rule="evenodd" d="M25.8847 28.237C25.9071 29.2095 25.4962 29.7666 24.6925 29.8535C23.8201 29.9478 23.2604 29.4729 23.0958 28.4995C22.9988 27.9264 22.9248 27.3504 22.6783 26.8108C21.9635 25.2453 20.6485 24.5409 19.0253 24.4867C17.051 24.4205 15.0668 24.3285 13.0946 24.5576C11.2916 24.767 9.91513 26.1606 9.68315 27.9551C9.65422 28.1785 9.61418 28.4006 9.57799 28.623C9.43756 29.4851 8.89681 29.9235 8.05409 29.8594C7.28907 29.801 6.81037 29.2411 6.80163 28.3943C6.76794 25.1422 9.08534 22.3908 12.3419 21.7974C13.1663 21.6473 13.9951 21.6608 14.823 21.6796C16.6493 21.7208 18.4876 21.5043 20.3007 21.8049C23.5356 22.3415 25.8103 24.9951 25.8847 28.237Z" fill="white"/>
<path fill-rule="evenodd" clip-rule="evenodd" d="M35.3122 13.6118C33.5211 13.6118 31.7298 13.6212 29.9388 13.607C29.2267 13.6015 28.7143 13.1804 28.5793 12.5581C28.438 11.9061 28.7149 11.2855 29.3021 10.9929C29.4656 10.9114 29.6606 10.8524 29.8413 10.852C33.5179 10.8437 37.1947 10.8283 40.8711 10.8556C41.9462 10.8637 42.5424 12.0112 42.0232 12.9445C41.7292 13.4727 41.2469 13.6154 40.6859 13.6147C38.8947 13.6127 37.1034 13.6141 35.3122 13.6141V13.6118Z" fill="white"/>
<path fill-rule="evenodd" clip-rule="evenodd" d="M35.3137 19.0303C33.5225 19.0303 31.7312 19.0397 29.9401 19.0256C29.2274 19.0201 28.7154 18.6002 28.5797 17.978C28.4376 17.326 28.7137 16.7053 29.3009 16.4119C29.4643 16.3305 29.6592 16.2709 29.8399 16.2706C33.5165 16.2621 37.1931 16.2488 40.8697 16.2733C41.8744 16.2799 42.4754 17.2836 42.0964 18.2092C41.8391 18.8376 41.3248 19.0356 40.6873 19.034C38.8961 19.0297 37.1048 19.0325 35.3137 19.0325V19.0303Z" fill="white"/>
<path fill-rule="evenodd" clip-rule="evenodd" d="M35.3279 24.447C33.5178 24.447 31.7077 24.4578 29.8978 24.4414C29.2201 24.4352 28.7212 24.0126 28.5829 23.4102C28.4339 22.76 28.7092 22.1477 29.2848 21.8307C29.5263 21.6976 29.7859 21.6763 30.0514 21.6763C33.596 21.6759 37.1408 21.6711 40.6855 21.6793C41.6366 21.6816 42.1923 22.2101 42.1943 23.0621C42.1965 23.9341 41.6693 24.4405 40.7015 24.4471C38.9103 24.4592 37.119 24.4506 35.3279 24.4506V24.447Z" fill="white"/>
</svg>
