<svg width="57" height="38" viewBox="0 0 57 38" fill="none" xmlns="http://www.w3.org/2000/svg">
<path fill-rule="evenodd" clip-rule="evenodd" d="M25.3617 23.5239C26.2814 24.4482 27.2044 25.3694 28.1186 26.2992C28.3469 26.5315 28.5343 26.6487 28.82 26.3589C30.5981 24.5545 32.4181 22.7905 34.1614 20.9531C35.2959 19.7575 35.354 18.271 34.3468 17.2265C32.5366 15.3492 30.6749 13.5222 28.8405 11.6682C28.6101 11.4352 28.4276 11.3988 28.18 11.6494C26.4001 13.4521 24.5759 15.2122 22.8389 17.0554C21.5676 18.4042 21.6617 19.804 22.9621 21.1128C23.7613 21.9172 24.5615 22.7204 25.3617 23.5239ZM32.7014 11.5943C33.8746 12.7733 35.0541 13.9459 36.2194 15.1326C38.3176 17.2692 38.3533 20.6711 36.256 22.8218C33.8404 25.2989 31.3758 27.7279 28.949 30.1942C28.591 30.5579 28.3687 30.5198 28.0312 30.1774C25.6028 27.7146 23.1479 25.278 20.7223 22.8122C18.7354 20.7922 18.6541 17.3746 20.6124 15.3352C23.0741 12.7716 25.6157 10.2852 28.1133 7.75601C28.4135 7.45215 28.6232 7.48348 28.9061 7.77196C30.1632 9.05405 31.4348 10.3216 32.7014 11.5943Z" fill="white"/>
<path fill-rule="evenodd" clip-rule="evenodd" d="M24.3646 3.21569C24.9774 3.83172 25.5766 4.46234 26.2087 5.05776C26.5569 5.38565 26.5339 5.62993 26.1942 5.9372C25.8024 6.29154 25.4277 6.6682 25.0749 7.06172C24.775 7.39634 24.5464 7.37242 24.2408 7.05808C23.1743 5.96102 22.0874 4.88389 21.0076 3.79994C19.6723 2.45974 18.275 2.42625 16.8802 3.71961C16.382 4.18173 15.9068 4.67027 15.4381 5.16314C15.176 5.43863 14.9602 5.46894 14.6877 5.17625C14.2757 4.73419 13.8401 4.31434 13.4127 3.88698C13.2329 3.70719 13.133 3.52194 13.3548 3.30558C14.1381 2.5412 14.8276 1.67247 15.724 1.03387C17.9331 -0.53977 20.8451 -0.292763 22.7652 1.60946C23.3019 2.14119 23.8316 2.68009 24.3646 3.21569Z" fill="white"/>
<path fill-rule="evenodd" clip-rule="evenodd" d="M32.7879 3.06671C33.4507 2.4738 34.1191 1.58706 35.0284 0.957582C37.1368 -0.502127 40.0713 -0.259449 41.8974 1.53146C42.4503 2.07367 42.9835 2.63638 43.5408 3.17381C43.8142 3.43756 43.8453 3.65403 43.5537 3.92804C43.1271 4.32874 42.7131 4.7446 42.3144 5.17356C42.0397 5.46899 41.8228 5.42934 41.5642 5.15567C41.1362 4.70267 40.6874 4.2695 40.2476 3.82778C38.8526 2.42755 37.4241 2.40932 35.9985 3.80306C34.9177 4.85967 33.8506 5.93121 32.8024 7.02052C32.458 7.3785 32.2134 7.39388 31.8853 7.01882C31.5378 6.6213 31.1561 6.25159 30.7686 5.89247C30.4679 5.61391 30.4552 5.38855 30.7597 5.0962C31.4002 4.48141 32.0168 3.84157 32.7879 3.06671Z" fill="white"/>
<mask id="mask0_43_7811" style="mask-type:luminance" maskUnits="userSpaceOnUse" x="13" y="30" width="14" height="8">
<path fill-rule="evenodd" clip-rule="evenodd" d="M13.2441 30.7122H26.4597V38H13.2441V30.7122Z" fill="white"/>
</mask>
<g mask="url(#mask0_43_7811)">
<path fill-rule="evenodd" clip-rule="evenodd" d="M24.1869 34.9662C23.5176 35.5659 22.8479 36.4509 21.9352 37.0769C19.8545 38.5042 16.9166 38.2532 15.1104 36.4843C14.5572 35.9424 14.0271 35.3765 13.4661 34.8432C13.1593 34.5514 13.1779 34.326 13.4766 34.0469C13.9046 33.6475 14.3134 33.2269 14.7188 32.804C14.9525 32.5603 15.1521 32.5633 15.3851 32.8051C15.8309 33.2675 16.2904 33.7164 16.7436 34.1714C18.1432 35.5765 19.5694 35.6009 20.9923 34.2125C22.074 33.1569 23.1392 32.0833 24.1893 30.9958C24.5234 30.6498 24.7695 30.5924 25.106 30.9803C25.452 31.379 25.8319 31.7513 26.2234 32.1058C26.5611 32.4114 26.5195 32.646 26.2086 32.9436C25.5673 33.5575 24.9511 34.1981 24.1869 34.9662Z" fill="white"/>
</g>
<path fill-rule="evenodd" clip-rule="evenodd" d="M34.497 32.7065C34.9904 33.2017 35.4831 33.6973 35.9763 34.1925C37.3338 35.5551 38.7406 35.5846 40.1448 34.2643C40.6402 33.7986 41.1163 33.3116 41.5868 32.8204C41.8365 32.5598 42.0443 32.5522 42.2952 32.8172C42.6976 33.2423 43.1101 33.6589 43.5351 34.0615C43.8116 34.3232 43.8355 34.5392 43.5473 34.8155C42.9201 35.4167 42.3352 36.0642 41.6923 36.6473C39.6399 38.5092 36.3111 38.4361 34.3315 36.4911C33.1459 35.326 31.9914 34.1291 30.8056 32.9646C30.482 32.6469 30.4307 32.4075 30.7895 32.0852C31.1963 31.7197 31.5803 31.3257 31.9499 30.9216C32.2381 30.6064 32.4627 30.6414 32.7421 30.9354C33.3146 31.5376 33.9105 32.1177 34.497 32.7065Z" fill="white"/>
<mask id="mask1_43_7811" style="mask-type:luminance" maskUnits="userSpaceOnUse" x="0" y="13" width="6" height="12">
<path fill-rule="evenodd" clip-rule="evenodd" d="M0 13.3274H5.3388V24.6935H0V13.3274Z" fill="white"/>
</mask>
<g mask="url(#mask1_43_7811)">
<path fill-rule="evenodd" clip-rule="evenodd" d="M2.05682 23.3669C0.882789 22.3671 0.0731223 20.9959 0.00476209 19.2285C-0.0522615 17.7536 0.402907 16.465 1.36641 15.3711C1.92758 14.7341 2.56175 14.1623 3.14843 13.5472C3.41098 13.2718 3.62638 13.2416 3.89858 13.5343C4.29717 13.9628 4.71074 14.3786 5.13722 14.7791C5.43107 15.055 5.38198 15.2645 5.12078 15.5342C4.50429 16.1709 3.8267 16.7481 3.29592 17.4699C2.52944 18.5121 2.58998 19.8903 3.49045 20.8449C4.02169 21.4082 4.57027 21.9556 5.12793 22.4924C5.40976 22.7637 5.40908 22.9797 5.126 23.2465C4.70008 23.6481 4.28867 24.066 3.88588 24.491C3.63953 24.7508 3.4289 24.7682 3.1779 24.499C2.85617 24.1536 2.51459 23.827 2.05682 23.3669Z" fill="white"/>
</g>
<path fill-rule="evenodd" clip-rule="evenodd" d="M54.9333 14.6319C56.1161 15.6327 56.9349 17.019 56.9965 18.809C57.0458 20.2411 56.6114 21.5028 55.6872 22.5731C55.108 23.2439 54.4437 23.84 53.8289 24.4807C53.582 24.7379 53.3747 24.7591 53.1208 24.4911C52.7053 24.0523 52.2788 23.6233 51.8421 23.2059C51.5708 22.9465 51.6189 22.7455 51.8606 22.493C52.4738 21.8527 53.1553 21.2793 53.6867 20.5582C54.4769 19.4859 54.4133 18.1116 53.4886 17.1404C52.9546 16.5798 52.4064 16.0323 51.8513 15.4926C51.5898 15.2381 51.5952 15.0302 51.8556 14.7808C52.292 14.3628 52.7169 13.9321 53.1358 13.4962C53.3666 13.2559 53.5678 13.2429 53.8019 13.4904C54.1261 13.8335 54.4657 14.1619 54.9333 14.6319Z" fill="white"/>
<path fill-rule="evenodd" clip-rule="evenodd" d="M8.33064 8.34447C9.1428 7.52803 9.97015 6.72605 10.7604 5.88876C11.1074 5.52098 11.3531 5.53466 11.6768 5.90004C12.0516 6.32341 12.4647 6.71295 12.8686 7.10955C13.088 7.325 13.0902 7.51606 12.8711 7.73573C11.1373 9.47263 9.40615 11.2123 7.67776 12.9547C7.45647 13.1777 7.26658 13.163 7.0547 12.9453C6.63342 12.5127 6.21589 12.0752 5.77308 11.6653C5.44715 11.3635 5.53388 11.142 5.81061 10.8702C6.65916 10.0371 7.49195 9.18769 8.33064 8.34447Z" fill="white"/>
<path fill-rule="evenodd" clip-rule="evenodd" d="M10.3055 27.7027C11.1309 28.5319 11.9486 29.3691 12.7855 30.1865C13.0772 30.4715 13.1048 30.6941 12.7948 30.982C12.3665 31.38 11.9598 31.8021 11.5539 32.2235C11.33 32.4558 11.1338 32.4939 10.8884 32.2461C9.17532 30.5162 7.45906 28.7898 5.736 27.0701C5.46618 26.8009 5.5181 26.5976 5.76615 26.3591C6.18788 25.9535 6.60495 25.542 7.00332 25.1137C7.27756 24.8188 7.49058 24.8616 7.75291 25.1311C8.5959 25.9961 9.45341 26.8466 10.3055 27.7027Z" fill="white"/>
<path fill-rule="evenodd" clip-rule="evenodd" d="M48.7138 8.37932C49.539 9.20875 50.354 10.049 51.195 10.862C51.5181 11.1746 51.5083 11.4037 51.187 11.6997C50.757 12.0958 50.3524 12.52 49.9443 12.9394C49.7311 13.1587 49.541 13.1667 49.3212 12.9452C47.5935 11.2035 45.8631 9.46442 44.1301 7.72808C43.9095 7.50705 43.9185 7.31599 44.1364 7.10191C44.5538 6.69163 44.976 6.28512 45.3701 5.85297C45.6648 5.52952 45.8928 5.52154 46.2034 5.84568C47.026 6.70405 47.8753 7.53656 48.7138 8.37932Z" fill="white"/>
<path fill-rule="evenodd" clip-rule="evenodd" d="M46.736 27.6499C47.5616 26.8202 48.3965 25.9997 49.2079 25.156C49.51 24.8418 49.7394 24.8146 50.0411 25.1496C50.4198 25.5698 50.8275 25.9646 51.236 26.3561C51.4895 26.5988 51.5198 26.8028 51.2551 27.0671C49.545 28.7743 47.8409 30.4876 46.142 32.206C45.8902 32.4607 45.6863 32.4788 45.4344 32.2126C45.0324 31.7877 44.6235 31.3679 44.1948 30.9706C43.8785 30.6774 43.9295 30.455 44.2156 30.1752C45.0652 29.3433 45.8972 28.493 46.736 27.6499Z" fill="white"/>
</svg>
