<svg width="53" height="50" viewBox="0 0 53 50" fill="none" xmlns="http://www.w3.org/2000/svg">
<ellipse cx="26.2567" cy="24.5565" rx="25.2567" ry="7.89272" stroke="white" stroke-width="2" stroke-linecap="round" stroke-linejoin="round" stroke-dasharray="5.5 5.5"/>
<path d="M43.4088 41.7085C42.7589 42.3583 41.7065 42.7134 40.1656 42.6207C38.6262 42.5282 36.7214 41.991 34.5632 41.01C30.2542 39.0513 25.136 35.4158 20.2666 30.5465C15.3973 25.6771 11.7618 20.5589 9.8031 16.2499C8.82213 14.0917 8.28487 12.1869 8.19234 10.6475C8.09972 9.10657 8.45479 8.05415 9.10464 7.4043C9.75449 6.75445 10.8069 6.39938 12.3478 6.49201C13.8872 6.58454 15.7921 7.12179 17.9502 8.10276C22.2593 10.0614 27.3775 13.697 32.2468 18.5663C37.1161 23.4356 40.7517 28.5538 42.7103 32.8629C43.6913 35.021 44.2286 36.9259 44.3211 38.4652C44.4137 40.0062 44.0586 41.0586 43.4088 41.7085Z" stroke="white" stroke-width="2"/>
<path d="M43.4086 7.40444C44.0585 8.05429 44.4136 9.10671 44.3209 10.6476C44.2284 12.187 43.6912 14.0919 42.7102 16.25C40.7515 20.5591 37.116 25.6773 32.2467 30.5466C27.3773 35.4159 22.2591 39.0515 17.9501 41.0101C15.7919 41.9911 13.8871 42.5284 12.3477 42.6209C10.8068 42.7135 9.75435 42.3584 9.1045 41.7086C8.45464 41.0587 8.09958 40.0063 8.1922 38.4654C8.28473 36.926 8.82199 35.0212 9.80296 32.863C11.7616 28.554 15.3972 23.4358 20.2665 18.5664C25.1358 13.6971 30.254 10.0616 34.5631 8.1029C36.7212 7.12193 38.6261 6.58467 40.1654 6.49214C41.7064 6.39952 42.7588 6.75459 43.4086 7.40444Z" stroke="white" stroke-width="2"/>
<circle cx="25.8623" cy="24.9511" r="3.55172" fill="white"/>
</svg>
