<svg width="47" height="35" viewBox="0 0 47 35" fill="none" xmlns="http://www.w3.org/2000/svg">
<mask id="mask0_43_7795" style="mask-type:luminance" maskUnits="userSpaceOnUse" x="0" y="0" width="47" height="24">
<path fill-rule="evenodd" clip-rule="evenodd" d="M0 0H47V23.3619H0V0Z" fill="white"/>
</mask>
<g mask="url(#mask0_43_7795)">
<path fill-rule="evenodd" clip-rule="evenodd" d="M23.4948 3.00574C23.1526 3.05024 22.8215 3.12525 22.4996 3.26859C16.4455 5.9615 10.3885 8.64822 4.33379 11.3398C4.15422 11.4195 3.86181 11.4518 3.85177 11.656C3.83867 11.9217 4.16022 11.9349 4.3497 12.0194C10.4031 14.7136 16.4608 17.3988 22.5139 20.0938C23.1699 20.3858 23.801 20.401 24.4557 20.1099C30.5477 17.4023 36.6417 14.6989 42.7337 11.9908C42.8948 11.9191 43.1533 11.8879 43.1628 11.6988C43.175 11.4575 42.8906 11.4355 42.7183 11.3588C36.627 8.64907 30.5331 5.94558 24.4408 3.23808C24.1381 3.10349 23.8208 3.0489 23.4948 3.00574ZM23.5126 0.00147664C24.2379 -0.0132341 24.9221 0.151502 25.5829 0.445108C32.0655 3.3244 38.5379 6.22727 45.041 9.0606C47.0052 9.91638 47.4283 11.7629 46.5961 13.0923C46.2545 13.6381 45.749 13.9579 45.1879 14.2075C40.4338 16.3222 35.6767 18.4304 30.9207 20.5404C29.1556 21.3234 27.3891 22.1029 25.6259 22.8899C24.2057 23.5238 22.794 23.5164 21.373 22.8849C14.9278 20.0209 8.48347 17.1554 2.03042 14.3094C0.974459 13.8437 0.178967 13.1949 0.0246178 12.0029C-0.135729 10.7653 0.49195 9.75638 1.76958 9.17537C3.41589 8.42634 5.07408 7.70272 6.72761 6.96913C11.5765 4.81772 16.427 2.66995 21.2732 0.51234C21.9901 0.193202 22.7218 -0.0199208 23.5126 0.00147664Z" fill="white"/>
</g>
<path fill-rule="evenodd" clip-rule="evenodd" d="M23.4865 34.9982C22.7819 35.0123 22.1135 34.8589 21.472 34.5743C14.9478 31.6788 8.4249 28.7807 1.89731 25.893C0.806583 25.4106 0.0688647 24.6732 0.0158645 23.4406C-0.0306483 22.3555 0.434725 21.4916 1.41823 21.0082C2.67591 20.3898 3.9604 19.8193 5.25835 19.2885C6.13524 18.93 7.00944 19.2962 7.32169 20.0509C7.64666 20.8365 7.31067 21.6338 6.44308 22.0512C5.7471 22.3859 5.03068 22.6783 4.32748 22.9983C4.15012 23.0789 3.86174 23.0929 3.8506 23.3141C3.83885 23.5496 4.13286 23.5687 4.30619 23.6463C7.05399 24.8741 9.80498 26.0947 12.5559 27.3156C15.8644 28.784 19.1767 30.2441 22.48 31.7239C23.1806 32.0377 23.8373 32.0315 24.5346 31.7209C30.572 29.0324 36.6145 26.355 42.6528 23.6687C42.8443 23.5833 43.1715 23.5647 43.1589 23.311C43.1471 23.0785 42.828 23.0531 42.6329 22.9622C41.9325 22.636 41.2057 22.3604 40.5266 21.9963C39.3523 21.3666 39.2573 19.9886 40.3197 19.357C40.8384 19.0488 41.3852 19.1137 41.9067 19.3384C43.0646 19.8373 44.2173 20.3488 45.3623 20.8761C46.4187 21.3625 47.0112 22.1857 46.9974 23.3579C46.9838 24.5035 46.3875 25.3062 45.3527 25.7729C43.2951 26.701 41.2288 27.61 39.1657 28.5259C34.6862 30.5138 30.2049 32.4979 25.728 34.492C25.0108 34.8116 24.2776 35.021 23.4865 34.9982Z" fill="white"/>
</svg>
