<svg width="53" height="50" viewBox="0 0 53 50" fill="none" xmlns="http://www.w3.org/2000/svg">
<ellipse cx="26.2567" cy="25.4437" rx="25.2567" ry="7.89272" stroke="black" stroke-width="2" stroke-linecap="round" stroke-linejoin="round" stroke-dasharray="5.5 5.5"/>
<path d="M43.4088 42.5957C42.7589 43.2455 41.7065 43.6006 40.1656 43.508C38.6262 43.4154 36.7214 42.8782 34.5632 41.8972C30.2542 39.9385 25.136 36.303 20.2666 31.4337C15.3973 26.5643 11.7618 21.4461 9.8031 17.1371C8.82213 14.9789 8.28487 13.0741 8.19234 11.5347C8.09972 9.99378 8.45479 8.94136 9.10464 8.29151C9.75449 7.64166 10.8069 7.28659 12.3478 7.37921C13.8872 7.47174 15.7921 8.009 17.9502 8.98997C22.2593 10.9486 27.3775 14.5842 32.2468 19.4535C37.1161 24.3228 40.7517 29.441 42.7103 33.7501C43.6913 35.9082 44.2286 37.8131 44.3211 39.3525C44.4137 40.8934 44.0586 41.9458 43.4088 42.5957Z" stroke="black" stroke-width="2"/>
<path d="M43.4086 8.29165C44.0585 8.9415 44.4136 9.99392 44.3209 11.5349C44.2284 13.0742 43.6912 14.9791 42.7102 17.1372C40.7515 21.4463 37.116 26.5645 32.2467 31.4338C27.3773 36.3031 22.2591 39.9387 17.9501 41.8973C15.7919 42.8783 13.8871 43.4156 12.3477 43.5081C10.8068 43.6007 9.75435 43.2457 9.1045 42.5958C8.45464 41.9459 8.09958 40.8935 8.1922 39.3526C8.28473 37.8132 8.82199 35.9084 9.80296 33.7502C11.7616 29.4412 15.3972 24.323 20.2665 19.4536C25.1358 14.5843 30.254 10.9488 34.5631 8.99011C36.7212 8.00914 38.6261 7.47188 40.1654 7.37935C41.7064 7.28673 42.7588 7.64179 43.4086 8.29165Z" stroke="black" stroke-width="2"/>
<circle cx="25.8623" cy="25.8383" r="3.55172" fill="black"/>
</svg>
