<svg width="96" height="53" viewBox="0 0 96 53" fill="none" xmlns="http://www.w3.org/2000/svg">
<path d="M54.0237 26.5C54.0237 41.1247 41.9584 53 27.0118 53C12.0653 53 0 41.1247 0 26.5C0 11.8753 12.0653 0 27.0118 0C41.9584 0 54.0237 11.8753 54.0237 26.5ZM83.6166 26.5C83.6166 40.2472 77.554 51.4205 70.1107 51.4205C62.6674 51.4205 56.6048 40.2472 56.6048 26.5C56.6048 12.7528 62.6674 1.57946 70.1107 1.57946C77.554 1.57946 83.6166 12.6943 83.6166 26.5ZM95.7419 26.5C95.7419 38.8433 93.641 48.8466 90.9999 48.8466C88.3587 48.8466 86.2578 38.8433 86.2578 26.5C86.2578 14.1567 88.3587 4.15341 90.9999 4.15341C93.641 4.15341 95.7419 14.1567 95.7419 26.5Z" fill="#3D3D3D"/>
</svg>
