<svg width="390" height="723" viewBox="0 0 390 723" fill="none" xmlns="http://www.w3.org/2000/svg">
<mask id="mask0_262_13789" style="mask-type:alpha" maskUnits="userSpaceOnUse" x="-336" y="0" width="921" height="723">
<rect x="-336" width="921" height="722.729" fill="url(#paint0_radial_262_13789)"/>
</mask>
<g mask="url(#mask0_262_13789)">
<rect x="-336" width="921" height="722.729" fill="url(#paint1_linear_262_13789)"/>
<mask id="mask1_262_13789" style="mask-type:luminance" maskUnits="userSpaceOnUse" x="-336" y="0" width="921" height="723">
<rect x="-336" width="921" height="722.729" fill="white"/>
</mask>
<g mask="url(#mask1_262_13789)">
<g opacity="0.5">
<path opacity="0.44" d="M310.204 -683.075L416.83 -45.6693L331.38 237.074L-406.034 471.053" stroke="#01ABB2" stroke-width="1.25417"/>
<path opacity="0.256156" d="M276.307 -699.704L382.932 -62.2984L297.483 220.444L-359.276 342.701" stroke="#01ABB2" stroke-width="1.25417"/>
<path opacity="0.256156" d="M250.084 -716.973L356.709 -79.5672L271.26 203.176L-385.499 292.121" stroke="#01ABB2" stroke-width="1.25417"/>
<path opacity="0.5022" d="M369.027 -656.559L440.575 -39.0242L361.09 250.861L-359.276 596.956" stroke="#01ABB2" stroke-width="1.53284"/>
<path opacity="0.5644" d="M427.849 -630.047L464.302 -32.379L390.816 264.649L-281.331 735.378" stroke="#01ABB2" stroke-width="1.81152"/>
<path opacity="0.6267" d="M486.655 -603.531L488.047 -25.7339L420.526 278.436L-83.3411 773.593" stroke="#01ABB2" stroke-width="2.09032"/>
<path opacity="0.6889" d="M545.477 -577.019L511.774 -19.0721L450.234 292.223L99.2719 773.593" stroke="#01ABB2" stroke-width="2.369"/>
<path opacity="0.7511" d="M604.282 -550.502L535.518 -12.4267L479.96 306.011L202.965 856.284" stroke="#01ABB2" stroke-width="2.64767"/>
<path opacity="0.8133" d="M663.104 -523.989L559.245 -5.78178L509.669 319.798L306.673 938.975" stroke="#01ABB2" stroke-width="2.92635"/>
</g>
</g>
</g>
<mask id="mask2_262_13789" style="mask-type:alpha" maskUnits="userSpaceOnUse" x="-336" y="0" width="921" height="723">
<rect x="-336" width="921" height="722.729" fill="url(#paint2_radial_262_13789)"/>
</mask>
<g mask="url(#mask2_262_13789)">
<rect x="-336" width="921" height="722.729" fill="url(#paint3_linear_262_13789)"/>
<mask id="mask3_262_13789" style="mask-type:luminance" maskUnits="userSpaceOnUse" x="-336" y="0" width="921" height="723">
<rect x="-336" width="921" height="722.729" fill="white"/>
</mask>
<g mask="url(#mask3_262_13789)">
<g opacity="0.5">
<path opacity="0.44" d="M310.204 -683.075L416.83 -45.6693L331.38 237.074L-406.034 471.053" stroke="#01ABB2" stroke-width="1.25417"/>
<path opacity="0.256156" d="M276.307 -699.704L382.932 -62.2984L297.483 220.444L-359.276 342.701" stroke="#01ABB2" stroke-width="1.25417"/>
<path opacity="0.256156" d="M250.084 -716.973L356.709 -79.5672L271.26 203.176L-385.499 292.121" stroke="#01ABB2" stroke-width="1.25417"/>
<path opacity="0.5022" d="M369.027 -656.559L440.575 -39.0242L361.09 250.861L-359.276 596.956" stroke="#01ABB2" stroke-width="1.53284"/>
<path opacity="0.5644" d="M427.849 -630.047L464.302 -32.379L390.816 264.649L-281.331 735.378" stroke="#01ABB2" stroke-width="1.81152"/>
<path opacity="0.6267" d="M486.655 -603.531L488.047 -25.7339L420.526 278.436L-83.3411 773.593" stroke="#01ABB2" stroke-width="2.09032"/>
<path opacity="0.6889" d="M545.477 -577.019L511.774 -19.0721L450.234 292.223L99.2719 773.593" stroke="#01ABB2" stroke-width="2.369"/>
<path opacity="0.7511" d="M604.282 -550.502L535.518 -12.4267L479.96 306.011L202.965 856.284" stroke="#01ABB2" stroke-width="2.64767"/>
<path opacity="0.8133" d="M663.104 -523.989L559.245 -5.78178L509.669 319.798L306.673 938.975" stroke="#01ABB2" stroke-width="2.92635"/>
</g>
</g>
</g>
<defs>
<radialGradient id="paint0_radial_262_13789" cx="0" cy="0" r="1" gradientUnits="userSpaceOnUse" gradientTransform="translate(300.385 104.572) rotate(73.4341) scale(644.927 643.468)">
<stop offset="0.3049"/>
<stop offset="0.832573" stop-opacity="0"/>
</radialGradient>
<linearGradient id="paint1_linear_262_13789" x1="-336" y1="0" x2="-336" y2="722.729" gradientUnits="userSpaceOnUse">
<stop stop-color="#FAFAFA"/>
<stop offset="1" stop-color="#FDFDFD"/>
</linearGradient>
<radialGradient id="paint2_radial_262_13789" cx="0" cy="0" r="1" gradientUnits="userSpaceOnUse" gradientTransform="translate(300.385 104.572) rotate(73.4341) scale(644.927 643.468)">
<stop offset="0.3049"/>
<stop offset="1" stop-opacity="0"/>
</radialGradient>
<linearGradient id="paint3_linear_262_13789" x1="-336" y1="0" x2="-336" y2="722.729" gradientUnits="userSpaceOnUse">
<stop stop-color="#FAFAFA"/>
<stop offset="1" stop-color="#FDFDFD"/>
</linearGradient>
</defs>
</svg>
