<svg width="87" height="87" viewBox="0 0 87 87" fill="none" xmlns="http://www.w3.org/2000/svg">
<path fill-rule="evenodd" clip-rule="evenodd" d="M87 43.5C87 67.5244 67.5244 87 43.5 87C19.4756 87 0 67.5244 0 43.5C0 19.4756 19.4756 0 43.5 0C67.5244 0 87 19.4756 87 43.5ZM47.6685 30.1522C40.1954 33.3801 18.6477 42.5472 18.6477 42.5472C13.5411 44.6131 16.5302 46.5498 16.5302 46.5498C16.5302 46.5498 20.8895 48.0993 24.6263 49.2612C28.3628 50.4233 30.3557 49.1322 30.3557 49.1322C30.3557 49.1322 39.0744 43.1929 47.9176 36.8661C54.1452 32.4763 52.6507 36.0915 51.1559 37.641C47.9176 40.9979 42.5619 46.2916 38.0779 50.5525C36.0851 52.3601 37.0815 53.9094 37.9534 54.6841C40.4892 56.9083 46.4614 60.9534 49.1729 62.79C49.9242 63.2988 50.4252 63.6381 50.5333 63.7222C51.156 64.2388 54.6436 66.5627 56.7609 66.0463C58.8783 65.5299 59.1274 62.5601 59.1274 62.5601C59.1274 62.5601 60.7466 51.9727 62.2413 42.289C62.5181 40.3877 62.7949 38.5263 63.0531 36.7906C63.724 32.2792 64.2687 28.6171 64.3587 27.3116C64.7324 22.9218 60.2484 24.7293 60.2484 24.7293C60.2484 24.7293 50.5333 28.8611 47.6685 30.1522Z" fill="#3D3D3D"/>
</svg>
