<svg width="87" height="71" viewBox="0 0 87 71" fill="none" xmlns="http://www.w3.org/2000/svg">
<path d="M85.6865 8.4594C82.9231 9.64865 80.018 10.4768 77.0429 10.9233C78.4338 10.6849 80.4804 8.18121 81.2951 7.16783C82.5328 5.63923 83.4761 3.89421 84.077 2.02141C84.077 1.88232 84.2161 1.68362 84.077 1.58426C84.0069 1.546 83.9283 1.52595 83.8485 1.52595C83.7686 1.52595 83.69 1.546 83.62 1.58426C80.3894 3.33369 76.9513 4.66891 73.3867 5.55833C73.2625 5.59628 73.1303 5.59969 73.0043 5.56818C72.8782 5.53668 72.7632 5.47145 72.6714 5.3795C72.3939 5.04911 72.0953 4.73715 71.7773 4.44559C70.3234 3.14299 68.6739 2.07687 66.8891 1.28621C64.4799 0.297815 61.8777 -0.130238 59.2788 0.0343796C56.7571 0.193636 54.2951 0.870001 52.046 2.02141C49.8312 3.23534 47.8847 4.88449 46.3234 6.86977C44.681 8.91314 43.4954 11.2845 42.8461 13.8244C42.3106 16.2403 42.2499 18.7373 42.6672 21.1764C42.6672 21.5937 42.6672 21.6533 42.3096 21.5937C28.142 19.5073 16.5179 14.4801 7.01987 3.69052C6.60259 3.21363 6.38402 3.21363 6.04622 3.69052C1.91319 9.96954 3.9201 19.9047 9.08638 24.8127C9.78184 25.4684 10.4972 26.1042 11.2522 26.7004C8.88354 26.5322 6.57268 25.8903 4.45659 24.8127C4.05919 24.5544 3.84061 24.6935 3.82074 25.1703C3.76442 25.8315 3.76442 26.4962 3.82074 27.1574C4.23535 30.3259 5.48404 33.3274 7.43913 35.8551C9.39422 38.3827 11.9855 40.3458 14.9481 41.5435C15.6703 41.8528 16.4229 42.0859 17.1935 42.2389C15.0006 42.6707 12.7516 42.7378 10.5369 42.4377C10.06 42.3383 9.88119 42.5966 10.06 43.0536C12.981 51.0018 19.3196 53.4259 23.9693 54.7771C24.6051 54.8765 25.241 54.8765 25.9563 55.0354C25.9563 55.0354 25.9563 55.0354 25.8371 55.1547C24.466 57.6583 18.9222 59.3473 16.3788 60.2216C11.7364 61.8891 6.78681 62.5265 1.87345 62.0894C1.09851 61.9702 0.919677 61.9901 0.720974 62.0894C0.522271 62.1888 0.720974 62.4073 0.939548 62.606C1.93306 63.2618 2.92658 63.838 3.95984 64.3944C7.03585 66.0721 10.2878 67.4049 13.6566 68.3684C31.1027 73.177 50.7346 69.6401 63.8291 56.6251C74.1219 46.4117 77.7383 32.3237 77.7383 18.2157C77.7383 17.6792 78.3941 17.3613 78.7716 17.0831C81.3756 15.0541 83.6714 12.658 85.5871 9.96954C85.9189 9.56879 86.089 9.05855 86.064 8.53888C86.064 8.24082 86.064 8.30044 85.6865 8.4594Z" fill="white"/>
</svg>
