<svg width="94" height="82" viewBox="0 0 94 82" fill="none" xmlns="http://www.w3.org/2000/svg">
<g clip-path="url(#clip0_202_9493)">
<path d="M0.0489972 35.1045C0.0489972 46.9687 0.024518 58.8574 0.024518 70.7216C0.024518 71.039 0.0734764 71.3808 0.122435 71.6981C1.39535 78.2894 5.89952 82 12.6313 82C35.4214 82 58.2115 82 81.0016 82C81.9808 82 82.9354 81.9512 83.9146 81.8047C89.4469 81.0235 93.9266 76.2632 93.9511 70.7461C94.0245 58.8818 93.9511 46.9932 93.9511 35.1289C93.9511 27.5612 93.9756 20.0179 93.9756 12.4501C93.9756 5.10211 88.9084 0.0488241 81.5401 0.024412C77.55 0.024412 73.5599 0.024412 69.5453 0.024412C50.525 0 31.4802 0 12.4599 0C5.50785 0 0.122435 4.90682 0.0489972 11.4492C-0.0489195 19.3343 0.024518 27.2194 0.0489972 35.1045Z" fill="#FEFEFE"/>
<path d="M93.951 35.1045C93.951 46.9687 94.0244 58.8574 93.951 70.7216C93.9265 76.2388 89.4468 80.9991 83.9145 81.7803C82.9353 81.9268 81.9807 81.9756 81.0015 81.9756C58.2114 81.9756 35.4213 81.9756 12.6312 81.9756C5.89941 81.9756 1.39525 78.265 0.122331 71.6737C0.0733724 71.3563 0.0244141 71.039 0.0244141 70.6972C0.0244141 58.833 0.0244141 46.9443 0.0488932 35.0801C0.367122 35.0801 0.709831 35.1045 1.02806 35.1045C31.676 35.1045 62.3239 35.1045 92.9963 35.1045C93.3145 35.1289 93.6327 35.1289 93.951 35.1045Z" fill="black" fill-opacity="0.3"/>
<path d="M93.951 35.1045C93.6328 35.1045 93.2901 35.1289 92.9719 35.1289C62.3239 35.1289 31.676 35.1289 1.00364 35.1289C0.685413 35.1289 0.342705 35.1045 0.0244755 35.1045C0.0244755 27.2194 -0.0734411 19.3343 0.0244755 11.4492C0.122392 4.90682 5.50781 0 12.4599 0C31.5047 0 50.525 0 69.5698 0C73.5599 0 77.55 0 81.5646 0C88.9328 0.024412 94 5.0777 94 12.4257C93.9755 19.9935 93.9755 27.5612 93.951 35.1045ZM55.6656 21.9708C62.7156 21.9708 69.7656 21.9708 76.8156 21.9708C80.2182 21.9708 82.25 20.2864 82.2255 17.5278C82.201 14.7937 80.1937 13.1825 76.8401 13.1825C62.8135 13.1825 48.8115 13.1825 34.7849 13.1825C34.4177 13.1825 34.0505 13.1581 33.6833 13.2069C31.8474 13.3778 30.4521 14.1834 29.7177 15.9655C29.0323 17.6011 29.424 19.0902 30.4521 20.4085C31.4557 21.6779 32.8755 21.9464 34.3932 21.9464C41.4922 21.9708 48.5911 21.9708 55.6656 21.9708ZM11.75 17.5522C11.75 21.0432 14.149 23.4355 17.6495 23.4355C21.101 23.4355 23.5 21.0432 23.5245 17.6499C23.5245 14.1346 21.1745 11.7178 17.6984 11.7178C14.1734 11.7178 11.75 14.0857 11.75 17.5522Z" fill="#3D3D3D"/>
<path d="M55.6657 21.9708C48.5667 21.9708 41.4923 21.9708 34.3933 21.9708C32.8756 21.9708 31.4558 21.7023 30.4521 20.4329C29.3995 19.0902 29.0324 17.6255 29.7178 15.9899C30.4521 14.2078 31.8475 13.4022 33.6834 13.2313C34.0506 13.2069 34.4178 13.2069 34.785 13.2069C48.8115 13.2069 62.8136 13.2069 76.8402 13.2069C80.1938 13.2069 82.2011 14.8181 82.2256 17.5523C82.2501 20.3108 80.2183 21.9952 76.8157 21.9952C69.7902 21.9708 62.7402 21.9708 55.6657 21.9708Z" fill="#FEFEFE"/>
<path d="M11.75 17.5522C11.75 14.0857 14.1734 11.7178 17.674 11.7178C21.15 11.7178 23.5 14.1346 23.5 17.6499C23.5 21.0432 21.0766 23.4111 17.625 23.4355C14.149 23.4355 11.75 21.0432 11.75 17.5522Z" fill="#01ABB2"/>
</g>
<defs>
<clipPath id="clip0_202_9493">
<rect width="94" height="82" fill="white"/>
</clipPath>
</defs>
</svg>
