<svg width="82" height="82" viewBox="0 0 82 82" fill="none" xmlns="http://www.w3.org/2000/svg">
<mask id="mask0_202_9507" style="mask-type:alpha" maskUnits="userSpaceOnUse" x="0" y="0" width="82" height="82">
<rect width="82" height="82" rx="16" fill="#3D3D3D"/>
</mask>
<g mask="url(#mask0_202_9507)">
<rect width="82" height="82" rx="18" fill="#3D3D3D"/>
<rect x="-20.5" y="69.7" width="123" height="80.36" rx="16" fill="#ABABAB"/>
<path fill-rule="evenodd" clip-rule="evenodd" d="M37.9877 22.5981C36.8923 22.0607 35.9234 21.6266 35.0018 21.247C36.456 17.3383 38.5561 14.7601 41.2738 14.7601C43.9217 14.7601 45.984 17.2049 47.4307 20.9463C46.5015 21.3429 45.5459 21.7863 44.4618 22.3351C43.3513 19.3904 42.0859 18.0599 41.2738 18.0599C40.4391 18.0599 39.1208 19.4693 37.9877 22.5981ZM41.2735 56.5602C40.4633 56.5602 39.196 55.2297 38.0855 52.285C36.9901 52.8394 36.0439 53.2772 35.1166 53.6737C36.5652 57.4152 38.6257 59.86 41.2735 59.86C43.9912 59.86 46.0913 57.2817 47.5456 53.3731C46.6296 52.9954 45.6626 52.5632 44.5597 52.022C43.4265 55.1508 42.1083 56.5602 41.2735 56.5602ZM21.2091 51.8001C23.3583 55.0116 28.7616 53.7206 32.3821 52.3958C41.251 49.1524 52.8319 40.7544 58.6564 32.9803C62.7943 27.4574 62.3996 24.4075 61.3382 22.8196C60.7244 21.9026 59.4307 20.8108 56.747 20.8108C51.8612 20.8108 45.2454 24.1877 41.064 26.749C36.9449 24.3324 30.5482 21.2129 25.8003 21.2129C23.1279 21.2129 21.8342 22.2765 21.2223 23.171C20.3497 24.4413 19.9173 26.6569 22.0136 30.3401C21.7171 30.8681 21.549 31.4769 21.549 32.1253C21.549 34.1303 23.1543 35.7558 25.1317 35.7558C27.1091 35.7558 28.7144 34.1303 28.7144 32.1253C28.7144 30.1202 27.111 28.4947 25.1317 28.4947L24.7351 28.5173C23.634 26.5272 23.6473 25.4166 23.8947 25.0558C24.127 24.7138 24.8409 24.5128 25.8003 24.5128C27.3036 24.5128 29.2659 24.9656 31.4944 25.7812C33.6701 26.5798 35.9005 27.651 37.9459 28.7709C33.6984 31.6799 30.4406 34.4911 27.5491 37.4114C26.2592 38.7343 24.9901 40.1719 23.8909 41.6376C19.7529 47.1624 20.1477 50.2122 21.2091 51.8001ZM56.0614 30.9846C58.9056 27.1906 58.9925 25.1931 58.6412 24.6688C58.4033 24.3136 57.712 24.1088 56.747 24.1088C53.0585 24.1088 47.4437 26.8505 44.2104 28.7071C46.5995 30.28 48.828 31.9374 50.8621 33.6249C50.0934 34.401 49.2869 35.1639 48.4616 35.9005C46.2047 34.0514 43.6967 32.2418 41.0961 30.6182C38.1102 32.5669 35.1035 34.8539 32.4028 37.2911C34.433 39.0782 36.8524 40.9536 39.4303 42.69C38.4445 43.312 37.4473 43.9077 36.3103 44.5316L36.2858 44.5146C34.1252 42.9906 31.9967 41.3182 30.0231 39.5687C24.7011 44.9769 23.2015 48.8969 23.9059 49.9511C24.1439 50.3062 24.8351 50.5111 25.8002 50.5111C30.2385 50.5111 37.283 46.7208 41.4511 44.0016C46.5674 40.6642 52.4032 35.8686 56.0614 30.9846ZM60.966 42.6129C60.966 43.2255 60.8168 43.8024 60.5505 44.3098C62.6299 47.9741 62.1974 50.184 61.3267 51.4506C60.7148 52.3451 59.4211 53.4087 56.7488 53.4087C52.6486 53.4087 47.3001 51.0447 43.6626 49.096C44.7618 48.3988 45.8893 47.6359 46.7958 46.9932C49.5097 48.3331 53.7232 50.1089 56.7488 50.1089C57.7082 50.1089 58.4202 49.9078 58.6544 49.5677C58.898 49.2125 58.915 48.1339 57.8706 46.2096L57.3833 46.2434C55.4041 46.2434 53.8006 44.618 53.8006 42.6129C53.8006 40.6078 55.4041 38.9823 57.3833 38.9823C59.3626 38.9823 60.966 40.6078 60.966 42.6129Z" fill="#FEFEFE"/>
<circle cx="25.2119" cy="32.0813" r="4.24855" fill="#01ABB2"/>
</g>
</svg>
