<svg width="67" height="106" viewBox="0 0 67 106" fill="none" xmlns="http://www.w3.org/2000/svg">
<g clip-path="url(#clip0_202_9501)">
<path d="M0 78.8785C0 83.2699 0 87.6612 0 92.0802C0 100.311 5.75323 106 14.1038 106C27.0625 106.028 39.9933 106.028 52.9521 106C61.2747 106 67 100.255 67 91.9974V78.8785H0Z" fill="black" fill-opacity="0.3"/>
<path d="M67 13.8645C67 5.77228 61.2468 0.0276186 53.0917 0C40.0492 0 27.0067 0 13.9642 0.0276186C5.75323 0.0276186 0 5.77228 0 13.9474C0 35.5727 0 57.2256 0 78.8786H6.84243H60.1296H66.9721V53.1657C67 40.0469 67 26.9557 67 13.8645Z" fill="#3D3D3D"/>
<path d="M33.0497 98.9334C36.9963 98.9334 40.1957 95.7695 40.1957 91.8667C40.1957 87.9639 36.9963 84.8 33.0497 84.8C29.1031 84.8 25.9038 87.9639 25.9038 91.8667C25.9038 95.7695 29.1031 98.9334 33.0497 98.9334Z" fill="white"/>
<path d="M33.0499 97.1668C36.0098 97.1668 38.4093 94.7939 38.4093 91.8668C38.4093 88.9397 36.0098 86.5668 33.0499 86.5668C30.0899 86.5668 27.6904 88.9397 27.6904 91.8668C27.6904 94.7939 30.0899 97.1668 33.0499 97.1668Z" fill="#01ABB2"/>
</g>
<defs>
<clipPath id="clip0_202_9501">
<rect width="67" height="106" fill="white"/>
</clipPath>
</defs>
</svg>
