<svg xmlns="http://www.w3.org/2000/svg" width="85.882" height="73" viewBox="0 0 85.882 73">
  <g id="Group_104" data-name="Group 104" transform="translate(-392.347 -328.875)">
    <g id="Group_103" data-name="Group 103" transform="translate(392.347 328.875)">
      <path id="Path_269" data-name="Path 269" d="M477.077,408.546l-12.844-5.22-24.6,9.947a13.181,13.181,0,0,1-4.342.886,10.761,10.761,0,0,1-4.342-.886l-24.6-9.947-12.844,5.22a2.015,2.015,0,0,0,0,3.643l39.708,15.955a6.041,6.041,0,0,0,4.161,0l39.708-15.955A2.015,2.015,0,0,0,477.077,408.546Z" transform="translate(-392.347 -355.514)" fill="#00acb1"/>
      <path id="Path_270" data-name="Path 270" d="M477.077,379l-12.844-5.22-24.6,9.849a11.081,11.081,0,0,1-4.342.886,10.761,10.761,0,0,1-4.342-.886l-24.6-9.849L393.5,379a2.015,2.015,0,0,0,0,3.643l39.708,15.856a5.1,5.1,0,0,0,4.161,0l39.708-15.955A1.939,1.939,0,0,0,477.077,379Z" transform="translate(-392.347 -343.928)" fill="#00acb1"/>
      <path id="Path_271" data-name="Path 271" d="M393.5,348.843,433.208,364.8a6.041,6.041,0,0,0,4.161,0l39.708-15.955a2.015,2.015,0,0,0,0-3.644l-39.708-15.955a6.041,6.041,0,0,0-4.161,0L393.5,345.2A2.015,2.015,0,0,0,393.5,348.843Z" transform="translate(-392.347 -328.875)" fill="#00acb1"/>
    </g>
  </g>
</svg>
