<svg xmlns="http://www.w3.org/2000/svg" width="2146.55" height="667.389" viewBox="0 0 2146.55 667.389">
  <g id="Component_17_1" data-name="Component 17 – 1" transform="translate(1.056)">
    <path id="Path_341" data-name="Path 341" d="M-2188.675-1727.771c830.169-242.024,2144.386,91.084,2144.386,91.084l-46.844,353.928-2058.506,93.687Z" transform="translate(2188.675 1855.417)" fill="rgba(34,34,34,0.8)" stroke="#00acb1" stroke-width="2"/>
    <g id="Group_106" data-name="Group 106" transform="translate(2170.715 1849.061)" opacity="0.5">
      <path id="Path_276" data-name="Path 276" d="M-1748.8-1824.492a13.191,13.191,0,0,0-13.1-11.654,13.194,13.194,0,0,0-13.195,13.194c0,.247.024.488.037.732Q-1762-1823.408-1748.8-1824.492Z" fill="#00acb1"/>
      <path id="Path_277" data-name="Path 277" d="M-1718.527-1826.831a13.185,13.185,0,0,0-13.054-11.373,13.2,13.2,0,0,0-13.195,13.194c0,.065.009.127.01.192Q-1731.716-1825.874-1718.527-1826.831Z" fill="#00acb1"/>
      <path id="Path_278" data-name="Path 278" d="M-1688.208-1828.888a13.184,13.184,0,0,0-13.054-11.374,13.192,13.192,0,0,0-13.191,13.134Q-1701.4-1828.056-1688.208-1828.888Z" fill="#00acb1"/>
      <path id="Path_279" data-name="Path 279" d="M-1657.844-1830.658a13.191,13.191,0,0,0-13.1-11.662,13.193,13.193,0,0,0-13.193,13.182Q-1671.057-1829.947-1657.844-1830.658Z" fill="#00acb1"/>
      <path id="Path_280" data-name="Path 280" d="M-1627.478-1832.163a13.186,13.186,0,0,0-13.145-12.215,13.2,13.2,0,0,0-13.195,13.194c0,.1.013.2.016.309Q-1640.7-1831.565-1627.478-1832.163Z" fill="#00acb1"/>
      <path id="Path_281" data-name="Path 281" d="M-1597.121-1833.4a13.183,13.183,0,0,0-13.155-12.418,13.2,13.2,0,0,0-13.195,13.195c0,.094.012.186.014.28Q-1610.351-1832.915-1597.121-1833.4Z" fill="#00acb1"/>
      <path id="Path_282" data-name="Path 282" d="M-1566.756-1834.378a13.188,13.188,0,0,0-13.138-12.086,13.187,13.187,0,0,0-13.181,12.923Q-1579.977-1834-1566.756-1834.378Z" fill="#00acb1"/>
      <path id="Path_283" data-name="Path 283" d="M-1536.378-1835.116a13.191,13.191,0,0,0-13.134-12,13.184,13.184,0,0,0-13.166,12.618Q-1549.586-1834.849-1536.378-1835.116Z" fill="#00acb1"/>
      <path id="Path_284" data-name="Path 284" d="M-1505.988-1835.607a13.187,13.187,0,0,0-13.142-12.155,13.183,13.183,0,0,0-13.163,12.569Q-1519.2-1835.443-1505.988-1835.607Z" fill="#00acb1"/>
      <path id="Path_285" data-name="Path 285" d="M-1475.586-1835.866a13.184,13.184,0,0,0-13.162-12.546,13.186,13.186,0,0,0-13.173,12.758Q-1488.81-1835.8-1475.586-1835.866Z" fill="#00acb1"/>
      <path id="Path_286" data-name="Path 286" d="M-1455.927-1835.918c3.575,0,7.166.01,10.754.019a13.194,13.194,0,0,0-13.193-13.162,13.2,13.2,0,0,0-13.194,13.175Q-1463.76-1835.916-1455.927-1835.918Z" fill="#00acb1"/>
      <path id="Path_287" data-name="Path 287" d="M-1414.8-1835.711a13.186,13.186,0,0,0-13.178-12.872,13.185,13.185,0,0,0-13.17,12.692Q-1428.039-1835.844-1414.8-1835.711Z" fill="#00acb1"/>
      <path id="Path_288" data-name="Path 288" d="M-1384.429-1835.309a13.185,13.185,0,0,0-13.17-12.7,13.185,13.185,0,0,0-13.151,12.333Q-1397.649-1835.535-1384.429-1835.309Z" fill="#00acb1"/>
      <path id="Path_289" data-name="Path 289" d="M-1323.649-1833.888a13.188,13.188,0,0,0-13.183-12.966,13.186,13.186,0,0,0-13.147,12.248Q-1336.868-1834.288-1323.649-1833.888Z" fill="#00acb1"/>
      <path id="Path_290" data-name="Path 290" d="M-1354.044-1834.7a13.185,13.185,0,0,0-13.171-12.731,13.187,13.187,0,0,0-13.144,12.187Q-1367.258-1835.013-1354.044-1834.7Z" fill="#00acb1"/>
      <path id="Path_291" data-name="Path 291" d="M-1779.065-1821.847a13.192,13.192,0,0,0-13.1-11.695,13.2,13.2,0,0,0-13.2,13.194c0,.353.026.7.053,1.045Q-1792.261-1820.628-1779.065-1821.847Z" fill="#00acb1"/>
      <path id="Path_292" data-name="Path 292" d="M-1809.34-1818.9a13.187,13.187,0,0,0-13-11.012,13.2,13.2,0,0,0-13.2,13.194c0,.215.022.424.033.637Q-1822.5-1817.539-1809.34-1818.9Z" fill="#00acb1"/>
      <path id="Path_293" data-name="Path 293" d="M-1839.565-1815.614a13.194,13.194,0,0,0-12.945-10.659,13.2,13.2,0,0,0-13.195,13.195c0,.191.021.377.029.566Q-1852.7-1814.119-1839.565-1815.614Z" fill="#00acb1"/>
      <path id="Path_294" data-name="Path 294" d="M-1869.74-1812.008a13.2,13.2,0,0,0-12.941-10.63,13.194,13.194,0,0,0-13.194,13.194c0,.285.024.563.042.843Q-1882.865-1810.359-1869.74-1812.008Z" fill="#00acb1"/>
      <path id="Path_295" data-name="Path 295" d="M-1899.862-1808.052a13.188,13.188,0,0,0-12.99-10.952,13.2,13.2,0,0,0-13.194,13.2,13.286,13.286,0,0,0,.087,1.474Q-1913-1806.254-1899.862-1808.052Z" fill="#00acb1"/>
      <path id="Path_296" data-name="Path 296" d="M-1929.931-1803.739a13.189,13.189,0,0,0-12.974-10.848,13.2,13.2,0,0,0-13.194,13.2,13.327,13.327,0,0,0,.12,1.694Q-1943.043-1801.778-1929.931-1803.739Z" fill="#00acb1"/>
      <path id="Path_297" data-name="Path 297" d="M-1959.987-1799.051a13.189,13.189,0,0,0-12.822-10.127A13.194,13.194,0,0,0-1986-1795.984c0,.442.024.878.066,1.308Q-1973.05-1796.923-1959.987-1799.051Z" fill="#00acb1"/>
      <path id="Path_298" data-name="Path 298" d="M-1989.976-1793.972a13.188,13.188,0,0,0-12.737-9.8,13.2,13.2,0,0,0-13.194,13.2,13.111,13.111,0,0,0,.067,1.322Q-2003-1791.674-1989.976-1793.972Z" fill="#00acb1"/>
      <path id="Path_299" data-name="Path 299" d="M-2019.861-1788.491a13.188,13.188,0,0,0-12.755-9.87,13.194,13.194,0,0,0-13.2,13.194,13.2,13.2,0,0,0,.13,1.756Q-2032.87-1786.016-2019.861-1788.491Z" fill="#00acb1"/>
      <path id="Path_300" data-name="Path 300" d="M-2049.64-1782.6a13.194,13.194,0,0,0-12.881-10.356,13.194,13.194,0,0,0-13.194,13.195,13.237,13.237,0,0,0,.264,2.63Q-2062.65-1779.931-2049.64-1782.6Z" fill="#00acb1"/>
      <path id="Path_301" data-name="Path 301" d="M-1293.264-1832.881c0-.068.01-.134.01-.2a13.194,13.194,0,0,0-13.194-13.194,13.183,13.183,0,0,0-13.16,12.51Q-1306.487-1833.363-1293.264-1832.881Z" fill="#00acb1"/>
      <path id="Path_302" data-name="Path 302" d="M-1262.905-1831.684c0-.11.017-.217.017-.327a13.2,13.2,0,0,0-13.2-13.2,13.184,13.184,0,0,0-13.158,12.472Q-1276.121-1832.248-1262.905-1831.684Z" fill="#00acb1"/>
      <path id="Path_303" data-name="Path 303" d="M-1232.547-1830.3c0-.024,0-.046,0-.069a13.194,13.194,0,0,0-13.194-13.194,13.189,13.189,0,0,0-13.137,12.054Q-1245.756-1830.942-1232.547-1830.3Z" fill="#00acb1"/>
      <path id="Path_304" data-name="Path 304" d="M-1202.2-1828.74a13.2,13.2,0,0,0-13.194-13.185,13.2,13.2,0,0,0-13.123,11.821Q-1215.4-1829.456-1202.2-1828.74Z" fill="#00acb1"/>
      <path id="Path_305" data-name="Path 305" d="M-1171.859-1827c0-.029.005-.058.005-.087a13.2,13.2,0,0,0-13.195-13.2,13.193,13.193,0,0,0-13.114,11.768Q-1185.049-1827.791-1171.859-1827Z" fill="#00acb1"/>
      <path id="Path_306" data-name="Path 306" d="M-1141.528-1825.085c0-.122.018-.241.018-.364a13.194,13.194,0,0,0-13.194-13.194,13.2,13.2,0,0,0-13.129,11.889Q-1154.72-1825.953-1141.528-1825.085Z" fill="#00acb1"/>
      <path id="Path_307" data-name="Path 307" d="M-1111.206-1823c.017-.269.041-.535.041-.808A13.194,13.194,0,0,0-1124.359-1837a13.186,13.186,0,0,0-13.144,12.182Q-1124.395-1823.947-1111.206-1823Z" fill="#00acb1"/>
      <path id="Path_308" data-name="Path 308" d="M-1080.906-1820.752c.012-.231.035-.458.035-.692a13.2,13.2,0,0,0-13.194-13.2,13.194,13.194,0,0,0-13.131,11.924Q-1094.089-1821.77-1080.906-1820.752Z" fill="#00acb1"/>
      <path id="Path_309" data-name="Path 309" d="M-1050.619-1818.343c.006-.164.025-.324.025-.488a13.2,13.2,0,0,0-13.195-13.195,13.189,13.189,0,0,0-13.086,11.584Q-1063.783-1819.425-1050.619-1818.343Z" fill="#00acb1"/>
      <path id="Path_310" data-name="Path 310" d="M-1020.34-1815.778c.005-.147.022-.292.022-.44a13.2,13.2,0,0,0-13.194-13.195,13.188,13.188,0,0,0-13.06,11.4Q-1033.487-1816.924-1020.34-1815.778Z" fill="#00acb1"/>
      <path id="Path_311" data-name="Path 311" d="M-990.069-1813.05c.007-.186.028-.368.028-.555a13.2,13.2,0,0,0-13.2-13.2,13.186,13.186,0,0,0-13.055,11.382Q-1003.213-1814.266-990.069-1813.05Z" fill="#00acb1"/>
      <path id="Path_312" data-name="Path 312" d="M-959.807-1810.168c.017-.274.042-.546.042-.824a13.194,13.194,0,0,0-13.194-13.2,13.188,13.188,0,0,0-13.076,11.51Q-972.954-1811.456-959.807-1810.168Z" fill="#00acb1"/>
      <path id="Path_313" data-name="Path 313" d="M-936.1-1807.811c2.176.221,4.366.456,6.545.68.039-.411.064-.827.064-1.248a13.2,13.2,0,0,0-13.2-13.195,13.2,13.2,0,0,0-13.119,11.8Q-945.965-1808.811-936.1-1807.811Z" fill="#00acb1"/>
      <path id="Path_314" data-name="Path 314" d="M-899.344-1803.953c.027-.345.053-.691.053-1.043a13.2,13.2,0,0,0-13.2-13.2,13.188,13.188,0,0,0-13.069,11.475Q-912.48-1805.364-899.344-1803.953Z" fill="#00acb1"/>
      <path id="Path_315" data-name="Path 315" d="M-869.154-1800.632c.014-.255.038-.508.038-.766a13.194,13.194,0,0,0-13.194-13.2,13.186,13.186,0,0,0-13.009,11.076Q-882.265-1802.106-869.154-1800.632Z" fill="#00acb1"/>
      <path id="Path_316" data-name="Path 316" d="M-838.972-1797.17c.01-.21.032-.418.032-.631a13.2,13.2,0,0,0-13.2-13.194,13.19,13.19,0,0,0-12.97,10.819Q-852.064-1798.7-838.972-1797.17Z" fill="#00acb1"/>
      <path id="Path_317" data-name="Path 317" d="M-808.8-1793.567c.01-.212.032-.422.032-.636a13.2,13.2,0,0,0-13.2-13.195,13.194,13.194,0,0,0-12.952,10.7Q-821.879-1795.161-808.8-1793.567Z" fill="#00acb1"/>
      <path id="Path_318" data-name="Path 318" d="M-778.629-1789.827c.015-.259.039-.516.039-.779a13.194,13.194,0,0,0-13.194-13.194,13.193,13.193,0,0,0-12.956,10.725Q-791.708-1791.48-778.629-1789.827Z" fill="#00acb1"/>
      <path id="Path_319" data-name="Path 319" d="M-748.468-1785.95c.028-.35.054-.7.054-1.058a13.2,13.2,0,0,0-13.2-13.195,13.191,13.191,0,0,0-12.98,10.884Q-761.549-1787.664-748.468-1785.95Z" fill="#00acb1"/>
      <path id="Path_320" data-name="Path 320" d="M-718.326-1781.941a13.2,13.2,0,0,0,.087-1.47,13.2,13.2,0,0,0-13.2-13.194,13.185,13.185,0,0,0-13.024,11.176Q-731.412-1783.715-718.326-1781.941Z" fill="#00acb1"/>
      <path id="Path_321" data-name="Path 321" d="M-688.227-1777.8a13.246,13.246,0,0,0,.115-1.652,13.2,13.2,0,0,0-13.2-13.2,13.186,13.186,0,0,0-13.035,11.244Q-701.3-1779.634-688.227-1777.8Z" fill="#00acb1"/>
      <path id="Path_322" data-name="Path 322" d="M-658.139-1773.535c.043-.437.067-.88.067-1.329a13.2,13.2,0,0,0-13.2-13.195,13.191,13.191,0,0,0-12.968,10.808Q-671.2-1775.422-658.139-1773.535Z" fill="#00acb1"/>
      <path id="Path_323" data-name="Path 323" d="M-628.089-1769.141c.032-.374.057-.75.057-1.132a13.2,13.2,0,0,0-13.2-13.194,13.2,13.2,0,0,0-12.919,10.506Q-641.132-1771.079-628.089-1769.141Z" fill="#00acb1"/>
      <path id="Path_324" data-name="Path 324" d="M-598.046-1764.617c.028-.352.054-.705.054-1.065a13.194,13.194,0,0,0-13.194-13.194,13.194,13.194,0,0,0-12.876,10.336Q-611.066-1766.6-598.046-1764.617Z" fill="#00acb1"/>
      <path id="Path_325" data-name="Path 325" d="M-568.009-1759.961c.032-.373.057-.748.057-1.129a13.2,13.2,0,0,0-13.194-13.2,13.192,13.192,0,0,0-12.864,10.292Q-581.02-1762-568.009-1759.961Z" fill="#00acb1"/>
      <path id="Path_326" data-name="Path 326" d="M-537.978-1755.178c.043-.434.066-.875.066-1.321a13.2,13.2,0,0,0-13.194-13.195,13.194,13.194,0,0,0-12.884,10.371Q-550.994-1757.274-537.978-1755.178Z" fill="#00acb1"/>
      <path id="Path_327" data-name="Path 327" d="M-507.983-1750.272a13.374,13.374,0,0,0,.112-1.636,13.2,13.2,0,0,0-13.195-13.194A13.2,13.2,0,0,0-534-1754.529Q-521-1752.423-507.983-1750.272Z" fill="#00acb1"/>
      <path id="Path_328" data-name="Path 328" d="M-482.559-1746.022l4.55.771a13.138,13.138,0,0,0,.178-2.065,13.2,13.2,0,0,0-13.2-13.195,13.187,13.187,0,0,0-12.982,10.9Q-493.287-1747.826-482.559-1746.022Z" fill="#00acb1"/>
      <path id="Path_329" data-name="Path 329" d="M-448.059-1740.1a13.2,13.2,0,0,0,.191-2.156,13.194,13.194,0,0,0-13.195-13.194,13.189,13.189,0,0,0-12.978,10.875Q-460.906-1742.337-448.059-1740.1Z" fill="#00acb1"/>
      <path id="Path_330" data-name="Path 330" d="M-418.131-1734.824a13.242,13.242,0,0,0,.2-2.187,13.2,13.2,0,0,0-13.2-13.2,13.191,13.191,0,0,0-12.966,10.8Q-430.954-1737.113-418.131-1734.824Z" fill="#00acb1"/>
      <path id="Path_331" data-name="Path 331" d="M-388.222-1729.425a13.184,13.184,0,0,0,.22-2.341,13.2,13.2,0,0,0-13.195-13.2,13.19,13.19,0,0,0-12.973,10.844Q-401.021-1731.763-388.222-1729.425Z" fill="#00acb1"/>
      <path id="Path_332" data-name="Path 332" d="M-358.34-1723.9a13.206,13.206,0,0,0,.216-2.317,13.2,13.2,0,0,0-13.194-13.195,13.194,13.194,0,0,0-12.954,10.711Q-371.11-1726.29-358.34-1723.9Z" fill="#00acb1"/>
      <path id="Path_333" data-name="Path 333" d="M-328.478-1718.253a13.2,13.2,0,0,0,.226-2.385,13.194,13.194,0,0,0-13.194-13.194,13.194,13.194,0,0,0-12.947,10.67Q-341.217-1720.692-328.478-1718.253Z" fill="#00acb1"/>
      <path id="Path_334" data-name="Path 334" d="M-298.639-1712.479a13.249,13.249,0,0,0,.241-2.481,13.2,13.2,0,0,0-13.195-13.2,13.2,13.2,0,0,0-12.945,10.657Q-311.341-1714.964-298.639-1712.479Z" fill="#00acb1"/>
      <path id="Path_335" data-name="Path 335" d="M-268.828-1706.579a13.184,13.184,0,0,0,.243-2.491,13.2,13.2,0,0,0-13.2-13.194,13.2,13.2,0,0,0-12.929,10.556Q-281.487-1709.113-268.828-1706.579Z" fill="#00acb1"/>
      <path id="Path_336" data-name="Path 336" d="M-239.036-1700.548a13.256,13.256,0,0,0,.263-2.631,13.2,13.2,0,0,0-13.194-13.2,13.2,13.2,0,0,0-12.934,10.583Q-251.638-1703.128-239.036-1700.548Z" fill="#00acb1"/>
      <path id="Path_337" data-name="Path 337" d="M-209.279-1694.387a13.248,13.248,0,0,0,.262-2.622,13.194,13.194,0,0,0-13.194-13.194,13.2,13.2,0,0,0-12.907,10.458Q-221.808-1697.012-209.279-1694.387Z" fill="#00acb1"/>
      <path id="Path_338" data-name="Path 338" d="M-179.551-1688.091a13.242,13.242,0,0,0,.289-2.741,13.2,13.2,0,0,0-13.2-13.195,13.2,13.2,0,0,0-12.907,10.46Q-191.982-1690.756-179.551-1688.091Z" fill="#00acb1"/>
      <path id="Path_339" data-name="Path 339" d="M-149.853-1681.652a13.256,13.256,0,0,0,.293-2.758,13.194,13.194,0,0,0-13.194-13.194,13.193,13.193,0,0,0-12.88,10.354Q-162.146-1684.352-149.853-1681.652Z" fill="#00acb1"/>
      <path id="Path_340" data-name="Path 340" d="M-120.191-1675.062a13.216,13.216,0,0,0,.32-2.861,13.2,13.2,0,0,0-13.195-13.2,13.193,13.193,0,0,0-12.872,10.326Q-132.264-1677.782-120.191-1675.062Z" fill="#00acb1"/>
    </g>
  </g>
</svg>
