<?xml version="1.0" encoding="UTF-8"?>
<svg width="96px" height="30px" viewBox="0 0 96 30" version="1.1" xmlns="http://www.w3.org/2000/svg" xmlns:xlink="http://www.w3.org/1999/xlink">
    <!-- Generator: Sketch 54.1 (76490) - https://sketchapp.com -->
    <title>编组 24</title>
    <desc>Created with Sketch.</desc>
    <g id="泛超算-文件管理" stroke="none" stroke-width="1" fill="none" fill-rule="evenodd">
        <g id="泛超算-文件管理-提示信息" transform="translate(-52.000000, -15.000000)" fill-rule="nonzero">
            <g id="编组-24" transform="translate(52.000000, 15.000000)">
                <g id="编组-23">
                    <g id="编组-16" transform="translate(37.224490, 2.000000)">
                        <path d="M20.014924,23.6358621 L20.014924,23.632779 L26.5843062,23.632779 C27.5965553,23.632779 28.4119898,24.4604846 28.4119898,25.512177 L28.4119898,25.5838833 C28.4119898,25.7392469 28.2833183,25.8982745 28.1337815,25.8982745 L20.014924,25.8982745 L20.014924,25.8946106 L13.8033959,25.8946106 C12.7911468,25.8109532 11.9169318,25.7751001 11.157745,25.6794917 C10.410061,25.5958343 9.73139408,25.4285196 9.13324692,25.1894986 C8.53509977,24.9504776 7.98296393,24.6277993 7.47683942,24.2214636 C6.97071491,23.8151278 6.46459039,23.3012327 5.94696305,22.667827 C5.64788947,23.2773306 5.1992791,23.8868341 4.63564044,24.4963377 C4.06049895,25.0938902 3.30131217,25.6914427 2.34657729,26.2650932 C2.31618973,26.2842275 2.28602331,26.3024428 2.25607213,26.319739 L1.29981978,27.0538625 C1.15028299,27.173373 0.92022639,27.1375198 0.805198091,26.9821562 C0.195548108,26.1336316 0.368090556,24.9385266 1.19629431,24.3051209 L1.21426399,24.2911185 C1.2294989,24.2756969 1.24648723,24.2604529 1.26531129,24.2453657 C2.31206881,23.4087921 3.24379803,22.8231907 3.76142537,22.0702745 C4.27905271,21.3054073 4.48610365,19.5964071 4.48610365,19.5964071 L4.48610365,9.65313318 C4.48610365,9.41411217 4.40558384,9.29460167 4.25604705,9.29460167 L1.31132261,9.29460167 C1.18771089,9.29460167 1.0757429,9.2865367 0.975418656,9.27069957 L0.287570747,9.27069957 C0.126531129,9.27069957 0,9.13923801 0,8.97192331 L0,8.94802121 C0,7.87242668 0.839706581,7 1.87496127,7 L6.38407058,7 C6.5451102,7 6.67164133,7.13146155 6.67164133,7.29877626 L6.67164133,8.97192331 C6.67164133,9.02283475 6.65992585,9.07042657 6.63908751,9.11200511 C6.6531215,9.32856554 6.6601385,9.56833153 6.6601385,9.83239893 L6.6601385,18.8912951 L6.6601385,19.4290924 C6.68314416,19.6083581 6.70614982,19.7756728 6.68314416,19.9310365 C7.14325735,20.6839526 7.56886206,21.3054073 8.01747242,21.7714982 C8.47758562,22.2495402 8.98371013,22.6200228 9.53584597,22.894897 C10.0879818,23.1697711 10.7091346,23.3609879 11.3878016,23.4565963 C12.0779714,23.5522047 12.8716666,23.6000089 13.7803902,23.6358621 L20.014924,23.6358621 Z M4.48610365,7.1195105 L6.11950549,7.1195105 C6.4300819,7.1195105 6.67164133,7.37048256 6.67164133,7.69316092 L6.67164133,19.7876239 L4.48610365,19.7876239 L4.48610365,7.1195105 Z" id="形状结合" fill="#FFFFFF"></path>
                        <path d="M8.73701727,9.19322331 L8.10522272,9.19322331 C7.90320706,9.19322331 7.74872449,9.04316066 7.74872449,8.84692489 L7.74872449,7.34629842 C7.74872449,7.15006265 7.90320706,7 8.10522272,7 L25.2171377,7 C26.2628659,7 27.1184616,7.8311162 27.1184616,8.84692489 C27.1184616,9.04316066 26.963979,9.19322331 26.7619634,9.19322331 L26.0484204,9.19322331 C26.0455446,9.19606053 26.032492,9.196174 26.0078377,9.19322331 L21.1561647,9.19322331 L21.1561647,16.9387646 C21.2146186,17.8506837 21.3665987,18.4971074 21.6822497,18.8780357 C21.98621,19.2474207 22.5006042,19.4205699 23.2254325,19.3743968 C23.6463005,19.3513102 23.9970238,19.3282236 24.2659117,19.2935938 C24.5347996,19.258964 24.7452336,19.1089013 24.9089045,18.8549491 C25.0608846,18.600997 25.1661016,18.1854389 25.2245555,17.6198181 C25.2439263,17.4323792 25.2594456,17.2170522 25.2706879,16.9729967 C25.2559635,16.9299741 25.2479371,16.88359 25.2479371,16.834875 L25.2479371,13.2910879 C25.2479371,13.0833089 25.4349895,12.8870731 25.6804959,12.8870731 L25.7038774,12.8870731 C26.625634,12.8870731 27.3722933,13.5786257 27.4604693,14.4558064 C27.5202195,14.6109437 27.5510204,14.7933915 27.5510204,14.9994934 C27.5510204,16.5693796 27.4808757,17.7929673 27.3288956,18.6702566 C27.1886063,19.547546 26.9314092,20.205513 26.5923766,20.6326143 C26.2416532,21.0597157 25.7974037,21.3252112 25.2479371,21.4175574 C24.6984705,21.5099037 24.0204054,21.5560768 23.2020509,21.5560768 C22.407078,21.5560768 21.7407036,21.4983604 21.2029278,21.3713843 C20.665152,21.2444082 20.2209025,21.0135426 19.8935607,20.6672442 C19.5662189,20.3209458 19.3324033,19.8592145 19.1804232,19.258964 C19.0401339,18.6702566 18.9582984,17.9084001 18.9466076,16.996481 L18.9466076,9.19322331 L15.1938678,9.19322331 C15.1704863,10.8785423 15.1120324,12.2868225 14.9951246,13.4757804 C14.8782168,14.6647383 14.656092,15.7036335 14.3287502,16.6155527 C14.0014084,17.5274719 13.5454681,18.3470448 12.9609292,19.097358 C12.7393803,19.3817378 12.4909609,19.6113964 12.2175806,19.8284426 L10.3421948,21.7523126 C10.1902147,21.9139185 9.93301761,21.9139185 9.76934671,21.7638558 L9.09128157,21.1174321 C8.78732134,20.8288501 8.78732134,20.3671189 9.06790002,20.0669936 L11.3374099,17.7427357 C11.6376394,17.3299699 11.8943369,16.8479977 12.1075024,16.2923408 C12.3997718,15.5420276 12.6102058,14.5954786 12.7504952,13.4757804 C12.8907845,12.3445389 12.9609292,10.9362587 12.9843107,9.19322331 L9.09128157,9.19322331 C8.96105492,9.20491273 8.84281694,9.20476474 8.73701727,9.19322331 Z" id="形状结合" fill="#FFFFFF"></path>
                        <path d="M9.47066327,3.96052632 L9.47066327,2.16447368 C9.47066327,1.92960526 9.62365567,1.75 9.82372265,1.75 L23.9460982,1.75 C24.9817391,1.75 25.8290816,2.74473684 25.8290816,3.96052632 L25.8290816,3.96052632 C25.8290816,4.19539474 25.6760892,4.375 25.4760222,4.375 L9.82372265,4.375 C9.62365567,4.375 9.47066327,4.19539474 9.47066327,3.96052632 Z" id="路径" fill="#FFFFFF"></path>
                        <path d="M2.08513301,6.06545128 L1.0527245,5.44736877 C0.862856269,5.33290904 0.803522446,5.09254362 0.922190091,4.90940807 L3.61594564,0.73162814 C4.09061622,-0.000914093865 5.07555767,-0.218387569 5.8350306,0.239451327 L5.8350306,0.239451327 C6.02489883,0.353911051 6.08423266,0.594276471 5.96556501,0.777412029 L2.63100418,5.95099155 C2.5242033,6.12268114 2.27500125,6.179911 2.08513301,6.06545128 Z" id="路径" fill="#16D3F2"></path>
                        <path d="M52.7629772,20.5390149 L56.8509434,20.5390149 C57.7796968,20.5390149 58.5459184,21.2944106 58.5459184,22.2357499 L58.5459184,22.2706143 C58.5459184,22.4681793 58.3833865,22.6425014 58.174417,22.6425014 L52.2303952,22.6425014 L52.2303952,26.9075816 C52.2303952,27.6397344 51.8937221,28 51.2203759,28 C50.8953122,28 50.639905,27.9186497 50.4541543,27.7443276 C50.2684036,27.5700055 50.1755283,27.2910902 50.1755283,26.9075816 L50.1755283,22.6425014 L40.6315653,22.6425014 C40.4420268,23.2464612 40.2204793,23.7887965 39.9476314,24.2695075 C39.657396,24.7808522 39.3091134,25.2457111 38.879565,25.6640841 C38.461626,26.0824571 37.962421,26.4659657 37.405169,26.7913669 C36.8479169,27.1167681 36.2093989,27.4305479 35.5012245,27.7094632 C34.9439724,27.9186497 34.5376428,27.9883785 34.293845,27.9302712 C34.0384379,27.8605423 33.8642966,27.6629773 33.7482024,27.3375761 C33.6553271,27.0470393 33.6669365,26.768124 33.7714212,26.5008301 C33.8875154,26.2335362 34.1313132,26.0127283 34.5260334,25.8384062 C35.6637563,25.3735473 36.5344626,24.9086884 37.1613712,24.4205866 C37.7541195,23.9700697 38.1911874,23.3741001 38.482388,22.6425014 L32.2273687,22.6425014 C32.0183992,22.6425014 31.8558673,22.4681793 31.8558673,22.2706143 L31.8558673,20.910902 C31.8558673,20.713337 32.0183992,20.5390149 32.2273687,20.5390149 L32.4954683,20.5390149 C32.3526761,20.5082259 32.3253576,20.4925291 32.4827759,20.4925291 L38.9608309,20.4925291 C38.9956592,20.1090205 39.0304874,19.7255119 39.0420968,19.3420033 C39.0420968,19.1095739 39.0653157,18.9120089 39.0653157,18.7376868 L37.6605761,18.7376868 L37.6605761,18.7841727 C37.1613712,18.7841727 36.7434321,18.7493082 36.4183685,18.6795794 C36.0933048,18.6098506 35.8378976,18.4820144 35.6521469,18.2844494 C35.4663962,18.0868843 35.3386926,17.8195905 35.2574267,17.4593248 C35.1761608,17.0990592 35.1413325,16.6458218 35.1413325,16.0879911 L35.1413325,9.6613171 C35.1413325,9.12672939 35.1761608,8.68511345 35.2458173,8.33646929 C35.3154738,7.98782512 35.4431774,7.72053127 35.6405375,7.51134477 C35.8378976,7.31377975 36.0816953,7.17432208 36.406759,7.10459325 C36.7202133,7.03486442 37.1381523,7 37.6605761,7 L52.613506,7 C53.1359298,7 53.5538688,7.04648589 53.8905419,7.12783619 C54.227215,7.2091865 54.4826222,7.36026563 54.6683729,7.55783066 C54.8541236,7.75539568 54.9702178,8.03431101 55.0398743,8.35971223 C55.1095308,8.69673492 55.144359,9.12672939 55.144359,9.63807416 L55.144359,16.0647482 C55.144359,16.5877144 55.1095308,17.0177089 55.0398743,17.3663531 C54.9702178,17.7149972 54.8425142,17.9822911 54.6683729,18.1914776 C54.4826222,18.3890426 54.227215,18.5401217 53.9021513,18.6214721 C53.5770876,18.7028224 53.1475392,18.7493082 52.6018966,18.7493082 L52.2303952,18.7493082 C52.2303952,18.7493082 52.2303952,19.0514665 52.2303952,19.1793027 L52.2303952,20.5041505 L52.7629772,20.5390149 Z M50.1871377,20.5390149 L50.1871377,19.2257886 C50.1871377,19.1328168 50.1987471,18.7957941 50.1987471,18.7957941 L41.1898391,18.7957941 C41.1898391,18.7957941 41.2014485,19.039845 41.2014485,19.1909242 C41.2014485,19.3187604 41.2014485,19.4698395 41.2014485,19.6209186 C41.1782297,19.7719978 41.1666202,19.9230769 41.1550108,20.0857775 C41.1436783,20.2332535 41.1212835,20.3807294 41.0878265,20.5390149 L50.1871377,20.5390149 Z M53.1011015,9.55672385 C53.1011015,9.19645822 52.9617885,9.01051467 52.6715531,9.01051467 L37.5212631,9.01051467 C37.2658559,9.01051467 37.1497618,9.19645822 37.1497618,9.55672385 L37.1497618,10.3121195 L53.1127109,10.3121195 L53.1127109,9.55672385 L53.1011015,9.55672385 Z M53.1011015,12.3226342 L37.1381523,12.3226342 L37.1381523,13.5080243 L53.1011015,13.5080243 L53.1011015,12.3226342 Z M53.1011015,15.4952961 L37.1381523,15.4952961 L37.1381523,16.2158273 C37.1381523,16.5993359 37.2658559,16.7969009 37.5096537,16.7969009 L52.6599437,16.7969009 C52.9501791,16.7969009 53.0894921,16.5993359 53.0894921,16.2158273 L53.0894921,15.4952961 L53.1011015,15.4952961 Z" id="形状结合" fill="#FFFFFF"></path>
                        <path d="M52.7768686,3.7484464 L53.271521,5.62157099 C53.2830745,5.72436442 53.2137536,5.83857933 53.0982189,5.87284381 C52.1623873,6.11269513 51.2150022,5.55304205 50.9723792,4.63932273 L50.7424886,3.7484464 L47.8831806,3.7484464 L46.4896304,5.96421574 C46.3972026,6.12411662 46.18924,6.16980258 46.0274913,6.07843065 L44.9299111,5.40456266 C44.7681624,5.30176924 44.7219485,5.09618239 44.8259298,4.947703 L47.4832293,0.733172669 C47.9453684,0.00219721843 48.9158604,-0.214811118 49.6437294,0.230627047 L49.6899433,0.25347003 C49.851692,0.356263452 49.8979059,0.561850298 49.7939246,0.710329686 L49.0971495,1.81821435 L56.0212484,1.81821435 C56.933973,1.81821435 57.684949,2.5491898 57.684949,3.46290912 L57.684949,3.58854552 C57.684949,3.67991745 57.6156281,3.7484464 57.5232003,3.7484464 L52.7768686,3.7484464 Z" id="形状结合" fill="#FFFFFF"></path>
                        <path d="M40.4353616,3.7484464 L40.877471,5.3474552 C40.8895674,5.45024862 40.8169887,5.57588503 40.6960242,5.59872801 C39.7162114,5.83857933 38.7243021,5.27892625 38.4702766,4.36520694 L38.3036417,3.7484464 L35.1437516,3.7484464 C35.1346213,3.7484464 35.125491,3.74764963 35.1164668,3.74611336 L33.6558877,5.96421574 C33.5470197,6.12411662 33.3292835,6.16980258 33.1720296,6.07843065 L32.0228664,5.40456266 C31.853516,5.30176924 31.8051302,5.09618239 31.9139983,4.947703 L34.6961828,0.733172669 C35.180041,0.00219721843 36.1961432,-0.214811118 36.9582198,0.230627047 L37.0066056,0.25347003 C37.175956,0.356263452 37.2243418,0.561850298 37.1154737,0.710329686 L36.3859523,1.81821435 L43.8894881,1.81821435 C44.845108,1.81821435 45.6313776,2.5491898 45.6313776,3.46290912 L45.6313776,3.58854552 C45.6313776,3.67991745 45.5587988,3.7484464 45.4620272,3.7484464 L40.4353616,3.7484464 Z" id="形状结合" fill="#FFFFFF"></path>
                    </g>
                    <g id="编组-13" fill="#FFFFFF">
                        <path d="M9.43786157,21.2391891 C9.90134276,20.7337577 10.6738114,19.8120887 12.4408335,19.088628 C14.0437059,18.4246299 15.6562342,18.3651674 16.9790868,18.5831966 C18.6302385,18.850778 20.0593056,19.6931636 20.8124625,20.3373409 C22.6567314,21.9428289 23.1781477,23.5582273 23.4098883,24.5988213 C23.7188758,26.3331447 23.6995641,28.8702122 23.6995641,29.6432249 C23.6995641,29.7819708 23.6995641,29.9603583 23.6995641,29.9603583 L21.6814897,29.9801792 L21.6814897,28.3647808 C21.6814897,28.3647808 21.6911456,27.2151721 21.4690608,24.8862235 C21.256632,22.7356624 18.9295701,20.7733994 15.9748775,20.5454597 C12.1125343,20.2580575 9.68891388,24.2024045 9.49579672,24.7672985 C9.42820571,24.9555964 9.43786157,25.2628194 9.44751743,25.6691466 C9.45717329,27.1755304 9.44751743,30 9.44751743,30 L7.59359266,30 L7.5839368,7.96913724 C7.5839368,7.92949556 7.60324852,7.8997643 7.62256023,7.87003304 L10.8572727,4.88699675 C10.8669286,4.87708633 10.8765844,4.86717591 10.8958962,4.86717591 C11.2145395,4.72843003 11.8325144,4.61941542 12.4987686,4.73834045 C13.763686,4.95636968 15.0286034,6.23481381 14.8837656,7.83039137 C14.7582394,9.19802927 13.6671274,10.2287129 12.4891128,10.3476379 C11.7552675,10.4170109 10.2779212,9.3665064 10.2779212,9.3665064 L11.4366242,8.07815186 C11.4849035,8.01868934 11.5718062,8.01868934 11.6200855,8.07815186 C11.6780207,8.14752479 11.7649234,8.23671857 11.8711378,8.28627067 C12.064255,8.37546444 12.3249632,8.43492696 12.5856713,8.28627067 C13.0008732,8.0484206 13.1070877,7.55289962 12.9043147,7.15648283 C12.7884444,6.9384536 12.5567038,6.77988689 12.3442749,6.75015563 C12.0932226,6.71051395 11.7745792,6.77988689 11.3786891,7.01773696 C11.3786891,7.01773696 9.73719317,8.29618109 9.476485,8.67277703 C9.46682914,8.69259787 9.45717329,8.72232913 9.45717329,8.74214997" id="路径"></path>
                        <path d="M9.47775637,10.0923063 C11.6677627,11.3830022 13.3205976,11.4552812 15.1077254,10.3091432 C17.2770713,8.91519164 17.5869778,6.35445096 16.5952769,4.52682555 C16.1510775,3.70078017 15.562255,3.19482738 15.2730089,2.9676649 C15.1593765,2.87473479 13.6408344,1.58403888 11.5334698,2.07966611 C10.6657315,2.28617746 10.5624293,2.38943313 9.65337009,3.0915717 C9.11619873,3.50459439 2.76311441,8.72933143 2.76311441,8.72933143 C2.55651005,8.90486607 2.74245398,8.93584278 2.78377485,8.93584278 L5.4489712,9.07007515 L5.4489712,20.0151765 C5.85184972,19.2923867 9.01289655,14.3257889 16.4196631,14.1812309 C18.6199997,14.1399287 20.4174577,14.5942536 21.94633,15.2654155 C23.743788,16.0501586 25.0867164,17.2066222 25.8821432,18.022342 C27.669271,19.8809441 28.4956885,21.8531274 28.8779065,23.2574046 C29.5183801,25.6013083 29.373757,28.853862 29.373757,28.853862 L29.373757,29.9896744 L27.4729968,29.9896744 C27.4729968,29.9896744 27.4729968,29.4940472 27.4729968,29.1120012 C27.4006853,25.2915413 27.5143177,22.8856842 24.5185544,19.3646657 C24.5185544,19.3646657 22.9483612,17.6299704 20.3967972,16.7316461 C19.0951897,16.2669955 17.3700432,15.8642984 15.0767347,16.1224376 C14.0643733,16.2360188 13.2276257,16.421879 12.390878,16.7626228 C7.7526099,18.6315504 5.45930142,23.1231722 5.45930142,25.2812158 C5.45930142,25.5290294 5.45930142,30 5.45930142,30 L3.44490883,30 L3.44490883,10.8254216 C3.44490883,10.8254216 0.593768549,10.9803051 0.108248284,9.79286486 C-0.108686303,9.26626093 -0.0363747741,8.47119225 0.666080077,7.86198378 L9.70502118,0.448226483 C13.7854574,-0.904422829 17.6386289,0.902551443 18.8059436,4.54747669 C19.725333,7.42830996 18.681981,10.2575154 16.3370214,11.961234 C15.0250837,12.9111862 11.9879994,13.6443014 9.44676572,12.2090476" id="路径"></path>
                    </g>
                </g>
            </g>
        </g>
    </g>
</svg>