<svg width="159" height="158" viewBox="0 0 159 158" fill="none" xmlns="http://www.w3.org/2000/svg">
<circle cx="79.9015" cy="79" r="79" fill="#656565"/>
<mask id="mask0" mask-type="alpha" maskUnits="userSpaceOnUse" x="0" y="0" width="159" height="158">
<circle cx="79.9015" cy="79" r="79" fill="white"/>
</mask>
<g mask="url(#mask0)">
<g opacity="0.156273">
<path fill-rule="evenodd" clip-rule="evenodd" d="M0.901489 79C0.901489 35.3695 36.271 0 79.9015 0C100.854 0 120.948 8.32319 135.763 23.1386C150.578 37.9539 158.901 58.0479 158.901 79C158.901 122.63 123.532 158 79.9015 158C36.271 158 0.901489 122.63 0.901489 79ZM18.4722 79C18.4722 112.926 45.975 140.429 79.9015 140.429C113.816 140.399 141.301 112.914 141.331 79C141.331 45.0735 113.828 17.5707 79.9015 17.5707C45.975 17.5707 18.4722 45.0735 18.4722 79Z" fill="white"/>
<path d="M85.2136 71.1543C75.107 66.8774 72.0287 64.2077 72.056 59.7401C72.056 56.1715 74.7801 52.0036 82.2715 52.0853C87.1234 52.0743 91.884 53.4035 96.0284 55.9263L98.5618 57.3974L103.438 44.8118L101.613 43.7222C97.2641 41.1673 92.3932 39.6306 87.3656 39.2274V27.4863H74.9436V39.9901C64.047 42.4963 56.8281 50.7232 56.7191 61.1294C56.7191 73.9874 66.7984 79.8715 77.8039 84.2846C86.2487 87.7987 89.6812 91.2584 89.6267 96.2708C89.5722 101.283 84.7505 105.424 77.8584 105.369C72.2528 105.301 66.7859 103.617 62.1129 100.52L59.3887 98.7225L54.7305 111.417L56.256 112.534C61.3972 115.873 67.3028 117.851 73.4181 118.282V130.459H85.9763V117.601C91.2123 116.555 95.9813 113.875 99.597 109.946C103.104 105.921 105.038 100.765 105.045 95.4263C105.154 84.3118 99.2156 77.0112 85.2136 71.1543Z" fill="white"/>
</g>
<rect opacity="0.102039" x="93.7514" y="-54.5874" width="79" height="202.438" transform="rotate(45 93.7514 -54.5874)" fill="white"/>
</g>
</svg>
