<svg width="35" height="38" viewBox="0 0 35 38" fill="none" xmlns="http://www.w3.org/2000/svg">
    <g opacity="0.802462">
        <path fill-rule="evenodd" clip-rule="evenodd" d="M8.71593 28.528C10.9903 28.5037 13.1746 27.9966 15.3045 27.2292C19.4027 25.7528 23.1062 23.5791 26.4035 20.7085C28.07 19.2575 29.566 17.6457 30.6847 15.7137C31.2262 14.7783 31.6562 13.7966 31.7663 12.6917C31.8863 11.4852 31.3706 10.5422 30.2728 10.0257C29.5353 9.67861 28.7498 9.55389 27.953 9.48844C27.7221 9.46952 27.6259 9.37633 27.5719 9.16623C27.3499 8.30287 27.0704 7.45742 26.7508 6.62648C26.6679 6.41121 26.7018 6.30552 26.9413 6.30616C28.9596 6.3117 30.9251 6.54652 32.6229 7.78733C34.0684 8.84363 34.8263 10.2953 34.886 12.0972C34.9543 14.161 34.1958 15.978 33.1475 17.685C31.4365 20.4713 29.1322 22.6968 26.5523 24.6389C23.0475 27.2774 19.2369 29.3324 15.0464 30.6235C12.8254 31.3079 10.5585 31.7415 8.22325 31.685C6.9936 31.6552 5.78376 31.476 4.63462 31.0108C2.73829 30.2433 1.45193 28.9115 1.0263 26.8467C0.758955 25.5501 0.963732 24.2796 1.37553 23.0389C1.66057 22.1805 2.04856 21.3692 2.50797 20.593C2.67722 20.3072 2.70589 20.3066 2.91615 20.5699C3.45744 21.2478 4.02515 21.9024 4.63848 22.5141C4.81322 22.6882 4.85323 22.8248 4.73383 23.0562C4.39146 23.7202 4.17172 24.4272 4.05544 25.1703C3.8569 26.4394 4.43483 27.5074 5.60952 28.0073C6.60411 28.4307 7.64893 28.5409 8.71593 28.528Z" fill="url(#paint0_linear)"/>
        <mask id="mask0" mask-type="alpha" maskUnits="userSpaceOnUse" x="8" y="0" width="19" height="28">
            <path fill-rule="evenodd" clip-rule="evenodd" d="M8.45471 0H26.6063V27.0342H8.45471V0Z" fill="white"/>
        </mask>
        <g mask="url(#mask0)">
            <path fill-rule="evenodd" clip-rule="evenodd" d="M11.6002 19.0069C11.5535 21.4223 11.8242 23.8238 12.321 26.2005C12.3796 26.4814 12.32 26.6023 12.0408 26.6601C11.2277 26.8283 10.4086 26.9477 9.5831 27.0311C9.3534 27.0543 9.26877 26.9469 9.22852 26.7419C8.98311 25.4977 8.78656 24.2454 8.65706 22.9837C8.48656 21.3236 8.41938 19.6571 8.47248 17.9892C8.59549 14.1303 9.12569 10.3446 10.5828 6.743C11.3636 4.81326 12.3844 3.03875 13.9432 1.6229C15.8711 -0.127897 18.3628 -0.498537 20.5401 0.688923C21.6937 1.31809 22.5952 2.2382 23.3596 3.30472C24.8713 5.41392 25.7324 7.80814 26.3614 10.3041C26.4382 10.6087 26.5014 10.9168 26.5668 11.2242C26.5851 11.3102 26.6548 11.4188 26.5492 11.4788C26.469 11.5245 26.3968 11.4355 26.3312 11.3892C25.4038 10.7343 24.4667 10.0901 23.4676 9.55604C22.964 9.28679 22.6794 8.93229 22.4897 8.39266C22.0154 7.04252 21.3684 5.77725 20.4622 4.66003C20.0886 4.1996 19.6522 3.81118 19.1486 3.51545C18.3204 3.02904 17.474 3.02261 16.6402 3.52453C15.6062 4.14701 14.9221 5.0912 14.3452 6.12279C13.2408 8.09807 12.5899 10.2372 12.1764 12.4547C11.7739 14.6128 11.5624 16.7905 11.6002 19.0069Z" fill="url(#paint1_linear)"/>
        </g>
        <mask id="mask1" mask-type="alpha" maskUnits="userSpaceOnUse" x="11" y="26" width="16" height="13">
            <path fill-rule="evenodd" clip-rule="evenodd" d="M11.4454 26.5083H26.6047V38.0002H11.4454V26.5083Z" fill="white"/>
        </mask>
        <g mask="url(#mask1)">
            <path fill-rule="evenodd" clip-rule="evenodd" d="M17.7669 38.0002C16.4238 37.9778 15.1529 37.4107 14.0348 36.444C12.9787 35.531 12.1826 34.4138 11.5017 33.2014C11.3877 32.9983 11.4509 32.9188 11.6537 32.886C12.5748 32.7371 13.4915 32.5641 14.3924 32.3158C14.5629 32.2687 14.6369 32.3701 14.7158 32.4887C15.0874 33.0478 15.4989 33.5731 16.0066 34.0146C16.6158 34.5444 17.2886 34.8963 18.1264 34.824C18.5535 34.7872 18.9289 34.6283 19.2817 34.3981C20.3562 33.6971 21.031 32.6539 21.6292 31.5534C22.0494 30.7805 22.3884 29.9677 22.6722 29.1331C22.7364 28.9444 22.8321 28.8067 23.0102 28.7089C24.1597 28.0774 25.2587 27.363 26.3342 26.611C26.4002 26.565 26.4668 26.4758 26.5513 26.5205C26.6456 26.5703 26.5899 26.6694 26.573 26.7467C25.9556 29.5847 25.0649 32.3114 23.3531 34.6938C22.3843 36.0422 21.2174 37.1481 19.6202 37.7065C19.0652 37.9005 18.4959 37.9906 17.7669 38.0002Z" fill="url(#paint2_linear)"/>
        </g>
        <path fill-rule="evenodd" clip-rule="evenodd" d="M8.23642 6.30458C9.1763 6.2907 9.17655 6.29083 8.9385 6.93992C8.67514 7.65762 8.43322 8.38276 8.24889 9.12568C8.19156 9.35659 8.10132 9.47274 7.83697 9.49077C7.20706 9.53365 6.58052 9.62369 5.98002 9.84148C4.3716 10.4251 3.75914 11.5098 4.11273 13.202C4.40613 14.6066 5.12191 15.8101 5.93702 16.9573C6.23316 17.374 6.56307 17.7664 6.88538 18.1634C6.97648 18.2757 7.01836 18.3863 7.01786 18.5331C7.01363 19.875 7.05812 21.2153 7.17553 22.5526C7.18338 22.641 7.22762 22.7566 7.13053 22.8119C7.04204 22.8623 6.98184 22.7643 6.92364 22.7107C5.04139 20.9786 3.35782 19.0819 2.14786 16.7942C1.40939 15.3979 0.898635 13.9248 0.901501 12.3293C0.904493 10.5934 1.55683 9.12126 2.89517 8.00165C4.04456 7.04018 5.4138 6.61594 6.86356 6.42274C7.39676 6.35174 7.9363 6.32942 8.23642 6.30458Z" fill="url(#paint3_linear)"/>
        <path fill-rule="evenodd" clip-rule="evenodd" d="M15.4025 7.48877C15.4571 7.50592 15.5266 7.52635 15.5953 7.54918C20.5459 9.19946 24.9544 11.8034 28.8752 15.2679C29.0617 15.4326 29.0857 15.5613 28.9393 15.7668C28.4476 16.4565 27.9301 17.1235 27.3594 17.7489C27.2118 17.9106 27.1135 17.9432 26.933 17.776C24.2176 15.2604 21.1381 13.3099 17.7937 11.7714C16.726 11.2802 15.6314 10.8614 14.5125 10.5104C14.2243 10.4201 14.1646 10.2993 14.2581 10.0151C14.5168 9.22822 14.8113 8.4568 15.1599 7.70656C15.258 7.4952 15.2702 7.48953 15.4025 7.48877Z" fill="url(#paint4_linear)"/>
        <path fill-rule="evenodd" clip-rule="evenodd" d="M17.8778 22.7661C15.8277 22.7611 14.1414 21.0838 14.1554 19.0048C14.1711 16.6788 16.0865 15.1653 17.9863 15.2161C20.0155 15.2706 21.6416 16.9374 21.6344 19.0511C21.6273 21.12 19.9576 22.7711 17.8778 22.7661Z" fill="url(#paint5_linear)"/>
        <path fill-rule="evenodd" clip-rule="evenodd" d="M34.9015 25.6247C34.891 28.1401 33.4758 30.1568 31.091 31.0448C29.7597 31.5407 28.3779 31.7039 26.9695 31.6898C26.6467 31.6866 26.6257 31.6485 26.7417 31.3385C27.05 30.5149 27.3311 29.6821 27.554 28.8306C27.6088 28.6215 27.6979 28.5202 27.9299 28.5018C28.6844 28.4418 29.4297 28.3298 30.1364 28.0257C31.5152 27.4325 31.9921 26.353 31.7068 24.8606C31.5862 24.2297 31.3899 23.6218 31.0907 23.0542C30.9817 22.8471 30.9874 22.7083 31.1621 22.5361C31.7862 21.9213 32.3568 21.2558 32.9093 20.5748C33.1304 20.3024 33.1486 20.305 33.3322 20.6172C34.114 21.9466 34.6654 23.3606 34.8592 24.9037C34.8891 25.142 34.8881 25.3842 34.9015 25.6247Z" fill="url(#paint6_linear)"/>
    </g>
    <defs>
        <linearGradient id="paint0_linear" x1="-16.0863" y1="18.998" x2="8.25386" y2="51.5853" gradientUnits="userSpaceOnUse">
            <stop stop-color="#00B6BA"/>
            <stop offset="1" stop-color="#53F8FF"/>
        </linearGradient>
        <linearGradient id="paint1_linear" x1="-0.621095" y1="13.5171" x2="24.4015" y2="30.318" gradientUnits="userSpaceOnUse">
            <stop stop-color="#00B6BA"/>
            <stop offset="1" stop-color="#53F8FF"/>
        </linearGradient>
        <linearGradient id="paint2_linear" x1="3.86569" y1="32.2543" x2="14.9305" y2="46.8502" gradientUnits="userSpaceOnUse">
            <stop stop-color="#00B6BA"/>
            <stop offset="1" stop-color="#53F8FF"/>
        </linearGradient>
        <linearGradient id="paint3_linear" x1="-3.18334" y1="14.5636" x2="9.94667" y2="21.055" gradientUnits="userSpaceOnUse">
            <stop stop-color="#00B6BA"/>
            <stop offset="1" stop-color="#53F8FF"/>
        </linearGradient>
        <linearGradient id="paint4_linear" x1="6.80871" y1="12.6878" x2="16.5871" y2="26.6218" gradientUnits="userSpaceOnUse">
            <stop stop-color="#00B6BA"/>
            <stop offset="1" stop-color="#53F8FF"/>
        </linearGradient>
        <linearGradient id="paint5_linear" x1="10.4157" y1="18.9905" x2="17.9666" y2="26.4692" gradientUnits="userSpaceOnUse">
            <stop stop-color="#00B6BA"/>
            <stop offset="1" stop-color="#53F8FF"/>
        </linearGradient>
        <linearGradient id="paint6_linear" x1="22.5652" y1="26.0335" x2="33.3272" y2="33.8563" gradientUnits="userSpaceOnUse">
            <stop stop-color="#00B6BA"/>
            <stop offset="1" stop-color="#53F8FF"/>
        </linearGradient>
    </defs>
</svg>
