<svg viewBox="0 0 16 9" fill="none" xmlns="http://www.w3.org/2000/svg">
<path fill-rule="evenodd" clip-rule="evenodd" d="M4.30604 6.69804C4.66511 6.69483 4.95445 6.40828 4.95345 6.05692C4.95245 5.69989 4.66715 5.4219 4.30422 5.42437C3.96094 5.42673 3.67712 5.7151 3.67701 6.06158C3.67686 6.40883 3.96572 6.70111 4.30604 6.69804ZM11.6792 5.4243C11.3168 5.42625 11.0349 5.70823 11.037 6.06652C11.0391 6.41813 11.3189 6.69727 11.67 6.69801C12.0365 6.69878 12.3314 6.40525 12.3253 6.04574C12.3196 5.70779 12.0229 5.42241 11.6792 5.4243ZM7.98718 8.99996C5.41602 9 2.84489 9.00004 0.27376 8.99993C-0.0222586 8.99989 -0.0195156 8.99324 0.0169585 8.69631C0.20526 7.16345 0.800707 5.80493 1.77524 4.60787C2.36768 3.88021 3.07122 3.27996 3.89037 2.8184C4.03296 2.73809 4.04516 2.6765 3.96191 2.53705C3.56217 1.86731 3.17534 1.18998 2.78258 0.516144C2.72557 0.418373 2.67531 0.320086 2.70815 0.203744C2.73939 0.0929772 2.81942 0.0250032 2.92962 0.00521289C3.07578 -0.0210019 3.18238 0.0542826 3.25289 0.172028C3.43911 0.48284 3.61937 0.797233 3.80129 1.11059C4.0356 1.51426 4.27431 1.91554 4.50009 2.32386C4.57092 2.45191 4.63649 2.45848 4.76256 2.40354C5.85196 1.92916 6.99478 1.70914 8.18186 1.73543C9.24057 1.75887 10.2609 1.97657 11.2313 2.40328C11.372 2.46516 11.4314 2.43691 11.5038 2.30968C11.9015 1.61045 12.309 0.91664 12.7124 0.220544C12.7691 0.122626 12.831 0.0300616 12.9521 0.00794514C13.0726 -0.0140605 13.1734 0.0324985 13.2455 0.125247C13.3274 0.230476 13.3086 0.346966 13.2475 0.454336C13.0653 0.7746 12.8794 1.0928 12.6943 1.41144C12.4753 1.78849 12.2631 2.16978 12.0324 2.53967C11.9435 2.68219 11.9719 2.74082 12.1087 2.81984C13.7167 3.74921 14.8258 5.10426 15.5117 6.81114C15.7647 7.44048 15.9055 8.10057 15.9911 8.77219C16.0176 8.98021 15.9974 8.99974 15.7561 8.99978C13.1664 9.00007 10.5768 8.99996 7.98718 8.99996Z" fill="#2AD4D9"/>
</svg>
