<svg viewBox="0 0 10 13" fill="none" xmlns="http://www.w3.org/2000/svg">
<path fill-rule="evenodd" clip-rule="evenodd" d="M7.44494 0C6.82736 0.0274347 6.07904 0.435731 5.63615 0.984665C5.23802 1.47216 4.89049 2.25017 4.98418 2.99616C5.67369 3.05329 6.37627 2.62546 6.80548 2.07625C7.23382 1.52605 7.52384 0.762497 7.44494 0ZM7.27037 12.9827C8.10714 12.9661 8.63713 12.1785 9.14948 11.386C9.7109 10.518 9.95881 9.67631 9.99577 9.55082C9.99783 9.54384 9.99923 9.53908 10 9.53665C9.99962 9.53647 9.99858 9.53602 9.99692 9.5353C9.91645 9.50068 8.36762 8.83425 8.35222 6.90783C8.33709 5.31702 9.53579 4.52566 9.66776 4.43853C9.67235 4.4355 9.67564 4.43333 9.67756 4.432C8.95605 3.31531 7.83259 3.16219 7.4323 3.1447C6.84758 3.08212 6.28031 3.31867 5.81682 3.51194C5.52228 3.63476 5.26965 3.7401 5.08108 3.7401C4.87121 3.7401 4.61165 3.63109 4.32036 3.50874C3.93911 3.3486 3.5035 3.16563 3.05378 3.17439C2.01212 3.19089 1.05087 3.81599 0.514424 4.80397C-0.568873 6.79337 0.236616 9.74125 1.29197 11.3543C1.80855 12.1432 2.4228 13.0311 3.23062 12.9992C3.59131 12.9838 3.848 12.8682 4.11347 12.7485C4.42028 12.6103 4.73881 12.4667 5.24313 12.4667C5.72346 12.4667 6.02724 12.6058 6.31945 12.7396C6.59891 12.8676 6.86778 12.9907 7.27037 12.9827Z" fill="#2AD4D9"/>
</svg>
