<svg viewBox="0 0 38 17" fill="none" xmlns="http://www.w3.org/2000/svg">
<rect x="0.5" y="0.5" width="37" height="16" rx="4.5" stroke="#2AD4D8"/>
<path d="M6.82495 12.967C7.22095 13.022 7.82595 13.077 8.62895 13.077C10.136 13.077 11.082 12.802 11.654 12.285C12.149 11.845 12.424 11.207 12.424 10.547C12.424 9.46898 11.72 8.72098 10.774 8.47898V8.43498C11.676 8.09398 12.127 7.37898 12.127 6.60898C12.127 5.91598 11.808 5.35498 11.302 5.01398C10.719 4.60698 9.99295 4.47498 8.96995 4.47498C8.14495 4.47498 7.30895 4.55198 6.82495 4.65098V12.967ZM8.44195 5.73998C8.58495 5.70698 8.80495 5.68498 9.15695 5.68498C9.88295 5.68498 10.51 5.95998 10.51 6.79598C10.51 7.48898 9.95995 7.98398 9.03595 7.98398H8.44195V5.73998ZM9.04695 9.17198C9.88295 9.17198 10.719 9.52398 10.719 10.503C10.719 11.46 9.97095 11.856 9.09095 11.856C8.80495 11.856 8.60695 11.845 8.44195 11.812V9.17198H9.04695Z" fill="#2AD4D8"/>
<path d="M15.328 11.636V9.28198H18.089V7.95098H15.328V5.90498H18.254V4.54098H13.7V13H18.43V11.636H15.328Z" fill="#2AD4D8"/>
<path d="M19.0013 4.54098V5.94898H21.0803V13H22.7084V5.94898H24.7983V4.54098H19.0013Z" fill="#2AD4D8"/>
<path d="M27.5347 4.54098L25.1367 13H26.7867L27.3697 10.767H29.6357L30.2407 13H31.9457L29.5807 4.54098H27.5347ZM28.1067 7.59898C28.2277 7.10398 28.3707 6.41098 28.4807 5.88298H28.5137C28.6237 6.39998 28.7667 7.08198 28.8987 7.60998L29.4047 9.53498H27.6007L28.1067 7.59898Z" fill="#2AD4D8"/>
</svg>
