<svg viewBox="0 0 48 38" fill="none" xmlns="http://www.w3.org/2000/svg">
<mask id="mask0_3601_3797" style="mask-type:alpha" maskUnits="userSpaceOnUse" x="0" y="0" width="32" height="29">
<path fill-rule="evenodd" clip-rule="evenodd" d="M0 0H31.2278V28.5064H0V0Z" fill="white"/>
</mask>
<g mask="url(#mask0_3601_3797)">
<path fill-rule="evenodd" clip-rule="evenodd" d="M27.5669 11.9131C27.5669 9.64285 27.5729 7.37242 27.5643 5.1022C27.5603 4.04938 27.1364 3.64021 26.0783 3.62042C26.0118 3.61913 25.9453 3.61972 25.8788 3.61972C19.0439 3.61972 12.209 3.61923 5.37403 3.6219C5.14282 3.622 4.91012 3.64367 4.68081 3.67446C4.1323 3.7481 3.82329 4.07927 3.72679 4.60385C3.68538 4.82843 3.66898 5.06033 3.66878 5.28896C3.66548 9.68155 3.66568 14.0741 3.66678 18.4667C3.66708 19.7776 4.03989 20.1509 5.34843 20.1526C7.01147 20.1546 8.67451 20.1616 10.3374 20.1476C10.7236 20.1444 10.8761 20.2704 10.8603 20.6603C10.8368 21.2352 10.8527 21.8117 10.8554 22.3875C10.8579 22.9145 10.8734 22.9223 11.3293 22.6654C12.6295 21.9328 13.9338 21.2075 15.2273 20.4634C15.6143 20.2408 16.0063 20.1445 16.4559 20.1464C19.6156 20.159 22.7753 20.1547 25.935 20.1522C27.1917 20.1511 27.5651 19.7783 27.5667 18.5266C27.5692 16.3221 27.5673 14.1176 27.5669 11.9131ZM15.6373 0.00489585C19.1474 0.00449994 22.6576 -0.0012407 26.1677 0.00667743C28.2108 0.0113293 29.7439 0.896379 30.7157 2.68301C31.0593 3.31478 31.2153 4.01177 31.2164 4.72658C31.224 9.48261 31.2398 14.2389 31.2124 18.9949C31.197 21.657 29.0635 23.7395 26.3643 23.7615C23.3867 23.7858 20.4087 23.7725 17.4309 23.7631C17.0332 23.7618 16.6928 23.8566 16.3477 24.0529C13.8823 25.4554 11.408 26.8424 8.93612 28.2338C8.83501 28.2907 8.73231 28.346 8.62621 28.3928C7.88709 28.7189 7.21967 28.3175 7.20617 27.5158C7.18877 26.4792 7.17687 25.4414 7.21067 24.4057C7.22667 23.9174 7.09637 23.7416 6.57506 23.7548C5.74674 23.7758 4.91342 23.831 4.0859 23.6886C1.75554 23.2878 0.0388929 21.3879 0.0240926 19.0533C-0.0064082 14.2644 -0.00950827 9.47509 0.0237926 4.6863C0.041893 2.07786 2.21255 0.0243943 4.90722 0.00994366C8.48381 -0.00915884 12.0606 0.00519278 15.6373 0.00489585Z" fill="#2AD4D9"/>
</g>
<g opacity="0.3">
<mask id="mask1_3601_3797" style="mask-type:alpha" maskUnits="userSpaceOnUse" x="19" y="9" width="29" height="29">
<path fill-rule="evenodd" clip-rule="evenodd" d="M19.1777 9.47852H48V38H19.1777V9.47852Z" fill="white"/>
</mask>
<g mask="url(#mask1_3601_3797)">
<path fill-rule="evenodd" clip-rule="evenodd" d="M47.9945 21.3746C47.9949 23.6462 47.9983 25.9178 47.9942 28.1895C47.9886 31.1967 45.918 33.2417 42.8767 33.2499C42.3942 33.2512 41.9085 33.2841 41.4299 33.2411C40.9035 33.1938 40.7796 33.4047 40.7964 33.89C40.8306 34.8765 40.8111 35.865 40.8049 36.8526C40.7985 37.879 40.122 38.2897 39.2108 37.7837C36.6723 36.374 34.1449 34.9447 31.6192 33.5125C31.3046 33.334 30.9934 33.2437 30.6297 33.2454C28.5166 33.2552 26.4033 33.2535 24.2901 33.2493C21.2524 33.2432 19.1888 31.1934 19.1812 28.1804C19.1799 27.6372 19.1922 27.0938 19.1781 26.5509C19.1695 26.2232 19.2798 26.0702 19.6348 26.0759C20.5498 26.0902 21.4652 26.0902 22.3802 26.0759C22.7337 26.0702 22.8473 26.2203 22.8383 26.5495C22.8239 27.0758 22.8308 27.603 22.8368 28.1296C22.8491 29.2105 23.262 29.6288 24.353 29.6321C26.7823 29.6394 29.2117 29.6391 31.641 29.6301C32.0187 29.6286 32.3526 29.6984 32.6836 29.8888C34.0207 30.6581 35.3724 31.4026 36.7102 32.171C37.0413 32.3611 37.1734 32.3487 37.1574 31.9267C37.1357 31.3513 37.1738 30.7735 37.1453 30.1988C37.124 29.7718 37.2695 29.621 37.7126 29.6268C39.3263 29.6479 40.9406 29.635 42.5546 29.6347C42.7043 29.6346 42.8545 29.6391 43.0037 29.6304C43.9121 29.5771 44.2827 29.2098 44.3358 28.3066C44.3473 28.1097 44.3403 27.9117 44.3403 27.7141C44.3405 23.4179 44.3409 19.1215 44.3391 14.8251C44.339 14.6118 44.3406 14.3949 44.3045 14.186C44.1749 13.437 43.7899 13.1229 42.944 13.107C42.0125 13.0895 41.0804 13.1016 40.1486 13.1015C38.1519 13.1012 36.1551 13.0915 34.1584 13.1088C33.7172 13.1126 33.5308 12.9964 33.549 12.5276C33.5815 11.6894 33.5704 10.8487 33.5528 10.0096C33.5451 9.64 33.6545 9.47877 34.0591 9.48035C37.1208 9.49312 40.1829 9.45828 43.244 9.49896C45.8785 9.5339 47.9678 11.6549 47.9899 14.2634C48.0099 16.6337 47.9941 19.0042 47.9945 21.3746Z" fill="#2AD4D9"/>
</g>
</g>
<path fill-rule="evenodd" clip-rule="evenodd" d="M12.9049 14.0191C13.2852 14.0664 13.686 14.1189 14.0864 14.2619C14.8217 14.5245 15.5886 14.6773 16.3823 14.5419C16.6636 14.4938 16.9158 14.3805 16.9568 14.0786C16.9984 13.7709 16.7291 13.6521 16.4982 13.5722C15.8716 13.3553 15.2347 13.1676 14.6031 12.9642C13.9985 12.7696 13.4554 12.4518 12.9001 12.1517C11.2952 11.2845 11.3585 9.39129 11.9615 8.26622C12.3535 7.53468 12.979 7.05019 13.7803 6.82888C14.1698 6.72129 14.304 6.53947 14.308 6.13931C14.3165 5.29286 14.8958 4.67871 15.6143 4.67871C16.3391 4.67871 16.9237 5.2888 16.9241 6.13486C16.9244 6.57124 17.0927 6.75524 17.4969 6.83878C17.7538 6.89183 18.0094 6.98932 18.2421 7.11087C18.8637 7.43561 19.1363 8.1326 18.9072 8.74655C18.6872 9.33606 18.1089 9.64645 17.4053 9.51125C16.8845 9.41108 16.3821 9.23075 15.8479 9.17879C15.4778 9.14276 15.1172 9.16047 14.7588 9.24411C14.4961 9.30538 14.292 9.44929 14.2677 9.73226C14.2449 9.99871 14.4707 10.0921 14.6684 10.1752C15.2355 10.4134 15.8188 10.6096 16.4201 10.7414C17.3372 10.9425 18.1201 11.4014 18.836 11.9741C19.4245 12.4449 19.5814 13.1284 19.6131 13.8323C19.6757 15.2216 18.8718 16.4326 17.5504 16.8905C17.1097 17.0432 16.8999 17.2281 16.9202 17.7197C16.9419 18.242 16.7099 18.6937 16.1886 18.9082C15.6973 19.1104 15.2113 19.0756 14.7735 18.7436C14.392 18.4544 14.2862 18.0378 14.3049 17.6009C14.3216 17.2124 14.1534 17.0495 13.795 16.9509C13.2208 16.793 12.6312 16.659 12.1269 16.3174C11.6258 15.9778 11.4384 15.4126 11.6295 14.8385C11.7868 14.3654 12.3314 14.0068 12.9049 14.0191Z" fill="#2AD4D9"/>
</svg>
