<svg viewBox="0 0 35 35" fill="none" xmlns="http://www.w3.org/2000/svg">
<rect x="0.75" y="0.75" width="33.5" height="33.5" rx="5.85377" fill="" fill-opacity="0.15" stroke="#F1F1F1" stroke-width="1.5"/>
<mask id="mask0_3407_612" style="mask-type:alpha" maskUnits="userSpaceOnUse" x="0" y="0" width="35" height="35">
<rect x="0.75" y="0.75" width="33.5" height="33.5" rx="5.85377" fill="white" stroke="white" stroke-width="1.5"/>
</mask>
<g mask="url(#mask0_3407_612)">
<mask id="mask1_3407_612" style="mask-type:alpha" maskUnits="userSpaceOnUse" x="5" y="-1" width="43" height="43">
<path fill-rule="evenodd" clip-rule="evenodd" d="M5.19598 16.293L29.6084 -0.800815L47.0069 24.0468L22.5945 41.1406L5.19598 16.293Z" fill="white"/>
</mask>
<g mask="url(#mask1_3407_612)">
<path fill-rule="evenodd" clip-rule="evenodd" d="M33.3377 30.4919C33.1831 30.6001 33.0388 30.7011 32.8769 30.7989C31.982 31.363 31.0331 31.8086 30.0468 32.1084C28.796 32.5153 27.4895 32.7111 26.2009 32.6911C25.2452 32.6882 24.302 32.5671 23.3755 32.3405C23.0421 32.2613 22.7034 32.1702 22.3759 32.0556C21.5568 31.7851 20.7609 31.4358 20.0067 30.9947C18.4547 30.0963 17.0541 28.8417 15.9525 27.2685C14.8509 25.6952 14.148 23.9677 13.8346 22.202C13.6884 21.3352 13.6221 20.475 13.649 19.6121C13.6626 19.2587 13.6825 18.9165 13.7251 18.5584C13.8364 17.6208 14.0452 16.693 14.3591 15.8011C14.781 14.5834 15.4015 13.4299 16.2043 12.3832C16.8421 11.5615 17.5946 10.8157 18.4401 10.1612C18.5883 10.0418 18.7316 9.94147 18.8769 9.83973C24.4723 5.92177 32.2555 7.36527 36.2434 13.0606C40.2313 18.7559 38.9331 26.5739 33.3377 30.4919ZM17.408 7.742C16.0674 8.68072 14.9449 9.79497 14.0183 11.0377C13.3245 11.9769 12.7443 12.9927 12.2941 14.0583C11.7027 15.4727 11.3246 16.9724 11.1892 18.4896C11.1417 18.8824 11.1192 19.2889 11.106 19.689C11.1017 20.536 11.1557 21.4048 11.2945 22.2611C11.2896 22.2958 11.3014 22.3345 11.3121 22.3739C11.6624 24.5827 12.5182 26.7502 13.8916 28.7115C15.2649 30.6729 17.009 32.2184 18.9555 33.3095C19.0055 33.3371 19.0378 33.3613 19.0908 33.3711C19.8366 33.8024 20.6272 34.1398 21.4246 34.4255C21.805 34.5499 22.1947 34.6678 22.5801 34.7575C24.0698 35.1525 25.6083 35.31 27.1427 35.2204C28.2887 35.1683 29.4117 34.9759 30.5222 34.6516C32.0133 34.2172 33.4659 33.5283 34.8065 32.5896C41.5458 27.8707 43.1148 18.4876 38.3043 11.6175C33.5012 4.75795 24.1473 3.02313 17.408 7.742Z" fill="#F1F1F1"/>
</g>
<path fill-rule="evenodd" clip-rule="evenodd" d="M9.85278 36.0567C8.71328 35.526 7.68737 34.6968 6.91623 33.5955C6.14508 32.4942 5.72418 31.2571 5.60412 30.0109C4.84389 28.0282 4.54113 25.9268 4.65948 23.8588C2.49073 27.1437 2.43904 31.5878 4.85529 35.0386C7.27889 38.4999 11.472 39.9702 15.3013 39.0568C13.3248 38.4712 11.465 37.4601 9.86012 36.0672L9.85278 36.0567Z" fill="#F1F1F1"/>
<path fill-rule="evenodd" clip-rule="evenodd" d="M18.4864 35.1847C18.1981 35.1677 17.9054 35.1225 17.623 35.0702C15.0297 34.5883 12.6001 33.1164 10.9557 30.768C9.31058 28.4185 8.76506 25.6415 9.19921 23.0397C9.24658 22.7564 9.30306 22.484 9.38396 22.2069C9.28609 21.5408 9.23382 20.874 9.23189 20.1891C9.20496 18.9247 9.31836 17.6589 9.57973 16.4114C8.30577 17.8818 7.42578 19.6078 6.95387 21.456C6.59014 22.8205 6.45009 24.2456 6.54819 25.6775C6.71722 27.9367 7.492 30.2077 8.89475 32.2111C10.3048 34.2249 12.174 35.7297 14.2469 36.6526C14.2469 36.6526 14.255 36.6642 14.2653 36.657C15.568 37.2454 16.954 37.6019 18.3448 37.7239C20.2415 37.9104 22.1643 37.6738 23.9818 36.9796C22.7309 36.7942 21.4919 36.4722 20.3143 36.0165C19.6876 35.7816 19.0796 35.5055 18.4864 35.1847Z" fill="#F1F1F1"/>
<path fill-rule="evenodd" clip-rule="evenodd" d="M26.8954 23.1375C26.523 22.6058 26.1432 22.0808 25.7842 21.5396C25.662 21.3564 25.5326 21.3141 25.3235 21.3401C24.5881 21.4346 23.8536 21.5613 23.1036 21.4815C20.3858 21.1946 18.8661 18.4322 20.0812 15.9917C20.2752 15.6042 20.4981 15.2339 20.8024 14.9271C20.9698 14.7583 20.9672 14.6273 20.8193 14.4557C20.708 14.3273 20.626 14.1752 20.5222 14.0401C20.4279 13.9185 20.4355 13.8241 20.5602 13.7368C21.0236 13.4139 21.4873 13.0892 21.9482 12.7649C22.0708 12.679 22.1679 12.697 22.2525 12.8222C22.3577 12.9768 22.4762 13.122 22.5724 13.2813C22.6805 13.462 22.7986 13.4903 22.9909 13.4119C23.8203 13.0765 24.6813 12.9989 25.5523 13.2471C26.4694 13.5085 27.2254 14.0311 27.794 14.8147C27.9879 15.0806 27.9829 15.0888 27.7088 15.2807C27.311 15.5593 26.9132 15.8378 26.5148 16.1152C26.2554 16.2953 26.2567 16.2928 26.0631 16.036C25.6037 15.4261 25.0112 15.1501 24.2541 15.2707C24.0771 15.3008 24.0101 15.3368 24.1411 15.5217C24.9218 16.6257 25.6978 17.7361 26.4693 18.8466C26.5669 18.9861 26.6756 19.0272 26.8371 19.0079C27.3909 18.939 27.9441 18.8518 28.5056 18.84C29.658 18.8147 30.6811 19.155 31.4975 20.0073C32.5663 21.1237 32.7714 22.4385 32.3342 23.867C32.152 24.4666 31.8239 24.9871 31.4024 25.4401C31.2652 25.5862 31.2528 25.7089 31.3858 25.855C31.3956 25.8668 31.4034 25.8802 31.413 25.8938C31.8167 26.477 31.8167 26.477 31.2366 26.8832C30.9182 27.1062 30.5958 27.3257 30.2797 27.5564C30.1418 27.6577 30.0429 27.6503 29.9466 27.4973C29.8473 27.3402 29.726 27.1954 29.6295 27.0379C29.5367 26.8856 29.4371 26.8552 29.2698 26.9255C28.4947 27.2573 27.6805 27.349 26.8528 27.1517C25.8028 26.9022 24.9524 26.3347 24.3458 25.4136C24.2669 25.2922 24.2773 25.2083 24.3879 25.1293C24.8498 24.8043 25.3125 24.4803 25.774 24.1525C25.9038 24.0616 25.9834 24.1138 26.0705 24.2294C26.3449 24.5906 26.6658 24.8911 27.1108 25.0265C27.396 25.1114 27.6756 25.1203 27.9662 25.0747C28.1673 25.0418 28.1847 24.9702 28.0688 24.809C27.673 24.2546 27.2853 23.6945 26.8954 23.1375ZM23.2354 17.9128L22.4702 16.8199C22.2454 16.4989 22.2399 16.4997 22.0425 16.8364C21.6122 17.5707 21.7347 18.465 22.327 18.9709C22.8472 19.4133 23.4499 19.3946 24.0617 19.3319C24.223 19.3143 24.148 19.2183 24.0966 19.1449C23.8105 18.7341 23.5226 18.3229 23.2354 17.9128ZM28.95 22.3851L29.7028 23.4602C29.9547 23.8199 29.9862 23.8166 30.1903 23.4283C30.8049 22.2554 30.0835 21.0146 28.761 20.9746C28.5861 20.9705 28.4108 20.99 28.2351 20.9912C28.0476 20.9911 28.0058 21.0454 28.1254 21.2118C28.4065 21.598 28.6753 21.9928 28.95 22.3851Z" fill="#F1F1F1"/>
</g>
</svg>
