<svg viewBox="0 0 35 35" fill="none" xmlns="http://www.w3.org/2000/svg">
<rect x="0.75" y="0.75" width="33.5" height="33.5" rx="5.85377" fill="" fill-opacity="0.15" stroke="#F1F1F1" stroke-width="1.5"/>
<mask id="mask0_3407_572" style="mask-type:alpha" maskUnits="userSpaceOnUse" x="0" y="0" width="35" height="35">
<rect x="0.75" y="0.75" width="33.5" height="33.5" rx="5.85377" fill="white" stroke="white" stroke-width="1.5"/>
</mask>
<g mask="url(#mask0_3407_572)">
<path fill-rule="evenodd" clip-rule="evenodd" d="M40.5961 21.7923C40.5961 23.4881 40.6031 25.1838 40.5903 26.8795C40.5877 27.2304 40.698 27.3784 41.0517 27.3532C41.356 27.3315 41.6641 27.3324 41.9685 27.3531C42.2994 27.3756 42.4147 27.2526 42.4104 26.9092C42.3942 25.6149 42.404 24.3203 42.404 23.0259C42.404 20.916 42.3977 18.8061 42.4104 16.6961C42.4124 16.3603 42.3198 16.2224 41.9784 16.25C41.6745 16.2745 41.3653 16.2763 41.0617 16.2497C40.682 16.2162 40.5864 16.3823 40.5895 16.7441C40.6039 18.4267 40.5959 20.1095 40.5961 21.7923ZM27.7873 10.1745C23.4794 10.1745 19.1717 10.1741 14.864 10.1755C14.5845 10.1756 14.3 10.1542 14.0313 10.2532C13.5314 10.4373 13.1861 10.9594 13.1743 11.5626C13.1635 12.1191 13.1615 12.6762 13.1745 13.2324C13.1811 13.5151 13.0789 13.6261 12.7973 13.6222C12.0074 13.611 11.217 13.6161 10.4269 13.6196C10.2359 13.6203 10.0909 13.5694 10.093 13.3472C10.1028 12.2384 9.98062 11.1207 10.3506 10.0383C10.9388 8.31715 12.5117 7.13011 14.3001 7.03904C15.0138 7.00275 15.7265 7.00142 16.4397 7.0013C24.2013 6.9996 31.9629 6.99912 39.7245 7.00263C40.3228 7.00287 40.922 7.02113 41.5194 7.05512C43.4691 7.16652 45.1669 8.79721 45.4332 10.8004C45.4777 11.1341 45.5001 11.4685 45.5 11.806C45.4974 18.577 45.5 25.348 45.4969 32.1189C45.4958 34.3625 44.0211 36.2314 41.9261 36.6377C41.5406 36.7125 41.1416 36.7446 40.7487 36.7449C32.1077 36.7508 23.4668 36.7513 14.8259 36.7482C12.4849 36.7474 10.6217 35.2651 10.1823 33.0397C10.0032 32.1329 10.0937 31.2075 10.0908 30.2897C10.0901 30.0835 10.2016 29.9848 10.4036 29.9849C11.2192 29.9853 12.0348 29.9861 12.8504 29.9832C13.101 29.9823 13.1774 30.1144 13.1731 30.3512C13.1643 30.8429 13.1705 31.335 13.1711 31.8269C13.1728 33.063 13.7057 33.6104 14.9124 33.6106C19.6407 33.6114 24.369 33.611 29.0973 33.611C32.9844 33.611 36.8716 33.6097 40.7587 33.6122C41.3244 33.6126 41.815 33.4658 42.1512 32.9635C42.3132 32.7217 42.4085 32.463 42.4052 32.1654C42.3993 31.6474 42.3914 31.1292 42.4085 30.612C42.4181 30.3193 42.3047 30.2307 42.028 30.2326C40.7154 30.2421 39.4026 30.2259 38.0901 30.2433C37.7221 30.2483 37.6043 30.1209 37.6049 29.7516C37.6132 24.4565 37.61 19.1614 37.6115 13.8664C37.6117 13.4052 37.6492 13.3703 38.1247 13.3692C39.3992 13.3665 40.6738 13.3592 41.9481 13.3738C42.291 13.3778 42.4325 13.2767 42.4106 12.9094C42.3829 12.445 42.4091 11.9776 42.4024 11.5116C42.3917 10.7816 41.8848 10.2389 41.1688 10.1881C40.9784 10.1744 40.7868 10.1751 40.5958 10.175C36.3263 10.1744 32.0568 10.1745 27.7873 10.1745Z" fill="#F1F1F1"/>
<mask id="mask1_3407_572" style="mask-type:alpha" maskUnits="userSpaceOnUse" x="10" y="7" width="36" height="30">
<path fill-rule="evenodd" clip-rule="evenodd" d="M40.5961 21.7923C40.5961 23.4881 40.6031 25.1838 40.5903 26.8795C40.5877 27.2304 40.698 27.3784 41.0517 27.3532C41.356 27.3315 41.6641 27.3324 41.9685 27.3531C42.2994 27.3756 42.4147 27.2526 42.4104 26.9092C42.3942 25.6149 42.404 24.3203 42.404 23.0259C42.404 20.916 42.3977 18.8061 42.4104 16.6961C42.4124 16.3603 42.3198 16.2224 41.9784 16.25C41.6745 16.2745 41.3653 16.2763 41.0617 16.2497C40.682 16.2162 40.5864 16.3823 40.5895 16.7441C40.6039 18.4267 40.5959 20.1095 40.5961 21.7923ZM27.7873 10.1745C23.4794 10.1745 19.1717 10.1741 14.864 10.1755C14.5845 10.1756 14.3 10.1542 14.0313 10.2532C13.5314 10.4373 13.1861 10.9594 13.1743 11.5626C13.1635 12.1191 13.1615 12.6762 13.1745 13.2324C13.1811 13.5151 13.0789 13.6261 12.7973 13.6222C12.0074 13.611 11.217 13.6161 10.4269 13.6196C10.2359 13.6203 10.0909 13.5694 10.093 13.3472C10.1028 12.2384 9.98062 11.1207 10.3506 10.0383C10.9388 8.31715 12.5117 7.13011 14.3001 7.03904C15.0138 7.00275 15.7265 7.00142 16.4397 7.0013C24.2013 6.9996 31.9629 6.99912 39.7245 7.00263C40.3228 7.00287 40.922 7.02113 41.5194 7.05512C43.4691 7.16652 45.1669 8.79721 45.4332 10.8004C45.4777 11.1341 45.5001 11.4685 45.5 11.806C45.4974 18.577 45.5 25.348 45.4969 32.1189C45.4958 34.3625 44.0211 36.2314 41.9261 36.6377C41.5406 36.7125 41.1416 36.7446 40.7487 36.7449C32.1077 36.7508 23.4668 36.7513 14.8259 36.7482C12.4849 36.7474 10.6217 35.2651 10.1823 33.0397C10.0032 32.1329 10.0937 31.2075 10.0908 30.2897C10.0901 30.0835 10.2016 29.9848 10.4036 29.9849C11.2192 29.9853 12.0348 29.9861 12.8504 29.9832C13.101 29.9823 13.1774 30.1144 13.1731 30.3512C13.1643 30.8429 13.1705 31.335 13.1711 31.8269C13.1728 33.063 13.7057 33.6104 14.9124 33.6106C19.6407 33.6114 24.369 33.611 29.0973 33.611C32.9844 33.611 36.8716 33.6097 40.7587 33.6122C41.3244 33.6126 41.815 33.4658 42.1512 32.9635C42.3132 32.7217 42.4085 32.463 42.4052 32.1654C42.3993 31.6474 42.3914 31.1292 42.4085 30.612C42.4181 30.3193 42.3047 30.2307 42.028 30.2326C40.7154 30.2421 39.4026 30.2259 38.0901 30.2433C37.7221 30.2483 37.6043 30.1209 37.6049 29.7516C37.6132 24.4565 37.61 19.1614 37.6115 13.8664C37.6117 13.4052 37.6492 13.3703 38.1247 13.3692C39.3992 13.3665 40.6738 13.3592 41.9481 13.3738C42.291 13.3778 42.4325 13.2767 42.4106 12.9094C42.3829 12.445 42.4091 11.9776 42.4024 11.5116C42.3917 10.7816 41.8848 10.2389 41.1688 10.1881C40.9784 10.1744 40.7868 10.1751 40.5958 10.175C36.3263 10.1744 32.0568 10.1745 27.7873 10.1745Z" fill="white"/>
</mask>
<g mask="url(#mask1_3407_572)">
</g>
<path fill-rule="evenodd" clip-rule="evenodd" d="M24.7549 14.6521H24.7931C25.7125 14.6521 25.7265 14.6516 25.7552 15.5682C25.7656 15.902 25.9684 15.9323 26.1986 15.9786C27.0459 16.1494 27.79 16.5087 28.366 17.1865C28.8348 17.7382 29.0282 18.3997 29.1325 19.0995C29.1662 19.3254 29.0703 19.4349 28.8405 19.4462C28.2305 19.4758 27.6203 19.5093 27.0111 19.5547C26.8144 19.5693 26.7358 19.4753 26.6897 19.3058C26.3578 18.0818 25.5303 17.8613 24.3717 17.9245C24.0444 17.9423 23.7119 17.9759 23.4004 18.1106C23.0491 18.2627 22.7797 18.4921 22.7533 18.9C22.7276 19.2946 22.9643 19.5595 23.2811 19.7337C23.9348 20.093 24.6406 20.3217 25.3631 20.48C26.1488 20.6521 26.9295 20.8282 27.6582 21.188C28.8508 21.7771 29.3972 22.7887 29.4299 24.0898C29.4631 25.4132 28.9733 26.4884 27.807 27.1735C27.2853 27.4801 26.7282 27.7041 26.1274 27.7871C25.8409 27.8267 25.7501 27.9694 25.7571 28.2535C25.7772 29.0563 25.7811 28.9898 25.0344 28.9916C24.7286 28.9923 24.4228 28.9852 24.1173 28.9923C23.8686 28.9981 23.7513 28.9084 23.7415 28.6337C23.7148 27.8899 23.7041 27.8921 22.9821 27.6578C21.3583 27.1311 20.4172 26.0062 20.1148 24.3066C20.0631 24.0151 20.1488 23.9009 20.4226 23.8716C21.0044 23.8092 21.5859 23.7416 22.1659 23.6649C22.3868 23.6355 22.4909 23.7178 22.5392 23.9352C22.9849 25.9392 24.7253 26.1041 26.0294 25.62C26.4385 25.4681 26.7597 25.1998 26.9214 24.7709C27.17 24.1112 26.9709 23.5712 26.342 23.2469C25.7918 22.9631 25.1878 22.8465 24.593 22.7064C23.5104 22.451 22.4322 22.1864 21.5475 21.4414C20.0105 20.1472 20.1311 17.779 21.792 16.65C22.2735 16.3226 22.7964 16.0855 23.3668 15.9797C23.6614 15.9249 23.7548 15.7814 23.7523 15.4801C23.7446 14.5539 23.6365 14.6612 24.5639 14.6522C24.6276 14.6515 24.6913 14.6521 24.7549 14.6521Z" fill="#F1F1F1"/>
<path fill-rule="evenodd" clip-rule="evenodd" d="M12.0322 19.8373C11.0766 19.8373 10.1208 19.8274 9.16528 19.843C8.84718 19.8482 8.74353 19.7328 8.75031 19.4155C8.76685 18.6393 8.76423 17.8621 8.75138 17.0857C8.74674 16.8002 8.85361 16.6925 9.13005 16.6934C11.0923 16.6984 13.0546 16.698 15.017 16.6942C15.2763 16.6937 15.3816 16.8034 15.3791 17.0674C15.3712 17.8568 15.3684 18.6465 15.3805 19.436C15.385 19.7381 15.2722 19.8456 14.9756 19.8419C13.9946 19.8297 13.0134 19.8373 12.0322 19.8373Z" fill="#F1F1F1"/>
<path fill-rule="evenodd" clip-rule="evenodd" d="M12.0657 23.7584C13.0216 23.7583 13.9776 23.7674 14.9333 23.7532C15.2593 23.7484 15.3903 23.8572 15.3823 24.2004C15.3646 24.9638 15.3694 25.7281 15.3802 26.4918C15.3843 26.7844 15.289 26.9097 14.9838 26.9083C13.0339 26.8993 11.0839 26.9004 9.13388 26.9074C8.85791 26.9084 8.74711 26.8137 8.75164 26.525C8.76401 25.7355 8.76616 24.9453 8.75068 24.1559C8.7445 23.8425 8.87385 23.7522 9.15982 23.7551C10.1284 23.7645 11.0971 23.7586 12.0657 23.7584Z" fill="#F1F1F1"/>
</g>
</svg>
