<svg viewBox="0 0 38 34" fill="none" xmlns="http://www.w3.org/2000/svg">
<mask id="mask0_3601_3036" style="mask-type:alpha" maskUnits="userSpaceOnUse" x="0" y="0" width="38" height="34">
<path fill-rule="evenodd" clip-rule="evenodd" d="M0 0H38V34H0V0Z" fill="white"/>
</mask>
<g mask="url(#mask0_3601_3036)">
<path fill-rule="evenodd" clip-rule="evenodd" d="M20.9494 30.7676C20.2914 30.7525 19.6332 30.7632 18.9744 30.7632C18.3304 30.7632 17.6864 30.7508 17.0434 30.7685C16.754 30.7756 16.688 30.6675 16.7398 30.4026C16.8991 29.5938 17.0486 28.7841 17.199 27.9736C17.243 27.7361 17.3654 27.6281 17.6204 27.6308C18.5416 27.6414 19.4635 27.6423 20.3855 27.6308C20.6449 27.6281 20.7567 27.7467 20.7999 27.9807C20.9512 28.7904 21.0989 29.5999 21.2591 30.4079C21.3136 30.6826 21.2292 30.7747 20.9494 30.7676ZM3.2159 14.3987C3.2159 11.1865 3.2159 7.97262 3.21757 4.76049C3.21757 4.57003 3.21757 4.37603 3.251 4.18911C3.35129 3.62039 3.59858 3.37048 4.16504 3.27313C4.37969 3.23681 4.60235 3.23761 4.82043 3.23761C14.2749 3.23681 23.7293 3.23681 33.1837 3.23681C33.2708 3.23681 33.3588 3.23592 33.4468 3.23681C34.4066 3.25098 34.7795 3.61498 34.7812 4.58146C34.7865 7.40913 34.784 10.2368 34.784 13.0646V14.3987H34.7848V19.4506C34.7299 19.4482 34.6685 19.4481 34.5989 19.4481H3.50032C3.40144 19.4481 3.30211 19.4535 3.20271 19.4533V14.3987H3.2159ZM37.9994 4.45212C38.0002 4.02168 37.9554 3.59913 37.8375 3.18623C37.2779 1.22227 35.6681 0.00607223 33.5936 0.00341465C28.734 -0.00287497 23.8735 0.00164292 19.013 0.000668477C14.1975 0.000668477 9.38102 -0.000128798 4.56452 0.00164292C1.80218 0.00252879 0.00226529 1.81668 0.00138557 4.60103C-0.000461856 10.7445 -0.000461856 16.8878 0.00138557 23.0314C0.00226529 25.8174 1.80042 27.6317 4.56188 27.6334C7.51952 27.636 10.4762 27.6343 13.433 27.6343C13.9459 27.6343 13.9494 27.6423 13.85 28.1569C13.7127 28.8648 13.5658 29.5707 13.4506 30.2822C13.3934 30.6337 13.2552 30.7808 12.8797 30.7711C11.9437 30.7472 11.0059 30.7472 10.0698 30.7711C9.10302 30.7959 8.43971 31.4719 8.44059 32.3816C8.44138 33.2932 9.1047 33.9496 10.0716 33.9956C10.1446 33.9991 10.2176 33.9983 10.2907 33.9983C16.088 33.9991 21.8846 33.9983 27.6819 34C27.9476 34 28.208 33.9797 28.4631 33.9018C28.961 33.7503 29.2998 33.4225 29.4589 32.9273C29.8214 31.8005 29.1168 30.8048 27.9132 30.7711C26.9623 30.7436 26.0096 30.7525 25.0585 30.7694C24.7437 30.7747 24.6126 30.6489 24.5607 30.3529C24.4278 29.5992 24.2905 28.8462 24.1295 28.0975C24.0478 27.7194 24.1622 27.6246 24.5387 27.6263C27.5544 27.6405 30.57 27.6405 33.5858 27.6325C36.1457 27.6246 37.9931 25.7686 37.9966 23.1916C38.0029 16.9446 37.9985 10.6984 37.9994 4.45212Z" fill="#2AD4D9"/>
</g>
</svg>
