<svg viewBox="0 0 122 99" fill="none" xmlns="http://www.w3.org/2000/svg">
<g opacity="0.0525981">
<path fill-rule="evenodd" clip-rule="evenodd" d="M44.5116 94.5893C45.8705 94.5893 46.9736 93.4869 46.9736 92.1288C46.9736 90.7708 45.8705 89.6702 44.5116 89.6702C43.1528 89.6702 42.0496 90.7708 42.0496 92.1288C42.0496 93.4869 43.1528 94.5893 44.5116 94.5893Z" fill="white"/>
<path fill-rule="evenodd" clip-rule="evenodd" d="M47.9272 81.2944C49.286 81.2944 50.3892 80.1919 50.3892 78.8339C50.3892 77.4759 49.286 76.3752 47.9272 76.3752C46.5683 76.3752 45.4652 77.4759 45.4652 78.8339C45.4652 80.1919 46.5683 81.2944 47.9272 81.2944Z" fill="white"/>
<path fill-rule="evenodd" clip-rule="evenodd" d="M54.5442 69.266C55.9031 69.266 57.0062 68.1635 57.0062 66.8055C57.0062 65.4475 55.9031 64.3468 54.5442 64.3468C53.1854 64.3468 52.0822 65.4475 52.0822 66.8055C52.0822 68.1635 53.1854 69.266 54.5442 69.266Z" fill="white"/>
<path fill-rule="evenodd" clip-rule="evenodd" d="M63.9456 59.2599C65.3063 59.2599 66.4076 58.1574 66.4076 56.7994C66.4076 55.4414 65.3063 54.3407 63.9456 54.3407C62.5868 54.3407 61.4836 55.4414 61.4836 56.7994C61.4836 58.1574 62.5868 59.2599 63.9456 59.2599Z" fill="white"/>
<path fill-rule="evenodd" clip-rule="evenodd" d="M75.5425 51.9051C76.9013 51.9051 78.0045 50.8027 78.0045 49.4446C78.0045 48.0866 76.9013 46.986 75.5425 46.986C74.1837 46.986 73.0805 48.0866 73.0805 49.4446C73.0805 50.8027 74.1837 51.9051 75.5425 51.9051Z" fill="white"/>
<path fill-rule="evenodd" clip-rule="evenodd" d="M88.6055 47.6628C89.9643 47.6628 91.0675 46.5622 91.0675 45.2042C91.0675 43.8443 89.9643 42.7437 88.6055 42.7437C87.2466 42.7437 86.1435 43.8443 86.1435 45.2042C86.1435 46.5622 87.2466 47.6628 88.6055 47.6628Z" fill="white"/>
<path fill-rule="evenodd" clip-rule="evenodd" d="M102.312 46.8009C103.671 46.8009 104.774 45.7002 104.774 44.3422C104.774 42.9824 103.671 41.8817 102.312 41.8817C100.954 41.8817 99.8504 42.9824 99.8504 44.3422C99.8504 45.7002 100.954 46.8009 102.312 46.8009Z" fill="white"/>
<path fill-rule="evenodd" clip-rule="evenodd" d="M115.803 49.4035C117.181 49.4035 118.295 48.29 118.295 46.9138C118.295 45.5375 117.181 44.4222 115.803 44.4222C114.426 44.4222 113.312 45.5375 113.312 46.9138C113.312 48.29 114.426 49.4035 115.803 49.4035Z" fill="white"/>
<path fill-rule="evenodd" clip-rule="evenodd" d="M33.1215 100.845C34.1461 100.845 34.9753 100.014 34.9753 98.9923C34.9753 97.9683 34.1461 97.1396 33.1215 97.1396C32.0969 97.1396 31.2677 97.9683 31.2677 98.9923C31.2677 100.014 32.0969 100.845 33.1215 100.845Z" fill="white"/>
<path fill-rule="evenodd" clip-rule="evenodd" d="M34.5592 87.1829C35.5838 87.1829 36.413 86.3524 36.413 85.3302C36.413 84.3062 35.5838 83.4775 34.5592 83.4775C33.5346 83.4775 32.7036 84.3062 32.7036 85.3302C32.7036 86.3524 33.5346 87.1829 34.5592 87.1829Z" fill="white"/>
<path fill-rule="evenodd" clip-rule="evenodd" d="M38.8058 74.0876C39.8139 74.0876 40.6285 73.2717 40.6285 72.2641C40.6285 71.2584 39.8139 70.4425 38.8058 70.4425C37.7994 70.4425 36.983 71.2584 36.983 72.2641C36.983 73.2717 37.7994 74.0876 38.8058 74.0876Z" fill="white"/>
<path fill-rule="evenodd" clip-rule="evenodd" d="M45.678 62.1904C46.6861 62.1904 47.5025 61.3745 47.5025 60.3688C47.5025 59.363 46.6861 58.5453 45.678 58.5453C44.6716 58.5453 43.8552 59.363 43.8552 60.3688C43.8552 61.3745 44.6716 62.1904 45.678 62.1904Z" fill="white"/>
<path fill-rule="evenodd" clip-rule="evenodd" d="M54.8761 51.9819C55.8842 51.9819 56.6988 51.166 56.6988 50.1603C56.6988 49.1527 55.8842 48.3368 54.8761 48.3368C53.8697 48.3368 53.0533 49.1527 53.0533 50.1603C53.0533 51.166 53.8697 51.9819 54.8761 51.9819Z" fill="white"/>
<path fill-rule="evenodd" clip-rule="evenodd" d="M65.9967 43.9071C67.0048 43.9071 67.8194 43.0912 67.8194 42.0854C67.8194 41.0797 67.0048 40.262 65.9967 40.262C64.9903 40.262 64.1739 41.0797 64.1739 42.0854C64.1739 43.0912 64.9903 43.9071 65.9967 43.9071Z" fill="white"/>
<path fill-rule="evenodd" clip-rule="evenodd" d="M78.5531 38.3197C79.5613 38.3197 80.3777 37.5038 80.3777 36.498C80.3777 35.4923 79.5613 34.6746 78.5531 34.6746C77.5468 34.6746 76.7304 35.4923 76.7304 36.498C76.7304 37.5038 77.5468 38.3197 78.5531 38.3197Z" fill="white"/>
<path fill-rule="evenodd" clip-rule="evenodd" d="M91.9996 35.4945C93.0243 35.4945 93.8534 34.664 93.8534 33.6419C93.8534 32.6179 93.0243 31.7892 91.9996 31.7892C90.975 31.7892 90.144 32.6179 90.144 33.6419C90.144 34.664 90.975 35.4945 91.9996 35.4945Z" fill="white"/>
<path fill-rule="evenodd" clip-rule="evenodd" d="M105.744 35.4945C106.769 35.4945 107.6 34.664 107.6 33.6419C107.6 32.6179 106.769 31.7892 105.744 31.7892C104.719 31.7892 103.89 32.6179 103.89 33.6419C103.89 34.664 104.719 35.4945 105.744 35.4945Z" fill="white"/>
<path fill-rule="evenodd" clip-rule="evenodd" d="M119.191 38.35C120.215 38.35 121.044 37.5213 121.044 36.4973C121.044 35.4752 120.215 34.6447 119.191 34.6447C118.166 34.6447 117.335 35.4752 117.335 36.4973C117.335 37.5213 118.166 38.35 119.191 38.35Z" fill="white"/>
<path fill-rule="evenodd" clip-rule="evenodd" d="M22.4717 93.3352C23.1439 93.3352 23.6881 92.7913 23.6881 92.1196C23.6881 91.4497 23.1439 90.9058 22.4717 90.9058C21.8014 90.9058 21.2572 91.4497 21.2572 92.1196C21.2572 92.7913 21.8014 93.3352 22.4717 93.3352Z" fill="white"/>
<path fill-rule="evenodd" clip-rule="evenodd" d="M24.9277 79.8123C25.598 79.8123 26.1423 79.2683 26.1423 78.5966C26.1423 77.9268 25.598 77.3828 24.9277 77.3828C24.2574 77.3828 23.7113 77.9268 23.7113 78.5966C23.7113 79.2683 24.2574 79.8123 24.9277 79.8123Z" fill="white"/>
<path fill-rule="evenodd" clip-rule="evenodd" d="M29.7594 66.9441C30.4316 66.9441 30.9758 66.4002 30.9758 65.7285C30.9758 65.0586 30.4316 64.5146 29.7594 64.5146C29.0891 64.5146 28.5449 65.0586 28.5449 65.7285C28.5449 66.4002 29.0891 66.9441 29.7594 66.9441Z" fill="white"/>
<path fill-rule="evenodd" clip-rule="evenodd" d="M36.8135 55.1458C37.4838 55.1458 38.0281 54.6018 38.0281 53.9301C38.0281 53.2602 37.4838 52.7163 36.8135 52.7163C36.1414 52.7163 35.5972 53.2602 35.5972 53.9301C35.5972 54.6018 36.1414 55.1458 36.8135 55.1458Z" fill="white"/>
<path fill-rule="evenodd" clip-rule="evenodd" d="M45.8617 44.7957C46.532 44.7957 47.0763 44.2517 47.0763 43.58C47.0763 42.9101 46.532 42.3662 45.8617 42.3662C45.1896 42.3662 44.6453 42.9101 44.6453 43.58C44.6453 44.2517 45.1896 44.7957 45.8617 44.7957Z" fill="white"/>
<path fill-rule="evenodd" clip-rule="evenodd" d="M56.6132 36.227C57.2834 36.227 57.8295 35.683 57.8295 35.0113C57.8295 34.3414 57.2834 33.7975 56.6132 33.7975C55.9429 33.7975 55.3986 34.3414 55.3986 35.0113C55.3986 35.683 55.9429 36.227 56.6132 36.227Z" fill="white"/>
<path fill-rule="evenodd" clip-rule="evenodd" d="M68.7238 29.7138C69.3941 29.7138 69.9384 29.1698 69.9384 28.4981C69.9384 27.8282 69.3941 27.2843 68.7238 27.2843C68.0517 27.2843 67.5074 27.8282 67.5074 28.4981C67.5074 29.1698 68.0517 29.7138 68.7238 29.7138Z" fill="white"/>
<path fill-rule="evenodd" clip-rule="evenodd" d="M81.8029 25.4669C82.4731 25.4669 83.0174 24.923 83.0174 24.2513C83.0174 23.5814 82.4731 23.0375 81.8029 23.0375C81.1326 23.0375 80.5865 23.5814 80.5865 24.2513C80.5865 24.923 81.1326 25.4669 81.8029 25.4669Z" fill="white"/>
<path fill-rule="evenodd" clip-rule="evenodd" d="M95.4314 23.6221C96.1017 23.6221 96.646 23.0782 96.646 22.4064C96.646 21.7366 96.1017 21.1926 95.4314 21.1926C94.7593 21.1926 94.2151 21.7366 94.2151 22.4064C94.2151 23.0782 94.7593 23.6221 95.4314 23.6221Z" fill="white"/>
<path fill-rule="evenodd" clip-rule="evenodd" d="M109.169 24.2388C109.839 24.2388 110.385 23.6949 110.385 23.0231C110.385 22.3533 109.839 21.8093 109.169 21.8093C108.498 21.8093 107.954 22.3533 107.954 23.0231C107.954 23.6949 108.498 24.2388 109.169 24.2388Z" fill="white"/>
<path fill-rule="evenodd" clip-rule="evenodd" d="M122.576 27.2968C123.248 27.2968 123.792 26.7528 123.792 26.0811C123.792 25.4112 123.248 24.8673 122.576 24.8673C121.906 24.8673 121.361 25.4112 121.361 26.0811C121.361 26.7528 121.906 27.2968 122.576 27.2968Z" fill="white"/>
<path fill-rule="evenodd" clip-rule="evenodd" d="M11.2047 99.5999C11.5407 99.5999 11.8129 99.328 11.8129 98.9921C11.8129 98.6563 11.5407 98.3843 11.2047 98.3843C10.8686 98.3843 10.5965 98.6563 10.5965 98.9921C10.5965 99.328 10.8686 99.5999 11.2047 99.5999Z" fill="white"/>
<path fill-rule="evenodd" clip-rule="evenodd" d="M12.2839 85.8943C12.62 85.8943 12.8921 85.6223 12.8921 85.2864C12.8921 84.9506 12.62 84.6786 12.2839 84.6786C11.9478 84.6786 11.6757 84.9506 11.6757 85.2864C11.6757 85.6223 11.9478 85.8943 12.2839 85.8943Z" fill="white"/>
<path fill-rule="evenodd" clip-rule="evenodd" d="M15.4962 72.4951C15.8158 72.4951 16.0715 72.2359 16.0715 71.9183C16.0715 71.5988 15.8158 71.3415 15.4962 71.3415C15.1766 71.3415 14.919 71.5988 14.919 71.9183C14.919 72.2359 15.1766 72.4951 15.4962 72.4951Z" fill="white"/>
<path fill-rule="evenodd" clip-rule="evenodd" d="M20.7595 59.7938C21.0791 59.7938 21.3366 59.5346 21.3366 59.217C21.3366 58.8975 21.0791 58.6402 20.7595 58.6402C20.4417 58.6402 20.1842 58.8975 20.1842 59.217C20.1842 59.5346 20.4417 59.7938 20.7595 59.7938Z" fill="white"/>
<path fill-rule="evenodd" clip-rule="evenodd" d="M27.9473 48.071C28.2669 48.071 28.5244 47.8118 28.5244 47.4942C28.5244 47.1748 28.2669 46.9174 27.9473 46.9174C27.6277 46.9174 27.372 47.1748 27.372 47.4942C27.372 47.8118 27.6277 48.071 27.9473 48.071Z" fill="white"/>
<path fill-rule="evenodd" clip-rule="evenodd" d="M36.8813 37.6166C37.2009 37.6166 37.4584 37.3574 37.4584 37.0398C37.4584 36.7204 37.2009 36.4631 36.8813 36.4631C36.5635 36.4631 36.306 36.7204 36.306 37.0398C36.306 37.3574 36.5635 37.6166 36.8813 37.6166Z" fill="white"/>
<path fill-rule="evenodd" clip-rule="evenodd" d="M47.3422 28.6879C47.6618 28.6879 47.9193 28.4287 47.9193 28.1111C47.9193 27.7917 47.6618 27.5343 47.3422 27.5343C47.0226 27.5343 46.7669 27.7917 46.7669 28.1111C46.7669 28.4287 47.0226 28.6879 47.3422 28.6879Z" fill="white"/>
<path fill-rule="evenodd" clip-rule="evenodd" d="M59.0728 21.5043C59.3906 21.5043 59.6481 21.2451 59.6481 20.9275C59.6481 20.6081 59.3906 20.3507 59.0728 20.3507C58.7532 20.3507 58.4956 20.6081 58.4956 20.9275C58.4956 21.2451 58.7532 21.5043 59.0728 21.5043Z" fill="white"/>
<path fill-rule="evenodd" clip-rule="evenodd" d="M71.7809 16.2433C72.1005 16.2433 72.358 15.9842 72.358 15.6666C72.358 15.3471 72.1005 15.0898 71.7809 15.0898C71.4612 15.0898 71.2055 15.3471 71.2055 15.6666C71.2055 15.9842 71.4612 16.2433 71.7809 16.2433Z" fill="white"/>
<path fill-rule="evenodd" clip-rule="evenodd" d="M85.158 13.0642C85.494 13.0642 85.7661 12.7922 85.7661 12.4563C85.7661 12.1205 85.494 11.8485 85.158 11.8485C84.8219 11.8485 84.5498 12.1205 84.5498 12.4563C84.5498 12.7922 84.8219 13.0642 85.158 13.0642Z" fill="white"/>
<path fill-rule="evenodd" clip-rule="evenodd" d="M98.8718 11.9858C99.2079 11.9858 99.48 11.7138 99.48 11.378C99.48 11.0421 99.2079 10.7702 98.8718 10.7702C98.5358 10.7702 98.2636 11.0421 98.2636 11.378C98.2636 11.7138 98.5358 11.9858 98.8718 11.9858Z" fill="white"/>
<path fill-rule="evenodd" clip-rule="evenodd" d="M112.586 13.0642C112.922 13.0642 113.194 12.7922 113.194 12.4563C113.194 12.1205 112.922 11.8485 112.586 11.8485C112.25 11.8485 111.978 12.1205 111.978 12.4563C111.978 12.7922 112.25 13.0642 112.586 13.0642Z" fill="white"/>
<mask id="mask0_3301_251" style="mask-type:alpha" maskUnits="userSpaceOnUse" x="0" y="91" width="2" height="3">
<path fill-rule="evenodd" clip-rule="evenodd" d="M0.426008 91.2047H1.40039V93.03H0.426008V91.2047Z" fill="white"/>
</mask>
<g mask="url(#mask0_3301_251)">
<path fill-rule="evenodd" clip-rule="evenodd" d="M0.487191 92.1776C0.521893 92.1776 0.547462 92.1502 0.547462 92.1174C0.547462 92.0827 0.521893 92.0571 0.487191 92.0571C0.45249 92.0571 0.42692 92.0827 0.42692 92.1174C0.42692 92.1502 0.45249 92.1776 0.487191 92.1776Z" fill="white"/>
</g>
<path fill-rule="evenodd" clip-rule="evenodd" d="M2.40089 78.56C2.43559 78.56 2.46116 78.5327 2.46116 78.4998C2.46116 78.4651 2.43559 78.4396 2.40089 78.4396C2.36802 78.4396 2.34062 78.4651 2.34062 78.4998C2.34062 78.5327 2.36802 78.56 2.40089 78.56Z" fill="white"/>
<path fill-rule="evenodd" clip-rule="evenodd" d="M6.19469 65.3417C6.22939 65.3417 6.25496 65.3143 6.25496 65.2815C6.25496 65.2468 6.22939 65.2194 6.19469 65.2194C6.15999 65.2194 6.13442 65.2468 6.13442 65.2815C6.13442 65.3143 6.15999 65.3417 6.19469 65.3417Z" fill="white"/>
<path fill-rule="evenodd" clip-rule="evenodd" d="M11.7915 52.7795C11.8244 52.7795 11.8518 52.7521 11.8518 52.7174C11.8518 52.6845 11.8244 52.6572 11.7915 52.6572C11.7568 52.6572 11.7294 52.6845 11.7294 52.7174C11.7294 52.7521 11.7568 52.7795 11.7915 52.7795Z" fill="white"/>
<path fill-rule="evenodd" clip-rule="evenodd" d="M19.0829 41.1173C19.1176 41.1173 19.1431 41.0899 19.1431 41.0571C19.1431 41.0224 19.1176 40.9968 19.0829 40.9968C19.0482 40.9968 19.0226 41.0224 19.0226 41.0571C19.0226 41.0899 19.0482 41.1173 19.0829 41.1173Z" fill="white"/>
<path fill-rule="evenodd" clip-rule="evenodd" d="M27.9259 30.5836C27.9606 30.5836 27.9862 30.5562 27.9862 30.5234C27.9862 30.4887 27.9606 30.4631 27.9259 30.4631C27.893 30.4631 27.8656 30.4887 27.8656 30.5234C27.8656 30.5562 27.893 30.5836 27.9259 30.5836Z" fill="white"/>
<path fill-rule="evenodd" clip-rule="evenodd" d="M38.1512 21.3822C38.1859 21.3822 38.2133 21.3549 38.2133 21.322C38.2133 21.2873 38.1859 21.2599 38.1512 21.2599C38.1183 21.2599 38.0909 21.2873 38.0909 21.322C38.0909 21.3549 38.1183 21.3822 38.1512 21.3822Z" fill="white"/>
<path fill-rule="evenodd" clip-rule="evenodd" d="M49.5591 13.6925C49.5938 13.6925 49.6193 13.6651 49.6193 13.6323C49.6193 13.5976 49.5938 13.572 49.5591 13.572C49.5244 13.572 49.4988 13.5976 49.4988 13.6323C49.4988 13.6651 49.5244 13.6925 49.5591 13.6925Z" fill="white"/>
<path fill-rule="evenodd" clip-rule="evenodd" d="M61.9265 7.66404C61.9612 7.66404 61.9868 7.63667 61.9868 7.60381C61.9868 7.57095 61.9612 7.54357 61.9265 7.54357C61.8918 7.54357 61.8662 7.57095 61.8662 7.60381C61.8662 7.63667 61.8918 7.66404 61.9265 7.66404Z" fill="white"/>
<path fill-rule="evenodd" clip-rule="evenodd" d="M75.0129 3.41453C75.0476 3.41453 75.0731 3.38715 75.0731 3.3543C75.0731 3.32144 75.0476 3.29406 75.0129 3.29406C74.9782 3.29406 74.9526 3.32144 74.9526 3.3543C74.9526 3.38715 74.9782 3.41453 75.0129 3.41453Z" fill="white"/>
<mask id="mask1_3301_251" style="mask-type:alpha" maskUnits="userSpaceOnUse" x="87" y="0" width="3" height="2">
<path fill-rule="evenodd" clip-rule="evenodd" d="M87.6495 0.426414H89.4759V1.87935H87.6495V0.426414Z" fill="white"/>
</mask>
<g mask="url(#mask1_3301_251)">
<path fill-rule="evenodd" clip-rule="evenodd" d="M88.5627 1.02696C88.5974 1.02696 88.623 0.99958 88.623 0.966725C88.623 0.932044 88.5974 0.90649 88.5627 0.90649C88.528 0.90649 88.5024 0.932044 88.5024 0.966725C88.5024 0.99958 88.528 1.02696 88.5627 1.02696Z" fill="white"/>
</g>
<mask id="mask2_3301_251" style="mask-type:alpha" maskUnits="userSpaceOnUse" x="101" y="0" width="3" height="2">
<path fill-rule="evenodd" clip-rule="evenodd" d="M101.401 0.426389H103.227V1.39891H101.401V0.426389Z" fill="white"/>
</mask>
<g mask="url(#mask2_3301_251)">
<path fill-rule="evenodd" clip-rule="evenodd" d="M102.314 0.547403C102.349 0.547403 102.375 0.520024 102.375 0.487169C102.375 0.452488 102.349 0.425109 102.314 0.425109C102.28 0.425109 102.254 0.452488 102.254 0.487169C102.254 0.520024 102.28 0.547403 102.314 0.547403Z" fill="white"/>
</g>
<path fill-rule="evenodd" clip-rule="evenodd" d="M115.998 1.98411C116.033 1.98411 116.058 1.95673 116.058 1.92388C116.058 1.89102 116.033 1.86364 115.998 1.86364C115.963 1.86364 115.938 1.89102 115.938 1.92388C115.938 1.95673 115.963 1.98411 115.998 1.98411Z" fill="white"/>
</g>
</svg>
