<svg width="360" height="293" viewBox="0 0 360 293" fill="none" xmlns="http://www.w3.org/2000/svg">
<g opacity="0.05">
<mask id="mask0_3920_296" style="mask-type:alpha" maskUnits="userSpaceOnUse" x="-90" y="0" width="450" height="414">
<path fill-rule="evenodd" clip-rule="evenodd" d="M47.3188 0.0966797L359.401 195.107L222.681 413.903L-89.4003 218.893L47.3188 0.0966797Z" fill="white"/>
</mask>
<g mask="url(#mask0_3920_296)">
<path fill-rule="evenodd" clip-rule="evenodd" d="M236.981 337.682C237.19 337.303 238.041 336.013 238.648 334.616C252.287 303.269 265.724 271.833 279.579 240.582C288.865 219.64 285.891 201.386 269.907 186.012C256.285 172.91 242.145 160.427 227.168 148.857C206.41 132.822 184.53 118.581 161.449 106.143C139.944 94.5544 117.633 84.8137 94.6862 76.4699C74.5559 69.1511 56.6791 73.8627 42.9642 90.036C24.4019 111.926 5.6038 133.619 -12.8825 155.573C-18.9308 162.756 -25.8163 169.298 -30.0682 177.944C-39.6275 197.38 -33.9027 220.186 -14.9405 231.929C-0.451653 240.901 14.7106 240.276 29.4183 231.793C35.2764 228.413 40.913 224.649 46.6155 221.006C54.8873 215.72 62.8873 215.739 71.3327 221.095C97.2309 237.517 123.189 253.852 149.376 269.806C158.736 275.508 162.612 282.793 160.999 293.698C159.696 302.509 158.468 311.414 159.027 320.399C159.921 334.767 166.756 345.998 178.901 353.068C199.711 365.181 223.24 358.879 236.981 337.682M205.621 99.0151C228.542 113.627 253.146 130.288 275.114 150.566C287.525 162.021 298.112 174.862 306.154 189.71C316.456 208.73 316.04 227.865 307.3 247.473C295.877 273.105 285.128 299.039 273.985 324.797C270.038 333.921 266.714 343.364 261.451 351.858C252.082 366.978 239.421 378.084 222.296 383.877C198.801 391.826 177.425 387.256 157.77 373.097C145.387 364.177 137.91 351.762 133.749 337.173C130.05 324.203 130.656 311.121 132.464 298.034C133.023 293.989 131.729 291.859 128.327 289.767C106.776 276.514 85.3198 263.105 63.9589 249.547C60.5955 247.413 58.1225 247.156 54.723 249.449C43.7628 256.842 32.1611 262.813 18.9807 265.5C-14.6692 272.359 -50.8403 249.974 -59.9803 216.978C-67.5106 189.792 -60.0634 166.589 -42.4159 145.909C-19.9731 119.612 2.5946 93.4183 25.3426 67.3857C38.5747 52.2444 55.1062 44.1686 75.7022 45.3902C96.7854 46.641 116.632 52.4711 135.819 60.9449C159.352 71.3376 181.598 84.098 205.621 99.0151" fill="white"/>
</g>
<path fill-rule="evenodd" clip-rule="evenodd" d="M57.0997 165.479C62.5747 156.61 62.5735 156.612 53.7131 151.071C51.5468 149.716 49.3288 148.433 47.2412 146.965C40.5428 142.255 38.7254 134.312 42.7678 127.752C46.7891 121.225 54.8225 119.251 61.9569 123.233C65.8569 125.41 69.7292 127.704 73.3244 130.339C76.5846 132.729 78.3407 131.976 80.1291 128.643C82.1774 124.826 84.6165 121.213 86.9994 117.585C91.1377 111.282 98.8691 109.024 105.056 112.214C112.344 115.973 114.86 122.914 111.807 130.686C109.825 135.73 106.543 140.014 103.714 144.553C102.157 147.052 102.336 148.578 104.982 150.084C108.866 152.294 112.637 154.71 116.362 157.183C123.867 162.169 125.679 169.597 121.227 176.672C116.832 183.656 109.083 185.342 101.472 180.876C97.947 178.808 94.5262 176.563 91.0526 174.408C86.8008 171.769 86.8497 171.807 84.021 176.135C81.4415 180.082 79.3588 184.356 76.1745 187.907C70.4363 194.306 63.3721 195.484 57.0686 191.041C50.7665 186.599 49.2153 179.456 53.0692 171.99C54.2368 169.729 55.7467 167.644 57.0997 165.479Z" fill="white"/>
<path fill-rule="evenodd" clip-rule="evenodd" d="M219.405 227.466C210.503 221.896 208.277 211.29 214.077 202.07C219.83 192.922 230.385 190.401 239.313 196.041C248.418 201.793 250.617 212.071 244.735 221.405C239.093 230.361 228.2 232.968 219.405 227.466Z" fill="white"/>
<path fill-rule="evenodd" clip-rule="evenodd" d="M159.056 254.823C150.112 249.28 147.808 238.676 153.549 229.477C159.295 220.27 169.814 217.67 178.73 223.253C187.9 228.994 190.139 239.049 184.367 248.559C178.941 257.496 167.813 260.25 159.056 254.823Z" fill="white"/>
</g>
</svg>
