<svg viewBox="0 0 40 40" fill="none" xmlns="http://www.w3.org/2000/svg">
<mask id="mask0_3601_3808" style="mask-type:alpha" maskUnits="userSpaceOnUse" x="0" y="0" width="40" height="21">
<path fill-rule="evenodd" clip-rule="evenodd" d="M0.0377197 0H39.993V20.0254H0.0377197V0Z" fill="white"/>
</mask>
<g mask="url(#mask0_3601_3808)">
<path fill-rule="evenodd" clip-rule="evenodd" d="M19.9977 16.1918C20.3205 16.1602 20.6117 16.0544 20.8994 15.931C25.3043 14.0405 29.7101 12.1525 34.1136 10.2589C34.2449 10.2024 34.4631 10.1894 34.4479 9.99091C34.4364 9.84195 34.2479 9.81755 34.1252 9.76481C29.705 7.86665 25.2812 5.97662 20.8653 4.06856C20.2641 3.80868 19.7247 3.82265 19.1252 4.08211C14.7261 5.98569 10.3179 7.86779 5.91453 9.76137C5.78305 9.81787 5.56507 9.83017 5.57943 10.0285C5.59026 10.1777 5.77879 10.2027 5.90131 10.2554C10.3377 12.1601 14.7753 14.062 19.2124 15.9651C19.4679 16.0745 19.7259 16.172 19.9977 16.1918ZM19.9279 20.0249C19.1845 20.0375 18.4201 19.8205 17.6841 19.504C12.469 17.2611 7.26324 14.9966 2.04047 12.7718C-0.211721 11.8126 -0.343094 9.62585 0.561321 8.34888C0.926711 7.83308 1.44346 7.51795 2.00133 7.27684C7.24378 5.00997 12.4906 2.75332 17.7354 0.491771C19.248 -0.160582 20.7614 -0.165064 22.2722 0.484995C27.5345 2.74936 32.794 5.0205 38.057 7.28341C40.2601 8.23056 40.3664 10.4142 39.4504 11.6922C39.0834 12.2042 38.5605 12.5123 38.0017 12.7538C32.7747 15.0127 27.5459 17.2674 22.3137 19.5144C21.5786 19.8301 20.8094 20.0358 19.9279 20.0249Z" fill="#2AD4D9"/>
</g>
<g opacity="0.6">
<mask id="mask1_3601_3808" style="mask-type:alpha" maskUnits="userSpaceOnUse" x="0" y="16" width="40" height="15">
<path fill-rule="evenodd" clip-rule="evenodd" d="M0.00164795 16.5825H40V30.0131H0.00164795V16.5825Z" fill="white"/>
</mask>
<g mask="url(#mask1_3601_3808)">
<path fill-rule="evenodd" clip-rule="evenodd" d="M19.8306 30.0126C19.2113 30.0242 18.4756 29.8271 17.7716 29.5261C12.5194 27.2805 7.26812 25.0324 2.02275 22.7708C0.324475 22.0386 -0.434722 20.3663 0.255562 18.7672C0.739728 17.6451 1.6684 16.9379 2.84951 16.6379C3.61027 16.4447 4.26651 16.7732 4.72653 17.3653C5.19175 17.964 5.2057 18.677 4.82511 19.3218C4.59828 19.706 4.71924 19.8022 5.05246 19.9435C9.78586 21.9493 14.5165 23.9619 19.2444 25.9807C19.7545 26.1985 20.2365 26.2039 20.7461 25.9836C25.401 23.9704 30.0581 21.9624 34.7178 19.9601C35.0389 19.8221 35.1515 19.6787 35.0486 19.298C34.649 17.8198 35.8424 16.5969 37.32 16.9621C38.5093 17.2562 39.45 17.8837 39.848 19.1126C40.3348 20.6157 39.6315 22.0349 38.0429 22.7234C34.2632 24.3619 30.4761 25.9835 26.6926 27.6131C25.2776 28.2226 23.8657 28.8387 22.4496 29.445C21.6643 29.7812 20.8537 30.0184 19.8306 30.0126Z" fill="#2AD4D9"/>
</g>
</g>
<g opacity="0.3">
<mask id="mask2_3601_3808" style="mask-type:alpha" maskUnits="userSpaceOnUse" x="0" y="26" width="40" height="14">
<path fill-rule="evenodd" clip-rule="evenodd" d="M0 26.5706H39.9993V40H0V26.5706Z" fill="white"/>
</mask>
<g mask="url(#mask2_3601_3808)">
<path fill-rule="evenodd" clip-rule="evenodd" d="M20.0141 39.9992C19.2183 40.014 18.4673 39.8104 17.7468 39.5022C12.5107 37.2628 7.27544 35.0213 2.04538 32.7678C0.322537 32.0255 -0.447591 30.3324 0.264345 28.7283C0.759234 27.6133 1.69144 26.908 2.8762 26.6211C3.63748 26.4367 4.28914 26.7728 4.7426 27.3732C5.18669 27.9613 5.20313 28.6602 4.83681 29.2862C4.60123 29.6889 4.72719 29.793 5.07697 29.9413C9.79465 31.9399 14.5095 33.9451 19.2211 35.9583C19.7686 36.1922 20.2755 36.1764 20.8194 35.9406C25.441 33.9378 30.0669 31.9447 34.695 29.9569C35.0352 29.8108 35.1532 29.663 35.0428 29.2579C34.6503 27.8165 35.8486 26.5921 37.2954 26.944C38.5253 27.2429 39.4913 27.8885 39.8708 29.1743C40.3122 30.6698 39.5972 32.0377 38.0185 32.7213C34.7623 34.1314 31.5017 35.5311 28.2428 36.9351C26.3194 37.764 24.3963 38.5935 22.4726 39.4216C21.6873 39.7597 20.8773 39.9949 20.0141 39.9992Z" fill="#2AD4D9"/>
</g>
</g>
</svg>
