<svg viewBox="0 0 448 287" fill="none" xmlns="http://www.w3.org/2000/svg">
<circle opacity="0.2" cx="183" cy="147" r="92" stroke="white"/>
<circle opacity="0.1" cx="183" cy="147" r="150" stroke="white"/>
<circle opacity="0.05" cx="183.5" cy="147.5" r="200" stroke="white"/>
<circle opacity="0.02" cx="183.5" cy="147.5" r="264" stroke="white" stroke-linecap="round" stroke-linejoin="round"/>
<rect x="143" y="107" width="80" height="80" rx="20" fill="#F0BB10"/>
<path fill-rule="evenodd" clip-rule="evenodd" d="M198.228 126.147L182.919 117L167.745 126.147L173.309 129.595L183.081 123.728L192.663 129.595L198.228 126.147ZM163.565 128.538L169.292 131.986L163.565 135.434V142.162L158 138.715V131.986L163.565 128.538ZM198.228 137.853L192.501 134.405L182.919 140.244L173.337 134.377L167.609 137.825V144.553L177.544 150.42V162.153L183.081 165.601L188.646 162.153V150.448L198.228 144.581V137.853ZM163.565 147L158 143.552V161.986L173.147 171.133V164.405L163.565 158.538V147ZM188.646 173.552V166.824L182.919 170.272L177.354 166.824V173.552L182.919 177L188.646 173.552ZM207.837 143.552V162.014L192.528 171.161V164.433L202.11 158.566V147.028L207.837 143.552ZM167.609 149.391L173.174 152.839V159.567L167.609 156.12V149.391ZM198.228 156.12V149.391L192.663 152.839V159.567L198.228 156.12ZM208 131.986L202.273 128.538L196.708 131.986L202.273 135.434V142.162L208 138.715V131.986ZM182.919 128.538L188.646 131.986L182.919 135.434L177.354 131.986L182.919 128.538Z" fill="white"/>
</svg>
