<svg viewBox="0 0 259 267" fill="none" xmlns="http://www.w3.org/2000/svg">
<rect x="189" width="50" height="50" rx="12.5" fill="white" fill-opacity="0.02"/>
<rect x="190.5" y="1.5" width="47" height="47" rx="11" stroke="white" stroke-opacity="0.1" stroke-width="3"/>
<path opacity="0.1" fill-rule="evenodd" clip-rule="evenodd" d="M192.507 125.548C192.555 126.967 192.196 128.563 191.706 130.143C174.944 184.186 158.181 238.229 141.427 292.274C136.379 308.557 131.362 324.85 126.312 341.133C125.318 344.338 123.763 347.208 120.853 349.091C116.772 351.729 111.97 351.615 108.167 348.863C103.85 345.738 102.395 341.418 104.084 335.744C106.78 326.689 109.639 317.684 112.435 308.66C131.493 247.153 150.549 185.645 169.613 124.139C170.837 120.187 172.787 116.792 176.798 115.018C184.421 111.647 192.651 117.026 192.507 125.548Z" fill="white"/>
<path opacity="0.1" fill-rule="evenodd" clip-rule="evenodd" d="M81.6439 289.531C81.5952 296.142 73.1055 301.619 65.8885 298.277C64.3295 297.555 62.8007 296.576 61.5502 295.403C42.6138 277.635 23.7243 259.816 4.83235 242.001C3.56392 240.806 2.30104 239.59 1.48051 238.01C-1.13778 232.961 -0.287022 228.147 4.06302 224.055C23.277 205.984 42.4996 187.922 61.7439 169.883C68.8479 163.223 78.6647 165.274 81.209 173.908C82.383 177.892 81.4638 181.47 78.7042 184.488C73.5719 190.102 67.7294 194.981 62.1967 200.18C51.5014 210.228 40.7377 220.203 29.9443 230.146C28.3711 231.594 28.2853 232.542 29.8863 234.061C45.3721 248.756 60.7987 263.514 76.2358 278.261C79.091 280.988 81.7593 283.833 81.6439 289.531Z" fill="white"/>
<mask id="mask0_0_1" style="mask-type:alpha" maskUnits="userSpaceOnUse" x="214" y="165" width="82" height="135">
<path fill-rule="evenodd" clip-rule="evenodd" d="M214.407 165.798H296V299.28H214.407V165.798Z" fill="white"/>
</mask>
<g mask="url(#mask0_0_1)">
<path opacity="0.1" fill-rule="evenodd" clip-rule="evenodd" d="M295.991 232.103C295.975 236.251 294.135 239.223 291.422 241.788C282.246 250.457 273.097 259.157 263.907 267.812C254.793 276.395 245.642 284.938 236.507 293.499C235.684 294.271 234.907 295.098 234.047 295.826C228.435 300.579 222.279 300.415 217.599 295.41C213.026 290.522 213.356 284.546 218.654 279.318C223.329 274.704 228.138 270.226 232.893 265.693C243.887 255.212 254.849 244.697 265.914 234.291C267.734 232.579 267.64 231.57 265.867 229.93C250.343 215.578 234.886 201.155 219.42 186.741C217.385 184.844 215.536 182.858 214.847 179.969C213.745 175.345 215.322 171.042 219.546 167.866C223.092 165.201 227.277 165.097 231.332 167.638C235.108 170.006 238.012 173.401 241.229 176.395C258.133 192.125 274.914 207.988 291.69 223.854C294.1 226.133 296.156 228.732 295.991 232.103Z" fill="white"/>
</g>
<path opacity="0.1" fill-rule="evenodd" clip-rule="evenodd" d="M217.824 26.8192L223.783 23.3789C224.769 22.8095 224.764 21.3939 223.774 20.851L205.662 10.9214C204.37 10.2132 202.944 11.6554 203.679 12.9274L210.176 24.1811L204.217 27.6215C203.231 28.1908 203.236 29.6064 204.227 30.1493L222.338 40.0789C223.63 40.7871 225.056 39.3449 224.322 38.073L217.824 26.8192Z" fill="white"/>
</svg>
