<svg viewBox="0 0 35 35" fill="none" xmlns="http://www.w3.org/2000/svg">
<rect x="0.75" y="0.75" width="33.5" height="33.5" rx="5.85377" fill="" fill-opacity="0.15" stroke="#F1F1F1" stroke-width="1.5"/>
<mask id="mask0_3407_601" style="mask-type:alpha" maskUnits="userSpaceOnUse" x="0" y="0" width="35" height="35">
<rect x="0.75" y="0.75" width="33.5" height="33.5" rx="5.85377" fill="white" stroke="white" stroke-width="1.5"/>
</mask>
<g mask="url(#mask0_3407_601)">
<mask id="mask1_3407_601" style="mask-type:alpha" maskUnits="userSpaceOnUse" x="10" y="7" width="27" height="30">
<path fill-rule="evenodd" clip-rule="evenodd" d="M10.5 7H36.1667V36.1667H10.5V7Z" fill="white"/>
</mask>
<g mask="url(#mask1_3407_601)">
<path fill-rule="evenodd" clip-rule="evenodd" d="M23.3346 17.9306V17.9319C25.0746 17.9319 26.8145 17.9319 28.5538 17.9313C28.81 17.9313 28.8146 17.926 28.8146 17.6603C28.8146 16.8456 28.814 16.0309 28.8133 15.2149C28.8127 13.487 28.1167 12.0714 26.7874 10.9858C25.5071 9.93885 24.0174 9.57216 22.3804 9.84963C21.0928 10.0674 20.0264 10.6834 19.1752 11.6687C18.3095 12.671 17.8698 13.8334 17.8559 15.1525C17.848 15.9804 17.8552 16.8089 17.8559 17.6367C17.8565 17.9299 17.8565 17.9306 18.1544 17.9306H23.3346ZM23.3379 33.3985V33.4011H33.1233C33.4138 33.4011 33.4151 33.4005 33.4151 33.1204C33.4151 29.071 33.4145 25.0217 33.4138 20.9724C33.4138 20.6988 33.4125 20.6975 33.1378 20.6975C31.7287 20.6969 30.3189 20.6969 28.9091 20.6969L13.5261 20.6949C13.2594 20.6949 13.2541 20.6995 13.2541 20.9547C13.2547 25.0178 13.2547 29.0796 13.2554 33.142C13.2561 33.3906 13.2633 33.3985 13.5123 33.3985H23.3379ZM23.3485 36.1635C19.9993 36.1635 16.6508 36.1621 13.3023 36.1648C12.5977 36.1654 11.9664 35.9601 11.4408 35.4983C10.8617 34.9906 10.5078 34.349 10.5065 33.5671C10.4999 29.2213 10.4939 24.8754 10.5124 20.5296C10.517 19.5115 11.0638 18.7729 11.94 18.2691C12.3514 18.0323 12.7978 17.9319 13.2706 17.9319C13.7797 17.9319 14.2895 17.9313 14.7986 17.9299C15.07 17.9299 15.0706 17.9293 15.0713 17.6518C15.072 16.8299 15.066 16.0079 15.0746 15.186C15.099 12.974 15.8848 11.0698 17.4386 9.4836C18.8114 8.08309 20.4813 7.2723 22.4339 7.05386C23.9467 6.88528 25.406 7.107 26.7808 7.77019C29.4981 9.08149 31.0492 11.2495 31.5246 14.1994C31.627 14.8272 31.5913 15.4576 31.5966 16.088C31.6012 16.6272 31.6019 17.1664 31.5933 17.7049C31.5907 17.8755 31.6474 17.9378 31.8218 17.9345C32.3381 17.926 32.8539 17.9293 33.3702 17.9313C34.7701 17.9359 35.8715 18.8431 36.1383 20.2049C36.1654 20.3426 36.166 20.4797 36.166 20.6175C36.166 24.9108 36.1693 29.2036 36.1614 33.4969C36.1594 34.5268 35.649 35.2799 34.7761 35.8027C34.3336 36.067 33.8509 36.1674 33.3346 36.1667C30.0059 36.1608 26.6772 36.1635 23.3485 36.1635Z" fill="#F1F1F1"/>
</g>
<path fill-rule="evenodd" clip-rule="evenodd" d="M24.9609 27.1022C24.9609 27.6807 24.9622 28.2593 24.9609 28.8379C24.9582 29.6513 24.3917 30.3184 23.5861 30.4575C22.7422 30.6031 21.8877 29.9976 21.7457 29.1547C21.7187 28.992 21.7048 28.8293 21.7055 28.664C21.7081 27.5331 21.7074 26.4022 21.7081 25.2713C21.7088 24.3949 22.3532 23.6727 23.2308 23.6261C24.0972 23.5796 24.7945 24.1634 24.9265 24.9742C24.984 25.3271 24.9576 25.6826 24.9622 26.0368C24.9662 26.3917 24.9629 26.7466 24.9629 27.1022H24.9609Z" fill="#F1F1F1"/>
</g>
</svg>
