<svg viewBox="0 0 18 18" fill="none" xmlns="http://www.w3.org/2000/svg">
<circle cx="9" cy="9" r="8.5" stroke="white"/>
<mask id="mask0_3601_1513" style="mask-type:alpha" maskUnits="userSpaceOnUse" x="0" y="0" width="18" height="18">
<circle cx="9" cy="9" r="8.5" fill="white" stroke="white"/>
</mask>
<g mask="url(#mask0_3601_1513)">
<path fill-rule="evenodd" clip-rule="evenodd" d="M12.5714 5C13.36 5 14 5.63467 14 6.41667V20.5833C14 21.3653 13.36 22 12.5714 22H5.42857C4.64 22 4 21.3653 4 20.5833V6.41667C4 5.63467 4.64 5 5.42857 5H12.5714ZM10.0714 6.41667H7.92857C7.73143 6.41667 7.57143 6.57533 7.57143 6.77083C7.57143 6.96633 7.73143 7.125 7.92857 7.125H10.0714C10.2686 7.125 10.4286 6.96633 10.4286 6.77083C10.4286 6.57533 10.2686 6.41667 10.0714 6.41667ZM9 20.5833C8.605 20.5833 8.28571 20.266 8.28571 19.875C8.28571 19.484 8.605 19.1667 9 19.1667C9.39429 19.1667 9.71357 19.484 9.71357 19.875C9.71357 20.266 9.39429 20.5833 9 20.5833ZM5.42857 18.4583H12.5714V8.52467H5.42857V18.4583Z" fill="white"/>
</g>
</svg>
