<svg viewBox="0 0 35 35" fill="none" xmlns="http://www.w3.org/2000/svg">
<rect x="0.75" y="0.75" width="33.5" height="33.5" rx="6.25" fill="" fill-opacity="0.15" stroke="white" stroke-width="1.5"/>
<mask id="mask0_3407_563" style="mask-type:alpha" maskUnits="userSpaceOnUse" x="0" y="0" width="35" height="35">
<rect x="0.75" y="0.75" width="33.5" height="33.5" rx="6.25" fill="white" stroke="white" stroke-width="1.5"/>
</mask>
<g mask="url(#mask0_3407_563)">
<path fill-rule="evenodd" clip-rule="evenodd" d="M13.0865 9.58125L13.3645 10.9667C13.3645 11.2438 13.6425 11.5208 13.9205 11.5208H36.7177C36.9957 11.5208 37.4128 11.2438 37.4128 10.9667L37.6908 9.58125C37.8298 9.16563 37.4128 8.75 36.9957 8.75H13.6425C13.2255 8.75 12.9475 9.16563 13.0865 9.58125ZM36.7177 38.8135L38.8028 23.0198C38.8028 22.8813 38.6638 22.6042 38.3858 22.6042H12.2524C11.9744 22.6042 11.8354 22.7427 11.8354 23.0198L13.9205 38.8135C13.9205 39.0906 14.0595 39.2292 14.3376 39.2292H36.3007C36.5787 39.2292 36.7177 39.0906 36.7177 38.8135ZM41.166 19.8333H9.4723C9.05528 19.8333 8.63826 20.249 8.77727 20.6646L11.4184 41.4458C11.4184 41.7229 11.6964 42 12.1134 42H38.5248C38.8028 42 39.2199 41.7229 39.2199 41.4458L42 20.6646C42 20.249 41.583 19.8333 41.166 19.8333ZM39.9149 15.1229L39.6369 16.5083C39.6369 16.7854 39.3589 17.0625 39.0808 17.0625H11.6964C11.2794 17.0625 11.0014 16.7854 11.0014 16.5083L10.7234 15.1229C10.5844 14.7073 11.0014 14.2917 11.4184 14.2917H39.2199C39.6369 14.2917 40.0539 14.7073 39.9149 15.1229Z" fill="white"/>
</g>
</svg>
