<svg viewBox="0 0 27 40" fill="none" xmlns="http://www.w3.org/2000/svg">
<mask id="mask0_3601_3026" style="mask-type:alpha" maskUnits="userSpaceOnUse" x="0" y="0" width="27" height="40">
<path fill-rule="evenodd" clip-rule="evenodd" d="M0 0H27V40H0V0Z" fill="white"/>
</mask>
<g mask="url(#mask0_3601_3026)">
<path fill-rule="evenodd" clip-rule="evenodd" d="M23.2643 20.0117C23.2643 15.2287 23.2645 10.4457 23.2637 5.66271C23.2637 5.455 23.2721 5.2448 23.2457 5.03991C23.1434 4.24692 22.8102 3.91698 22.0293 3.82193C21.8948 3.80557 21.7577 3.80849 21.6218 3.80849C16.2149 3.80797 10.8082 3.80765 5.40135 3.80942C5.21512 3.80953 5.02571 3.81307 4.84326 3.84642C4.18474 3.96679 3.89531 4.25589 3.77975 4.92423C3.73894 5.1608 3.73771 5.40654 3.73761 5.64811C3.73577 15.2141 3.73567 24.7801 3.73812 34.3461C3.73812 34.6047 3.75254 34.8655 3.78824 35.1211C3.87005 35.7054 4.19538 36.0608 4.78098 36.1359C5.01589 36.1661 5.25367 36.1885 5.49012 36.1888C8.43153 36.1924 11.373 36.1913 14.3145 36.1912C16.7799 36.1911 19.2452 36.196 21.7107 36.1884C22.8424 36.1849 23.2459 35.7658 23.2635 34.6207C23.266 34.4647 23.2643 34.3088 23.2643 34.1528C23.2644 29.4391 23.2644 24.7255 23.2643 20.0117M0.00125213 19.9781C0.00125213 15.1255 -0.000281933 10.2727 0.00176348 5.42009C0.00319527 2.14175 2.09187 0.00333568 5.2956 0.00198086C10.7709 -0.000520332 16.2461 -0.000832981 21.7213 0.00208508C24.8958 0.00375254 26.9976 2.14707 26.9983 5.38507C27.0004 15.1423 27.0007 24.8997 26.9983 34.6571C26.9974 37.8288 24.883 39.9938 21.7812 39.9964C16.255 40.0011 10.7287 40.0015 5.20254 39.9962C2.12961 39.9933 0.00605885 37.8264 0.00268392 34.6921C-0.00242962 29.7874 0.0013544 24.8827 0.00125213 19.9781" fill="#2AD4D9"/>
</g>
<path fill-rule="evenodd" clip-rule="evenodd" d="M13.5156 3.20043C14.2966 3.20095 15.0775 3.19126 15.8581 3.20345C16.7062 3.21679 17.2062 3.70942 17.1973 4.49625C17.1885 5.27642 16.7174 5.74633 15.8866 5.75269C14.2909 5.76488 12.6952 5.7653 11.0996 5.75196C10.2994 5.74539 9.80084 5.23223 9.80299 4.46978C9.80513 3.72224 10.3188 3.22825 11.1222 3.20137C11.1561 3.20011 11.1901 3.20001 11.224 3.20001C11.9879 3.20001 12.7518 3.20001 13.5156 3.20043Z" fill="#2AD4D9"/>
</svg>
