<svg viewBox="0 0 333 211" fill="none" xmlns="http://www.w3.org/2000/svg">
<path fill-rule="evenodd" clip-rule="evenodd" d="M282.235 35.2132C281.625 35.175 280.21 34.9329 278.817 35.0212C267.339 35.7502 256.904 40.1519 246.398 44.3021C244.509 45.048 245.029 45.9426 245.983 47.1363C252.349 55.0918 257.909 63.5927 262.768 72.5362C263.913 74.6432 264.797 74.8488 266.411 73.1156C270.354 68.8813 274.566 64.8815 278.311 60.4815C282.599 55.4435 286.958 50.3341 288.486 43.6097C289.718 38.191 288.52 36.463 282.235 35.2132ZM5.17702 229.2C7.39919 229.779 9.65705 229.792 11.9098 229.527C22.4088 228.29 32.0895 224.344 41.8135 220.514C44.4172 219.488 43.0899 218.354 42.1432 217.116C36.0452 209.146 30.4307 200.848 25.8037 191.937C24.5095 189.443 23.5339 190.166 22.1598 191.615C18.1769 195.811 13.9765 199.819 10.2341 204.218C5.95032 209.254 1.58331 214.36 0.0792046 221.093C-1.10538 226.395 0.00697327 228.085 5.17702 229.2ZM183.193 38.6787C109.332 10.5821 43.1417 66.4141 43.2292 130.451C87.0293 95.6466 133.49 65.3216 183.193 38.6787ZM244.061 151.24C244.52 146.883 245.737 140.287 245.815 133.677C246.145 105.134 235.069 81.2164 215.554 60.8273C213.679 58.8673 212.148 59.5954 210.298 60.5274C198.29 66.5747 186.458 72.9551 174.872 79.7645C147.161 96.0518 120.249 113.586 94.017 132.155C79.6966 142.292 65.7959 152.988 52.242 164.137C50.0215 165.964 49.5533 167.478 50.7209 170.235C54.3273 178.755 58.8328 186.672 64.4677 194.032C83.4552 218.831 108.761 231.619 139.665 233.39C162.154 234.678 182.868 228.713 201.465 216.024C223.774 200.802 237.182 179.434 244.061 151.24ZM111.664 261.184C100.87 258.879 87.0166 253.292 74.2912 245.079C70.8164 242.836 67.86 242.663 64.0471 244.299C43.3074 253.198 22.0749 260.607 -0.381374 263.859C-9.52074 265.183 -18.6839 265.634 -27.808 263.446C-40.6914 260.356 -46.9246 250.877 -44.4763 237.804C-41.876 223.916 -34.4719 212.338 -26.3387 201.225C-15.6077 186.564 -3.30886 173.253 10.0199 160.92C12.6967 158.443 13.6111 155.924 13.0604 152.317C7.40344 115.259 16.3176 81.5741 38.575 51.8625C57.8369 26.1482 83.8146 9.97214 115.397 3.05994C133.806 -0.968784 152.291 -0.958589 170.62 2.732C185.367 5.70129 199.576 10.713 212.178 19.253C216.468 22.1611 220.083 22.5417 225.015 20.3948C245.447 11.4963 266.507 4.41077 288.676 1.23078C298.238 -0.140441 307.888 -0.577976 317.3 2.23159C330.056 6.03942 335.328 16.0084 332.049 28.9501C328.93 41.2589 322.82 52.0511 315.465 62.162C304.443 77.3143 291.947 91.2092 278.134 103.871C275.216 106.546 274.261 109.145 274.815 113.125C280.746 155.749 268.966 193.261 239.751 224.475C218.505 247.174 191.661 260.426 160.444 264.096C145.406 265.864 130.506 265.114 111.664 261.184Z" fill="white" fill-opacity="0.05"/>
</svg>
