<svg viewBox="0 0 24 24" fill="none" xmlns="http://www.w3.org/2000/svg">
<path fill-rule="evenodd" clip-rule="evenodd" d="M5.1356 6.8463C5.60997 6.8463 6.08441 6.84309 6.55877 6.84794C6.74365 6.84987 6.84919 6.79424 6.84826 6.58657C6.84419 5.63791 6.84419 4.68918 6.84862 3.74044C6.84948 3.54106 6.76314 3.46807 6.56956 3.46893C5.63261 3.47321 4.69573 3.47428 3.75885 3.46807C3.54213 3.46664 3.46715 3.5557 3.4685 3.76565C3.47422 4.6906 3.47557 5.6157 3.46758 6.54065C3.4655 6.77389 3.55669 6.85509 3.7837 6.8498C4.23407 6.8393 4.68495 6.84673 5.1356 6.8463M5.16788 0.00664319C6.73465 0.00664319 8.30142 0.014713 9.86805 0.000144534C10.2046 -0.00299767 10.3191 0.0931967 10.3179 0.440768C10.3065 3.5859 10.3065 6.73118 10.3179 9.87632C10.3191 10.2238 10.2045 10.3179 9.86812 10.3168C6.7228 10.3062 3.5774 10.3069 0.432077 10.316C0.113238 10.3169 -0.000515288 10.2262 0.000627246 9.89417C0.0110529 6.73711 0.0110529 3.58005 0.000627246 0.422986C-0.00044388 0.0909115 0.113024 -0.00164081 0.432077 0.000930086C2.01063 0.0134275 3.58926 0.00664319 5.16788 0.00664319" fill="currentColor"/>
<mask id="mask0_3875_752" style="mask-type:alpha" maskUnits="userSpaceOnUse" x="13" y="0" width="11" height="11">
<path fill-rule="evenodd" clip-rule="evenodd" d="M13.6827 0.000366211H24V10.3172H13.6827V0.000366211Z" fill="currentColor"/>
</mask>
<g mask="url(#mask0_3875_752)">
<path fill-rule="evenodd" clip-rule="evenodd" d="M20.5298 5.15853C20.5298 4.71969 20.518 4.28043 20.5342 3.84223C20.544 3.573 20.4658 3.45981 20.1754 3.46467C19.2861 3.47966 18.3963 3.47652 17.5069 3.46609C17.2539 3.46309 17.1441 3.53337 17.1481 3.80659C17.1606 4.70777 17.1579 5.60929 17.1493 6.51061C17.147 6.74763 17.2153 6.85382 17.4714 6.85089C18.3846 6.84047 19.298 6.84047 20.2111 6.85089C20.4673 6.85382 20.5392 6.7477 20.533 6.51046C20.5213 6.06006 20.5296 5.60922 20.5298 5.15853M23.9934 5.16817C23.9934 6.73485 23.9852 8.30159 24 9.86806C24.0031 10.2056 23.9052 10.3185 23.5585 10.3172C20.4131 10.3058 17.2677 10.3057 14.1224 10.3172C13.7741 10.3185 13.6817 10.2021 13.6828 9.86677C13.6933 6.72156 13.6927 3.57636 13.6835 0.431149C13.6825 0.111287 13.775 -0.000618905 14.1061 0.000452303C17.2633 0.0108073 20.4206 0.0109501 23.5777 0.000380889C23.9109 -0.000690319 24.0016 0.114572 23.9991 0.432577C23.9866 2.01104 23.9934 3.58964 23.9934 5.16817" fill="currentColor"/>
</g>
<mask id="mask1_3875_752" style="mask-type:alpha" maskUnits="userSpaceOnUse" x="0" y="13" width="11" height="11">
<path fill-rule="evenodd" clip-rule="evenodd" d="M0 13.6813H10.3175V24H0V13.6813Z" fill="currentColor"/>
</mask>
<g mask="url(#mask1_3875_752)">
<path fill-rule="evenodd" clip-rule="evenodd" d="M6.84723 18.8454C6.84723 18.3829 6.84259 17.9203 6.84945 17.4579C6.85237 17.2577 6.79646 17.1481 6.57003 17.1496C5.63322 17.156 4.6962 17.1541 3.75932 17.1506C3.57452 17.1499 3.4689 17.2044 3.46983 17.412C3.4739 18.3607 3.4739 19.3094 3.46955 20.2581C3.46862 20.4575 3.55495 20.5305 3.74854 20.5296C4.68549 20.5254 5.62237 20.5242 6.55924 20.5305C6.77597 20.5319 6.85323 20.443 6.84959 20.2329C6.84152 19.7705 6.84709 19.3079 6.84723 18.8454M5.12236 23.9919C3.56752 23.9919 2.01246 23.9812 0.457826 23.9999C0.0898582 24.0043 -0.00125893 23.881 2.64234e-05 23.53C0.011666 20.3967 0.0112375 17.2633 0.00059769 14.1301C-0.000544844 13.7923 0.0959993 13.6802 0.442187 13.6814C3.58751 13.6928 6.73291 13.6929 9.87823 13.6813C10.2272 13.6801 10.3186 13.7974 10.3175 14.1323C10.3071 17.2774 10.3076 20.4227 10.3169 23.5678C10.3178 23.8883 10.2244 24.0012 9.8938 23.9982C8.30339 23.9841 6.71284 23.9919 5.12236 23.9919" fill="currentColor"/>
</g>
<path fill-rule="evenodd" clip-rule="evenodd" d="M13.689 18.803C13.689 17.2483 13.6997 15.6936 13.6811 14.1391C13.6767 13.7716 13.799 13.6767 14.1508 13.6809C15.5748 13.698 16.9991 13.6973 18.4232 13.6813C18.7644 13.6775 18.8936 13.7816 18.868 14.1262C18.8435 14.4566 18.8684 14.7904 18.8618 15.1226C18.858 15.3188 18.939 15.3999 19.1364 15.399C20.0739 15.3947 21.0115 15.3938 21.9491 15.3999C22.1637 15.4013 22.2469 15.3171 22.2419 15.1045C22.2335 14.7368 22.2477 14.3686 22.2389 14.001C22.2335 13.7721 22.3285 13.6812 22.5555 13.6866C22.935 13.6958 23.3151 13.6942 23.6947 13.6876C23.9039 13.6838 23.9942 13.7679 23.9939 13.9816C23.9906 16.0821 23.9905 18.1827 23.9938 20.2833C23.9942 20.5011 23.8938 20.5724 23.6894 20.572C22.1702 20.5688 20.6512 20.5679 19.1321 20.5729C18.903 20.5737 18.8131 20.4823 18.8184 20.2558C18.8271 19.8881 18.8128 19.52 18.8215 19.1524C18.8266 18.9371 18.7379 18.8543 18.5256 18.8598C18.1817 18.8688 17.8368 18.8748 17.4934 18.8577C17.2239 18.8443 17.147 18.9548 17.1485 19.2122C17.1572 20.6363 17.153 22.0604 17.1522 23.4845C17.152 23.9904 17.1507 23.9913 16.6402 23.9918C15.7976 23.9926 14.9547 23.9803 14.1125 23.9979C13.7902 24.0046 13.6799 23.9031 13.6828 23.5737C13.6967 21.9836 13.6891 20.3932 13.689 18.803" fill="currentColor"/>
<path fill-rule="evenodd" clip-rule="evenodd" d="M18.8196 23.1029C18.8196 22.2388 18.8196 22.2388 19.6821 22.2388C20.5729 22.2388 20.5729 22.2388 20.5729 23.1457C20.5729 23.9921 20.5729 23.9921 19.7282 23.9921H19.6927C18.8196 23.9921 18.8196 23.9921 18.8196 23.1029" fill="currentColor"/>
<path fill-rule="evenodd" clip-rule="evenodd" d="M23.9936 23.139C23.9936 23.9921 23.9936 23.9921 23.1555 23.9921C22.2402 23.9921 22.2344 23.992 22.2419 23.0743C22.2496 22.1106 22.1129 22.2538 23.0606 22.2389C23.0724 22.2387 23.0843 22.2389 23.096 22.2389C23.9936 22.2389 23.9936 22.2389 23.9936 23.139" fill="currentColor"/>
</svg>
