<svg viewBox="0 0 20 23" fill="none" xmlns="http://www.w3.org/2000/svg">
<ellipse cx="5" cy="20.5" rx="5" ry="2.5" fill="#2AD4D8"/>
<path fill-rule="evenodd" clip-rule="evenodd" d="M4.00014 1.44519C3.99976 1.15939 4.01334 0.876921 4.1107 0.606806C4.25607 0.203819 4.56719 -0.014117 4.97256 0.000709897C5.38736 0.0158219 5.7248 0.214084 5.82819 0.672577C5.84555 0.749372 5.86923 0.825027 5.88149 0.902583C5.99903 1.64355 6.00356 1.66227 6.74071 1.46106C7.28277 1.31308 7.8152 1.12356 8.34188 0.925489C9.83665 0.363018 11.3552 0.384878 12.7842 1.0116C14.93 1.95263 16.986 1.7212 19.0589 0.856772C19.9864 0.470038 19.9896 0.477736 19.9896 1.46829C19.9897 4.96657 19.9803 8.46486 20.0001 11.963C20.0029 12.4585 19.8548 12.713 19.3732 12.8374C18.9057 12.9581 18.4571 13.1554 18.0031 13.3267C16.3224 13.9605 14.6605 13.8724 13.0166 13.1928C11.5781 12.598 10.113 12.4848 8.61319 12.9197C8.20991 13.0366 7.86067 12.9412 7.60078 12.6158C7.37352 12.3312 7.3804 12.0068 7.53578 11.6813C7.66907 11.402 7.9151 11.2727 8.18547 11.1752C9.85315 10.5742 11.4969 10.669 13.1264 11.3348C14.6116 11.9415 16.1171 12.0794 17.6598 11.5367C17.9815 11.4236 18.0976 11.2609 18.0963 10.9237C18.0858 8.48121 18.0854 6.03867 18.0962 3.59623C18.0977 3.21966 17.9816 3.12376 17.6252 3.23411C16.0165 3.73157 14.4477 3.58045 12.9032 2.93843C11.196 2.22883 9.48458 2.30258 7.78662 2.98234C7.34824 3.15779 6.90184 3.32051 6.44015 3.38285C5.99064 3.44368 5.89196 3.66209 5.89338 4.07677C5.90545 7.57487 5.90092 16.474 5.89847 19.9722C5.89838 20.1918 5.89753 20.4158 5.85715 20.6302C5.76414 21.1247 5.45405 21.3874 4.98926 21.4002C4.51484 21.4134 4.20768 21.1731 4.06957 20.6907C4.00353 20.4596 4.00136 20.2246 4.00136 19.988C4.00174 17.7976 4.00165 10.2066 4.00165 8.01625C4.00165 5.82587 4.00287 3.63558 4.00014 1.44519Z" fill="#2AD4D8"/>
</svg>
