<svg viewBox="0 0 247 253" fill="none" xmlns="http://www.w3.org/2000/svg">
<path fill-rule="evenodd" clip-rule="evenodd" d="M-12.8013 125.276C-12.7884 135.39 -4.14407 144.098 5.77981 143.991C16.5851 143.876 24.5278 135.91 24.5062 125.212C24.4837 114.543 16.4606 106.551 5.70997 106.489C-4.28053 106.432 -12.8141 115.093 -12.8013 125.276ZM160.085 240.902C149.344 240.984 141.414 248.924 141.388 259.619C141.364 270.278 149.286 278.253 160.035 278.388C170.805 278.523 179.119 270.199 178.932 259.47C178.744 248.721 170.723 240.819 160.085 240.902ZM198.571 67.1815C209.256 67.2353 217.231 59.3558 217.391 48.5868C217.548 37.9405 209.727 29.9632 198.868 29.6954C188.168 29.4317 179.79 37.7096 179.848 48.4898C179.905 59.1978 187.848 67.1278 198.571 67.1815ZM175.787 92.0483C175.987 91.1976 174.743 90.5009 173.598 89.8274C169.779 87.5778 166.325 84.8494 163.293 81.6505C161.613 79.8787 160.055 79.9139 157.948 80.7566C124.632 94.0791 91.2987 107.358 57.9381 120.57C55.6408 121.479 54.6262 122.819 54.3244 125.216C53.6942 130.221 53.9503 135.429 51.9564 140.152C50.5275 143.535 51.6562 145.499 54.2288 147.616C59.8887 152.273 65.364 157.156 70.8698 161.998C91.5941 180.22 112.312 198.45 132.986 216.729C134.418 217.994 135.551 218.275 137.202 217.232C140.971 214.849 145.169 213.388 149.526 212.715C152.921 212.189 154.074 210.467 154.653 207.262C160.075 177.251 165.654 147.267 171.18 117.274C172.676 109.156 174.147 101.033 175.787 92.0483ZM7.04247 77.0036C20.0078 77.3251 31.3075 81.8133 40.4897 91.0036C42.9805 93.497 44.968 93.7616 48.1547 92.4804C80.7166 79.3872 113.325 66.4079 145.983 53.5528C149.247 52.2684 150.334 50.5639 150.422 47.1188C150.953 26.3939 162.711 9.53972 182.167 3.04403C200.008 -2.91129 217.003 -0.321671 231.191 12.5094C245.507 25.4566 249.941 42.0823 245.138 60.5936C240.26 79.3984 227.871 91.1239 208.717 95.2576C205.448 95.9632 204.114 97.4392 203.541 100.685C197.063 137.413 190.509 174.127 183.787 210.811C182.993 215.145 183.851 217.528 187.682 220.22C203.292 231.186 210.396 246.494 208.033 265.492C205.526 285.645 194.427 299.557 174.962 305.627C143.751 315.361 113.352 294.074 111.237 261.444C110.853 255.531 112.186 249.753 114.481 244.298C115.566 241.716 115.358 239.991 113.147 238.059C86.5306 214.802 59.9738 191.477 33.4628 168.1C31.7618 166.6 30.577 166.984 28.8857 167.9C6.89075 179.808 -21.2353 172.573 -34.529 151.418C-51.5736 124.294 -38.6838 84.8679 -3.7098 78.0828C-0.165043 77.3949 3.39657 76.8585 7.04247 77.0036Z" fill="white" opacity="0.05"/>
</svg>
