<svg width="13" height="15" viewBox="0 0 13 15" fill="none" xmlns="http://www.w3.org/2000/svg">
<mask id="mask0_3920_288" style="mask-type:alpha" maskUnits="userSpaceOnUse" x="0" y="0" width="13" height="15">
<path fill-rule="evenodd" clip-rule="evenodd" d="M0 0H13V15H0V0Z" fill="white"/>
</mask>
<g mask="url(#mask0_3920_288)">
<path fill-rule="evenodd" clip-rule="evenodd" d="M3.34787 1.25C2.19468 1.25 1.25651 2.18332 1.25651 3.33053V11.6695C1.25651 12.8167 2.19468 13.75 3.34787 13.75H9.6521C10.8053 13.75 11.7435 12.8167 11.7435 11.6695V3.33053C11.7435 2.18332 10.8053 1.25 9.6521 1.25H3.34787ZM9.6521 15H3.34787C1.50182 15 0 13.5059 0 11.6695V3.33053C0 1.49409 1.50182 0 3.34787 0H9.6521C11.4982 0 13 1.49409 13 3.33053V11.6695C13 13.5059 11.4982 15 9.6521 15Z" fill="#2AD4D9"/>
</g>
<path fill-rule="evenodd" clip-rule="evenodd" d="M4.7792 10.1062C4.57816 10.1103 4.4253 10.0046 4.29302 9.87458C3.75075 9.3415 3.20774 8.80885 2.67701 8.26438C2.36042 7.93962 2.36085 7.64462 2.6787 7.31852C3.20934 6.774 3.74765 6.23655 4.29573 5.70943C4.66133 5.3578 5.06834 5.41515 5.29441 5.82544C5.42103 6.0552 5.37734 6.27919 5.1329 6.53866C4.87498 6.81232 4.6059 7.07559 4.34101 7.34275C3.8951 7.79251 3.89916 7.78818 4.34348 8.24688C4.65475 8.56823 5.00353 8.85554 5.26479 9.22285C5.39237 9.40212 5.3958 9.59626 5.28712 9.78785C5.18292 9.97145 4.96767 10.1036 4.7792 10.1062Z" fill="#2AD4D9"/>
<path fill-rule="evenodd" clip-rule="evenodd" d="M10.5667 7.72161C10.5707 7.92204 10.5274 8.04459 10.4387 8.14041C9.84653 8.78041 9.23814 9.40569 8.58142 9.97997C8.3421 10.1893 8.07384 10.1462 7.84467 9.92988C7.62778 9.72507 7.5924 9.46988 7.75599 9.21622C7.81611 9.12305 7.89044 9.03709 7.9682 8.95747C8.28131 8.63675 8.58688 8.30738 8.91826 8.00627C9.10794 7.83391 9.08006 7.73223 8.90971 7.57204C8.56006 7.24319 8.22554 6.89781 7.89411 6.55045C7.59946 6.24166 7.57887 5.97762 7.80649 5.69954C8.0043 5.458 8.293 5.41093 8.55716 5.58233C8.63052 5.62997 8.70045 5.68574 8.7626 5.74723C9.27477 6.25387 9.78568 6.7617 10.2947 7.27151C10.4377 7.41468 10.5596 7.57252 10.5667 7.72161Z" fill="#2AD4D9"/>
</svg>
