<svg viewBox="0 0 35 35" fill="none" xmlns="http://www.w3.org/2000/svg">
<rect x="0.75" y="0.75" width="33.5" height="33.5" rx="6.25" fill="" fill-opacity="0.15" stroke="#F1F1F1" stroke-width="1.5"/>
<mask id="mask0_3407_660" style="mask-type:alpha" maskUnits="userSpaceOnUse" x="0" y="0" width="35" height="35">
<rect x="0.75" y="0.75" width="33.5" height="33.5" rx="6.25" fill="white" stroke="white" stroke-width="1.5"/>
</mask>
<g mask="url(#mask0_3407_660)">
<path fill-rule="evenodd" clip-rule="evenodd" d="M15.1384 31.8148C17.1674 31.7946 19.1162 31.3743 21.0164 30.7381C24.6726 29.5143 27.9768 27.7124 30.9184 25.3328C32.4052 24.13 33.7399 22.7939 34.7379 21.1924C35.2211 20.417 35.6047 19.6033 35.7029 18.6873C35.81 17.6872 35.3498 16.9055 34.3704 16.4773C33.7125 16.1896 33.0117 16.0862 32.3009 16.032C32.0948 16.0163 32.009 15.9391 31.9609 15.7649C31.7628 15.0492 31.5134 14.3484 31.2283 13.6596C31.1544 13.4811 31.1846 13.3935 31.3982 13.394C33.1989 13.3986 34.9524 13.5933 36.4671 14.6219C37.7567 15.4975 38.4329 16.7008 38.4862 18.1945C38.5471 19.9053 37.8704 21.4115 36.9351 22.8265C35.4087 25.1362 33.3529 26.981 31.0512 28.5909C27.9244 30.7781 24.5247 32.4815 20.7861 33.5518C18.8047 34.1192 16.7823 34.4786 14.6988 34.4317C13.6018 34.4071 12.5224 34.2585 11.4972 33.8729C9.80537 33.2366 8.65773 32.1327 8.278 30.4211C8.03949 29.3462 8.22218 28.2931 8.58957 27.2646C8.84387 26.553 9.19002 25.8805 9.59988 25.2371C9.75088 25.0002 9.77646 24.9997 9.96404 25.218C10.447 25.7799 10.9534 26.3225 11.5006 26.8295C11.6565 26.9739 11.6922 27.0871 11.5857 27.2789C11.2802 27.8293 11.0842 28.4154 10.9805 29.0314C10.8033 30.0834 11.3189 30.9688 12.367 31.3832C13.2543 31.7341 14.1864 31.8255 15.1384 31.8148Z" fill="#F1F1F1"/>
<path fill-rule="evenodd" clip-rule="evenodd" d="M17.7116 23.9225C17.6699 25.9247 17.9114 27.9154 18.3546 29.8856C18.4069 30.1184 18.3537 30.2187 18.1046 30.2665C17.3792 30.406 16.6484 30.505 15.912 30.5741C15.7071 30.5933 15.6316 30.5043 15.5957 30.3344C15.3767 29.303 15.2014 28.2649 15.0858 27.219C14.9337 25.8428 14.8738 24.4615 14.9212 23.0788C15.0309 19.88 15.5039 16.7419 16.8039 13.7563C17.5005 12.1567 18.4112 10.6857 19.8019 9.51205C21.5219 8.06073 23.7449 7.75349 25.6873 8.73783C26.7165 9.25937 27.5208 10.0221 28.2028 10.9062C29.5514 12.6546 30.3197 14.6393 30.8809 16.7083C30.9494 16.9608 31.0058 17.2162 31.0641 17.471C31.0805 17.5423 31.1426 17.6323 31.0485 17.6821C30.9768 17.7199 30.9125 17.6461 30.854 17.6078C30.0266 17.0649 29.1905 16.5309 28.2992 16.0882C27.8498 15.865 27.596 15.5711 27.4267 15.1238C27.0035 14.0046 26.4263 12.9558 25.6178 12.0297C25.2846 11.648 24.8952 11.326 24.446 11.0809C23.7071 10.6777 22.9519 10.6723 22.2081 11.0884C21.2856 11.6044 20.6752 12.3871 20.1605 13.2422C19.1752 14.8796 18.5946 16.6528 18.2256 18.491C17.8666 20.28 17.6779 22.0852 17.7116 23.9225Z" fill="#F1F1F1"/>
<path fill-rule="evenodd" clip-rule="evenodd" d="M23.2133 39.6668C22.015 39.6482 20.8812 39.1781 19.8837 38.3768C18.9414 37.6199 18.2312 36.6938 17.6237 35.6889C17.522 35.5205 17.5784 35.4546 17.7593 35.4274C18.5811 35.304 19.399 35.1605 20.2027 34.9547C20.3548 34.9157 20.4208 34.9998 20.4912 35.098C20.8227 35.5616 21.1899 35.997 21.6427 36.363C22.1863 36.8021 22.7865 37.0938 23.5339 37.0339C23.915 37.0034 24.2499 36.8716 24.5647 36.6809C25.5233 36.0997 26.1253 35.235 26.6591 34.3228C27.0339 33.682 27.3363 33.0083 27.5895 32.3165C27.6468 32.1601 27.7322 32.0459 27.8911 31.9648C28.9166 31.4414 29.8972 30.8491 30.8566 30.2258C30.9155 30.1876 30.975 30.1137 31.0503 30.1507C31.1344 30.192 31.0847 30.2742 31.0697 30.3383C30.5188 32.6908 29.7242 34.951 28.197 36.926C27.3327 38.0437 26.2917 38.9604 24.8667 39.4233C24.3716 39.5841 23.8636 39.6589 23.2133 39.6668Z" fill="#F1F1F1"/>
<path fill-rule="evenodd" clip-rule="evenodd" d="M14.7106 13.3929C15.5491 13.3814 15.5493 13.3815 15.3369 13.9195C15.102 14.5145 14.8862 15.1156 14.7217 15.7314C14.6705 15.9228 14.59 16.0191 14.3542 16.0341C13.7922 16.0696 13.2332 16.1442 12.6975 16.3248C11.2625 16.8086 10.7161 17.7077 11.0316 19.1104C11.2934 20.2748 11.9319 21.2724 12.6592 22.2234C12.9233 22.5688 13.2177 22.8941 13.5052 23.2232C13.5865 23.3163 13.6239 23.4079 13.6234 23.5296C13.6196 24.642 13.6593 25.7531 13.7641 26.8616C13.7711 26.9349 13.8106 27.0308 13.7239 27.0765C13.645 27.1184 13.5913 27.0371 13.5394 26.9927C11.8601 25.5569 10.3581 23.9846 9.27862 22.0882C8.61979 20.9308 8.16412 19.7097 8.16667 18.387C8.16934 16.948 8.75134 15.7278 9.94534 14.7997C10.9708 14.0027 12.1924 13.651 13.4858 13.4908C13.9615 13.432 14.4428 13.4135 14.7106 13.3929Z" fill="#F1F1F1"/>
<path fill-rule="evenodd" clip-rule="evenodd" d="M21.1038 14.3748C21.1525 14.389 21.2146 14.4059 21.2758 14.4248C25.6926 15.7928 29.6257 17.9514 33.1236 20.8233C33.29 20.9598 33.3114 21.0664 33.1808 21.2368C32.7421 21.8085 32.2804 22.3614 31.7713 22.8799C31.6396 23.0139 31.5519 23.041 31.3909 22.9023C28.9683 20.817 26.2209 19.2002 23.2372 17.9248C22.2846 17.5176 21.3081 17.1704 20.3098 16.8795C20.0527 16.8047 19.9994 16.7045 20.0828 16.469C20.3137 15.8167 20.5764 15.1772 20.8874 14.5553C20.975 14.3801 20.9859 14.3754 21.1038 14.3748Z" fill="#F1F1F1"/>
<path fill-rule="evenodd" clip-rule="evenodd" d="M23.3122 27.0389C21.4832 27.0347 19.9787 25.6443 19.9912 23.921C20.0052 21.9929 21.714 20.7382 23.409 20.7803C25.2193 20.8255 26.6701 22.2072 26.6636 23.9594C26.6573 25.6743 25.1677 27.0431 23.3122 27.0389Z" fill="#F1F1F1"/>
<path fill-rule="evenodd" clip-rule="evenodd" d="M38.5 29.4081C38.4907 31.4933 37.228 33.165 35.1005 33.9011C33.9128 34.3122 32.68 34.4474 31.4235 34.4357C31.1355 34.4331 31.1167 34.4015 31.2202 34.1446C31.4953 33.4618 31.7461 32.7715 31.9449 32.0656C31.9938 31.8923 32.0733 31.8083 32.2802 31.7931C32.9534 31.7433 33.6183 31.6505 34.2488 31.3984C35.479 30.9067 35.9044 30.0118 35.6499 28.7747C35.5422 28.2517 35.3671 27.7478 35.1002 27.2773C35.0029 27.1057 35.0081 26.9906 35.1639 26.8479C35.7207 26.3382 36.2297 25.7866 36.7227 25.2221C36.9199 24.9963 36.9362 24.9984 37.1 25.2572C37.7975 26.3591 38.2894 27.5313 38.4623 28.8105C38.489 29.008 38.4881 29.2088 38.5 29.4081Z" fill="#F1F1F1"/>
</g>
</svg>
