<svg viewBox="0 0 18 15" fill="none" xmlns="http://www.w3.org/2000/svg">
<path fill-rule="evenodd" clip-rule="evenodd" d="M13.788 14.8344C14.0295 15.0054 14.3407 15.0481 14.6182 14.9431C14.8957 14.8374 15.0997 14.6004 15.1612 14.3131C15.8129 11.2501 17.3939 3.49737 17.9871 0.711112C18.0321 0.501112 17.9571 0.282862 17.7921 0.142611C17.6271 0.00236116 17.3984 -0.0381389 17.1944 0.0376112C14.0497 1.20161 4.3652 4.83537 0.406789 6.30012C0.155545 6.39312 -0.00795143 6.63462 0.000298383 6.89937C0.00929818 7.16487 0.187794 7.39512 0.445038 7.47237C2.22025 8.00337 4.55044 8.74212 4.55044 8.74212C4.55044 8.74212 5.63942 12.0309 6.20716 13.7034C6.27841 13.9134 6.44265 14.0784 6.6594 14.1354C6.87539 14.1916 7.10639 14.1324 7.26763 13.9801C8.17961 13.1191 9.58958 11.7879 9.58958 11.7879C9.58958 11.7879 12.2685 13.7521 13.788 14.8344ZM5.53067 8.32662L6.78989 12.4801L7.06964 9.84987C7.06964 9.84987 11.9348 5.46162 14.7082 2.96036C14.7892 2.88686 14.8005 2.76386 14.733 2.67761C14.6662 2.59136 14.5432 2.57111 14.451 2.62961C11.2365 4.68237 5.53067 8.32662 5.53067 8.32662Z" fill="white"/>
</svg>
