<svg viewBox="0 0 35 35" fill="none" xmlns="http://www.w3.org/2000/svg">
<rect x="0.75" y="0.75" width="33.5" height="33.5" rx="6.25" fill="" fill-opacity="0.15" stroke="#F1F1F1" stroke-width="1.5"/>
<mask id="mask0_3407_627" style="mask-type:alpha" maskUnits="userSpaceOnUse" x="0" y="0" width="35" height="35">
<rect x="0.75" y="0.75" width="33.5" height="33.5" rx="6.25" fill="white" stroke="white" stroke-width="1.5"/>
</mask>
<g mask="url(#mask0_3407_627)">
<mask id="mask1_3407_627" style="mask-type:alpha" maskUnits="userSpaceOnUse" x="19" y="7" width="21" height="29">
<path fill-rule="evenodd" clip-rule="evenodd" d="M19.2545 7H39.6667V35.9661H19.2545V7Z" fill="white"/>
</mask>
<g mask="url(#mask1_3407_627)">
<path fill-rule="evenodd" clip-rule="evenodd" d="M35.731 35.5045C34.3381 35.6621 32.9428 35.7972 31.5507 35.9598C31.2912 35.99 31.2247 35.9163 31.2223 35.6742C31.2049 33.8811 31.3278 34.1198 31.3054 32.3268C31.3047 32.2689 31.5302 32.132 31.607 32.1045C31.6738 32.0805 32.0535 31.8931 32.0979 31.9322C32.6015 32.3758 32.36 31.1003 32.858 31.5501C33.0012 31.6793 33.0913 31.7015 33.2407 31.5378C35.0217 29.586 36.1835 27.3213 36.5448 24.7003C37.1189 20.5349 35.985 16.879 33.07 13.8244C31.081 11.7399 28.6246 10.5146 25.786 10.0797C23.7 9.76004 21.6522 9.98125 19.6547 10.6618C19.3276 10.7733 19.3116 10.7668 19.305 10.4276C19.2895 9.63292 19.322 8.83696 19.2575 8.04376C19.2355 7.77497 19.3339 7.65135 19.596 7.5802C21.4368 7.08096 23.3049 6.90105 25.2062 7.05154C27.3015 7.21742 29.294 7.76721 31.1452 8.75391C35.5748 11.1152 38.3345 14.7749 39.3414 19.6893C40.0468 23.1324 39.5966 26.4731 38.0737 29.6529C37.4207 31.0166 36.5642 32.2454 35.5595 33.3726C35.2778 33.6887 35.2813 33.6868 35.5909 33.9586C36.0871 34.3945 36.5795 34.8346 37.1289 35.3219C36.6243 35.4437 36.1742 35.4542 35.731 35.5045Z" fill="#F1F1F1"/>
</g>
<mask id="mask2_3407_627" style="mask-type:alpha" maskUnits="userSpaceOnUse" x="8" y="9" width="21" height="30">
<path fill-rule="evenodd" clip-rule="evenodd" d="M8.16667 9.51929H28.5298V38.5H8.16667V9.51929Z" fill="white"/>
</mask>
<g mask="url(#mask2_3407_627)">
<path fill-rule="evenodd" clip-rule="evenodd" d="M28.4847 36.105C28.511 36.7301 28.4713 37.1551 28.5257 37.5773C28.5509 37.7739 28.4582 37.8628 28.2759 37.913C27.2443 38.1984 26.1966 38.4142 25.1291 38.4695C23.1351 38.5726 21.1648 38.4296 19.2444 37.8131C15.5338 36.6221 12.6203 34.4003 10.5419 31.1004C9.25511 29.0573 8.46943 26.822 8.24641 24.4213C7.81575 19.7868 9.1281 15.6957 12.2107 12.1906C12.2633 12.1309 12.3131 12.0677 12.3723 12.0154C12.5217 11.8832 12.5018 11.7789 12.3537 11.6513C11.8653 11.2308 11.3855 10.8002 10.9042 10.3716C10.847 10.3205 10.7458 10.2755 10.766 10.1929C10.7903 10.0941 10.907 10.106 10.9885 10.0972C12.3733 9.9483 13.7584 9.80292 15.1435 9.65636C15.5116 9.61728 15.8828 9.59445 16.2467 9.53094C16.5043 9.48581 16.5734 9.57002 16.5756 9.81449C16.5882 11.2629 16.6101 12.7113 16.6317 14.1596C16.6364 14.4684 16.6569 14.7771 16.6624 15.0859C16.664 15.1772 16.7102 15.3039 16.6029 15.3496C16.5127 15.3878 16.4536 15.2767 16.3901 15.2212C15.9188 14.8078 15.4438 14.3984 14.9835 13.9731C14.8116 13.8143 14.7086 13.8296 14.5541 13.999C12.6894 16.0445 11.5529 18.4284 11.2169 21.182C10.5619 26.5522 13.2554 31.6678 18.0658 34.158C19.9494 35.1331 21.9622 35.5807 24.0881 35.5533C25.5066 35.535 26.8761 35.2842 28.2112 34.8242C28.4475 34.7429 28.4892 34.8292 28.4865 35.0345C28.4809 35.4585 28.4847 35.8825 28.4847 36.105Z" fill="#F1F1F1"/>
</g>
<path fill-rule="evenodd" clip-rule="evenodd" d="M25.0882 26.5182C25.0882 26.995 25.088 27.4718 25.0882 27.9488C25.0884 28.4271 25.1185 28.4451 25.5513 28.2255C26.8572 27.5634 26.9912 26.003 25.8139 25.1413C25.6575 25.027 25.4853 24.9346 25.3251 24.8255C25.1543 24.7089 25.0819 24.7313 25.0856 24.955C25.094 25.476 25.0883 25.9972 25.0882 26.5182ZM22.7404 18.9514C22.7404 18.4665 22.7405 17.9816 22.7404 17.4967C22.7402 17.0697 22.7353 17.0667 22.3412 17.2442C21.483 17.6312 21.0241 18.5061 21.2418 19.329C21.432 20.0478 21.9921 20.4094 22.5881 20.7348C22.7456 20.8207 22.7391 20.6881 22.7393 20.5911C22.7407 20.0445 22.7401 19.498 22.7404 18.9514ZM22.7421 25.9053C22.7422 25.1984 22.7314 24.4914 22.7482 23.785C22.754 23.5433 22.6648 23.4251 22.4576 23.3183C21.7289 22.9425 20.981 22.5955 20.3498 22.0558C18.063 20.0999 18.4388 16.6827 21.0969 15.2641C21.5194 15.0385 21.9584 14.8479 22.4304 14.7639C22.6882 14.7181 22.7691 14.6 22.7441 14.353C22.7254 14.1694 22.7472 13.982 22.7389 13.7968C22.7316 13.63 22.7983 13.5502 22.9669 13.5506C23.5938 13.552 24.2205 13.5521 24.8472 13.5505C25.0124 13.5502 25.0894 13.6262 25.0871 13.7921C25.0842 13.9953 25.0997 14.1994 25.085 14.4015C25.0683 14.6294 25.1592 14.7299 25.3826 14.7802C26.3503 14.998 27.1811 15.4679 27.8157 16.2347C28.4837 17.0419 28.838 17.9805 28.8559 19.0357C28.8619 19.3941 28.8522 19.3986 28.4813 19.3985C27.9427 19.3984 27.4042 19.3975 26.8658 19.3962C26.5145 19.3952 26.5178 19.3942 26.5052 19.0433C26.4758 18.2124 26.1134 17.5946 25.3485 17.23C25.1686 17.1442 25.0834 17.1356 25.0847 17.3819C25.092 18.8573 25.0907 20.3327 25.0855 21.8083C25.0848 21.9937 25.1583 22.0981 25.3175 22.1809C25.8654 22.466 26.4228 22.734 26.9409 23.074C28.0037 23.7716 28.718 24.717 28.917 25.9877C29.1779 27.6532 28.5269 28.955 27.2214 29.9585C26.6743 30.3789 26.0453 30.6386 25.3727 30.7794C25.1542 30.8253 25.0661 30.925 25.0927 31.139C25.0949 31.1563 25.0931 31.1743 25.0929 31.1919C25.0893 31.9648 25.0893 31.9649 24.3045 31.9648C23.8719 31.9648 23.4393 31.9586 23.0069 31.9672C22.8152 31.971 22.7315 31.9028 22.7407 31.7064C22.7503 31.5036 22.7326 31.2995 22.7448 31.0971C22.7565 30.9033 22.6854 30.8135 22.4899 30.773C21.5733 30.5834 20.7745 30.1564 20.1475 29.463C19.3532 28.5844 18.9419 27.5449 18.9763 26.3443C18.9808 26.186 19.0437 26.1175 19.1954 26.1171C19.8222 26.1157 20.4489 26.1152 21.0758 26.1118C21.2523 26.1107 21.2917 26.2069 21.2975 26.3648C21.3157 26.8583 21.4171 27.3267 21.7366 27.7264C21.9399 27.9808 22.1904 28.1647 22.4831 28.3039C22.6863 28.4007 22.7468 28.3483 22.7447 28.1318C22.7378 27.3896 22.7421 26.6475 22.7421 25.9053Z" fill="#F1F1F1"/>
</g>
</svg>
