<svg viewBox="0 0 16 18" fill="none" xmlns="http://www.w3.org/2000/svg">
<mask id="mask0_3601_3940" style="mask-type:alpha" maskUnits="userSpaceOnUse" x="0" y="10" width="16" height="8">
<path fill-rule="evenodd" clip-rule="evenodd" d="M0 10.6338H16V18.0002H0V10.6338Z" fill="white"/>
</mask>
<g mask="url(#mask0_3601_3940)">
<path fill-rule="evenodd" clip-rule="evenodd" d="M8.00615 16.2868C9.98605 16.2868 11.966 16.2863 13.9459 16.2878C14.0993 16.288 14.2205 16.3057 14.172 16.0709C14.0157 15.3156 13.7191 14.6276 13.2237 14.0289C12.2814 12.8899 11.0248 12.4025 9.57013 12.3902C8.34373 12.3798 7.11582 12.3372 5.89 12.4267C5.24068 12.4742 4.62793 12.6532 4.06391 12.97C2.84909 13.652 2.13262 14.6882 1.84537 16.0291C1.79894 16.2458 1.84913 16.2919 2.06648 16.2911C4.04638 16.2837 6.02629 16.2868 8.00615 16.2868ZM7.99024 17.9996C5.72551 17.9997 3.46088 18.0013 1.19615 17.9986C0.575264 17.9979 0.103003 17.6318 0.0214273 17.0887C-0.0300037 16.7459 0.0214273 16.4026 0.068001 16.0635C0.217103 14.9769 0.59955 13.9814 1.2993 13.1172C2.42264 11.7299 3.85214 10.8551 5.66946 10.7244C7.26421 10.6097 8.86828 10.5941 10.461 10.7344C12.0305 10.8727 13.3279 11.5917 14.3884 12.7465C15.0739 13.4928 15.5432 14.3417 15.7949 15.3104C15.9247 15.8097 15.9963 16.3197 16 16.836C16.0049 17.5402 15.5508 17.9965 14.8319 17.9979C12.5513 18.0021 10.2708 17.9994 7.99024 17.9996Z" fill="#2AD4D9"/>
</g>
<path fill-rule="evenodd" clip-rule="evenodd" d="M7.97407 7.28666C9.48986 7.25782 10.7774 6.28899 10.8156 4.54164C10.8478 3.07174 9.83735 1.77916 8.04612 1.73807C6.53577 1.70345 5.22142 2.71637 5.1928 4.48244C5.16837 5.98775 6.21061 7.20462 7.97407 7.28666ZM12.58 4.50388C12.5811 7.0427 10.5735 9.01685 7.99488 9.01244C5.42771 9.00808 3.42985 7.03749 3.42871 4.50861C3.42752 1.96979 5.43519 -0.00435518 8.01379 7.21585e-06C10.5812 0.00436961 12.5788 1.97467 12.58 4.50388Z" fill="#2AD4D9"/>
</svg>
