<svg viewBox="0 0 18 18" fill="none" xmlns="http://www.w3.org/2000/svg">
<circle cx="9" cy="9" r="8.5" stroke="white"/>
<mask id="mask0_3601_1602" style="mask-type:alpha" maskUnits="userSpaceOnUse" x="0" y="0" width="18" height="18">
<circle cx="9" cy="9" r="8.5" fill="white" stroke="white"/>
</mask>
<g mask="url(#mask0_3601_1602)">
<mask id="mask1_3601_1602" style="mask-type:alpha" maskUnits="userSpaceOnUse" x="6" y="4" width="13" height="11">
<path fill-rule="evenodd" clip-rule="evenodd" d="M6 4H19V15H6V4Z" fill="white"/>
</mask>
<g mask="url(#mask1_3601_1602)">
<path fill-rule="evenodd" clip-rule="evenodd" d="M12.8398 4.00197C14.3768 4.00197 15.9139 4.0022 17.451 4.00168C17.6282 4.00161 17.8035 4.01448 17.9469 4.12697C18.1431 4.28068 18.2188 4.48236 18.1674 4.72298C18.1141 4.97254 17.9561 5.12287 17.6981 5.17848C17.5975 5.20015 17.4967 5.19763 17.3956 5.19763C14.4003 5.19793 11.4049 5.19773 8.40951 5.19812C8.11717 5.19816 7.83936 5.23925 7.60627 5.43638C7.35033 5.6529 7.24196 5.92764 7.24182 6.2475C7.2408 8.41438 7.23776 10.5812 7.24334 12.748C7.245 13.3939 7.6667 13.8001 8.33571 13.8012C11.1115 13.8057 13.8873 13.8055 16.663 13.8014C17.34 13.8004 17.7579 13.3923 17.7604 12.7363C17.7657 11.3643 17.7622 9.99231 17.7619 8.62035C17.7619 8.2757 17.6478 7.98328 17.3611 7.76014C17.1297 7.58001 16.8603 7.55077 16.5813 7.55067C14.1321 7.54991 11.6829 7.55024 9.23368 7.55005C9.16052 7.55005 9.08681 7.55273 9.0143 7.54533C8.67026 7.51029 8.43842 7.26869 8.43968 6.95056C8.44093 6.63224 8.67392 6.3925 9.01772 6.35858C9.07913 6.35255 9.14149 6.35445 9.20338 6.35445C11.6864 6.35426 14.1694 6.35236 16.6524 6.35524C17.6952 6.35642 18.4322 6.82066 18.8455 7.74934C18.9602 8.00685 18.9998 8.28179 18.9995 8.56275C18.9982 9.97286 19.0024 11.3829 18.9979 12.793C18.9938 14.0449 18.0123 14.9962 16.7177 14.998C13.9081 15.0018 11.0985 14.9989 8.28899 14.9999C8.08481 14.9999 7.88537 14.9748 7.68766 14.9275C6.74689 14.7027 6.01529 13.8502 6.01018 12.9108C5.99775 10.6406 5.99545 8.37017 6.01035 6.09998C6.01786 4.95263 7.02566 4.01222 8.22849 4.00486C9.76554 3.99546 11.3027 4.0026 12.8398 4.0026V4.00197Z" fill="white"/>
</g>
<path fill-rule="evenodd" clip-rule="evenodd" d="M16.5651 10.6785C16.5645 11.145 16.2298 11.469 15.7476 11.4696C15.2566 11.4703 14.9223 11.1439 14.9252 10.6669C14.928 10.2033 15.2667 9.88235 15.7511 9.88392C16.2317 9.88552 16.5656 10.2114 16.5651 10.6785Z" fill="white"/>
</g>
</svg>
