<svg viewBox="0 0 18 18" fill="none" xmlns="http://www.w3.org/2000/svg">
<circle cx="9" cy="9" r="8.5" stroke="white"/>
<mask id="mask0_3601_2112" style="mask-type:alpha" maskUnits="userSpaceOnUse" x="0" y="0" width="18" height="18">
<circle cx="9" cy="9" r="8.5" fill="white" stroke="white"/>
</mask>
<g mask="url(#mask0_3601_2112)">
<mask id="mask1_3601_2112" style="mask-type:alpha" maskUnits="userSpaceOnUse" x="3" y="5" width="12" height="8">
<path fill-rule="evenodd" clip-rule="evenodd" d="M3.3974 5H14.6019V12.1574H3.3974V5Z" fill="white"/>
</mask>
<g mask="url(#mask1_3601_2112)">
<path fill-rule="evenodd" clip-rule="evenodd" d="M9.00726 5.00054C10.5019 5.00054 11.9966 4.9992 13.4913 5.00138C13.9223 5.002 14.262 5.17759 14.4728 5.57437C14.5575 5.73372 14.5983 5.90769 14.5984 6.08849C14.5996 8.05551 14.5982 10.0225 14.6019 11.9896C14.6021 12.1244 14.5531 12.158 14.4308 12.1559C14.0766 12.1498 13.7221 12.1466 13.3682 12.1571C13.2166 12.1616 13.1813 12.106 13.1816 11.9604C13.1857 10.1965 13.1843 8.4326 13.1842 6.66872C13.1842 6.44564 13.184 6.44552 12.96 6.44552C10.3201 6.4455 7.68014 6.4455 5.04021 6.44552C4.81558 6.44552 4.81549 6.44564 4.81549 6.68305C4.81546 8.43209 4.81552 10.1811 4.8154 11.9301C4.81537 12.1532 4.815 12.1536 4.60302 12.1538C4.26333 12.154 3.92352 12.1486 3.584 12.1564C3.44949 12.1594 3.39711 12.1236 3.3974 11.9752C3.40163 10.023 3.39839 8.07086 3.40137 6.1187C3.40236 5.45856 3.85632 5.00236 4.5087 5.00132C6.00822 4.9989 7.50774 5.00054 9.00726 5.00054Z" fill="white"/>
</g>
<path fill-rule="evenodd" clip-rule="evenodd" d="M9.00319 12.8218C11.1672 12.8218 13.3312 12.8219 15.4952 12.8213C15.5929 12.8213 15.6906 12.8207 15.7814 12.8611C15.896 12.9121 15.979 13.0027 15.9879 13.1289C16.015 13.5169 16.0125 13.9023 15.8077 14.2532C15.5691 14.6618 15.2215 14.9045 14.7597 14.9716C14.6062 14.9939 14.4512 15.0001 14.2955 15.0001C10.7293 14.9988 7.16304 14.9998 3.59676 14.998C3.19054 14.9978 2.80993 14.9166 2.49094 14.6261C2.18695 14.3492 2.03412 14.0056 2.00569 13.5986C1.99676 13.4704 2.00015 13.3411 2.0037 13.2124C2.00971 12.9948 2.13897 12.8517 2.35124 12.8264C2.41357 12.8189 2.47721 12.8219 2.54023 12.8219C4.69455 12.8217 6.84887 12.8217 9.00319 12.8218Z" fill="white"/>
</g>
</svg>
