<svg viewBox="0 0 35 35" fill="none" xmlns="http://www.w3.org/2000/svg">
<rect x="0.75" y="0.75" width="33.5" height="33.5" rx="6.25" fill="" fill-opacity="0.15" stroke="#F1F1F1" stroke-width="1.5"/>
<mask id="mask0_3407_588" style="mask-type:alpha" maskUnits="userSpaceOnUse" x="0" y="0" width="35" height="35">
<rect x="0.75" y="0.75" width="33.5" height="33.5" rx="6.25" fill="white" stroke="white" stroke-width="1.5"/>
</mask>
<g mask="url(#mask0_3407_588)">
<path fill-rule="evenodd" clip-rule="evenodd" d="M37.7658 19.7215L37.4166 19.2908C36.6308 18.4294 35.8449 17.4819 35.0591 16.6205C34.448 16.0175 33.7495 15.6729 32.789 15.6729C32.7017 15.6729 32.6144 15.6729 32.4398 15.6729C31.4793 15.7591 30.7808 16.2759 30.257 16.7927C30.1696 16.8789 30.1696 16.8789 30.1696 16.965C30.1696 16.965 30.0823 16.8789 29.995 16.7927L21.0019 6.45596C20.3034 5.6807 19.4302 5.25 18.5571 5.25C17.7713 5.25 17.0728 5.50842 16.4616 6.02526C13.0564 8.86788 9.73858 11.7966 6.42071 14.6392C5.28565 15.5868 4.9364 17.0512 5.54759 18.3433C5.72221 18.6878 5.98415 19.0324 6.24608 19.2908L15.2392 29.4553C15.2392 29.5415 15.3266 29.5415 15.3266 29.6276C15.2392 29.7137 15.1519 29.7999 14.9773 29.886L14.89 30.1444C13.493 31.3504 13.3184 33.2455 14.5408 34.6237L16.8982 37.294C17.0728 37.4663 17.2474 37.6386 17.4221 37.8109C17.9459 38.2416 18.6444 38.5 19.3429 38.5C20.1287 38.5 20.8272 38.2416 21.4384 37.7247C23.272 36.1742 25.1055 34.5376 27.0264 32.987L36.6308 24.7176C36.98 24.4592 37.3293 24.1146 37.5912 23.8562C38.7262 22.8225 38.8136 20.9275 37.7658 19.7215ZM18.0332 7.8342C18.2079 7.66192 18.3825 7.66192 18.5571 7.66192C18.7317 7.66192 18.9937 7.74806 19.1683 7.92034C19.6922 8.52332 20.216 9.1263 20.7399 9.72927C20.7399 9.72927 20.7399 9.72927 20.7399 9.81541C20.7399 9.81541 20.7399 9.81541 20.6526 9.81541C19.9541 10.0738 19.3429 10.2461 18.6444 10.2461C17.7713 10.2461 16.8982 9.98769 16.1124 9.47085C16.3743 9.29858 16.5489 9.1263 16.8109 8.86788L17.4221 8.35104C17.5967 8.17876 17.8586 8.00648 18.0332 7.8342ZM11.1356 21.1859C12.8818 18.9462 13.1438 15.9313 11.6594 13.5194C11.5721 13.4333 11.5721 13.4333 11.6594 13.3472C12.5326 12.658 13.4057 11.8828 14.1915 11.1937C14.2788 11.1075 14.2788 11.1075 14.2788 11.1075C14.2788 11.1075 14.2788 11.1075 14.3661 11.1937C15.6758 12.1412 17.1601 12.658 18.6444 12.658C19.6049 12.658 20.5653 12.4858 21.5257 12.0551C21.7877 11.9689 22.0496 11.7966 22.3115 11.7105L30.7808 21.3582C30.8681 21.4443 30.8681 21.4443 30.9555 21.4443C30.9555 21.4443 30.8681 21.5304 30.7808 21.6166L19.7795 31.092C19.6922 31.1781 19.6922 31.1781 19.6922 31.1781C19.6922 31.1781 19.6049 31.092 19.6049 31.0058L17.8586 29.0246C15.6758 26.5266 13.4057 24.0285 11.2229 21.4443C11.0483 21.272 11.0483 21.272 11.1356 21.1859ZM16.3743 32.0395C16.4616 31.9534 16.4616 31.9534 16.5489 31.8672C16.6362 31.7811 16.7236 31.6949 16.8109 31.6088C16.8982 31.5227 16.8982 31.5227 16.8982 31.5227C16.8982 31.5227 16.8982 31.5227 16.9855 31.6088C17.5094 32.2118 18.0332 32.8148 18.5571 33.4177C18.8191 33.7623 19.1683 33.9346 19.5176 33.9346C19.6922 33.9346 19.9541 33.8484 20.1287 33.7623C20.216 33.6762 20.3907 33.59 20.3907 33.5039L33.3129 22.478C33.9241 21.9611 34.0114 21.272 33.4002 20.5829L32.9636 20.1522C32.6144 19.7215 32.1778 19.2908 31.8286 18.8601C31.7413 18.774 31.7413 18.774 31.7413 18.774C31.7413 18.774 31.7413 18.774 31.8286 18.6878C31.9159 18.6017 32.0032 18.5155 32.0905 18.4294C32.1778 18.3433 32.1778 18.3433 32.2651 18.2571C32.4398 18.171 32.6144 18.0848 32.789 18.0848C32.9636 18.0848 33.1383 18.171 33.3129 18.3433C34.186 19.2908 35.0591 20.2383 35.8449 21.272C36.1069 21.5304 36.1069 21.9611 35.7576 22.2196C35.6703 22.3057 35.583 22.3918 35.4957 22.478L20.0414 35.7435C19.9541 35.8297 19.8668 35.9158 19.7795 35.9158C19.6049 36.0019 19.5176 36.0881 19.3429 36.0881C19.1683 36.0881 18.9937 36.0019 18.8191 35.8297C17.9459 34.8821 17.1601 33.9346 16.287 32.987C16.0251 32.7286 16.0251 32.2979 16.3743 32.0395ZM7.90502 16.5343C8.07964 16.362 8.34158 16.1898 8.5162 16.0175L9.12739 15.5006C9.30201 15.3284 9.56395 15.1561 9.82589 14.8977C10.4371 16.2759 10.4371 17.568 9.73858 18.9462C9.65126 19.1185 9.56395 19.2047 9.47664 19.3769L9.38933 19.4631C9.2147 19.2047 8.95277 18.9462 8.69083 18.6878C8.34158 18.3433 7.99233 17.9126 7.73039 17.568C7.55577 17.3096 7.55577 16.8789 7.90502 16.5343Z" fill="#F1F1F1"/>
<path fill-rule="evenodd" clip-rule="evenodd" d="M20.3907 25.5791C21.613 25.5791 22.7481 25.1484 23.7085 24.3731C24.7563 23.5117 25.3675 22.3057 25.4548 20.9275C25.5421 19.6354 25.1055 18.3433 24.2324 17.3958C23.3593 16.276 21.875 15.673 20.3907 15.673C19.1683 15.673 18.0332 16.1037 17.0728 16.8789C16.0251 17.7403 15.4139 18.9463 15.3266 20.2384C15.2393 21.6166 15.6758 22.9087 16.5489 23.8563C17.5094 24.9761 18.9064 25.5791 20.3907 25.5791ZM17.7713 20.4107C17.8586 19.7215 18.2079 19.0324 18.7317 18.6017C19.2556 18.171 19.7795 17.9988 20.3907 17.9988C21.1765 17.9988 21.875 18.3433 22.3989 18.9463C22.8354 19.4631 23.0974 20.1522 23.01 20.9275C22.9227 21.6166 22.5735 22.2196 22.0496 22.6503C21.5257 23.081 20.9145 23.2533 20.3034 23.2533C19.5176 23.2533 18.7317 22.9087 18.2079 22.2196C17.8586 21.7889 17.684 21.0998 17.7713 20.4107Z" fill="#F1F1F1"/>
</g>
</svg>
