<svg viewBox="0 0 264 267" fill="none" xmlns="http://www.w3.org/2000/svg">
<rect x="20" width="50" height="50" rx="12.5" fill="white" fill-opacity="0.02"/>
<rect x="21.5" y="1.5" width="47" height="47" rx="11" stroke="white" stroke-opacity="0.1" stroke-width="3"/>
<path opacity="0.1" fill-rule="evenodd" clip-rule="evenodd" d="M48.8243 26.8192L54.7831 23.3789C55.7693 22.8095 55.764 21.3939 54.7737 20.851L36.6618 10.9214C35.37 10.2132 33.9442 11.6554 34.6786 12.9274L41.1759 24.1811L35.217 27.6215C34.2308 28.1908 34.2362 29.6064 35.2265 30.1493L53.3384 40.0789C54.6301 40.7871 56.056 39.3449 55.3216 38.073L48.8243 26.8192Z" fill="white"/>
<path opacity="0.1" fill-rule="evenodd" clip-rule="evenodd" d="M160.507 112.548C160.555 113.967 160.196 115.563 159.706 117.143C142.944 171.186 126.181 225.229 109.427 279.274C104.379 295.557 99.3618 311.85 94.3122 328.133C93.3183 331.338 91.763 334.208 88.8529 336.091C84.7724 338.729 79.9702 338.615 76.1673 335.863C71.85 332.738 70.3952 328.418 72.0844 322.744C74.7805 313.689 77.6394 304.684 80.4353 295.66C99.4926 234.153 118.549 172.645 137.613 111.139C138.837 107.187 140.787 103.792 144.798 102.018C152.421 98.6473 160.651 104.026 160.507 112.548Z" fill="white"/>
<path opacity="0.1" fill-rule="evenodd" clip-rule="evenodd" d="M49.6439 276.531C49.5952 283.142 41.1055 288.619 33.8885 285.277C32.3295 284.555 30.8007 283.576 29.5502 282.403C10.6138 264.635 -8.2757 246.816 -27.1677 229.001C-28.4361 227.806 -29.699 226.59 -30.5195 225.01C-33.1378 219.961 -32.287 215.147 -27.937 211.055C-8.72298 192.984 10.4996 174.922 29.7439 156.883C36.8479 150.223 46.6647 152.274 49.209 160.908C50.383 164.892 49.4638 168.47 46.7042 171.488C41.5719 177.102 35.7294 181.981 30.1967 187.18C19.5014 197.228 8.73767 207.203 -2.0557 217.146C-3.6289 218.594 -3.71466 219.542 -2.1137 221.061C13.3721 235.756 28.7987 250.514 44.2358 265.261C47.091 267.988 49.7593 270.833 49.6439 276.531Z" fill="white"/>
<mask id="mask0_0_1" style="mask-type:alpha" maskUnits="userSpaceOnUse" x="182" y="152" width="82" height="135">
<path fill-rule="evenodd" clip-rule="evenodd" d="M182.407 152.798H264V286.28H182.407V152.798Z" fill="white"/>
</mask>
<g mask="url(#mask0_0_1)">
<path opacity="0.1" fill-rule="evenodd" clip-rule="evenodd" d="M263.991 219.103C263.975 223.251 262.135 226.223 259.422 228.788C250.246 237.457 241.097 246.157 231.907 254.812C222.793 263.395 213.642 271.938 204.507 280.499C203.684 281.271 202.907 282.098 202.047 282.826C196.435 287.579 190.279 287.415 185.599 282.41C181.026 277.522 181.356 271.546 186.654 266.318C191.329 261.704 196.138 257.226 200.893 252.693C211.887 242.212 222.849 231.697 233.914 221.291C235.734 219.579 235.64 218.57 233.867 216.93C218.343 202.578 202.886 188.155 187.42 173.741C185.385 171.844 183.536 169.858 182.847 166.969C181.745 162.345 183.322 158.042 187.546 154.866C191.092 152.201 195.277 152.097 199.332 154.638C203.108 157.006 206.012 160.401 209.229 163.395C226.133 179.125 242.914 194.988 259.69 210.854C262.1 213.133 264.156 215.732 263.991 219.103Z" fill="white"/>
</g>
</svg>
