<svg width="4" height="61" viewBox="0 0 4 61" fill="none" xmlns="http://www.w3.org/2000/svg">
<path opacity="0.6" fill-rule="evenodd" clip-rule="evenodd" d="M3.99628 2.58331L3.99973 2.34142C4.01762 1.05445 3.11694 0 2.00004 0C0.882932 0 -0.0177437 1.05445 0.000139711 2.34142L0.00359447 2.58331C0.00989432 3.03384 0.328545 3.39539 0.719542 3.39539H3.28033C3.67133 3.39539 3.99018 3.03384 3.99628 2.58331ZM3.83118 10.2777L3.85069 9.40753C3.87203 8.45214 3.20587 7.66441 2.37632 7.66441H1.62359C0.794043 7.66441 0.127884 8.45214 0.149223 9.40753L0.168732 10.2777C0.189257 11.1989 0.843223 11.9335 1.6431 11.9335H2.35681C3.15669 11.9335 3.81066 11.1989 3.83118 10.2777ZM3.66155 17.8715L3.639 18.886C3.61928 19.7683 2.99296 20.4715 2.22702 20.4715H1.77282C1.00688 20.4715 0.380752 19.7683 0.36104 18.886L0.338279 17.8715C0.317957 16.9569 0.955868 16.2024 1.75006 16.2024H2.24978C3.04396 16.2024 3.68208 16.9569 3.66155 17.8715ZM3.44506 27.5644L3.47412 26.2619C3.49282 25.4281 2.9112 24.7406 2.18712 24.7406H1.81279C1.08871 24.7406 0.507095 25.4281 0.525791 26.2619L0.554852 27.5644C0.572939 28.3683 1.14379 29.0094 1.84185 29.0094H2.15806C2.85613 29.0094 3.42718 28.3683 3.44506 27.5644ZM3.28667 34.6487L3.25111 36.2461C3.23485 36.9702 2.7207 37.5474 2.09214 37.5474H1.90782C1.27925 37.5474 0.765104 36.9702 0.748847 36.2461L0.713283 34.6487C0.696416 33.8977 1.22012 33.2783 1.87205 33.2783H2.1279C2.77984 33.2783 3.30354 33.8977 3.28667 34.6487ZM3.05602 44.9728L3.10032 42.988C3.11475 42.346 2.66685 41.8165 2.10941 41.8165H1.89054C1.33311 41.8165 0.885208 42.346 0.899637 42.988L0.943939 44.9728C0.957758 45.5917 1.39733 46.0856 1.93505 46.0856H2.06491C2.60263 46.0856 3.0422 45.5917 3.05602 44.9728ZM2.91299 51.3736L2.86198 53.6556C2.84999 54.1941 2.46753 54.6236 1.99992 54.6236C1.53251 54.6236 1.15005 54.1941 1.13806 53.6556L1.08705 51.3736C1.07445 50.8151 1.46402 50.3543 1.94891 50.3543H2.05092C2.53601 50.3543 2.92559 50.8151 2.91299 51.3736ZM2.71586 60.1962L2.72603 59.7389C2.73639 59.2752 2.41286 58.8926 2.01028 58.8926H1.98976C1.58717 58.8926 1.26344 59.2752 1.27381 59.7389L1.28417 60.1962C1.29413 60.6434 1.61176 61.0001 1.99992 61.0001C2.38827 61.0001 2.7057 60.6434 2.71586 60.1962Z" fill="url(#paint0_linear_2_772)"/>
<defs>
<linearGradient id="paint0_linear_2_772" x1="-0.00012207" y1="0" x2="-0.00012207" y2="61.0001" gradientUnits="userSpaceOnUse">
<stop stop-color="white"/>
<stop offset="1" stop-color="white" stop-opacity="0.01"/>
</linearGradient>
</defs>
</svg>
