<svg width="4" height="61" viewBox="0 0 4 61" fill="none" xmlns="http://www.w3.org/2000/svg">
<path fill-rule="evenodd" clip-rule="evenodd" d="M3.99631 2.58331L3.99976 2.34142C4.01765 1.05445 3.11697 0 2.00007 0C0.882963 0 -0.0177132 1.05445 0.000170229 2.34142L0.00362499 2.58331C0.00992484 3.03384 0.328575 3.39539 0.719573 3.39539H3.28036C3.67136 3.39539 3.99021 3.03384 3.99631 2.58331ZM3.83121 10.2777L3.85072 9.40753C3.87206 8.45214 3.2059 7.66441 2.37635 7.66441H1.62362C0.794074 7.66441 0.127915 8.45214 0.149253 9.40753L0.168762 10.2777C0.189288 11.1989 0.843253 11.9335 1.64313 11.9335H2.35684C3.15672 11.9335 3.81069 11.1989 3.83121 10.2777ZM3.66158 17.8715L3.63903 18.886C3.61931 19.7683 2.99299 20.4715 2.22705 20.4715H1.77285C1.00691 20.4715 0.380783 19.7683 0.36107 18.886L0.33831 17.8715C0.317988 16.9569 0.955899 16.2024 1.75009 16.2024H2.24981C3.04399 16.2024 3.68211 16.9569 3.66158 17.8715ZM3.44509 27.5644L3.47415 26.2619C3.49285 25.4281 2.91123 24.7406 2.18715 24.7406H1.81282C1.08874 24.7406 0.507125 25.4281 0.525822 26.2619L0.554882 27.5644C0.572969 28.3683 1.14382 29.0094 1.84188 29.0094H2.15809C2.85616 29.0094 3.42721 28.3683 3.44509 27.5644ZM3.2867 34.6487L3.25114 36.2461C3.23488 36.9702 2.72073 37.5474 2.09217 37.5474H1.90785C1.27928 37.5474 0.765135 36.9702 0.748877 36.2461L0.713314 34.6487C0.696446 33.8977 1.22015 33.2783 1.87208 33.2783H2.12794C2.77987 33.2783 3.30357 33.8977 3.2867 34.6487ZM3.05605 44.9728L3.10035 42.988C3.11478 42.346 2.66688 41.8165 2.10944 41.8165H1.89057C1.33314 41.8165 0.885239 42.346 0.899667 42.988L0.943969 44.9728C0.957788 45.5917 1.39736 46.0856 1.93508 46.0856H2.06494C2.60266 46.0856 3.04223 45.5917 3.05605 44.9728ZM2.91302 51.3736L2.86201 53.6556C2.85002 54.1941 2.46756 54.6236 1.99995 54.6236C1.53254 54.6236 1.15008 54.1941 1.13809 53.6556L1.08708 51.3736C1.07448 50.8151 1.46405 50.3543 1.94894 50.3543H2.05096C2.53604 50.3543 2.92562 50.8151 2.91302 51.3736ZM2.71589 60.1962L2.72606 59.7389C2.73642 59.2752 2.41289 58.8926 2.01031 58.8926H1.98979C1.5872 58.8926 1.26347 59.2752 1.27384 59.7389L1.2842 60.1962C1.29416 60.6434 1.61179 61.0001 1.99995 61.0001C2.3883 61.0001 2.70573 60.6434 2.71589 60.1962Z" fill="url(#paint0_linear_2_754)"/>
<defs>
<linearGradient id="paint0_linear_2_754" x1="-9.15527e-05" y1="0" x2="-9.15527e-05" y2="61.0001" gradientUnits="userSpaceOnUse">
<stop stop-color="white"/>
<stop offset="1" stop-color="white" stop-opacity="0.01"/>
</linearGradient>
</defs>
</svg>
