<svg width="19" height="20" viewBox="0 0 19 20" fill="none" xmlns="http://www.w3.org/2000/svg">
<mask id="mask0_2_842" style="mask-type:alpha" maskUnits="userSpaceOnUse" x="0" y="0" width="19" height="20">
<path fill-rule="evenodd" clip-rule="evenodd" d="M0 0H19V20H0V0Z" fill="white"/>
</mask>
<g mask="url(#mask0_2_842)">
<path fill-rule="evenodd" clip-rule="evenodd" d="M17.0533 5.29978C17.1116 5.06252 16.9972 4.99228 16.8433 4.92907C14.4686 3.9537 12.0952 2.97498 9.72231 1.99517C9.58584 1.93885 9.45797 1.92283 9.31643 1.98128C6.91937 2.97138 4.52178 3.96027 2.12245 4.94494C1.97632 5.00491 1.92252 5.08617 1.93487 5.23997C1.99258 5.95695 2.03133 6.67467 2.12826 7.3891C2.508 10.1881 3.52086 12.7184 5.35382 14.9062C6.41862 16.1772 7.64719 17.2473 9.17141 17.9593C9.39694 18.0646 9.59286 18.0774 9.81914 17.9639C10.3288 17.7085 10.8307 17.4431 11.292 17.1067C13.0576 15.8193 14.3983 14.183 15.3866 12.2547C16.5151 10.0529 17.0085 7.70276 17.0533 5.29978ZM-3.05176e-05 5.3659C0.0127984 5.08799 -0.0206202 4.84453 0.0311708 4.60351C0.18269 3.89869 0.655408 3.48274 1.29902 3.21813C1.8825 2.97827 2.46508 2.73632 3.0484 2.49603C4.91172 1.72837 6.77799 0.967703 8.63687 0.18976C9.22151 -0.0549062 9.77975 -0.0671708 10.368 0.177287C12.8115 1.19259 15.2613 2.19312 17.7075 3.2019C18.6278 3.58143 19.0223 4.154 18.999 5.13512C18.9328 7.93198 18.4823 10.6515 17.1291 13.1478C15.8528 15.5021 14.2267 17.5732 11.9069 19.0305C11.5591 19.249 11.195 19.4421 10.8365 19.6436C9.89099 20.1752 8.97581 20.0743 8.03116 19.5905C5.54097 18.3148 3.79671 16.3198 2.37016 13.9969C1.19348 12.0809 0.518671 10.0003 0.215792 7.79033C0.103815 6.97361 0.0194505 6.15491 -3.05176e-05 5.3659Z" fill="#E3E3E3"/>
</g>
<path fill-rule="evenodd" clip-rule="evenodd" d="M5.69033 10.2841C5.71762 9.87995 5.90309 9.57793 6.28622 9.41019C6.67119 9.24172 7.0049 9.3379 7.29601 9.6179C7.64814 9.95662 8.00181 10.2939 8.3464 10.6399C8.46946 10.7636 8.54316 10.7592 8.65714 10.6237C9.57698 9.53049 10.505 8.444 11.4277 7.35317C11.651 7.0892 11.8784 6.83034 12.2602 6.82199C12.6399 6.81369 12.9778 6.91781 13.1712 7.27499C13.386 7.67132 13.3715 8.06009 13.0785 8.41701C12.8741 8.66601 12.6582 8.90588 12.4469 9.14934C11.4132 10.3404 10.3804 11.5323 9.34484 12.7216C8.88738 13.2469 8.29075 13.262 7.79185 12.7683C7.19654 12.1793 6.6025 11.5891 6.00435 11.003C5.80077 10.8036 5.67755 10.5761 5.69033 10.2841Z" fill="#E3E3E3"/>
</svg>
