<svg width="18" height="15" viewBox="0 0 18 15" fill="none" xmlns="http://www.w3.org/2000/svg">
<mask id="mask0_2_817" style="mask-type:alpha" maskUnits="userSpaceOnUse" x="0" y="0" width="18" height="15">
<path fill-rule="evenodd" clip-rule="evenodd" d="M0 0H18V15H0V0Z" fill="white"/>
</mask>
<g mask="url(#mask0_2_817)">
<path fill-rule="evenodd" clip-rule="evenodd" d="M9.47044 0.00266112C11.5987 0.00266112 13.7269 0.0029737 15.8552 0.00225924C16.1006 0.00216993 16.3432 0.0197189 16.5419 0.173105C16.8134 0.382709 16.9183 0.657732 16.8471 0.985847C16.7734 1.32615 16.5546 1.53116 16.1973 1.60698C16.0581 1.63654 15.9185 1.6331 15.7785 1.6331C11.6311 1.63351 7.48369 1.63324 3.33623 1.63377C2.93146 1.63382 2.54679 1.68986 2.22405 1.95867C1.86967 2.25392 1.71962 2.62857 1.71943 3.06475C1.71802 6.01958 1.7138 8.97436 1.72154 11.9291C1.72383 12.8099 2.30772 13.3637 3.23404 13.3652C7.07741 13.3714 10.9208 13.3711 14.7642 13.3655C15.7016 13.3641 16.2801 12.8077 16.2836 11.9131C16.291 10.0422 16.286 8.17131 16.2858 6.30045C16.2857 5.83047 16.1276 5.43171 15.7307 5.12744C15.4103 4.8818 15.0374 4.84192 14.651 4.84179C11.2598 4.84076 7.86864 4.84121 4.47738 4.84094C4.37608 4.84094 4.27404 4.8446 4.17363 4.83451C3.69727 4.78673 3.37626 4.45727 3.378 4.02346C3.37973 3.58938 3.70233 3.26247 4.17836 3.21621C4.26339 3.208 4.34974 3.21059 4.43543 3.21059C7.87342 3.21032 11.3114 3.20773 14.7494 3.21166C16.1933 3.21327 17.2138 3.84632 17.7861 5.1127C17.9448 5.46386 17.9996 5.83877 17.9993 6.2219C17.9975 8.14478 18.0033 10.0676 17.997 11.9905C17.9914 13.6976 16.6324 14.9948 14.8399 14.9972C10.9497 15.0025 7.05951 14.9984 3.16935 14.9998C2.88664 14.9999 2.6105 14.9656 2.33674 14.9012C1.03415 14.5946 0.0211533 13.432 0.014075 12.151C-0.00312856 9.05532 -0.00631613 5.95929 0.0143094 2.86358C0.0247159 1.299 1.42012 0.0166377 3.08559 0.00659065C5.21381 -0.00622497 7.34217 0.00350954 9.47044 0.00350954V0.00266112Z" fill="#E3E3E3"/>
</g>
<path fill-rule="evenodd" clip-rule="evenodd" d="M14.6286 9.10706C14.6279 9.7432 14.1644 10.185 13.4967 10.1859C12.8169 10.1868 12.354 9.74172 12.358 9.09125C12.362 8.45909 12.8308 8.02139 13.5016 8.02354C14.1671 8.02572 14.6293 8.47016 14.6286 9.10706" fill="#E3E3E3"/>
</svg>
