<svg width="18" height="14" viewBox="0 0 18 14" fill="none" xmlns="http://www.w3.org/2000/svg">
<g opacity="0.4">
<mask id="mask0_2_863" style="mask-type:alpha" maskUnits="userSpaceOnUse" x="0" y="0" width="12" height="11">
<path fill-rule="evenodd" clip-rule="evenodd" d="M0 0H11.7104V10.5024H0V0Z" fill="white"/>
</mask>
<g mask="url(#mask0_2_863)">
<path fill-rule="evenodd" clip-rule="evenodd" d="M10.3376 4.38903C10.3376 3.55263 10.3398 2.71616 10.3366 1.87976C10.3351 1.49188 10.1761 1.34113 9.77938 1.33384C9.75444 1.33336 9.7295 1.33358 9.70457 1.33358C7.14145 1.33358 4.57837 1.3334 2.01526 1.33438C1.92856 1.33442 1.84129 1.34241 1.7553 1.35375C1.54961 1.38088 1.43373 1.50289 1.39754 1.69615C1.38202 1.77889 1.37587 1.86433 1.37579 1.94857C1.37456 3.56689 1.37463 5.18521 1.37504 6.80353C1.37516 7.28647 1.51496 7.42402 2.00566 7.42464C2.6293 7.42537 3.25294 7.42796 3.87651 7.42282C4.02134 7.42161 4.07853 7.46803 4.0726 7.61171C4.06379 7.82349 4.06975 8.0359 4.07076 8.24802C4.0717 8.4422 4.07751 8.44504 4.24848 8.35042C4.73607 8.0805 5.22519 7.81328 5.71023 7.53914C5.85536 7.45713 6.00236 7.42165 6.17097 7.42234C7.35584 7.42701 8.54072 7.4254 9.72564 7.42449C10.1969 7.42409 10.3369 7.28673 10.3375 6.82559C10.3384 6.0134 10.3377 5.20122 10.3376 4.38903ZM5.86398 0.00180373C7.18027 0.00165787 8.49659 -0.000457102 9.81287 0.00246011C10.5791 0.00417397 11.154 0.330245 11.5184 0.988476C11.6472 1.22123 11.7057 1.47802 11.7061 1.74137C11.709 3.49359 11.7149 5.24592 11.7046 6.99811C11.6989 7.97891 10.8988 8.74613 9.8866 8.75423C8.77001 8.7632 7.65326 8.75828 6.5366 8.75481C6.38746 8.75434 6.25981 8.78927 6.13039 8.86158C5.20588 9.37829 4.27799 9.88931 3.35104 10.4019C3.31313 10.4229 3.27462 10.4433 3.23483 10.4605C2.95766 10.5807 2.70738 10.4328 2.70232 10.1374C2.69579 9.75549 2.69133 9.37315 2.704 8.99158C2.71 8.81166 2.66114 8.7469 2.46565 8.75179C2.15503 8.75952 1.84253 8.77983 1.53221 8.72739C0.658326 8.57971 0.0145849 7.87976 0.00903471 7.01962C-0.00240307 5.25529 -0.0035656 3.49082 0.00892221 1.72653C0.0157099 0.765529 0.829705 0.00898736 1.84021 0.00366345C3.18143 -0.00337431 4.52272 0.00191313 5.86398 0.00180373Z" fill="white"/>
</g>
<mask id="mask1_2_863" style="mask-type:alpha" maskUnits="userSpaceOnUse" x="7" y="3" width="11" height="11">
<path fill-rule="evenodd" clip-rule="evenodd" d="M7.19162 3.49208H18V14H7.19162V3.49208Z" fill="white"/>
</mask>
<g mask="url(#mask1_2_863)">
<path fill-rule="evenodd" clip-rule="evenodd" d="M17.9979 7.87484C17.9981 8.71175 17.9993 9.54866 17.9978 10.3856C17.9957 11.4935 17.2192 12.2469 16.0788 12.25C15.8978 12.2504 15.7157 12.2626 15.5362 12.2467C15.3388 12.2293 15.2923 12.307 15.2986 12.4858C15.3115 12.8492 15.3041 13.2134 15.3018 13.5773C15.2994 13.9554 15.0457 14.1067 14.7041 13.9203C13.7521 13.4009 12.8043 12.8744 11.8572 12.3467C11.7392 12.281 11.6225 12.2477 11.4861 12.2483C10.6937 12.2519 9.90124 12.2513 9.10877 12.2497C7.96964 12.2475 7.19581 11.4923 7.19296 10.3823C7.19247 10.1821 7.19708 9.9819 7.19179 9.78189C7.18857 9.66116 7.22993 9.60482 7.36306 9.6069C7.70616 9.61219 8.04944 9.61219 8.39257 9.6069C8.52514 9.60482 8.56774 9.6601 8.56436 9.78138C8.55896 9.9753 8.56155 10.1695 8.5638 10.3635C8.56841 10.7617 8.72326 10.9159 9.13235 10.9171C10.0434 10.9198 10.9544 10.9197 11.8654 10.9164C12.007 10.9158 12.1322 10.9415 12.2563 11.0116C12.7578 11.2951 13.2647 11.5694 13.7663 11.8525C13.8905 11.9225 13.94 11.9179 13.934 11.7625C13.9259 11.5505 13.9402 11.3376 13.9295 11.1259C13.9215 10.9685 13.9761 10.913 14.1422 10.9151C14.7474 10.9229 15.3527 10.9181 15.958 10.918C16.0141 10.918 16.0704 10.9197 16.1264 10.9165C16.467 10.8968 16.606 10.7615 16.6259 10.4287C16.6302 10.3562 16.6276 10.2833 16.6276 10.2105C16.6277 8.62763 16.6278 7.04475 16.6271 5.46187C16.6271 5.38329 16.6277 5.3034 16.6142 5.22642C16.5656 4.95049 16.4212 4.83475 16.104 4.82888C15.7547 4.82246 15.4051 4.82691 15.0557 4.82687C14.307 4.82676 13.5581 4.82319 12.8094 4.82957C12.6439 4.83095 12.574 4.78814 12.5809 4.61545C12.5931 4.30662 12.5889 3.99689 12.5823 3.68774C12.5794 3.55158 12.6204 3.49217 12.7722 3.49276C13.9203 3.49746 15.0686 3.48463 16.2165 3.49961C17.2044 3.51249 17.9879 4.2939 17.9962 5.25493C18.0037 6.1282 17.9978 7.00154 17.9979 7.87484Z" fill="white"/>
</g>
<path fill-rule="evenodd" clip-rule="evenodd" d="M4.83932 5.16495C4.98194 5.18234 5.13224 5.20171 5.2824 5.2544C5.5581 5.35114 5.8457 5.40744 6.14334 5.35756C6.24883 5.33984 6.34341 5.29808 6.35879 5.18687C6.37439 5.0735 6.2734 5.02974 6.18681 5.00027C5.95183 4.92038 5.71298 4.85124 5.47617 4.77631C5.24943 4.70458 5.04577 4.58753 4.83752 4.47696C4.23567 4.15746 4.25941 3.45995 4.48554 3.04545C4.63254 2.77594 4.86711 2.59744 5.16761 2.51591C5.31367 2.47627 5.364 2.40928 5.3655 2.26186C5.36869 1.95001 5.58589 1.72374 5.85534 1.72374C6.12714 1.72374 6.34637 1.94851 6.34652 2.26021C6.34664 2.42099 6.40975 2.48878 6.56133 2.51955C6.65767 2.5391 6.75352 2.57502 6.84079 2.6198C7.07386 2.73944 7.17608 2.99623 7.09017 3.22242C7.00767 3.4396 6.79084 3.55396 6.52698 3.50415C6.33167 3.46725 6.14327 3.40081 5.94294 3.38166C5.80415 3.36839 5.66892 3.37492 5.53452 3.40573C5.43604 3.4283 5.3595 3.48132 5.35039 3.58557C5.34184 3.68374 5.42651 3.71816 5.50065 3.74876C5.71328 3.83653 5.93203 3.9088 6.15752 3.95737C6.50144 4.03143 6.79504 4.20052 7.06347 4.41151C7.28416 4.58497 7.343 4.83677 7.35489 5.0961C7.37836 5.60797 7.07689 6.05412 6.58139 6.2228C6.41613 6.27907 6.33745 6.34719 6.34506 6.52831C6.3532 6.72073 6.2662 6.88716 6.07071 6.96618C5.88646 7.04068 5.70421 7.02784 5.54003 6.90554C5.397 6.79899 5.35732 6.64551 5.36434 6.48455C5.3706 6.34142 5.30752 6.2814 5.17312 6.24508C4.95779 6.18689 4.73668 6.13755 4.54757 6.01167C4.35965 5.88656 4.28937 5.67834 4.36104 5.46681C4.42003 5.29251 4.62426 5.16039 4.83932 5.16495Z" fill="white"/>
</g>
</svg>
