<svg width="16" height="16" viewBox="0 0 16 16" fill="none" xmlns="http://www.w3.org/2000/svg">
<g opacity="0.6">
<mask id="mask0_2_850" style="mask-type:alpha" maskUnits="userSpaceOnUse" x="0" y="0" width="16" height="9">
<path fill-rule="evenodd" clip-rule="evenodd" d="M0.0150757 0H15.9972V8.01017H0.0150757V0Z" fill="white"/>
</mask>
<g mask="url(#mask0_2_850)">
<path fill-rule="evenodd" clip-rule="evenodd" d="M7.99908 6.47672C8.1282 6.46408 8.24467 6.42176 8.35976 6.37239C10.1217 5.61621 11.884 4.86099 13.6454 4.10356C13.6979 4.08096 13.7852 4.07575 13.7791 3.99636C13.7746 3.93678 13.6991 3.92702 13.6501 3.90592C11.882 3.14666 10.1125 2.39064 8.3461 1.62742C8.10563 1.52347 7.88986 1.52906 7.65005 1.63284C5.89044 2.39427 4.12716 3.14711 2.3658 3.90454C2.31321 3.92714 2.22602 3.93206 2.23176 4.01141C2.23609 4.07108 2.3115 4.08109 2.36051 4.10215C4.13507 4.86404 5.91009 5.6248 7.68495 6.38603C7.78713 6.42981 7.89036 6.4688 7.99908 6.47672ZM7.97114 8.00996C7.67379 8.01501 7.36803 7.9282 7.07363 7.8016C4.98761 6.90445 2.90529 5.99862 0.816176 5.10872C-0.0847006 4.72502 -0.13725 3.85034 0.224516 3.33955C0.370672 3.13323 0.577372 3.00718 0.800519 2.91073C2.8975 2.00399 4.99623 1.10133 7.09416 0.196705C7.69919 -0.0642357 8.30455 -0.0660287 8.90887 0.193995C11.0138 1.09974 13.1176 2.0082 15.2228 2.91336C16.104 3.29222 16.1466 4.16569 15.7801 4.67686C15.6334 4.88168 15.4242 5.00493 15.2007 5.1015C13.1099 6.00508 11.0183 6.90695 8.92548 7.80577C8.63142 7.93203 8.32374 8.0143 7.97114 8.00996Z" fill="white"/>
</g>
<mask id="mask1_2_850" style="mask-type:alpha" maskUnits="userSpaceOnUse" x="0" y="6" width="16" height="7">
<path fill-rule="evenodd" clip-rule="evenodd" d="M0.000671387 6.633H16V12.0052H0.000671387V6.633Z" fill="white"/>
</mask>
<g mask="url(#mask1_2_850)">
<path fill-rule="evenodd" clip-rule="evenodd" d="M7.93226 12.005C7.68455 12.0097 7.39024 11.9308 7.10867 11.8104C5.00778 10.9122 2.90726 10.013 0.809114 9.1083C0.129802 8.81542 -0.173876 8.14652 0.102237 7.50688C0.295903 7.05805 0.667372 6.77518 1.13982 6.65517C1.44412 6.57787 1.70662 6.7093 1.89062 6.94614C2.07671 7.1856 2.08229 7.47081 1.93006 7.72871C1.83932 7.88241 1.88771 7.92089 2.021 7.97739C3.91436 8.77973 5.80659 9.58478 7.69779 10.3923C7.90182 10.4794 8.09462 10.4816 8.29844 10.3935C10.1604 9.58815 12.0232 8.78494 13.8871 7.98402C14.0156 7.92886 14.0606 7.87148 14.0195 7.7192C13.8596 7.12794 14.337 6.63875 14.928 6.78485C15.4037 6.90248 15.78 7.1535 15.9392 7.64502C16.1339 8.2463 15.8526 8.81396 15.2172 9.08937C13.7053 9.74477 12.1905 10.3934 10.677 11.0452C10.1111 11.289 9.5463 11.5355 8.97984 11.778C8.66575 11.9125 8.3415 12.0073 7.93226 12.005Z" fill="white"/>
</g>
<mask id="mask2_2_850" style="mask-type:alpha" maskUnits="userSpaceOnUse" x="0" y="10" width="16" height="6">
<path fill-rule="evenodd" clip-rule="evenodd" d="M0 10.6282H15.9997V16H0V10.6282Z" fill="white"/>
</mask>
<g mask="url(#mask2_2_850)">
<path fill-rule="evenodd" clip-rule="evenodd" d="M8.00564 15.9997C7.6873 16.0056 7.38691 15.9241 7.09872 15.8009C5.00428 14.9051 2.91018 14.0085 0.818153 13.1071C0.129015 12.8102 -0.179036 12.1329 0.105738 11.4913C0.303693 11.0453 0.676578 10.7632 1.15048 10.6484C1.45499 10.5747 1.71566 10.7091 1.89704 10.9493C2.07467 11.1845 2.08125 11.4641 1.93472 11.7145C1.84049 11.8756 1.89088 11.9172 2.03079 11.9765C3.91786 12.776 5.80381 13.578 7.68842 14.3833C7.90745 14.4769 8.11019 14.4706 8.32776 14.3763C10.1764 13.5751 12.0267 12.7779 13.878 11.9828C14.0141 11.9243 14.0613 11.8652 14.0171 11.7032C13.8601 11.1266 14.3394 10.6369 14.9182 10.7776C15.4101 10.8972 15.7965 11.1554 15.9483 11.6697C16.1249 12.2679 15.8389 12.8151 15.2074 13.0885C13.9049 13.6526 12.6007 14.2124 11.2971 14.774C10.5278 15.1056 9.7585 15.4374 8.98904 15.7687C8.67491 15.9039 8.35091 15.9979 8.00564 15.9997Z" fill="white"/>
</g>
</g>
</svg>
