<svg width="18" height="14" viewBox="0 0 18 14" fill="none" xmlns="http://www.w3.org/2000/svg">
<g opacity="0.4">
<path fill-rule="evenodd" clip-rule="evenodd" d="M8.98666 10.2301C10.393 10.2301 11.7993 10.2264 13.2055 10.2342C13.4072 10.2353 13.4814 10.1917 13.4807 9.97216C13.4732 7.3813 13.4763 4.79048 13.4755 2.19963C13.4753 1.69085 13.3097 1.52421 12.8036 1.52405C10.2681 1.52317 7.73261 1.52321 5.19711 1.52396C4.69411 1.52413 4.52034 1.69714 4.52017 2.19808C4.51938 4.78894 4.52242 7.37976 4.51501 9.97057C4.51443 10.1879 4.58465 10.2355 4.78861 10.2343C6.18793 10.2262 7.58729 10.2301 8.98666 10.2301ZM8.98483 11.752C7.03106 11.752 5.07729 11.7527 3.12352 11.7515C2.62934 11.7512 2.35807 11.5506 2.27052 11.1305C2.19151 10.7516 2.40838 10.3696 2.7849 10.2781C2.9717 10.2328 3.00073 10.1386 3.00048 9.97216C2.99661 7.34641 2.99407 4.72063 3.00003 2.09493C3.00198 1.237 3.38146 0.593436 4.15728 0.203153C4.42713 0.0674039 4.71822 0.00305128 5.02018 0.00296792C7.67368 0.00171754 10.3272 -0.00420089 12.9807 0.00530195C14.1302 0.00942818 14.9947 0.908405 14.9965 2.0793C15.0005 4.6912 14.9996 7.30307 14.9946 9.91497C14.9942 10.1172 15.0164 10.2414 15.2557 10.293C15.5554 10.3578 15.7546 10.6922 15.7428 11.0126C15.7305 11.3459 15.5207 11.6215 15.216 11.7091C15.0809 11.748 14.9435 11.7526 14.8045 11.7525C12.8646 11.7518 10.9247 11.7521 8.98483 11.752Z" fill="white"/>
<mask id="mask0_2_833" style="mask-type:alpha" maskUnits="userSpaceOnUse" x="0" y="7" width="18" height="7">
<path fill-rule="evenodd" clip-rule="evenodd" d="M0 7.98845H18V14H0V7.98845Z" fill="white"/>
</mask>
<g mask="url(#mask0_2_833)">
<path fill-rule="evenodd" clip-rule="evenodd" d="M8.99981 13.9973C6.61613 13.9972 4.23245 13.9962 1.84877 13.998C1.23751 13.9984 0.719215 13.7984 0.345237 13.3006C0.13253 13.0175 0.0144099 12.6869 0.0105365 12.3333C0.000373827 11.4049 -0.00662341 10.4761 0.00982842 9.54791C0.0244893 8.72025 0.665486 8.05847 1.48699 7.99278C1.78529 7.9689 2.05835 8.03955 2.23112 8.30921C2.40671 8.58342 2.40834 8.86921 2.24923 9.15626C2.13857 9.35594 1.95648 9.45126 1.74573 9.48602C1.57071 9.51491 1.52231 9.60439 1.5236 9.77023C1.52939 10.5185 1.52548 11.2669 1.52627 12.0152C1.52673 12.3948 1.60782 12.4751 1.99217 12.4751C6.37152 12.4755 10.7508 12.4753 15.1301 12.4753C15.4489 12.4753 15.7677 12.478 16.0864 12.474C16.3651 12.4706 16.4666 12.3738 16.4679 12.0986C16.4715 11.3157 16.4652 10.5326 16.4725 9.74968C16.4742 9.56805 16.3851 9.51936 16.2302 9.48152C15.6994 9.3519 15.4747 8.82249 15.7435 8.34493C15.9112 8.04688 16.194 7.96815 16.5085 7.99303C17.3228 8.05747 17.9661 8.70916 17.9841 9.52666C18.0048 10.4685 18.0065 11.4117 17.9823 12.3534C17.9585 13.28 17.2203 13.9817 16.2756 13.9927C15.1323 14.006 13.9889 13.997 12.8456 13.9973C11.5637 13.9975 10.2817 13.9973 8.99981 13.9973Z" fill="white"/>
</g>
<path fill-rule="evenodd" clip-rule="evenodd" d="M5.99146 5.75113C6.01116 5.437 6.15023 5.19201 6.43958 5.05817C6.77773 4.90171 7.07612 5.01816 7.34118 5.23948C7.65443 5.5011 7.96506 5.76634 8.26627 6.04159C8.3821 6.1475 8.43466 6.12266 8.52138 6.00954C9.18233 5.14733 9.84881 4.28932 10.5159 3.43185C10.6792 3.22192 10.8583 3.03169 11.146 2.99618C11.4329 2.9608 11.6666 3.05095 11.8351 3.28569C12.0028 3.51934 12.0187 3.77675 11.9017 4.03383C11.7479 4.37214 11.4809 4.63255 11.2562 4.92097C10.5502 5.8272 9.83607 6.72709 9.12568 7.6299C8.79377 8.05174 8.29884 8.09933 7.89325 7.74915C7.4009 7.32414 6.90718 6.90077 6.41388 6.47693C6.18955 6.28417 5.97913 6.08361 5.99146 5.75113Z" fill="white"/>
</g>
</svg>
