<svg width="17" height="17" viewBox="0 0 17 17" fill="none" xmlns="http://www.w3.org/2000/svg">
<mask id="mask0_2_823" style="mask-type:alpha" maskUnits="userSpaceOnUse" x="0" y="0" width="17" height="17">
<path fill-rule="evenodd" clip-rule="evenodd" d="M0 0H17V17H0V0Z" fill="white"/>
</mask>
<g mask="url(#mask0_2_823)">
<path fill-rule="evenodd" clip-rule="evenodd" d="M1.72897 8.70296C1.73809 8.71509 1.74721 8.72727 1.75633 8.73944C1.81973 8.72669 1.88371 8.71647 1.9464 8.70088C2.83863 8.47878 3.72887 8.24813 4.62407 8.03869C4.85638 7.98432 4.98322 7.87653 5.07548 7.65588C5.72829 6.09429 6.39477 4.53846 7.0563 2.98055C7.1077 2.85947 7.15441 2.7364 7.20329 2.6143C7.19076 2.60832 7.17819 2.6023 7.16561 2.59632C5.35338 4.63187 3.5412 6.66742 1.72897 8.70296ZM15.2872 8.74431L15.3115 8.70673C13.4857 6.66861 11.6599 4.6305 9.79605 2.54988C9.81004 2.634 9.80955 2.65613 9.81744 2.67473C10.5402 4.37462 11.2653 6.07358 11.9841 7.77519C12.0434 7.91562 12.1335 7.97476 12.2727 8.00814C13.117 8.21077 13.9598 8.41937 14.8031 8.62598C14.9644 8.66551 15.1259 8.70482 15.2872 8.74431ZM10.959 8.12603C10.9471 8.09358 10.9319 8.04458 10.9117 7.99769C10.1444 6.21236 9.37696 4.42708 8.60758 2.64268C8.58332 2.5865 8.57779 2.49388 8.49429 2.49942C8.43111 2.50358 8.42066 2.58433 8.39817 2.63652C7.62663 4.42805 6.85716 6.22042 6.08345 8.01102C6.02572 8.14463 6.0486 8.2244 6.16974 8.30493C6.9056 8.79421 7.63854 9.28791 8.3701 9.7836C8.46193 9.84576 8.53361 9.85156 8.62839 9.78723C9.36581 9.28707 10.1063 8.79146 10.8455 8.29377C10.8996 8.2573 10.9613 8.22392 10.959 8.12603ZM15.3027 9.92004C15.2219 9.891 15.1892 9.87599 15.1548 9.86736C14.0844 9.59873 13.0135 9.332 11.9437 9.06111C11.8064 9.02636 11.7024 9.07594 11.5946 9.14779C10.8109 9.67058 10.0275 10.194 9.23923 10.71C9.10127 10.8003 9.04155 10.9 9.0423 11.0684C9.04823 12.4521 9.04523 13.8358 9.04713 15.2196C9.04717 15.2717 9.01782 15.337 9.0937 15.3823C11.1522 13.5714 13.2114 11.7599 15.3027 9.92004ZM1.72561 9.94156C3.79232 11.7596 5.85659 13.5755 7.93977 15.408C7.95035 15.3437 7.95699 15.3223 7.95699 15.3008C7.95761 13.8729 7.95589 12.445 7.96058 11.0171C7.96111 10.868 7.887 10.793 7.77605 10.7198C6.9898 10.2008 6.20422 9.68067 5.42245 9.15488C5.28312 9.0612 5.15442 9.03641 4.98888 9.07877C3.96968 9.3397 2.94785 9.5905 1.92727 9.84616C1.86547 9.86161 1.79631 9.86431 1.72561 9.94156ZM8.50319 16.9996C8.20568 17.0083 7.95797 16.8857 7.74218 16.6959C5.85225 15.0335 3.96427 13.3689 2.07506 11.7057C1.53913 11.2339 1.00414 10.761 0.463163 10.2952C-0.0819709 9.82579 -0.161618 9.16882 0.308119 8.61726C0.870962 7.95635 1.46205 7.31952 2.04189 6.67313C3.28039 5.29252 4.51972 3.91261 5.75839 2.53218C6.39743 1.81996 7.03014 1.10194 7.67648 0.396402C8.16516 -0.137055 8.85334 -0.131167 9.33902 0.408488C10.7767 2.00611 12.2075 3.60989 13.6428 5.20969C14.606 6.28333 15.5724 7.35414 16.5369 8.42667C16.6057 8.50322 16.6746 8.58042 16.7363 8.66268C17.1383 9.19808 17.0775 9.82229 16.5753 10.2639C14.8009 11.8239 13.0243 13.3813 11.2495 14.9409C10.5917 15.5189 9.93733 16.101 9.28027 16.6799C9.05864 16.8752 8.80898 17.0069 8.50319 16.9996Z" fill="white" fill-opacity="0.6"/>
</g>
</svg>
