<?xml version="1.0" encoding="UTF-8"?>
<svg width="132px" height="24px" viewBox="0 0 132 24" version="1.1" xmlns="http://www.w3.org/2000/svg" xmlns:xlink="http://www.w3.org/1999/xlink">
    <title>编组</title>
    <defs>
        <polygon id="path-1" points="0 0 96.6214788 0 96.6214788 16.1165091 0 16.1165091"></polygon>
    </defs>
    <g id="页面-1" stroke="none" stroke-width="1" fill="none" fill-rule="evenodd">
        <g id="画板" transform="translate(-1970.000000, -1615.000000)">
            <g id="编组-5备份-13" transform="translate(896.000000, 1154.000000)">
                <g id="编组" transform="translate(1074.000000, 461.000000)">
                    <polygon id="Fill-1" fill="#FFFFFF" points="19.8984941 24 24.0880549 24 24.0880549 0 19.8984941 0"></polygon>
                    <g>
                        <path d="M-4.32123018e-15,0 C8.67591211,0 15.7097142,5.372602 15.7097142,12 C15.7097142,18.5612537 8.81584618,23.8923534 0.259691593,23.9987031 L-4.32123018e-15,24 L-4.32123018e-15,19.8257768 C6.3621186,19.8257768 11.5201534,16.3220751 11.5201534,12 C11.5201534,7.67792489 6.3621186,4.17422318 -4.32123018e-15,4.17422318 L-4.32123018e-15,0 Z" id="Fill-2" fill="#FFFFFF"></path>
                        <g transform="translate(35.378521, 7.875580)">
                            <mask id="mask-2" fill="white">
                                <use xlink:href="#path-1"></use>
                            </mask>
                            <g id="Clip-5"></g>
                            <path d="M95.0100242,7.77649284 C94.3129573,7.41464469 93.6289075,7.23436909 92.9598274,7.23436909 C92.6103176,7.23436909 92.3278461,7.30375574 92.1117619,7.44252905 C91.8956776,7.58195082 91.7876355,7.76935963 91.7876355,8.00605242 C91.7876355,8.13120778 91.8045578,8.23172116 91.839704,8.30824102 C91.8748502,8.3841124 91.9516513,8.45803837 92.0694562,8.52677655 C92.1885629,8.59681167 92.3629923,8.65906512 92.5927445,8.71483383 C92.8237985,8.77060254 93.1264466,8.83998919 93.5039431,8.92364226 C94.5498689,9.13180222 95.3308962,9.50337747 95.8470251,10.038368 C96.363154,10.5733586 96.6215439,11.2581464 96.6215439,12.0920832 C96.6215439,12.71786 96.4959287,13.2807349 96.2446982,13.7813564 C95.9941186,14.2813294 95.6452597,14.7021886 95.1981216,15.0426371 C94.7522851,15.3830857 94.214678,15.6476628 93.5866018,15.8350716 C92.9598274,16.0224804 92.2686182,16.1165091 91.5155776,16.1165091 C90.0641685,16.1165091 88.6342376,15.7066739 87.2257849,14.886355 L88.6069016,12.2178871 C89.6671463,12.9402864 90.6714173,13.3021346 91.6203655,13.3021346 C91.9685735,13.3021346 92.2549502,13.2249662 92.477543,13.072575 C92.7014375,12.9195353 92.8127339,12.7249932 92.8127339,12.4889489 C92.8127339,12.3495272 92.7958116,12.2347474 92.7606654,12.1446096 C92.7255192,12.0544718 92.6526233,11.9708187 92.540676,11.8949473 C92.4293796,11.817779 92.2653639,11.7483923 92.0486288,11.6854904 C91.8325446,11.6238854 91.5507239,11.5570927 91.2012141,11.4883545 C90.0296731,11.2510132 89.2102453,10.9001891 88.7429306,10.4352337 C88.274965,9.96962983 88.0419585,9.32634423 88.0419585,8.5060254 C88.0419585,7.90878141 88.1532549,7.36990003 88.3764986,6.8906782 C88.5997422,6.41145636 88.9206143,6.00486355 89.3391148,5.67089976 C89.7576153,5.33693596 90.2633305,5.0801405 90.8562604,4.89921643 C91.4491903,4.71829235 92.1085076,4.62880303 92.8335613,4.62880303 C94.020072,4.62880303 95.1707856,4.85771413 96.2870039,5.31618481 L95.0100242,7.77649284 Z M77.960848,11.0078357 C77.960848,12.634207 78.7275566,13.4473926 80.2622753,13.4473926 C81.0849574,13.4473926 81.706525,13.1140773 82.1250255,12.4467982 L85.7867421,12.4467982 C85.0473695,14.8934882 83.199589,16.1165091 80.2420988,16.1165091 C79.3348053,16.1165091 78.5049638,15.9809781 77.7512724,15.7099162 C76.997581,15.4388544 76.3525826,15.0536612 75.8156263,14.5523912 C75.27867,14.0524183 74.8634238,13.4545258 74.5705385,12.7600108 C74.2776532,12.0641989 74.1312106,11.2860308 74.1312106,10.4242097 C74.1312106,9.53515266 74.2704938,8.73234261 74.5490603,8.01642799 C74.8282775,7.30051337 75.2266015,6.69224534 75.7420795,6.19227236 C76.2582084,5.69165091 76.8823795,5.30580924 77.6152434,5.03474737 C78.3474566,4.76368549 79.1740439,4.62880303 80.0950053,4.62880303 C81.0022987,4.62880303 81.8178214,4.76368549 82.543526,5.03474737 C83.2692306,5.30580924 83.882337,5.69878411 84.384798,6.21302351 C84.8872589,6.7272629 85.2706132,7.35628209 85.5355116,8.09943259 C85.8010609,8.84388003 85.9338355,9.68105917 85.9338355,10.612267 L85.9338355,11.0078357 L77.960848,11.0078357 Z M82.3970834,8.81858957 C82.2714681,8.29073223 82.0130783,7.86727911 81.6232154,7.54693326 C81.2320509,7.22723588 80.7582277,7.06771143 80.1997931,7.06771143 C79.6140226,7.06771143 79.1356433,7.22075115 78.7659571,7.52618211 C78.3969216,7.83226155 78.1626134,8.26284788 78.064985,8.81858957 L82.3970834,8.81858957 Z M64.8662737,5.02437179 L68.6536055,5.02437179 L68.6536055,6.77589841 C69.058438,6.13650365 69.5537395,5.64625777 70.13951,5.30580924 C70.7252805,4.96536071 71.4086795,4.79481221 72.1897068,4.79481221 L72.514484,4.79481221 C72.6329398,4.79481221 72.7689688,4.80907863 72.9225708,4.83696298 L72.9225708,8.44377195 C72.4207607,8.1941097 71.876645,8.06830586 71.2908745,8.06830586 C70.4115679,8.06830586 69.7522506,8.32964064 69.3129227,8.85036477 C68.8735949,9.37173737 68.6536055,10.1330451 68.6536055,11.1336396 L68.6536055,15.7202918 L64.8662737,15.7202918 L64.8662737,5.02437179 Z M54.8476454,5.02437179 L54.8476454,11.0499865 C54.8476454,12.3702783 55.4893896,13.0310727 56.7728778,13.0310727 C58.057017,13.0310727 58.6981102,12.3702783 58.6981102,11.0499865 L58.6981102,5.02437179 L62.485442,5.02437179 L62.485442,11.7801675 C62.485442,13.2249662 62.0083645,14.3092137 61.0522568,15.0322616 C60.0968001,15.7553094 58.6701234,16.1165091 56.7728778,16.1165091 C54.8756322,16.1165091 53.4496065,15.7553094 52.4934988,15.0322616 C51.538042,14.3092137 51.0603137,13.2249662 51.0603137,11.7801675 L51.0603137,5.02437179 L54.8476454,5.02437179 Z M47.675211,8.17271008 L47.675211,15.7202918 L43.8878792,15.7202918 L43.8878792,8.17271008 L42.6317269,8.17271008 L42.6317269,5.02437179 L43.8878792,5.02437179 L43.8878792,1.81378006 L47.675211,1.81378006 L47.675211,5.02437179 L49.8308464,5.02437179 L49.8308464,8.17271008 L47.675211,8.17271008 Z M29.7473791,5.02437179 L33.5347108,5.02437179 L33.5347108,6.37968117 C34.0508398,5.75455282 34.5741281,5.3336936 35.103925,5.11775196 C35.6337218,4.90245879 36.2552894,4.79481221 36.9660243,4.79481221 C37.7203666,4.79481221 38.365365,4.91672521 38.9023213,5.15990273 C39.4392776,5.40308025 39.8961786,5.74741962 40.2723734,6.19227236 C40.5795775,6.55347203 40.7891532,6.95617401 40.9004496,7.40167522 C41.0123968,7.84587949 41.0683705,8.35363415 41.0683705,8.92364226 L41.0683705,15.7202918 L37.2803878,15.7202918 L37.2803878,10.3204539 C37.2803878,9.79194812 37.2419873,9.36460416 37.1651863,9.03777357 C37.0890361,8.71094299 36.9530072,8.45090516 36.7570995,8.25571467 C36.5898295,8.08905701 36.4017321,7.97103486 36.1921564,7.9016482 C35.9832316,7.83226155 35.7599879,7.79724399 35.5230763,7.79724399 C34.8806813,7.79724399 34.3886341,7.98854364 34.0475855,8.37049446 C33.705886,8.75309376 33.5347108,9.29910835 33.5347108,10.0072413 L33.5347108,15.7202918 L29.7473791,15.7202918 L29.7473791,5.02437179 Z M19.8127112,11.0078357 C19.8127112,12.634207 20.5800706,13.4473926 22.1141385,13.4473926 C22.9374715,13.4473926 23.5583882,13.1140773 23.9762378,12.4467982 L27.6386052,12.4467982 C26.8998835,14.8934882 25.0508013,16.1165091 22.0933111,16.1165091 C21.1866685,16.1165091 20.3568269,15.9809781 19.6031355,15.7099162 C18.8494442,15.4388544 18.2044457,15.0536612 17.6674894,14.5523912 C17.1305331,14.0524183 16.7152869,13.4545258 16.4224017,12.7600108 C16.1295164,12.0641989 15.9824229,11.2860308 15.9824229,10.4242097 C15.9824229,9.53515266 16.122357,8.73234261 16.4015743,8.01642799 C16.6801407,7.30051337 17.0778138,6.69224534 17.5945936,6.19227236 C18.1107225,5.69165091 18.7348935,5.30580924 19.4671066,5.03474737 C20.1999706,4.76368549 21.025907,4.62880303 21.9468684,4.62880303 C22.853511,4.62880303 23.6696846,4.76368549 24.3953892,5.03474737 C25.1204429,5.30580924 25.7348511,5.69878411 26.2366611,6.21302351 C26.7384712,6.7272629 27.1224763,7.35628209 27.3880256,8.09943259 C27.6529241,8.84388003 27.7850479,9.68105917 27.7850479,10.612267 L27.7850479,11.0078357 L19.8127112,11.0078357 Z M24.2482957,8.81858957 C24.1233313,8.29073223 23.8649414,7.86727911 23.4744278,7.54693326 C23.0839141,7.22723588 22.60944,7.06771143 22.0510054,7.06771143 C21.4658858,7.06771143 20.9881574,7.22075115 20.6178202,7.52618211 C20.248134,7.83226155 20.0144766,8.26284788 19.9168482,8.81858957 L24.2482957,8.81858957 Z M4.45771358,0 L8.26652361,9.57017022 L12.0955102,0 L16.5532238,0 L9.89821991,15.7202918 L6.63417645,15.7202918 L0,0 L4.45771358,0 Z" id="Fill-4" fill="#FFFFFF" mask="url(#mask-2)"></path>
                        </g>
                    </g>
                </g>
            </g>
        </g>
    </g>
</svg>