<?xml version="1.0" encoding="UTF-8"?>
<svg width="169px" height="42px" viewBox="0 0 169 42" version="1.1" xmlns="http://www.w3.org/2000/svg" xmlns:xlink="http://www.w3.org/1999/xlink">
    <title>编组</title>
    <defs>
        <polygon id="path-1" points="0 0 42.2956383 0 42.2956383 42 0 42"></polygon>
        <polygon id="path-3" points="0 0 42.2956383 0 42.2956383 42 0 42"></polygon>
        <polygon id="path-5" points="0 42 169 42 169 0 0 0"></polygon>
    </defs>
    <g id="页面-1" stroke="none" stroke-width="1" fill="none" fill-rule="evenodd">
        <g id="画板" transform="translate(-1504.000000, -1684.000000)">
            <g id="编组" transform="translate(1504.000000, 1684.000000)">
                <g>
                    <mask id="mask-2" fill="white">
                        <use xlink:href="#path-1"></use>
                    </mask>
                    <g id="Clip-2"></g>
                    <path d="M7.2104112,28.3213494 C7.19852368,28.2477261 7.18383909,28.2150819 7.19013249,28.1872995 C7.89988746,25.0562262 8.60754462,21.925153 9.32289372,18.7954688 C9.89139696,16.3089466 10.4759833,13.8265917 11.0353961,11.3372912 C11.1018264,11.0386307 11.2102126,10.9559782 11.5122955,10.9566727 C15.8414512,10.9670911 20.1706068,10.9511163 24.4997625,10.9740367 C25.2416837,10.9782041 25.996891,11.0671077 26.7213305,11.22894 C28.6911628,11.6672069 30.3680026,12.6458409 31.7448573,14.1148338 C33.1419907,15.605358 33.9978923,17.3577311 34.2244544,19.3858442 C34.5153491,21.9946089 33.8363618,24.3463866 32.1679132,26.3828345 C30.277098,28.690855 27.7975008,29.8591037 24.8088381,29.9236977 C23.1669615,29.9584257 21.5236865,29.9250868 19.88181,29.932727 C19.3678495,29.9355052 18.8503927,29.9438399 18.341327,30.0021829 C15.8428497,30.290425 13.6038,32.1844882 12.9681673,34.5883579 C12.5367202,36.2254341 12.178696,37.8805689 11.7822122,39.5259798 C11.7283687,39.7482388 11.8073857,39.8558955 12.0101729,39.9503555 C13.7198782,40.7484042 15.5009086,41.3262775 17.3581591,41.6527204 C19.7160839,42.0673723 22.0775052,42.1264098 24.4550095,41.7450967 C26.8087388,41.3672565 29.0379987,40.6469985 31.1329996,39.5287581 C34.4775887,37.7437407 37.1508826,35.240549 39.1507833,32.0344634 C40.932513,29.1763519 41.939456,26.0570862 42.2226587,22.7190342 C42.3988737,20.6464693 42.2555242,18.5787663 41.797505,16.5464859 C40.9702733,12.8764346 39.3011254,9.62520258 36.744609,6.8441872 C34.7349186,4.65771457 32.3483238,2.98313213 29.6162917,1.79057384 C27.1129195,0.697337523 24.4892735,0.131966264 21.7670311,0.014585745 C20.2062694,-0.053481065 18.6615909,0.119464197 17.1260028,0.411179097 C14.1016774,0.986274186 11.347968,2.18577807 8.86417524,3.96871176 C5.76502843,6.19407971 3.41059988,9.04038366 1.83445437,12.5145692 C0.298866279,15.8970729 -0.24726045,19.441409 0.100974007,23.1184058 C0.265301512,24.8527204 0.665980917,26.5453613 1.27154525,28.1900777 C2.2078624,30.7328593 3.5973039,32.9978171 5.40001159,35.0210683 C5.44126828,35.0676038 5.49651029,35.1016372 5.54825597,35.1426162 C5.57482808,35.1030263 5.59370826,35.0849678 5.59930239,35.064131 C5.68041724,34.7140731 5.7594343,34.3640152 5.83845135,34.0132628 C6.30346323,31.9573673 7.2104112,30.1230362 8.59216077,28.5165206 C9.72217459,27.2024144 11.1102176,26.2265586 12.6353167,25.4292046 C15.0093246,24.1873326 17.5196895,23.4587399 20.2251496,23.477493 C21.4684445,23.4858277 22.7124387,23.4955515 23.9557336,23.4698528 C24.3703983,23.4608235 24.7997476,23.3927567 25.1941336,23.2649578 C26.5947634,22.8107161 27.4184987,21.3375558 27.1052275,19.915793 C26.7772718,18.4322143 25.5731358,17.4910865 23.9711174,17.4869191 C21.7187817,17.4813627 19.466446,17.4848355 17.2148095,17.48553 C17.0994307,17.48553 16.984751,17.4980321 16.8651766,17.5049777 C16.4784825,19.2094262 16.0966832,20.8916488 15.7190796,22.5752605 C15.6687325,22.8002977 15.6044,22.9468497 15.3302877,23.0211675 C13.2185045,23.5983463 11.3081098,24.5797586 9.576028,25.9105341 C8.68236608,26.5967587 7.90548158,27.3948073 7.2104112,28.3213494" id="Fill-1" fill="#FFFFFF" mask="url(#mask-2)"></path>
                </g>
                <g>
                    <mask id="mask-4" fill="white">
                        <use xlink:href="#path-3"></use>
                    </mask>
                    <g id="Clip-4"></g>
                    <path d="M7.2104112,28.3213494 C7.90548158,27.3948073 8.68236608,26.5967587 9.576028,25.9105341 C11.3081098,24.5797586 13.2185045,23.5983463 15.3302877,23.0211675 C15.6044,22.9468497 15.6687325,22.8002977 15.7190796,22.5752605 C16.0966832,20.8916488 16.4784825,19.2094262 16.8651766,17.5049777 C16.984751,17.4980321 17.0994307,17.48553 17.2148095,17.48553 C19.466446,17.4848355 21.7187817,17.4813627 23.9711174,17.4869191 C25.5731358,17.4910865 26.7772718,18.4322143 27.1052275,19.915793 C27.4184987,21.3375558 26.5947634,22.8107161 25.1941336,23.2649578 C24.7997476,23.3927567 24.3703983,23.4608235 23.9557336,23.4698528 C22.7124387,23.4955515 21.4684445,23.4858277 20.2251496,23.477493 C17.5196895,23.4587399 15.0093246,24.1873326 12.6353167,25.4292046 C11.1102176,26.2265586 9.72217459,27.2024144 8.59216077,28.5165206 C7.2104112,30.1230362 6.30346323,31.9573673 5.83845135,34.0132628 C5.7594343,34.3640152 5.68041724,34.7140731 5.59930239,35.064131 C5.59370826,35.0849678 5.57482808,35.1030263 5.54825597,35.1426162 C5.49651029,35.1016372 5.44126828,35.0676038 5.40001159,35.0210683 C3.5973039,32.9978171 2.2078624,30.7328593 1.27154525,28.1900777 C0.665980917,26.5453613 0.265301512,24.8527204 0.100974007,23.1184058 C-0.24726045,19.441409 0.298866279,15.8970729 1.83445437,12.5145692 C3.41059988,9.04038366 5.76502843,6.19407971 8.86417524,3.96871176 C11.347968,2.18577807 14.1016774,0.986274186 17.1260028,0.411179097 C18.6615909,0.119464197 20.2062694,-0.053481065 21.7670311,0.014585745 C24.4892735,0.131966264 27.1129195,0.697337523 29.6162917,1.79057384 C32.3483238,2.98313213 34.7349186,4.65771457 36.744609,6.8441872 C39.3011254,9.62520258 40.9702733,12.8764346 41.797505,16.5464859 C42.2555242,18.5787663 42.3988737,20.6464693 42.2226587,22.7190342 C41.939456,26.0570862 40.932513,29.1763519 39.1507833,32.0344634 C37.1508826,35.240549 34.4775887,37.7437407 31.1329996,39.5287581 C29.0379987,40.6469985 26.8087388,41.3672565 24.4550095,41.7450967 C22.0775052,42.1264098 19.7160839,42.0673723 17.3581591,41.6527204 C15.5009086,41.3262775 13.7198782,40.7484042 12.0101729,39.9503555 C11.8073857,39.8558955 11.7283687,39.7482388 11.7822122,39.5259798 C12.178696,37.8805689 12.5367202,36.2254341 12.9681673,34.5883579 C13.6038,32.1844882 15.8428497,30.290425 18.341327,30.0021829 C18.8503927,29.9438399 19.3678495,29.9355052 19.88181,29.932727 C21.5236865,29.9250868 23.1669615,29.9584257 24.8088381,29.9236977 C27.7975008,29.8591037 30.277098,28.690855 32.1679132,26.3828345 C33.8363618,24.3463866 34.5153491,21.9946089 34.2244544,19.3858442 C33.9978923,17.3577311 33.1419907,15.605358 31.7448573,14.1148338 C30.3680026,12.6458409 28.6911628,11.6672069 26.7213305,11.22894 C25.996891,11.0671077 25.2416837,10.9782041 24.4997625,10.9740367 C20.1706068,10.9511163 15.8414512,10.9670911 11.5122955,10.9566727 C11.2102126,10.9559782 11.1018264,11.0386307 11.0353961,11.3372912 C10.4759833,13.8265917 9.89139696,16.3089466 9.32289372,18.7954688 C8.60754462,21.925153 7.89988746,25.0562262 7.19013249,28.1872995 C7.18383909,28.2150819 7.19852368,28.2477261 7.2104112,28.3213494" id="Fill-3" fill="#FFFFFF" mask="url(#mask-4)"></path>
                </g>
                <path d="M57.0802426,17.5631123 L57.0802426,20.5108219 L58.2361293,20.5108219 C59.0682558,20.5108219 59.6248715,20.4566463 59.9059764,20.348295 C60.1856828,20.2399438 60.4059516,20.0690822 60.5653843,19.8370994 C60.7248169,19.6058111 60.8045332,19.3370167 60.8045332,19.0293269 C60.8045332,18.6514867 60.6926507,18.3403241 60.4688856,18.0944501 C60.2458197,17.8485762 59.962617,17.6950786 59.6199767,17.6339573 C59.3682409,17.5867273 58.8612731,17.5631123 58.1004717,17.5631123 L57.0802426,17.5631123 Z M54.9684594,26.1944005 L54.9684594,15.8058773 L58.3571023,15.8058773 C59.6416539,15.8058773 60.4786753,15.8572747 60.8688657,15.9614586 C61.4681366,16.1177344 61.9695103,16.4559848 62.3743853,16.9782934 C62.7778618,17.4999074 62.980649,18.175019 62.980649,19.0015446 C62.980649,19.63915 62.8638715,20.1753498 62.631016,20.6101439 C62.3974611,21.044938 62.1016716,21.3859666 61.7422489,21.6339243 C61.3835255,21.8825765 61.0185086,22.0464925 60.6478977,22.1263668 C60.1430276,22.2256888 59.4129939,22.2750025 58.4570973,22.2750025 L57.0802426,22.2750025 L57.0802426,26.1944005 L54.9684594,26.1944005 Z" id="Fill-5" fill="#FFFFFF"></path>
                <polygon id="Fill-7" fill="#FFFFFF" points="64.7711195 26.1942616 64.7711195 15.8904746 66.8829027 15.8904746 66.8829027 24.4439722 72.1343902 24.4439722 72.1343902 26.1942616"></polygon>
                <path d="M73.6253651,15.8057384 L75.7371484,15.8057384 L75.7371484,21.4323632 C75.7371484,22.3255664 75.7630212,22.9041343 75.8154662,23.1687614 C75.9056715,23.5938317 76.1210454,23.9348603 76.461588,24.1918472 C76.8014312,24.4495287 77.2664431,24.5787167 77.8559243,24.5787167 C78.4551953,24.5787167 78.9069211,24.4571688 79.211801,24.2133785 C79.5159817,23.9702828 79.6991894,23.6716223 79.7607248,23.3167025 C79.8229595,22.9631718 79.8537272,22.3748801 79.8537272,21.5525219 L79.8537272,15.8057384 L81.9655105,15.8057384 L81.9655105,21.2621961 C81.9655105,22.50893 81.9081707,23.3903258 81.7941903,23.9056888 C81.6802099,24.4203572 81.4697309,24.8544568 81.1627531,25.2093766 C80.8557754,25.5636018 80.4460055,25.8455929 79.932045,26.0567389 C79.4187838,26.2664958 78.7481877,26.3713742 77.9202568,26.3713742 C76.9210057,26.3713742 76.1637006,26.256772 75.6483416,26.0282619 C75.1315841,25.7990574 74.723912,25.5010915 74.4246262,25.1350587 C74.1246411,24.769026 73.9274481,24.3856292 73.8323479,23.9834794 C73.6938932,23.3882421 73.6253651,22.50893 73.6253651,21.3476269 L73.6253651,15.8057384 Z" id="Fill-9" fill="#FFFFFF"></path>
                <polygon id="Fill-11" fill="#FFFFFF" points="86.5460523 26.1942616 86.5460523 17.5629734 83.4427098 17.5629734 83.4427098 15.8057384 91.7541853 15.8057384 91.7541853 17.5629734 88.6578355 17.5629734 88.6578355 26.1942616"></polygon>
                <path d="M94.600897,20.9924988 C94.600897,22.1690822 94.87431,23.0608963 95.421136,23.6679411 C95.967962,24.2756805 96.6630324,24.5785084 97.5042494,24.5785084 C98.3461656,24.5785084 99.0370404,24.2770696 99.5768737,23.6748867 C100.116707,23.0727038 100.386624,22.1690822 100.386624,20.9647164 C100.386624,19.7735472 100.1237,18.8859004 99.598551,18.2996924 C99.0734022,17.7141789 98.3748355,17.4210749 97.5042494,17.4210749 C96.6343625,17.4210749 95.9322995,17.7176517 95.4001581,18.3108054 C94.8666181,18.9032644 94.600897,19.7971622 94.600897,20.9924988 M92.4247813,21.0640384 C92.4247813,20.00553 92.584214,19.1171887 92.90238,18.3997089 C93.1408297,17.8697602 93.4652891,17.3953762 93.8764575,16.9744733 C94.2876259,16.5542649 94.7386524,16.2424078 95.2281386,16.0395965 C95.8805538,15.7659401 96.6315654,15.6277228 97.4832714,15.6277228 C99.0244536,15.6277228 100.25726,16.1034959 101.182388,17.0522639 C102.107517,18.002421 102.569732,19.3227782 102.569732,21.0140301 C102.569732,22.6906962 102.111014,24.0034133 101.192877,24.9500976 C100.274741,25.8974764 99.0475294,26.3711659 97.5119413,26.3711659 C95.9560745,26.3711659 94.7197723,25.9002547 93.801636,24.9577377 C92.8834998,24.0159153 92.4247813,22.7170895 92.4247813,21.0640384" id="Fill-13" fill="#FFFFFF"></path>
                <path d="M114.969746,22.3748801 L117.017197,23.0194311 C116.703226,24.1536464 116.181574,24.9954523 115.45154,25.5455432 C114.721506,26.0963288 113.794979,26.3713742 112.672657,26.3713742 C111.283915,26.3713742 110.142013,25.900463 109.247652,24.9579461 C108.35399,24.0154291 107.90646,22.7270217 107.90646,21.0920291 C107.90646,19.363271 108.356088,18.0199934 109.255344,17.0635852 C110.153901,16.1071771 111.33566,15.6279312 112.800623,15.6279312 C114.080279,15.6279312 115.119389,16.0036878 115.91865,16.7552009 C116.394151,17.1997189 116.750776,17.8373243 116.989226,18.6687118 L114.898421,19.1646271 C114.774651,18.6263436 114.517321,18.2005788 114.124333,17.8887217 C113.732045,17.5768646 113.255146,17.4212833 112.694334,17.4212833 C111.918848,17.4212833 111.289509,17.6977179 110.807015,18.2505871 C110.323823,18.8027617 110.082576,19.6980486 110.082576,20.9364478 C110.082576,22.2491649 110.320326,23.1847362 110.795827,23.7424673 C111.271328,24.2995039 111.890178,24.5787167 112.65098,24.5787167 C113.21249,24.5787167 113.694984,24.4016041 114.09916,24.0473789 C114.503335,23.6924591 114.79423,23.1354225 114.969746,22.3748801" id="Fill-15" fill="#FFFFFF"></path>
                <path d="M124.373335,22.0845543 L122.932148,18.2290557 L121.518931,22.0845543 L124.373335,22.0845543 Z M128.261953,26.1942616 L125.964165,26.1942616 L125.050924,23.8348437 L120.870012,23.8348437 L120.007118,26.1942616 L117.76667,26.1942616 L121.840593,15.8057384 L124.07335,15.8057384 L128.261953,26.1942616 Z" id="Fill-17" fill="#FFFFFF"></path>
                <path d="M131.493331,17.5631123 L131.493331,20.5108219 L132.649218,20.5108219 C133.481344,20.5108219 134.03796,20.4566463 134.319065,20.348295 C134.59947,20.2399438 134.81904,20.0690822 134.978473,19.8370994 C135.137905,19.6058111 135.217622,19.3370167 135.217622,19.0293269 C135.217622,18.6514867 135.105739,18.3403241 134.882673,18.0944501 C134.658908,17.8485762 134.375705,17.6950786 134.033065,17.6339573 C133.781329,17.5867273 133.274361,17.5631123 132.51356,17.5631123 L131.493331,17.5631123 Z M129.381548,26.1944005 L129.381548,15.8058773 L132.77089,15.8058773 C134.054742,15.8058773 134.891764,15.8572747 135.281954,15.9614586 C135.881225,16.1177344 136.383298,16.4559848 136.787474,16.9782934 C137.191649,17.4999074 137.393737,18.175019 137.393737,19.0015446 C137.393737,19.63915 137.27696,20.1753498 137.044104,20.6101439 C136.811249,21.044938 136.51476,21.3859666 136.156036,21.6339243 C135.796614,21.8825765 135.431597,22.0464925 135.060986,22.1263668 C134.556815,22.2256888 133.826082,22.2750025 132.870186,22.2750025 L131.493331,22.2750025 L131.493331,26.1944005 L129.381548,26.1944005 Z" id="Fill-19" fill="#FFFFFF"></path>
                <mask id="mask-6" fill="white">
                    <use xlink:href="#path-5"></use>
                </mask>
                <g id="Clip-22"></g>
                <polygon id="Fill-21" fill="#FFFFFF" mask="url(#mask-6)" points="139.063025 26.1939143 141.175507 26.1939143 141.175507 15.8053911 139.063025 15.8053911"></polygon>
                <polygon id="Fill-23" fill="#FFFFFF" mask="url(#mask-6)" points="145.541514 26.1942616 145.541514 17.5629734 142.438172 17.5629734 142.438172 15.8057384 150.749647 15.8057384 150.749647 17.5629734 147.653298 17.5629734 147.653298 26.1942616"></polygon>
                <path d="M156.571316,22.0845543 L155.130129,18.2290557 L153.717612,22.0845543 L156.571316,22.0845543 Z M160.459935,26.1942616 L158.162147,26.1942616 L157.248905,23.8348437 L153.067994,23.8348437 L152.2051,26.1942616 L149.964651,26.1942616 L154.038575,15.8057384 L156.271331,15.8057384 L160.459935,26.1942616 Z" id="Fill-24" fill="#FFFFFF" mask="url(#mask-6)"></path>
                <polygon id="Fill-25" fill="#FFFFFF" mask="url(#mask-6)" points="161.636869 26.1942616 161.636869 15.8904746 163.748652 15.8904746 163.748652 24.4439722 168.999441 24.4439722 168.999441 26.1942616"></polygon>
            </g>
        </g>
    </g>
</svg>