<?xml version="1.0" encoding="UTF-8"?>
<svg width="182px" height="32px" viewBox="0 0 182 32" version="1.1" xmlns="http://www.w3.org/2000/svg" xmlns:xlink="http://www.w3.org/1999/xlink">
    <title>编组</title>
    <defs>
        <polygon id="path-1" points="-2.76194774e-14 0 32.5553998 0 32.5553998 32 -2.76194774e-14 32"></polygon>
    </defs>
    <g id="页面-1" stroke="none" stroke-width="1" fill="none" fill-rule="evenodd">
        <g id="画板" transform="translate(-1937.000000, -1687.000000)">
            <g id="编组" transform="translate(1937.000000, 1687.000000)">
                <polygon id="Fill-1" fill="#FFFFFF" points="103.577938 13.2290292 105.553554 13.2290292 105.553554 24.1440506 116.32907 24.1440506 116.32907 25.7547255 103.577938 25.7547255"></polygon>
                <g>
                    <g transform="translate(116.122228, 0.000000)">
                        <mask id="mask-2" fill="white">
                            <use xlink:href="#path-1"></use>
                        </mask>
                        <g id="Clip-3"></g>
                        <path d="M32.5553998,16.2179034 C32.5553998,7.26115675 25.267095,-0.000193648921 16.2781858,-0.000193648921 C7.28684712,-0.000193648921 -2.76194774e-14,7.26115675 -2.76194774e-14,16.2179034 C-2.76194774e-14,23.8980196 5.361277,30.3232908 12.5567774,32.0002905 C12.5130475,31.9315451 12.4843802,31.8545697 12.472233,31.7737212 C6.48027472,29.7660661 2.1617112,24.1318507 2.1617112,17.4843674 C2.1617112,9.1574638 8.93691932,2.40589419 17.2946614,2.40589419 C25.6524034,2.40589419 32.4276115,9.1574638 32.4276115,17.4843674 C32.4276115,17.8353561 32.4130349,18.1815035 32.3887406,18.5261986 C32.4956357,17.7709678 32.5553998,17.0021816 32.5553998,16.2179034" id="Fill-2" fill="#FFFFFF" mask="url(#mask-2)"></path>
                    </g>
                    <path d="M141.934051,21.8435014 C141.794115,21.4334498 141.448164,21.2039759 141.142541,20.947391 C140.901055,20.7440597 140.618269,20.5886564 140.35589,20.4080788 C140.282035,20.3548253 140.189716,20.2768816 140.212553,20.1931285 C140.237819,20.1055024 140.341313,20.0590266 140.444321,20.0338523 C140.708158,19.9675275 140.973452,19.9215359 141.246521,19.9186311 C141.277132,19.9186311 141.31746,19.9321866 141.330093,19.8866791 C141.34224,19.8464969 141.306285,19.8232591 141.280047,19.8077671 C141.027871,19.6475227 140.765493,19.5047066 140.474932,19.4219217 C139.926852,19.2645819 139.372455,19.2558677 138.812227,19.2921769 C138.801537,19.3338114 138.777243,19.3405891 138.751491,19.3386526 C138.774328,19.3357479 138.795707,19.3231607 138.812227,19.2921769 C138.769955,19.2771691 138.707275,19.3376844 138.687354,19.2558677 C139.250983,18.8816412 139.77234,18.4522247 140.266972,17.9869832 C140.828172,17.4588057 141.345642,16.893835 141.707627,16.2063813 C141.808206,16.0156372 141.881089,15.8224724 141.939881,15.5838001 C141.718317,15.7396874 141.490436,15.7358145 141.283448,15.7963297 C140.762577,15.94786 140.254825,15.5610463 140.216926,15.0227023 C140.164936,14.2863523 140.42197,13.6231047 140.688236,12.963246 C140.823313,12.6359794 141.005035,12.3275935 141.222712,12.0046839 C141.136224,12.0182393 141.090551,12.0027474 141.034188,12.0274376 C140.445779,12.2719194 139.893811,12.5788529 139.372455,12.9419447 C139.001723,13.2024025 138.682981,13.5311215 138.296215,13.7693097 C138.049384,13.9222923 137.962896,13.8922767 137.864261,13.6235889 C137.763683,13.3534486 137.758338,13.0624911 137.692743,12.7797637 C136.981405,13.4333288 136.53536,14.2379401 136.250145,15.1437329 C136.129159,15.5334513 135.933346,15.8829876 135.583994,16.1245647 C135.50528,16.1787864 135.50528,16.1792705 135.47807,16.1202076 C135.308496,15.7667983 135.202087,15.3988653 135.184109,15.0081786 C135.167589,14.6460552 135.154955,14.2873205 135.16856,13.9242288 C135.184109,13.5461293 135.142808,13.1641568 135.124345,12.7846049 C135.103451,12.3387283 135.006274,11.9088277 134.85905,11.4910301 C134.777421,11.2533261 134.706968,11.0069078 134.560716,10.7590372 C134.510669,10.9618844 134.44799,11.1211607 134.363446,11.268818 C134.243432,11.4789271 134.088919,11.6256161 133.824597,11.6386874 C133.515573,11.6541793 133.26194,11.5244346 133.018025,11.3651583 C132.619111,11.1056688 132.271216,10.7837274 131.950531,10.4356435 C131.634704,10.093369 131.330053,9.74480098 131.044352,9.37735215 C130.880608,9.17014781 130.70909,8.96681644 130.561866,8.74508843 C130.54243,8.71362048 130.515221,8.67198596 130.471491,8.68650963 C130.414642,8.70490628 130.439422,8.7596121 130.448168,8.79253241 C130.475378,8.91356299 130.425332,9.02684761 130.418529,9.14497345 C130.39715,9.44803401 130.38063,9.75448343 130.326697,10.053671 C130.251384,10.4995476 130.185789,10.9468767 130.072092,11.3840391 C129.95062,11.850733 129.786876,12.2932208 129.516723,12.6911693 C129.344233,12.9458176 129.019661,13.0494198 128.718896,12.9627619 C128.521626,12.9046672 128.379747,12.7657241 128.235439,12.6321064 C128.208229,12.6064479 128.182477,12.5580357 128.136804,12.5880513 C128.091131,12.6137097 128.109594,12.6747091 128.122713,12.6964947 C128.206772,12.8175252 128.182477,12.9627619 128.209201,13.0929908 C128.319012,13.6395649 128.519197,14.1498298 128.768943,14.6460552 C129.107606,15.3078503 129.587177,15.8839559 129.914664,16.5501082 C130.08764,16.9006127 130.231949,17.2598315 130.219316,17.6790814 C130.135743,17.5846775 130.040509,17.6321215 129.959852,17.6151772 C129.448699,17.5144798 129.077481,17.1857608 128.698003,16.8773748 C128.086758,16.3816336 127.384651,16.0911602 126.642701,15.8733052 C126.613548,15.8650751 126.571276,15.8694322 126.551841,15.8858924 C126.518314,15.9197809 126.566903,15.9410823 126.577593,15.9672249 C126.668939,16.1787864 126.757857,16.3864748 126.839972,16.5975522 C126.955127,16.8981921 126.849203,17.0724761 126.555242,17.0511748 C126.453205,17.0434288 126.343881,17.0405241 126.245246,17.0192227 C125.753528,16.9161046 125.254522,16.8638194 124.75746,16.8565576 C124.194317,16.8468751 123.625343,16.8672083 123.070946,17.0148656 C123.146259,17.0792538 123.241493,17.0705396 123.31972,17.1112059 C124.009194,17.4728453 124.63453,17.9221108 125.175809,18.4822403 C125.348784,18.6623338 125.516901,18.8584033 125.616022,19.0902979 C125.77345,19.4591991 125.805032,19.7549978 125.451792,20.0638678 C125.177752,20.3039925 124.832772,20.3799997 124.463012,20.4758559 C124.909057,20.8650902 125.411464,21.1052149 125.943996,21.291602 C126.479443,21.4823462 127.02801,21.6033768 127.587752,21.7118201 C128.140205,21.8159064 128.699461,21.8410808 129.28204,21.9277387 C128.459919,22.2453229 127.408459,23.0644579 127.279699,23.8046809 C127.56783,23.6599283 127.857905,23.535993 128.158669,23.4377162 C128.298118,23.3902722 128.443399,23.4633746 128.424935,23.5693974 C128.409872,23.6492776 128.39481,23.7320625 128.359826,23.8046809 C128.182477,24.1822963 127.996868,24.557491 127.885114,24.9602808 C127.809316,25.2289687 127.729145,25.5015295 127.830695,25.7953918 C127.874425,25.9256207 127.890945,25.8985098 127.983749,25.8496135 C128.356425,25.6482186 128.728614,25.4424666 129.111979,25.2686667 C129.40837,25.1345648 129.697473,24.9641538 130.043424,24.9762568 C130.217858,24.9825504 130.290741,25.0527482 130.313578,25.2226751 C130.353906,25.5247674 130.272277,25.8157249 130.265961,26.1100713 C130.273735,26.1410551 130.251384,26.1904356 130.31212,26.1904356 C130.457886,26.069405 130.608997,25.954668 130.744073,25.8249232 C131.399535,25.1926595 131.912146,24.4417858 132.447593,23.7122135 C132.883434,23.1172272 133.416938,22.6752235 134.158401,22.5115902 C134.243432,22.4927094 134.22351,22.4965824 134.249748,22.5638754 C134.422724,22.9695699 134.498522,23.3955975 134.537879,23.8230775 C134.593756,24.434524 134.625339,25.0508117 134.513585,25.6704882 C134.427097,26.1284679 134.287161,26.560305 134.099123,26.9708407 C134.182696,26.9122619 134.281331,26.8686909 134.410577,26.8686909 C134.765274,26.8686909 134.944081,27.1378629 134.953312,27.4123602 C135.139407,26.8246358 135.214234,26.2151258 135.239014,25.5969016 C135.255048,25.1800723 135.18508,24.7680842 135.138435,24.3531914 C135.112683,24.130011 135.074298,23.9019894 135.024252,23.682682 C134.929018,23.2711781 134.81532,22.8645153 134.687532,22.4646303 C134.657407,22.3639329 134.712312,22.3377903 134.758958,22.3252031 C135.27497,22.2075614 135.784665,22.1552762 136.314282,22.2922828 C137.060118,22.4849635 137.7321,22.8606424 138.457043,23.1065765 C139.005124,23.2939318 139.56438,23.4241607 140.151817,23.5258264 C139.950174,23.2416466 139.681479,23.0262122 139.534255,22.7255722 C139.422015,22.499003 139.48761,22.3465045 139.700914,22.2598466 C140.031317,22.12284 140.377269,22.1155781 140.713988,22.0720071 C141.079861,22.0231108 141.451565,22.0264996 141.818896,22.0187537 C141.962232,22.0139125 141.977781,21.976635 141.934051,21.8435014" id="Fill-4" fill="#FFFFFF"></path>
                    <path d="M138.625598,19.3108156 C138.625598,19.2938713 138.637745,19.2788635 138.655723,19.268697 C138.64066,19.2788635 138.631914,19.2924189 138.625598,19.3108156" id="Fill-6" fill="#FFFFFF"></path>
                    <path d="M138.637939,19.3415574 C138.653002,19.3376844 138.66855,19.3376844 138.681669,19.3386526 C138.669522,19.3415574 138.653002,19.3468827 138.637939,19.3415574" id="Fill-8" fill="#FFFFFF"></path>
                    <path d="M138.660727,19.2663732 C138.661699,19.2663732 138.661699,19.2644367 138.664614,19.2644367 C138.661699,19.2644367 138.661699,19.2663732 138.660727,19.2663732" id="Fill-10" fill="#FFFFFF"></path>
                    <path d="M130.266106,26.1102649 C130.272423,26.1407646 130.251044,26.1906292 130.31178,26.1906292 C130.31178,26.2312955 130.278254,26.245335 130.245213,26.2705094 C130.249586,26.213383 130.173788,26.1552883 130.266106,26.1102649" id="Fill-12" fill="#FFFFFF"></path>
                    <polygon id="Fill-14" fill="#FFFFFF" points="-1.61297515e-15 13.2290292 2.33371519 13.2290292 8.1871957 22.9995855 14.2748737 13.2290292 16.6090748 13.2290292 16.6090748 25.7547255 14.6358878 25.7547255 14.6358878 16.1274694 9.17451806 24.8242424 7.18189553 24.8242424 1.97561648 16.217032 1.97561648 25.7547255 -1.61297515e-15 25.7547255"></polygon>
                    <path d="M23.8506859,21.2813386 L30.4077307,21.2813386 L27.1197335,14.8575198 L23.8506859,21.2813386 Z M25.7543911,13.2289324 L28.4850759,13.2289324 L34.8064656,25.7546287 L32.6884842,25.7546287 L31.2322809,22.8915294 L23.0237062,22.8915294 L21.5694465,25.7546287 L19.451951,25.7546287 L25.7543911,13.2289324 Z" id="Fill-16" fill="#FFFFFF"></path>
                    <path d="M39.4806984,19.4918773 L46.24959,19.4918773 C48.3437629,19.4918773 49.3908494,18.7105039 49.3908494,17.1467889 C49.3908494,16.3847804 49.1372164,15.8081907 48.6280068,15.4218611 C48.119769,15.0331109 47.3263156,14.8389779 46.24959,14.8389779 L39.4806984,14.8389779 L39.4806984,19.4918773 Z M37.5050819,13.2287871 L46.24959,13.2287871 C47.9365896,13.2287871 49.2135006,13.5754187 50.0735206,14.2662612 C50.9364559,14.9595243 51.3664658,15.9190548 51.3664658,17.1467889 C51.3664658,18.3764596 50.9364559,19.3417994 50.0735206,20.0466815 C49.2135006,20.7501112 47.9365896,21.1010999 46.24959,21.1010999 L39.4806984,21.1010999 L39.4806984,25.7549675 L37.5050819,25.7549675 L37.5050819,13.2287871 Z" id="Fill-18" fill="#FFFFFF"></path>
                    <polygon id="Fill-20" fill="#FFFFFF" points="54.2271741 13.2290292 56.2027905 13.2290292 56.2027905 24.1440506 66.9763627 24.1440506 66.9763627 25.7547255 54.2271741 25.7547255"></polygon>
                    <polygon id="Fill-22" fill="#FFFFFF" points="69.566529 25.7547739 69.566529 13.2290776 83.3968162 13.2290776 83.3968162 14.8387842 71.5426314 14.8387842 71.5426314 18.6861042 82.2097943 18.6861042 82.2097943 20.2972632 71.5426314 20.2972632 71.5426314 24.144099 83.3968162 24.144099 83.3968162 25.7547739"></polygon>
                    <path d="M96.1083485,24.1440022 C96.8269754,24.1440022 97.3629087,23.9658452 97.7176062,23.6066264 C98.0693884,23.2493442 98.247223,22.7836185 98.247223,22.2118701 C98.247223,21.6512564 98.0693884,21.1908561 97.7176062,20.8330898 C97.3629087,20.4762916 96.8269754,20.2971664 96.1083485,20.2971664 L88.1908201,20.2971664 L88.1908201,24.1440022 L96.1083485,24.1440022 Z M88.1908201,14.8386874 L88.1908201,18.6864915 L96.1083485,18.6864915 C96.8269754,18.6864915 97.3629087,18.5073662 97.7176062,18.1495998 C98.0693884,17.7923176 98.247223,17.3261078 98.247223,16.7533911 C98.247223,16.1937457 98.0693884,15.7343137 97.7176062,15.3765473 C97.3629087,15.0182968 96.8269754,14.8386874 96.1083485,14.8386874 L88.1908201,14.8386874 Z M96.1083485,13.2289808 C96.9246387,13.2289808 97.6408361,13.3751857 98.2642291,13.6675956 C98.8876221,13.9604896 99.3686502,14.3705412 99.7097429,14.9021074 C100.051321,15.4322214 100.22041,16.0499614 100.22041,16.7533911 C100.22041,17.3023858 100.096023,17.8160396 99.8453053,18.2924159 C99.59313,18.7697605 99.2326018,19.1691614 98.7666362,19.492071 C99.2219123,19.8140123 99.5785534,20.2105085 99.8365594,20.6810754 C100.09165,21.1535787 100.22041,21.6638436 100.22041,22.2118701 C100.22041,22.916268 100.051321,23.5359446 99.7097429,24.0723521 C99.3686502,24.6092437 98.8876221,25.0236524 98.2642291,25.315094 C97.6408361,25.6084721 96.9246387,25.7546771 96.1083485,25.7546771 L86.2147177,25.7546771 L86.2147177,13.2289808 L96.1083485,13.2289808 Z" id="Fill-24" fill="#FFFFFF"></path>
                    <path d="M150.806007,19.4744005 C150.806007,18.2805549 151.147586,17.1864385 151.827827,16.190599 C152.512442,15.1947594 153.459922,14.4080606 154.675125,13.8280821 C155.889357,13.2510083 157.252755,12.9610191 158.76192,12.9610191 C161.587839,12.9610191 163.748093,13.8246933 165.244139,15.5549464 L163.879282,16.6824672 C163.364242,16.0618224 162.681571,15.5709224 161.831269,15.2068624 C160.980966,14.8423183 159.957688,14.6602884 158.76192,14.6602884 C157.576842,14.6602884 156.51275,14.8810481 155.57353,15.3225677 C154.634796,15.7636031 153.903051,16.3513276 153.384123,17.0847728 C152.862281,17.8191864 152.601359,18.6155676 152.601359,19.4744005 C152.601359,20.3206463 152.862281,21.1107339 153.384123,21.8446633 C153.903051,22.5776245 154.634796,23.1653489 155.57353,23.6063844 C156.51275,24.0479039 157.576842,24.2686637 158.76192,24.2686637 C159.957688,24.2686637 160.980966,24.0871178 161.831269,23.7240261 C162.681571,23.359482 163.364242,22.8676137 163.879282,22.2464848 L165.244139,23.3919182 C163.73546,25.1110365 161.573263,25.9689012 158.76192,25.9689012 C157.252755,25.9689012 155.889357,25.6798802 154.675125,25.1008699 C153.459922,24.5228279 152.512442,23.735645 151.827827,22.7393213 C151.147586,21.7434817 150.806007,20.6546907 150.806007,19.4744005" id="Fill-26" fill="#FFFFFF"></path>
                    <polygon id="Fill-28" fill="#FFFFFF" points="167.739703 13.2290292 169.715319 13.2290292 169.715319 19.0801313 178.426301 13.2290292 181.567561 13.2290292 173.036843 19.0622188 182 25.7547255 178.80335 25.7547255 171.385799 20.207168 169.715319 21.3346889 169.715319 25.7547255 167.739703 25.7547255"></polygon>
                </g>
            </g>
        </g>
    </g>
</svg>