<svg width="113" height="20" viewBox="0 0 113 20" fill="none" xmlns="http://www.w3.org/2000/svg">
<g opacity="0.85">
<path fill-rule="evenodd" clip-rule="evenodd" d="M22.416 20L13.4777 0H8.90845L0 20H4.73931L6.50966 15.7156H6.54116L11.1655 4.54375L15.7914 15.7125L17.5617 20H22.416ZM31.1008 14.2875L25.0196 0H20.022L28.6469 20H33.2145L41.8663 0H37.2687L31.1008 14.2875ZM52.6868 0L61.6236 20H56.7693L56.0716 18.3016L55.8007 17.6562L54.999 15.7156L50.3746 4.54375L45.7503 15.7156H45.7204L43.9437 20H39.2092L48.1176 0H52.6868ZM78.0781 3.77187L79.6642 0H58.5444L60.1305 3.77187H66.7913V20H71.4172V3.77187H78.0781ZM89.8264 0L98.7632 20H93.9089L92.1401 15.7156L87.5158 4.54375L82.8914 15.7156H82.8615L81.088 20H76.3487L85.2572 0H89.8264ZM104.142 0H103.953H95.2902L97.1472 3.77344H103.825C105.148 3.79115 106.161 4.09062 106.862 4.67188C107.586 5.27187 107.947 6.13385 107.947 7.25781C107.946 8.36302 107.584 9.22031 106.862 9.82969L106.791 9.8875C106.069 10.4583 105.036 10.7437 103.693 10.7437H101.636L104.177 14.4312L108.031 20H113L108.521 13.5719L108.656 13.5109C109.837 12.9997 110.846 12.163 111.562 11.1C112.276 10.0229 112.633 8.74167 112.633 7.25625C112.633 5.77083 112.281 4.4849 111.576 3.39844C110.841 2.28657 109.795 1.41256 108.565 0.884375C107.307 0.315625 105.832 0.0208333 104.142 0Z" fill="white"/>
</g>
</svg>
