<svg width="139" height="30" viewBox="0 0 139 30" fill="none" xmlns="http://www.w3.org/2000/svg">
<g opacity="0.85">
<path d="M43.5797 4.18518H50.8558V6.53757H45.4306V8.92144H50.3228V11.1494H45.4306V16.04H42.9526V4.18518H43.5797Z" fill="white"/>
<path d="M54.1684 4.18518H61.9471V6.53757H56.5522V8.92144H61.4444V11.1258H56.5522V13.5947C56.587 13.6796 56.6845 13.721 56.7708 13.6876H62.4178V16.04H54.0742V4.18518H54.1684Z" fill="white"/>
<path d="M66.608 4.15527H69.2743L69.3988 4.37099L69.5248 4.55679L69.6493 4.74258L69.7754 4.92838L69.9014 5.11418L69.9956 5.20708L70.0259 5.29998C70.053 5.32044 70.0626 5.34091 70.0578 5.36138C70.1938 5.49724 70.3021 5.6576 70.3769 5.83375C70.5131 5.96948 70.6214 6.12987 70.696 6.30612L70.8221 6.46357L70.9465 6.64937C70.9929 6.72648 71.0463 6.79922 71.1061 6.86666L71.1364 6.95956C71.2074 7.02938 71.2619 7.11378 71.296 7.20676C71.4777 7.39811 71.6259 7.61785 71.7348 7.85705L71.8592 8.04285C71.8864 8.06332 71.8959 8.08379 71.8912 8.10426C72.023 8.24611 72.1386 8.40188 72.2358 8.56875L72.3619 8.75455L72.456 8.94035L72.5805 9.12614L72.7065 9.24896L72.8007 9.40641L72.8629 9.56387C72.9852 9.67612 73.0815 9.81307 73.1453 9.96538L73.2395 10.0898L73.3033 10.2142L73.3974 10.3071C73.4809 10.424 73.5541 10.5478 73.616 10.6771L73.7102 10.77L73.7724 10.8629L73.8043 10.9558L73.8665 10.9873C73.9191 11.1125 73.9936 11.2277 74.0867 11.3274L74.1187 11.4203C74.1404 11.4336 74.1522 11.4582 74.149 11.4833C74.3165 11.6559 74.4545 11.8542 74.5575 12.0706L74.5878 11.8533V4.15527H77.0658V15.977H74.2288L74.1984 15.9156C74.1352 15.84 74.0816 15.757 74.0389 15.6684C74.0133 15.648 74.0022 15.6259 74.0086 15.6054C73.8405 15.4332 73.7025 15.2348 73.6001 15.0181C73.5745 14.9977 73.5634 14.9772 73.5682 14.9567L73.4437 14.7709C73.3418 14.6601 73.2574 14.5349 73.1932 14.3993L73.0336 14.2135L72.9203 13.9962L72.7943 13.7805C72.669 13.6507 72.5617 13.5051 72.4752 13.3475L72.4113 13.2845C72.3403 13.1253 72.2426 12.9789 72.1225 12.8515L72.0922 12.7901L72.0284 12.6972L71.746 12.2642C71.6825 12.1882 71.6289 12.1046 71.5864 12.0155C71.5609 11.995 71.5497 11.9745 71.5545 11.954L71.4923 11.9226L71.3678 11.7068L71.3359 11.6439C71.2716 11.569 71.2179 11.4858 71.1763 11.3967C71.1322 11.3526 71.0999 11.2985 71.0822 11.2392L70.9561 11.1148L70.846 10.9322L70.7838 10.7747L70.7216 10.7432L70.5955 10.5275L70.3131 10.1244L70.2509 10.0016L70.1886 9.87721L70.0945 9.78431L70.0307 9.69141L70.0003 9.59851C69.9086 9.49976 69.8244 9.39451 69.7482 9.2836L69.686 9.15921C69.6103 9.06232 69.547 8.95654 69.4977 8.8443C69.4615 8.82435 69.4408 8.80389 69.4355 8.78289L69.3733 8.72148L69.3413 8.6585L69.2153 8.44279L68.9313 8.05387V15.977H66.4517V4.15527H66.608Z" fill="white"/>
<path fill-rule="evenodd" clip-rule="evenodd" d="M82.0345 4.18518H87.3655L87.4596 4.21667H87.5538L87.8043 4.24816L88.3069 4.37098C89.1373 4.69942 89.818 5.31515 90.2217 6.10299C90.8493 7.56733 90.5461 8.73302 89.3122 9.60008C90.2004 10.0126 90.744 10.6424 90.9429 11.4895C91.2982 13.5627 90.577 14.9866 88.7792 15.7613H88.6851C88.4691 15.8667 88.2345 15.9298 87.9942 15.9471L87.7756 16.0085H87.6814L86.8964 16.04H81.5957V4.18518H82.0345ZM84.0418 8.95136H86.9267L87.115 8.92144C87.8043 8.57504 88.0761 8.05911 87.9303 7.37365C87.8235 7.09198 87.6389 6.84544 87.3974 6.66196C87.2973 6.63517 87.202 6.5932 87.115 6.53757L86.9889 6.50765H86.8022C86.72 6.4889 86.6361 6.47835 86.5517 6.47616H84.0418V8.95136ZM86.6762 13.7175H84.0418V10.8093H87.0208C87.1544 10.8505 87.291 10.8816 87.4293 10.9022C87.8633 11.1254 88.1818 11.5187 88.3069 11.9855C88.4069 12.7235 88.0931 13.2803 87.3655 13.6561C87.1387 13.7012 86.9075 13.7218 86.6762 13.7175Z" fill="white"/>
<path d="M94.7805 4.25132H97.0703L97.1022 11.71L97.2905 12.3902C97.817 13.3034 98.559 13.7884 99.5164 13.8451C100.546 13.7685 101.299 13.325 101.774 12.5146V12.4217C101.924 12.1337 102.009 11.8175 102.025 11.4943C102.054 11.2894 102.064 11.0822 102.055 10.8755V4.25132H104.501V11.8611C104.483 11.9423 104.472 12.0251 104.471 12.1083L104.439 12.1713C104.42 12.4016 104.379 12.6295 104.314 12.8515C103.833 14.1511 103.048 15.09 101.961 15.6684C100.622 16.3591 99.3047 16.483 98.0101 16.04C95.4007 15.0596 94.2609 12.9959 94.5907 9.84886V4.21667L94.7805 4.25132Z" fill="white"/>
<path d="M118.423 5.82585L118.359 5.88726L118.04 6.13604L117.976 6.22894L117.882 6.32184L117.757 6.38324L117.663 6.47614L117.569 6.56904L117.507 6.66194L117.381 6.72335C117.325 6.80131 117.262 6.87405 117.193 6.94064L117.004 7.06345L116.972 7.12643L116.91 7.15635C116.818 7.27478 116.711 7.38067 116.591 7.47126C115.273 6.40896 113.914 6.06833 112.513 6.44937C112.441 6.51848 112.356 6.57211 112.262 6.60683C112.165 6.70867 112.058 6.80144 111.943 6.88395L111.913 6.94693L111.753 7.31853C111.746 7.68971 111.893 8.0477 112.16 8.30892L112.693 8.49472L113.196 8.58762C113.327 8.63312 113.464 8.66376 113.602 8.67894L113.729 8.71044L113.855 8.74193L113.979 8.77184L114.105 8.80333L114.265 8.86474H114.359L114.485 8.89623L114.644 8.95764L114.77 8.98913H114.885C114.988 9.03053 115.095 9.06165 115.204 9.08203L115.455 9.14344C115.535 9.18334 115.62 9.21449 115.707 9.23634L115.801 9.26783L116.208 9.42528L116.27 9.48827C116.452 9.56884 116.622 9.6749 116.773 9.80318C116.81 9.82417 116.831 9.84464 116.835 9.86458L116.897 9.89608C116.977 9.95087 117.05 10.0131 117.118 10.0819C117.233 10.1639 117.34 10.2573 117.437 10.3606C118.199 11.4103 118.387 12.4936 118 13.6105C117.588 14.7557 116.857 15.5088 115.806 15.8699C112.538 16.8609 109.872 16.231 107.807 13.9805L107.901 13.8561L108.027 13.7947C108.058 13.7521 108.102 13.7197 108.152 13.7018C108.222 13.6037 108.321 13.5281 108.434 13.4845C108.466 13.4422 108.51 13.41 108.56 13.3916C108.592 13.349 108.636 13.3167 108.686 13.2987L108.749 13.2058L108.843 13.1444L108.905 13.083L108.999 13.02L109.093 12.9901L109.155 12.8972L109.219 12.8657L109.281 12.8043L109.344 12.7728L109.408 12.7413L109.846 12.3713C111.229 13.7107 112.776 14.1951 114.488 13.8246L114.582 13.7632L114.676 13.7317L114.708 13.6703L115.177 13.3554C115.232 13.2018 115.299 13.0532 115.38 12.9113C115.465 12.4048 115.26 11.8934 114.847 11.5808L114.721 11.5509L114.627 11.488L114.502 11.458L114.25 11.3951H114.156L114.032 11.3651L113.968 11.3336C113.797 11.3079 113.629 11.2663 113.467 11.2093H113.373L113.279 11.1793L113.028 11.1164C112.802 11.0936 112.58 11.0407 112.369 10.9589C110.323 10.6996 109.194 9.64887 108.982 7.80664C109.029 5.48155 110.42 4.16942 113.152 3.87025C115.312 3.82302 117.069 4.47488 118.423 5.82585Z" fill="white"/>
<path d="M122.667 4.21667H124.741V8.70416H129.541V4.21667H132.019V16.04H129.536V11.0219H124.737V16.0369H122.26V4.21667H122.667Z" fill="white"/>
<path d="M136.926 4.21667H139V16.04H136.517V4.21667H136.926Z" fill="white"/>
<path d="M50.69 22.724L50.6006 22.7901L50.2273 22.9208L50.1395 22.9633L50.0517 22.9854C49.9614 23.0396 49.865 23.0835 49.7645 23.1161L49.6544 23.1381L49.6113 23.1806H49.5443L49.5012 23.2247H49.4342L49.3911 23.2672H49.3241L49.281 23.3113L49.1933 23.3333L48.9507 23.4199C48.5838 22.1047 47.7328 21.5761 46.3977 21.8344C45.3638 22.2301 44.8574 22.9901 44.8787 24.1143C44.7447 25.2847 45.0308 26.1691 45.7372 26.7675C46.2631 27.1483 46.9407 27.261 47.5641 27.0713C48.3641 26.8152 48.8188 26.3014 48.9284 25.5299C49.0535 25.5495 49.1733 25.5933 49.281 25.659C49.4092 25.6916 49.5341 25.7354 49.6544 25.7897L49.7438 25.8337L49.8746 25.8763L49.9416 25.8983L50.1012 25.9644L50.189 25.9849L50.256 26.029C50.3174 26.0419 50.3765 26.0636 50.4315 26.0935L50.6964 26.1801C50.1092 27.7872 49.0162 28.6564 47.4174 28.7876C45.7994 28.902 44.5761 28.3588 43.7474 27.1579C42.8602 25.6128 42.7283 24.0855 43.3517 22.576C43.9814 21.1379 45.0228 20.327 46.4759 20.1433C48.6056 20.0331 50.0102 20.8933 50.69 22.724Z" fill="white"/>
<path fill-rule="evenodd" clip-rule="evenodd" d="M64.1124 20.3118H61.9998L61.8498 20.2944L61.6742 20.7951L61.6519 20.8597L61.5865 21.077C61.5653 21.1597 61.5354 21.2399 61.4971 21.3163L61.4764 21.4029L61.4541 21.4895C61.399 21.6158 61.3547 21.7464 61.3216 21.88L61.2993 21.9241L61.2785 21.9887L61.2562 22.0973C61.2061 22.2088 61.1692 22.3255 61.1461 22.4453L61.1014 22.5319L61.0583 22.6405L61.036 22.7712L60.8764 23.1617L60.8541 23.2263V23.2924L60.8334 23.3569L60.7887 23.4876C60.7379 23.601 60.6936 23.7172 60.6562 23.8356L60.6355 23.9002L60.6132 23.9647L60.5685 24.1222L60.393 24.5945L60.3483 24.7693C60.2937 24.8958 60.2494 25.0264 60.2158 25.1598L60.1951 25.2039L60.1504 25.3771L60.085 25.5346L60.0403 25.7093C60.01 25.7636 59.988 25.8219 59.9749 25.8825C59.9199 26.0088 59.8756 26.1395 59.8425 26.273L59.8201 26.3171L59.777 26.4746C59.7208 26.6004 59.6765 26.7311 59.6446 26.8651L59.6223 26.9076L59.5999 26.9737L59.5792 27.0383L59.5568 27.1044L59.4898 27.3421L59.4468 27.4287L59.4244 27.5169L59.4021 27.5815L59.3797 27.646L59.2696 27.994L59.2489 28.0381L59.2266 28.1027L59.2042 28.1672L59.1819 28.2333L59.1165 28.4506L59.0718 28.6238H60.9642L61.0312 28.364C61.0488 28.3231 61.0711 28.2648 61.0966 28.1893L61.119 28.1247L61.1413 28.0381L61.2067 27.8208L61.2291 27.7767L61.2514 27.6681C61.2791 27.5975 61.3009 27.5248 61.3168 27.4508L61.3615 27.3642L61.3822 27.2555L61.4046 27.1469H64.54L64.6996 27.6901L64.7666 27.8476L64.7873 27.9358V28.0003L64.832 28.0649C64.8356 28.1415 64.8581 28.216 64.8974 28.2822V28.3483L64.9421 28.4128V28.4994L64.9852 28.6301H66.8999L66.8568 28.4994C66.8394 28.4117 66.8121 28.3261 66.7755 28.2444C66.766 28.1821 66.7431 28.1225 66.7085 28.0696C66.7081 28.0463 66.7003 28.0237 66.6861 28.005V27.9405L66.643 27.8743C66.6422 27.8511 66.6344 27.8287 66.6207 27.8098C66.6208 27.7864 66.613 27.7637 66.5984 27.7452C66.5982 27.7216 66.591 27.6986 66.5776 27.6791L66.5553 27.5925L66.5329 27.5279L66.5106 27.4398L66.4883 27.3532L66.4452 27.2886C66.3962 27.064 66.3224 26.8454 66.225 26.6367C66.2241 26.6135 66.2164 26.5911 66.2026 26.5722C66.1537 26.3476 66.0798 26.129 65.9824 25.9203L65.9601 25.8117L65.9394 25.7251L65.8947 25.6589V25.5944L65.85 25.4637L65.7846 25.3346L65.7622 25.2039L65.6298 24.8559C65.6216 24.794 65.5992 24.7348 65.5644 24.6827C65.5636 24.659 65.5558 24.636 65.5421 24.6166V24.552C65.5155 24.4961 65.4936 24.4382 65.4766 24.3788L65.432 24.2481L65.4112 24.1615L65.3889 24.0954L65.3442 23.9868L65.3011 23.9002L65.2564 23.7049L65.2341 23.6624L65.2118 23.5742L65.0809 23.2278C65.0714 23.1655 65.0485 23.106 65.0139 23.0531C65.0136 23.0297 65.0057 23.0071 64.9916 22.9885V22.9255C64.9658 22.8688 64.9439 22.8104 64.9261 22.7507L64.8815 22.6641C64.8744 22.6186 64.8599 22.5744 64.8384 22.5335C64.8113 22.3912 64.7669 22.2526 64.7059 22.1209C64.682 21.9919 64.6373 21.8675 64.5735 21.7525V21.6863L64.4427 21.3399C64.4331 21.2776 64.4103 21.2181 64.3756 21.1652C64.3753 21.1419 64.3675 21.1193 64.3533 21.1006C64.3533 21.0775 64.3461 21.0549 64.3326 21.036C64.3317 21.0123 64.324 20.9894 64.3102 20.9699L64.2879 20.8833L64.2448 20.7259C64.2114 20.6061 64.1671 20.4897 64.1124 20.3779V20.3118ZM62.8789 22.4626L62.946 22.2233L62.9683 22.1052L63.0784 22.3886L63.0991 22.4531L63.1438 22.6484L63.1662 22.6925L63.1869 22.757C63.2101 22.8626 63.2471 22.9648 63.297 23.0609L63.3193 23.1475C63.3277 23.193 63.3427 23.237 63.364 23.2782L63.3864 23.3648L63.4071 23.4955L63.4518 23.5601L63.4741 23.6482L63.4965 23.7773L63.5395 23.886L63.5619 23.9726L63.5842 24.0608C63.6192 24.1454 63.6486 24.2322 63.672 24.3206L63.6943 24.3647C63.7197 24.4833 63.7566 24.5993 63.8044 24.7111L63.9145 25.0811L64.0454 25.4936L64.09 25.6668H61.8673L61.9998 25.1944C62.0333 25.1238 62.0626 25.0512 62.0875 24.9772L62.1099 24.8906C62.142 24.8139 62.164 24.7335 62.1753 24.6512C62.2221 24.5557 62.2518 24.4529 62.263 24.3473L62.3077 24.2387L62.4401 23.8687L62.4609 23.7821L62.5933 23.3097L62.6157 23.2656L62.7481 22.8972L62.8582 22.5067L62.8789 22.4626Z" fill="white"/>
<path fill-rule="evenodd" clip-rule="evenodd" d="M79.8246 20.2928H76.1706H75.9951V28.5876H77.7455V25.6778H78.8465C80.5996 25.892 81.7218 25.1682 82.2133 23.5065C82.4303 22.102 81.8511 21.0738 80.4756 20.422L80.1661 20.3574L80.1007 20.3354L79.9411 20.3133H79.8677L79.8246 20.2928ZM79.5821 24.1143H77.7328V21.8564H79.1194C79.327 21.8369 79.5364 21.8589 79.7353 21.9209H79.8023C80.0941 22.0462 80.3237 22.2807 80.4405 22.5728C80.6416 23.1984 80.4363 23.6907 79.8246 24.0497C79.7411 24.0597 79.6594 24.0814 79.5821 24.1143Z" fill="white"/>
<path d="M91.6831 20.3354H93.1367V28.6317H91.3975V20.3354H91.6831Z" fill="white"/>
<path d="M102.201 20.2928H108.606V21.943H106.229V28.6096H104.491V21.943H102.12V20.2928H102.201Z" fill="white"/>
<path fill-rule="evenodd" clip-rule="evenodd" d="M121.699 20.3118H119.586H119.433L119.262 20.7952L119.241 20.8597L119.174 21.077C119.154 21.1596 119.124 21.2399 119.087 21.3163L119.064 21.4029L119.044 21.4895C118.988 21.6156 118.943 21.7463 118.911 21.88L118.889 21.9241L118.866 21.9887L118.844 22.0973C118.795 22.2093 118.759 22.3259 118.734 22.4453L118.691 22.5319L118.646 22.6405L118.624 22.7712L118.464 23.1617L118.442 23.2263V23.2924L118.42 23.357L118.377 23.4876C118.325 23.6008 118.281 23.717 118.244 23.8356L118.222 23.9002L118.199 23.9647L118.156 24.1222L117.979 24.5946L117.936 24.7693C117.881 24.8956 117.837 25.0262 117.804 25.1598L117.781 25.2039L117.738 25.3771L117.671 25.5346L117.628 25.7093C117.598 25.7638 117.576 25.8221 117.561 25.8825C117.507 26.0089 117.463 26.1395 117.43 26.273L117.408 26.3171L117.363 26.4746C117.308 26.6008 117.265 26.7314 117.232 26.8651L117.21 26.9076L117.188 26.9737L117.165 27.0383L117.143 27.1044L117.078 27.3422L117.033 27.4288L117.012 27.5169L116.99 27.5815L116.968 27.646L116.858 27.994L116.835 28.0381L116.813 28.1027L116.792 28.1672L116.77 28.2334L116.704 28.4506L116.66 28.6238H118.552L118.618 28.364C118.643 28.307 118.665 28.2486 118.685 28.1893L118.707 28.1247L118.728 28.0381L118.795 27.8208L118.817 27.7767L118.838 27.6681C118.865 27.5973 118.888 27.5247 118.905 27.4508L118.948 27.3642L118.97 27.2556L118.992 27.1469H122.142L122.302 27.6901L122.367 27.8476L122.39 27.9358V28.0003L122.434 28.0649C122.437 28.1416 122.459 28.2165 122.5 28.2822V28.3483L122.544 28.4129V28.4995L122.579 28.6349H124.494L124.45 28.5042C124.431 28.4144 124.402 28.3271 124.362 28.2444C124.354 28.182 124.331 28.1222 124.296 28.0696C124.295 28.0464 124.287 28.0241 124.274 28.005V27.9405L124.231 27.8744C124.23 27.8511 124.222 27.8287 124.209 27.8098C124.208 27.7865 124.2 27.764 124.186 27.7452C124.185 27.7215 124.178 27.6986 124.164 27.6791L124.142 27.5925L124.121 27.528L124.098 27.4398L124.076 27.3532L124.031 27.2886C123.984 27.0638 123.911 26.8452 123.813 26.6368C123.812 26.6135 123.804 26.5911 123.791 26.5722C123.742 26.3476 123.668 26.129 123.57 25.9203L123.548 25.8117L123.526 25.7251L123.483 25.659V25.5944L123.438 25.4637L123.372 25.3346L123.35 25.2039L123.218 24.8559C123.21 24.794 123.187 24.7348 123.152 24.6827C123.151 24.659 123.144 24.6361 123.13 24.6166V24.552C123.103 24.4964 123.081 24.4385 123.065 24.3788L123.02 24.2482L122.998 24.1616L122.975 24.0954L122.932 23.9868L122.887 23.9002L122.844 23.7049L122.822 23.6624L122.8 23.5742L122.667 23.2278C122.659 23.1655 122.637 23.1057 122.602 23.0531C122.601 23.0299 122.593 23.0075 122.579 22.9885V22.9255C122.553 22.8691 122.531 22.8106 122.514 22.7508L122.469 22.6642C122.462 22.6188 122.447 22.5747 122.426 22.5335C122.399 22.3912 122.355 22.2526 122.294 22.1209C122.269 21.9921 122.225 21.8678 122.161 21.7525V21.6864L122.029 21.34C122.021 21.2776 121.998 21.2178 121.964 21.1652C121.962 21.142 121.955 21.1196 121.941 21.1006C121.941 21.0772 121.933 21.0545 121.919 21.0361C121.919 21.0125 121.911 20.9895 121.898 20.9699L121.876 20.8833L121.831 20.7259C121.799 20.6057 121.755 20.4891 121.699 20.3779V20.3118ZM120.467 22.4626L120.532 22.2233L120.555 22.1052L120.665 22.3886L120.687 22.4532L120.732 22.6484L120.752 22.6925L120.775 22.7571C120.798 22.8626 120.835 22.9648 120.885 23.0609L120.907 23.1475C120.915 23.1929 120.93 23.237 120.95 23.2782L120.973 23.3648L120.995 23.4955L121.04 23.5601L121.06 23.6483L121.083 23.7774L121.127 23.886L121.15 23.9726L121.171 24.0608C121.206 24.1453 121.236 24.2321 121.26 24.3206L121.281 24.3647C121.308 24.4829 121.344 24.5988 121.391 24.7111L121.501 25.0811L121.633 25.4936L121.678 25.6668H119.455L119.586 25.1945C119.621 25.1241 119.651 25.0515 119.675 24.9772L119.696 24.8906C119.73 24.8142 119.752 24.7337 119.763 24.6512C119.809 24.5555 119.839 24.4528 119.851 24.3474L119.894 24.2387L120.026 23.8687L120.049 23.7821L120.181 23.3097L120.204 23.2656L120.334 22.8972L120.444 22.5067L120.467 22.4626Z" fill="white"/>
<path d="M133.846 20.3118H135.298V26.958H138.995V28.6097H133.554V20.3118H133.846Z" fill="white"/>
<path d="M11.7662 0L0 7.6917V30L5.88308 26.1534V15.0008L11.7662 11.1541V0Z" fill="white"/>
<path d="M14.0718 11.1541L34.1863 15.0008V3.84664L14.0718 0V11.1541Z" fill="white"/>
<path d="M8.18896 26.1534L28.3035 30V18.8459L8.18896 15.0008V26.1534Z" fill="white"/>
</g>
</svg>
