<svg width="172" height="29" viewBox="0 0 172 29" fill="none" xmlns="http://www.w3.org/2000/svg">
<g opacity="0.85">
<path d="M0.0904843 12.7569C0.199811 11.781 0.438094 10.8229 0.799445 9.90619C0.988601 9.41538 1.19265 9.19242 1.77799 9.21414C3.1408 9.26336 4.5066 9.21414 5.8709 9.23296C6.15707 9.259 6.43364 9.12486 6.58433 8.88694C8.69036 6.03331 11.5798 4.5884 15.1931 4.49285C16.0644 4.46968 16.9387 4.50298 17.81 4.48271C18.172 4.47547 18.3105 4.56089 18.3239 4.94456C18.382 6.74998 18.3954 6.77314 16.5247 6.74274C14.8327 6.71378 13.175 6.80499 11.629 7.56799C10.083 8.33098 8.83781 9.44 8.04395 10.9544C7.82352 11.3772 7.56138 11.4829 7.11158 11.4727C5.88132 11.4467 4.64958 11.4901 3.42081 11.451C2.93973 11.4351 2.77888 11.5813 2.67611 12.0301C1.43691 17.4608 4.38744 23.116 9.74784 25.5439C11.4119 26.3053 13.2246 26.7106 15.0636 26.7326C16.7406 26.7529 18.4192 26.7253 20.0963 26.7471C20.5327 26.7471 20.6652 26.624 20.6712 26.1969C20.6921 24.5189 20.7069 24.5406 18.9986 24.5131C17.0624 24.4827 15.1023 24.681 13.175 24.3133C8.19885 23.3664 4.66149 19.1635 4.71958 14.3234C4.71958 13.7979 4.89086 13.6415 5.40471 13.6792C5.91856 13.7168 6.60518 13.5185 6.97902 13.7602C7.39606 14.031 7.09818 14.7201 7.12796 15.224C7.40351 18.9202 10.8679 22.1257 14.8357 22.2343C17.3394 22.3023 19.8476 22.2704 22.3528 22.2473C22.883 22.2473 23.0319 22.3805 23.0215 22.893C22.9828 24.9199 22.9902 26.9628 22.9798 28.9984H13.4475C13.2096 29.0067 12.9715 28.9833 12.7401 28.9289C8.11098 28.1123 3.87955 25.1501 1.70203 21.0731C0.952053 19.7001 0.43741 18.2174 0.17836 16.6834C-0.0250957 15.3837 -0.0546329 14.0639 0.0904843 12.7569Z" fill="white"/>
<path d="M62.8037 11.3873C61.9101 12.4828 61.0164 13.5793 60.1228 14.6767C59.3244 15.6627 58.535 16.6544 57.7233 17.636C57.2512 18.2151 55.6381 18.2151 55.169 17.636C53.619 15.7268 52.0705 13.8215 50.5235 11.9201C50.3745 11.742 50.2777 11.5161 49.9396 11.4076V12.5151C49.9396 14.9764 49.9322 17.4521 49.9516 19.9207C49.9516 20.355 49.8458 20.5519 49.3558 20.5128C48.8872 20.4795 48.4168 20.4795 47.9483 20.5128C47.573 20.5374 47.5015 20.3796 47.5015 20.0596C47.5084 16.3562 47.5084 12.6532 47.5015 8.95064C47.5015 8.62198 47.5938 8.45404 47.9483 8.49892C47.993 8.49892 48.0377 8.49892 48.0823 8.49892C51.1297 8.50616 50.6635 8.31215 52.4284 10.5114C53.6081 11.9809 54.7758 13.4577 55.9509 14.9315C56.4379 15.5425 56.4424 15.5425 56.9101 14.9561C58.3444 13.1594 59.8055 11.3786 61.1996 9.55292C61.7775 8.79572 62.4671 8.49747 63.4218 8.49747C64.1367 8.49747 64.8874 8.49747 65.3804 8.49747C65.3804 9.11279 65.3804 9.8005 65.3804 10.4173C65.3953 13.5778 65.3804 16.7398 65.3983 19.9018C65.3983 20.3695 65.3014 20.5736 64.7742 20.5229C64.2008 20.4679 63.4605 20.5997 63.0226 20.4998C62.9869 20.0828 62.966 19.356 62.9631 18.8001C62.9512 16.3547 62.9631 13.9094 62.9631 11.4655L62.8037 11.3873Z" fill="white"/>
<path fill-rule="evenodd" clip-rule="evenodd" d="M82.8332 14.4784V14.4827V19.8077C82.8333 19.8298 82.8332 19.8519 82.8331 19.8739C82.8319 20.1751 82.8307 20.4592 83.3262 20.4592C84.5142 20.4522 85.7033 20.4565 86.8927 20.4608C89.3523 20.4697 91.8133 20.4786 94.2689 20.3869C96.4852 20.3101 98.0863 19.288 98.6672 17.0569C99.1498 15.2466 99.12 13.3432 98.5808 11.548C98.2769 10.5323 97.5576 9.68238 96.5909 9.19677C95.838 8.80388 95.0011 8.58724 94.1468 8.56408C92.0135 8.48731 89.8781 8.49688 87.7444 8.50644C86.2968 8.51292 84.85 8.51941 83.4052 8.49893C82.8943 8.49169 82.8332 8.75229 82.8332 9.15333V14.4784ZM89.9526 17.9386V18.0168V18.0211C89.5348 18.0211 89.1172 18.0198 88.6999 18.0184C87.8199 18.0156 86.9412 18.0128 86.0652 18.0226C85.6125 18.0298 85.4412 17.8952 85.4412 17.4333C85.4605 15.4412 85.4576 13.4475 85.4412 11.4553C85.4382 11.0572 85.5752 10.9385 85.9818 10.9385C87.1018 10.9488 88.2216 10.947 89.3412 10.9452C90.7275 10.943 92.1137 10.9408 93.5004 10.9616C94.5877 10.979 95.6705 11.2512 96.0324 12.4008C96.5026 13.8124 96.4811 15.3354 95.9713 16.734C95.669 17.5448 94.8826 17.8894 94.044 17.9241C93.0882 17.9628 92.1302 17.9543 91.1721 17.9458C90.7656 17.9422 90.359 17.9386 89.9526 17.9386Z" fill="white"/>
<path d="M115.104 8.50179C116.828 8.50179 118.551 8.51048 120.274 8.4931C120.623 8.4931 120.777 8.60024 120.773 8.92744C120.773 8.94916 120.773 8.97088 120.773 8.9926C120.922 10.9442 120.922 10.9442 118.901 10.9442C116.305 10.9442 113.709 10.9442 111.113 10.9442C110.711 10.9461 110.309 10.977 109.912 11.0369C108.721 11.2193 108.061 11.8824 107.888 13.0479C107.749 14.0149 107.753 14.9963 107.899 15.9623C108.062 17.1061 108.843 17.8445 110.037 17.9256C112.629 18.1007 115.226 17.969 117.821 18.0153C118.237 18.0153 118.301 17.8126 118.298 17.4883C118.298 16.4922 118.308 15.4947 118.286 14.4986C118.277 14.0903 118.408 13.9383 118.852 13.9195C120.912 13.8254 120.91 13.8123 120.91 15.7611C120.91 17.1264 120.9 18.4916 120.922 19.8555C120.922 20.2898 120.8 20.4751 120.317 20.4722C117.029 20.452 113.737 20.4925 110.448 20.4346C107.28 20.3796 105.663 18.968 105.235 15.958C105.049 14.6667 105.099 13.3535 105.384 12.0793C105.854 9.99448 107.478 8.69145 109.87 8.58287C111.612 8.50324 113.36 8.56839 115.104 8.56839V8.50179Z" fill="white"/>
<path d="M39.706 20.465C38.2062 20.465 36.7033 20.5446 35.211 20.4476C32.0474 20.2435 30.7561 19.0447 30.3197 15.9826C30.108 14.6285 30.1758 13.2469 30.5193 11.9186C31.0674 9.88154 32.4555 8.77687 34.6271 8.58865C36.3474 8.43519 38.0706 8.52205 39.7924 8.50613C41.4039 8.4902 43.0155 8.51916 44.627 8.49455C45.0739 8.48731 45.2228 8.61761 45.1811 9.04326C45.1126 9.66003 45.4611 10.4911 45.0411 10.8429C44.6821 11.1469 43.8496 10.9457 43.23 10.9471C40.8578 10.9529 38.4857 10.9529 36.1135 10.9471C35.9572 10.9471 35.8008 10.9471 35.6444 10.9471C33.6113 11.0383 32.8294 11.797 32.7802 13.7631C32.7594 14.5826 32.7043 15.4078 32.9009 16.2244C33.1526 17.2625 33.7811 17.817 34.8818 17.9531C36.0182 18.0978 37.1606 18.0327 38.3074 18.037C40.3926 18.0472 42.4689 18.0544 44.5496 18.037C45.0277 18.037 45.2511 18.1152 45.1915 18.6292C45.123 19.2286 45.4462 20.0104 45.0768 20.3897C44.7075 20.769 43.8853 20.4983 43.2702 20.5084C42.0786 20.5287 40.8975 20.5084 39.712 20.5084L39.706 20.465Z" fill="white"/>
<path fill-rule="evenodd" clip-rule="evenodd" d="M147.052 17.526C147.493 17.5245 147.933 17.5231 148.373 17.5231C148.691 17.5231 149.01 17.5312 149.328 17.5394C150.043 17.5576 150.759 17.5759 151.468 17.5028C152.63 17.3754 153.224 17.8141 153.695 18.8145C154.505 20.5354 154.578 20.5335 156.508 20.4818C156.536 20.481 156.564 20.4803 156.593 20.4795C157.277 20.4607 157.311 20.4187 156.993 19.8164C156.51 18.9082 156.028 17.9998 155.546 17.0918C154.394 14.9194 153.243 12.7487 152.077 10.5852C151.646 9.77444 151.075 9.04185 150.156 8.66542C147.912 7.75185 145.789 8.54236 144.645 10.7054C144.12 11.6983 143.591 12.6896 143.062 13.681C142.71 14.3419 142.358 15.0028 142.006 15.6641C141.265 17.0704 140.523 18.4748 139.779 19.8772C139.56 20.2898 139.605 20.5172 140.167 20.4867C140.701 20.4607 141.241 20.4723 141.777 20.4867C142.096 20.516 142.397 20.335 142.512 20.0437C142.669 19.7326 142.834 19.4252 142.998 19.1177C143.194 18.7527 143.39 18.3877 143.571 18.0168C143.749 17.6548 143.999 17.5231 144.411 17.5231C145.292 17.5318 146.172 17.5289 147.052 17.526ZM148.314 15.3181V15.3022V15.2993C147.998 15.2993 147.681 15.2985 147.365 15.2977C146.811 15.2964 146.256 15.2951 145.703 15.2978C145.228 15.3079 145.088 15.1429 145.323 14.7187C145.576 14.264 145.825 13.808 146.075 13.3519C146.441 12.6839 146.807 12.0159 147.182 11.3525C147.772 10.3116 149.029 10.2797 149.624 11.325C150.092 12.1486 150.536 12.9897 150.98 13.8306C151.136 14.1249 151.291 14.4193 151.447 14.7129C151.654 15.1154 151.544 15.3181 151.059 15.3181H148.314Z" fill="white"/>
<path d="M134.198 8.48731C136.458 8.48731 138.718 8.50179 140.977 8.47717C141.487 8.47717 141.634 8.62195 141.627 9.10842C141.604 10.7951 141.619 10.7937 139.863 10.7879C138.588 10.7879 137.312 10.7995 136.037 10.7777C135.572 10.769 135.441 10.9225 135.441 11.3786C135.464 14.1931 135.441 17.0091 135.465 19.8236C135.465 20.3332 135.316 20.4896 134.784 20.4867C132.856 20.4751 132.859 20.4954 132.859 18.6147C132.859 16.2099 132.839 13.8065 132.859 11.4032C132.859 10.9225 132.748 10.7676 132.23 10.7777C130.592 10.811 128.964 10.7777 127.331 10.7966C126.871 10.7966 126.709 10.6634 126.691 10.2174C126.621 8.49165 126.607 8.4931 128.356 8.4931L134.198 8.48731Z" fill="white"/>
<path d="M74.2409 8.496C76.3886 8.496 78.5379 8.50903 80.6871 8.48587C81.1428 8.48587 81.3409 8.57853 81.2829 9.05196C81.2188 9.60502 81.5197 10.3304 81.1726 10.6793C80.8256 11.0282 80.072 10.7763 79.4985 10.785C78.3353 10.8024 77.1706 10.8081 76.0074 10.785C75.5754 10.7748 75.4429 10.8863 75.4458 11.3207C75.4682 14.1598 75.4458 16.9975 75.4682 19.8352C75.4682 20.3666 75.3297 20.5866 74.7607 20.5171C74.1918 20.4476 73.447 20.7502 73.0821 20.3941C72.7172 20.0379 72.9749 19.3227 72.9719 18.7653C72.9585 16.2953 72.9541 13.8254 72.9719 11.3569C72.9719 10.9051 72.8632 10.7777 72.3881 10.7777C70.8436 10.8081 69.299 10.7777 67.756 10.7995C67.3092 10.8067 67.0947 10.7285 67.1409 10.2449C67.1945 9.68754 66.9711 8.9564 67.2615 8.61327C67.5519 8.27014 68.3533 8.50614 68.9267 8.50034C70.7035 8.48731 72.473 8.496 74.2409 8.496Z" fill="white"/>
<path d="M166.575 20.4954C165.053 20.4361 163.239 20.6272 161.44 20.3058C159.041 19.8787 157.749 18.4728 157.705 16.1071C157.66 13.7414 157.693 11.3453 157.678 8.9651C157.678 8.5988 157.81 8.45982 158.186 8.47429C158.676 8.49167 159.17 8.50035 159.66 8.47429C160.128 8.44389 160.29 8.61907 160.286 9.06645C160.271 10.9052 160.286 12.7453 160.286 14.5855C160.286 15.0386 160.286 15.4947 160.33 15.9464C160.447 17.2567 161.03 17.8286 162.401 17.9415C163.066 17.9965 163.741 17.9907 164.41 17.9922C166.692 17.9922 168.972 18.0095 171.252 17.9922C171.747 17.9922 171.997 18.066 171.937 18.6176C171.867 19.2156 172.188 19.9959 171.818 20.3738C171.449 20.7517 170.627 20.4809 170.012 20.4925C168.963 20.5113 167.911 20.4954 166.575 20.4954Z" fill="white"/>
<path d="M18.5085 9.10261C19.7849 9.10261 21.0613 9.12143 22.3363 9.09392C22.862 9.08234 23.081 9.19382 23.0646 9.7715C23.0095 11.1628 23.0408 11.1585 21.5752 11.1599C19.3157 11.1599 17.0533 11.1353 14.7939 11.1875C13.0602 11.228 11.5887 12.7453 11.5604 14.4103C11.542 15.3085 11.8936 16.1767 12.5368 16.8219C13.1801 17.467 14.0618 17.8357 14.986 17.8459C15.9035 17.8662 16.8225 17.872 17.7385 17.8459C18.1853 17.8314 18.3104 17.9907 18.3193 18.4062C18.3566 19.909 18.367 19.9206 16.8478 19.9047C15.8439 19.8946 14.8371 19.9785 13.8362 19.7802C11.4099 19.2908 9.53327 17.1785 9.42901 14.7722C9.30368 12.2772 10.9611 10.0264 13.4311 9.33716C14.0127 9.17862 14.6143 9.10016 15.2184 9.10406C16.3161 9.10116 17.4123 9.10261 18.5085 9.10261Z" fill="white"/>
<path d="M2.271 7.00477C2.88467 5.96807 3.65539 5.02707 4.55725 4.2134C7.53607 1.46257 11.1017 0.0726798 15.2125 0.0147676C17.6269 -0.0170842 20.0412 0.0147676 22.4555 0.000289507C22.8696 0.000289507 23.0707 0.0639929 23.023 0.515708C22.9634 1.07167 23.2553 1.79702 22.9143 2.14883C22.5732 2.50065 21.8136 2.24728 21.2387 2.25887C18.936 2.2994 16.6319 2.17055 14.3323 2.32402C10.7964 2.55856 7.86672 4.01795 5.5209 6.57477C5.24238 6.87736 4.98024 7.02938 4.55427 7.00911C3.82743 6.97871 3.09911 7.00477 2.271 7.00477Z" fill="white"/>
<path d="M122.938 14.4508C122.938 12.6758 122.951 10.9008 122.938 9.12727C122.938 8.65094 123.101 8.4801 123.596 8.47575C125.581 8.45693 125.58 8.44535 125.58 10.3579C125.58 13.4967 125.568 16.6356 125.589 19.7686C125.589 20.2913 125.462 20.5389 124.88 20.4795C124.48 20.4397 124.077 20.4368 123.676 20.4708C123.124 20.5186 122.932 20.326 122.939 19.7759C122.969 18.0023 122.951 16.2259 122.951 14.4508H122.938Z" fill="white"/>
<path d="M103.35 14.5044C103.35 16.2577 103.338 18.0125 103.359 19.7658C103.359 20.2681 103.247 20.4897 102.657 20.4897C100.75 20.4766 100.751 20.4998 100.753 18.664C100.753 15.5034 100.769 12.3414 100.753 9.18085C100.753 8.63213 100.937 8.44681 101.485 8.50617C101.841 8.54743 102.201 8.54743 102.556 8.50617C103.226 8.4222 103.38 8.70886 103.368 9.31115C103.326 11.0398 103.349 12.7729 103.35 14.5044Z" fill="white"/>
<path d="M20.5877 18.8666C20.5966 18.7162 20.5966 18.5654 20.5877 18.4149C20.5221 17.8749 20.747 17.6432 21.313 17.7286C21.4896 17.7523 21.6681 17.7601 21.8462 17.7518C23.0482 17.7026 23.0482 17.7011 23.1003 18.8304C23.1003 18.8739 23.1003 18.9173 23.1003 18.9607C23.0676 20.0697 23.3893 20.0495 22.019 20.0495C21.952 20.0495 21.8864 20.0495 21.8194 20.0495C20.6279 20.0654 20.6279 20.0654 20.5877 18.8666Z" fill="white"/>
<rect x="20.6323" y="4.4798" width="2.39945" height="2.24265" fill="white"/>
</g>
</svg>
