<svg width="115" height="36" viewBox="0 0 115 36" fill="none" xmlns="http://www.w3.org/2000/svg">
<path d="M46.6462 15.9991C45.744 15.9991 45.0777 15.6519 44.6472 14.9576C44.2167 14.2633 44.0006 13.2768 43.999 11.9982C43.999 10.7285 44.2151 9.74471 44.6472 9.04682C45.0793 8.34893 45.7456 7.99998 46.6462 7.99998C46.9532 7.99397 47.2589 8.04528 47.5508 8.15182C47.7966 8.2476 48.0256 8.39094 48.2274 8.57535C48.4212 8.75608 48.5823 8.97668 48.7023 9.22529C48.8317 9.48826 48.9314 9.76834 48.999 10.059L47.8119 10.4373C47.7687 10.2675 47.7155 10.1011 47.6529 9.93916C47.5995 9.79159 47.5249 9.65482 47.4321 9.53428C47.3417 9.41834 47.2288 9.32721 47.1021 9.26791C46.951 9.20123 46.7895 9.16952 46.6272 9.17468C46.2332 9.14125 45.8575 9.36655 45.6633 9.75271C45.448 10.2428 45.3483 10.7866 45.3737 11.3323V12.6641C45.349 13.2097 45.4487 13.7534 45.6633 14.2437C45.8575 14.6299 46.2332 14.8552 46.6272 14.8217C46.7894 14.8256 46.9507 14.7939 47.1021 14.7285C47.2283 14.6682 47.341 14.5773 47.4321 14.4621C47.5244 14.3412 47.5989 14.2045 47.6529 14.0573C47.7152 13.8951 47.7683 13.7288 47.8119 13.5591L48.999 13.9347C48.9314 14.2263 48.8317 14.5072 48.7023 14.7711C48.5811 15.0188 48.4201 15.2391 48.2274 15.4211C48.0261 15.6056 47.7969 15.7482 47.5508 15.8419C47.2594 15.9516 46.9535 16.0048 46.6462 15.9991Z" fill="white"/>
<path d="M53.3308 15.9995V13.4435L50.999 8.99951H52.4984L53.3308 10.6874L53.978 12.1342H54.0497L54.7067 10.6874L55.549 8.99951H56.999L54.6672 13.4435V15.9995H53.3308Z" fill="white"/>
<path fill-rule="evenodd" clip-rule="evenodd" d="M58.999 9.00449V15.9995H60.1015V13.3269H61.2282C61.8007 13.3269 62.2397 13.134 62.5411 12.748C62.8595 12.3112 63.0228 11.7436 62.9962 11.1657C63.0228 10.5878 62.8595 10.0202 62.5411 9.58339C62.1919 9.17452 61.7124 8.96376 61.2242 9.00449H58.999ZM61.0017 12.256H60.1015V10.0586H61.0017C61.23 10.0332 61.458 10.1107 61.6409 10.2757C61.7866 10.4625 61.86 10.7136 61.8432 10.9679V11.349C61.86 11.6034 61.7866 11.8544 61.6409 12.0413C61.4577 12.2054 61.2297 12.282 61.0017 12.256Z" fill="white"/>
<path d="M68.8762 12.9912H67.1239V15.9995H65.999V9.00915H67.1239V11.9089H68.8762V8.99951H69.999V15.9899H68.8762V12.9912Z" fill="white"/>
<path d="M73.999 15.9875V8.99951H77.999V10.0838H75.187V11.9079H77.8988V12.9899H75.187V14.9176H77.999V15.9995L73.999 15.9875Z" fill="white"/>
<path fill-rule="evenodd" clip-rule="evenodd" d="M80.999 15.9995H82.075L82.0731 13.2812H82.7226L83.8144 15.9995H84.999L83.7749 13.1292C84.1148 13.0538 84.4153 12.8137 84.6081 12.4635C84.8107 12.0779 84.9126 11.6262 84.9003 11.1682C84.9261 10.5896 84.7668 10.0213 84.4561 9.58352C84.1155 9.17412 83.6474 8.96327 83.1708 9.00463H80.999V15.9995ZM83.5775 12.0414C83.3987 12.2055 83.1762 12.2821 82.9536 12.256H82.075V10.0587H82.9536C83.1765 10.0333 83.399 10.1108 83.5775 10.2758C83.7197 10.4626 83.7913 10.7137 83.7749 10.968V11.3491C83.7913 11.6035 83.7197 11.8545 83.5775 12.0414Z" fill="white"/>
<path fill-rule="evenodd" clip-rule="evenodd" d="M88.999 9.00435V15.9995H90.1015V13.3269H91.2282C91.715 13.3659 92.1927 13.1553 92.5411 12.748C92.8595 12.3111 93.0228 11.7436 92.9962 11.1656C93.0228 10.5877 92.8595 10.0201 92.5411 9.58326C92.1916 9.17492 91.7123 8.96424 91.2242 9.00435H88.999ZM91.0017 12.2559H90.1015V10.0584H91.0017C91.23 10.0331 91.458 10.1105 91.6409 10.2755C91.7866 10.4624 91.86 10.7135 91.8432 10.9678V11.3489C91.86 11.6033 91.7866 11.8544 91.6409 12.0412C91.4577 12.2053 91.2297 12.2819 91.0017 12.2559Z" fill="white"/>
<path d="M97.1066 8.99951V13.2987C97.1066 13.5548 97.1066 13.7872 97.1268 13.9911C97.1354 14.1699 97.1723 14.3452 97.2357 14.508C97.2934 14.6489 97.3872 14.765 97.5039 14.84C97.6598 14.9274 97.8316 14.9682 98.0041 14.9586C98.1759 14.9685 98.3471 14.9277 98.5022 14.84C98.6195 14.7651 98.7139 14.649 98.7724 14.508C98.8358 14.3452 98.8728 14.1699 98.8813 13.9911C98.8955 13.7872 98.9015 13.5548 98.9015 13.2987V8.99951H99.9986V13.0947C100.003 13.5209 99.9776 13.9467 99.924 14.3681C99.8854 14.6905 99.7855 14.9986 99.6316 15.2692C99.4808 15.5185 99.2701 15.7093 99.0265 15.817C98.3634 16.0604 97.6528 16.0604 96.9897 15.817C96.7402 15.7126 96.5236 15.5216 96.3685 15.2692C96.2133 14.9974 96.1126 14.6876 96.0741 14.3634C96.0204 13.9419 95.9954 13.5161 95.9994 13.09V8.99951H97.1066Z" fill="white"/>
<path d="M104.045 10.9761H103.961V15.9995H102.999V9.00915H104.38L105.953 14.035H106.037V8.99951H106.999V15.9899H105.618L104.045 10.9761Z" fill="white"/>
<path d="M111.942 12.931L111.252 13.8952V15.9995H109.999V9.00915H111.252V12.15H111.309L112.082 10.9857L113.489 8.99951H114.905L112.811 11.9475L114.999 15.9995H113.585L111.942 12.931Z" fill="white"/>
<path d="M47.3183 25.8289H47.277C47.2242 25.9787 47.1636 26.1236 47.0955 26.2627C47.0257 26.4049 46.937 26.5302 46.8335 26.6326C46.7186 26.7481 46.5896 26.838 46.4518 26.8988C46.2799 26.9694 46.1 27.0027 45.9196 26.9972C45.3283 27.0333 44.7709 26.6399 44.4756 25.978C44.1579 25.2985 43.999 24.3227 43.999 23.0506C43.999 21.7217 44.1737 20.714 44.523 20.0274C44.8723 19.3407 45.4101 18.9983 46.1362 19.0001C46.3842 18.9935 46.6313 19.0421 46.8665 19.1438C47.0594 19.2296 47.2384 19.3604 47.3946 19.5297C47.5364 19.6878 47.6588 19.8726 47.7577 20.0779C47.8519 20.2733 47.9327 20.479 47.999 20.6927L47.3801 21.0573C47.3301 20.8919 47.2715 20.7309 47.2048 20.5756C47.1403 20.4292 47.0597 20.2956 46.9655 20.179C46.8662 20.0633 46.7506 19.9729 46.6251 19.9129C46.4773 19.8425 46.3206 19.8082 46.163 19.8118C45.7372 19.7758 45.3303 20.0434 45.1027 20.509C44.8564 21.0766 44.7391 21.7223 44.7644 22.3719V23.5695C44.7624 23.9263 44.7852 24.2825 44.8324 24.634C44.8705 24.9273 44.9472 25.2099 45.0594 25.4697C45.1575 25.6957 45.2997 25.8847 45.4719 26.0179C45.661 26.1532 45.8747 26.2203 46.0908 26.2122C46.4309 26.2376 46.7627 26.0716 47.0006 25.7571C47.224 25.4359 47.341 25.0146 47.3265 24.5835V23.7851H46.0661V23.0426H47.997V26.8588H47.3265L47.3183 25.8289Z" fill="white"/>
<path d="M52.7621 18.9995V23.1378C52.7621 23.4724 52.773 23.7714 52.7905 24.0348C52.801 24.268 52.8506 24.4972 52.9369 24.711C53.0116 24.8948 53.1409 25.046 53.3041 25.1405C53.7498 25.3366 54.2483 25.3366 54.694 25.1405C54.8577 25.046 54.9877 24.8949 55.0633 24.711C55.1479 24.4967 55.1967 24.2677 55.2075 24.0348C55.2272 23.7714 55.2359 23.4724 55.2359 23.1378V18.9995H55.9986V22.9385C56.0024 23.3873 55.9798 23.8359 55.9309 24.2815C55.8971 24.6154 55.8012 24.9383 55.649 25.2307C55.5066 25.4868 55.2943 25.6884 55.0414 25.8073C54.3673 26.0636 53.6329 26.0636 52.9588 25.8073C52.7047 25.6896 52.4913 25.4878 52.3491 25.2307C52.1969 24.9383 52.101 24.6154 52.0672 24.2815C52.0183 23.8359 51.9956 23.3873 51.9994 22.9385V18.9995L52.7621 18.9995Z" fill="white"/>
<path d="M58.999 25.9995V25.3246H60.204V19.672H58.999V18.9995H61.999V19.672H60.7924V25.3246H61.999V25.9971L58.999 25.9995Z" fill="white"/>
<path d="M66.999 25.9995V18.9995H67.607V25.2754H69.999V25.9995H66.999Z" fill="white"/>
<path fill-rule="evenodd" clip-rule="evenodd" d="M75.7378 18.9995H73.999V25.9995H75.7378C76.4958 25.9995 77.0633 25.7054 77.438 25.1173C77.8127 24.5291 77.999 23.6541 77.999 22.4995C77.999 21.3449 77.8127 20.4723 77.438 19.8842C77.0633 19.296 76.4958 18.9995 75.7378 18.9995ZM76.8277 24.6858C76.5629 25.0803 76.1397 25.2986 75.7014 25.2667H74.7485V19.7227H75.7014C76.1396 19.6917 76.5624 19.9098 76.8277 20.3036C77.1055 20.7934 77.2382 21.3698 77.2067 21.9499V23.0419C77.2382 23.6212 77.1055 24.1968 76.8277 24.6858Z" fill="white"/>
<path d="M16.999 22.9995C14.7899 22.9995 12.999 20.7609 12.999 17.9995C12.999 15.2381 14.7899 12.9995 16.999 12.9995V22.9995Z" fill="white"/>
<path d="M16.999 7.99951V11.694C20.3741 11.694 23.1101 14.2932 23.1101 17.4995C23.1101 20.7058 20.3741 23.3051 16.999 23.3051V26.9995C22.5219 26.9995 26.999 22.7462 26.999 17.4995C26.999 12.2528 22.5219 7.99951 16.999 7.99951Z" fill="white"/>
<path d="M17.4734 27.4992C12.9551 27.5024 8.99829 24.4634 7.82751 20.0906C6.65673 15.7178 8.56411 11.1024 12.4773 8.83902C16.3906 6.57569 21.3332 7.22923 24.5266 10.4322L26.999 7.95479C23.1461 4.09338 17.3511 2.93792 12.3165 5.02725C7.28179 7.11657 3.99902 12.0392 3.99902 17.4995C3.99902 22.9598 7.28179 27.8824 12.3165 29.9718C17.3511 32.0611 23.1461 30.9056 26.999 27.0442L24.5266 24.5668C22.6583 26.4453 20.1201 27.5006 17.4734 27.4992Z" fill="white"/>
<path d="M27.844 16.2495C28.0507 17.407 28.0507 18.592 27.844 19.7495H32.389C31.4499 27.4739 24.5813 33.0799 16.8254 32.4523C9.06956 31.8246 3.19176 25.1871 3.50691 17.4122C3.82206 9.6374 10.2178 3.49736 17.999 3.49951V-0.000488281C8.0579 -0.000488281 -0.000976562 8.05839 -0.000976562 17.9995C-0.000976563 27.9406 8.0579 35.9995 17.999 35.9995C27.9401 35.9995 35.999 27.9406 35.999 17.9995V16.2495H27.844Z" fill="white"/>
</svg>
