<svg width="89" height="39" viewBox="0 0 89 39" fill="none" xmlns="http://www.w3.org/2000/svg">
<g opacity="0.85">
<path fill-rule="evenodd" clip-rule="evenodd" d="M89 39V0H0V39H89ZM88.23 38.2293H0.755805V0.770745H88.23V38.2293Z" fill="white"/>
<path d="M48.0475 18.0192H46.1169V11.3888C46.1169 11.2851 46.1169 11.1814 46.1042 11.0697C46.0616 10.2862 45.437 10.1729 44.9563 10.3436C44.719 10.4523 44.5044 10.6056 44.3238 10.7952C44.2605 10.8845 44.2313 10.9939 44.2416 11.1032C44.2416 13.3075 44.2416 15.5112 44.2416 17.7144V18.0112H42.3315V9.20108C42.5703 9.20108 42.8059 9.22023 43.0541 9.20108C43.5759 9.15321 44.0519 9.21385 44.3744 9.70374C44.8549 9.30441 45.4597 9.08909 46.0821 9.09576C46.8427 9.08459 47.4688 9.32715 47.8214 10.0771C48.4539 9.30959 49.2619 9.02874 50.209 9.1197C51.0992 9.19789 51.6732 9.74842 51.8044 10.6532C51.8362 10.8506 51.8531 11.0501 51.855 11.25C51.855 13.4617 51.855 15.6734 51.855 17.8851C51.855 17.925 51.855 17.9649 51.855 18.0256H49.9307V11.4559C49.9307 11.3362 49.9307 11.2165 49.9149 11.0968C49.8548 10.417 49.3362 10.0883 48.7164 10.366C48.4932 10.4847 48.2904 10.6388 48.1155 10.8224C48.0613 10.9081 48.0383 11.0102 48.0507 11.1112C48.0507 13.3154 48.0507 15.5192 48.0507 17.7224L48.0475 18.0192Z" fill="white"/>
<path fill-rule="evenodd" clip-rule="evenodd" d="M33.3377 18.0144C33.8198 18.0474 34.3033 18.0533 34.7861 18.0319V6.383H32.9108V9.78193C32.4478 9.2965 31.7924 9.04789 31.1272 9.10534C30.2591 9.14363 29.633 9.54895 29.3342 10.366C29.1692 10.8067 29.0743 11.2709 29.0527 11.7415C29.0132 12.9495 29.0116 14.1607 29.0527 15.3702C29.076 15.865 29.1708 16.3537 29.3342 16.8208C29.652 17.7543 30.4663 18.225 31.445 18.1404C31.9327 18.1123 32.3999 17.9328 32.7827 17.6266C32.8454 17.6726 32.9054 17.7267 32.9642 17.7797C33.0891 17.8924 33.2087 18.0003 33.3377 18.0144ZM32.8848 12.8043C32.8867 13.0633 32.8887 13.3224 32.8887 13.5814L32.8823 16.0085C32.8554 16.4279 32.5501 16.7755 32.1408 16.8527C31.6632 16.9484 31.26 16.7777 31.1351 16.3468C31.0273 15.9718 30.9709 15.5836 30.9675 15.1931C30.9517 13.9931 30.9644 12.7915 30.9802 11.5899C30.9843 11.366 31.0189 11.1437 31.0829 10.9293C31.1408 10.669 31.3169 10.4515 31.5582 10.3425C31.7994 10.2335 32.0774 10.2458 32.3084 10.3755C32.6546 10.5463 32.9013 10.7984 32.8887 11.25C32.8771 11.7681 32.8809 12.2862 32.8848 12.8043Z" fill="white"/>
<path fill-rule="evenodd" clip-rule="evenodd" d="M48.2262 20.8676H46.3398L46.3477 32.5404C46.4412 32.5404 46.533 32.5384 46.6236 32.5364C46.8014 32.5326 46.9745 32.5288 47.1462 32.5404C47.5795 32.5723 47.9843 32.5436 48.2831 32.1686C48.2913 32.1573 48.3059 32.152 48.3229 32.1458C48.3324 32.1423 48.3425 32.1386 48.3527 32.1335L48.4476 32.1989C49.1243 32.7016 49.8738 32.7431 50.6486 32.5181C51.0332 32.401 51.3612 32.1439 51.5688 31.7968C51.8722 31.3315 52.0404 30.7898 52.0542 30.233C52.0843 28.808 52.0906 27.383 52.0542 25.958C52.0537 25.3166 51.8254 24.6966 51.4107 24.2106C50.6865 23.4032 49.2382 23.3888 48.4064 24.1644L48.2262 24.3383V20.8676ZM48.2467 30.5106V28.0851C48.2467 27.8692 48.2479 27.6533 48.2491 27.4377C48.2522 26.8564 48.2553 26.2769 48.2357 25.7043C48.2202 25.4293 48.3463 25.1657 48.5693 25.0069C48.8009 24.797 49.1239 24.7236 49.4223 24.8132C49.7207 24.9027 49.9515 25.1422 50.0319 25.4457C50.0978 25.6598 50.1335 25.8822 50.1378 26.1064C50.1505 27.4197 50.1552 28.7346 50.1378 30.0479C50.1286 30.3354 50.0708 30.6193 49.9671 30.8872C49.8184 31.2878 49.4231 31.4537 48.9836 31.3532C48.5703 31.2857 48.2617 30.9329 48.2467 30.5106Z" fill="white"/>
<path d="M15.2539 9.21222H17.1924V15.7069C17.1924 15.7707 17.1924 15.8362 17.1924 15.9C17.1924 16.7346 17.7569 17.0984 18.5159 16.7521C18.6294 16.6954 18.7383 16.6297 18.8416 16.5558C18.9958 16.455 19.0817 16.2761 19.0646 16.0915C19.0551 13.9037 19.0646 11.7159 19.0646 9.52818V9.2202H20.9809V18.0319C20.5066 18.0319 20.0322 18.0606 19.569 18.0175C19.4108 18.0016 19.2527 17.8197 19.1167 17.6904C18.9808 17.5612 18.8875 17.5707 18.7357 17.676C18.0718 18.1444 17.2303 18.2758 16.4572 18.0319C15.7393 17.826 15.4089 17.2691 15.2998 16.5622C15.2689 16.3509 15.2541 16.1375 15.2555 15.9239C15.2555 13.7963 15.2555 11.6643 15.2555 9.52818L15.2539 9.21222Z" fill="white"/>
<path d="M24.3328 9.68298C24.9016 9.22798 25.6262 9.01962 26.3473 9.10373C27.2754 9.18671 27.8557 9.7516 27.9711 10.6995C27.9996 10.9297 28.0138 11.1616 28.0138 11.3936C28.0138 13.5021 28.0138 15.6096 28.0138 17.716V18.0223H26.0769V11.384C26.0769 11.3043 26.0769 11.2245 26.0769 11.1447C26.0437 10.441 25.5472 10.0979 24.8973 10.3628C24.6689 10.4711 24.4608 10.6185 24.2822 10.7984C24.2155 10.8905 24.1835 11.0037 24.1921 11.1176C24.1921 13.3133 24.1921 15.509 24.1921 17.7048V18.0064H22.2646V9.20586C22.7548 9.20586 23.245 9.18671 23.7304 9.22022C23.8616 9.22022 23.9834 9.39894 24.1067 9.49628C24.1826 9.55533 24.2538 9.61596 24.3328 9.68298Z" fill="white"/>
<path d="M59.397 18.0127V9.20424C59.8824 9.20424 60.3647 9.18668 60.8438 9.217C60.9702 9.22498 61.0873 9.37658 61.2058 9.47232C61.2865 9.53615 61.364 9.60477 61.4557 9.68296C61.9104 9.32724 62.4622 9.12063 63.0369 9.09094C64.2733 9.00158 65.1019 9.69573 65.1193 10.9436C65.1525 13.259 65.1382 15.5713 65.143 17.8899C65.1409 17.9328 65.1356 17.9754 65.1272 18.0175H63.2139V11.4127C63.2139 11.309 63.2139 11.2037 63.2045 11.0936C63.146 10.4266 62.6763 10.1138 62.0502 10.3452C61.856 10.4377 61.6738 10.554 61.5079 10.6915C61.3693 10.7888 61.2942 10.9545 61.3118 11.1239C61.3181 13.3197 61.3181 15.5154 61.3118 17.7112V18.0191L59.397 18.0127Z" fill="white"/>
<path fill-rule="evenodd" clip-rule="evenodd" d="M35.692 11.9873H37.2732C37.2667 11.8586 37.2672 11.7297 37.2748 11.6011C37.2874 11.3632 37.3272 11.1276 37.3933 10.899C37.5704 10.4139 38.0195 10.2112 38.5856 10.3165C38.9714 10.3867 39.1643 10.6708 39.1769 11.2053C39.184 11.4088 39.184 11.6131 39.184 11.8173C39.184 12.0216 39.184 12.2258 39.1912 12.4293C39.2039 12.4978 39.1883 12.5687 39.148 12.6254C39.1077 12.682 39.0461 12.7196 38.9777 12.7293C38.2073 12.9531 37.4682 13.2748 36.7783 13.6867C35.877 14.2564 35.4137 15.0591 35.458 16.1506C35.507 17.3314 36.3055 18.1293 37.474 18.1293C38.065 18.1493 38.6467 17.9764 39.1326 17.6362C39.1895 17.6795 39.2443 17.7308 39.2983 17.7815C39.4158 17.8916 39.5299 17.9986 39.6544 18.0128C40.1249 18.0459 40.5969 18.0518 41.068 18.0303V17.7112V11.5341C41.068 11.3266 41.0601 11.1176 41.0427 10.9117C40.9605 9.96226 40.5004 9.37822 39.5738 9.21864C38.9968 9.11555 38.4094 9.08553 37.825 9.12928C36.1869 9.25534 35.3267 10.4346 35.692 11.9873ZM38.1681 14.242C38.4982 14.0463 38.8381 13.8679 39.1864 13.7075C39.1864 13.9524 39.1866 14.1915 39.1868 14.4262C39.1874 15.1134 39.188 15.7632 39.1832 16.4139C39.1725 16.4822 39.1363 16.5439 39.082 16.5862C38.7969 16.827 38.4176 16.9212 38.0543 16.8415C37.6558 16.7697 37.4076 16.4362 37.3649 15.9718C37.2711 15.2858 37.5857 14.6082 38.1681 14.242Z" fill="white"/>
<path fill-rule="evenodd" clip-rule="evenodd" d="M70.8213 11.9889H72.4025C72.3919 11.8434 72.3903 11.6973 72.3977 11.5516C72.4142 11.3218 72.4572 11.0948 72.5258 10.875C72.7076 10.4011 73.1409 10.208 73.7054 10.3069C74.0864 10.3676 74.2793 10.6389 74.3015 11.1655C74.3075 11.3681 74.3071 11.5699 74.3067 11.7714C74.3062 11.9953 74.3058 12.2187 74.3141 12.442C74.3204 12.6112 74.2556 12.6655 74.1101 12.7245C73.3979 12.9901 72.6996 13.2927 72.0182 13.6309C71.0426 14.1543 70.5462 14.9809 70.5857 16.1426C70.6252 17.3043 71.4142 18.1133 72.5685 18.1293C73.1837 18.1472 73.7882 17.9642 74.292 17.6075C74.5655 18.0319 74.9735 18.0734 75.4083 18.0319H75.598H76.1941V17.7016V12.1277C76.1941 11.7511 76.1894 11.3745 76.1688 10.9995C76.1119 9.98301 75.6502 9.4213 74.6667 9.20269C73.9136 9.0198 73.1271 9.02967 72.3787 9.23141C70.7897 9.6862 70.6774 10.7266 70.8213 11.9889ZM73.2405 14.2851C73.5889 14.0717 73.9477 13.8763 74.3157 13.6995C74.3157 14.6665 74.3157 15.5394 74.311 16.4107C74.3041 16.4797 74.2699 16.543 74.2161 16.5862C73.9182 16.8376 73.5181 16.928 73.1425 16.8288C72.7013 16.7155 72.4515 16.267 72.4815 15.6846C72.4922 15.1208 72.7757 14.5981 73.2405 14.2851Z" fill="white"/>
<path fill-rule="evenodd" clip-rule="evenodd" d="M44.6521 32.5428C44.7829 32.5408 44.9161 32.5389 45.0528 32.5389L45.0481 32.2133V25.8431C45.0481 25.7218 45.0481 25.6022 45.0402 25.4825C44.9738 24.4772 44.4963 23.8803 43.5175 23.7032C42.9833 23.6345 42.4447 23.6057 41.9063 23.617C41.7316 23.6216 41.5581 23.6468 41.3892 23.692C40.0041 23.9984 39.3479 25.0851 39.6879 26.4894H41.2786C41.2706 26.3485 41.2706 26.2074 41.2786 26.0665C41.2938 25.844 41.332 25.6236 41.3924 25.4091C41.5505 24.9559 41.9822 24.7213 42.4992 24.7963C42.9467 24.8649 43.1507 25.1107 43.1744 25.6628C43.1813 25.8618 43.1811 26.0608 43.1809 26.2598C43.1807 26.4693 43.1805 26.6788 43.1886 26.8883C43.2052 26.9684 43.1883 27.0518 43.1419 27.1188C43.0955 27.1859 43.0237 27.2307 42.9435 27.2426C42.1797 27.4635 41.4481 27.7855 40.7678 28.2C39.8349 28.7889 39.3938 29.6266 39.4649 30.7436C39.5298 31.7474 40.1954 32.5069 41.1568 32.617C41.7925 32.7089 42.4399 32.571 42.9846 32.2277C43.0279 32.1892 43.0848 32.1701 43.1422 32.1746C43.1997 32.1791 43.253 32.2069 43.2898 32.2516C43.3023 32.2629 43.315 32.2744 43.3279 32.2861C43.4467 32.3939 43.5795 32.5146 43.7136 32.5261C44.0219 32.5522 44.3294 32.5476 44.6521 32.5428ZM42.0043 28.8639C42.3488 28.5809 42.7519 28.3796 43.1839 28.275C43.1839 28.4557 43.1839 28.6355 43.184 28.8147C43.1843 29.5281 43.1845 30.2311 43.1807 30.9351C43.1709 30.9954 43.1387 31.0497 43.0906 31.0867C42.776 31.3592 42.3438 31.4474 41.949 31.3197C41.637 31.2155 41.4155 30.935 41.3845 30.6048C41.2467 29.9528 41.4869 29.2783 42.0043 28.8639Z" fill="white"/>
<path fill-rule="evenodd" clip-rule="evenodd" d="M58.3677 15.3862H56.8039C56.7932 15.6385 56.7679 15.89 56.728 16.1394C56.6252 16.6197 56.3485 16.8559 55.9153 16.8702C55.365 16.8894 55.0441 16.6851 54.9144 16.1824C54.8417 15.8876 54.7988 15.586 54.7863 15.2824C54.7758 14.9871 54.7793 14.691 54.7828 14.3891C54.7845 14.236 54.7863 14.0813 54.7863 13.9245H58.5116C58.504 13.638 58.5015 13.3544 58.4991 13.0723C58.4934 12.4197 58.4879 11.7753 58.4183 11.1223C58.3187 10.1872 57.7985 9.50745 56.8608 9.22979C56.3067 9.07616 55.726 9.04675 55.1595 9.14362C54.2962 9.27447 53.6147 9.69894 53.2621 10.5287C53.0824 10.9117 52.967 11.322 52.9205 11.7431C52.8525 12.7085 52.8525 13.6787 52.8525 14.6473C52.857 15.1192 52.91 15.5892 53.0107 16.05C53.2257 17.0473 53.7554 17.8165 54.8069 18.0367C55.2755 18.1289 55.7552 18.1499 56.2299 18.0989C57.721 17.9394 58.5448 17.1096 58.3677 15.3862ZM56.699 12.3976C56.6977 12.5311 56.6964 12.6669 56.6964 12.8059H54.78C54.779 12.7427 54.7777 12.6795 54.7764 12.6164C54.7638 12.0002 54.7513 11.3875 54.9808 10.7984C55.0918 10.4762 55.4025 10.2685 55.7398 10.291C56.0854 10.2596 56.4092 10.4654 56.5304 10.7936C56.618 10.9993 56.6715 11.2182 56.6885 11.4415C56.7053 11.7575 56.7022 12.071 56.699 12.3976Z" fill="white"/>
<path d="M11.7942 18.0208H9.8335V6.383H15.257C15.151 6.70214 15.0498 7.00534 14.9407 7.30853C14.7826 7.77927 14.7826 7.77927 14.275 7.77927H11.9902C11.878 7.77927 11.7878 7.77927 11.7894 7.93885C11.7894 8.97927 11.7894 10.0133 11.7894 11.0841H14.1248V12.4915H11.7942V18.0208Z" fill="white"/>
<path d="M56.2472 26.5149C56.214 26.1957 56.1998 25.867 56.146 25.5574C56.0575 25.0324 55.7571 24.7819 55.2701 24.7931C54.5617 24.809 54.2075 25.4106 54.5728 26.0298C54.7566 26.3195 54.9725 26.5872 55.2163 26.8277C55.8282 27.466 56.4702 28.0787 57.0679 28.733C57.5027 29.2117 57.8284 29.7622 57.8695 30.4356C57.9233 31.3452 57.5217 32.0314 56.6821 32.3729C55.7651 32.7442 54.7444 32.7596 53.817 32.416C53.1791 32.2224 52.734 31.6404 52.7101 30.9686C52.6801 30.5569 52.7101 30.1404 52.7101 29.7144H54.2265C54.2502 29.9697 54.266 30.2298 54.304 30.4883C54.4131 31.2287 55.0566 31.5926 55.7555 31.3181C55.9219 31.2566 56.0552 31.1275 56.1229 30.9622C56.1905 30.7969 56.1863 30.6105 56.1113 30.4484C55.9462 30.1408 55.7397 29.8578 55.4978 29.6074C54.8416 28.8989 54.149 28.2255 53.5007 27.5122C53.0914 27.0794 52.8251 26.5291 52.7386 25.9372C52.6042 24.9255 53.0959 24.1293 54.0684 23.7957C54.8422 23.5329 55.678 23.5207 56.4591 23.7606C57.1833 23.9713 57.7588 24.4835 57.7667 25.409C57.7667 25.7761 57.7667 26.1415 57.7667 26.5261L56.2472 26.5149Z" fill="white"/>
<path d="M38.9162 31.2175C38.7581 31.6532 38.6347 32.0457 38.4909 32.4335C38.457 32.4905 38.3983 32.5278 38.3327 32.534C36.9097 32.534 35.4866 32.534 34.0493 32.534V20.8707H35.9878V31.2175H38.9162Z" fill="white"/>
<path d="M66.6168 10.3627H65.8262V9.20582H66.6168V8.05688H68.5379V9.19625H70.1981V10.3548H68.5411V15.8697C68.5411 15.9734 68.5411 16.0771 68.5521 16.1888C68.5917 16.6228 68.832 16.8734 69.2637 16.8622C69.6014 16.8388 69.9377 16.7967 70.2709 16.7361C70.2709 16.9643 70.2819 17.2388 70.2709 17.5117C70.2709 17.5819 70.1839 17.6601 70.1207 17.7111C69.6637 18.0686 69.1293 18.1579 68.5711 18.1468C68.4043 18.1434 68.2381 18.1247 68.0746 18.0909C67.2334 17.9314 66.7322 17.3282 66.6515 16.4042C66.6342 16.2127 66.6263 16.0197 66.6263 15.8282C66.6263 14.1133 66.6263 12.3984 66.6263 10.6835L66.6168 10.3627Z" fill="white"/>
<path d="M77.1982 18.0176V6.383H79.1573V18.0176H77.1982Z" fill="white"/>
</g>
</svg>
