<svg width="143" height="25" viewBox="0 0 143 25" fill="none" xmlns="http://www.w3.org/2000/svg">
<path d="M80.9419 10.3391H82.4862V18.8642H90.9071V20.1224H80.9419V10.3391Z" fill="white"/>
<path d="M116.186 12.6734C116.188 6.05399 111.073 0.548387 104.446 0.0381852C97.8184 -0.472016 91.9141 4.18523 90.8954 10.7265C89.8766 17.2677 94.087 23.4872 100.558 25C100.523 24.9465 100.501 24.886 100.492 24.8229C94.7701 22.9065 91.4165 17.0056 92.7122 11.134C94.008 5.26234 99.5371 1.30547 105.539 1.95479C111.54 2.60412 116.087 7.65114 116.086 13.6629C116.086 13.9365 116.074 14.2065 116.055 14.4764C116.141 13.8792 116.185 13.2767 116.186 12.6734Z" fill="white"/>
<path fill-rule="evenodd" clip-rule="evenodd" d="M110.916 17.0673C110.807 16.7473 110.536 16.5677 110.303 16.3674C110.114 16.2086 109.893 16.0877 109.689 15.946C109.632 15.9044 109.559 15.8433 109.577 15.7774C109.594 15.7114 109.677 15.6736 109.758 15.6552C109.963 15.6002 110.173 15.5698 110.385 15.5648C110.409 15.5648 110.44 15.5758 110.45 15.5404C110.46 15.505 110.431 15.4903 110.411 15.4781C110.217 15.3476 110.005 15.2459 109.781 15.1764C109.358 15.0678 108.918 15.0335 108.482 15.075C108.474 15.108 108.455 15.1129 108.436 15.1116C108.457 15.1082 108.474 15.0944 108.482 15.075C108.449 15.064 108.401 15.1104 108.385 15.0469C108.822 14.7508 109.233 14.4186 109.613 14.0538C110.063 13.6555 110.444 13.1858 110.739 12.6637C110.82 12.5089 110.881 12.3448 110.921 12.1751C110.748 12.2972 110.569 12.2972 110.407 12.3412C110.214 12.3937 110.007 12.3559 109.845 12.2386C109.683 12.1212 109.583 11.937 109.574 11.7377C109.534 11.1624 109.735 10.6384 109.942 10.129C110.056 9.86606 110.196 9.6152 110.36 9.38018C110.311 9.38084 110.262 9.38658 110.213 9.39728C109.756 9.58806 109.32 9.82766 108.914 10.1119C108.625 10.3159 108.376 10.5724 108.074 10.7581C107.88 10.8802 107.813 10.8546 107.735 10.6445C107.677 10.428 107.632 10.2081 107.602 9.98606C107.066 10.4904 106.676 11.1287 106.472 11.8343C106.392 12.1413 106.208 12.4117 105.952 12.6002C105.889 12.6429 105.889 12.6429 105.868 12.6002C105.734 12.3294 105.657 12.0343 105.641 11.7329C105.628 11.4507 105.618 11.1697 105.629 10.8863C105.64 10.6029 105.61 10.2927 105.595 9.99583C105.575 9.65087 105.505 9.31058 105.388 8.98562C105.33 8.78777 105.252 8.59655 105.155 8.41516C105.122 8.55247 105.07 8.68449 105 8.80727C104.925 8.97468 104.763 9.08644 104.579 9.09678C104.351 9.09663 104.13 9.02148 103.949 8.88301C103.641 8.67469 103.361 8.42843 103.115 8.15008C102.869 7.88379 102.624 7.61138 102.407 7.32432C102.278 7.16186 102.144 7.00306 102.029 6.83571C102.014 6.81127 101.992 6.77829 101.958 6.78929C101.924 6.80028 101.933 6.8467 101.941 6.87235C101.946 6.9646 101.938 7.05712 101.917 7.1472C101.906 7.3849 101.882 7.62183 101.845 7.85691C101.786 8.20505 101.736 8.55563 101.646 8.89644C101.562 9.25933 101.415 9.60487 101.212 9.91765C101.073 10.1185 100.818 10.2048 100.584 10.1302C100.443 10.0738 100.317 9.98559 100.216 9.87246C100.195 9.85169 100.174 9.81504 100.139 9.83825C100.103 9.86146 100.118 9.90544 100.128 9.92254C100.172 10.0199 100.195 10.1258 100.195 10.2328C100.286 10.6549 100.433 11.0628 100.633 11.4458C100.897 11.9625 101.272 12.412 101.529 12.9324C101.678 13.2009 101.759 13.5024 101.762 13.8095C101.697 13.7362 101.622 13.7728 101.559 13.7594C101.159 13.68 100.869 13.4235 100.578 13.1828C100.1 12.8169 99.554 12.5502 98.971 12.3986C98.947 12.3923 98.9213 12.3958 98.8999 12.4084C98.8741 12.4352 98.9122 12.4524 98.9207 12.4731C98.9919 12.638 99.0618 12.7993 99.1256 12.9617C99.2151 13.1975 99.133 13.3282 98.9023 13.316C98.8201 13.3142 98.738 13.306 98.657 13.2915C98.2742 13.2139 97.8848 13.173 97.4942 13.1694C97.0515 13.1491 96.6081 13.1903 96.1768 13.2915C96.2356 13.3429 96.3105 13.3355 96.3706 13.3673C96.9093 13.6438 97.3994 14.0056 97.8217 14.4386C97.9641 14.575 98.0805 14.736 98.1651 14.9138C98.2878 15.2008 98.3136 15.4317 98.0425 15.6736C97.8278 15.8604 97.5518 15.9179 97.2697 15.9948C97.6099 16.2803 98.0028 16.497 98.4264 16.6325C98.8455 16.774 99.2749 16.8835 99.7107 16.9598C100.142 17.0417 100.58 17.0612 101.035 17.1296C100.393 17.3739 99.5709 18.0177 99.4703 18.5955C99.6916 18.4826 99.9212 18.3866 100.157 18.3084C100.266 18.2718 100.379 18.328 100.366 18.411C100.356 18.4744 100.339 18.5363 100.314 18.5955C100.166 18.8855 100.043 19.1875 99.9462 19.4982C99.8861 19.7083 99.8235 19.9196 99.9033 20.1505C99.9376 20.2519 99.9511 20.2311 100.026 20.192C100.317 20.0357 100.607 19.8744 100.907 19.7388C101.139 19.6338 101.364 19.5006 101.635 19.5104C101.69 19.504 101.745 19.5216 101.785 19.5587C101.826 19.5958 101.848 19.6486 101.846 19.7034C101.878 19.938 101.814 20.1664 101.809 20.396C101.816 20.4205 101.797 20.4583 101.845 20.4583C101.959 20.3643 102.077 20.2739 102.182 20.1725C102.695 19.6839 103.095 19.0926 103.513 18.5234C103.854 18.058 104.271 17.7123 104.85 17.5853C104.918 17.5706 104.902 17.573 104.923 17.6256C105.048 17.9378 105.123 18.2675 105.147 18.6028C105.207 19.0827 105.2 19.5685 105.128 20.0467C105.062 20.3968 104.953 20.7376 104.805 21.0618C104.876 21.0098 104.962 20.9819 105.05 20.9824C105.164 20.98 105.274 21.0241 105.354 21.1044C105.434 21.1847 105.478 21.2942 105.475 21.4075C105.612 20.9462 105.687 20.4689 105.698 19.988C105.696 19.6628 105.67 19.3382 105.619 19.0169C105.599 18.8412 105.569 18.6667 105.53 18.4941C105.455 18.1728 105.367 17.8552 105.267 17.5425C105.243 17.4643 105.286 17.4436 105.323 17.4338C105.719 17.3257 106.137 17.3169 106.538 17.4081C107.121 17.5584 107.642 17.8516 108.213 18.0446C108.645 18.1879 109.088 18.297 109.537 18.3707C109.379 18.1484 109.169 17.981 109.054 17.7465C108.967 17.5694 109.017 17.4497 109.184 17.38C109.443 17.2726 109.713 17.2677 109.976 17.2335C110.262 17.2039 110.548 17.1901 110.835 17.1919C110.938 17.2005 110.95 17.1712 110.916 17.0673Z" fill="white"/>
<path fill-rule="evenodd" clip-rule="evenodd" d="M108.33 15.0884C108.332 15.0738 108.341 15.0612 108.355 15.0555C108.343 15.0633 108.334 15.0749 108.33 15.0884Z" fill="white"/>
<path fill-rule="evenodd" clip-rule="evenodd" d="M108.34 15.1128C108.351 15.1105 108.363 15.1105 108.374 15.1128C108.363 15.116 108.351 15.116 108.34 15.1128Z" fill="white"/>
<path fill-rule="evenodd" clip-rule="evenodd" d="M101.799 20.4058C101.799 20.4302 101.786 20.4681 101.834 20.4681C101.834 20.4998 101.808 20.5108 101.781 20.5304C101.785 20.4803 101.726 20.4351 101.799 20.4058Z" fill="white"/>
<path d="M0 10.3391H1.82401L6.39813 17.97L11.155 10.3391H12.979V20.1224H11.4372V12.6026L7.16969 19.3956H5.61309L1.54433 12.6771V20.1285H0V10.3391Z" fill="white"/>
<path fill-rule="evenodd" clip-rule="evenodd" d="M22.2597 10.3391H20.1266L15.2017 20.1224H16.8564L17.9923 17.8857H24.41L25.5447 20.1224H27.2006L22.2597 10.3391ZM23.7685 16.6275H18.6448L21.1926 11.6107L23.7685 16.6275Z" fill="white"/>
<path fill-rule="evenodd" clip-rule="evenodd" d="M36.1414 10.3391H29.3091V20.1224H30.8522V16.4871H36.1414C37.4605 16.4879 38.4569 16.2134 39.1308 15.6637C39.8046 15.1141 40.1415 14.3591 40.1415 13.399C40.1415 12.4389 39.8046 11.6889 39.1308 11.1489C38.4569 10.609 37.4605 10.3391 36.1414 10.3391ZM36.1414 15.2252H30.8522V11.5936H36.139C36.9817 11.5936 37.6011 11.7512 37.9986 12.0492C38.396 12.3473 38.5947 12.798 38.5947 13.3929C38.5947 14.6144 37.777 15.2252 36.1414 15.2252Z" fill="white"/>
<path d="M42.3765 10.3391H43.9208V18.8642H52.3392V20.1224H42.3765V10.3391Z" fill="white"/>
<path d="M54.3633 20.1224V10.3391H65.1712V11.596H55.9076V14.601H64.2487V15.8592H55.9076V18.8642H65.1712V20.1224H54.3633Z" fill="white"/>
<path fill-rule="evenodd" clip-rule="evenodd" d="M75.1043 10.339C75.6838 10.3274 76.2586 10.4442 76.7872 10.6811C77.7432 11.0982 78.3482 12.0524 78.3156 13.0912C78.3187 13.5098 78.218 13.9226 78.0225 14.2932C77.8226 14.6693 77.5332 14.991 77.1798 15.2301C77.5264 15.4716 77.8126 15.7893 78.0163 16.1585C78.2148 16.5259 78.3177 16.9371 78.3156 17.3544C78.3262 17.867 78.1877 18.3718 77.917 18.808C77.6437 19.2361 77.2512 19.5757 76.7872 19.7852C76.258 20.0228 75.6823 20.1401 75.1018 20.1285H67.374V10.339H75.1043ZM68.9171 11.596V14.601H75.1043C75.6661 14.601 76.0856 14.4613 76.3628 14.182C76.6432 13.8891 76.7923 13.4955 76.7762 13.0912C76.7905 12.6919 76.6413 12.3039 76.3628 12.0162C76.0856 11.7369 75.6661 11.5968 75.1043 11.596H68.9171ZM76.3628 18.444C76.0856 18.7241 75.6661 18.8642 75.1043 18.8642H68.9171V15.8592H75.1043C75.6661 15.8584 76.0856 15.998 76.3628 16.2782C76.9143 16.8957 76.9143 17.8265 76.3628 18.444Z" fill="white"/>
<path d="M117.849 15.2167C117.845 14.3003 118.124 13.4047 118.648 12.6514C119.211 11.8504 119.98 11.2136 120.873 10.8069C121.871 10.3453 122.961 10.1136 124.062 10.129C126.27 10.129 127.959 10.8045 129.128 12.1555L128.061 13.0362C127.63 12.5302 127.083 12.1348 126.466 11.8831C125.801 11.5989 125.002 11.4568 124.068 11.4568C123.208 11.4435 122.357 11.6213 121.574 11.9771C120.891 12.2782 120.299 12.7529 119.857 13.3538C119.043 14.4601 119.043 15.9647 119.857 17.071C120.299 17.6718 120.891 18.1466 121.574 18.4476C122.356 18.802 123.208 18.9785 124.067 18.9644C125 18.9644 125.799 18.8227 126.465 18.5393C127.082 18.2876 127.629 17.8916 128.06 17.3849L129.127 18.2803C127.947 19.6232 126.258 20.2942 124.061 20.2934C122.96 20.3093 121.87 20.0776 120.872 19.6154C119.978 19.2093 119.21 18.5724 118.646 17.7709C118.124 17.0212 117.845 16.1294 117.849 15.2167Z" fill="white"/>
<path d="M131.082 10.3391H132.626V14.9088L139.434 10.3391H141.887L135.22 14.8942L142.225 20.1224H139.726L133.93 15.7883L132.625 16.6703V20.1224H131.081L131.082 10.3391Z" fill="white"/>
</svg>
