<svg width="128" height="36" viewBox="0 0 128 36" fill="none" xmlns="http://www.w3.org/2000/svg">
<path d="M52.0825 6.84939C53.9009 6.84939 55.7193 6.84939 57.5377 6.84939C57.8718 6.84939 58.0058 6.92112 57.9884 7.27464C57.9553 7.8617 57.9553 8.4501 57.9884 9.03715C58.0127 9.43679 57.8701 9.52218 57.482 9.52048C54.6404 9.50511 51.7971 9.51194 48.9555 9.51194C48.0019 9.51194 47.6208 10.0243 47.9114 10.9277C48.0524 11.3513 48.4335 11.394 48.818 11.3923C51.2368 11.3923 53.6561 11.3923 56.076 11.3923C56.3404 11.3843 56.605 11.3951 56.8678 11.4247C57.4889 11.4944 57.9601 12.0067 57.9675 12.6202C57.9803 15.1422 57.9803 17.6652 57.9675 20.1895C57.9654 20.826 57.4687 21.3558 56.8225 21.4106C56.6828 21.4268 56.5421 21.4336 56.4014 21.4311C52.8342 21.4311 49.267 21.4311 45.6998 21.4413C45.263 21.4413 45.1081 21.3354 45.1412 20.8965C45.1803 20.3792 45.1803 19.8597 45.1412 19.3424C45.1046 18.8966 45.2299 18.76 45.7119 18.7634C48.5553 18.789 51.3969 18.7771 54.2385 18.7753C55.0928 18.7753 55.2582 18.6148 55.2582 17.7797C55.2582 16.8284 55.2582 15.8788 55.2582 14.9275C55.2582 14.2342 55.058 14.0395 54.3376 14.0395C51.8133 14.0395 49.2884 14.0395 46.763 14.0395C45.6476 14.0395 45.1499 13.551 45.1481 12.4597C45.1481 11.1128 45.1481 9.7647 45.1481 8.41549C45.1481 7.35321 45.651 6.8528 46.7229 6.8511C48.5129 6.84768 50.2994 6.84711 52.0825 6.84939Z" fill="white"/>
<path fill-rule="evenodd" clip-rule="evenodd" d="M70.4144 11.3838H65.6483C65.238 11.3838 64.8278 11.3834 64.4175 11.3829C63.187 11.3817 61.9566 11.3804 60.7273 11.3906C59.8485 11.3975 59.2482 11.8927 59.2482 12.6818C59.2285 15.1695 59.2285 17.6567 59.2482 20.1434C59.2429 20.4875 59.3805 20.8189 59.6292 21.0615C59.878 21.304 60.2166 21.4369 60.5672 21.4294C61.7787 21.4365 62.993 21.4367 64.2076 21.4369C65.3413 21.4371 66.4753 21.4373 67.6077 21.4431C67.9331 21.4448 67.98 21.303 67.98 21.0349C67.9626 20.4303 67.947 19.8257 67.98 19.2228C68.0009 18.8369 67.8408 18.7737 67.4928 18.7737C66.4696 18.7805 65.4455 18.7782 64.4218 18.776C63.91 18.7748 63.3983 18.7737 62.8867 18.7737C62.7121 18.7839 62.5369 18.7736 62.3647 18.7429C62.125 18.7069 61.9561 18.493 61.9802 18.2562C61.962 18.0012 62.1542 17.7785 62.4134 17.7541C62.5719 17.7387 62.7311 17.7336 62.8902 17.7387H70.4597C71.4776 17.7387 71.9997 17.2417 71.9997 16.2478V12.9311C71.9962 11.8603 71.5124 11.3838 70.4144 11.3838ZM68.5403 15.0762H65.6274L62.6623 15.0608C62.2934 15.0608 61.9715 14.972 61.9819 14.5382C61.9923 14.1044 62.2986 14.0258 62.6779 14.0258H68.556C68.9232 14.0258 69.2712 14.1095 69.2712 14.5382C69.2782 14.9942 68.9423 15.0762 68.5403 15.0762Z" fill="white"/>
<path fill-rule="evenodd" clip-rule="evenodd" d="M98.2875 11.3838H93.5214C92.7008 11.3846 91.8798 11.3829 91.0589 11.3812C90.2384 11.3795 89.4181 11.3778 88.5986 11.3786C87.7199 11.3855 87.1178 11.8825 87.1178 12.6715C87.0981 15.1593 87.0981 17.6465 87.1178 20.1331C87.1115 20.4777 87.249 20.8098 87.4985 21.0524C87.7479 21.2949 88.0876 21.4268 88.4386 21.4174C90.7825 21.4294 93.1334 21.4294 95.4808 21.4294C95.7522 21.4294 95.8514 21.3474 95.8514 21.0741C95.8357 20.4166 95.8323 19.7608 95.8514 19.105C95.8584 18.8112 95.7279 18.7634 95.4703 18.7634H93.4588H90.4414C90.0951 18.7634 89.8515 18.6097 89.8533 18.2511C89.855 17.8924 90.0864 17.7387 90.4345 17.7387H98.3258C99.3508 17.7387 99.8728 17.2451 99.8728 16.2529V12.9362C99.8676 11.8654 99.3821 11.3838 98.2875 11.3838ZM96.4152 15.0762H93.5023L90.5389 15.0676C90.1665 15.0676 89.8498 14.9737 89.8585 14.5416C89.8672 14.1095 90.1752 14.0292 90.5545 14.0292H96.4326C96.798 14.0292 97.146 14.1163 97.146 14.5416C97.153 14.9976 96.8154 15.0762 96.4152 15.0762Z" fill="white"/>
<path d="M115.165 6.84938C116.104 6.84938 116.932 6.86133 117.761 6.84938C118.027 6.84938 118.128 7.00309 118.248 7.17387C119.123 8.40694 119.999 9.64002 120.877 10.8731C121.359 11.5562 121.775 11.5562 122.257 10.8731C123.127 9.64172 124.018 8.41377 124.881 7.17216C125.012 6.94749 125.265 6.81907 125.527 6.84426C126.301 6.86304 127.077 6.84426 127.852 6.84426C127.9 7.05091 127.752 7.14825 127.669 7.2678C126.675 8.67337 125.689 10.0841 124.672 11.4743C124.396 11.813 124.34 12.2769 124.528 12.6698C125.61 15.4023 126.675 18.1349 127.747 20.8675C127.966 21.4276 127.966 21.4276 127.335 21.4293C126.752 21.4293 126.169 21.4054 125.595 21.4293C125.229 21.4498 125.073 21.3183 124.947 20.9904C124.177 18.9717 123.381 16.965 122.6 14.948C122.412 14.4596 122.17 14.0753 121.556 14.0941C120.942 14.1129 120.717 14.5057 120.531 14.9839C119.757 16.9821 118.965 18.9734 118.201 20.9768C118.069 21.3286 117.895 21.4567 117.517 21.4362C116.938 21.4065 116.357 21.4065 115.777 21.4362C115.316 21.4601 115.166 21.4157 115.373 20.8999C116.438 18.2408 117.465 15.5407 118.544 12.8696C118.784 12.2735 118.74 11.8312 118.349 11.3086C117.277 9.87228 116.264 8.3984 115.165 6.84938Z" fill="white"/>
<path d="M107.51 11.3837C109.099 11.3837 110.688 11.3837 112.275 11.3837C113.366 11.3837 113.858 11.8654 113.86 12.9379C113.86 15.6158 113.86 18.292 113.87 20.9648C113.87 21.3235 113.774 21.4516 113.397 21.4345C112.798 21.4037 112.197 21.4037 111.598 21.4345C111.203 21.4567 111.14 21.2996 111.142 20.9563C111.157 18.97 111.15 16.9838 111.142 14.9976C111.142 14.2427 110.935 14.0343 110.181 14.0343C108.362 14.0343 106.544 14.0343 104.728 14.0343C104.018 14.0343 103.832 14.2222 103.83 14.9327C103.83 16.936 103.819 18.9393 103.83 20.9426C103.83 21.3337 103.722 21.455 103.325 21.4345C102.709 21.4037 102.09 21.414 101.474 21.4345C101.185 21.4345 101.075 21.3679 101.075 21.0639C101.087 18.2818 101.075 15.5014 101.087 12.721C101.087 11.8944 101.667 11.3872 102.57 11.382C104.228 11.3786 105.869 11.3837 107.51 11.3837Z" fill="white"/>
<path d="M79.5778 21.4447C78.9775 21.4447 78.3772 21.4447 77.7768 21.4447C77.377 21.4913 77.0015 21.2471 76.8894 20.8675C75.7107 17.8195 74.5228 14.775 73.3256 11.7339C73.1934 11.3923 73.3013 11.3581 73.604 11.365C74.2566 11.3786 74.9126 11.3872 75.5634 11.365C75.9114 11.3496 76.0854 11.4606 76.2142 11.7988C76.9938 13.8482 77.8116 15.8976 78.5981 17.947C78.7722 18.427 79.0349 18.801 79.5952 18.801C80.1555 18.801 80.4026 18.4167 80.5853 17.947C81.3701 15.8976 82.1828 13.8567 82.9675 11.7988C83.0841 11.4982 83.2286 11.365 83.5731 11.3803C84.243 11.4077 84.9165 11.3923 85.5864 11.3803C85.837 11.3803 85.9901 11.3803 85.8579 11.7219C84.6467 14.796 83.4461 17.873 82.2558 20.9529C82.1079 21.3354 81.8243 21.4652 81.4328 21.4652C80.815 21.4413 80.1956 21.4447 79.5778 21.4447Z" fill="white"/>
<path d="M125.449 24.799C126.153 24.799 126.862 24.8212 127.566 24.799C128.001 24.7785 128.01 25.0125 127.993 25.3113C127.975 25.6102 128.09 25.9518 127.556 25.9381C126.552 25.9142 125.544 25.9381 124.539 25.9381C124.415 25.9381 124.291 25.9381 124.168 25.9381C124.044 25.9381 123.898 25.9381 123.888 26.1089C123.877 26.2797 124.02 26.2882 124.145 26.2968C124.271 26.3053 124.392 26.2968 124.516 26.2968C125.398 26.2968 126.28 26.2968 127.163 26.2968C127.732 26.2968 127.968 26.5205 127.987 27.0721C128.003 27.4513 128.005 27.8321 127.987 28.2113C127.96 28.768 127.761 28.9542 127.199 28.9559C125.84 28.9559 124.481 28.9405 123.122 28.9679C122.619 28.9781 122.705 28.6758 122.706 28.3923C122.708 28.1088 122.607 27.8014 123.117 27.8168C124.138 27.8492 125.163 27.8355 126.186 27.8168C126.4 27.8168 126.78 27.9653 126.778 27.605C126.778 27.3112 126.416 27.4171 126.207 27.4137C125.271 27.4035 124.337 27.3983 123.401 27.4137C122.906 27.4222 122.684 27.2241 122.705 26.7306C122.72 26.3156 122.705 25.9005 122.705 25.4855C122.705 24.9168 122.832 24.8024 123.434 24.8024C124.107 24.7956 124.777 24.799 125.449 24.799Z" fill="white"/>
<path fill-rule="evenodd" clip-rule="evenodd" d="M61.5172 24.799H59.5578C58.9053 24.799 58.251 24.8024 57.595 24.8143C57.1321 24.8126 56.9111 25.0398 56.9111 25.4821V28.2796C56.9129 28.7168 57.1426 28.9627 57.5933 28.9627C57.8757 28.9627 58.1582 28.9604 58.4407 28.9581C59.0056 28.9536 59.5706 28.949 60.1355 28.9627C60.5527 28.9747 60.5348 28.7628 60.5161 28.5408C60.5108 28.4786 60.5055 28.4155 60.5097 28.3564C60.511 28.3374 60.5126 28.3182 60.5141 28.299C60.5345 28.0467 60.5549 27.7946 60.1199 27.8184C59.7441 27.8355 59.3675 27.8298 58.9907 27.8241C58.8022 27.8213 58.6136 27.8184 58.425 27.8184C58.2823 27.8184 58.1083 27.8082 58.0979 27.6374C58.0874 27.4222 58.2736 27.4086 58.4355 27.4086H58.7539H61.5067C61.9714 27.412 62.2028 27.1917 62.2028 26.751C62.2028 26.6031 62.2026 26.4593 62.2024 26.3164C62.202 26.0337 62.2016 25.7549 62.2028 25.4565C62.2045 25.0073 61.9818 24.799 61.5172 24.799ZM59.961 26.3379C59.8265 26.337 59.6921 26.336 59.5578 26.336H59.5509C59.3147 26.336 59.0792 26.3379 58.847 26.3398C58.6977 26.341 58.5499 26.3422 58.4041 26.3429C58.2597 26.3394 58.1066 26.2882 58.1031 26.1191C58.0996 25.95 58.2388 25.8903 58.3937 25.8903H60.7655C60.8925 25.892 61.0213 25.9313 61.0387 26.0816C61.0595 26.2609 60.9238 26.336 60.7759 26.336C60.5019 26.3417 60.2309 26.3398 59.961 26.3379Z" fill="white"/>
<path fill-rule="evenodd" clip-rule="evenodd" d="M115.426 24.799H113.521C113.269 24.799 113.018 24.7997 112.767 24.8004C112.348 24.8016 111.929 24.8028 111.509 24.8007C111.102 24.7955 110.855 24.98 110.855 25.3779C110.841 26.3616 110.841 27.3454 110.855 28.3291C110.841 28.4978 110.904 28.6638 111.026 28.7831C111.149 28.9024 111.318 28.9631 111.49 28.949H114.137C114.523 28.9517 114.494 28.732 114.467 28.5269C114.459 28.4642 114.451 28.4028 114.455 28.3496C114.457 28.3187 114.461 28.2861 114.466 28.2527C114.492 28.0409 114.523 27.8017 114.124 27.815C113.578 27.8338 113.032 27.827 112.483 27.815C112.45 27.8143 112.411 27.818 112.371 27.8218C112.213 27.8366 112.033 27.8536 112.041 27.6152C112.05 27.3893 112.254 27.3985 112.422 27.406C112.451 27.4073 112.479 27.4086 112.504 27.4086C112.828 27.4086 113.152 27.4076 113.475 27.4067C114.123 27.4048 114.769 27.4029 115.415 27.4086C115.898 27.4086 116.138 27.2019 116.138 26.7254V25.4821C116.145 25.0124 115.91 24.799 115.426 24.799ZM112.377 25.8749H113.538C113.697 25.8756 113.855 25.8754 114.014 25.8752C114.225 25.8749 114.436 25.8747 114.646 25.8766C114.787 25.8783 114.949 25.9091 114.961 26.0798C114.975 26.2899 114.813 26.3343 114.639 26.3343H112.377C112.212 26.3326 112.029 26.3019 112.029 26.0986C112.029 25.8954 112.214 25.8749 112.377 25.8749Z" fill="white"/>
<path d="M71.3696 24.799C72.0047 24.799 72.6399 24.8109 73.2837 24.799C73.7518 24.787 73.9711 24.9936 73.9711 25.4445C73.9711 26.4983 73.9571 27.5503 73.9711 28.6041C73.9798 29.0942 73.623 28.9456 73.3864 28.9456C73.1497 28.9456 72.7895 29.0823 72.8034 28.6041C72.8261 27.8799 72.7895 27.1524 72.8174 26.4282C72.8313 26.0354 72.6834 25.9159 72.2953 25.9313C71.6619 25.9552 71.0251 25.9603 70.3917 25.9313C69.9358 25.9091 69.8087 26.0901 69.8244 26.5085C69.8487 27.1917 69.8087 27.8902 69.8383 28.5801C69.8592 29.0447 69.5547 28.9712 69.285 28.9576C69.0152 28.9439 68.6568 29.1062 68.6672 28.587C68.6916 27.5503 68.6672 26.5136 68.6759 25.4787C68.6759 25.0449 68.8917 24.8041 69.3598 24.8092C70.0332 24.8041 70.7031 24.799 71.3696 24.799Z" fill="white"/>
<path d="M92.3936 28.9491H90.4795C90.0027 28.9491 89.7591 28.7236 89.7591 28.254C89.7591 27.2293 89.78 26.2165 89.7504 25.1986C89.7365 24.6982 90.0636 24.8075 90.3455 24.799C90.6274 24.7904 90.9407 24.746 90.9146 25.2242C90.8763 25.8954 90.9302 26.5717 90.8954 27.2429C90.8728 27.7092 91.059 27.8475 91.5132 27.8253C92.11 27.7946 92.7121 27.798 93.3107 27.8253C93.7422 27.8458 93.918 27.7058 93.9006 27.2668C93.8727 26.5837 93.9162 25.8852 93.8849 25.1952C93.864 24.7495 94.1407 24.7802 94.4278 24.8024C94.7149 24.8246 95.056 24.6538 95.0438 25.173C95.0212 26.2097 95.0438 27.2446 95.0351 28.2813C95.0351 28.7253 94.7933 28.9474 94.3391 28.9491H92.3936Z" fill="white"/>
<path d="M47.7533 28.9491C47.5794 28.9399 47.4051 28.9399 47.2312 28.9491C46.8832 28.9867 46.7284 28.8176 46.6309 28.5085C46.1994 27.1422 45.7568 25.7793 45.3032 24.4198C45.1831 24.0646 45.2823 23.9912 45.6512 23.9638C46.1733 23.9246 46.4256 24.0544 46.5665 24.5889C46.8154 25.5385 47.1669 26.4676 47.4749 27.3983C47.5358 27.5794 47.581 27.7997 47.8229 27.786C48.0282 27.7741 48.0752 27.576 48.1309 27.4086C48.458 26.4078 48.7875 25.407 49.1193 24.4062C49.2393 24.0492 49.998 23.7965 50.3373 23.9929C50.4783 24.0766 50.3895 24.1637 50.3617 24.2576C49.8919 25.7218 49.4197 27.1843 48.9452 28.6451C48.8975 28.8391 48.7107 28.9684 48.5085 28.9474C48.2475 28.9422 48.0004 28.9491 47.7533 28.9491Z" fill="white"/>
<path d="M81.055 27.5093C81.055 27.1678 81.055 26.8176 81.055 26.4727C81.055 26.2028 81.0307 25.9774 80.667 25.9057C80.3033 25.8339 80.4756 25.5094 80.4669 25.2925C80.4669 25.1217 80.3433 24.8468 80.6774 24.799C80.9715 24.758 81.0481 24.5513 81.0498 24.3156C81.0498 23.8221 81.4239 24.0236 81.6588 23.9963C81.8938 23.9689 82.1687 23.9433 82.1443 24.3378C82.12 24.7324 82.3966 24.8502 82.7377 24.7973C83.1866 24.7409 83.3137 24.9168 83.2945 25.3438C83.2789 25.7212 83.258 26.0064 82.7725 25.9313C82.287 25.8561 82.1269 26.1021 82.1426 26.5598C82.1652 27.2327 82.1287 27.9073 82.1548 28.5784C82.1722 28.9935 81.9129 28.9695 81.6432 28.9508C81.3735 28.932 81.0359 29.084 81.0602 28.5989C81.0707 28.2403 81.055 27.8714 81.055 27.5093Z" fill="white"/>
<path d="M101.52 26.9594C101.52 26.447 101.52 25.9244 101.52 25.4053C101.52 25.0005 101.694 24.7956 102.124 24.799C102.725 24.799 103.325 24.816 103.924 24.799C104.418 24.7802 104.286 25.1183 104.286 25.3643C104.286 25.6102 104.418 25.9671 103.927 25.933C103.857 25.933 103.786 25.933 103.716 25.933C102.53 25.9501 102.672 25.7622 102.672 26.9936C102.672 27.494 102.645 27.9961 102.672 28.4948C102.7 28.9935 102.408 28.9593 102.069 28.9593C101.729 28.9593 101.479 28.9798 101.515 28.5187C101.552 27.9978 101.52 27.4786 101.52 26.9594Z" fill="white"/>
<path d="M27.9942 1L31.8346 6.56249L24.1747 18.07L28.0047 23.928L31.8346 17.8719L35.7116 23.6633L28.0517 35L20.2508 23.571L12.6831 35L8.76087 29.3931L16.4678 17.8719L12.5908 12.2941H4.81257L1 6.63251H16.3512L20.2038 12.3846L27.9942 1Z" fill="white"/>
<path fill-rule="evenodd" clip-rule="evenodd" d="M4.82127 1L1 6.63251L8.68256 18L1 29.2411L4.84041 35H12.6831L16.3947 29.3965L20.2351 35H28.0517L35.7116 23.6633L31.8346 17.8719L24.1747 18.07L31.8346 6.56249L27.9942 1H4.82127V1Z" stroke="white" stroke-width="0.5"/>
</svg>
