<svg width="142" height="35" viewBox="0 0 142 35" fill="none" xmlns="http://www.w3.org/2000/svg">
<g opacity="0.85">
<path d="M40.6059 21.4587V18.0615L43.3304 13.4821H42.1364L40.9666 15.6836C40.6527 16.2881 40.3764 16.8081 40.147 17.3296H40.1228C39.8692 16.7726 39.6277 16.2925 39.3138 15.6836L38.1681 13.4821H36.9741L39.5402 18.0748V21.4602L40.6059 21.4587Z" fill="white"/>
<path fill-rule="evenodd" clip-rule="evenodd" d="M46.6343 17.5414C46.6343 15.008 48.2373 13.3502 50.4079 13.3502C52.6283 13.3502 54.0623 15.0199 54.0623 17.3874C54.0623 20.1327 52.3626 21.589 50.2887 21.589C48.1437 21.589 46.6343 19.9564 46.6343 17.5414ZM52.9528 17.4348C52.9528 15.848 52.1091 14.1902 50.3596 14.1902C48.6237 14.1902 47.7558 15.7651 47.7558 17.5177C47.7558 19.2215 48.6826 20.749 50.3475 20.749C52.0124 20.749 52.9528 19.2452 52.9528 17.4348Z" fill="white"/>
<path d="M58.2827 13.4821V18.1815C58.2827 20.6557 59.5371 21.5891 61.202 21.5891C62.962 21.5891 64.2767 20.5831 64.2767 18.1326V13.4821H63.2201V18.2052C63.2201 19.9697 62.4488 20.7505 61.2427 20.7505C60.1575 20.7505 59.3484 19.9934 59.3484 18.2052V13.4821H58.2827Z" fill="white"/>
<path fill-rule="evenodd" clip-rule="evenodd" d="M70.5774 21.5254C70.033 21.5293 69.4889 21.4976 68.9487 21.4305V13.5873C69.5814 13.4725 70.2238 13.4169 70.8672 13.4213C71.9163 13.4213 72.591 13.5991 73.0982 14.0006C73.5457 14.3326 73.798 14.8595 73.7729 15.4096C73.7729 16.18 73.2552 16.8541 72.3993 17.1622V17.1859C73.1692 17.3756 74.0748 18.0008 74.0748 19.186C74.085 19.7899 73.8357 20.3702 73.388 20.7846C72.8205 21.2883 71.9042 21.5254 70.5774 21.5254ZM70.0053 14.2806C70.3114 14.2254 70.6225 14.2016 70.9337 14.2095C71.9903 14.2095 72.7178 14.5769 72.7178 15.5118C72.7178 16.2822 72.0673 16.8452 70.9578 16.8452H70.0053V14.2806ZM70.0053 17.6304H70.8733C72.019 17.6304 72.9714 18.0749 72.9714 19.1697C72.9714 20.3298 71.9706 20.7209 70.8854 20.7209C70.5912 20.7279 70.297 20.712 70.0053 20.6735V17.6304Z" fill="white"/>
<rect x="78.3618" y="13.4805" width="1.04907" height="7.97811" fill="white"/>
<path d="M91.0367 19.3786C90.8011 19.7363 90.4672 20.0213 90.0737 20.2008C89.6947 20.3708 89.2827 20.4582 88.8661 20.4571C88.425 20.4643 87.9876 20.3768 87.5846 20.2008C87.2164 20.0396 86.8868 19.8044 86.617 19.5104C86.3489 19.2156 86.1409 18.8731 86.0042 18.5015C85.8601 18.1147 85.7876 17.7058 85.7898 17.294C85.7875 16.8826 85.8585 16.474 85.9996 16.0866C86.1315 15.7146 86.3367 15.3718 86.6034 15.0776C86.8736 14.7836 87.2031 14.548 87.571 14.3858C87.9779 14.2102 88.4187 14.1233 88.8631 14.1309C89.0872 14.129 89.3105 14.1565 89.5272 14.2124C89.7249 14.264 89.9162 14.3365 90.0978 14.4287C90.262 14.5113 90.4143 14.6149 90.5506 14.7369C90.6654 14.8403 90.7668 14.9573 90.8525 15.085L91.4805 14.6406C91.3546 14.4558 91.1997 14.2918 91.0216 14.1546C90.8276 14.0098 90.6168 13.888 90.3937 13.7917C90.157 13.6887 89.9101 13.6097 89.657 13.5561C89.3936 13.5009 89.1249 13.4731 88.8555 13.4731C88.3305 13.4684 87.8097 13.5661 87.3234 13.7605C86.394 14.1271 85.6578 14.8508 85.2857 15.7636C84.8983 16.7485 84.8983 17.8396 85.2857 18.8245C85.6489 19.7383 86.3818 20.4636 87.3098 20.8275C87.8018 21.0223 88.3281 21.1199 88.8585 21.1149C89.171 21.1174 89.4825 21.0806 89.7853 21.0053C90.0549 20.9381 90.3149 20.8385 90.5597 20.709C90.7837 20.5911 90.9913 20.4452 91.1771 20.2749C91.348 20.1177 91.5 19.9417 91.6299 19.7504L91.0367 19.3786Z" fill="white"/>
<path fill-rule="evenodd" clip-rule="evenodd" d="M100.38 19.02H96.5551L95.749 20.9297H94.9233L98.1249 13.6583H98.857L102.04 20.9297H101.195L100.38 19.02ZM100.104 18.3415L98.4705 14.4791L96.8373 18.3415H100.104Z" fill="white"/>
<path fill-rule="evenodd" clip-rule="evenodd" d="M132.813 19.02H128.984L128.178 20.9297H127.351L130.554 13.6583H131.286L134.468 20.9297H133.63L132.813 19.02ZM132.531 18.3415L130.899 14.4791L129.266 18.3415H132.531Z" fill="white"/>
<path d="M138.546 13.6583H137.793V20.9297H142V20.2719H138.546V13.6583Z" fill="white"/>
<path fill-rule="evenodd" clip-rule="evenodd" d="M106.439 20.9297H105.684V13.6613H107.778C108.123 13.6573 108.467 13.6967 108.803 13.7783C109.085 13.8476 109.351 13.9688 109.588 14.1354C109.807 14.2928 109.983 14.501 110.101 14.7413C110.225 15.0104 110.286 15.3037 110.279 15.5991C110.286 15.895 110.223 16.1885 110.096 16.457C109.977 16.696 109.801 16.9038 109.583 17.0629C109.344 17.2332 109.074 17.3569 108.788 17.4274C108.451 17.513 108.104 17.5543 107.757 17.5503H106.439V20.9297ZM107.714 14.2954H106.439V16.9236H107.714C108.307 16.9236 108.757 16.811 109.065 16.5858C109.376 16.352 109.548 15.9826 109.526 15.5991C109.526 15.1468 109.367 14.8164 109.049 14.608C108.731 14.3996 108.286 14.2954 107.714 14.2954Z" fill="white"/>
<rect x="114.677" y="13.6583" width="0.753216" height="7.27141" fill="white"/>
<path d="M122.625 14.3146H125.105V13.6583H119.392V14.3146H121.872V20.9297H122.625V14.3146Z" fill="white"/>
<path d="M0.00150945 0.0103708L6.11478 0V23.7669C6.11478 23.7669 5.93818 28.4338 12.8952 29.3849C12.8952 29.3849 20.2915 29.6442 20.5557 23.7669C20.8198 17.8896 20.6432 11.5812 20.6432 11.5812L26.5422 14.1176V24.1995C26.5422 24.1995 26.8063 33.5332 15.4462 34.917C15.4462 34.917 1.49737 36.6489 0 24.2899L0.00150945 0.0103708Z" fill="white"/>
<rect x="8.23535" y="3.62238" width="10.3065" height="23.5225" rx="4.80918" fill="white"/>
</g>
</svg>
