<svg id="图层_1" data-name="图层 1" xmlns="http://www.w3.org/2000/svg" viewBox="0 0 325 346"><defs><style>.cls-1{fill:#d3d3d3;}.cls-1,.cls-2{opacity:0.41;}.cls-2{fill:#d3d8e0;}.cls-3{fill:#043ea5;}.cls-4{fill:#fff;}</style></defs><title>画板 3</title><polygon id="路径" class="cls-1" points="110.32 74.22 100 68.27 100 58.75 110.32 64.7 110.32 74.22"/><polygon id="路径-2" data-name="路径" class="cls-1" points="127.51 84.54 117.19 77.99 117.19 69.06 127.51 75.02 127.51 84.54"/><polygon id="路径-3" data-name="路径" class="cls-1" points="74.21 124.08 43.27 105.73 43.27 94.85 74.21 113.88 74.21 124.08"/><polygon id="路径-4" data-name="路径" class="cls-1" points="93.12 133.96 82.81 128 82.81 118.48 93.12 124.44 93.12 133.96"/><polygon id="路径-5" data-name="路径" class="cls-1" points="41.55 125.8 36.39 122.93 36.39 113.76 41.55 116.63 41.55 125.8"/><polygon id="路径-6" data-name="路径" class="cls-1" points="58.74 136.11 48.42 130.16 48.42 120.64 58.74 126.59 58.74 136.11"/><polygon id="路径-7" data-name="路径" class="cls-1" points="75.93 170.5 8.88 131 8.88 120.64 75.93 160.14 75.93 170.5"/><polygon id="路径-8" data-name="路径" class="cls-1" points="100 182.53 84.53 174.22 84.53 165.34 100 173.66 100 182.53"/><polygon id="路径-9" data-name="路径" class="cls-1" points="70.77 191.13 34.67 170.5 34.67 160.18 70.77 181.46 70.77 191.13"/><polygon id="路径-10" data-name="路径" class="cls-1" points="89.69 198.01 79.37 192.06 79.37 182.53 89.69 188.49 89.69 198.01"/><polygon id="路径-11" data-name="路径" class="cls-1" points="82.81 220.36 53.58 205.92 53.58 196.29 82.81 210.73 82.81 220.36"/><polygon id="路径-12" data-name="路径" class="cls-1" points="105.16 232.39 87.97 223.8 87.97 215.2 105.16 223.8 105.16 232.39"/><polygon id="路径-13" data-name="路径" class="cls-1" points="46.7 222.08 31.23 213.76 31.23 204.88 46.7 213.2 46.7 222.08"/><polygon id="路径-14" data-name="路径" class="cls-1" points="81.88 243.61 53.65 226.3 54.17 217.26 82.68 233.63 81.88 243.61"/><polygon id="路径-15" data-name="路径" class="cls-1" points="110.32 282.25 100 276.3 100 266.78 110.32 272.73 110.32 282.25"/><polygon id="路径-16" data-name="路径" class="cls-1" points="31.23 259.9 8.88 246.24 8.88 235.83 31.23 249.49 31.23 259.9"/><polygon id="路径-17" data-name="路径" class="cls-1" points="127.51 134.47 161.89 153.31 161.89 142.91 127.51 124.08 127.51 134.47"/><polygon id="路径-18" data-name="路径" class="cls-1" points="139.54 253.12 161.89 266.78 161.89 256.37 139.54 242.71 139.54 253.12"/><polygon id="路径-19" data-name="路径" class="cls-1" points="151.58 282.82 161.89 289.13 161.89 279.96 151.58 273.65 151.58 282.82"/><polygon id="路径-20" data-name="路径" class="cls-1" points="137.82 299.26 161.89 313.2 161.89 303.06 137.82 289.13 137.82 299.26"/><polygon id="路径-21" data-name="路径" class="cls-1" points="78.65 289.13 56.3 276.71 56.3 266.78 78.65 279.19 78.65 289.13"/><polygon class="cls-1" points="48.83 38.79 10.49 16.45 10.49 6.24 48.83 28.58 48.83 38.79"/><polygon class="cls-1" points="92.28 63.69 55.86 42.62 55.86 33.05 92.28 53.47 92.28 63.69"/><polygon class="cls-1" points="33.49 54.83 10.49 42.07 10.49 31.85 33.49 45.26 33.49 54.83"/><polygon class="cls-1" points="54.48 66.83 36.49 57.07 36.49 46.85 54.48 57.26 54.48 66.83"/><polygon class="cls-1" points="137.66 89.86 161.94 103.9 161.94 94.33 137.66 80.28 137.66 89.86"/><polygon class="cls-1" points="138.93 115.11 161.94 128.52 161.94 118.31 138.93 104.9 138.93 115.11"/><polygon class="cls-1" points="111.93 100.11 134.94 113.52 134.94 103.31 111.93 89.9 111.93 100.11"/><polygon class="cls-1" points="85.93 85.11 108.94 98.52 108.94 88.31 85.93 74.9 85.93 85.11"/><polygon class="cls-1" points="81.5 82.64 59.14 69.88 59.14 59.66 81.5 72.43 81.5 82.64"/><polygon class="cls-1" points="56.5 91.86 10.49 65.05 10.49 54.83 56.5 81.64 56.5 91.86"/><polygon class="cls-1" points="80.14 107.26 63.53 97.69 63.53 87.47 80.14 97.05 80.14 107.26"/><polygon class="cls-1" points="98.67 118.11 87.17 111.73 87.17 101.52 98.67 107.9 98.67 118.11"/><polygon class="cls-1" points="116.67 128.11 105.17 121.73 105.17 111.52 116.67 117.9 116.67 128.11"/><polygon class="cls-1" points="35.41 100.71 10.49 86.03 10.49 75.81 35.41 90.5 35.41 100.71"/><polygon class="cls-1" points="131.11 157.41 100.44 140.18 100.44 129.96 131.11 147.84 131.11 157.41"/><polygon class="cls-1" points="28.38 119.86 10.49 109.64 10.49 99.43 28.38 109.64 28.38 119.86"/><polygon class="cls-1" points="132.59 179.56 65.49 140.63 65.49 130.41 132.59 169.35 132.59 179.56"/><polygon class="cls-1" points="128.23 199.97 111.61 190.39 111.61 180.18 128.23 189.75 128.23 199.97"/><polygon class="cls-1" points="28.38 166.46 10.49 155.6 10.49 145.39 28.38 156.24 28.38 166.46"/><polygon class="cls-1" points="131.19 226.71 95.41 206.29 95.41 196.07 131.19 217.14 131.19 226.71"/><polygon class="cls-1" points="47.55 200.29 10.49 179.22 10.49 169.01 47.55 190.07 47.55 200.29"/><polygon class="cls-1" points="22.63 209.22 10.49 202.2 10.49 191.99 22.63 199.01 22.63 209.22"/><polygon class="cls-1" points="107.47 257.97 90.47 248.97 90.66 238.48 107.27 248.06 107.47 257.97"/><polygon class="cls-1" points="140.78 277.42 113.94 262.1 113.94 251.88 140.78 267.84 140.78 277.42"/><polygon class="cls-1" points="48.83 247.53 10.49 225.18 10.49 214.97 48.83 237.31 48.83 247.53"/><polygon class="cls-1" points="92.28 272.42 55.86 251.99 55.86 241.78 92.28 262.21 92.28 272.42"/><polygon class="cls-1" points="128.07 293.49 116.57 287.1 116.57 276.89 128.07 283.27 128.07 293.49"/><polygon class="cls-1" points="108.49 306.21 85.49 292.8 85.49 282.59 108.49 295.99 108.49 306.21"/><polygon class="cls-1" points="137.02 159.44 161.94 174.12 161.94 163.9 137.02 149.22 137.02 159.44"/><polygon class="cls-1" points="144.05 186.88 161.94 197.1 161.94 186.88 144.05 176.67 144.05 186.88"/><polyline class="cls-1" points="135.74 204.76 161.94 220.08 161.94 209.86 135.74 194.54"/><polygon class="cls-1" points="144.05 232.84 161.94 243.69 161.94 233.48 144.05 222.63 144.05 232.84"/><polygon class="cls-1" points="138.93 322.85 161.94 336.25 161.94 326.04 138.93 312.63 138.93 322.85"/><polygon class="cls-1" points="50.11 271.78 40.52 266.04 40.52 255.82 50.11 261.57 50.11 271.78"/><polygon class="cls-1" points="129.11 316.78 119.52 311.04 119.52 300.82 129.11 306.57 129.11 316.78"/><polygon class="cls-2" points="162.33 93.97 162.33 335.97 313.33 247.97 312.33 3.97 162.33 93.97"/><polygon id="路径-22" data-name="路径" class="cls-1" points="131.69 247.07 114.5 238.47 114.5 229.87 131.69 238.47 131.69 247.07"/><polygon class="cls-3" points="162.33 96.26 162.33 338.26 321.33 250.26 320.28 6.26 162.33 96.26"/><path class="cls-4" d="M302.32,199c3.1,34-16.36,57.1-46.88,64.06l-60.71,13.83-3-33.11,56.78-13.51q12.93-3,17.54-8.23t3.72-14.93q-1.63-17.91-20.55-13.62l-20.95,5.35c-29.86,6.8-49.85-7.72-52.78-39.92-1.6-17.47,5.79-29.65,15-40.2q10.18-10.77,26.12-14.4l61.71-14.06L281.18,122l-56.8,13.65q-18.91,4.32-17.52,19.49c.67,7.37,3.73,11.36,9.22,12q3.1.71,14.06-1.79l20-5.27c12.6-2.87,25.87-1.61,34.67,5.76C292.83,172.41,300.81,182.41,302.32,199Z"/><polygon id="路径-23" data-name="路径" points="107.11 75.38 96.8 69.43 96.8 59.9 107.11 65.86 107.11 75.38"/><polygon id="路径-24" data-name="路径" points="124.31 85.69 113.99 79.15 113.99 70.22 124.31 76.17 124.31 85.69"/><polygon id="路径-25" data-name="路径" points="71.01 125.23 40.06 106.88 40.06 96.01 71.01 115.04 71.01 125.23"/><polygon id="路径-26" data-name="路径" points="89.92 135.11 79.61 129.16 79.61 119.64 89.92 125.59 89.92 135.11"/><polygon id="路径-27" data-name="路径" points="38.34 126.95 33.19 124.09 33.19 114.92 38.34 117.78 38.34 126.95"/><polygon id="路径-28" data-name="路径" points="55.54 137.27 45.22 131.32 45.22 121.8 55.54 127.75 55.54 137.27"/><polygon id="路径-29" data-name="路径" points="72.73 171.66 5.68 132.16 5.68 121.8 72.73 161.29 72.73 171.66"/><polygon id="路径-30" data-name="路径" points="96.8 183.69 81.32 175.37 81.32 166.5 96.8 174.82 96.8 183.69"/><polygon id="路径-31" data-name="路径" points="67.57 192.29 31.47 171.66 31.47 161.34 67.57 182.62 67.57 192.29"/><polygon id="路径-32" data-name="路径" points="86.48 199.16 76.17 193.21 76.17 183.69 86.48 189.64 86.48 199.16"/><polygon id="路径-33" data-name="路径" points="79.61 221.51 50.38 207.07 50.38 197.44 79.61 211.88 79.61 221.51"/><polygon id="路径-34" data-name="路径" points="101.95 233.55 84.76 224.95 84.76 216.35 101.95 224.95 101.95 233.55"/><polygon id="路径-35" data-name="路径" points="43.5 223.23 28.03 214.91 28.03 206.04 43.5 214.36 43.5 223.23"/><polygon id="路径-36" data-name="路径" points="78.68 244.77 50.45 227.45 50.97 218.42 79.47 234.79 78.68 244.77"/><polygon id="路径-37" data-name="路径" points="107.11 283.41 96.8 277.45 96.8 267.93 107.11 273.88 107.11 283.41"/><polygon id="路径-38" data-name="路径" points="28.03 261.06 5.68 247.4 5.68 236.99 28.03 250.65 28.03 261.06"/><polygon id="路径-39" data-name="路径" points="124.31 135.63 158.69 154.46 158.69 144.07 124.31 125.23 124.31 135.63"/><polygon id="路径-40" data-name="路径" points="136.34 254.27 158.69 267.93 158.69 257.52 136.34 243.86 136.34 254.27"/><polygon id="路径-41" data-name="路径" points="148.38 283.98 158.69 290.28 158.69 281.11 148.38 274.81 148.38 283.98"/><polygon id="路径-42" data-name="路径" points="134.62 300.42 158.69 314.35 158.69 304.22 134.62 290.28 134.62 300.42"/><polygon id="路径-43" data-name="路径" points="75.45 290.28 53.1 277.87 53.1 267.93 75.45 280.35 75.45 290.28"/><polygon points="45.63 39.95 7.28 17.6 7.28 7.39 45.63 29.73 45.63 39.95"/><polygon points="89.08 64.84 52.66 43.77 52.66 34.2 89.08 54.63 89.08 64.84"/><polygon points="30.29 55.99 7.28 43.22 7.28 33.01 30.29 46.41 30.29 55.99"/><polygon points="51.27 67.99 33.28 58.22 33.28 48.01 51.27 58.41 51.27 67.99"/><polygon points="134.45 91.01 158.74 105.06 158.74 95.48 134.45 81.44 134.45 91.01"/><polygon points="135.73 116.27 158.74 129.67 158.74 119.46 135.73 106.06 135.73 116.27"/><polygon points="108.73 101.27 131.74 114.67 131.74 104.46 108.73 91.06 108.73 101.27"/><polygon points="82.73 86.27 105.74 99.67 105.74 89.46 82.73 76.06 82.73 86.27"/><polygon points="78.3 83.8 55.93 71.03 55.93 60.82 78.3 73.58 78.3 83.8"/><polygon points="53.29 93.01 7.28 66.2 7.28 55.99 53.29 82.8 53.29 93.01"/><polygon points="76.94 108.42 60.32 98.84 60.32 88.63 76.94 98.2 76.94 108.42"/><polygon points="95.47 119.27 83.97 112.89 83.97 102.67 95.47 109.06 95.47 119.27"/><polygon points="113.47 129.27 101.97 122.89 101.97 112.67 113.47 119.06 113.47 129.27"/><polygon points="32.21 101.86 7.28 87.18 7.28 76.97 32.21 91.65 32.21 101.86"/><polygon points="127.91 158.57 97.23 141.33 97.23 131.12 127.91 148.99 127.91 158.57"/><polygon points="25.18 121.01 7.28 110.8 7.28 100.59 25.18 110.8 25.18 121.01"/><polygon points="129.38 180.72 62.28 141.78 62.28 131.57 129.38 170.51 129.38 180.72"/><polygon points="125.03 201.12 108.41 191.55 108.41 181.34 125.03 190.91 125.03 201.12"/><polygon points="25.18 167.61 7.28 156.76 7.28 146.55 25.18 157.4 25.18 167.61"/><polygon points="127.99 227.87 92.21 207.44 92.21 197.23 127.99 218.29 127.99 227.87"/><polygon points="44.35 201.44 7.28 180.38 7.28 170.17 44.35 191.23 44.35 201.44"/><polygon points="19.43 210.38 7.28 203.36 7.28 193.15 19.43 200.17 19.43 210.38"/><polygon points="104.27 259.12 87.27 250.12 87.45 239.64 104.07 249.21 104.27 259.12"/><polygon points="137.58 278.57 110.74 263.25 110.74 253.04 137.58 269 137.58 278.57"/><polygon points="45.63 248.68 7.28 226.34 7.28 216.13 45.63 238.47 45.63 248.68"/><polygon points="89.08 273.58 52.66 253.15 52.66 242.94 89.08 263.36 89.08 273.58"/><polygon points="124.87 294.64 113.36 288.26 113.36 278.04 124.87 284.43 124.87 294.64"/><polygon points="105.29 307.36 82.28 293.96 82.28 283.74 105.29 297.15 105.29 307.36"/><polygon points="133.81 160.59 158.74 175.27 158.74 165.06 133.81 150.38 133.81 160.59"/><polygon points="140.84 188.04 158.74 198.25 158.74 188.04 140.84 177.83 140.84 188.04"/><polyline points="132.53 205.91 158.74 221.23 158.74 211.02 132.53 195.7"/><polygon points="140.84 234 158.74 244.85 158.74 234.64 140.84 223.79 140.84 234"/><polygon points="135.73 324 158.74 337.41 158.74 327.2 135.73 313.79 135.73 324"/><polygon points="46.9 272.94 37.32 267.19 37.32 256.98 46.9 262.72 46.9 272.94"/><polygon points="125.9 317.94 116.32 312.19 116.32 301.98 125.9 307.72 125.9 317.94"/><polygon id="路径-44" data-name="路径" points="128.49 248.22 111.3 239.63 111.3 231.03 128.49 239.63 128.49 248.22"/><polygon class="cls-4" points="115.63 269.24 11.53 212.14 18.16 182.89 101.33 134.13 36.68 97.77 45.48 64.97 146.78 121.63 143.89 150.56 61.28 202.26 123.41 234.5 115.63 269.24"/></svg>