<?xml version="1.0" encoding="utf-8"?>
<!-- Generator: Adobe Illustrator 24.0.0, SVG Export Plug-In . SVG Version: 6.00 Build 0)  -->
<svg version="1.1" id="图层_1" xmlns="http://www.w3.org/2000/svg" xmlns:xlink="http://www.w3.org/1999/xlink" x="0px" y="0px"
	 viewBox="0 0 1485.9 389.3" style="enable-background:new 0 0 1485.9 389.3;" xml:space="preserve">
<style type="text/css">
	.st0{fill:#FFFFFF;}
	.st1{opacity:0.41;fill:#D3D3D3;enable-background:new    ;}
</style>
<title>画板 3</title>
<g>
	<path class="st0" d="M1201.6,268.5c-42.4-25.6-80.1-60.5-105.5-95.6c-0.4-0.6-0.3-1.4,0.3-1.9c0.2-0.2,0.5-0.3,0.7-0.3h96.5
		c0.7,0,1.3-0.6,1.3-1.3l0,0v-14.2c0.1-3.4-2.6-6.2-5.9-6.2h-103.4c-0.7,0-1.3-0.6-1.3-1.3l0,0v-47c0-0.7,0.5-1.3,1.3-1.3l0,0
		l90.9-0.9V85.2c0-4.3-3.2-8.1-7.2-8.1h-83.7c-0.7,0-1.3-0.6-1.3-1.3l0,0V55c0-12.2-9.2-22.3-20.8-22.8c-0.7,0-1.3,0.6-1.3,1.3
		c0,0,0,0,0,0.1v42.3c0,0.7-0.6,1.3-1.3,1.3l0,0h-87.8c-1.7,0.1-3,1.5-3,3.2v14.8c-0.1,2.2,1.7,4,3.9,4.1h86.9
		c0.7,0,1.3,0.6,1.3,1.3v47c0,0.7-0.6,1.3-1.3,1.3l0,0H955c-1.8,0-3.3,1.6-3.2,3.4v15.1c0,1.7,1.3,3.2,3.1,3.2l0,0h94.7
		c0.7,0.1,1.3,0.7,1.2,1.4c0,0.2-0.1,0.5-0.2,0.7c-25.6,36.4-59.8,69.6-109.1,99.4c-1.3,0.8-1.7,2.6-0.9,3.9
		c0.1,0.1,0.1,0.2,0.2,0.2l4.2,5.4c5.5,7.3,15.8,8.9,23.3,3.7c42.2-29.3,70.5-58.3,91.5-90.3c0.4-0.6,1.1-0.8,1.7-0.4
		c0.4,0.2,0.6,0.7,0.6,1.1v113.6c0,0.7,0.5,1.3,1.3,1.3h5c8.8,0,15.9-7.5,15.9-16.7v-99.2c0-0.7,0.5-1.3,1.2-1.3
		c0.4,0,0.8,0.2,1.1,0.5c23,31.9,54.4,63.3,93.3,91.2c7.4,5.3,17.7,3.6,23-3.8c0.1-0.1,0.1-0.1,0.2-0.2l0.8-1.2
		c2.6-3.7,1.8-8.8-1.9-11.4C1201.8,268.6,1201.7,268.6,1201.6,268.5z"/>
	<path class="st0" d="M649.4,202.4c-69.2,0.3-138.5,0.3-207.7,0.2c-7.1,0-10.2,2.4-10.2,9.7c0.1,30.3-0.2,60.6,0.2,90.9
		c0,3.1,2.9,8.9,4.6,9c19.8,0.7,39.7,0.6,59.6,0.3c2.1,0,4.7-2.5,6.1-4.5c21.5-31.5,51.4-42.1,88.3-36c9.3,1.5,11.9-3.2,11.8-11.9
		c-0.1-8.5-1-14.5-11.8-13.5c-7.7,0.7-15.7,1.2-23.3,0.1c-28.2-4.2-50.7,4.3-66.8,28c-8.5,12.5-20.7,13.8-34.2,13
		c-7.3-0.4-10-3.3-9.9-10.3c0.1-12.1,0.3-24.3-0.5-36.4c-0.7-10.2,2.9-13.4,13.2-13.3c45.9,0.5,91.7,0.2,137.6,0.2
		c28.8,0,28.8,0,28.7,28.7c0,19.6-11,30.8-30.8,31.2c-9.5,0.2-19.2,1.4-28.5-0.1c-21.1-3.3-34.2,7.3-46.8,25.6
		c21.9,0,41.8-1.5,61.4,0.4c24.3,2.4,44-4.3,60.2-22.1c0.9-1,2.4-1.5,2.9-2.5c2.1-4,5.4-8.1,5.5-12.3c0.7-21.2,0.4-42.4,0.8-63.6
		C659.9,205.7,657.6,202.3,649.4,202.4z"/>
	<path class="st0" d="M558.7,175.9c32.8,0.5,65.7,0.3,100.3,0.3c0-33.8,1.6-65.8-1-97.5c-0.8-9.3-12.2-23-21.1-25.2
		c-16.5-4.1-34.7-1.2-52.2-1.2c0.8,8.9,1.5,16.1,2.3,24.7c11.3,0,22.4,0.1,33.6,0c9.1-0.1,13.9,4.8,14.1,13.4
		c0.4,17.3,0.5,34.6-0.2,51.9c-0.1,3.1-4.9,8.4-7.8,8.5c-16.3,0.8-32.7,0.4-50.8,0.4V88.5l-24.7-1.3c0,27.4-0.2,54.2,0.3,80.9
		C551.5,170.9,556.1,175.9,558.7,175.9z"/>
	<path class="st0" d="M453,131.1l-20.9,45.5c13.5-1.8,27.3,5.7,31.9-11.2c8.2-30.2,26.9-42.6,57.8-36c0.8,0.2,1.7-0.1,2.6,0
		c7.5,0.9,10.1-3,9.6-9.9c-0.3-4.6-0.5-9.2-0.9-15.3h-36.2c0.9-5.8,1.6-9.8,2.9-17.9c-10.8,3-22.4,2.9-27.6,8.6
		c-6,6.6-10.7,9.9-19.1,9.4c-6.8-0.4-13.6-0.1-20.1-0.1C429.1,126.6,429.1,126.6,453,131.1z"/>
	<path class="st0" d="M470.9,77.7c20.2-0.7,40.5-0.3,61.3-0.3c4.7-24.5,4.1-25.2-18.6-25.2h-47.4c0.6-7.6,1-12.1,1.6-19.5
		c-9.2,1.8-22.3,1.1-24.1,5.3c-6.5,15-9.1,31.7-14,51c11.1-2.1,18.8-3,26.3-5.1C461.2,82.6,465.9,77.8,470.9,77.7z"/>
	<path class="st0" d="M523,146.5c-26.4-7.7-26.4-7.7-35.6,16l44.7,13C536.8,153.8,535.6,150.2,523,146.5z"/>
	<path class="st0" d="M564.8,76.5c3.6,0.4,7.9-5.1,15.1-10.2c-7.3-4.9-11.5-9.9-15.5-9.8c-3.3,0.1-9.3,6.6-9,9.6
		C555.9,70.2,561.1,76.1,564.8,76.5z"/>
	<path class="st0" d="M897.1,107.9c-13-3.3-166.7-1.6-199.6-1.4c-2.9,0.1-5.2,2.5-5.2,5.4v1.2l0,0c0,25.1,0,97.1,0.4,119.3
		c0,2.4,4,6.7,6.2,6.7c7.7,0.1,25.6,0.2,48.1,0.3c-0.2,7.2-0.2,13.6-0.4,17h-49.4c-3.3,0-5.9,6-5.9,9.6v10.2h51.3
		c-5.2,9.9-11.9,17.9-34.4,27.8h1.6c6.5,7.8,17,14.6,25.7,10.1c16.7-8.7,31.8-22.8,36.7-37.9h66.4v39.6c9.7,0,26.8-8.6,26.8-19.2
		v-20.4h49v-13.8c0-3.3-2.6-6-5.9-6h-43.2v-16.9h50.4c0-29.4,1.4-81.9-0.8-109.6C914.3,121.7,904.7,109.8,897.1,107.9z M713.4,167.1
		c36.7,0,124.9,0.2,182,0.2c0,4.3,0,8.7,0,13h-182V167.1z M883.3,128.4c7.7-0.1,11.8,4.1,11.9,11.6c0,2.3,0.1,5.2,0.1,8.5H713.4
		v-20.3C761.8,128.3,875.7,128.4,883.3,128.4L883.3,128.4z M838.6,241.7v14.5h-65c0.1-1.7,0.1-8.5,0.1-15.1c0-0.6,0.1-1.2,0.3-1.7
		c20.8,0,43.2,0,64.1,0C838.4,240.1,838.6,240.9,838.6,241.7L838.6,241.7z M888.5,217.3c-12.1,0.6-125.4,0.4-163.7,0.4
		c-6.3-0.1-11.4-5.3-11.3-11.7v-7c37.7,0,125.4,0.2,181.8,0.2c-0.1,4.2-0.2,7.9-0.3,10.7S890.9,217.1,888.5,217.3L888.5,217.3z"/>
	<path class="st0" d="M730.8,80c8.2-1.6,56.4-1.1,70.8-1.1c3.9-24.5,3.4-25.2-15.7-25.2H729c0.5-7.6,0.8-12.1,1.3-19.5
		c-7.8,1.8-18.8,1.1-20.4,5.3c-7,20-12.8,40.3-17.5,61c9.4-2.1,16-3,22.2-5.1C718.3,94.2,726,83.1,730.8,80z"/>
	<path class="st0" d="M898.9,53.7H842c0.5-7.6,0.8-12.1,1.3-19.5c-7.8,1.8-18.8,1.1-20.4,5.3c-7,20-12.8,40.3-17.5,61
		c9.4-2.1,15.9-3,22.2-5.1c3.8-1.2,11.4-12.3,16.2-15.4c9.6-0.6,56.4-1.1,70.7-1.1C918.5,54.4,918,53.7,898.9,53.7z"/>
	<path class="st0" d="M1313.7,132.1l-27.5-39.5c-17,15.1-18.2,19-10.5,30.1C1292,146,1292,146,1313.7,132.1z"/>
	<path class="st0" d="M1478,268.5c-42.4-25.6-80.1-60.5-105.5-95.6c-0.4-0.6-0.3-1.4,0.3-1.9c0.2-0.1,0.4-0.2,0.7-0.3h96.5
		c0.7,0,1.3-0.6,1.3-1.3l0,0v-14.2c0.1-3.4-2.6-6.2-5.9-6.2H1362c-0.7,0-1.3-0.6-1.3-1.3V88.4c0-0.7,0.5-1.3,1.3-1.3h89.8
		c0.7,0,1.3-0.6,1.3-1.3l0,0V72.6c0.1-4.2-3.2-7.7-7.4-7.8H1362c-0.7,0-1.3-0.6-1.3-1.3v-8.6c0-12.2-9.2-22.3-20.8-22.8
		c-0.7,0-1.3,0.6-1.3,1.3c0,0,0,0,0,0.1v30.1c0,0.7-0.6,1.3-1.3,1.3l0,0h-87.8c-1.7,0.1-3,1.5-3,3.2v15.1c-0.1,2.2,1.7,4,3.9,4.1
		l0,0h86.9c0.7,0,1.3,0.6,1.3,1.3l0,0v59.3c0,0.7-0.6,1.3-1.3,1.3l0,0h-105.9c-1.8,0-3.3,1.6-3.2,3.4v15.1c0,1.7,1.3,3.2,3.1,3.2
		h94.7c0.7,0.1,1.3,0.7,1.2,1.4c0,0.2-0.1,0.5-0.2,0.7c-25.6,36.4-59.9,69.6-109.1,99.4c-1.3,0.8-1.7,2.6-0.9,3.9
		c0.1,0.1,0.1,0.2,0.2,0.2l4.2,5.4c5.5,7.3,15.8,8.9,23.3,3.7c42.2-29.3,70.5-58.3,91.5-90.3c0.4-0.6,1.2-0.7,1.7-0.4
		c0.4,0.2,0.6,0.7,0.6,1.1v113.6c0,0.7,0.5,1.3,1.3,1.3h5c8.8,0,15.9-7.5,15.9-16.7V195c0-0.7,0.5-1.3,1.2-1.3
		c0.4,0,0.8,0.2,1.1,0.5c23,31.9,54.4,63.3,93.3,91.2c7.4,5.3,17.7,3.6,23-3.8c0.1-0.1,0.1-0.2,0.2-0.2l0.8-1.2
		c2.6-3.7,1.8-8.8-1.9-11.4C1478.2,268.7,1478.1,268.6,1478,268.5z"/>
	<path class="st0" d="M1414,133.9c18.5-21.4,18.5-21.4,1.2-41.1l-31.3,36.2C1401.3,143.6,1405.1,144.1,1414,133.9z"/>
	<path class="st0" d="M854.8,76.4l15,21.5c9.2-8.2,9.9-10.3,5.7-16.4C866.6,68.8,866.6,68.8,854.8,76.4z"/>
	<path class="st0" d="M741.3,76.4l15,21.5c9.2-8.2,9.9-10.3,5.7-16.4C753.1,68.8,753.1,68.8,741.3,76.4z"/>
	<g>
		<path class="st0" d="M360.1,8.5L181.8,110.1v273.2l122.4-67.8l57-31.9L360.1,8.5z M286.9,298.3l-68.5,15.6l-3.4-37.4l64.1-15.2
			c9.7-2.3,16.4-5.3,19.8-9.3c3.5-4,4.9-9.6,4.2-16.8c-1.2-13.4-8.9-18.6-23.1-15.4l-23.7,6.1c-33.8,7.7-56.2-8.7-59.6-45
			c-1.8-19.8,6.5-33.4,16.9-45.4c7.7-8.1,17.5-13.5,29.5-16.3l69.7-15.9l3.3,35.8l-64.1,15.5c-14.2,3.3-20.9,10.6-19.8,22
			c0.8,8.4,4.2,12.9,10.4,13.5c2.4,0.6,7.7-0.1,15.9-2l22.6-6c14.2-3.3,29.2-1.8,39.2,6.5c9,7.5,18.1,18.7,19.8,37.5
			C343.3,264.5,321.4,290.5,286.9,298.3z"/>
		<polygon id="路径" class="st1" points="111.4,207.5 93.9,198.1 93.9,188.1 111.4,197.5 		"/>
		<polygon id="路径-2" class="st1" points="51.2,252.2 33.7,242.8 33.7,232.7 51.2,242.1 		"/>
		<polygon id="路径-3" class="st1" points="91,276.4 59.1,256.9 59.7,246.7 91.9,265.1 		"/>
		<polygon class="st1" points="88.9,122.6 70.2,111.7 70.2,100.2 88.9,110.9 		"/>
		<polygon class="st1" points="109.9,134.8 97,127.5 97,116 109.9,123.2 		"/>
		<polygon class="st1" points="130.3,146 117.3,138.8 117.3,127.3 130.3,134.5 		"/>
		<polygon class="st1" points="146.5,179.1 111.9,159.7 111.9,148.2 146.5,168.3 		"/>
		<polygon class="st1" points="119.9,292.7 100.7,282.5 100.9,270.7 119.6,281.5 		"/>
		<polygon id="路径-4" class="st0" points="119.4,86.5 107.8,79.8 107.8,69.1 119.4,75.8 		"/>
		<polygon id="路径-5" class="st0" points="138.8,98.2 127.2,90.7 127.2,80.7 138.8,87.5 		"/>
		<polygon id="路径-6" class="st0" points="78.7,142.8 43.8,122.1 43.8,109.8 78.7,131.3 		"/>
		<polygon id="路径-7" class="st0" points="100,153.9 88.4,147.3 88.4,136.4 100,143.2 		"/>
		<polygon id="路径-8" class="st0" points="41.8,144.8 36,141.5 36,131.1 41.8,134.4 		"/>
		<polygon id="路径-9" class="st0" points="61.2,156.4 49.5,149.7 49.5,138.9 61.2,145.7 		"/>
		<polygon id="路径-10" class="st0" points="80.6,195.3 4.9,150.7 4.9,138.9 80.6,183.5 		"/>
		<polygon id="路径-11" class="st0" points="107.8,208.8 90.3,199.4 90.3,189.4 107.8,198.8 		"/>
		<polygon id="路径-12" class="st0" points="74.8,218.5 34.1,195.3 34.1,183.6 74.8,207.6 		"/>
		<polygon id="路径-13" class="st0" points="96.2,226.3 84.5,219.5 84.5,208.8 96.2,215.5 		"/>
		<polygon id="路径-14" class="st0" points="88.4,251.5 55.4,235.2 55.4,224.4 88.4,240.6 		"/>
		<polygon id="路径-15" class="st0" points="113.7,265 94.2,255.4 94.2,245.7 113.7,255.4 		"/>
		<polygon id="路径-16" class="st0" points="47.6,253.4 30.1,244 30.1,234 47.6,243.5 		"/>
		<polygon id="路径-17" class="st0" points="87.4,277.8 55.5,258.3 56.1,248 88.3,266.5 		"/>
		<polygon id="路径-18" class="st0" points="119.4,321.4 107.8,314.7 107.8,303.9 119.4,310.6 		"/>
		<polygon id="路径-19" class="st0" points="30.1,296.2 4.9,280.7 4.9,269 30.1,284.3 		"/>
		<polygon id="路径-20" class="st0" points="138.8,154.5 177.7,175.8 177.7,164.1 138.8,142.8 		"/>
		<polygon id="路径-21" class="st0" points="152.4,288.5 177.7,303.9 177.7,292.1 152.4,276.8 		"/>
		<polygon id="路径-22" class="st0" points="166,322 177.7,329.1 177.7,318.8 166,311.6 		"/>
		<polygon id="路径-23" class="st0" points="150.5,340.5 177.7,356.4 177.7,344.8 150.5,329.1 		"/>
		<polygon id="路径-24" class="st0" points="83.7,329.1 58.5,315.1 58.5,303.9 83.7,318 		"/>
		<polygon class="st0" points="50,46.6 6.8,21.3 6.8,9.8 50,35 		"/>
		<polygon class="st0" points="99.1,74.7 58,50.9 58,40 99.1,63.1 		"/>
		<polygon class="st0" points="32.7,64.6 6.8,50.2 6.8,38.7 32.7,53.8 		"/>
		<polygon class="st0" points="56.4,78.2 36.1,67.1 36.1,55.6 56.4,67.4 		"/>
		<polygon class="st0" points="150.3,104.2 177.7,120.1 177.7,109.2 150.3,93.3 		"/>
		<polygon class="st0" points="151.7,133.8 177.7,149 177.7,137.5 151.7,122.3 		"/>
		<polygon class="st0" points="121.2,115.8 147.2,130.9 147.2,119.4 121.2,104.3 		"/>
		<polygon class="st0" points="91.9,98.9 117.8,114 117.8,102.5 91.9,87.3 		"/>
		<polygon class="st0" points="86.9,96 61.6,81.6 61.6,70.1 86.9,84.5 		"/>
		<polygon class="st0" points="58.7,106.4 6.8,76.2 6.8,64.6 58.7,94.9 		"/>
		<polygon class="st0" points="85.3,123.8 66.6,113.1 66.6,101.4 85.3,112.3 		"/>
		<polygon class="st0" points="106.3,136.1 93.3,128.9 93.3,117.4 106.3,124.6 		"/>
		<polygon class="st0" points="126.6,147.4 113.7,140.2 113.7,128.7 126.6,135.9 		"/>
		<polygon class="st0" points="34.9,116.5 6.8,99.9 6.8,88.4 34.9,104.9 		"/>
		<polygon class="st0" points="142.9,180.5 108.2,160.9 108.2,149.4 142.9,169.6 		"/>
		<polygon class="st0" points="27,138 6.8,126.5 6.8,115 27,126.5 		"/>
		<polygon class="st0" points="144.6,205.4 68.8,161.5 68.8,150 144.6,193.9 		"/>
		<polygon class="st0" points="139.6,228.4 120.9,217.6 120.9,206.1 139.6,216.9 		"/>
		<polygon class="st0" points="27,190.6 6.8,178.4 6.8,166.8 27,179.1 		"/>
		<polygon class="st0" points="143,258.7 102.6,235.7 102.6,224 143,247.9 		"/>
		<polygon class="st0" points="48.5,228.9 6.8,205.1 6.8,193.6 48.5,217.3 		"/>
		<polygon class="st0" points="20.4,238.9 6.8,231 6.8,219.4 20.4,227.4 		"/>
		<polygon class="st0" points="116.3,293.9 97.1,283.8 97.3,271.9 116,282.7 		"/>
		<polygon class="st0" points="153.8,315.9 123.5,298.7 123.5,287 153.8,305.1 		"/>
		<polygon class="st0" points="50,282.2 6.8,256.9 6.8,245.4 50,270.7 		"/>
		<polygon class="st0" points="99.1,310.3 58,287.2 58,275.6 99.1,298.8 		"/>
		<polygon class="st0" points="139.5,334.1 126.5,326.9 126.5,315.3 139.5,322.5 		"/>
		<polygon class="st0" points="117.4,348.4 91.4,333.3 91.4,321.8 117.4,336.9 		"/>
		<polygon class="st0" points="149.6,182.7 177.7,199.3 177.7,187.8 149.6,171.2 		"/>
		<polygon class="st0" points="157.5,213.7 177.7,225.3 177.7,213.7 157.5,202.1 		"/>
		<polyline class="st0" points="148.1,233.9 177.7,251.1 177.7,239.6 148.1,222.4 		"/>
		<polygon class="st0" points="157.5,265.6 177.7,277.9 177.7,266.3 157.5,254.1 		"/>
		<polygon class="st0" points="151.7,367.2 177.7,382.3 177.7,370.8 151.7,355.7 		"/>
		<polygon class="st0" points="51.5,309.5 40.6,303.1 40.6,291.6 51.5,298 		"/>
		<polygon class="st0" points="140.6,360.3 129.8,353.9 129.8,342.4 140.6,348.8 		"/>
		<polygon id="路径-25" class="st0" points="143.6,281.6 124.2,271.9 124.2,262.2 143.6,271.9 		"/>
		<polygon class="st0" points="127,311.8 10.7,245.2 18.7,212.3 113.5,158.9 41.3,116.6 51.9,79.8 165.1,145.7 161.3,178.3 67,235 
			136.5,272.7 		"/>
	</g>
</g>
</svg>
