<svg width="53" height="53" viewBox="0 0 53 53" fill="none" xmlns="http://www.w3.org/2000/svg">
<g filter="url(#filter0_b_258_1382)">
<g opacity="0.9">
<circle cx="26.5" cy="26.5" r="26.5" fill="#8898A0" fill-opacity="0.5"/>
<circle cx="26.5" cy="26.5" r="26" stroke="white" stroke-opacity="0.3"/>
</g>
</g>
<path d="M21.3149 13.2283C20.9231 13.1723 20.9044 13.1537 21.091 13.135C21.4455 13.079 22.2665 13.1537 22.8449 13.2843C24.1883 13.6015 25.401 14.4224 26.6885 15.8591L27.0243 16.2509L27.5094 16.1763C29.5805 15.8404 31.7075 16.1016 33.48 16.9226C33.9651 17.1465 34.7301 17.5943 34.8234 17.7062C34.8607 17.7436 34.9167 17.9861 34.954 18.2287C35.0846 19.1056 35.0286 19.7586 34.7488 20.2624C34.5995 20.5423 34.5995 20.6169 34.6928 20.8595C34.7674 21.0461 34.9913 21.1767 35.1966 21.1767C35.6444 21.1767 36.1108 20.4676 36.3347 19.4788L36.428 19.0869L36.5959 19.2735C37.5475 20.337 38.2938 21.811 38.4058 22.8559L38.4431 23.1358L38.2752 22.8932C37.9953 22.4641 37.7341 22.1842 37.3796 21.9416C36.7452 21.5125 36.0735 21.3819 34.301 21.2886C32.6964 21.1953 31.7821 21.0647 30.8865 20.7662C29.3566 20.2624 28.5729 19.6094 26.7631 17.2025C25.9608 16.139 25.457 15.5606 24.9532 15.0754C23.8524 14.0119 22.7516 13.4522 21.3149 13.2283Z" fill="white"/>
<path d="M35.2153 15.5978C35.2526 14.8888 35.3459 14.4224 35.5511 13.9932C35.6258 13.8253 35.7004 13.676 35.719 13.676C35.7377 13.676 35.7004 13.8067 35.6444 13.9559C35.4952 14.3664 35.4765 14.9448 35.5698 15.5978C35.7004 16.4375 35.7564 16.5494 36.652 17.4637C37.0624 17.8928 37.5475 18.4339 37.7341 18.6578L38.0513 19.0683L37.7341 18.7697C37.3423 18.3966 36.4467 17.6875 36.2415 17.5943C36.1109 17.5196 36.0922 17.5196 35.9989 17.6129C35.9243 17.6875 35.9056 17.7995 35.9056 18.3406C35.887 19.1802 35.775 19.7026 35.4952 20.2437C35.3459 20.5236 35.3272 20.4676 35.4578 20.1504C35.5511 19.9079 35.5698 19.7959 35.5698 18.9936C35.5698 17.3704 35.3832 16.9785 34.2451 16.3255C33.9652 16.1576 33.4801 15.915 33.2002 15.7844C32.9017 15.6538 32.6778 15.5419 32.6964 15.5419C32.7337 15.5045 33.8346 15.8217 34.2637 16.0083C34.9167 16.2695 35.0287 16.2882 35.1033 16.2695C35.1593 16.2136 35.1966 16.0643 35.2153 15.5978Z" fill="white"/>
<path d="M22.0799 18.378C21.2963 17.2958 20.7925 15.6166 20.9045 14.3665L20.9418 13.9746L21.1284 14.012C21.4642 14.0679 22.0426 14.2918 22.3225 14.4598C23.0688 14.9076 23.4047 15.5233 23.7219 17.0532C23.8151 17.501 23.9458 18.0235 24.0017 18.1914C24.095 18.4713 24.4495 19.1243 24.7481 19.5348C24.9533 19.8333 24.8227 19.9826 24.3562 19.9453C23.6472 19.8706 22.6957 19.2176 22.0799 18.378Z" fill="white"/>
<path d="M34.2637 26.4942C30.5694 25.0015 29.2633 23.7141 29.2633 21.5311C29.2633 21.2139 29.282 20.9527 29.282 20.9527C29.3007 20.9527 29.4313 21.0647 29.5992 21.1953C30.3455 21.7923 31.1851 22.0535 33.5174 22.3894C34.8794 22.5946 35.6631 22.7439 36.3721 22.9865C38.6297 23.7328 40.0291 25.2627 40.3649 27.3338C40.4582 27.9309 40.4023 29.069 40.253 29.6661C40.1224 30.1325 39.7492 30.9908 39.6559 31.0095C39.6373 31.0095 39.6 30.9162 39.6 30.7669C39.5626 29.9833 39.1708 29.2369 38.5178 28.6585C37.7341 27.9868 36.7266 27.4831 34.2637 26.4942Z" fill="white"/>
<path d="M31.6516 27.1099C31.6143 26.83 31.521 26.4755 31.465 26.3262L31.3717 26.0463L31.5397 26.2516C31.7822 26.5315 31.9688 26.8673 32.1367 27.3338C32.2673 27.6883 32.2673 27.8002 32.2673 28.3786C32.2673 28.9384 32.2487 29.069 32.1367 29.3862C31.9501 29.8899 31.7262 30.2444 31.3531 30.6363C30.6814 31.3266 29.8045 31.6998 28.5544 31.8677C28.3305 31.8863 27.6961 31.9423 27.1363 31.9796C25.737 32.0543 24.8041 32.2035 23.9645 32.5021C23.8525 32.5394 23.7406 32.5767 23.7219 32.558C23.6846 32.5207 24.263 32.1849 24.7294 31.961C25.3825 31.6438 26.0542 31.4759 27.5282 31.2147C28.2558 31.1027 29.0022 30.9534 29.1887 30.8788C31.0359 30.3004 31.9501 28.8637 31.6516 27.1099Z" fill="white"/>
<path d="M33.3494 30.1139C32.8643 29.0503 32.7524 28.0428 33.0136 27.0912C33.0509 26.9979 33.0882 26.9046 33.1256 26.9046C33.1629 26.9046 33.2748 26.9606 33.3868 27.0353C33.6107 27.1845 34.0771 27.4457 35.2712 28.0988C36.7825 28.9197 37.6408 29.5541 38.2379 30.2818C38.7603 30.9162 39.0775 31.6438 39.2268 32.5394C39.3201 33.0432 39.2641 34.256 39.1335 34.7597C38.723 36.3457 37.7901 37.6144 36.428 38.3421C36.2228 38.454 36.0549 38.5287 36.0362 38.5287C36.0176 38.5287 36.0922 38.3421 36.2041 38.1182C36.6519 37.1666 36.7079 36.2524 36.3721 35.2262C36.1668 34.5918 35.7377 33.8268 34.8794 32.5394C33.8532 31.0468 33.6107 30.6549 33.3494 30.1139Z" fill="white"/>
<path d="M19.4491 35.8232C20.8298 34.6664 22.5277 33.8455 24.095 33.5842C24.7667 33.4723 25.8862 33.5096 26.5019 33.6775C27.4908 33.9387 28.3864 34.4985 28.8528 35.1888C29.3006 35.8605 29.5058 36.4389 29.7111 37.7263C29.7857 38.2301 29.879 38.7525 29.8977 38.8645C30.0469 39.5362 30.3455 40.0586 30.7186 40.3385C31.297 40.7676 32.3046 40.7863 33.2934 40.4131C33.4614 40.3571 33.6106 40.3012 33.6106 40.3198C33.648 40.3571 33.1442 40.693 32.8083 40.8609C32.3419 41.1035 31.9687 41.1781 31.465 41.1781C30.5694 41.1781 29.8044 40.7117 29.1887 39.7787C29.058 39.5922 28.7968 39.0511 28.5729 38.5473C27.9199 37.036 27.5841 36.5882 26.8191 36.0844C26.1474 35.6553 25.2891 35.562 24.6361 35.8792C23.7778 36.2897 23.5539 37.3905 24.151 38.0622C24.3935 38.3421 24.8413 38.566 25.2145 38.6219C25.9048 38.7152 26.5019 38.1741 26.5019 37.4838C26.5019 37.036 26.334 36.7748 25.8862 36.5695C25.2891 36.3083 24.6361 36.6069 24.6547 37.1853C24.6547 37.4278 24.7667 37.5771 25.0092 37.689C25.1585 37.7637 25.1585 37.7637 25.0465 37.745C24.5055 37.6331 24.3749 36.9614 24.804 36.5322C25.3264 36.0098 26.4273 36.2337 26.8004 36.9614C26.9497 37.2599 26.9683 37.857 26.8377 38.2301C26.5205 39.0511 25.6249 39.4802 24.7107 39.2377C24.095 39.0697 23.8338 38.9018 23.0874 38.1368C21.7814 36.7934 21.2776 36.5322 19.4118 36.2524L19.0573 36.1964L19.4491 35.8232Z" fill="white"/>
<path fill-rule="evenodd" clip-rule="evenodd" d="M11.5 8C15.8473 13.2803 20.6805 19.2921 21.0164 19.7399C21.2962 20.1131 21.1843 20.4676 20.7178 20.7288C20.4566 20.8781 19.9155 21.0273 19.6543 21.0273C19.3558 21.0273 19.0013 20.8781 18.7587 20.6355C18.5908 20.4676 17.8631 19.4041 16.2212 16.8479C14.9711 14.8888 13.9076 13.2655 13.889 13.2469C13.8143 13.2096 13.8143 13.2096 16.0906 17.277C17.5273 19.8332 17.9937 20.7474 17.9937 20.8594C17.9937 21.1019 17.9191 21.2326 17.6206 21.5684C17.1168 22.1281 16.8929 22.7625 16.725 24.0873C16.5384 25.5613 16.0346 26.6061 14.598 28.3786C13.7583 29.4235 13.6277 29.6101 13.4225 30.0392C13.1613 30.5616 13.0867 30.8602 13.0493 31.5319C13.012 32.2409 13.0867 32.6887 13.2919 33.3604C13.4785 33.9574 13.6837 34.3492 14.1875 35.1142C14.6166 35.7859 14.8778 36.2897 14.8778 36.4763C14.8778 36.6255 14.9152 36.6255 15.5868 36.4763C17.1914 36.1031 18.5162 35.4687 19.2438 34.6851C19.6916 34.2 19.8036 33.9388 19.8036 33.2671C19.8036 32.8379 19.7849 32.7446 19.673 32.4834C19.4864 32.0729 19.1319 31.7371 18.3669 31.2147C17.3594 30.5243 16.9302 29.9646 16.8183 29.2183C16.725 28.5839 16.8369 28.1547 17.3967 26.9793C17.9751 25.7665 18.1244 25.2627 18.2176 24.0313C18.2736 23.2476 18.3669 22.9305 18.5908 22.6879C18.8334 22.4267 19.0386 22.3334 19.617 22.2588C20.5686 22.1282 21.1843 21.8856 21.6694 21.4191C22.0985 21.0273 22.2851 20.6355 22.3038 20.0571L22.3224 19.628L22.0799 19.3667C21.203 18.3592 10.9216 7.1977 10.8656 7.1977C10.847 7.1977 11.1455 7.5522 11.5 8ZM15.3629 32.3342C15.5682 31.9797 15.4562 31.5319 15.1204 31.308C14.8032 31.1027 14.3181 31.196 14.3181 31.4759C14.3181 31.5505 14.3554 31.6252 14.4674 31.6625C14.6353 31.7558 14.6539 31.849 14.5233 32.0543C14.3927 32.2595 14.3927 32.4461 14.5606 32.5767C14.8219 32.782 15.1764 32.67 15.3629 32.3342Z" fill="white"/>
<path fill-rule="evenodd" clip-rule="evenodd" d="M22.9196 22.5201C22.4718 22.6507 22.0427 23.1358 21.9121 23.6209C21.8374 23.9195 21.8747 24.4605 22.0054 24.6285C22.2106 24.8897 22.3972 24.9643 22.9196 24.9643C23.9458 24.9643 24.8227 24.5165 24.916 23.9754C25.0093 23.5276 24.6175 22.9119 24.0764 22.632C23.7965 22.4828 23.2181 22.4268 22.9196 22.5201ZM24.1137 23.453C24.263 23.2291 24.207 22.9866 23.9271 22.8186C23.4234 22.5014 22.6584 22.7627 22.6584 23.2478C22.6584 23.4903 23.0502 23.7515 23.4234 23.7515C23.6659 23.7515 24.0018 23.6023 24.1137 23.453Z" fill="white"/>
<defs>
<filter id="filter0_b_258_1382" x="-10" y="-10" width="73" height="73" filterUnits="userSpaceOnUse" color-interpolation-filters="sRGB">
<feFlood flood-opacity="0" result="BackgroundImageFix"/>
<feGaussianBlur in="BackgroundImageFix" stdDeviation="5"/>
<feComposite in2="SourceAlpha" operator="in" result="effect1_backgroundBlur_258_1382"/>
<feBlend mode="normal" in="SourceGraphic" in2="effect1_backgroundBlur_258_1382" result="shape"/>
</filter>
</defs>
</svg>
