<svg width="61" height="61" viewBox="0 0 61 61" fill="none" xmlns="http://www.w3.org/2000/svg">
<g filter="url(#filter0_b_258_1309)">
<g opacity="0.9">
<circle cx="30.5" cy="30.5" r="30.5" fill="#8898A0" fill-opacity="0.5"/>
<circle cx="30.5" cy="30.5" r="30" stroke="white" stroke-opacity="0.3"/>
</g>
</g>
<path d="M13.3755 32.5178L13.5153 32.2982L21.9393 19.1198C22.0624 18.9268 22.3519 18.9468 22.445 19.1564C23.8524 22.3105 25.0667 26.2331 24.4978 28.6751C24.2549 29.6798 23.5896 31.0406 22.841 32.2982C22.7445 32.4812 22.638 32.6609 22.5249 32.8339C22.4716 32.9137 22.3818 32.9603 22.2853 32.9603H13.6217C13.3888 32.9603 13.2525 32.7075 13.3755 32.5178Z" fill="white"/>
<path d="M50.9244 34.9666V37.0526C50.9244 37.1723 50.8513 37.2788 50.7448 37.3254C50.0927 37.6049 47.8602 38.6296 46.932 39.9205C44.5632 43.2176 42.7532 47.932 38.7075 47.932H21.8295C15.8475 47.932 11 43.0679 11 37.0659V36.8729C11 36.7132 11.1297 36.5835 11.2895 36.5835H20.6983C20.8846 36.5835 21.021 36.7565 21.0044 36.9395C20.9379 37.5516 21.051 38.1771 21.3404 38.7461C21.8994 39.8805 23.0572 40.5892 24.3082 40.5892H28.966V36.9528H24.3614C24.1252 36.9528 23.9854 36.68 24.1219 36.487C24.1718 36.4105 24.2283 36.3306 24.2882 36.2408C24.7241 35.622 25.3462 34.6604 25.965 33.5658C26.3875 32.8273 26.7968 32.0387 27.1262 31.2469C27.1927 31.1039 27.246 30.9575 27.2991 30.8144C27.389 30.5616 27.4821 30.3253 27.5487 30.0891C27.6152 29.8895 27.6685 29.6799 27.7217 29.4836C27.8781 28.8115 27.9446 28.0995 27.9446 27.3609C27.9446 27.0715 27.9313 26.7687 27.9047 26.4792C27.8914 26.1632 27.8515 25.8471 27.8115 25.5311C27.7849 25.2516 27.735 24.9754 27.6818 24.686C27.6152 24.2635 27.5221 23.8443 27.4156 23.4217L27.379 23.262C27.2991 22.9726 27.2327 22.6964 27.1395 22.407C26.8767 21.4987 26.5738 20.6137 26.2545 19.7853C26.138 19.4559 26.0049 19.1398 25.8719 18.8238C25.6755 18.348 25.4759 17.9155 25.293 17.5062C25.1998 17.3199 25.1199 17.1502 25.0401 16.9772C24.9503 16.7809 24.8571 16.5847 24.764 16.3983C24.6974 16.2552 24.6209 16.1222 24.5677 15.9891L23.9988 14.9378C23.9189 14.7947 24.052 14.625 24.2083 14.6683L27.7683 15.6331H27.7783C27.7849 15.6331 27.7883 15.6364 27.7916 15.6364L28.2607 15.7662L28.7764 15.9126L28.966 15.9658V13.8499C28.966 12.8284 29.7845 12 30.7959 12C31.3016 12 31.7607 12.2062 32.0901 12.5423C32.4194 12.8784 32.6258 13.3375 32.6258 13.8499V16.9906L33.005 17.097C33.035 17.107 33.0649 17.1203 33.0916 17.1402C33.1847 17.2101 33.3178 17.3133 33.4874 17.4397C33.6206 17.5462 33.7636 17.6759 33.9366 17.809C34.2793 18.0852 34.6885 18.4412 35.1377 18.8503C35.2574 18.9535 35.3739 19.06 35.4803 19.1665C36.0593 19.7054 36.708 20.3376 37.3269 21.0363C37.4999 21.2325 37.6696 21.4321 37.8426 21.6417C38.0156 21.8547 38.1986 22.0643 38.3582 22.2739C38.5679 22.5534 38.7941 22.8428 38.9904 23.1456C39.0836 23.2887 39.19 23.435 39.2799 23.5781C39.5327 23.9607 39.7556 24.3566 39.9685 24.7525C40.0583 24.9355 40.1515 25.1351 40.2313 25.3314C40.4676 25.8604 40.6539 26.3994 40.7736 26.9384C40.8103 27.0549 40.8369 27.1813 40.8502 27.2944V27.321C40.8901 27.4807 40.9034 27.6504 40.9167 27.8234C40.97 28.3756 40.9433 28.9279 40.8236 29.4836C40.7736 29.7198 40.7072 29.9427 40.6273 30.1789C40.5474 30.4052 40.4676 30.6414 40.3645 30.8643C40.1649 31.3267 39.9286 31.7892 39.6491 32.2217C39.5593 32.3814 39.4529 32.5511 39.3464 32.7108C39.2299 32.8805 39.1102 33.0402 39.0037 33.1966C38.8573 33.3962 38.7009 33.6058 38.5412 33.7921C38.3982 33.9884 38.2517 34.1847 38.0921 34.3577C37.8692 34.6205 37.6563 34.8701 37.4333 35.1096C37.3003 35.266 37.1572 35.4257 37.0108 35.5687C36.8677 35.7284 36.7213 35.8715 36.5883 36.0045C36.3653 36.2275 36.179 36.4005 36.0227 36.5435L35.6567 36.8796C35.6035 36.9262 35.5336 36.9528 35.4604 36.9528H32.6258V40.5892H36.1923C36.9908 40.5892 37.7494 40.3064 38.3616 39.7874C38.5712 39.6044 39.4861 38.8126 40.5674 37.6182C40.604 37.5783 40.6506 37.5483 40.7038 37.535L50.5551 34.6871C50.7381 34.6338 50.9244 34.7736 50.9244 34.9666Z" fill="white"/>
<defs>
<filter id="filter0_b_258_1309" x="-10" y="-10" width="81" height="81" filterUnits="userSpaceOnUse" color-interpolation-filters="sRGB">
<feFlood flood-opacity="0" result="BackgroundImageFix"/>
<feGaussianBlur in="BackgroundImageFix" stdDeviation="5"/>
<feComposite in2="SourceAlpha" operator="in" result="effect1_backgroundBlur_258_1309"/>
<feBlend mode="normal" in="SourceGraphic" in2="effect1_backgroundBlur_258_1309" result="shape"/>
</filter>
</defs>
</svg>
