<svg width="134" height="134" viewBox="0 0 134 134" fill="none" xmlns="http://www.w3.org/2000/svg">
<g filter="url(#filter0_b_258_1402)">
<g opacity="0.9">
<circle cx="67" cy="67" r="67" fill="#DFF2F2" fill-opacity="0.5"/>
<circle cx="67" cy="67" r="66.5" stroke="white" stroke-opacity="0.3"/>
</g>
</g>
<path d="M100.815 57.7879C102.29 47.9112 94.7713 42.6018 84.4905 39.0598L87.8255 25.6806L79.6806 23.651L76.4338 36.6776C74.2956 36.1441 72.0971 35.6408 69.9124 35.1421L73.1824 22.0296L65.0445 20L61.7073 33.3746C59.9355 32.971 58.1961 32.572 56.5078 32.1522L56.5171 32.1104L45.2878 29.3061L43.1217 38.0044C43.1217 38.0044 49.1631 39.3892 49.0355 39.475C52.3333 40.2984 52.9317 42.4811 52.8296 44.2115L49.0309 59.4533C49.2582 59.5113 49.5527 59.5948 49.8774 59.7247L49.0193 59.5113L43.6922 80.8628C43.2887 81.8649 42.2659 83.3679 39.9607 82.7973C40.0419 82.9156 34.0423 81.3198 34.0423 81.3198L30 90.6444L40.5985 93.2864C42.5697 93.7804 44.5016 94.2977 46.401 94.7848L43.0313 108.319L51.1645 110.349L54.504 96.9605C56.7235 97.5636 58.8803 98.1203 60.9907 98.6445L57.665 111.97L65.8075 114L69.1772 100.493C83.062 103.121 93.5051 102.061 97.8952 89.5032C101.437 79.3899 97.7212 73.5562 90.416 69.7498C95.7361 68.5181 99.7459 65.0179 100.815 57.7879ZM82.2085 83.8806C79.6899 93.9938 62.6674 88.529 57.1456 87.1558L61.6169 69.2279C67.1364 70.6058 84.8315 73.3335 82.2085 83.8806ZM84.7248 57.6418C82.4288 66.8411 68.2589 62.1672 63.66 61.0213L67.7139 44.7613C72.3127 45.9071 87.1181 48.0457 84.7248 57.6418Z" fill="white"/>
<defs>
<filter id="filter0_b_258_1402" x="-10" y="-10" width="154" height="154" filterUnits="userSpaceOnUse" color-interpolation-filters="sRGB">
<feFlood flood-opacity="0" result="BackgroundImageFix"/>
<feGaussianBlur in="BackgroundImageFix" stdDeviation="5"/>
<feComposite in2="SourceAlpha" operator="in" result="effect1_backgroundBlur_258_1402"/>
<feBlend mode="normal" in="SourceGraphic" in2="effect1_backgroundBlur_258_1402" result="shape"/>
</filter>
</defs>
</svg>
