<svg xmlns="http://www.w3.org/2000/svg" width="101" height="101" viewBox="0 0 101 101" fill="none">
  <g filter="url(#filter0_b_258_1319)">
    <g opacity="0.9">
      <circle cx="50.5" cy="50.5" r="50.5" fill="#DFF2F2" fill-opacity="0.5"/>
      <circle cx="50.5" cy="50.5" r="50" stroke="white" stroke-opacity="0.3"/>
    </g>
  </g>
  <mask id="mask0_258_1319" style="mask-type:alpha" maskUnits="userSpaceOnUse" x="43" y="31" width="7" height="6">
    <path fill-rule="evenodd" clip-rule="evenodd" d="M43.4656 33.9474C43.4656 35.5479 44.7777 36.8455 46.3963 36.8455C48.0148 36.8455 49.3269 35.5479 49.3269 33.9474C49.3269 32.347 48.0148 31.0492 46.3963 31.0492C44.7777 31.0492 43.4656 32.347 43.4656 33.9474Z" fill="white"/>
  </mask>
  <g mask="url(#mask0_258_1319)">
    <path fill-rule="evenodd" clip-rule="evenodd" d="M43.4656 33.9474C43.4656 35.5479 44.7777 36.8455 46.3963 36.8455C48.0148 36.8455 49.3269 35.5479 49.3269 33.9474C49.3269 32.347 48.0148 31.0492 46.3963 31.0492C44.7777 31.0492 43.4656 32.347 43.4656 33.9474Z" fill="#73E2F2"/>
  </g>
  <path fill-rule="evenodd" clip-rule="evenodd" d="M53.0751 24.1007C53.5682 24.1465 54.0569 24.2048 54.5416 24.2746C54.5434 24.2599 54.5462 24.2455 54.5477 24.2305C54.6248 23.4225 54.025 22.7061 53.2078 22.63C52.3908 22.554 51.6663 23.1473 51.5892 23.9552C51.5879 23.9704 51.5884 23.9854 51.5874 24.0008C52.0813 24.0214 52.5772 24.0545 53.0751 24.1007Z" fill="#73E2F2"/>
  <path fill-rule="evenodd" clip-rule="evenodd" d="M57.8942 24.9654C57.8988 24.9355 57.9042 24.9061 57.9072 24.8758C57.9841 24.068 57.384 23.3514 56.5673 23.2754C55.8387 23.2076 55.185 23.6722 54.9974 24.3463C55.9823 24.5045 56.9489 24.7114 57.8942 24.9654Z" fill="#73E2F2"/>
  <path fill-rule="evenodd" clip-rule="evenodd" d="M61.1366 26.0494C61.1669 25.9531 61.1881 25.8524 61.1978 25.7481C61.2749 24.9404 60.6751 24.2237 59.8582 24.1475C59.178 24.0843 58.5632 24.4855 58.3317 25.0873C59.2898 25.3611 60.2257 25.6827 61.1366 26.0494Z" fill="#73E2F2"/>
  <path fill-rule="evenodd" clip-rule="evenodd" d="M64.2288 27.517C64.3008 27.3666 64.3495 27.2023 64.3664 27.0272C64.4429 26.2192 63.8432 25.5025 63.0265 25.4266C62.4009 25.3686 61.8307 25.7029 61.5627 26.225C62.4787 26.6108 63.3679 27.0426 64.2288 27.517Z" fill="#73E2F2"/>
  <path fill-rule="evenodd" clip-rule="evenodd" d="M67.1101 29.338C67.2129 29.1612 67.2811 28.9608 67.3018 28.7446C67.3788 27.9365 66.7788 27.2202 65.9618 27.144C65.4223 27.0938 64.9246 27.3365 64.6255 27.7389C65.4843 28.2302 66.313 28.7646 67.1101 29.338Z" fill="#73E2F2"/>
  <path fill-rule="evenodd" clip-rule="evenodd" d="M69.7534 31.4925C69.9364 31.2733 70.0576 30.9994 70.0865 30.695C70.1636 29.8872 69.5635 29.1706 68.7465 29.0944C68.2455 29.0479 67.78 29.2536 67.4768 29.6056C68.2698 30.1959 69.0291 30.826 69.7534 31.4925Z" fill="#73E2F2"/>
  <path fill-rule="evenodd" clip-rule="evenodd" d="M72.1189 33.9474C72.3565 33.7138 72.5163 33.4 72.55 33.0441C72.6268 32.2364 72.0268 31.5197 71.2098 31.4436C70.7846 31.4041 70.3857 31.5469 70.0889 31.8056C70.8032 32.4845 71.4803 33.1997 72.1189 33.9474Z" fill="#73E2F2"/>
  <path fill-rule="evenodd" clip-rule="evenodd" d="M36.6551 61.5068C36.6551 58.9196 38.7759 56.8224 41.3924 56.8224C41.6812 56.8224 41.9615 56.8643 42.2255 56.9414C42.0153 57.4682 41.91 58.0478 41.9345 58.6537C41.9363 58.6945 41.9484 58.7328 41.9514 58.7734L48.9587 54.4507C47.7705 53.002 45.9595 52.0732 43.9271 52.0732C38.1449 52.0732 33.4567 56.7094 33.4567 62.4287C33.4567 62.9481 33.4839 63.4611 33.5307 63.9682L36.6816 62.0244C36.67 61.8527 36.6551 61.6817 36.6551 61.5068Z" fill="white"/>
  <path fill-rule="evenodd" clip-rule="evenodd" d="M36.6468 35.6334C36.6468 31.5488 39.9951 28.2377 44.1256 28.2377C48.2558 28.2377 51.6045 31.5488 51.6045 35.6334C51.6045 39.718 48.2558 43.0291 44.1256 43.0291C39.9951 43.0291 36.6468 39.718 36.6468 35.6334ZM54.5102 51.0253L74.3171 38.8064C69.6187 30.5437 60.6744 24.9582 50.4059 24.9582V21C35.2698 21 23 33.1335 23 48.1015H47.8972C50.5119 48.1015 52.8837 49.2306 54.5102 51.0253Z" fill="white"/>
  <path fill-rule="evenodd" clip-rule="evenodd" d="M45.8715 62.8197C48.3448 62.9866 50.4059 61.0507 50.4059 58.6396C50.4059 58.5985 50.4046 58.559 50.4046 58.5181C50.3771 57.0378 49.8375 55.6826 48.9585 54.6109L41.9513 58.9339C42.0977 60.9956 43.7749 62.6783 45.8715 62.8197Z" fill="white"/>
  <path fill-rule="evenodd" clip-rule="evenodd" d="M77.8257 52.2338C77.8257 47.4129 76.5478 42.8897 74.3172 38.967L54.5103 51.1859C55.8377 52.6498 56.6707 54.5553 56.7254 56.664C56.7277 56.7699 56.7292 56.8763 56.7292 56.9828C56.7292 63.7582 51.175 69.2506 44.3235 69.2506C40.2654 69.2506 36.952 66.1305 36.6818 62.185L33.5306 64.1285C34.3172 72.6627 41.5699 79.3501 50.406 79.3501C65.5495 79.3501 77.8257 67.2101 77.8257 52.2338Z" fill="white"/>
  <defs>
    <filter id="filter0_b_258_1319" x="-10" y="-10" width="121" height="121" filterUnits="userSpaceOnUse" color-interpolation-filters="sRGB">
      <feFlood flood-opacity="0" result="BackgroundImageFix"/>
      <feGaussianBlur in="BackgroundImageFix" stdDeviation="5"/>
      <feComposite in2="SourceAlpha" operator="in" result="effect1_backgroundBlur_258_1319"/>
      <feBlend mode="normal" in="SourceGraphic" in2="effect1_backgroundBlur_258_1319" result="shape"/>
    </filter>
  </defs>
</svg>
