<svg xmlns="http://www.w3.org/2000/svg" width="44" height="44" viewBox="0 0 44 44">
  <g id="组_399" data-name="组 399" transform="translate(-341.512 -955.39)">
    <g id="组_398" data-name="组 398">
      <g id="组_397" data-name="组 397">
        <g id="路径_4085" data-name="路径 4085" fill="none" stroke-miterlimit="10">
          <path d="M363.512,998.39a21,21,0,1,1,21-21A21.024,21.024,0,0,1,363.512,998.39Z" stroke="none"/>
          <path d="M 363.5119934082031 998.3900146484375 C 375.0920104980469 998.3900146484375 384.5119934082031 988.968994140625 384.5119934082031 977.3900146484375 C 384.5119934082031 965.8109741210938 375.0920104980469 956.3900146484375 363.5119934082031 956.3900146484375 C 351.9330139160156 956.3900146484375 342.5119934082031 965.8109741210938 342.5119934082031 977.3900146484375 C 342.5119934082031 988.968994140625 351.9330139160156 998.3900146484375 363.5119934082031 998.3900146484375 M 363.5119934082031 999.3900146484375 C 351.3811645507813 999.3900146484375 341.5119934082031 989.5208740234375 341.5119934082031 977.3900146484375 C 341.5119934082031 965.2591552734375 351.3811645507813 955.3900146484375 363.5119934082031 955.3900146484375 C 375.642822265625 955.3900146484375 385.5119934082031 965.2591552734375 385.5119934082031 977.3900146484375 C 385.5119934082031 989.5208740234375 375.642822265625 999.3900146484375 363.5119934082031 999.3900146484375 Z" stroke="none" fill="#333"/>
        </g>
      </g>
    </g>
    <rect id="矩形_262" data-name="矩形 262" width="11.122" height="11.122" transform="translate(355 968.878)" fill="#1e48f2"/>
    <path id="路径_4086" data-name="路径 4086" d="M353.26,977.621h-1.5V965.64h11.98v1.5" fill="none" stroke="#333" stroke-miterlimit="10" stroke-width="1"/>
    <g id="矩形_263" data-name="矩形 263" transform="translate(358.122 972)" fill="none" stroke="#333" stroke-miterlimit="10" stroke-width="1">
      <rect width="17.14" height="17.14" stroke="none"/>
      <rect x="-0.5" y="-0.5" width="18.14" height="18.14" fill="none"/>
    </g>
    <path id="路径_4087" data-name="路径 4087" d="M358.122,977.621h5.621V972" fill="none" stroke="#fff" stroke-miterlimit="10" stroke-width="1"/>
  </g>
</svg>
