<svg xmlns="http://www.w3.org/2000/svg" width="44" height="44" viewBox="0 0 44 44">
  <g id="组_403" data-name="组 403" transform="translate(-341.512 -1005.39)">
    <g id="组_401" data-name="组 401">
      <g id="组_400" data-name="组 400">
        <g id="路径_4088" data-name="路径 4088" fill="none" stroke-miterlimit="10">
          <path d="M363.512,1048.39a21,21,0,1,1,21-21A21.024,21.024,0,0,1,363.512,1048.39Z" stroke="none"/>
          <path d="M 363.5119934082031 1048.390014648438 C 375.0920104980469 1048.390014648438 384.5119934082031 1038.968994140625 384.5119934082031 1027.390014648438 C 384.5119934082031 1015.810974121094 375.0920104980469 1006.390014648438 363.5119934082031 1006.390014648438 C 351.9330139160156 1006.390014648438 342.5119934082031 1015.810974121094 342.5119934082031 1027.390014648438 C 342.5119934082031 1038.968994140625 351.9330139160156 1048.390014648438 363.5119934082031 1048.390014648438 M 363.5119934082031 1049.390014648438 C 351.3811645507813 1049.390014648438 341.5119934082031 1039.520874023438 341.5119934082031 1027.390014648438 C 341.5119934082031 1015.259155273438 351.3811645507813 1005.390014648438 363.5119934082031 1005.390014648438 C 375.642822265625 1005.390014648438 385.5119934082031 1015.259155273438 385.5119934082031 1027.390014648438 C 385.5119934082031 1039.520874023438 375.642822265625 1049.390014648438 363.5119934082031 1049.390014648438 Z" stroke="none" fill="#333"/>
        </g>
      </g>
    </g>
    <path id="路径_4089" data-name="路径 4089" d="M366.515,1024.485A19.779,19.779,0,0,0,363.5,1022a20.366,20.366,0,0,0-5.5,5.5,20.366,20.366,0,0,0,5.5,5.5,20.366,20.366,0,0,0,5.5-5.5A19.772,19.772,0,0,0,366.515,1024.485Z" fill="#1e48f2"/>
    <g id="组_402" data-name="组 402">
      <path id="路径_4090" data-name="路径 4090" d="M374,1031.5a12.325,12.325,0,0,1,.572,1.932,7.607,7.607,0,0,1,.164,1.726,4.515,4.515,0,0,1-.265,1.46,3.058,3.058,0,0,1-1.853,1.853,4.512,4.512,0,0,1-1.46.265,7.608,7.608,0,0,1-1.726-.164A12.333,12.333,0,0,1,367.5,1038a18.112,18.112,0,0,1-2.079-.956,23.9,23.9,0,0,1-2.165-1.318c-.73-.5-1.464-1.051-2.192-1.657s-1.452-1.265-2.16-1.973-1.367-1.431-1.973-2.16-1.16-1.462-1.657-2.192" fill="none" stroke="#333" stroke-miterlimit="10" stroke-width="1"/>
      <path id="路径_4091" data-name="路径 4091" d="M353,1023.5a12.325,12.325,0,0,1-.572-1.932,7.607,7.607,0,0,1-.164-1.726,4.514,4.514,0,0,1,.265-1.46,3.059,3.059,0,0,1,1.853-1.853,4.516,4.516,0,0,1,1.46-.265,7.612,7.612,0,0,1,1.726.164,12.333,12.333,0,0,1,1.932.572,18.112,18.112,0,0,1,2.079.956,23.918,23.918,0,0,1,2.165,1.318c.73.5,1.464,1.051,2.192,1.657s1.452,1.265,2.16,1.973,1.367,1.431,1.973,2.16,1.16,1.462,1.657,2.192" fill="none" stroke="#333" stroke-miterlimit="10" stroke-width="1"/>
      <ellipse id="椭圆_65" data-name="椭圆 65" cx="14.5" cy="6.5" rx="14.5" ry="6.5" transform="translate(348.651 1033.157) rotate(-45)" fill="none" stroke="#333" stroke-miterlimit="10" stroke-width="1"/>
    </g>
    <circle id="椭圆_66" data-name="椭圆 66" cx="1.5" cy="1.5" r="1.5" transform="translate(362 1026)" fill="#fff"/>
  </g>
</svg>
