<svg xmlns="http://www.w3.org/2000/svg" width="44" height="44" viewBox="0 0 44 44">
  <g id="组_408" data-name="组 408" transform="translate(-341.512 -1055.39)">
    <g id="组_405" data-name="组 405">
      <g id="组_404" data-name="组 404">
        <g id="路径_4092" data-name="路径 4092" fill="none" stroke-miterlimit="10">
          <path d="M363.512,1098.39a21,21,0,1,1,21-21A21.024,21.024,0,0,1,363.512,1098.39Z" stroke="none"/>
          <path d="M 363.5119934082031 1098.390014648438 C 375.0920104980469 1098.390014648438 384.5119934082031 1088.968994140625 384.5119934082031 1077.390014648438 C 384.5119934082031 1065.81103515625 375.0920104980469 1056.390014648438 363.5119934082031 1056.390014648438 C 351.9330139160156 1056.390014648438 342.5119934082031 1065.81103515625 342.5119934082031 1077.390014648438 C 342.5119934082031 1088.968994140625 351.9330139160156 1098.390014648438 363.5119934082031 1098.390014648438 M 363.5119934082031 1099.390014648438 C 351.3811645507813 1099.390014648438 341.5119934082031 1089.520874023438 341.5119934082031 1077.390014648438 C 341.5119934082031 1065.259155273438 351.3811645507813 1055.390014648438 363.5119934082031 1055.390014648438 C 375.642822265625 1055.390014648438 385.5119934082031 1065.259155273438 385.5119934082031 1077.390014648438 C 385.5119934082031 1089.520874023438 375.642822265625 1099.390014648438 363.5119934082031 1099.390014648438 Z" stroke="none" fill="#333"/>
        </g>
      </g>
    </g>
    <g id="组_407" data-name="组 407">
      <g id="组_406" data-name="组 406">
        <path id="路径_4093" data-name="路径 4093" d="M363.512,1085.78a8.39,8.39,0,1,1,8.39-8.39A8.4,8.4,0,0,1,363.512,1085.78Z" fill="#1e48f2"/>
      </g>
    </g>
    <path id="路径_4094" data-name="路径 4094" d="M355.512,1083.634a8,8,0,1,0,13.657-5.657l-2.829-2.829-2.829-2.829" fill="none" stroke="#333" stroke-linecap="round" stroke-miterlimit="10" stroke-width="1"/>
    <path id="路径_4095" data-name="路径 4095" d="M371.512,1071.146a8,8,0,1,0-13.657,5.657l2.83,2.829,2.829,2.83" fill="none" stroke="#333" stroke-linecap="round" stroke-miterlimit="10" stroke-width="1"/>
    <circle id="椭圆_67" data-name="椭圆 67" cx="2" cy="2" r="2" transform="translate(362 1071)" fill="#fff"/>
    <circle id="椭圆_68" data-name="椭圆 68" cx="2" cy="2" r="2" transform="translate(362 1081)" fill="#fff"/>
  </g>
</svg>
