<svg xmlns="http://www.w3.org/2000/svg" width="31.165" height="25.312" viewBox="0 0 31.165 25.312">
  <path id="Icon_awesome-twitter" data-name="Icon awesome-twitter" d="M27.962,9.689c.02.277.02.554.02.831,0,8.444-6.427,18.173-18.173,18.173A18.05,18.05,0,0,1,0,25.825a13.213,13.213,0,0,0,1.542.079,12.792,12.792,0,0,0,7.93-2.729A6.4,6.4,0,0,1,3.5,18.746a8.054,8.054,0,0,0,1.206.1,6.756,6.756,0,0,0,1.681-.217,6.388,6.388,0,0,1-5.122-6.269V12.28a6.433,6.433,0,0,0,2.887.811A6.4,6.4,0,0,1,2.175,4.547a18.156,18.156,0,0,0,13.17,6.684,7.211,7.211,0,0,1-.158-1.463A6.393,6.393,0,0,1,26.241,5.4,12.576,12.576,0,0,0,30.3,3.855a6.37,6.37,0,0,1-2.808,3.52,12.8,12.8,0,0,0,3.678-.989,13.73,13.73,0,0,1-3.2,3.3Z" transform="translate(0 -3.381)" fill="#cdcdcd"/>
</svg>
