<svg viewBox="0 0 140 76" fill="none" xmlns="http://www.w3.org/2000/svg">
<path fill-rule="evenodd" clip-rule="evenodd" d="M113.409 18.4703C113.089 18.4503 112.348 18.3233 111.618 18.3696C105.606 18.752 100.14 21.0608 94.6372 23.2377C93.6477 23.6289 93.9197 24.0982 94.4196 24.7243C97.754 28.8972 100.666 33.3562 103.212 38.0473C103.812 39.1525 104.275 39.2603 105.12 38.3512C107.186 36.1302 109.392 34.0322 111.353 31.7243C113.599 29.0817 115.883 26.4017 116.683 22.8745C117.329 20.0323 116.701 19.1259 113.409 18.4703ZM-31.7168 120.222C-30.5528 120.525 -29.3701 120.533 -28.1901 120.393C-22.6906 119.745 -17.6198 117.675 -12.5263 115.666C-11.1624 115.128 -11.8577 114.533 -12.3536 113.884C-15.5478 109.703 -18.4887 105.35 -20.9124 100.676C-21.5903 99.3682 -22.1013 99.7475 -22.821 100.507C-24.9073 102.708 -27.1076 104.811 -29.0679 107.118C-31.3117 109.76 -33.5992 112.438 -34.3871 115.97C-35.0076 118.75 -34.4249 119.637 -31.7168 120.222ZM61.5295 20.2881C22.8404 5.55063 -11.8305 34.8361 -11.7847 68.4255C11.1582 50.1693 35.4948 34.263 61.5295 20.2881ZM93.4132 79.3296C93.6531 77.0444 94.2909 73.5845 94.3315 70.1175C94.5046 55.1457 88.7029 42.6003 78.4807 31.9056C77.4983 30.8776 76.6966 31.2595 75.7276 31.7483C69.4376 34.9203 63.2401 38.267 57.1709 41.8387C42.6559 50.3819 28.5589 59.5788 14.8185 69.3189C7.31726 74.6362 0.0359612 80.2467 -7.06373 86.0947C-8.22683 87.0528 -8.4721 87.8469 -7.8605 89.293C-5.9714 93.7622 -3.61137 97.9146 -0.659763 101.775C9.28603 114.783 22.5413 121.491 38.7295 122.42C50.5092 123.095 61.3595 119.967 71.1005 113.311C82.7863 105.326 89.8094 94.1183 93.4132 79.3296ZM24.0623 136.999C18.4084 135.79 11.1515 132.859 4.48584 128.551C2.66574 127.374 1.11716 127.284 -0.8801 128.142C-11.7437 132.81 -22.8656 136.696 -34.6283 138.401C-39.4156 139.096 -44.2154 139.333 -48.9946 138.185C-55.7431 136.564 -59.0081 131.592 -57.7257 124.735C-56.3636 117.45 -52.4853 111.377 -48.225 105.548C-42.604 97.858 -36.1618 90.8759 -29.18 84.4071C-27.7779 83.1076 -27.299 81.7868 -27.5874 79.8946C-30.5506 60.4567 -25.8812 42.7879 -14.2226 27.2033C-4.13305 13.7155 9.47432 5.23067 26.0177 1.60502C35.6604 -0.508155 45.3427 -0.502807 54.944 1.43301C62.6686 2.99049 70.111 5.61926 76.7122 10.0987C78.9596 11.6241 80.8532 11.8238 83.4362 10.6977C94.1392 6.03013 105.17 2.31357 116.782 0.645581C121.791 -0.0736654 126.846 -0.303165 131.776 1.17053C138.458 3.16785 141.22 8.39687 139.502 15.1852C137.868 21.6414 134.667 27.3023 130.815 32.6057C125.042 40.5535 118.496 47.8418 111.261 54.4835C109.732 55.8863 109.232 57.2495 109.522 59.3373C112.629 81.695 106.458 101.371 91.1555 117.743C80.0266 129.65 65.9652 136.601 49.6136 138.526C41.7363 139.453 33.9315 139.06 24.0623 136.999Z" fill="currentColor" />
</svg>
