<svg xmlns="http://www.w3.org/2000/svg" width="96.811" height="87.749" viewBox="0 0 96.811 87.749">
  <g id="Group_72" data-name="Group 72" transform="translate(-1 -1)">
    <g id="Group_95" data-name="Group 95" transform="translate(1 1)">
      <path id="Path_237" data-name="Path 237" d="M9.1,31.341v15.4a4.218,4.218,0,0,0,4.213,4.213h5.073a4.214,4.214,0,0,0,2.979-7.193L19.9,42.291V40.149a5.405,5.405,0,0,0,5.4-5.4V32.731c.041.016.084.028.124.045L39.879,38.8H46.9V26.443l8.1-1.35V14.708l-8.1-1.35V1h-7.02L25.424,7.024a9.4,9.4,0,0,1-3.634.726H13.15A12.142,12.142,0,0,0,9.1,31.341Zm9.287,16.909H13.313A1.515,1.515,0,0,1,11.8,46.736V31.97a12.061,12.061,0,0,0,1.35.08H17.2V43.408l2.257,2.257a1.514,1.514,0,0,1-1.071,2.584ZM22.6,34.75a2.7,2.7,0,0,1-2.7,2.7v-5.4h1.89c.271,0,.541.016.81.039ZM52.3,16.993v5.814l-5.4.9V16.093ZM44.2,36.1H41.5V3.7h2.7ZM26.463,9.516,38.8,4.375v31.05L26.463,30.284a12.075,12.075,0,0,0-4.674-.934H17.2V10.45h4.59A12.075,12.075,0,0,0,26.463,9.516ZM13.15,10.45H14.5v18.9H13.15a9.45,9.45,0,1,1,0-18.9Z" transform="translate(-1 -1)" fill="#8a8a8a"/>
      <path id="Path_238" data-name="Path 238" d="M22.316,12.513l8.027-3.345L29.3,6.676l-8.027,3.345a14.941,14.941,0,0,1-2.493.79l.586,2.637A17.626,17.626,0,0,0,22.316,12.513Z" transform="translate(5.224 0.987)" fill="#8a8a8a"/>
      <path id="Path_239" data-name="Path 239" d="M16.865,12.7c.293,0,.586-.007.876-.022l-.132-2.7c-.247.012-.5.019-.744.019h-1.8v2.7Z" transform="translate(3.924 2.145)" fill="#8a8a8a"/>
    </g>
    <g id="Group_93" data-name="Group 93" transform="translate(73.81 9.398)">
      <path id="Path_240" data-name="Path 240" d="M47.05,20.1A4.05,4.05,0,1,0,43,16.05,4.055,4.055,0,0,0,47.05,20.1Zm0-5.4a1.35,1.35,0,1,1-1.35,1.35A1.351,1.351,0,0,1,47.05,14.7Z" transform="translate(-43 -5.548)" fill="#8a8a8a"/>
      <path id="Path_241" data-name="Path 241" d="M51.445,23.413a9.448,9.448,0,0,0,0-13.362L49.536,11.96a6.75,6.75,0,0,1,0,9.544Z" transform="translate(-40.712 -6.231)" fill="#8a8a8a"/>
      <path id="Path_242" data-name="Path 242" d="M52.364,26.314l1.909,1.909a14.867,14.867,0,0,0,0-21L52.364,9.13A12.166,12.166,0,0,1,52.364,26.314Z" transform="translate(-39.723 -7.221)" fill="#8a8a8a"/>
    </g>
    <path id="Path_243" data-name="Path 243" d="M72.635,58.451l-1.508-.3a24.2,24.2,0,0,0,1.521-8.394v-5.3A9.461,9.461,0,0,0,63.2,35H60.5a9.461,9.461,0,0,0-9.45,9.45v5.3a24.221,24.221,0,0,0,1.52,8.393l-1.508.3a6.787,6.787,0,0,0-2.041.784,6.66,6.66,0,0,0-2.036-.784l-4.778-.958a2.7,2.7,0,0,1-1.581-1.239,6.761,6.761,0,0,0,1.75-2.353h.574A4.055,4.055,0,0,0,47,49.85a3.992,3.992,0,0,0-.151-1.037,7.947,7.947,0,0,0,1.5-4.363,5.408,5.408,0,0,0-4.724-5.358A8.261,8.261,0,0,0,36.2,35a8.261,8.261,0,0,0-7.426,4.092A5.408,5.408,0,0,0,24.05,44.45a7.943,7.943,0,0,0,1.5,4.363A3.983,3.983,0,0,0,25.4,49.85a4.055,4.055,0,0,0,4.05,4.05h.572a6.757,6.757,0,0,0,1.751,2.354A2.593,2.593,0,0,1,30.3,57.465l-4.882.984A6.771,6.771,0,0,0,20,65.065V72.8H78.05V65.067A6.775,6.775,0,0,0,72.635,58.451Zm-18.886-8.7v-5.3A6.758,6.758,0,0,1,60.5,37.7h2.7a6.758,6.758,0,0,1,6.75,6.75v5.3a21.543,21.543,0,0,1-1.5,7.857l-.587-.117a2.7,2.7,0,0,1-1.581-1.239A6.71,6.71,0,0,0,68.6,51.2V45.8h-1.35a10.132,10.132,0,0,1-4.512-1.065l-.888-.444-.888.444A10.132,10.132,0,0,1,56.449,45.8H55.1v5.4a6.707,6.707,0,0,0,2.323,5.054,2.593,2.593,0,0,1-1.477,1.211l-.694.14A21.513,21.513,0,0,1,53.749,49.754Zm8.1,10.9a2.7,2.7,0,0,1-2.65-2.259,5.4,5.4,0,0,0,.571-.8,6.169,6.169,0,0,0,4.159,0,5.413,5.413,0,0,0,.575.8A2.7,2.7,0,0,1,61.849,60.65ZM65.9,51.2a4.05,4.05,0,1,1-8.1,0V48.427a12.9,12.9,0,0,0,4.05-1.123,12.9,12.9,0,0,0,4.05,1.123Zm-33.75,0V48.5a1.35,1.35,0,0,1,1.093-1.324A14.232,14.232,0,0,0,39.218,48.5h1.031v2.7a4.05,4.05,0,0,1-8.1,0Zm10.8,0V48.5a1.35,1.35,0,1,1,0,2.7ZM28.1,49.85a1.351,1.351,0,0,1,1.35-1.35v2.7A1.351,1.351,0,0,1,28.1,49.85Zm2.4-4.05H29.45a4.014,4.014,0,0,0-2.175.645,4.935,4.935,0,0,1-.525-2,2.693,2.693,0,0,1,2.643-2.7l1.251.093.321-1.01c.576-1.814,2.778-3.132,5.234-3.132s4.657,1.318,5.234,3.132l.321,1.01,1.058-.072a.479.479,0,0,0,.136-.02,2.7,2.7,0,0,1,2.7,2.7,4.935,4.935,0,0,1-.525,2,4.014,4.014,0,0,0-2.175-.645H39.218A11.5,11.5,0,0,1,34.1,44.592l-.285-.142H33.5A4.029,4.029,0,0,0,30.5,45.8Zm5.7,12.15a6.652,6.652,0,0,0,2.08-.362,5.378,5.378,0,0,0,.435.634L36.2,61.241l-2.512-3.015a5.242,5.242,0,0,0,.433-.637A6.675,6.675,0,0,0,36.2,57.95ZM49.7,70.1H47V64.7H44.3v5.4H28.1V64.7H25.4v5.4H22.7V65.067A4.061,4.061,0,0,1,25.948,61.1l4.987-1.011a5.388,5.388,0,0,0,.606-.219L36.2,65.46l4.664-5.6a5.75,5.75,0,0,0,.706.251l4.882.984A4.062,4.062,0,0,1,49.7,65.067Zm25.65,0h-2.7V64.7h-2.7v5.4H52.4V65.067a6.7,6.7,0,0,0-1.227-3.829,3.919,3.919,0,0,1,.425-.14l4.987-1.011c.093-.027.181-.066.271-.1a5.407,5.407,0,0,0,3.644,3.17V67.4h2.7V63.158a5.4,5.4,0,0,0,3.646-3.178c.124.045.244.1.374.132L72.1,61.1a4.065,4.065,0,0,1,3.248,3.97Z" transform="translate(19.76 15.949)" fill="#8a8a8a"/>
    <g id="Group_94" data-name="Group 94" transform="translate(3.7 69.432)">
      <rect id="Rectangle_148" data-name="Rectangle 148" width="3" height="3" transform="translate(16.3 5.351)" fill="#8a8a8a"/>
      <rect id="Rectangle_149" data-name="Rectangle 149" width="2" height="3" transform="translate(11.3 5.351)" fill="#8a8a8a"/>
      <rect id="Rectangle_150" data-name="Rectangle 150" width="3" height="3" transform="translate(5.3 5.351)" fill="#8a8a8a"/>
      <path id="Path_244" data-name="Path 244" d="M27.3,49.45v-5.4A4.055,4.055,0,0,0,23.25,40H7.05A4.055,4.055,0,0,0,3,44.05v5.4A4.055,4.055,0,0,0,7.05,53.5h4.841l4.445,4.447A3.26,3.26,0,0,0,21.9,55.641V53.5h1.35A4.055,4.055,0,0,0,27.3,49.45Zm-2.7,0a1.351,1.351,0,0,1-1.35,1.35H19.2v4.841a.58.58,0,0,1-.954.4L13.009,50.8H7.05A1.351,1.351,0,0,1,5.7,49.45v-5.4A1.351,1.351,0,0,1,7.05,42.7h16.2a1.351,1.351,0,0,1,1.35,1.35Z" transform="translate(-3 -40)" fill="#8a8a8a"/>
    </g>
  </g>
</svg>
