<svg xmlns="http://www.w3.org/2000/svg" width="99.14" height="83.699" viewBox="0 0 99.14 83.699">
  <g id="Group_92" data-name="Group 92" transform="translate(-99.76 -78.319)">
    <g id="Group_79" data-name="Group 79" transform="translate(119.477 127.508)">
      <g id="Group_78" data-name="Group 78">
        <path id="Path_251" data-name="Path 251" d="M173.775,116.347a6.189,6.189,0,0,1-3.558,7.475l-53.313,21.1a5.933,5.933,0,0,1,.22-4.211,6.148,6.148,0,0,1,3.349-3.268l53.3-21.1m.3-2.969a2.275,2.275,0,0,0-.9.189l-53.734,21.266a8.906,8.906,0,0,0-4.989,11.553,2.381,2.381,0,0,0,2.162,1.5,2.263,2.263,0,0,0,.9-.189l53.735-21.266a8.98,8.98,0,0,0,4.988-11.553,2.38,2.38,0,0,0-2.161-1.5Z" transform="translate(-113.813 -113.378)" fill="#8a8a8a"/>
      </g>
    </g>
    <g id="Group_81" data-name="Group 81" transform="translate(129.172 78.319)">
      <g id="Group_80" data-name="Group 80">
        <path id="Path_252" data-name="Path 252" d="M148.687,130.128l-.041-.145a1.345,1.345,0,0,1,.887-1.618,19.908,19.908,0,0,0,5.616-3.014,17.55,17.55,0,0,0,6.831-12.874c.678-9.1-4.487-18.437-8.055-22.426a10.95,10.95,0,0,1-3,7.442l-1.761,1.7-.577-2.38c-1.28-5.294-5.531-12.4-11.859-15.61.116,7.282-3.624,12.65-7.582,18.331-.717,1.03-1.442,2.069-2.148,3.13-3.087,4.693-6.669,15.457,1.894,22.545a16.641,16.641,0,0,0,5.724,3.126,1.308,1.308,0,0,1,.874,1.536l-.034.15a1.34,1.34,0,0,1-1.717.979,19.457,19.457,0,0,1-6.636-3.631c-8.769-7.258-7.415-18.7-2.446-26.255.723-1.085,1.456-2.14,2.186-3.185,3.732-5.357,7.258-10.416,7.078-16.807a2.6,2.6,0,0,1,1.143-2.326,2.7,2.7,0,0,1,2.709-.209c6.187,3.046,10.558,9.145,12.646,14.69a10.662,10.662,0,0,0,.711-3.593,2.583,2.583,0,0,1,1.622-2.4,2.684,2.684,0,0,1,2.948.558c3.936,4.223,9.834,14.653,9.076,24.846a20.271,20.271,0,0,1-7.9,14.874,22.752,22.752,0,0,1-6.457,3.467A1.338,1.338,0,0,1,148.687,130.128Zm5.252-40.409v0Zm-17.214-8.77v0Z" transform="translate(-120.723 -78.319)" fill="#8a8a8a"/>
      </g>
    </g>
    <g id="Group_83" data-name="Group 83" transform="translate(145.007 103.363)">
      <g id="Group_82" data-name="Group 82">
        <path id="Path_253" data-name="Path 253" d="M132.106,113.8c.147-.535.295-1.071.455-1.606.188-.616.362-.7.925-.4a8.825,8.825,0,0,0,3.078.925,3.872,3.872,0,0,0,2.022-.268,1.571,1.571,0,0,0,.375-2.758,4.709,4.709,0,0,0-1.15-.669,28.8,28.8,0,0,1-3.147-1.406,4.454,4.454,0,0,1-2.516-4.257,4.674,4.674,0,0,1,3.426-4.338c.845-.307.845-.293.845-1.165v-.9c.013-.655.133-.776.788-.79h.616c1.406,0,1.406,0,1.406,1.406,0,.991,0,.991.991,1.152a8.961,8.961,0,0,1,2.183.655.635.635,0,0,1,.414.845c-.174.6-.334,1.218-.535,1.82-.188.563-.362.657-.911.389a6.874,6.874,0,0,0-3.454-.683,2.444,2.444,0,0,0-.923.188,1.3,1.3,0,0,0-.321,2.316,6.371,6.371,0,0,0,1.5.843,27.364,27.364,0,0,1,2.732,1.232,4.9,4.9,0,0,1,1.566,7.456,5.179,5.179,0,0,1-2.718,1.741.759.759,0,0,0-.655.87c.027.483,0,.964,0,1.447a.594.594,0,0,1-.643.669c-.522.013-1.045.013-1.553,0a.625.625,0,0,1-.669-.71c0-.348,0-.71-.014-1.058-.013-.776-.027-.8-.776-.923a9.949,9.949,0,0,1-2.771-.79C131.985,114.7,131.9,114.524,132.106,113.8Z" transform="translate(-132.009 -96.169)" fill="#8a8a8a"/>
      </g>
    </g>
    <g id="Group_84" data-name="Group 84" transform="translate(150.991 144.77)">
      <path id="Path_254" data-name="Path 254" d="M162.16,129.875l-10.6-4.194-3.813,1.508,9.922,3.927,3.436,1.36a6.106,6.106,0,0,1,3.59,7.489l-9.57-3.788h0l-15.043-5.953-3.812,1.508,27.811,11.007a2.275,2.275,0,0,0,.9.189,2.381,2.381,0,0,0,2.162-1.5A8.907,8.907,0,0,0,162.16,129.875Z" transform="translate(-136.274 -125.681)" fill="#8a8a8a"/>
    </g>
    <g id="Group_85" data-name="Group 85" transform="translate(119.477 127.515)">
      <path id="Path_255" data-name="Path 255" d="M119.441,126.437l10.6,4.194,3.812-1.508-9.921-3.927-3.437-1.361a6.1,6.1,0,0,1-3.59-7.488l9.572,3.788h0l15.042,5.953,3.813-1.508-27.813-11.007a2.268,2.268,0,0,0-.9-.189,2.381,2.381,0,0,0-2.162,1.5A8.906,8.906,0,0,0,119.441,126.437Z" transform="translate(-113.813 -113.383)" fill="#8a8a8a"/>
    </g>
    <g id="Group_86" data-name="Group 86" transform="translate(179.529 84.887)">
      <path id="Path_256" data-name="Path 256" d="M162.963,95.695a6.347,6.347,0,1,1,6.346-6.347A6.355,6.355,0,0,1,162.963,95.695Zm0-9.889a3.541,3.541,0,1,0,3.54,3.541A3.547,3.547,0,0,0,162.963,85.806Z" transform="translate(-156.614 -83)" fill="#8a8a8a"/>
    </g>
    <g id="Group_87" data-name="Group 87" transform="translate(99.76 137.073)">
      <path id="Path_257" data-name="Path 257" d="M105.462,131.6a5.7,5.7,0,1,1,5.7-5.7A5.708,5.708,0,0,1,105.462,131.6Zm0-8.6a2.9,2.9,0,1,0,2.9,2.9A2.9,2.9,0,0,0,105.462,123Z" transform="translate(-99.76 -120.195)" fill="#8a8a8a"/>
    </g>
    <g id="Group_88" data-name="Group 88" transform="translate(115.768 96.556)">
      <path id="Path_258" data-name="Path 258" d="M111.187,106.937c-.226-4.271,1.779-11.278,4.467-15.62l2.387,1.477c-2.392,3.864-4.247,10.272-4.051,14Z" transform="translate(-111.17 -91.317)" fill="#8a8a8a"/>
    </g>
    <g id="Group_89" data-name="Group 89" transform="translate(110.245 93.852)">
      <path id="Path_259" data-name="Path 259" d="M107.25,105.009c-.224-4.269,1.78-11.278,4.469-15.619l2.387,1.476c-2.392,3.864-4.247,10.273-4.052,14Z" transform="translate(-107.233 -89.39)" fill="#8a8a8a"/>
    </g>
    <g id="Group_90" data-name="Group 90" transform="translate(188.455 120.555)">
      <path id="Path_260" data-name="Path 260" d="M166.8,124.62l-2.751-.554c.9-4.455.405-11.109-1.073-14.531l2.576-1.113C167.248,112.348,167.809,119.614,166.8,124.62Z" transform="translate(-162.976 -108.422)" fill="#8a8a8a"/>
    </g>
    <g id="Group_91" data-name="Group 91" transform="translate(194.573 121.167)">
      <path id="Path_261" data-name="Path 261" d="M171.162,125.056l-2.75-.553c.9-4.455.405-11.109-1.075-14.533l2.576-1.113C171.611,112.784,172.17,120.051,171.162,125.056Z" transform="translate(-167.337 -108.858)" fill="#8a8a8a"/>
    </g>
  </g>
</svg>
