<?xml version="1.0" encoding="UTF-8"?>
<svg width="99px" height="19px" viewBox="0 0 99 19" version="1.1" xmlns="http://www.w3.org/2000/svg" xmlns:xlink="http://www.w3.org/1999/xlink">
    <title>编组 6备份@3x</title>
    <g id="页面-1" stroke="none" stroke-width="1" fill="none" fill-rule="evenodd">
        <g id="Dark_HomePage备份-13" transform="translate(-139.000000, -2839.000000)">
            <g id="编组-5备份-5" transform="translate(80.000000, 2800.000000)">
                <g id="编组-6备份" transform="translate(60.000000, 40.000000)">
                    <rect id="矩形" stroke="#2AD4D8" x="0" y="0" width="97" height="17" rx="5"></rect>
                    <path d="M11.555,13 L11.555,11.636 L8.453,11.636 L8.453,9.282 L11.214,9.282 L11.214,7.951 L8.453,7.951 L8.453,5.905 L11.379,5.905 L11.379,4.541 L6.825,4.541 L6.825,13 L11.555,13 Z M13.788,13 L14.36,11.812 C14.514,11.493 14.668,11.174 14.811,10.844 L14.833,10.844 C14.987,11.174 15.13,11.493 15.295,11.812 L15.9,13 L17.726,13 L15.878,9.832 L17.704,6.873 L15.977,6.873 L15.427,7.973 C15.273,8.292 15.13,8.622 14.976,8.952 L14.954,8.952 C14.8,8.644 14.657,8.325 14.481,7.984 L13.898,6.873 L12.094,6.873 L13.909,9.898 L12.05,13 L13.788,13 Z M20.597,13.11 C21.07,13.11 21.466,13.055 21.686,12.967 L21.664,11.724 C21.499,11.757 21.367,11.779 21.136,11.779 C20.641,11.779 20.41,11.471 20.41,10.734 L20.41,8.072 L21.763,8.072 L21.763,6.873 L20.41,6.873 L20.41,5.278 L18.804,5.751 L18.804,6.873 L18.001,6.873 L18.001,8.072 L18.804,8.072 L18.804,10.899 C18.804,11.581 18.837,13.11 20.597,13.11 Z M25.415,13.11 C26.174,13.11 26.889,12.978 27.395,12.758 L27.164,11.636 C26.746,11.779 26.273,11.889 25.668,11.889 C24.788,11.889 24.04,11.471 23.996,10.426 L27.659,10.426 C27.692,10.25 27.703,10.019 27.703,9.777 C27.703,7.797 26.735,6.741 25.25,6.741 C23.457,6.741 22.445,8.259 22.445,10.019 C22.445,11.922 23.523,13.11 25.415,13.11 Z M26.196,9.293 L23.996,9.293 C24.04,8.688 24.37,7.874 25.151,7.874 C25.954,7.874 26.207,8.655 26.196,9.293 Z M30.464,13 L30.464,9.359 C30.464,8.424 31.069,8.083 31.509,8.083 C32.202,8.083 32.444,8.677 32.444,9.425 L32.444,13 L34.072,13 L34.072,9.249 C34.072,7.533 33.203,6.752 32.081,6.752 C31.19,6.752 30.585,7.258 30.31,7.709 L30.277,7.709 L30.2,6.884 L28.792,6.884 C28.814,7.423 28.836,8.006 28.836,8.721 L28.836,13 L30.464,13 Z M36.877,13.11 C38.406,13.11 39.286,12.34 39.286,11.174 C39.286,10.327 38.802,9.733 37.768,9.304 C37.064,9.007 36.833,8.831 36.833,8.49 C36.833,8.16 37.097,7.907 37.592,7.907 C38.054,7.907 38.483,8.083 38.747,8.226 L39.055,7.082 C38.703,6.895 38.164,6.741 37.537,6.741 C36.173,6.741 35.293,7.577 35.293,8.677 C35.293,9.348 35.711,9.997 36.855,10.459 C37.526,10.745 37.735,10.943 37.735,11.317 C37.735,11.691 37.46,11.933 36.888,11.933 C36.382,11.933 35.777,11.713 35.458,11.526 L35.15,12.703 C35.557,12.945 36.206,13.11 36.877,13.11 Z M41.2,6.07 C41.706,6.07 42.08,5.729 42.08,5.201 C42.08,4.695 41.728,4.332 41.2,4.332 C40.694,4.332 40.331,4.695 40.331,5.201 C40.331,5.696 40.683,6.07 41.2,6.07 Z M42.025,13 L42.025,6.873 L40.397,6.873 L40.397,13 L42.025,13 Z M45.974,13.121 C47.338,13.121 48.834,12.219 48.834,9.887 C48.834,8.028 47.756,6.741 46.04,6.741 C44.379,6.741 43.136,7.907 43.136,9.964 C43.136,11.955 44.324,13.121 45.974,13.121 Z M45.996,11.922 C45.204,11.922 44.786,11.02 44.786,9.931 C44.786,8.996 45.105,7.94 46.007,7.94 C46.843,7.94 47.184,8.963 47.184,9.92 C47.184,11.009 46.766,11.922 45.996,11.922 Z M51.639,13 L51.639,9.359 C51.639,8.424 52.244,8.083 52.684,8.083 C53.377,8.083 53.619,8.677 53.619,9.425 L53.619,13 L55.247,13 L55.247,9.249 C55.247,7.533 54.378,6.752 53.256,6.752 C52.365,6.752 51.76,7.258 51.485,7.709 L51.452,7.709 L51.375,6.884 L49.967,6.884 C49.989,7.423 50.011,8.006 50.011,8.721 L50.011,13 L51.639,13 Z M62.1,13 L62.925,9.414 C63.134,8.523 63.288,7.676 63.431,6.719 L63.453,6.719 C63.563,7.676 63.695,8.534 63.882,9.414 L64.608,13 L66.335,13 L68.337,4.541 L66.698,4.541 L66.005,8.16 C65.829,9.172 65.664,10.129 65.532,11.13 L65.499,11.13 C65.389,10.14 65.224,9.205 65.037,8.215 L64.322,4.541 L62.716,4.541 L61.946,8.171 C61.726,9.227 61.517,10.206 61.396,11.152 L61.363,11.152 C61.242,10.25 61.077,9.205 60.901,8.193 L60.252,4.541 L58.525,4.541 L60.384,13 L62.1,13 Z M70.669,13.121 C71.351,13.121 71.945,12.846 72.297,12.362 L72.33,12.362 L72.429,13 L73.892,13 C73.826,12.626 73.804,12.087 73.804,11.548 L73.804,9.304 C73.804,7.962 73.287,6.752 71.384,6.752 C70.427,6.752 69.668,7.027 69.261,7.269 L69.569,8.325 C69.965,8.083 70.515,7.907 71.076,7.907 C71.967,7.907 72.176,8.369 72.176,8.974 C70.229,8.974 68.832,9.711 68.832,11.284 C68.832,12.274 69.536,13.121 70.669,13.121 Z M71.197,11.955 C70.79,11.955 70.427,11.702 70.427,11.119 C70.427,10.228 71.34,10.019 72.22,10.019 L72.22,10.899 C72.22,11.68 71.582,11.955 71.197,11.955 Z M76.884,13 L76.884,4.156 L75.256,4.156 L75.256,13 L76.884,13 Z M79.975,13 L79.975,4.156 L78.347,4.156 L78.347,13 L79.975,13 Z M84.078,13.11 C84.837,13.11 85.552,12.978 86.058,12.758 L85.827,11.636 C85.409,11.779 84.936,11.889 84.331,11.889 C83.451,11.889 82.703,11.471 82.659,10.426 L86.322,10.426 C86.355,10.25 86.366,10.019 86.366,9.777 C86.366,7.797 85.398,6.741 83.913,6.741 C82.12,6.741 81.108,8.259 81.108,10.019 C81.108,11.922 82.186,13.11 84.078,13.11 Z M84.859,9.293 L82.659,9.293 C82.703,8.688 83.033,7.874 83.814,7.874 C84.617,7.874 84.87,8.655 84.859,9.293 Z M89.556,13.11 C90.029,13.11 90.425,13.055 90.645,12.967 L90.623,11.724 C90.458,11.757 90.326,11.779 90.095,11.779 C89.6,11.779 89.369,11.471 89.369,10.734 L89.369,8.072 L90.722,8.072 L90.722,6.873 L89.369,6.873 L89.369,5.278 L87.763,5.751 L87.763,6.873 L86.96,6.873 L86.96,8.072 L87.763,8.072 L87.763,10.899 C87.763,11.581 87.796,13.11 89.556,13.11 Z" id="ExtensionWallet" fill="#2AD4D8" fill-rule="nonzero"></path>
                </g>
            </g>
        </g>
    </g>
</svg>