<svg width="97" height="17" viewBox="0 0 97 17" fill="none" xmlns="http://www.w3.org/2000/svg">
<g clip-path="url(#clip0_2_439)">
<rect width="97" height="17" rx="5" stroke="#2AD4D8"/>
<path d="M8.453 11.636V9.282H11.214V7.951H8.453V5.905H11.379V4.541H6.825V13H11.555V11.636H8.453ZM15.4264 7.973C15.2724 8.292 15.1294 8.622 14.9754 8.952H14.9534C14.7994 8.644 14.6564 8.325 14.4804 7.984L13.8974 6.873H12.0934L13.9084 9.898L12.0494 13H13.7874L14.3594 11.812C14.5134 11.493 14.6674 11.174 14.8104 10.844H14.8324C14.9864 11.174 15.1294 11.493 15.2944 11.812L15.8994 13H17.7254L15.8774 9.832L17.7034 6.873H15.9764L15.4264 7.973ZM18.0037 6.873V8.072H18.8067V10.899C18.8067 11.581 18.8397 13.11 20.5997 13.11C21.0727 13.11 21.4687 13.055 21.6887 12.967L21.6667 11.724C21.5017 11.757 21.3697 11.779 21.1387 11.779C20.6437 11.779 20.4127 11.471 20.4127 10.734V8.072H21.7657V6.873H20.4127V5.278L18.8067 5.751V6.873H18.0037ZM27.6591 10.426C27.6921 10.25 27.7031 10.019 27.7031 9.777C27.7031 7.797 26.7351 6.741 25.2501 6.741C23.4571 6.741 22.4451 8.259 22.4451 10.019C22.4451 11.922 23.5231 13.11 25.4151 13.11C26.1741 13.11 26.8891 12.978 27.3951 12.758L27.1641 11.636C26.7461 11.779 26.2731 11.889 25.6681 11.889C24.7881 11.889 24.0401 11.471 23.9961 10.426H27.6591ZM23.9961 9.293C24.0401 8.688 24.3701 7.874 25.1511 7.874C25.9541 7.874 26.2071 8.655 26.1961 9.293H23.9961ZM30.2747 7.709L30.1977 6.884H28.7897C28.8117 7.423 28.8337 8.006 28.8337 8.721V13H30.4617V9.359C30.4617 8.424 31.0667 8.083 31.5067 8.083C32.1997 8.083 32.4417 8.677 32.4417 9.425V13H34.0697V9.249C34.0697 7.533 33.2007 6.752 32.0787 6.752C31.1877 6.752 30.5827 7.258 30.3077 7.709H30.2747ZM35.1521 12.703C35.5591 12.945 36.2081 13.11 36.8791 13.11C38.4081 13.11 39.2881 12.34 39.2881 11.174C39.2881 10.327 38.8041 9.733 37.7701 9.304C37.0661 9.007 36.8351 8.831 36.8351 8.49C36.8351 8.16 37.0991 7.907 37.5941 7.907C38.0561 7.907 38.4851 8.083 38.7491 8.226L39.0571 7.082C38.7051 6.895 38.1661 6.741 37.5391 6.741C36.1751 6.741 35.2951 7.577 35.2951 8.677C35.2951 9.348 35.7131 9.997 36.8571 10.459C37.5281 10.745 37.7371 10.943 37.7371 11.317C37.7371 11.691 37.4621 11.933 36.8901 11.933C36.3841 11.933 35.7791 11.713 35.4601 11.526L35.1521 12.703ZM42.086 5.201C42.086 4.695 41.734 4.332 41.206 4.332C40.7 4.332 40.337 4.695 40.337 5.201C40.337 5.696 40.689 6.07 41.206 6.07C41.712 6.07 42.086 5.729 42.086 5.201ZM40.403 6.873V13H42.031V6.873H40.403ZM46.0488 6.741C44.3878 6.741 43.1448 7.907 43.1448 9.964C43.1448 11.955 44.3328 13.121 45.9828 13.121C47.3468 13.121 48.8428 12.219 48.8428 9.887C48.8428 8.028 47.7648 6.741 46.0488 6.741ZM47.1928 9.92C47.1928 11.009 46.7748 11.922 46.0048 11.922C45.2128 11.922 44.7948 11.02 44.7948 9.931C44.7948 8.996 45.1138 7.94 46.0158 7.94C46.8518 7.94 47.1928 8.963 47.1928 9.92ZM51.4583 7.709L51.3813 6.884H49.9733C49.9953 7.423 50.0173 8.006 50.0173 8.721V13H51.6453V9.359C51.6453 8.424 52.2503 8.083 52.6903 8.083C53.3833 8.083 53.6253 8.677 53.6253 9.425V13H55.2533V9.249C55.2533 7.533 54.3843 6.752 53.2623 6.752C52.3713 6.752 51.7663 7.258 51.4913 7.709H51.4583ZM66.0137 8.16C65.8377 9.172 65.6727 10.129 65.5407 11.13H65.5077C65.3977 10.14 65.2327 9.205 65.0457 8.215L64.3307 4.541H62.7247L61.9547 8.171C61.7347 9.227 61.5257 10.206 61.4047 11.152H61.3717C61.2507 10.25 61.0857 9.205 60.9097 8.193L60.2607 4.541H58.5337L60.3927 13H62.1087L62.9337 9.414C63.1427 8.523 63.2967 7.676 63.4397 6.719H63.4617C63.5717 7.676 63.7037 8.534 63.8907 9.414L64.6167 13H66.3437L68.3457 4.541H66.7067L66.0137 8.16ZM69.576 8.325C69.972 8.083 70.522 7.907 71.083 7.907C71.974 7.907 72.183 8.369 72.183 8.974C70.236 8.974 68.839 9.711 68.839 11.284C68.839 12.274 69.543 13.121 70.676 13.121C71.358 13.121 71.952 12.846 72.304 12.362H72.337L72.436 13H73.899C73.833 12.626 73.811 12.087 73.811 11.548V9.304C73.811 7.962 73.294 6.752 71.391 6.752C70.434 6.752 69.675 7.027 69.268 7.269L69.576 8.325ZM72.227 10.899C72.227 11.68 71.589 11.955 71.204 11.955C70.797 11.955 70.434 11.702 70.434 11.119C70.434 10.228 71.347 10.019 72.227 10.019V10.899ZM75.2614 4.156V13H76.8894V4.156H75.2614ZM78.3552 4.156V13H79.9832V4.156H78.3552ZM86.3329 10.426C86.3659 10.25 86.3769 10.019 86.3769 9.777C86.3769 7.797 85.4089 6.741 83.9239 6.741C82.1309 6.741 81.1189 8.259 81.1189 10.019C81.1189 11.922 82.1969 13.11 84.0889 13.11C84.8479 13.11 85.5629 12.978 86.0689 12.758L85.8379 11.636C85.4199 11.779 84.9469 11.889 84.3419 11.889C83.4619 11.889 82.7139 11.471 82.6699 10.426H86.3329ZM82.6699 9.293C82.7139 8.688 83.0439 7.874 83.8249 7.874C84.6279 7.874 84.8809 8.655 84.8699 9.293H82.6699ZM86.9685 6.873V8.072H87.7715V10.899C87.7715 11.581 87.8045 13.11 89.5645 13.11C90.0375 13.11 90.4335 13.055 90.6535 12.967L90.6315 11.724C90.4665 11.757 90.3345 11.779 90.1035 11.779C89.6085 11.779 89.3775 11.471 89.3775 10.734V8.072H90.7305V6.873H89.3775V5.278L87.7715 5.751V6.873H86.9685Z" fill="#2AD4D8"/>
</g>
<defs>
<clipPath id="clip0_2_439">
<rect width="97" height="17" fill="white"/>
</clipPath>
</defs>
</svg>
