<svg width="28" height="29" viewBox="0 0 28 29" fill="none" xmlns="http://www.w3.org/2000/svg">
<path fill-rule="evenodd" clip-rule="evenodd" d="M14 28.48C21.732 28.48 28 22.212 28 14.48C28 6.74799 21.732 0.47998 14 0.47998C6.26801 0.47998 0 6.74799 0 14.48C0 22.212 6.26801 28.48 14 28.48ZM9.59226 20.6935C12.742 20.6935 15.2954 18.0818 15.2954 14.8602C15.2954 11.6386 12.7422 9.0268 9.59226 9.0268C6.44237 9.0268 3.88889 11.6392 3.88889 14.8602C3.88889 18.0813 6.44256 20.6935 9.59226 20.6935ZM21.552 14.8603C21.552 17.8928 20.2753 20.352 18.7003 20.352C17.1254 20.352 15.8486 17.8928 15.8486 14.8603C15.8486 11.8279 17.1252 9.3686 18.7001 9.3686C20.2751 9.3686 21.5518 11.8271 21.5518 14.8603H21.552ZM23.1082 19.78C23.6622 19.78 24.1111 17.5766 24.1111 14.8603C24.1111 12.1431 23.662 9.94054 23.1082 9.94054C22.5544 9.94054 22.1054 12.1433 22.1054 14.8603C22.1054 17.5772 22.5542 19.78 23.1082 19.78Z" fill="white"/>
</svg>
