<svg width="28" height="29" viewBox="0 0 28 29" fill="none" xmlns="http://www.w3.org/2000/svg">
<path fill-rule="evenodd" clip-rule="evenodd" d="M14 28.48C21.732 28.48 28 22.212 28 14.48C28 6.74799 21.732 0.47998 14 0.47998C6.26801 0.47998 0 6.74799 0 14.48C0 22.212 6.26801 28.48 14 28.48ZM17.4583 20.01L18.5349 21.3313C22.1913 21.1286 23.5266 18.8518 23.5266 18.8518C23.5266 13.5991 21.1776 9.34145 21.1776 9.34145C18.8286 7.57967 16.5937 7.62861 16.5937 7.62861L16.3654 7.88961C19.1385 8.73787 20.4272 9.96133 20.4272 9.96133C18.7307 9.0315 17.0668 8.57475 15.5171 8.39531C14.3426 8.2648 13.217 8.29743 12.2219 8.42793L11.9446 8.46056C11.3737 8.5095 9.98707 8.72156 8.24161 9.48826L7.27915 9.96133C7.27915 9.96133 8.63311 8.67262 11.5694 7.82436L11.4063 7.62861C11.4063 7.62861 9.17143 7.57967 6.8224 9.34145C6.8224 9.34145 4.47336 13.5991 4.47336 18.8518C4.47336 18.8518 5.84363 21.2171 9.44875 21.3313L10.5417 19.9774C8.46998 19.3575 7.68697 18.0525 7.68697 18.0525L8.14373 18.3298L8.20898 18.3787L8.27423 18.416L8.29054 18.423L8.35579 18.4603C8.76361 18.6886 9.17143 18.8681 9.54662 19.0149C10.2154 19.2759 11.0148 19.5369 11.9446 19.7164C13.1681 19.9447 14.6036 20.0263 16.1696 19.7327C16.9363 19.6022 17.7193 19.3738 18.5349 19.0312C19.1059 18.8191 19.7421 18.5092 20.4109 18.0688C20.4109 18.0688 19.5953 19.4064 17.4583 20.01ZM9.2857 15.5238C9.2857 14.5287 10.0198 13.713 10.9496 13.713C11.8794 13.713 12.6298 14.5287 12.6135 15.5238C12.6135 16.5188 11.8794 17.3345 10.9496 17.3345C10.0361 17.3345 9.2857 16.5188 9.2857 15.5238ZM15.2399 15.5238C15.2399 14.5287 15.9739 13.713 16.9038 13.713C17.8336 13.713 18.5677 14.5287 18.5677 15.5238C18.5677 16.5188 17.8336 17.3345 16.9038 17.3345C15.9902 17.3345 15.2399 16.5188 15.2399 15.5238Z" fill="white"/>
</svg>
