<svg width="28" height="29" viewBox="0 0 28 29" fill="none" xmlns="http://www.w3.org/2000/svg">
<path fill-rule="evenodd" clip-rule="evenodd" d="M14 0.47998C6.26967 0.47998 0 6.74731 0 14.48C0 22.2115 6.26967 28.48 14 28.48C21.7315 28.48 28 22.2115 28 14.48C28 6.74731 21.7315 0.47998 14 0.47998ZM17.7613 21.3295C17.9807 21.4846 18.263 21.5231 18.515 21.4286C18.7658 21.333 18.9513 21.1171 19.0073 20.8558C19.5988 18.0768 21.0338 11.0418 21.5717 8.51481C21.6125 8.32348 21.5448 8.12515 21.3955 7.99798C21.245 7.87081 21.0373 7.83465 20.853 7.90231C17.9993 8.95931 9.21083 12.2563 5.61867 13.5851C5.39117 13.6703 5.243 13.8885 5.25 14.13C5.25817 14.3703 5.42033 14.5791 5.65367 14.6491C7.26483 15.131 9.37883 15.8018 9.37883 15.8018C9.37883 15.8018 10.367 18.7861 10.8815 20.3028C10.9468 20.4941 11.0962 20.6435 11.2922 20.6948C11.4893 20.7461 11.6982 20.6925 11.8452 20.5536C12.6723 19.7731 13.951 18.5656 13.951 18.5656C13.951 18.5656 16.3823 20.3471 17.7613 21.3295ZM10.2678 15.4238L11.4112 19.1933L11.6655 16.8063C11.6655 16.8063 16.079 12.8245 18.5967 10.5553C18.6702 10.4888 18.6795 10.3768 18.6188 10.2986C18.5582 10.2205 18.4462 10.2018 18.3633 10.2555C15.4467 12.1175 10.2678 15.4238 10.2678 15.4238Z" fill="white"/>
</svg>
