<svg width="28" height="29" viewBox="0 0 28 29" fill="none" xmlns="http://www.w3.org/2000/svg">
<path d="M14 0.47998C6.2685 0.47998 0 6.74848 0 14.48C0 22.2115 6.2685 28.48 14 28.48C21.7315 28.48 28 22.2115 28 14.48C28 6.74848 21.7315 0.47998 14 0.47998ZM21.077 11.7325C21.2905 16.4458 17.7753 21.7005 11.5523 21.7005C9.66 21.7005 7.8995 21.1451 6.41667 20.1943C8.19467 20.4043 9.96917 19.9096 11.3773 18.8071C9.912 18.7803 8.67417 17.8108 8.246 16.4796C8.77217 16.58 9.29017 16.5508 9.76033 16.4225C8.14917 16.0981 7.03617 14.6468 7.07233 13.094C7.525 13.3448 8.04067 13.4953 8.59017 13.5128C7.098 12.5153 6.67567 10.5448 7.553 9.03865C9.205 11.0663 11.6748 12.3998 14.4597 12.5398C13.9708 10.4445 15.561 8.42498 17.7252 8.42498C18.6877 8.42498 19.5592 8.83215 20.1705 9.48315C20.9335 9.33381 21.6522 9.05381 22.2985 8.66998C22.0477 9.45281 21.5168 10.1085 20.825 10.5238C21.5028 10.4421 22.1492 10.2625 22.7488 9.99531C22.3008 10.6696 21.7338 11.26 21.077 11.7325Z" fill="white"/>
</svg>
