<svg width="28" height="28" viewBox="0 0 28 28" fill="none" xmlns="http://www.w3.org/2000/svg">
<path d="M14 0C6.26967 0 0 6.24844 0 13.9552C0 20.1211 4.011 25.352 9.57483 27.1975C10.2737 27.3266 10.5 26.894 10.5 26.5265V23.9285C6.60567 24.7728 5.79483 22.2818 5.79483 22.2818C5.15783 20.6688 4.23967 20.2397 4.23967 20.2397C2.96917 19.3733 4.3365 19.3919 4.3365 19.3919C5.74233 19.4896 6.482 20.8305 6.482 20.8305C7.73033 22.9633 9.75683 22.3469 10.556 21.9899C10.6808 21.0886 11.0437 20.4723 11.445 20.1246C8.33583 19.7699 5.06683 18.5732 5.06683 13.2272C5.06683 11.7026 5.614 10.4583 6.50883 9.4814C6.36417 9.12903 5.88467 7.70909 6.64533 5.78792C6.64533 5.78792 7.82133 5.41346 10.4965 7.21833C11.613 6.90899 12.81 6.75432 14 6.74851C15.19 6.75432 16.3882 6.90899 17.507 7.21833C20.1798 5.41346 21.3535 5.78792 21.3535 5.78792C22.1153 7.71025 21.6358 9.13019 21.4912 9.4814C22.3895 10.4583 22.932 11.7038 22.932 13.2272C22.932 18.5872 19.6572 19.7675 16.5398 20.1129C17.0415 20.5456 17.5 21.3945 17.5 22.697V26.5265C17.5 26.8975 17.724 27.3336 18.4345 27.1964C23.9937 25.3485 28 20.1188 28 13.9552C28 6.24844 21.7315 0 14 0Z" fill="white"/>
</svg>
