<svg xmlns="http://www.w3.org/2000/svg" width="660.798" height="331" viewBox="0 0 660.798 331">
  <g id="Group_70" data-name="Group 70" transform="translate(0)" opacity="0.2">
    <ellipse id="Ellipse_17" data-name="Ellipse 17" cx="35.727" cy="35.727" rx="35.727" ry="35.727" transform="translate(248.116 122.566)" fill="#00acb1"/>
    <path id="Path_156" data-name="Path 156" d="M474.136,647.085q8.963.844,17.767,2.133c.025-.181.061-.359.079-.544A18.005,18.005,0,0,0,456.13,645.3c-.017.188-.01.373-.024.558Q465.085,646.241,474.136,647.085Z" transform="translate(-109.698 -609.091)" fill="#00acb1"/>
    <path id="Path_157" data-name="Path 157" d="M502.834,652c.053-.362.124-.722.156-1.1a18,18,0,0,0-35.26-6.491A345.084,345.084,0,0,1,502.834,652Z" transform="translate(-79.999 -603.408)" fill="#00acb1"/>
    <path id="Path_158" data-name="Path 158" d="M513.087,657.6A18,18,0,0,0,479.1,645.81,341.667,341.667,0,0,1,513.087,657.6Z" transform="translate(-50.961 -595.725)" fill="#00acb1"/>
    <path id="Path_159" data-name="Path 159" d="M522.417,664.318a17.99,17.99,0,0,0-32.306-15.832A342.123,342.123,0,0,1,522.417,664.318Z" transform="translate(-22.819 -584.656)" fill="#00acb1"/>
    <path id="Path_160" data-name="Path 160" d="M530.66,671.509a17.989,17.989,0,0,0-30.11-19.594A343.2,343.2,0,0,1,530.66,671.509Z" transform="translate(3.852 -569.607)" fill="#00acb1"/>
    <path id="Path_161" data-name="Path 161" d="M537.858,680.727a18,18,0,0,0-27.59-23.12A345.946,345.946,0,0,1,537.858,680.727Z" transform="translate(28.683 -552.517)" fill="#00acb1"/>
    <path id="Path_162" data-name="Path 162" d="M543.774,690.123a17.994,17.994,0,0,0-24.6-26.245A346.415,346.415,0,0,1,543.774,690.123Z" transform="translate(51.434 -531.933)" fill="#00acb1"/>
    <path id="Path_163" data-name="Path 163" d="M1019.458,954.387c-23.55-159.9-161.736-282.656-328.7-282.656V623.387c-183.414,0-332.093,148.191-332.093,331h660.8ZM524.243,801.892A90.408,90.408,0,1,1,614.651,892,90.26,90.26,0,0,1,524.243,801.892Z" transform="translate(-358.66 -623.387)" fill="#00acb1"/>
  </g>
</svg>
