<svg id="Layer_1" data-name="Layer 1" xmlns="http://www.w3.org/2000/svg" viewBox="0 0 531 216"><defs><style>.cls-1{fill:#fff;}</style></defs><path class="cls-1" d="M222,101.1q-5.7,0-8.42-3.91t-2.73-11.11q0-7.15,2.73-11.08T222,71.07a11.66,11.66,0,0,1,3.81.57,9.39,9.39,0,0,1,2.85,1.59,8.33,8.33,0,0,1,2,2.44,13.55,13.55,0,0,1,1.25,3.13l-5,1.42a15.15,15.15,0,0,0-.67-1.87,5.48,5.48,0,0,0-.93-1.52,3.78,3.78,0,0,0-1.39-1,5.07,5.07,0,0,0-2-.35,4.29,4.29,0,0,0-4.06,2.17,12,12,0,0,0-1.22,5.93v5a12.07,12.07,0,0,0,1.22,5.93,4.29,4.29,0,0,0,4.06,2.17,5.26,5.26,0,0,0,2-.35,3.9,3.9,0,0,0,1.39-1,5.63,5.63,0,0,0,.93-1.52,15.77,15.77,0,0,0,.67-1.87l5,1.41a13.63,13.63,0,0,1-1.25,3.14,8.6,8.6,0,0,1-2,2.44,9.16,9.16,0,0,1-2.85,1.58A11.39,11.39,0,0,1,222,101.1Z"/><path class="cls-1" d="M247.69,100.6V90l-9.44-18.43h6.07l3.37,7,2.62,6h.29l2.66-6,3.41-7h5.87L253.1,90V100.6Z"/><path class="cls-1" d="M270.36,100.6v-29h11A8.45,8.45,0,0,1,287.87,74a9.23,9.23,0,0,1,2.25,6.56,9.23,9.23,0,0,1-2.25,6.56c-1.49,1.6-3.66,2.4-6.49,2.4h-5.57V100.6Zm5.45-15.52h4.45a4.54,4.54,0,0,0,3.16-.89,3.78,3.78,0,0,0,1-2.87V79.74a3.78,3.78,0,0,0-1-2.87,4.54,4.54,0,0,0-3.16-.9h-4.45Z"/><path class="cls-1" d="M312.88,88.12h-8.49V100.6h-5.45v-29h5.45V83.63h8.49V71.56h5.44v29h-5.44Z"/><path class="cls-1" d="M328.72,100.6v-29h18.35v4.5h-12.9v7.57h12.44v4.49H334.17v8h12.9v4.49Z"/><path class="cls-1" d="M363.17,100.6h-5.45v-29h11A8.43,8.43,0,0,1,375.23,74a9.26,9.26,0,0,1,2.25,6.57A9.37,9.37,0,0,1,376,85.94a6.48,6.48,0,0,1-4.22,2.76l6.2,11.9h-6l-5.53-11.27h-3.29Zm4.45-15.52a4.54,4.54,0,0,0,3.16-.89,3.78,3.78,0,0,0,1-2.87V79.74a3.78,3.78,0,0,0-1-2.87,4.54,4.54,0,0,0-3.16-.9h-4.45v9.11Z"/><path class="cls-1" d="M386.84,100.6v-29h11A8.47,8.47,0,0,1,404.35,74a9.23,9.23,0,0,1,2.25,6.56,9.23,9.23,0,0,1-2.25,6.56,8.46,8.46,0,0,1-6.49,2.4h-5.57V100.6Zm5.45-15.52h4.45a4.54,4.54,0,0,0,3.16-.89,3.78,3.78,0,0,0,1-2.87V79.74a3.78,3.78,0,0,0-1-2.87,4.54,4.54,0,0,0-3.16-.9h-4.45Z"/><path class="cls-1" d="M420.66,71.56V89.69c0,1.08,0,2.06.1,2.92a6.06,6.06,0,0,0,.54,2.18,3.16,3.16,0,0,0,1.33,1.4,5.19,5.19,0,0,0,2.48.5,5.12,5.12,0,0,0,2.47-.5,3.18,3.18,0,0,0,1.34-1.4,6.06,6.06,0,0,0,.54-2.18c.07-.86.1-1.84.1-2.92V71.56H435V88.83a33.76,33.76,0,0,1-.37,5.37A9.12,9.12,0,0,1,433.18,98a6.48,6.48,0,0,1-3,2.31,16.95,16.95,0,0,1-10.1,0A6.48,6.48,0,0,1,417,98a9.12,9.12,0,0,1-1.46-3.82,33.76,33.76,0,0,1-.37-5.37V71.56Z"/><path class="cls-1" d="M449.61,79.76h-.41V100.6h-4.66v-29h6.69l7.62,20.85h.41V71.56h4.66v29h-6.69Z"/><path class="cls-1" d="M482.39,87.87l-3,4v8.73h-5.45v-29h5.45V84.63h.25L483,79.8l6.12-8.24h6.16l-9.11,12.23,9.52,16.81h-6.15Z"/><path class="cls-1" d="M227.26,139.93h-.2a13.53,13.53,0,0,1-.88,1.63,5.38,5.38,0,0,1-1.27,1.39,6.36,6.36,0,0,1-1.85,1,7.9,7.9,0,0,1-2.58.37,7.66,7.66,0,0,1-7-3.83q-2.31-3.83-2.31-11,0-7.49,2.54-11.36t7.82-3.86a10.46,10.46,0,0,1,3.54.54,8.06,8.06,0,0,1,2.56,1.45,9,9,0,0,1,1.76,2.06,14.75,14.75,0,0,1,1.17,2.31l-3,1.37a15,15,0,0,0-.85-1.81,6.55,6.55,0,0,0-1.16-1.49,5.11,5.11,0,0,0-1.65-1,6.15,6.15,0,0,0-2.24-.38,5.64,5.64,0,0,0-5.14,2.62,13,13,0,0,0-1.64,7v4.5a22.51,22.51,0,0,0,.33,4,9.77,9.77,0,0,0,1.1,3.14,5.58,5.58,0,0,0,2,2.06,5.83,5.83,0,0,0,3,.73,5.7,5.7,0,0,0,4.41-1.71,6.2,6.2,0,0,0,1.58-4.41v-3h-6.11v-2.79h9.36V143.8h-3.25Z"/><path class="cls-1" d="M244.73,114.76V132.2c0,1.41.05,2.67.13,3.78a8.07,8.07,0,0,0,.67,2.85,3.78,3.78,0,0,0,1.68,1.81,8.47,8.47,0,0,0,6.36,0,3.81,3.81,0,0,0,1.69-1.81,8.3,8.3,0,0,0,.66-2.85c.09-1.11.13-2.37.13-3.78V114.76h3.49v16.6a44.38,44.38,0,0,1-.31,5.66,10.45,10.45,0,0,1-1.29,4,6.06,6.06,0,0,1-2.78,2.43,14.42,14.42,0,0,1-9.53,0,6,6,0,0,1-2.79-2.43,10.45,10.45,0,0,1-1.29-4,44.38,44.38,0,0,1-.31-5.66v-16.6Z"/><path class="cls-1" d="M270.53,143.8V141h7.23V117.55h-7.23v-2.79h18v2.79h-7.24V141h7.24v2.79Z"/><path class="cls-1" d="M301.14,143.8v-29h3.5v26h13.77v3Z"/><path class="cls-1" d="M329.22,114.76h8.12c3.54,0,6.19,1.23,7.94,3.67s2.62,6.06,2.62,10.85-.87,8.42-2.62,10.86-4.4,3.66-7.94,3.66h-8.12Zm7.95,26a6.1,6.1,0,0,0,5.26-2.41,11.37,11.37,0,0,0,1.77-6.82V127a11.4,11.4,0,0,0-1.77-6.83,6.12,6.12,0,0,0-5.26-2.41h-4.45v23Z"/><path class="cls-1" d="M108,126a18,18,0,0,1,0-36Z"/><path class="cls-1" d="M108,72V86a22,22,0,0,1,0,44v14a36,36,0,0,0,0-72Z"/><path class="cls-1" d="M108,148a40,40,0,1,1,28.27-68.27l9.91-9.91a54,54,0,1,0,0,76.36l-9.91-9.91A39.88,39.88,0,0,1,108,148Z"/><path class="cls-1" d="M147.38,101a39.83,39.83,0,0,1,0,14h18.18A58,58,0,1,1,108,50V36a72,72,0,1,0,72,72v-7Z"/></svg>