<svg xmlns="http://www.w3.org/2000/svg" width="111.548" height="129.571" viewBox="0 0 111.548 129.571">
  <path id="Path_268" data-name="Path 268" d="M100.753,81.083A12.966,12.966,0,0,0,88.483,90h-6.7V66.682H96.11a17.611,17.611,0,0,0,1.127-35.189,40.186,40.186,0,0,0-78.458,0,17.611,17.611,0,0,0,1.151,35.189H34.274V90.01H27.555a12.968,12.968,0,1,0,0,8.1H38.31a4.054,4.054,0,0,0,4.052-4.052V66.686H53.967V104.3a12.968,12.968,0,1,0,8.1,0V62.844c0-.057-.032-.105-.032-.162v-.049a4.054,4.054,0,0,0-4.052-4.052H19.929a9.51,9.51,0,0,1-.393-19.017c.13,0,.263,0,.393,0a9.425,9.425,0,0,1,1.58.17A4.052,4.052,0,0,0,26.173,36.4l.024-.166a32.081,32.081,0,0,1,63.668,0,4.054,4.054,0,0,0,4.522,3.521l.166-.024a9.508,9.508,0,1,1,1.973,18.847c-.13,0-.263,0-.393,0h-18.4a4.054,4.054,0,0,0-4.052,4.052V94.07a4.054,4.054,0,0,0,4.052,4.052H88.483A12.966,12.966,0,1,0,100.753,81.1ZM15.285,98.945a4.863,4.863,0,1,1,4.863-4.863A4.861,4.861,0,0,1,15.285,98.945Zm42.734,22.5a4.863,4.863,0,1,1,4.863-4.863A4.861,4.861,0,0,1,58.019,121.447Zm42.734-22.5a4.863,4.863,0,1,1,4.863-4.863A4.861,4.861,0,0,1,100.753,98.945Z" transform="translate(-2.233 -0.015)" fill="#e4e4e4"/>
</svg>
