<svg width="38" height="38" viewBox="0 0 38 38" fill="none" xmlns="http://www.w3.org/2000/svg">
    <g opacity="0.796602">
        <mask id="mask0" mask-type="alpha" maskUnits="userSpaceOnUse" x="13" y="0" width="25" height="35">
            <path fill-rule="evenodd" clip-rule="evenodd" d="M13.3758 0H38V34.9432H13.3758V0Z" fill="white"/>
        </mask>
        <g mask="url(#mask0)">
            <path fill-rule="evenodd" clip-rule="evenodd" d="M34.9385 34.1661C34.3298 34.3131 33.7869 34.3258 33.2522 34.3864C31.5719 34.5765 29.8887 34.7394 28.2093 34.9356C27.8962 34.9721 27.8161 34.8832 27.8131 34.5911C27.7921 32.428 27.761 30.265 27.734 28.1019C27.7331 28.0321 27.691 27.9377 27.7837 27.9045C27.8642 27.8755 27.9146 27.9585 27.9683 28.0057C28.5757 28.5408 29.1856 29.0734 29.7864 29.6159C29.9591 29.7718 30.0677 29.7986 30.2481 29.6012C32.3966 27.2466 33.7981 24.5146 34.2339 21.3528C34.9265 16.3278 33.5586 11.9175 30.0421 8.23258C27.6426 5.71798 24.6794 4.23981 21.2551 3.71519C18.7386 3.32957 16.2682 3.59643 13.8586 4.41738C13.464 4.5519 13.4447 4.54408 13.4367 4.13489C13.418 3.17622 13.4572 2.21601 13.3794 1.25913C13.3529 0.934879 13.4715 0.785756 13.7878 0.69992C16.0084 0.0976602 18.262 -0.119363 20.5556 0.0621729C23.0832 0.262286 25.487 0.925527 27.7201 2.11583C33.0638 4.96442 36.3929 9.3792 37.6076 15.3078C38.4585 19.4613 37.9154 23.4914 36.0783 27.3273C35.2905 28.9724 34.2574 30.4548 33.0453 31.8146C32.7054 32.1959 32.7097 32.1936 33.0831 32.5215C33.6818 33.0473 34.2758 33.5782 34.9385 34.1661Z" fill="url(#paint0_linear)"/>
        </g>
        <mask id="mask1" mask-type="alpha" maskUnits="userSpaceOnUse" x="0" y="3" width="25" height="35">
            <path fill-rule="evenodd" clip-rule="evenodd" d="M0 3.03906H24.565V38H0V3.03906Z" fill="white"/>
        </mask>
        <g mask="url(#mask1)">
            <path fill-rule="evenodd" clip-rule="evenodd" d="M24.5107 35.1107C24.5424 35.8648 24.4945 36.3775 24.5601 36.8869C24.5905 37.124 24.4787 37.2313 24.2588 37.2918C23.0143 37.6361 21.7503 37.8964 20.4626 37.9632C18.0572 38.0876 15.6802 37.915 13.3637 37.1713C8.88734 35.7345 5.37263 33.0543 2.86535 29.0734C1.31304 26.6088 0.365247 23.9122 0.0962034 21.0161C-0.423324 15.4253 1.15983 10.49 4.87857 6.26158C4.94193 6.18958 5.00208 6.11336 5.0735 6.0502C5.25372 5.89082 5.22966 5.76489 5.05098 5.61102C4.46182 5.1037 3.88303 4.58433 3.30245 4.06726C3.23346 4.00564 3.11136 3.95132 3.13568 3.85165C3.16499 3.7325 3.30578 3.74685 3.40408 3.73622C5.07466 3.5566 6.74562 3.38122 8.41645 3.20442C8.86059 3.15728 9.30831 3.12973 9.74733 3.05312C10.0581 2.99867 10.1414 3.10027 10.1441 3.39518C10.1593 5.14252 10.1857 6.88972 10.2118 8.63693C10.2175 9.00948 10.2422 9.38178 10.2488 9.75433C10.2507 9.86451 10.3065 10.0173 10.177 10.0724C10.0682 10.1186 9.99692 9.98455 9.92038 9.91755C9.35183 9.4188 8.7788 8.92493 8.22344 8.41196C8.01609 8.2203 7.8918 8.23875 7.70544 8.44322C5.45595 10.9108 4.08501 13.7866 3.67965 17.1084C2.88954 23.5867 6.1388 29.7579 11.9418 32.7619C14.2141 33.9382 16.6422 34.4782 19.2069 34.4452C20.918 34.4231 22.5702 34.1205 24.1807 33.5657C24.4657 33.4675 24.516 33.5717 24.5128 33.8193C24.5061 34.3308 24.5107 34.8423 24.5107 35.1107Z" fill="url(#paint1_linear)"/>
        </g>
        <path fill-rule="evenodd" clip-rule="evenodd" d="M20.4132 23.5458C20.4132 24.1211 20.413 24.6963 20.4132 25.2717C20.4135 25.8487 20.4498 25.8703 20.9719 25.6055C22.5473 24.8067 22.7089 22.9244 21.2887 21.8849C21.1 21.747 20.8923 21.6356 20.699 21.5039C20.493 21.3632 20.4057 21.3902 20.4102 21.6602C20.4203 22.2887 20.4134 22.9173 20.4132 23.5458ZM17.581 14.4177C17.581 13.8327 17.5811 13.2477 17.581 12.6628C17.5807 12.1476 17.5748 12.144 17.0995 12.3582C16.0641 12.8251 15.5106 13.8805 15.7732 14.8732C16.0026 15.7403 16.6782 16.1765 17.3973 16.5691C17.5873 16.6727 17.5794 16.5127 17.5797 16.3957C17.5814 15.7363 17.5806 15.0771 17.581 14.4177ZM17.583 22.8065C17.5832 21.9538 17.5701 21.1008 17.5905 20.2487C17.5974 19.9571 17.4898 19.8146 17.2399 19.6857C16.3608 19.2323 15.4586 18.8137 14.6971 18.1627C11.9384 15.8032 12.3917 11.6808 15.5984 9.96945C16.108 9.69734 16.6377 9.46738 17.207 9.36604C17.518 9.31082 17.6157 9.16836 17.5855 8.87037C17.5629 8.64886 17.5892 8.42287 17.5792 8.19944C17.5704 7.99817 17.6509 7.90196 17.8542 7.90247C18.6104 7.90414 19.3665 7.90427 20.1226 7.90235C20.3218 7.90196 20.4148 7.99356 20.412 8.1938C20.4085 8.43888 20.4272 8.68512 20.4094 8.92892C20.3893 9.20385 20.4989 9.32504 20.7684 9.38577C21.9358 9.64853 22.938 10.2153 23.7036 11.1404C24.5094 12.1142 24.9368 13.2465 24.9584 14.5194C24.9657 14.9518 24.9539 14.9571 24.5065 14.957C23.8568 14.9569 23.2072 14.9559 22.5576 14.9542C22.1339 14.953 22.1378 14.9519 22.1227 14.5285C22.0871 13.5261 21.65 12.7809 20.7273 12.3411C20.5103 12.2376 20.4075 12.2272 20.409 12.5243C20.4178 14.3042 20.4163 16.084 20.41 17.864C20.4091 18.0877 20.4978 18.2137 20.6898 18.3136C21.3508 18.6576 22.0233 18.9808 22.6483 19.391C23.9304 20.2325 24.792 21.3731 25.0322 22.9059C25.3469 24.9151 24.5615 26.4855 22.9867 27.6961C22.3266 28.2033 21.5679 28.5165 20.7565 28.6864C20.4928 28.7417 20.3866 28.862 20.4187 29.1202C20.4213 29.1411 20.4191 29.1627 20.419 29.184C20.4146 30.1164 20.4146 30.1165 19.4679 30.1164C18.946 30.1164 18.4241 30.109 17.9025 30.1193C17.6712 30.1238 17.5702 30.0416 17.5814 29.8047C17.5929 29.56 17.5716 29.3138 17.5864 29.0696C17.6004 28.8359 17.5147 28.7275 17.2788 28.6787C16.173 28.4499 15.2094 27.9349 14.4531 27.0983C13.4949 26.0384 12.9987 24.7844 13.0401 23.3361C13.0456 23.1451 13.1215 23.0625 13.3044 23.062C14.0606 23.0603 14.8167 23.0597 15.5729 23.0556C15.7859 23.0543 15.8334 23.1703 15.8404 23.3609C15.8623 23.9562 15.9846 24.5212 16.37 25.0034C16.6153 25.3102 16.9175 25.5321 17.2706 25.7001C17.5157 25.8168 17.5887 25.7536 17.5862 25.4924C17.5779 24.5971 17.583 23.7019 17.583 22.8065Z" fill="url(#paint2_linear)"/>
    </g>
    <defs>
        <linearGradient id="paint0_linear" x1="1.06365" y1="17.4717" x2="33.9708" y2="40.6611" gradientUnits="userSpaceOnUse">
            <stop stop-color="#00B6BA"/>
            <stop offset="1" stop-color="#53F8FF"/>
        </linearGradient>
        <linearGradient id="paint1_linear" x1="-12.2825" y1="20.5195" x2="20.6089" y2="43.6304" gradientUnits="userSpaceOnUse">
            <stop stop-color="#00B6BA"/>
            <stop offset="1" stop-color="#53F8FF"/>
        </linearGradient>
        <linearGradient id="paint2_linear" x1="6.77264" y1="19.011" x2="25.5351" y2="29.3296" gradientUnits="userSpaceOnUse">
            <stop stop-color="#00B6BA"/>
            <stop offset="1" stop-color="#53F8FF"/>
        </linearGradient>
    </defs>
</svg>
