<svg width="125" height="124" viewBox="0 0 125 124" fill="none" xmlns="http://www.w3.org/2000/svg">
    <g opacity="0.401095">
        <circle cx="62.9015" cy="62" r="62" fill="#656565"/>
        <mask id="mask0" mask-type="alpha" maskUnits="userSpaceOnUse" x="0" y="0" width="125" height="124">
            <circle cx="62.9015" cy="62" r="62" fill="white"/>
        </mask>
        <g mask="url(#mask0)">
            <g opacity="0.156273">
                <path fill-rule="evenodd" clip-rule="evenodd" d="M0.901489 62C0.901489 27.7583 28.6598 0 62.9015 0C79.3449 0 95.1149 6.53212 106.742 18.1594C118.369 29.7866 124.901 45.5566 124.901 62C124.901 96.2417 97.1431 124 62.9015 124C28.6598 124 0.901489 96.2417 0.901489 62ZM14.6911 62C14.6911 88.6258 36.2757 110.21 62.9015 110.21C89.5176 110.187 111.088 88.6161 111.112 62C111.112 35.3742 89.5273 13.7897 62.9015 13.7897C36.2757 13.7897 14.6911 35.3742 14.6911 62Z" fill="white"/>
                <path d="M67.0705 55.8428C59.1387 52.4863 56.7229 50.3911 56.7442 46.8849C56.7442 44.0842 58.8822 40.8132 64.7615 40.8773C68.5693 40.8687 72.3055 41.9118 75.558 43.8918L77.5463 45.0463L81.3732 35.169L79.9408 34.3138C76.5278 32.3088 72.7051 31.1027 68.7594 30.7863V21.5718H59.0105V31.3849C50.4587 33.3518 44.7932 39.8083 44.7077 47.9752C44.7077 58.0663 52.618 62.6842 61.2553 66.1476C67.8829 68.9056 70.5767 71.6207 70.5339 75.5545C70.4911 79.4883 66.707 82.738 61.298 82.6952C56.8987 82.6414 52.6082 81.3201 48.9408 78.8897L46.8029 77.4787L43.147 87.4414L44.3442 88.318C48.3792 90.9386 53.0139 92.4909 57.8132 92.829V102.386H67.6691V92.2945C71.7783 91.4738 75.5211 89.3703 78.3587 86.2869C81.1108 83.128 82.6292 79.0814 82.6346 74.8918C82.7201 66.169 78.0594 60.4394 67.0705 55.8428Z" fill="white"/>
            </g>
            <path opacity="0.102039" fill-rule="evenodd" clip-rule="evenodd" d="M73.7711 -42.8408L117.612 0.999799L5.27009 113.341L-38.5705 69.5008L73.7711 -42.8408Z" fill="white"/>
        </g>
    </g>
</svg>
