<svg width="330" height="213" viewBox="0 0 330 213" fill="none" xmlns="http://www.w3.org/2000/svg">
    <path fill-rule="evenodd" clip-rule="evenodd" d="M262.711 159.648C262.314 160.993 261.514 161.457 260.91 162.056C253.031 169.854 245.131 177.63 237.25 185.425C233.678 188.957 233.65 191.035 237.143 194.5C242.639 199.952 248.145 205.394 253.678 210.81C256.633 213.703 259.243 213.745 262.186 210.846C283.997 189.36 305.79 167.859 327.562 146.337C330.687 143.247 330.669 140.529 327.582 137.478C305.739 115.9 283.884 94.336 262.015 72.7854C259.177 69.989 256.6 70.0058 253.706 72.8284C248.101 78.2962 242.534 83.8017 236.981 89.321C233.746 92.5354 233.712 94.8465 236.959 98.0778C244.816 105.895 252.714 113.673 260.638 121.426C261.38 122.152 262.414 122.588 263.612 123.347C261.746 124.548 260.67 124.26 259.675 124.26C211.055 124.278 162.436 124.275 113.816 124.276C112.754 124.276 111.689 124.253 110.628 124.294C107.353 124.42 105.469 126.132 105.439 129.341C105.363 137.642 105.374 145.945 105.433 154.245C105.455 157.291 106.957 158.948 109.989 159.426C111.377 159.644 112.81 159.64 114.223 159.64C162.489 159.65 210.755 159.648 259.021 159.648H262.711Z" fill="url(#paint0_linear)" style="mix-blend-mode:overlay"/>
    <path fill-rule="evenodd" clip-rule="evenodd" d="M68.0921 88.9488C68.4892 90.2934 69.2887 90.7577 69.8934 91.3565C77.7715 99.1542 85.6719 106.93 93.5532 114.725C97.125 118.257 97.1526 120.335 93.6597 123.801C88.1642 129.253 82.658 134.694 77.1253 140.11C74.1699 143.003 71.5595 143.045 68.6169 140.146C46.8064 118.661 25.0128 97.1593 3.24056 75.6371C0.115943 72.5476 0.134042 69.829 3.2214 66.7784C25.0639 45.2005 46.9192 23.6362 68.7883 2.08566C71.6255 -0.710721 74.2029 -0.693913 77.0965 2.12873C82.7017 7.59647 88.2685 13.102 93.8215 18.6213C97.0568 21.8357 97.0909 24.1468 93.8438 27.3781C85.9871 35.1957 78.0887 42.9735 70.1649 50.726C69.4229 51.4519 68.3891 51.8878 67.1914 52.6473C69.0566 53.848 70.1329 53.5602 71.1283 53.5602C119.748 53.5781 168.367 53.5749 216.987 53.576C218.049 53.576 219.114 53.5528 220.175 53.5938C223.45 53.7199 225.334 55.4322 225.364 58.6414C225.44 66.9423 225.429 75.2453 225.369 83.5451C225.348 86.5915 223.846 88.2481 220.814 88.7261C219.426 88.9446 217.993 88.9404 216.58 88.9404C168.314 88.9498 120.048 88.9488 71.782 88.9488H68.0921Z" fill="url(#paint1_linear)" style="mix-blend-mode:overlay"/>
    <defs>
        <linearGradient id="paint0_linear" x1="428.29" y1="151.941" x2="298.798" y2="343.645" gradientUnits="userSpaceOnUse">
            <stop stop-color="white"/>
            <stop offset="1" stop-color="#7D7D7D" stop-opacity="0.398738"/>
        </linearGradient>
        <linearGradient id="paint1_linear" x1="-97.4866" y1="81.2409" x2="32.0049" y2="272.946" gradientUnits="userSpaceOnUse">
            <stop stop-color="white"/>
            <stop offset="1" stop-color="#7D7D7D" stop-opacity="0.398738"/>
        </linearGradient>
    </defs>
</svg>
