<svg width="89" height="89" viewBox="0 0 89 89" fill="none" xmlns="http://www.w3.org/2000/svg">
    <path d="M0.767242 29.7563V37.0238C1.79773 46.3417 20.0797 52.0077 38.3808 52.0077C48.8881 52.0077 75.9942 47.8993 75.9942 37.0238V29.7563C74.0575 31.3349 71.7468 32.7903 69.0855 34.0942C60.824 38.1419 49.9195 40.371 38.3808 40.371C26.8422 40.371 15.9377 38.1419 7.67599 34.0942C5.01469 32.7905 2.704 31.3349 0.767242 29.7563Z" fill="white"/>
    <path d="M14.3979 55.8736C15.814 58.6864 19.0114 61.4207 23.6341 63.6856C30.934 67.2625 40.7195 69.2324 51.1878 69.2324C61.656 69.2324 71.4416 67.2625 78.7415 63.6856C85.1347 60.5532 88.8014 56.5234 88.8014 52.6296C88.8014 49.331 86.2087 45.9704 81.5627 43.1187C79.3104 47.2774 74.735 50.9548 68.2187 53.7549C60.0877 57.2488 49.4909 59.1732 38.3805 59.1732C29.7865 59.1732 21.4827 58.0176 14.3979 55.8736Z" fill="white"/>
    <path d="M13.5744 65.7832V73.0508C14.5677 85.8555 40.6808 88.0346 51.1881 88.0346C61.6953 88.0346 88.8014 85.8555 88.8014 73.0508V65.7832C86.8647 67.3617 84.554 68.8173 81.8927 70.1211C73.6312 74.1687 62.7267 76.3979 51.1881 76.3979C39.6494 76.3979 28.7449 74.1687 20.4832 70.1211C17.8219 68.8173 15.5114 67.3619 13.5744 65.7832Z" fill="white"/>
    <path fill-rule="evenodd" clip-rule="evenodd" d="M38.3811 0C48.8491 0 58.6347 1.96988 65.9346 5.54683C72.3277 8.67924 75.9945 12.709 75.9942 16.6026C75.9942 20.4963 72.3277 24.5261 65.9346 27.6585C58.6347 31.2355 48.8491 33.2053 38.3809 33.2053C27.9126 33.2053 18.127 31.2355 10.8272 27.6585C4.43419 24.5261 0.767467 20.4963 0.767467 16.6026C0.767467 12.7088 4.43419 8.67924 10.8274 5.54683C18.1273 1.96988 27.9128 0 38.3811 0ZM40.2682 29.145V26.0865C43.5398 25.4001 45.6858 23.3045 45.6853 20.7072C45.6853 17.2798 42.5372 15.7908 39.799 14.878C36.65 13.8129 36.1188 13.247 36.1188 12.3814C36.1188 11.5817 36.8302 10.7271 38.8278 10.7271C40.534 10.7271 42.1359 11.2374 43.6298 12.0199L45.148 8.74369C43.695 7.97622 42.1128 7.52253 40.4734 7.38482V4.61609H36.4966V7.58878C33.3252 8.24642 31.3189 10.2034 31.3189 12.7172C31.3189 15.8475 34.4762 17.2815 37.5546 18.2684C40.4521 19.2289 40.8515 20.1025 40.8515 20.9033C40.8515 22.094 39.5837 22.8939 37.6966 22.8939C35.7858 22.8939 33.907 22.2718 32.2871 21.2784L30.8289 24.6067C32.4673 25.6049 34.3489 26.12 36.2567 26.2708V29.145H40.2682Z" fill="white"/>
</svg>
