<svg xmlns="http://www.w3.org/2000/svg" width="90" height="90" viewBox="0 0 90 90">
  <g id="Group_105" data-name="Group 105" transform="translate(-60.466 -315.646)">
    <path id="Path_273" data-name="Path 273" d="M106.051,395.654l12.219-12.219a2.658,2.658,0,1,0-3.76-3.76l-12.219,12.219L90.072,379.676l12.219-12.218a2.658,2.658,0,1,0-3.76-3.76L86.313,375.917l-4.23-4.23-7.519,7.519A19.944,19.944,0,0,0,72.027,404.3L60.466,415.862l5.639,5.639L77.667,409.94a19.944,19.944,0,0,0,25.094-2.537l7.519-7.519Z" transform="translate(0 -15.855)" fill="#00acb1"/>
    <path id="Path_274" data-name="Path 274" d="M149.128,365.46l7.519-7.519a19.943,19.943,0,0,0,2.537-25.094l11.562-11.562-5.64-5.639-11.561,11.561a19.944,19.944,0,0,0-25.094,2.537l-7.519,7.519Z" transform="translate(-20.28 0)" fill="#00acb1"/>
  </g>
</svg>
