<svg viewBox="0 0 15 17" fill="none" xmlns="http://www.w3.org/2000/svg">
<path fill-rule="evenodd" clip-rule="evenodd" d="M13.2429 0C14.2114 0 15 0.782 15 1.751V17L13.1571 15.385L12.12 14.433L11.0229 13.4215L11.4771 14.994H1.75714C0.788571 14.994 0 14.212 0 13.243V1.751C0 0.782 0.788571 0 1.75714 0H13.2429ZM9.93429 11.101C11.8286 11.0415 12.5571 9.809 12.5571 9.809C12.5571 7.072 11.3229 4.8535 11.3229 4.8535C10.0886 3.9355 8.91429 3.961 8.91429 3.961L8.79429 4.097C10.2514 4.539 10.9286 5.1765 10.9286 5.1765C10.0371 4.692 9.16286 4.454 8.34857 4.3605C7.73143 4.2925 7.14 4.3095 6.61714 4.3775L6.47143 4.3945C6.17143 4.42 5.44286 4.5305 4.52571 4.93C4.20857 5.0745 4.02 5.1765 4.02 5.1765C4.02 5.1765 4.73143 4.505 6.27429 4.063L6.18857 3.961C6.18857 3.961 5.01429 3.9355 3.78 4.8535C3.78 4.8535 2.54571 7.072 2.54571 9.809C2.54571 9.809 3.26571 11.0415 5.16 11.101C5.16 11.101 5.47714 10.7185 5.73429 10.3955C4.64571 10.0725 4.23429 9.3925 4.23429 9.3925L4.47429 9.537L4.50857 9.5625L4.54214 9.58162L4.55214 9.58587L4.58571 9.605C4.8 9.724 5.01429 9.8175 5.21143 9.894C5.56286 10.03 5.98286 10.166 6.47143 10.2595C7.11429 10.3785 7.86857 10.421 8.69143 10.268C9.09429 10.2 9.50571 10.081 9.93429 9.9025C10.2343 9.792 10.5686 9.6305 10.92 9.401C10.92 9.401 10.4914 10.098 9.36857 10.4125C9.62571 10.7355 9.93429 11.101 9.93429 11.101ZM5.94857 7.1315C5.46 7.1315 5.07429 7.5565 5.07429 8.075C5.07429 8.5935 5.46857 9.0185 5.94857 9.0185C6.43714 9.0185 6.82286 8.5935 6.82286 8.075C6.83143 7.5565 6.43714 7.1315 5.94857 7.1315ZM9.07714 7.1315C8.58857 7.1315 8.20286 7.5565 8.20286 8.075C8.20286 8.5935 8.59714 9.0185 9.07714 9.0185C9.56571 9.0185 9.95143 8.5935 9.95143 8.075C9.95143 7.5565 9.56571 7.1315 9.07714 7.1315Z" fill="white"/>
</svg>
