<svg viewBox="0 0 15 15" fill="none" xmlns="http://www.w3.org/2000/svg">
<path fill-rule="evenodd" clip-rule="evenodd" d="M11.875 15H3.125C1.39937 15 0 13.6006 0 11.875V3.125C0 1.39937 1.39937 0 3.125 0H11.875C13.6012 0 15 1.39937 15 3.125V11.875C15 13.6006 13.6019 14.9994 11.875 15ZM12.4812 11.4694V11.3013L11.7019 10.5363C11.6331 10.4838 11.5988 10.3975 11.6131 10.3119V4.68813C11.5988 4.6025 11.6331 4.51625 11.7019 4.46375L12.5 3.69875V3.53063H9.73625L7.76625 8.445L5.525 3.53063H2.62625V3.69875L3.56 4.82312C3.65125 4.90625 3.69812 5.0275 3.68563 5.15V9.57C3.71312 9.72937 3.6625 9.8925 3.55062 10.0087L2.5 11.2825V11.4506H5.47875V11.2825L4.42812 10.0087C4.315 9.8925 4.26188 9.73063 4.28312 9.57V5.7475L6.8975 11.4506H7.20125L9.44687 5.7475V10.2931C9.44687 10.4144 9.44687 10.4381 9.3675 10.5175L8.56 11.3013V11.4694H12.4812Z" fill="white"/>
</svg>
