<?xml version="1.0" encoding="UTF-8"?>
<svg width="97px" height="19px" viewBox="0 0 97 19" version="1.1" xmlns="http://www.w3.org/2000/svg" xmlns:xlink="http://www.w3.org/1999/xlink">
    <title>编组 6备份@3x</title>
    <g id="页面-1" stroke="none" stroke-width="1" fill="none" fill-rule="evenodd">
        <g id="Dark_HomePage备份-13" transform="translate(-139.000000, -3401.000000)">
            <g id="编组-5备份-4" transform="translate(80.000000, 3349.000000)">
                <g id="编组-6备份" transform="translate(60.000000, 53.000000)">
                    <rect id="矩形" stroke="#2AD4D8" x="0" y="0" width="95" height="17" rx="5"></rect>
                    <path d="M12.028,13 L12.028,11.625 L8.365,11.625 L8.365,11.581 L11.995,5.553 L11.995,4.541 L6.594,4.541 L6.594,5.905 L9.971,5.905 L9.971,5.949 L6.264,12.087 L6.264,13 L12.028,13 Z M15.746,13.11 C16.505,13.11 17.22,12.978 17.726,12.758 L17.495,11.636 C17.077,11.779 16.604,11.889 15.999,11.889 C15.119,11.889 14.371,11.471 14.327,10.426 L17.99,10.426 C18.023,10.25 18.034,10.019 18.034,9.777 C18.034,7.797 17.066,6.741 15.581,6.741 C13.788,6.741 12.776,8.259 12.776,10.019 C12.776,11.922 13.854,13.11 15.746,13.11 Z M16.527,9.293 L14.327,9.293 C14.371,8.688 14.701,7.874 15.482,7.874 C16.285,7.874 16.538,8.655 16.527,9.293 Z M21.796,13.11 C22.445,13.11 23.006,12.978 23.281,12.846 L23.105,11.625 C22.841,11.746 22.522,11.823 22.115,11.823 C21.18,11.823 20.487,11.13 20.487,9.931 C20.487,8.853 21.081,8.028 22.104,8.028 C22.555,8.028 22.852,8.127 23.061,8.226 L23.325,6.983 C23.061,6.873 22.577,6.752 22.049,6.752 C20.025,6.752 18.837,8.16 18.837,9.997 C18.837,11.944 20.003,13.11 21.796,13.11 Z M25.954,13 L25.954,9.832 C25.954,8.787 26.515,8.292 27.252,8.292 C27.417,8.292 27.549,8.303 27.67,8.325 L27.67,6.774 C27.56,6.752 27.461,6.741 27.307,6.741 C26.735,6.741 26.075,7.148 25.789,7.94 L25.745,7.94 L25.679,6.873 L24.282,6.873 C24.304,7.423 24.326,8.028 24.326,8.787 L24.326,13 L25.954,13 Z M31.212,13.11 C31.971,13.11 32.686,12.978 33.192,12.758 L32.961,11.636 C32.543,11.779 32.07,11.889 31.465,11.889 C30.585,11.889 29.837,11.471 29.793,10.426 L33.456,10.426 C33.489,10.25 33.5,10.019 33.5,9.777 C33.5,7.797 32.532,6.741 31.047,6.741 C29.254,6.741 28.242,8.259 28.242,10.019 C28.242,11.922 29.32,13.11 31.212,13.11 Z M31.993,9.293 L29.793,9.293 C29.837,8.688 30.167,7.874 30.948,7.874 C31.751,7.874 32.004,8.655 31.993,9.293 Z M34.842,15.739 C35.205,15.673 35.832,15.453 36.426,14.881 C37.119,14.188 37.636,13.11 38.318,11.13 L39.704,6.873 L38.01,6.873 L37.24,10.074 C37.152,10.459 37.053,10.888 36.987,11.218 L36.954,11.218 C36.877,10.877 36.767,10.448 36.668,10.074 L35.766,6.873 L33.984,6.873 L36.041,12.505 C36.085,12.626 36.107,12.714 36.107,12.78 C36.107,12.901 35.832,13.528 35.293,13.913 C35.007,14.111 34.699,14.287 34.435,14.364 L34.842,15.739 Z M45.886,13 L46.711,9.414 C46.92,8.523 47.074,7.676 47.217,6.719 L47.239,6.719 C47.349,7.676 47.481,8.534 47.668,9.414 L48.394,13 L50.121,13 L52.123,4.541 L50.484,4.541 L49.791,8.16 C49.615,9.172 49.45,10.129 49.318,11.13 L49.285,11.13 C49.175,10.14 49.01,9.205 48.823,8.215 L48.108,4.541 L46.502,4.541 L45.732,8.171 C45.512,9.227 45.303,10.206 45.182,11.152 L45.149,11.152 C45.028,10.25 44.863,9.205 44.687,8.193 L44.038,4.541 L42.311,4.541 L44.17,13 L45.886,13 Z M55.654,13.11 C56.413,13.11 57.128,12.978 57.634,12.758 L57.403,11.636 C56.985,11.779 56.512,11.889 55.907,11.889 C55.027,11.889 54.279,11.471 54.235,10.426 L57.898,10.426 C57.931,10.25 57.942,10.019 57.942,9.777 C57.942,7.797 56.974,6.741 55.489,6.741 C53.696,6.741 52.684,8.259 52.684,10.019 C52.684,11.922 53.762,13.11 55.654,13.11 Z M56.435,9.293 L54.235,9.293 C54.279,8.688 54.609,7.874 55.39,7.874 C56.193,7.874 56.446,8.655 56.435,9.293 Z M62.177,13.121 C63.442,13.121 64.685,12.043 64.685,9.821 C64.685,7.995 63.783,6.741 62.43,6.741 C61.649,6.741 61.077,7.071 60.725,7.61 L60.703,7.61 L60.703,4.156 L59.075,4.156 L59.075,11.24 C59.075,11.867 59.053,12.56 59.031,13 L60.417,13 L60.494,12.153 L60.527,12.153 C60.912,12.846 61.495,13.121 62.177,13.121 Z M61.803,11.823 C61.154,11.823 60.703,11.251 60.703,10.558 L60.703,9.359 C60.703,8.567 61.242,8.039 61.803,8.039 C62.639,8.039 63.046,8.853 63.046,9.898 C63.046,11.086 62.595,11.823 61.803,11.823 Z M69.338,13 L69.921,10.767 L72.187,10.767 L72.792,13 L74.497,13 L72.132,4.541 L70.086,4.541 L67.688,13 L69.338,13 Z M71.956,9.535 L70.152,9.535 L70.658,7.599 C70.779,7.104 70.922,6.411 71.032,5.883 L71.065,5.883 C71.175,6.4 71.318,7.082 71.45,7.61 L71.956,9.535 Z M77.137,15.453 L77.137,12.406 L77.159,12.406 C77.423,12.813 77.94,13.121 78.611,13.121 C79.854,13.121 81.13,12.131 81.13,9.876 C81.13,7.995 80.14,6.741 78.798,6.741 C78.006,6.741 77.379,7.082 76.983,7.709 L76.961,7.709 L76.884,6.873 L75.465,6.873 C75.487,7.434 75.509,8.083 75.509,8.875 L75.509,15.453 L77.137,15.453 Z M78.226,11.845 C77.676,11.845 77.137,11.416 77.137,10.525 L77.137,9.381 C77.137,8.644 77.632,8.05 78.259,8.05 C79.062,8.05 79.48,8.842 79.48,9.931 C79.48,11.031 79.051,11.845 78.226,11.845 Z M83.902,15.453 L83.902,12.406 L83.924,12.406 C84.188,12.813 84.705,13.121 85.376,13.121 C86.619,13.121 87.895,12.131 87.895,9.876 C87.895,7.995 86.905,6.741 85.563,6.741 C84.771,6.741 84.144,7.082 83.748,7.709 L83.726,7.709 L83.649,6.873 L82.23,6.873 C82.252,7.434 82.274,8.083 82.274,8.875 L82.274,15.453 L83.902,15.453 Z M84.991,11.845 C84.441,11.845 83.902,11.416 83.902,10.525 L83.902,9.381 C83.902,8.644 84.397,8.05 85.024,8.05 C85.827,8.05 86.245,8.842 86.245,9.931 C86.245,11.031 85.816,11.845 84.991,11.845 Z" id="ZecreyWebApp" fill="#2AD4D8" fill-rule="nonzero"></path>
                </g>
            </g>
        </g>
    </g>
</svg>