<svg viewBox="0 0 95 106" fill="none" xmlns="http://www.w3.org/2000/svg">
<path fill-rule="evenodd" clip-rule="evenodd" d="M81.9673 75.1968C81.565 74.926 81.4362 74.7958 81.2806 74.7409C72.7375 71.7243 64.189 68.722 55.6494 65.6953C54.3902 65.2491 53.2076 65.3886 51.9896 65.8255C46.0977 67.9375 40.1975 70.0248 34.3027 72.1285C31.7411 73.0428 29.1864 73.9755 26.5628 74.9231C27.0633 75.6226 27.7066 75.6373 28.2405 75.8303C36.3684 78.7691 44.5318 81.6128 52.6192 84.6585C55.004 85.5567 57.0338 85.6431 59.4312 84.5914C66.7939 81.3617 74.2664 78.3845 81.9673 75.1968M8.90816 75.143C8.21398 74.8005 8.01641 74.6763 7.80163 74.6003C-0.578003 71.6385 -8.96193 68.689 -17.3369 65.714C-18.5919 65.2685 -19.7751 65.3693 -21.0007 65.804C-26.5097 67.7589 -32.0298 69.6829 -37.5423 71.6285C-40.6184 72.7143 -43.6874 73.8205 -46.7599 74.9177C-46.5749 75.4773 -46.183 75.5139 -45.8717 75.643C-38.1038 78.8684 -30.3273 82.0734 -22.5705 85.3246C-21.4116 85.8103 -20.3754 85.6144 -19.2821 85.2224C-13.4422 83.129 -7.59688 81.0518 -1.75481 78.9653C1.65621 77.7468 5.06471 76.5211 8.90816 75.143M17.6521 8.9381C15.7298 9.16085 14.1582 9.92165 12.5329 10.4956C4.60432 13.2938 -3.3185 16.1074 -11.2381 18.9289C-11.7272 19.1032 -12.4633 19.1882 -12.5235 19.751C-12.5963 20.4336 -11.8035 20.4228 -11.3421 20.6018C-2.33604 24.0959 6.68004 27.5641 15.6818 31.0686C16.7467 31.4829 17.6872 31.4793 18.7708 31.0639C27.8468 27.5867 36.945 24.1673 46.0302 20.7134C46.5645 20.5104 47.4566 20.4967 47.4917 19.8816C47.5369 19.0856 46.5878 19.0695 46.0163 18.865C37.2591 15.7282 28.4947 12.6129 19.7267 9.507C19.001 9.24981 18.2383 9.09665 17.6521 8.9381M-14.7309 42.926C-14.7309 47.1001 -14.7147 51.2747 -14.742 55.4488C-14.7488 56.4933 -14.5631 57.2477 -13.4174 57.653C-5.21208 60.5556 2.97931 63.4961 11.1639 66.4568C12.2862 66.8625 12.7806 66.7721 12.7738 65.3983C12.733 57.2286 12.7398 49.059 12.7659 40.8893C12.7692 39.8218 12.3202 39.2777 11.3568 38.9108C3.22241 35.8138 -4.90945 32.7107 -13.0173 29.5452C-14.4254 28.9957 -14.7775 29.3138 -14.7545 30.7615C-14.6893 34.8152 -14.7319 38.8709 -14.7309 42.926M49.6123 43.0892C49.6123 38.9161 49.5761 34.7423 49.6324 30.57C49.651 29.203 49.3115 28.9243 47.9934 29.4394C39.8339 32.6296 31.6565 35.775 23.4623 38.8749C22.2474 39.3344 21.8699 40.0152 21.877 41.2677C21.9222 49.2559 21.9247 57.2448 21.877 65.2333C21.8684 66.6771 22.2105 66.9877 23.6179 66.4766C31.6841 63.5471 39.7651 60.6563 47.874 57.8474C49.2731 57.3632 49.6707 56.6529 49.642 55.2504C49.5585 51.1982 49.6126 47.1432 49.6123 43.0892M-25.9177 110.245C-25.9177 105.297 -25.9446 100.349 -25.8983 95.4011C-25.8872 94.2357 -26.2343 93.5416 -27.3674 93.0879C-34.7258 90.1419 -42.0738 87.169 -49.3975 84.137C-50.9182 83.5074 -51.2742 83.9673 -51.2688 85.4423C-51.238 94.5628 -51.2369 103.684 -51.2606 112.805C-51.266 114.919 -50.2996 116.297 -48.3989 117.102C-41.4844 120.031 -34.5634 122.945 -27.665 125.911C-26.3139 126.491 -25.8793 126.215 -25.8965 124.73C-25.9528 119.902 -25.9177 115.073 -25.9177 110.245M60.5729 110.008C60.5729 114.958 60.598 119.909 60.5564 124.86C60.5449 126.225 60.9207 126.542 62.228 125.986C68.9769 123.112 75.7197 120.221 82.5306 117.501C85.1406 116.459 86.1822 114.783 86.161 112.046C86.0936 103.159 86.1381 94.2712 86.1345 85.3831C86.1338 83.3797 86.1173 83.3611 84.3216 84.0889C76.9714 87.0686 69.6391 90.0942 62.2667 93.0179C60.9167 93.5531 60.5194 94.3002 60.5417 95.692C60.6195 100.463 60.5714 105.235 60.5729 110.008M-16.8801 110.948C-16.8801 116.075 -16.8471 121.201 -16.9016 126.328C-16.9167 127.742 -16.6219 128.135 -15.187 127.538C-6.38386 123.874 2.44254 120.266 11.2722 116.665C12.2711 116.258 12.7767 115.713 12.7724 114.555C12.7376 104.66 12.7383 94.7644 12.7695 84.8691C12.7742 83.4841 12.317 83.2226 11.0588 83.6882C2.34035 86.9151 -6.3835 90.1283 -15.1299 93.278C-16.4954 93.7697 -16.9224 94.5341 -16.9048 95.9262C-16.841 100.933 -16.8797 105.941 -16.8801 110.948M51.7608 110.955C51.7608 105.947 51.7128 100.94 51.7913 95.9341C51.8131 94.5101 51.3395 93.8002 49.9934 93.3171C41.2459 90.1738 32.5181 86.9746 23.8007 83.7481C22.4543 83.2495 21.867 83.3227 21.8756 84.9907C21.9258 94.8254 21.9158 104.66 21.8806 114.495C21.8763 115.636 22.3166 116.19 23.3446 116.608C32.2872 120.243 41.2187 123.907 50.1333 127.611C51.4216 128.146 51.7959 127.911 51.7816 126.511C51.7289 121.326 51.7608 116.14 51.7608 110.955M-59.9579 96.4101C-59.9579 91.1003 -59.9601 85.7905 -59.9576 80.4811C-59.954 73.446 -56.5415 68.6413 -49.8339 66.3105C-41.7217 63.4911 -33.6117 60.665 -25.4652 57.9478C-23.8828 57.4198 -23.3826 56.6741 -23.3948 55.0176C-23.473 44.5782 -23.4389 34.1379 -23.4328 23.6977C-23.4289 17.2893 -20.4898 12.8296 -14.5068 10.6376C-5.26765 7.25295 4.02667 4.01751 13.3038 0.736518C16.102 -0.253125 18.9293 -0.241647 21.7257 0.747996C31.0021 4.0315 40.2975 7.26407 49.5341 10.6559C55.4536 12.8296 58.4154 17.2979 58.4204 23.5618C58.4286 34.0615 58.4652 44.5617 58.3802 55.0607C58.3663 56.7552 58.9511 57.4421 60.495 57.959C68.4691 60.6277 76.3848 63.4718 84.361 66.1326C91.0651 68.369 95.1316 73.5117 94.9967 80.8832C94.8003 91.6179 94.9648 102.359 94.9383 113.097C94.9247 118.628 92.5316 122.873 87.4307 125.082C77.8008 129.255 68.0787 133.218 58.3537 137.167C55.2421 138.43 52.024 138.187 48.926 136.908C39.1139 132.854 29.3015 128.801 19.5184 124.679C18.0748 124.071 16.8643 124.094 15.4311 124.698C5.64666 128.817 -4.16471 132.873 -13.9782 136.923C-17.3319 138.307 -20.7289 138.302 -24.0847 136.922C-32.9663 133.272 -41.8124 129.536 -50.7188 125.947C-56.5494 123.598 -60.2193 119.24 -59.9898 111.979C-59.826 106.794 -59.9579 101.6 -59.9579 96.4101" fill="currentColor"/>
</svg>
