<svg viewBox="0 0 247 20" fill="none" xmlns="http://www.w3.org/2000/svg">
<path d="M2.74382 11.4402C2.74382 14.4642 2.69582 15.8562 2.59982 17.1762C2.52782 18.0642 2.26382 18.4242 1.83182 18.4962C1.63982 18.5442 1.42382 18.5682 1.11182 18.5922C0.751824 18.5922 0.631824 18.6642 0.631824 18.8322C0.631824 19.0002 0.799824 19.0722 1.13582 19.0722C2.43182 19.0722 3.55982 19.0002 4.61582 19.0002C5.33582 19.0002 8.16783 19.1442 9.05583 19.1442C13.8318 19.1442 16.3278 16.5042 16.3278 13.8402C16.3278 10.9362 14.1918 9.40022 11.6718 8.63222C13.2558 7.81622 14.5998 6.56822 14.5998 4.62422C14.5998 3.28022 13.6398 0.928223 8.57582 0.928223C7.63982 0.928223 6.22382 1.00022 4.63982 1.00022C3.46382 1.00022 2.26382 0.928223 0.799824 0.928223C0.511824 0.928223 0.319824 0.976222 0.319824 1.16822C0.319824 1.28822 0.391824 1.38422 0.751824 1.40822C1.01582 1.43222 1.35182 1.45622 1.63982 1.48022C2.33582 1.55222 2.67182 1.93622 2.69582 2.92022C2.71982 3.68822 2.74382 4.36022 2.74382 7.88822V11.4402ZM6.89582 2.80022C6.89582 2.46422 6.99182 2.41622 7.13582 2.36822C7.32782 2.29622 7.61582 2.24822 7.99983 2.24822C9.89582 2.24822 10.8558 3.88022 10.8558 5.82422C10.8558 6.85622 10.5678 7.69622 10.0638 8.10422C9.72783 8.39222 9.17583 8.48822 8.62383 8.48822C8.28783 8.48822 7.49582 8.46422 7.11182 8.39222C6.99182 8.36822 6.89582 8.34422 6.89582 8.15222V2.80022ZM6.89582 10.0242C6.89582 9.90422 6.94382 9.85622 7.03982 9.85622C7.27983 9.83222 7.85582 9.83222 8.23982 9.85622C8.98382 9.90422 9.82382 10.1442 10.4718 10.7682C11.5758 11.8002 11.8878 13.2162 11.8878 14.4642C11.8878 16.8642 10.3998 17.7282 9.15182 17.7282C8.67182 17.7282 8.09582 17.6562 7.56782 17.3442C7.08782 17.1042 6.99182 16.7922 6.94382 16.0242C6.87182 14.8002 6.89582 13.1202 6.89582 11.9682V10.0242Z" fill="white"/>
<path d="M24.5646 9.64022C24.5646 6.13622 24.5886 5.82422 24.6366 5.15222C24.6846 4.40822 24.8526 4.02422 25.4526 3.92822C25.7646 3.85622 25.8606 3.85622 26.1006 3.83222C26.2926 3.83222 26.4846 3.76022 26.4846 3.56822C26.4846 3.44822 26.3886 3.35222 26.0046 3.35222C25.2366 3.35222 22.4526 3.42422 22.3326 3.42422C21.4206 3.42422 20.3646 3.35222 19.0686 3.35222C18.6366 3.35222 18.4686 3.42422 18.4686 3.59222C18.4686 3.76022 18.6606 3.80822 18.9006 3.83222C19.2126 3.85622 19.5006 3.90422 19.6926 3.95222C20.1966 4.09622 20.3886 4.43222 20.4366 5.00822C20.4846 5.68022 20.5086 5.92022 20.5086 9.37622V13.0242C20.5086 14.1762 20.4846 15.3282 20.4846 16.1442C20.4126 18.0642 20.3166 18.4002 19.4526 18.5442C19.2126 18.5682 19.1646 18.5682 18.9486 18.5922C18.6606 18.5922 18.5406 18.7122 18.5406 18.8082C18.5406 19.0002 18.7086 19.0722 19.0446 19.0722C20.2686 19.0722 21.3486 19.0002 22.3566 19.0002C24.6366 19.0002 26.6286 19.1202 29.8686 19.1202C30.6606 19.1202 30.8046 19.1202 30.9966 18.5682C31.2126 17.9682 31.5246 15.8802 31.5246 15.3522C31.5246 15.0642 31.4766 14.9202 31.3326 14.9202C31.1406 14.9202 31.0686 15.1122 31.0206 15.3522C30.7566 16.5042 30.3006 17.0082 29.7006 17.2482C29.1006 17.4642 28.5246 17.4882 27.3246 17.4882C25.5246 17.4882 25.1406 17.4162 24.8286 16.9842C24.4926 16.5282 24.5646 15.0162 24.5646 13.0482V9.64022Z" fill="white"/>
<path d="M42.5019 19.3602C48.1659 19.3602 51.5499 15.6882 51.5499 10.8162C51.5499 6.73622 48.1179 3.06422 42.6459 3.06422C36.3339 3.06422 33.3579 6.95222 33.3579 11.2962C33.3579 14.9682 36.1179 19.3602 42.5019 19.3602ZM43.0779 17.9202C39.5019 17.9202 37.9659 14.1042 37.9659 10.2642C37.9659 5.39222 40.0539 4.45622 41.9019 4.45622C45.7899 4.45622 46.9419 8.60822 46.9419 11.7762C46.9419 17.4162 44.3979 17.9202 43.0779 17.9202Z" fill="white"/>
<path d="M65.2559 19.3602C66.5999 19.3602 68.0879 19.2402 68.9279 18.9042C69.2639 18.7842 69.4319 18.5682 69.5039 18.2082C69.6719 17.2002 69.9599 15.3762 69.9599 14.9682C69.9599 14.7522 69.8879 14.6082 69.7439 14.6082C69.5759 14.6082 69.5039 14.6802 69.4079 15.1122C69.2639 15.7602 68.9759 16.3362 68.7119 16.6242C67.8719 17.5122 66.8399 17.6562 65.1359 17.6562C61.4639 17.6562 59.2319 14.7042 59.2319 10.5762C59.2319 8.32022 59.8319 6.44822 61.1039 5.44022C61.8719 4.79222 62.9519 4.50422 64.0799 4.50422C66.1679 4.50422 67.6319 5.00822 68.3759 5.80022C69.1199 6.59222 69.1439 7.45622 69.1679 7.86422C69.1919 8.15222 69.2639 8.32022 69.4319 8.32022C69.6239 8.32022 69.6959 8.12822 69.7199 7.81622C69.7679 7.21622 69.7919 6.01622 69.8159 5.32022C69.8639 4.62422 69.9119 4.02422 69.9119 3.85622C69.9119 3.73622 69.9119 3.59222 69.6719 3.56822C69.0239 3.56822 68.5919 3.47222 67.5839 3.30422C66.7679 3.18422 65.7119 3.06422 64.5119 3.06422C61.4399 3.06422 59.2319 3.64022 57.3359 5.17622C55.1519 6.92822 54.6239 9.54422 54.6239 10.9602C54.6239 13.2162 55.2239 15.3282 57.3599 17.0802C59.6879 18.9282 62.4719 19.3602 65.2559 19.3602Z" fill="white"/>
<path d="M78.6583 9.37622C78.6583 6.13622 78.6583 5.82422 78.7063 5.15222C78.7303 4.50422 78.8023 4.00022 79.5943 3.90422C79.7623 3.88022 79.9783 3.85622 80.1223 3.83222C80.4103 3.80822 80.5303 3.73622 80.5303 3.59222C80.5303 3.44822 80.4823 3.35222 80.0743 3.35222C79.3303 3.35222 76.5943 3.42422 76.4743 3.42422C76.4023 3.42422 73.9303 3.35222 73.0903 3.35222C72.6583 3.35222 72.5383 3.44822 72.5383 3.56822C72.5383 3.73622 72.7303 3.80822 72.9703 3.83222C73.1863 3.85622 73.4023 3.88022 73.7623 3.92822C74.3863 4.04822 74.5303 4.38422 74.5783 4.88822C74.6503 5.56022 74.6503 6.13622 74.6503 9.37622V13.0242C74.6503 15.0642 74.6023 16.4562 74.5063 17.3202C74.4583 17.9202 74.3623 18.4242 73.6183 18.5202C73.3783 18.5682 73.3303 18.5682 73.1383 18.5922C72.8743 18.6162 72.7063 18.6882 72.7063 18.8562C72.7063 19.0242 72.8983 19.0722 73.1383 19.0722C73.8343 19.0722 76.4263 19.0002 76.4743 19.0002C76.5943 19.0002 79.0903 19.0722 80.5783 19.0722C80.8663 19.0722 80.9863 18.9522 80.9863 18.8322C80.9863 18.7362 80.8903 18.6162 80.6263 18.5922C80.3623 18.5682 80.0023 18.5682 79.7143 18.5202C78.9463 18.4242 78.7783 17.9202 78.7303 17.3922C78.6583 16.5282 78.6583 14.6082 78.6583 13.0242V11.2962C80.1943 13.5762 82.2823 16.4562 83.5543 17.7042C84.6823 18.7842 85.7143 19.0722 88.6183 19.0722H90.7783C90.9943 19.0722 91.2103 19.0242 91.2103 18.8562C91.2103 18.6882 91.1143 18.6162 90.7783 18.5922C90.3703 18.5202 90.0823 18.4722 89.6983 18.2562C89.3383 18.0642 88.8343 17.7042 87.7063 16.5282C86.1223 14.8482 82.6903 10.7202 81.9223 9.52022C82.4743 8.94422 84.7543 6.61622 85.7383 5.70422C86.7703 4.79222 87.4663 4.14422 88.6183 3.95222C88.8583 3.90422 89.0263 3.88022 89.3143 3.83222C89.5783 3.80822 89.7223 3.71222 89.7223 3.59222C89.7223 3.44822 89.6263 3.37622 89.2423 3.37622C88.9783 3.37622 87.3703 3.42422 86.0503 3.42422C84.7543 3.42422 84.7303 3.37622 83.7463 3.37622C83.4823 3.37622 83.3623 3.47222 83.3623 3.59222C83.3623 3.73622 83.5543 3.80822 83.7703 3.83222C84.3223 3.92822 84.3703 4.07222 84.3703 4.31222C84.3703 4.64822 83.9383 5.20022 83.2903 5.89622C81.4663 7.91222 79.9063 9.44822 78.6583 10.6002V9.37622Z" fill="white"/>
<path d="M101.835 19.3602C103.179 19.3602 104.667 19.2402 105.507 18.9042C105.843 18.7842 106.011 18.5682 106.083 18.2082C106.251 17.2002 106.539 15.3762 106.539 14.9682C106.539 14.7522 106.467 14.6082 106.323 14.6082C106.155 14.6082 106.083 14.6802 105.987 15.1122C105.843 15.7602 105.555 16.3362 105.291 16.6242C104.451 17.5122 103.419 17.6562 101.715 17.6562C98.0427 17.6562 95.8107 14.7042 95.8107 10.5762C95.8107 8.32022 96.4107 6.44822 97.6827 5.44022C98.4507 4.79222 99.5307 4.50422 100.659 4.50422C102.747 4.50422 104.211 5.00822 104.955 5.80022C105.699 6.59222 105.723 7.45622 105.747 7.86422C105.771 8.15222 105.843 8.32022 106.011 8.32022C106.203 8.32022 106.275 8.12822 106.299 7.81622C106.347 7.21622 106.371 6.01622 106.395 5.32022C106.443 4.62422 106.491 4.02422 106.491 3.85622C106.491 3.73622 106.491 3.59222 106.251 3.56822C105.603 3.56822 105.171 3.47222 104.163 3.30422C103.347 3.18422 102.291 3.06422 101.091 3.06422C98.0187 3.06422 95.8107 3.64022 93.9147 5.17622C91.7307 6.92822 91.2027 9.54422 91.2027 10.9602C91.2027 13.2162 91.8027 15.3282 93.9387 17.0802C96.2667 18.9282 99.0507 19.3602 101.835 19.3602Z" fill="white"/>
<path d="M115.429 9.66422C115.357 9.66422 115.285 9.66422 115.285 9.54422V9.11222C115.285 6.64022 115.285 5.77622 115.357 5.10422C115.405 4.55222 115.501 4.04822 116.125 3.92822C116.317 3.88022 116.509 3.85622 116.797 3.83222C117.085 3.80822 117.181 3.71222 117.181 3.61622C117.181 3.47222 117.133 3.35222 116.725 3.35222C115.789 3.35222 114.133 3.42422 113.245 3.42422C112.765 3.42422 110.845 3.35222 109.573 3.35222C109.333 3.35222 109.117 3.42422 109.117 3.56822C109.117 3.64022 109.141 3.80822 109.477 3.83222C109.741 3.85622 109.813 3.85622 110.125 3.90422C110.941 4.02422 111.109 4.40822 111.157 5.10422C111.205 5.77622 111.229 6.20822 111.229 9.44822V13.0242C111.229 15.0402 111.205 16.3842 111.109 17.2722C111.061 17.9202 110.869 18.4482 110.317 18.5202C110.053 18.5682 109.933 18.5682 109.693 18.5922C109.405 18.6162 109.333 18.7122 109.333 18.8562C109.333 19.0002 109.549 19.0722 109.789 19.0722C110.437 19.0722 112.957 19.0002 113.053 19.0002C113.173 19.0002 116.005 19.0722 117.205 19.0722C117.541 19.0722 117.613 18.9522 117.613 18.8562C117.613 18.7122 117.493 18.6162 117.205 18.5922C117.037 18.5682 116.701 18.5682 116.389 18.4962C115.741 18.4242 115.477 18.0162 115.405 17.3922C115.309 16.5282 115.285 15.8802 115.285 13.8882V11.6802C115.285 11.5602 115.357 11.5362 115.429 11.5362H121.765C121.837 11.5362 121.909 11.5842 121.909 11.6802V13.2642C121.909 15.2802 121.885 16.4802 121.789 17.3442C121.717 18.0402 121.573 18.4242 121.045 18.5202C120.853 18.5682 120.685 18.5682 120.421 18.5922C120.157 18.5922 120.037 18.7362 120.037 18.8322C120.037 18.9522 120.085 19.0722 120.493 19.0722C121.597 19.0722 123.301 19.0002 123.637 19.0002C123.973 19.0002 126.349 19.0722 127.813 19.0722C128.077 19.0722 128.293 19.0242 128.293 18.8562C128.293 18.7122 128.173 18.6162 127.885 18.5922C127.693 18.5682 127.285 18.5682 126.997 18.5202C126.349 18.4242 126.157 18.0882 126.085 17.3682C125.989 16.5282 125.965 15.0402 125.965 13.0242V9.37622C125.965 6.13622 125.965 5.65622 126.037 4.98422C126.109 4.31222 126.277 4.00022 126.829 3.92822C127.069 3.88022 127.093 3.88022 127.501 3.83222C127.765 3.83222 127.837 3.71222 127.837 3.59222C127.837 3.44822 127.789 3.35222 127.405 3.35222C126.469 3.35222 123.781 3.42422 123.685 3.42422C123.565 3.42422 121.477 3.35222 120.205 3.35222C119.869 3.35222 119.773 3.44822 119.773 3.59222C119.773 3.66422 119.893 3.83222 120.181 3.83222C120.445 3.85622 120.757 3.88022 120.925 3.90422C121.645 4.02422 121.813 4.40822 121.861 4.93622C121.909 5.60822 121.909 5.87222 121.909 9.11222V9.54422C121.909 9.66422 121.837 9.66422 121.765 9.66422H115.429Z" fill="white"/>
<path d="M139.11 15.1122C139.182 15.1122 139.278 15.1602 139.302 15.2322L140.622 18.1842C140.742 18.4482 140.526 18.4722 140.334 18.5442C140.19 18.5922 140.046 18.6402 140.046 18.7842C140.046 18.9042 140.19 19.0002 140.478 19.0002C141.75 19.0242 144.246 19.0482 146.67 19.0722C146.91 19.0722 147.102 19.0002 147.102 18.8322C147.102 18.7122 146.958 18.5922 146.694 18.5922C146.574 18.5922 146.406 18.5682 146.214 18.5442C145.398 18.4242 145.014 17.8722 144.27 16.3362C142.83 13.1682 139.11 5.36822 138.582 4.19222C138.174 3.37622 137.982 3.06422 137.742 3.06422C137.478 3.06422 137.238 3.37622 136.734 4.48022L130.974 16.7682C130.35 18.1842 129.798 18.4722 128.766 18.5922C128.502 18.5922 128.382 18.6882 128.382 18.8322C128.382 18.9762 128.478 19.0722 128.814 19.0722C129.846 19.0722 131.238 19.0002 131.478 19.0002C132.702 19.0002 133.422 19.0722 134.478 19.0722C134.766 19.0722 134.886 18.9762 134.886 18.8082C134.886 18.7122 134.814 18.6162 134.502 18.5922C133.95 18.5442 133.038 18.5202 133.038 17.8242C133.038 17.5602 133.182 17.0802 133.398 16.5522L133.902 15.3282C133.926 15.2562 133.998 15.1122 134.142 15.1122H139.11ZM134.814 13.2162C134.766 13.2162 134.718 13.1922 134.742 13.1202L136.518 8.84822C136.566 8.75222 136.566 8.70422 136.638 8.82422L138.534 13.1202C138.558 13.1682 138.558 13.2162 138.414 13.2162H134.814Z" fill="white"/>
<path d="M149.613 13.0242C149.613 15.0882 149.589 16.5282 149.469 17.3922C149.421 17.9922 149.229 18.4242 148.773 18.5202C148.485 18.5682 148.269 18.5682 148.077 18.5922C147.837 18.5922 147.717 18.7122 147.717 18.8322C147.717 19.0002 147.861 19.0722 148.221 19.0722C148.893 19.0722 151.389 19.0002 151.437 19.0002C151.557 19.0002 154.029 19.0722 155.517 19.0722C155.877 19.0722 155.973 18.9522 155.973 18.8562C155.973 18.7362 155.877 18.5922 155.517 18.5922C155.277 18.5682 154.917 18.5682 154.629 18.4962C153.981 18.3522 153.837 17.9922 153.789 17.4642C153.693 16.5762 153.669 14.6082 153.669 13.0242V9.37622C153.669 6.13622 153.669 5.63222 153.741 4.96022C153.837 4.24022 154.029 4.02422 154.605 3.90422C154.845 3.85622 154.869 3.85622 155.085 3.83222C155.349 3.80822 155.517 3.76022 155.517 3.59222C155.517 3.44822 155.469 3.35222 155.085 3.35222C154.269 3.35222 151.557 3.42422 151.437 3.42422C151.365 3.42422 149.061 3.35222 148.221 3.35222C147.813 3.35222 147.741 3.47222 147.741 3.59222C147.741 3.73622 147.861 3.80822 148.149 3.83222C148.437 3.85622 148.677 3.88022 148.821 3.92822C149.349 4.00022 149.493 4.38422 149.541 4.93622C149.613 5.58422 149.613 6.13622 149.613 9.37622V13.0242Z" fill="white"/>
<path d="M159.896 16.0242C159.824 17.9442 159.632 18.4242 158.744 18.5442C158.48 18.5682 158.36 18.5682 158.144 18.5922C157.856 18.6162 157.76 18.7122 157.76 18.8322C157.76 19.0002 157.88 19.0722 158.24 19.0722C158.96 19.0722 160.712 19.0002 161.312 19.0002C162.824 19.0242 163.472 19.0722 164.072 19.0722C164.456 19.0722 164.6 19.0002 164.6 18.8322C164.6 18.7122 164.504 18.6402 164.144 18.5922C163.712 18.5682 163.472 18.5442 163.064 18.4482C162.416 18.2802 162.368 17.6802 162.32 16.2402L162.104 9.49622C163.952 11.1762 165.8 12.7602 166.952 13.7922C167.984 14.7282 169.688 16.1922 171.176 17.4402C172.88 18.8322 173.624 19.3602 173.984 19.3602C174.296 19.3602 174.44 19.1442 174.44 17.9442C174.464 13.7682 174.536 9.52022 174.728 5.60822C174.8 4.28822 175.04 3.97622 175.76 3.88022C175.904 3.85622 175.976 3.85622 176.24 3.83222C176.552 3.80822 176.6 3.66422 176.6 3.56822C176.6 3.44822 176.504 3.35222 176.144 3.35222C175.28 3.35222 174.152 3.42422 173.624 3.42422C172.664 3.42422 171.176 3.35222 170.384 3.35222C170.168 3.35222 169.976 3.42422 169.976 3.59222C169.976 3.68822 170.072 3.80822 170.36 3.83222C170.696 3.85622 170.96 3.88022 171.224 3.92822C172.16 4.07222 172.304 4.62422 172.352 5.77622L172.472 13.1202C171.848 12.5682 170.72 11.6082 168.344 9.52022C165.68 7.16822 162.368 4.33622 161.336 3.52022C160.736 3.06422 160.64 3.06422 160.52 3.06422C160.208 3.06422 160.136 3.42422 160.112 4.12022C160.016 6.90422 160.016 11.7282 159.896 16.0242Z" fill="white"/>
<path d="M191.745 17.9202C192.177 19.0482 192.345 19.4082 192.657 19.4082C193.041 19.4082 193.329 18.9042 193.713 18.0402C194.913 15.4722 197.049 10.3602 198.033 7.91222L202.833 18.2082C203.217 19.0482 203.409 19.4082 203.721 19.4082C204.129 19.4082 204.393 18.7362 204.681 17.9442C206.433 13.3842 208.713 6.92822 209.745 4.07222C210.369 2.36822 210.729 1.67222 211.425 1.52822C211.785 1.43222 211.953 1.43222 212.193 1.40822C212.481 1.40822 212.577 1.31222 212.577 1.16822C212.577 0.976222 212.385 0.952222 212.097 0.952222C211.257 0.952222 209.553 1.00022 209.385 1.00022C209.169 1.00022 207.945 0.928223 206.409 0.928223C205.953 0.928223 205.905 1.04822 205.905 1.19222C205.905 1.31222 206.097 1.40822 206.313 1.40822C207.585 1.52822 207.777 1.72022 207.777 2.22422C207.777 2.56022 207.585 3.28022 207.297 4.26422C206.625 6.64022 205.377 10.7202 204.681 12.7362L199.881 2.10422C199.521 1.40822 199.377 0.976222 199.065 0.976222C198.825 0.976222 198.633 1.21622 198.393 1.84022L194.145 12.7122C193.353 10.6482 191.553 5.05622 191.289 4.19222C190.953 3.08822 190.713 2.34422 190.713 2.03222C190.713 1.74422 190.857 1.55222 191.145 1.50422C191.409 1.43222 191.505 1.43222 191.745 1.40822C191.961 1.40822 192.129 1.33622 192.129 1.16822C192.129 1.00022 191.961 0.928223 191.625 0.928223C190.329 0.928223 188.625 1.00022 188.049 1.00022C187.689 1.00022 186.057 0.928223 184.569 0.928223C184.233 0.928223 184.065 1.00022 184.065 1.14422C184.065 1.28822 184.161 1.38422 184.449 1.40822C184.689 1.45622 184.905 1.45622 185.217 1.55222C185.769 1.72022 186.033 2.24822 186.417 3.28022L191.745 17.9202Z" fill="white"/>
<path d="M219.284 15.1122C219.356 15.1122 219.452 15.1602 219.476 15.2322L220.796 18.1842C220.916 18.4482 220.7 18.4722 220.508 18.5442C220.364 18.5922 220.22 18.6402 220.22 18.7842C220.22 18.9042 220.364 19.0002 220.652 19.0002C221.924 19.0242 224.42 19.0482 226.844 19.0722C227.084 19.0722 227.276 19.0002 227.276 18.8322C227.276 18.7122 227.132 18.5922 226.868 18.5922C226.748 18.5922 226.58 18.5682 226.388 18.5442C225.572 18.4242 225.188 17.8722 224.444 16.3362C223.004 13.1682 219.284 5.36822 218.756 4.19222C218.348 3.37622 218.156 3.06422 217.916 3.06422C217.652 3.06422 217.412 3.37622 216.908 4.48022L211.148 16.7682C210.524 18.1842 209.972 18.4722 208.94 18.5922C208.676 18.5922 208.556 18.6882 208.556 18.8322C208.556 18.9762 208.652 19.0722 208.988 19.0722C210.02 19.0722 211.412 19.0002 211.652 19.0002C212.876 19.0002 213.596 19.0722 214.652 19.0722C214.94 19.0722 215.06 18.9762 215.06 18.8082C215.06 18.7122 214.988 18.6162 214.676 18.5922C214.124 18.5442 213.212 18.5202 213.212 17.8242C213.212 17.5602 213.356 17.0802 213.572 16.5522L214.076 15.3282C214.1 15.2562 214.172 15.1122 214.316 15.1122H219.284ZM214.988 13.2162C214.94 13.2162 214.892 13.1922 214.916 13.1202L216.692 8.84822C216.74 8.75222 216.74 8.70422 216.812 8.82422L218.708 13.1202C218.732 13.1682 218.732 13.2162 218.588 13.2162H214.988Z" fill="white"/>
<path d="M229.786 13.0242C229.786 15.0642 229.762 16.4562 229.666 17.3202C229.618 18.0642 229.426 18.4242 228.994 18.5202C228.754 18.5682 228.442 18.5682 228.25 18.5922C228.01 18.5922 227.866 18.6882 227.866 18.8082C227.866 18.9522 227.938 19.0722 228.298 19.0722C228.994 19.0722 231.25 19.0002 231.49 19.0002C231.61 19.0002 234.154 19.0722 235.618 19.0722C235.93 19.0722 236.026 18.9762 236.026 18.8562C236.026 18.7362 236.026 18.6162 235.642 18.5922C235.378 18.5682 234.946 18.5442 234.658 18.4482C234.01 18.2802 233.89 17.8482 233.842 17.3202C233.794 16.6962 233.746 15.6882 233.746 14.1282V12.8562C233.746 12.7362 233.818 12.6882 233.914 12.6882L235.354 12.7122C235.474 12.7122 235.57 12.7602 235.594 12.8322C236.002 13.4562 236.362 14.1522 237.37 15.8322C238.138 17.0802 238.81 17.9202 239.434 18.3282C240.226 18.8322 241.258 19.0722 243.754 19.0722H245.626C245.818 19.0722 246.058 19.0482 246.058 18.8562C246.058 18.7362 245.938 18.6162 245.722 18.5922C245.554 18.5682 245.362 18.5682 245.146 18.5202C244.474 18.4242 243.97 18.1122 242.866 16.8402C241.546 15.3762 240.01 13.0962 238.882 11.3682C240.634 10.2402 241.738 8.92022 241.738 7.28822C241.738 5.65622 240.85 4.62422 239.698 4.04822C238.834 3.56822 237.346 3.35222 235.186 3.35222C234.106 3.35222 231.85 3.42422 231.49 3.42422C231.226 3.42422 229.018 3.35222 228.154 3.35222C227.794 3.35222 227.722 3.47222 227.722 3.59222C227.722 3.71222 227.818 3.83222 228.082 3.83222C228.25 3.85622 228.442 3.85622 228.826 3.92822C229.282 3.97622 229.666 4.26422 229.714 5.15222C229.762 5.82422 229.786 6.13622 229.786 9.37622V13.0242ZM233.746 5.12822C233.746 4.96022 233.794 4.93622 233.89 4.88822C234.01 4.81622 234.37 4.81622 234.682 4.81622C235.762 4.81622 237.778 5.51222 237.778 8.46422C237.778 9.80822 237.418 10.6482 237.034 10.9362C236.698 11.1762 236.194 11.2722 235.714 11.2722C235.09 11.2722 234.346 11.2002 233.938 10.9842C233.842 10.9122 233.746 10.8162 233.746 10.6722V5.12822Z" fill="white"/>
</svg>
