<svg viewBox="0 0 113 12" fill="none" xmlns="http://www.w3.org/2000/svg">
<g opacity="0.5">
<path d="M0.828052 5.65616C0.660052 5.65616 0.612052 5.66816 0.588052 5.75216L0.432052 6.37616C0.420052 6.47216 0.420052 6.54416 0.480052 6.54416C0.540052 6.54416 0.708052 6.47216 0.948052 6.40016C1.48805 6.23216 2.50805 6.07616 3.32405 5.93216C3.55205 5.88416 3.72005 5.84816 3.72005 5.75216C3.72005 5.69216 3.68405 5.65616 3.42005 5.65616H0.828052Z" fill="white"/>
<path d="M5.90949 6.55616C5.90949 7.68417 5.89749 8.52416 5.86149 9.04016C5.82549 9.56816 5.74149 9.74817 5.48949 9.82016C5.40549 9.84416 5.29749 9.85616 5.17749 9.86816C5.06949 9.88016 5.04549 9.90416 5.04549 9.94016C5.04549 10.0122 5.10549 10.0362 5.23749 10.0362C5.52549 10.0362 6.06549 10.0122 6.30549 10.0002H6.41349C6.47349 10.0002 7.21749 10.0362 7.88949 10.0362C8.02149 10.0362 8.08149 10.0122 8.08149 9.95216C8.08149 9.90416 8.04549 9.88016 7.93749 9.86816C7.80549 9.85616 7.60149 9.84416 7.44549 9.82016C7.12149 9.78416 6.98949 9.52016 6.95349 8.98016C6.91749 8.42816 6.91749 7.57616 6.91749 6.55616V5.53616C6.91749 5.45216 6.94149 5.42816 7.00149 5.42816C7.20549 5.42816 8.51349 5.42816 8.81349 5.46416C9.43749 5.54816 9.47349 5.96816 9.49749 6.23216C9.50949 6.35216 9.52149 6.43616 9.59349 6.43616C9.65349 6.43616 9.66549 6.36416 9.67749 6.23216C9.68949 6.05216 9.68949 5.76416 9.72549 5.40416C9.76149 5.00816 9.82149 4.80416 9.82149 4.73216C9.82149 4.67216 9.80949 4.63616 9.76149 4.63616C9.71349 4.63616 9.68949 4.68416 9.62949 4.75616C9.46149 4.96016 9.30549 4.97216 8.66949 4.98416C8.17749 4.99616 7.49349 4.99616 7.00149 4.99616C6.92949 4.99616 6.91749 4.96016 6.91749 4.88816V1.57616C6.91749 1.48016 6.95349 1.44416 7.02549 1.44416C7.63749 1.45616 8.24949 1.46816 8.86149 1.48016C9.20949 1.49216 9.42549 1.58816 9.56949 1.70816C9.73749 1.85216 9.78549 2.14016 9.79749 2.30816C9.80949 2.41616 9.82149 2.46416 9.88149 2.46416C9.92949 2.46416 9.98949 2.36816 9.98949 2.22416C10.0135 1.88816 10.0135 1.69616 10.0615 1.34816C10.0855 1.20416 10.1335 1.03616 10.1335 0.976164C10.1335 0.916164 10.1095 0.868164 10.0615 0.868164C10.0375 0.868164 9.98949 0.892164 9.95349 0.916164C9.85749 0.976164 9.64149 0.976164 9.36549 0.988164C9.08949 1.00016 6.65349 1.00016 6.41349 1.00016C5.98149 1.00016 5.52549 0.964164 5.05749 0.964164C4.92549 0.964164 4.86549 0.988164 4.86549 1.06016C4.86549 1.12016 4.96149 1.13216 5.06949 1.14416C5.17749 1.15616 5.29749 1.15616 5.36949 1.16816C5.76549 1.25216 5.86149 1.44416 5.88549 1.85216C5.90949 2.23616 5.90949 2.57216 5.90949 4.44416V6.55616Z" fill="white"/>
<path d="M12.3483 7.07216C12.3483 7.97216 12.3483 8.82416 12.2883 9.25616C12.2523 9.54416 12.2163 9.78416 12.0123 9.83216C11.9163 9.85616 11.7843 9.86816 11.7243 9.86816C11.6163 9.86816 11.5683 9.90416 11.5683 9.95216C11.5683 10.0122 11.6523 10.0362 11.7603 10.0362C12.0963 10.0362 12.8043 10.0002 12.8403 10.0002C12.9003 10.0002 13.5963 10.0362 14.2083 10.0362C14.3283 10.0362 14.3763 10.0002 14.3763 9.95216C14.3763 9.90416 14.3523 9.88016 14.2443 9.86816C14.1963 9.86816 13.9443 9.85616 13.7883 9.82016C13.4763 9.74817 13.4283 9.61617 13.3803 9.26816C13.3203 8.83616 13.3323 7.99616 13.3323 7.07216V5.27216C13.3323 3.68816 13.3203 3.41216 13.3443 3.08816C13.3683 2.74016 13.4043 2.56016 13.7523 2.51216C13.8363 2.50016 13.8963 2.50016 13.9683 2.48816C14.0643 2.47616 14.1003 2.45216 14.1003 2.40416C14.1003 2.34416 14.0403 2.32016 13.9203 2.32016C13.5843 2.32016 12.8883 2.35616 12.8403 2.35616C12.8043 2.35616 12.1203 2.32016 11.7483 2.32016C11.6163 2.32016 11.5683 2.34416 11.5683 2.40416C11.5683 2.45216 11.6163 2.47616 11.7003 2.48816C11.7723 2.50016 11.8563 2.50016 11.9763 2.52416C12.2283 2.57216 12.3003 2.75216 12.3243 3.07616C12.3483 3.40016 12.3483 3.68816 12.3483 5.27216V7.07216Z" fill="white"/>
<path d="M16.7236 8.53616C16.7236 9.41216 16.6636 9.73617 16.3996 9.82016C16.2436 9.86817 16.1116 9.86816 16.0276 9.86816C15.9076 9.86816 15.8596 9.90416 15.8596 9.95216C15.8596 10.0242 15.9316 10.0362 16.0396 10.0362C16.5556 10.0362 16.9996 10.0002 17.0836 10.0002C17.1676 10.0002 17.5996 10.0362 18.2476 10.0362C18.3796 10.0362 18.4396 10.0122 18.4396 9.95216C18.4396 9.90416 18.3916 9.86816 18.2956 9.86816C18.1996 9.86816 17.9956 9.86817 17.8036 9.82016C17.5036 9.74817 17.4316 9.43616 17.4076 8.60816L17.2516 3.91616C17.5516 4.22816 18.7516 5.47616 19.9996 6.77216C21.0436 7.79216 22.7116 9.44816 22.7596 9.47216C23.3476 10.0242 23.4676 10.1082 23.5516 10.1082C23.6356 10.1082 23.6596 10.0482 23.6596 9.44816L23.6836 3.42416C23.6836 2.70416 23.7676 2.58416 24.0436 2.52416C24.1756 2.50016 24.2716 2.50016 24.3436 2.48816C24.4156 2.47616 24.4516 2.44016 24.4516 2.39216C24.4516 2.33216 24.4156 2.32016 24.2836 2.32016C23.8156 2.32016 23.4436 2.35616 23.3236 2.35616C23.2156 2.35616 22.7116 2.32016 22.1956 2.32016C22.0756 2.32016 21.9796 2.33216 21.9796 2.39216C21.9796 2.44016 22.0036 2.48816 22.1236 2.48816C22.2076 2.48816 22.3876 2.50016 22.5916 2.53616C22.9156 2.62016 22.9876 2.83616 22.9996 3.48416L23.1316 8.47616C22.8196 8.18816 21.6196 6.95216 20.6836 6.04016C19.0036 4.32416 17.3356 2.62016 17.2276 2.50016C17.1436 2.41616 16.9396 2.17616 16.8556 2.17616C16.7596 2.17616 16.7236 2.29616 16.7236 2.66816C16.7356 4.66016 16.7236 2.81216 16.7236 8.53616Z" fill="white"/>
<path d="M27.114 7.04816C27.114 8.02016 27.126 8.83616 27.054 9.28016C27.018 9.54416 26.946 9.79616 26.742 9.83216C26.646 9.85616 26.562 9.86816 26.466 9.86816C26.37 9.86816 26.334 9.91616 26.334 9.95216C26.334 10.0122 26.394 10.0362 26.502 10.0362C26.682 10.0362 26.97 10.0122 27.198 10.0122C27.426 10.0002 27.582 10.0002 27.606 10.0002C27.642 10.0002 28.014 10.0362 28.47 10.0602C28.926 10.0962 29.514 10.1202 29.97 10.1202C31.794 10.1202 32.706 9.41216 33.174 8.94416C33.762 8.34416 34.314 7.34816 34.314 6.07616C34.314 4.86416 33.822 4.02416 33.294 3.49616C32.022 2.21216 30.054 2.32016 28.998 2.32016C28.326 2.32016 27.702 2.35616 27.618 2.35616C27.582 2.35616 26.826 2.32016 26.334 2.32016C26.226 2.32016 26.154 2.34416 26.154 2.41616C26.154 2.45216 26.214 2.48816 26.274 2.48816C26.37 2.48816 26.55 2.50016 26.622 2.51216C26.97 2.58416 27.066 2.75216 27.09 3.07616C27.114 3.38816 27.114 3.68816 27.114 5.27216V7.04816ZM28.098 5.08016C28.098 4.36016 28.098 3.34016 28.11 2.99216C28.11 2.88416 28.146 2.83616 28.242 2.78816C28.314 2.74016 28.686 2.70416 28.854 2.70416C30.042 2.70416 31.218 2.82416 32.238 3.84416C32.646 4.24016 33.27 5.06816 33.27 6.42416C33.27 7.38416 33.018 8.28416 32.49 8.81216C31.866 9.43616 30.978 9.74816 29.994 9.74816C28.746 9.74816 28.362 9.49617 28.23 9.29216C28.146 9.18417 28.122 8.86016 28.11 8.48816C28.11 8.30816 28.098 7.37216 28.098 6.29216V5.08016Z" fill="white"/>
<path d="M35.2291 9.34016C35.2291 9.36416 35.2531 9.42416 35.3251 9.48416C35.5651 9.68816 35.6611 9.92816 35.6611 10.0842C35.6611 10.3482 35.5891 10.6122 35.1931 11.1642C35.1571 11.2122 34.9531 11.4522 35.1091 11.4522C35.1691 11.4522 35.3011 11.3442 35.4331 11.2002C36.0691 10.5282 36.3691 9.94016 36.3691 9.47216C36.3691 9.00416 36.1291 8.64416 35.9371 8.64416C35.6371 8.64416 35.2291 9.05216 35.2291 9.34016Z" fill="white"/>
<path d="M44.5155 8.06816C44.5155 7.63616 44.5155 7.33616 44.5395 6.98816C44.5635 6.64016 44.6355 6.42416 44.9235 6.38816C45.0195 6.37616 45.0435 6.37616 45.1275 6.37616C45.2355 6.37616 45.2715 6.32816 45.2715 6.29216C45.2715 6.23216 45.2235 6.20816 45.1035 6.20816C44.7795 6.20816 44.0715 6.23216 44.0235 6.23216C43.9755 6.23216 43.2795 6.20816 42.7995 6.20816C42.6675 6.20816 42.6195 6.23216 42.6195 6.29216C42.6195 6.32816 42.6675 6.37616 42.7635 6.37616C42.8595 6.37616 42.9795 6.38816 43.0515 6.40016C43.4715 6.46016 43.5315 6.61616 43.5315 7.40816V9.13616C43.5315 9.30416 43.4475 9.42416 43.3275 9.49616C43.0515 9.64016 42.5235 9.70016 42.1875 9.70016C41.1435 9.70016 40.2555 9.35216 39.4635 8.58416C39.1515 8.28416 38.3715 7.22816 38.3715 5.80016C38.3715 4.61216 38.7675 3.70016 39.3795 3.23216C40.1835 2.62016 40.9395 2.59616 41.5875 2.59616C42.9315 2.59616 43.7955 3.04016 44.0715 3.43616C44.2515 3.70016 44.2995 4.07216 44.2995 4.18016C44.3115 4.25216 44.3235 4.32416 44.3835 4.32416C44.4675 4.32416 44.4795 4.27616 44.4795 4.10816C44.4795 3.05216 44.5635 2.69216 44.5635 2.54816C44.5635 2.50016 44.5635 2.45216 44.4675 2.45216C44.2155 2.44016 43.7475 2.38016 43.5555 2.34416C43.1235 2.27216 42.6075 2.17616 41.8395 2.17616C41.1075 2.17616 40.0875 2.24816 39.1635 2.78816C38.1795 3.37616 37.3515 4.54016 37.3515 6.17216C37.3515 7.54016 37.9995 8.54816 38.6475 9.08816C39.8715 10.1082 41.3835 10.1682 42.1635 10.1682C42.7515 10.1682 43.7115 10.0482 44.3715 9.71216C44.5035 9.64017 44.5155 9.62816 44.5155 9.14816V8.06816Z" fill="white"/>
<path d="M47.6804 7.07216C47.6804 7.98416 47.6684 8.47616 47.6564 8.88416C47.6324 9.62817 47.4884 9.78416 47.2724 9.83216C47.1884 9.85616 47.1044 9.86816 47.0324 9.86816C46.9724 9.86816 46.9244 9.90416 46.9244 9.95216C46.9244 10.0122 46.9844 10.0362 47.0924 10.0362C47.3804 10.0362 47.6084 10.0002 47.8844 10.0002C48.3284 10.0002 48.8804 10.0242 49.3004 10.0362C49.7204 10.0362 50.0564 10.0602 50.8484 10.0602C51.2444 10.0602 51.3284 10.0362 51.3764 9.79616C51.4124 9.59216 51.5084 8.83616 51.5084 8.75216C51.5084 8.68016 51.5084 8.57216 51.4364 8.57216C51.3884 8.57216 51.3524 8.62016 51.3284 8.74016C51.2324 9.18416 51.1484 9.42416 50.7884 9.53216C50.4884 9.61616 50.1044 9.60416 49.8764 9.60416C49.4684 9.60416 49.1804 9.58016 49.0004 9.49616C48.7484 9.38816 48.6884 9.16016 48.6644 8.71616C48.6524 8.51216 48.6644 7.45616 48.6644 7.08416V6.20816C48.6644 6.16016 48.6764 6.12416 48.7484 6.12416C48.9404 6.12416 49.9124 6.14816 50.1884 6.17216C50.6444 6.20816 50.7164 6.37616 50.7644 6.53216C50.7884 6.62816 50.8004 6.74816 50.8004 6.82016C50.8004 6.90416 50.8124 6.97616 50.8724 6.97616C50.9204 6.97616 50.9444 6.94016 50.9564 6.84416C50.9684 6.68816 50.9684 6.44816 51.0044 6.11216C51.0404 5.76416 51.0884 5.53616 51.0884 5.47616C51.0884 5.41616 51.0644 5.40416 51.0404 5.40416C50.9924 5.40416 50.9564 5.42816 50.9084 5.50016C50.8124 5.63216 50.6324 5.66816 50.3564 5.68016C50.1044 5.70416 48.8804 5.71616 48.7364 5.71616C48.6764 5.71616 48.6644 5.66816 48.6644 5.59616V2.87216C48.6644 2.80016 48.6884 2.77616 48.7244 2.77616C48.7484 2.77616 49.9364 2.78816 50.0924 2.80016C50.6924 2.83616 50.8004 2.92016 50.8724 3.16016C50.9084 3.24416 50.9444 3.36416 50.9564 3.54416C50.9564 3.62816 50.9804 3.67616 51.0404 3.67616C51.1004 3.67616 51.1244 3.60416 51.1244 3.49616C51.1364 3.26816 51.1484 3.07616 51.1604 2.87216C51.1844 2.57216 51.2564 2.40416 51.2564 2.33216C51.2564 2.27216 51.2324 2.24816 51.2084 2.24816C51.1604 2.24816 51.1484 2.26016 51.0764 2.28416C50.9804 2.32016 50.8484 2.33216 50.6084 2.34416C50.3684 2.35616 48.2324 2.35616 48.1724 2.35616C47.5004 2.34416 47.1764 2.32016 46.9364 2.32016C46.8164 2.32016 46.7564 2.34416 46.7564 2.41616C46.7564 2.45216 46.8284 2.48816 46.9124 2.48816C47.0084 2.48816 47.1284 2.50016 47.2004 2.51216C47.5484 2.58416 47.6324 2.75216 47.6564 3.08816C47.6804 3.41216 47.6804 3.70016 47.6804 5.27216V7.07216Z" fill="white"/>
<path d="M56.5243 2.78816C56.8723 2.78816 57.2443 2.80016 57.7003 2.80016C58.9123 2.81216 59.0683 2.93216 59.1163 3.41216C59.1283 3.53216 59.1283 3.54416 59.1283 3.58016C59.1283 3.67616 59.1523 3.72416 59.2123 3.72416C59.2483 3.72416 59.2963 3.68816 59.2963 3.58016C59.2963 3.48416 59.3203 2.69216 59.3203 2.35616C59.3203 2.30816 59.2963 2.24816 59.2483 2.24816C59.2123 2.24816 59.1763 2.26016 59.0203 2.29616C58.8523 2.33216 58.4923 2.35616 58.1563 2.35616H54.2203C54.2083 2.35616 53.8723 2.34416 53.4523 2.29616C53.2363 2.27216 53.0083 2.16416 52.9243 2.16416C52.8883 2.16416 52.8523 2.21216 52.8163 2.35616C52.7443 2.68016 52.5643 3.47216 52.5763 3.54416C52.5763 3.60416 52.5883 3.65216 52.6363 3.65216C52.6843 3.65216 52.7083 3.64016 52.7443 3.55616C52.7683 3.49616 52.8163 3.35216 52.9243 3.18416C53.0923 2.93216 53.2603 2.81216 54.0283 2.80016C54.5083 2.78816 55.1443 2.78816 55.5403 2.78816V7.07216C55.5403 7.97216 55.5403 8.83616 55.4923 9.26816C55.4443 9.67616 55.4083 9.82016 55.1803 9.85616C55.0843 9.86817 55.0123 9.86816 54.9163 9.86816C54.8203 9.86816 54.7843 9.91616 54.7843 9.95216C54.7843 10.0122 54.8323 10.0362 54.9643 10.0362C55.2763 10.0362 55.9843 10.0002 56.0323 10.0002C56.0803 10.0002 56.7883 10.0362 57.4003 10.0362C57.5203 10.0362 57.5563 10.0002 57.5563 9.94016C57.5563 9.90416 57.5083 9.86816 57.4123 9.86816C57.3163 9.86816 57.0883 9.85616 56.9443 9.82016C56.6443 9.74817 56.6203 9.58016 56.5843 9.29216C56.5363 8.84817 56.5243 7.99616 56.5243 7.07216V2.78816Z" fill="white"/>
<path d="M59.3345 9.34016C59.3345 9.36416 59.3585 9.42416 59.4305 9.48416C59.6705 9.68816 59.7665 9.92816 59.7665 10.0842C59.7665 10.3482 59.6945 10.6122 59.2985 11.1642C59.2625 11.2122 59.0585 11.4522 59.2145 11.4522C59.2745 11.4522 59.4065 11.3442 59.5385 11.2002C60.1745 10.5282 60.4745 9.94016 60.4745 9.47216C60.4745 9.00416 60.2345 8.64416 60.0425 8.64416C59.7425 8.64416 59.3345 9.05216 59.3345 9.34016Z" fill="white"/>
<path d="M65.5969 10.1682C68.1529 10.1682 69.8449 8.29616 69.8449 6.00416C69.8449 3.59216 68.0329 2.17616 65.6569 2.17616C62.6929 2.17616 61.4569 4.56416 61.4569 6.16016C61.4569 7.98416 62.6569 10.1682 65.5969 10.1682ZM65.8969 9.76016C63.8809 9.76016 62.5729 8.20016 62.5729 5.84816C62.5729 3.58016 63.9169 2.54816 65.5849 2.54816C67.2289 2.54816 68.7169 3.89216 68.7169 6.30416C68.7169 9.35216 66.7009 9.76016 65.8969 9.76016Z" fill="white"/>
<path d="M73.3326 9.25616C73.5726 10.0122 73.6326 10.1682 73.7526 10.1682C73.8606 10.1682 73.9446 10.0242 74.1246 9.55616C74.4846 8.64416 75.9366 5.02016 76.3206 4.08416L78.3846 9.55616C78.5406 10.0002 78.6126 10.1682 78.7326 10.1682C78.8286 10.1682 78.9126 10.0002 79.2246 9.16016C79.5846 8.16416 80.6526 4.94816 81.1206 3.65216C81.3126 3.11216 81.4326 2.60816 81.7926 2.52416C81.9126 2.50016 82.0686 2.48816 82.1046 2.48816C82.2006 2.48816 82.2606 2.45216 82.2606 2.39216C82.2606 2.35616 82.2126 2.32016 82.1166 2.32016C81.7926 2.32016 81.2046 2.35616 81.1326 2.35616C81.0486 2.35616 80.5686 2.32016 80.1246 2.32016C79.9926 2.32016 79.9446 2.34416 79.9446 2.39216C79.9446 2.44016 79.9926 2.48816 80.1006 2.48816C80.6166 2.48816 80.6766 2.62016 80.6766 2.80016C80.6766 2.93216 80.6646 2.99216 80.5806 3.30416C80.2566 4.49216 79.2486 7.54016 78.9606 8.52416L76.8366 2.88416C76.6926 2.50016 76.6326 2.35616 76.5486 2.35616C76.4886 2.35616 76.4286 2.41616 76.2606 2.87216L74.0406 8.51216C73.8606 7.93616 72.8286 4.37216 72.6726 3.72416C72.5646 3.26816 72.4686 2.93216 72.4686 2.80016C72.4686 2.68016 72.4806 2.58416 72.5886 2.54816C72.7206 2.50016 72.8886 2.50016 72.9726 2.50016C73.0686 2.50016 73.1406 2.47616 73.1406 2.40416C73.1406 2.36816 73.1166 2.32016 72.9726 2.32016C72.4086 2.32016 71.8806 2.35616 71.7966 2.35616C71.6766 2.35616 71.1246 2.32016 70.5006 2.32016C70.3806 2.32016 70.3206 2.34416 70.3206 2.39216C70.3206 2.46416 70.4046 2.48816 70.4646 2.48816C70.5486 2.48816 70.7646 2.50016 70.8966 2.53616C71.2326 2.63216 71.3166 2.81216 71.4846 3.34016L73.3326 9.25616Z" fill="white"/>
<path d="M83.6025 8.53616C83.6025 9.41216 83.5425 9.73617 83.2785 9.82016C83.1225 9.86817 82.9905 9.86816 82.9065 9.86816C82.7865 9.86816 82.7385 9.90416 82.7385 9.95216C82.7385 10.0242 82.8105 10.0362 82.9185 10.0362C83.4345 10.0362 83.8785 10.0002 83.9625 10.0002C84.0465 10.0002 84.4785 10.0362 85.1265 10.0362C85.2585 10.0362 85.3185 10.0122 85.3185 9.95216C85.3185 9.90416 85.2705 9.86816 85.1745 9.86816C85.0785 9.86816 84.8745 9.86817 84.6825 9.82016C84.3825 9.74817 84.3105 9.43616 84.2865 8.60816L84.1305 3.91616C84.4305 4.22816 85.6305 5.47616 86.8785 6.77216C87.9225 7.79216 89.5905 9.44816 89.6385 9.47216C90.2265 10.0242 90.3465 10.1082 90.4305 10.1082C90.5145 10.1082 90.5385 10.0482 90.5385 9.44816L90.5625 3.42416C90.5625 2.70416 90.6465 2.58416 90.9225 2.52416C91.0545 2.50016 91.1505 2.50016 91.2225 2.48816C91.2945 2.47616 91.3305 2.44016 91.3305 2.39216C91.3305 2.33216 91.2945 2.32016 91.1625 2.32016C90.6945 2.32016 90.3225 2.35616 90.2025 2.35616C90.0945 2.35616 89.5905 2.32016 89.0745 2.32016C88.9545 2.32016 88.8585 2.33216 88.8585 2.39216C88.8585 2.44016 88.8825 2.48816 89.0025 2.48816C89.0865 2.48816 89.2665 2.50016 89.4705 2.53616C89.7945 2.62016 89.8665 2.83616 89.8785 3.48416L90.0105 8.47616C89.6985 8.18816 88.4985 6.95216 87.5625 6.04016C85.8825 4.32416 84.2145 2.62016 84.1065 2.50016C84.0225 2.41616 83.8185 2.17616 83.7345 2.17616C83.6385 2.17616 83.6025 2.29616 83.6025 2.66816C83.6145 4.66016 83.6025 2.81216 83.6025 8.53616Z" fill="white"/>
<path d="M93.9929 7.07216C93.9929 7.98416 93.9809 8.47616 93.9689 8.88416C93.9449 9.62817 93.8009 9.78416 93.5849 9.83216C93.5009 9.85616 93.4169 9.86816 93.3449 9.86816C93.2849 9.86816 93.2369 9.90416 93.2369 9.95216C93.2369 10.0122 93.2969 10.0362 93.4049 10.0362C93.6929 10.0362 93.9209 10.0002 94.1969 10.0002C94.6409 10.0002 95.1929 10.0242 95.6129 10.0362C96.0329 10.0362 96.3689 10.0602 97.1609 10.0602C97.5569 10.0602 97.6409 10.0362 97.6889 9.79616C97.7249 9.59216 97.8209 8.83616 97.8209 8.75216C97.8209 8.68016 97.8209 8.57216 97.7489 8.57216C97.7009 8.57216 97.6649 8.62016 97.6409 8.74016C97.5449 9.18416 97.4609 9.42416 97.1009 9.53216C96.8009 9.61616 96.4169 9.60416 96.1889 9.60416C95.7809 9.60416 95.4929 9.58016 95.3129 9.49616C95.0609 9.38816 95.0009 9.16016 94.9769 8.71616C94.9649 8.51216 94.9769 7.45616 94.9769 7.08416V6.20816C94.9769 6.16016 94.9889 6.12416 95.0609 6.12416C95.2529 6.12416 96.2249 6.14816 96.5009 6.17216C96.9569 6.20816 97.0289 6.37616 97.0769 6.53216C97.1009 6.62816 97.1129 6.74816 97.1129 6.82016C97.1129 6.90416 97.1249 6.97616 97.1849 6.97616C97.2329 6.97616 97.2569 6.94016 97.2689 6.84416C97.2809 6.68816 97.2809 6.44816 97.3169 6.11216C97.3529 5.76416 97.4009 5.53616 97.4009 5.47616C97.4009 5.41616 97.3769 5.40416 97.3529 5.40416C97.3049 5.40416 97.2689 5.42816 97.2209 5.50016C97.1249 5.63216 96.9449 5.66816 96.6689 5.68016C96.4169 5.70416 95.1929 5.71616 95.0489 5.71616C94.9889 5.71616 94.9769 5.66816 94.9769 5.59616V2.87216C94.9769 2.80016 95.0009 2.77616 95.0369 2.77616C95.0609 2.77616 96.2489 2.78816 96.4049 2.80016C97.0049 2.83616 97.1129 2.92016 97.1849 3.16016C97.2209 3.24416 97.2569 3.36416 97.2689 3.54416C97.2689 3.62816 97.2929 3.67616 97.3529 3.67616C97.4129 3.67616 97.4369 3.60416 97.4369 3.49616C97.4489 3.26816 97.4609 3.07616 97.4729 2.87216C97.4969 2.57216 97.5689 2.40416 97.5689 2.33216C97.5689 2.27216 97.5449 2.24816 97.5209 2.24816C97.4729 2.24816 97.4609 2.26016 97.3889 2.28416C97.2929 2.32016 97.1609 2.33216 96.9209 2.34416C96.6809 2.35616 94.5449 2.35616 94.4849 2.35616C93.8129 2.34416 93.4889 2.32016 93.2489 2.32016C93.1289 2.32016 93.0689 2.34416 93.0689 2.41616C93.0689 2.45216 93.1409 2.48816 93.2249 2.48816C93.3209 2.48816 93.4409 2.50016 93.5129 2.51216C93.8609 2.58416 93.9449 2.75216 93.9689 3.08816C93.9929 3.41216 93.9929 3.70016 93.9929 5.27216V7.07216Z" fill="white"/>
<path d="M100.239 7.04816C100.239 8.02016 100.251 8.83616 100.179 9.28016C100.143 9.54416 100.071 9.79616 99.867 9.83216C99.771 9.85616 99.687 9.86816 99.591 9.86816C99.495 9.86816 99.459 9.91616 99.459 9.95216C99.459 10.0122 99.519 10.0362 99.627 10.0362C99.807 10.0362 100.095 10.0122 100.323 10.0122C100.551 10.0002 100.707 10.0002 100.731 10.0002C100.767 10.0002 101.139 10.0362 101.595 10.0602C102.051 10.0962 102.639 10.1202 103.095 10.1202C104.919 10.1202 105.831 9.41216 106.299 8.94416C106.887 8.34416 107.439 7.34816 107.439 6.07616C107.439 4.86416 106.947 4.02416 106.419 3.49616C105.147 2.21216 103.179 2.32016 102.123 2.32016C101.451 2.32016 100.827 2.35616 100.743 2.35616C100.707 2.35616 99.951 2.32016 99.459 2.32016C99.351 2.32016 99.279 2.34416 99.279 2.41616C99.279 2.45216 99.339 2.48816 99.399 2.48816C99.495 2.48816 99.675 2.50016 99.747 2.51216C100.095 2.58416 100.191 2.75216 100.215 3.07616C100.239 3.38816 100.239 3.68816 100.239 5.27216V7.04816ZM101.223 5.08016C101.223 4.36016 101.223 3.34016 101.235 2.99216C101.235 2.88416 101.271 2.83616 101.367 2.78816C101.439 2.74016 101.811 2.70416 101.979 2.70416C103.167 2.70416 104.343 2.82416 105.363 3.84416C105.771 4.24016 106.395 5.06816 106.395 6.42416C106.395 7.38416 106.143 8.28416 105.615 8.81216C104.991 9.43616 104.103 9.74816 103.119 9.74816C101.871 9.74816 101.487 9.49617 101.355 9.29216C101.271 9.18417 101.247 8.86016 101.235 8.48816C101.235 8.30816 101.223 7.37216 101.223 6.29216V5.08016Z" fill="white"/>
<path d="M109.402 5.65616C109.234 5.65616 109.186 5.66816 109.162 5.75216L109.006 6.37616C108.994 6.47216 108.994 6.54416 109.054 6.54416C109.114 6.54416 109.282 6.47216 109.522 6.40016C110.062 6.23216 111.082 6.07616 111.898 5.93216C112.126 5.88416 112.294 5.84816 112.294 5.75216C112.294 5.69216 112.258 5.65616 111.994 5.65616H109.402Z" fill="white"/>
</g>
</svg>
