<svg viewBox="0 0 276 20" fill="none" xmlns="http://www.w3.org/2000/svg">
<path d="M6.99202 8.12822C6.99202 4.16822 7.01602 3.68822 7.06402 2.92022C7.11202 2.08022 7.28002 1.62422 7.92802 1.50422C8.26402 1.43222 8.50402 1.43222 8.74402 1.40822C9.08002 1.40822 9.32002 1.36022 9.32002 1.14422C9.32002 1.00022 9.17602 0.928223 8.74402 0.928223C7.88002 0.928223 4.90402 1.00022 4.68802 1.00022C3.75202 1.00022 2.50402 0.928223 1.13602 0.928223C0.656016 0.928223 0.416016 0.976222 0.416016 1.16822C0.416016 1.36022 0.656016 1.40822 0.920016 1.40822C1.28002 1.43222 1.64002 1.45622 1.85602 1.52822C2.45602 1.69622 2.62402 2.10422 2.67202 2.77622C2.72002 3.54422 2.74402 3.97622 2.74402 7.88822V12.1122C2.74402 13.6002 2.72002 15.0402 2.67202 16.0002C2.60002 17.9202 2.57602 18.3522 1.71202 18.4962C1.44802 18.5442 1.18402 18.5682 0.896016 18.5922C0.560016 18.5922 0.416016 18.6642 0.416016 18.8082C0.416016 19.0242 0.608016 19.0722 0.944016 19.0722C2.26402 19.0722 3.56002 19.0002 4.68802 19.0002C7.23202 19.0002 9.46402 19.1442 12.776 19.1442C13.736 19.1442 13.928 19.1202 14.12 18.4962C14.36 17.8002 14.624 15.5202 14.624 14.9682C14.624 14.6322 14.6 14.5122 14.432 14.5122C14.24 14.5122 14.192 14.7042 14.12 14.9682C13.856 16.0962 13.448 16.7202 12.872 16.9842C12.2 17.3442 11.432 17.3682 10.112 17.3682C8.12002 17.3682 7.66402 17.2482 7.32802 16.7922C6.92002 16.2882 6.99202 14.5602 6.99202 12.1362V8.12822Z" fill="white"/>
<path d="M18.4463 13.0242C18.4463 14.1762 18.4223 15.3282 18.4223 16.1202C18.3503 17.5842 18.2783 18.4002 17.5823 18.5202C17.3423 18.5682 17.1743 18.5682 16.9583 18.5922C16.5983 18.5922 16.5263 18.7122 16.5263 18.8082C16.5263 18.9522 16.6223 19.0722 17.0303 19.0722C18.2543 19.0722 19.2863 19.0002 20.2943 19.0002C22.5743 19.0002 24.1103 19.1202 27.3263 19.1202C28.1183 19.1202 28.2863 19.0962 28.4543 18.5682C28.5503 18.1602 28.7663 16.4802 28.7663 15.5682C28.7663 15.3042 28.7423 15.1362 28.5743 15.1362C28.4303 15.1362 28.3343 15.2562 28.2863 15.4962C28.0943 16.4562 27.8543 16.9602 27.2543 17.2002C26.6543 17.4162 25.8143 17.4402 25.2623 17.4402C22.8143 17.4402 22.5503 17.1042 22.5263 15.6402C22.5023 14.8002 22.5263 13.8162 22.5263 13.1202V11.6082C22.5263 11.4882 22.5503 11.4402 22.6703 11.4402C23.3423 11.4402 24.9743 11.4642 25.6463 11.5122C26.7743 11.5842 27.0143 11.9682 27.1343 12.6162C27.1583 12.7602 27.1583 12.9042 27.1823 13.0242C27.2063 13.2642 27.3023 13.3602 27.4223 13.3602C27.5663 13.3602 27.6383 13.2882 27.6383 13.0002C27.6383 12.7602 27.6623 11.6562 27.6863 11.2002C27.7103 10.4322 27.8543 9.52022 27.8543 9.28022C27.8543 9.16022 27.8303 9.01622 27.6863 9.01622C27.5903 9.01622 27.4943 9.08822 27.3983 9.28022C27.1343 9.68822 26.8463 9.76022 25.6703 9.80822C24.8303 9.83222 23.3423 9.83222 22.6943 9.83222C22.5503 9.83222 22.5263 9.78422 22.5263 9.64022V5.24822C22.5263 5.10422 22.5743 5.03222 22.6943 5.03222C23.3663 5.03222 25.1183 5.08022 25.9103 5.12822C26.9423 5.22422 27.2063 5.51222 27.3263 5.99222C27.3983 6.30422 27.3983 6.47222 27.4463 6.76022C27.4703 6.95222 27.5663 7.04822 27.6863 7.04822C27.8303 7.04822 27.9263 6.88022 27.9263 6.71222C27.9983 5.41622 28.0223 4.98422 28.0463 4.45622C28.0943 3.97622 28.1663 3.71222 28.2143 3.44822C28.2383 3.32822 28.1903 3.23222 28.0703 3.23222C27.9983 3.23222 27.8783 3.25622 27.7343 3.30422C27.3743 3.37622 26.9183 3.40022 26.5103 3.40022C26.1743 3.40022 20.6543 3.42422 20.2703 3.42422C19.3583 3.42422 18.3503 3.35222 17.0543 3.35222C16.7183 3.35222 16.5983 3.44822 16.5983 3.56822C16.5983 3.68822 16.6463 3.80822 16.9583 3.83222C17.1743 3.85622 17.4143 3.85622 17.6063 3.90422C18.1103 4.00022 18.3263 4.33622 18.3743 4.86422C18.4223 5.53622 18.4463 5.92022 18.4463 9.37622V13.0242Z" fill="white"/>
<path d="M47.774 15.6162C47.774 14.6082 47.774 13.5282 47.87 12.8082C47.918 12.0882 48.134 11.8722 48.686 11.8002C48.854 11.7762 49.166 11.7522 49.262 11.7522C49.502 11.6802 49.598 11.6322 49.598 11.4882C49.598 11.3202 49.406 11.2722 49.118 11.2722C47.798 11.2722 46.382 11.3202 45.542 11.3202C44.99 11.3202 43.286 11.2722 41.798 11.2722C41.462 11.2722 41.342 11.3442 41.342 11.4642C41.342 11.5842 41.462 11.7282 41.678 11.7522C42.038 11.7762 42.326 11.8002 42.614 11.8482C43.406 11.9442 43.694 12.3762 43.694 13.6722C43.67 14.4642 43.67 15.2562 43.67 16.0722V17.1282C43.67 17.3682 43.598 17.5362 43.454 17.6322C43.214 17.8722 42.614 17.9202 42.182 17.9202C37.91 17.9202 36.302 13.8402 36.302 10.2882C36.302 8.36822 36.782 6.90422 37.526 5.99222C38.366 4.96022 39.614 4.45622 41.294 4.45622C44.414 4.45622 46.382 5.46422 46.646 7.07222C46.766 7.38422 46.79 7.64822 46.838 7.91222C46.862 8.08022 46.91 8.29622 47.078 8.29622C47.246 8.29622 47.342 8.17622 47.342 7.84022C47.342 5.03222 47.582 4.12022 47.606 3.92822C47.678 3.73622 47.63 3.59222 47.414 3.59222C46.79 3.56822 46.07 3.42422 45.278 3.32822C44.246 3.18422 43.142 3.06422 41.894 3.06422C40.286 3.06422 37.862 3.16022 35.63 4.43222C33.614 5.53622 31.694 7.69622 31.694 11.2002C31.694 16.6722 35.798 19.3602 42.038 19.3602C44.006 19.3602 46.214 18.9522 47.294 18.5922C47.726 18.4482 47.774 18.3042 47.774 16.9362V15.6162Z" fill="white"/>
<path d="M53.4079 13.0242C53.4079 14.1762 53.3839 15.3282 53.3839 16.1202C53.3119 17.5842 53.2399 18.4002 52.5439 18.5202C52.3039 18.5682 52.1359 18.5682 51.9199 18.5922C51.5599 18.5922 51.4879 18.7122 51.4879 18.8082C51.4879 18.9522 51.5839 19.0722 51.9919 19.0722C53.2159 19.0722 54.2479 19.0002 55.2559 19.0002C57.5359 19.0002 59.0719 19.1202 62.2879 19.1202C63.0799 19.1202 63.2479 19.0962 63.4159 18.5682C63.5119 18.1602 63.7279 16.4802 63.7279 15.5682C63.7279 15.3042 63.7039 15.1362 63.5359 15.1362C63.3919 15.1362 63.2959 15.2562 63.2479 15.4962C63.0559 16.4562 62.8159 16.9602 62.2159 17.2002C61.6159 17.4162 60.7759 17.4402 60.2239 17.4402C57.7759 17.4402 57.5119 17.1042 57.4879 15.6402C57.4639 14.8002 57.4879 13.8162 57.4879 13.1202V11.6082C57.4879 11.4882 57.5119 11.4402 57.6319 11.4402C58.3039 11.4402 59.9359 11.4642 60.6079 11.5122C61.7359 11.5842 61.9759 11.9682 62.0959 12.6162C62.1199 12.7602 62.1199 12.9042 62.1439 13.0242C62.1679 13.2642 62.2639 13.3602 62.3839 13.3602C62.5279 13.3602 62.5999 13.2882 62.5999 13.0002C62.5999 12.7602 62.6239 11.6562 62.6479 11.2002C62.6719 10.4322 62.8159 9.52022 62.8159 9.28022C62.8159 9.16022 62.7919 9.01622 62.6479 9.01622C62.5519 9.01622 62.4559 9.08822 62.3599 9.28022C62.0959 9.68822 61.8079 9.76022 60.6319 9.80822C59.7919 9.83222 58.3039 9.83222 57.6559 9.83222C57.5119 9.83222 57.4879 9.78422 57.4879 9.64022V5.24822C57.4879 5.10422 57.5359 5.03222 57.6559 5.03222C58.3279 5.03222 60.0799 5.08022 60.8719 5.12822C61.9039 5.22422 62.1679 5.51222 62.2879 5.99222C62.3599 6.30422 62.3599 6.47222 62.4079 6.76022C62.4319 6.95222 62.5279 7.04822 62.6479 7.04822C62.7919 7.04822 62.8879 6.88022 62.8879 6.71222C62.9599 5.41622 62.9839 4.98422 63.0079 4.45622C63.0559 3.97622 63.1279 3.71222 63.1759 3.44822C63.1999 3.32822 63.1519 3.23222 63.0319 3.23222C62.9599 3.23222 62.8399 3.25622 62.6959 3.30422C62.3359 3.37622 61.8799 3.40022 61.4719 3.40022C61.1359 3.40022 55.6159 3.42422 55.2319 3.42422C54.3199 3.42422 53.3119 3.35222 52.0159 3.35222C51.6799 3.35222 51.5599 3.44822 51.5599 3.56822C51.5599 3.68822 51.6079 3.80822 51.9199 3.83222C52.1359 3.85622 52.3759 3.85622 52.5679 3.90422C53.0719 4.00022 53.2879 4.33622 53.3359 4.86422C53.3839 5.53622 53.4079 5.92022 53.4079 9.37622V13.0242Z" fill="white"/>
<path d="M67.9567 16.0242C67.8847 17.9442 67.6927 18.4242 66.8047 18.5442C66.5407 18.5682 66.4207 18.5682 66.2047 18.5922C65.9167 18.6162 65.8207 18.7122 65.8207 18.8322C65.8207 19.0002 65.9407 19.0722 66.3007 19.0722C67.0207 19.0722 68.7727 19.0002 69.3727 19.0002C70.8847 19.0242 71.5327 19.0722 72.1327 19.0722C72.5167 19.0722 72.6607 19.0002 72.6607 18.8322C72.6607 18.7122 72.5647 18.6402 72.2047 18.5922C71.7727 18.5682 71.5327 18.5442 71.1247 18.4482C70.4767 18.2802 70.4287 17.6802 70.3807 16.2402L70.1647 9.49622C72.0127 11.1762 73.8607 12.7602 75.0127 13.7922C76.0447 14.7282 77.7487 16.1922 79.2367 17.4402C80.9407 18.8322 81.6847 19.3602 82.0447 19.3602C82.3567 19.3602 82.5007 19.1442 82.5007 17.9442C82.5247 13.7682 82.5967 9.52022 82.7887 5.60822C82.8607 4.28822 83.1007 3.97622 83.8207 3.88022C83.9647 3.85622 84.0367 3.85622 84.3007 3.83222C84.6127 3.80822 84.6607 3.66422 84.6607 3.56822C84.6607 3.44822 84.5647 3.35222 84.2047 3.35222C83.3407 3.35222 82.2127 3.42422 81.6847 3.42422C80.7247 3.42422 79.2367 3.35222 78.4447 3.35222C78.2287 3.35222 78.0367 3.42422 78.0367 3.59222C78.0367 3.68822 78.1327 3.80822 78.4207 3.83222C78.7567 3.85622 79.0207 3.88022 79.2847 3.92822C80.2207 4.07222 80.3647 4.62422 80.4127 5.77622L80.5327 13.1202C79.9087 12.5682 78.7807 11.6082 76.4047 9.52022C73.7407 7.16822 70.4287 4.33622 69.3967 3.52022C68.7967 3.06422 68.7007 3.06422 68.5807 3.06422C68.2687 3.06422 68.1967 3.42422 68.1727 4.12022C68.0767 6.90422 68.0767 11.7282 67.9567 16.0242Z" fill="white"/>
<path d="M88.8618 13.0242C88.8618 16.9122 88.9818 18.4242 87.9498 18.5202C87.6378 18.5682 87.5658 18.5922 87.3258 18.5922C87.0858 18.5922 86.9418 18.7122 86.9418 18.8322C86.9418 18.9522 87.0138 19.0722 87.3738 19.0722C88.3818 19.0722 89.5818 19.0002 90.5898 19.0002C91.4538 19.0002 93.8298 19.2402 94.9818 19.2402C99.4218 19.2402 101.27 17.8002 102.35 16.7682C103.574 15.6162 104.75 13.5762 104.75 11.0802C104.75 8.60822 103.79 6.88022 102.686 5.80022C100.814 3.97622 98.1258 3.37622 94.2138 3.37622C92.2698 3.37622 91.4058 3.42422 90.6858 3.42422C89.6538 3.42422 87.5418 3.35222 87.1578 3.35222C86.7498 3.35222 86.7018 3.44822 86.7018 3.56822C86.7018 3.66422 86.7258 3.78422 87.0618 3.83222L87.7578 3.90422C88.7178 4.00022 88.7658 4.64822 88.8138 5.22422C88.8618 5.89622 88.8618 6.32822 88.8618 9.37622V13.0242ZM92.9178 9.08822C92.9178 5.20022 92.9418 5.10422 93.1338 4.93622C93.3018 4.81622 93.7578 4.74422 94.2618 4.74422C95.6298 4.74422 97.6218 5.15222 98.9658 7.04822C99.8778 8.34422 100.406 9.90422 100.406 11.8002C100.406 13.4802 100.118 15.4722 99.0858 16.5042C97.9818 17.6802 96.8058 17.8482 95.4618 17.8482C94.6938 17.8482 93.7578 17.6082 93.3498 17.1522C93.1098 16.8882 93.0138 16.6002 92.9658 15.6402C92.9418 15.2322 92.9178 13.9362 92.9178 11.7282V9.08822Z" fill="white"/>
<path d="M111.859 19.3602C112.987 19.3602 114.475 19.2402 115.747 18.5202C117.403 17.6082 118.147 16.1682 118.147 14.5122C118.147 12.4242 117.283 11.2482 114.187 9.30422L112.963 8.53622C111.763 7.79222 111.331 7.16822 111.331 6.25622C111.331 5.36822 111.907 4.36022 113.707 4.36022C115.147 4.36022 116.275 5.08022 116.707 5.84822C116.947 6.30422 117.019 6.76022 117.043 7.00022C117.091 7.36022 117.211 7.40822 117.331 7.40822C117.499 7.40822 117.571 7.26422 117.571 6.90422C117.571 4.98422 117.619 4.62422 117.643 3.85622C117.643 3.66422 117.595 3.59222 117.379 3.54422C117.019 3.44822 116.635 3.37622 116.299 3.30422C115.315 3.11222 114.667 3.06422 113.683 3.06422C110.203 3.06422 108.115 5.08022 108.091 7.48022C108.091 9.40022 108.787 10.7922 111.355 12.5682L112.675 13.4562C114.499 14.6802 114.787 15.3522 114.787 16.1922C114.787 17.0322 114.187 17.9442 112.243 17.9442C110.491 17.9442 108.739 16.9122 108.451 15.1122C108.403 14.9202 108.403 14.7522 108.379 14.5602C108.355 14.3442 108.283 14.2482 108.163 14.2482C108.043 14.2482 107.923 14.3202 107.875 14.7042C107.803 15.3522 107.755 16.1202 107.755 17.9202C107.755 18.3042 107.851 18.6162 108.235 18.7602C109.075 19.1202 110.179 19.3602 111.859 19.3602Z" fill="white"/>
<path d="M136.981 19.3602C142.645 19.3602 146.029 15.6882 146.029 10.8162C146.029 6.73622 142.597 3.06422 137.125 3.06422C130.813 3.06422 127.837 6.95222 127.837 11.2962C127.837 14.9682 130.597 19.3602 136.981 19.3602ZM137.557 17.9202C133.981 17.9202 132.445 14.1042 132.445 10.2642C132.445 5.39222 134.533 4.45622 136.381 4.45622C140.269 4.45622 141.421 8.60822 141.421 11.7762C141.421 17.4162 138.877 17.9202 137.557 17.9202Z" fill="white"/>
<path d="M150.652 13.0242C150.652 15.0402 150.652 15.7842 150.556 16.9842C150.484 17.8962 150.364 18.4482 149.788 18.5202C149.5 18.5682 149.332 18.5682 149.14 18.5922C148.804 18.6402 148.78 18.7602 148.78 18.8562C148.78 18.9762 148.9 19.0722 149.212 19.0722C149.692 19.0722 151.036 19.0002 152.788 19.0002C155.476 19.0002 155.476 19.0722 156.628 19.0722C157.06 19.0722 157.108 18.9522 157.108 18.8322C157.108 18.7122 156.964 18.6162 156.628 18.5922C156.436 18.5922 156.172 18.5682 155.884 18.5202C155.044 18.4002 154.9 18.0402 154.852 17.4402C154.732 16.5522 154.732 15.3282 154.732 13.3122V11.8002C154.732 11.6802 154.756 11.6322 154.876 11.6322C155.548 11.6322 157.252 11.6802 157.948 11.7282C159.052 11.7762 159.292 12.1122 159.364 12.7842C159.388 12.9282 159.412 13.0482 159.436 13.1922C159.46 13.4562 159.556 13.5522 159.676 13.5522C159.844 13.5522 159.892 13.3602 159.892 13.1442C159.892 12.9042 159.868 11.8002 159.892 11.3442C159.964 10.5762 160.06 9.76022 160.06 9.52022C160.06 9.40022 160.06 9.23222 159.916 9.23222C159.82 9.23222 159.724 9.30422 159.628 9.44822C159.34 9.92822 159.1 9.97622 157.9 10.0242C157.06 10.0482 155.572 10.0722 154.9 10.0482C154.756 10.0482 154.732 9.95222 154.732 9.80822V5.24822C154.732 5.10422 154.78 5.03222 154.924 5.03222C155.572 5.03222 157.564 5.08022 158.332 5.12822C159.34 5.22422 159.628 5.48822 159.748 5.99222C159.82 6.28022 159.82 6.40022 159.844 6.66422C159.868 6.85622 159.94 7.00022 160.084 7.00022C160.252 7.00022 160.324 6.92822 160.348 6.64022C160.372 5.65622 160.42 5.03222 160.468 4.48022C160.516 4.00022 160.612 3.52022 160.636 3.35222C160.66 3.25622 160.636 3.16022 160.492 3.16022C160.444 3.16022 160.276 3.20822 160.132 3.25622C159.94 3.30422 159.364 3.40022 158.932 3.40022C158.62 3.40022 152.86 3.42422 152.476 3.42422C151.588 3.42422 150.364 3.35222 149.116 3.35222C148.708 3.35222 148.564 3.42422 148.564 3.59222C148.564 3.73622 148.756 3.78422 148.972 3.83222C149.236 3.85622 149.524 3.88022 149.74 3.92822C150.316 4.00022 150.532 4.36022 150.58 5.10422C150.628 5.75222 150.652 5.92022 150.652 9.37622V13.0242Z" fill="white"/>
<path d="M176.337 17.9682C176.793 19.0722 176.985 19.4082 177.321 19.4082C177.633 19.4082 177.873 19.0962 178.569 17.6802C179.193 16.4322 180.225 14.2482 181.761 10.8402C183.129 7.79222 183.993 5.84822 184.953 3.78422C185.625 2.36822 185.961 1.86422 186.465 1.62422C186.849 1.43222 187.233 1.43222 187.521 1.40822C187.833 1.40822 187.953 1.33622 187.953 1.16822C187.953 1.00022 187.785 0.928223 187.425 0.928223C186.681 0.928223 185.121 1.00022 184.761 1.00022C184.401 1.00022 183.225 0.928223 181.641 0.928223C181.233 0.928223 181.113 1.02422 181.113 1.16822C181.113 1.31222 181.233 1.38422 181.545 1.40822C181.809 1.43222 182.217 1.45622 182.505 1.52822C182.937 1.60022 183.081 1.76822 183.081 2.08022C183.081 2.29622 183.009 2.60822 182.889 2.87222C182.097 5.12822 179.601 11.0082 178.617 13.2162C177.537 10.4082 176.025 6.83222 174.897 3.90422C174.489 2.87222 174.345 2.39222 174.345 2.08022C174.345 1.84022 174.441 1.57622 175.065 1.48022C175.281 1.43222 175.425 1.43222 175.713 1.40822C175.929 1.40822 176.073 1.31222 176.073 1.16822C176.073 1.02422 175.881 0.928223 175.521 0.928223C173.649 0.928223 172.353 1.00022 171.513 1.00022C170.553 1.00022 169.161 0.928223 167.865 0.928223C167.553 0.928223 167.361 0.976222 167.361 1.14422C167.361 1.26422 167.481 1.36022 167.745 1.40822C167.889 1.40822 168.105 1.43222 168.297 1.48022C169.113 1.64822 169.377 1.86422 170.049 3.35222L176.337 17.9682Z" fill="white"/>
<path d="M193.807 15.1122C193.879 15.1122 193.975 15.1602 193.999 15.2322L195.319 18.1842C195.439 18.4482 195.223 18.4722 195.031 18.5442C194.887 18.5922 194.743 18.6402 194.743 18.7842C194.743 18.9042 194.887 19.0002 195.175 19.0002C196.447 19.0242 198.943 19.0482 201.367 19.0722C201.607 19.0722 201.799 19.0002 201.799 18.8322C201.799 18.7122 201.655 18.5922 201.391 18.5922C201.271 18.5922 201.103 18.5682 200.911 18.5442C200.095 18.4242 199.711 17.8722 198.967 16.3362C197.527 13.1682 193.807 5.36822 193.279 4.19222C192.871 3.37622 192.679 3.06422 192.439 3.06422C192.175 3.06422 191.935 3.37622 191.431 4.48022L185.671 16.7682C185.047 18.1842 184.495 18.4722 183.463 18.5922C183.199 18.5922 183.079 18.6882 183.079 18.8322C183.079 18.9762 183.175 19.0722 183.511 19.0722C184.543 19.0722 185.935 19.0002 186.175 19.0002C187.399 19.0002 188.119 19.0722 189.175 19.0722C189.463 19.0722 189.583 18.9762 189.583 18.8082C189.583 18.7122 189.511 18.6162 189.199 18.5922C188.647 18.5442 187.735 18.5202 187.735 17.8242C187.735 17.5602 187.879 17.0802 188.095 16.5522L188.599 15.3282C188.623 15.2562 188.695 15.1122 188.839 15.1122H193.807ZM189.511 13.2162C189.463 13.2162 189.415 13.1922 189.439 13.1202L191.215 8.84822C191.263 8.75222 191.263 8.70422 191.335 8.82422L193.231 13.1202C193.255 13.1682 193.255 13.2162 193.111 13.2162H189.511Z" fill="white"/>
<path d="M208.366 9.64022C208.366 6.13622 208.39 5.82422 208.438 5.15222C208.486 4.40822 208.654 4.02422 209.254 3.92822C209.566 3.85622 209.662 3.85622 209.902 3.83222C210.094 3.83222 210.286 3.76022 210.286 3.56822C210.286 3.44822 210.19 3.35222 209.806 3.35222C209.038 3.35222 206.254 3.42422 206.134 3.42422C205.222 3.42422 204.166 3.35222 202.87 3.35222C202.438 3.35222 202.27 3.42422 202.27 3.59222C202.27 3.76022 202.462 3.80822 202.702 3.83222C203.014 3.85622 203.302 3.90422 203.494 3.95222C203.998 4.09622 204.19 4.43222 204.238 5.00822C204.286 5.68022 204.31 5.92022 204.31 9.37622V13.0242C204.31 14.1762 204.286 15.3282 204.286 16.1442C204.214 18.0642 204.118 18.4002 203.254 18.5442C203.014 18.5682 202.966 18.5682 202.75 18.5922C202.462 18.5922 202.342 18.7122 202.342 18.8082C202.342 19.0002 202.51 19.0722 202.846 19.0722C204.07 19.0722 205.15 19.0002 206.158 19.0002C208.438 19.0002 210.43 19.1202 213.67 19.1202C214.462 19.1202 214.606 19.1202 214.798 18.5682C215.014 17.9682 215.326 15.8802 215.326 15.3522C215.326 15.0642 215.278 14.9202 215.134 14.9202C214.942 14.9202 214.87 15.1122 214.822 15.3522C214.558 16.5042 214.102 17.0082 213.502 17.2482C212.902 17.4642 212.326 17.4882 211.126 17.4882C209.326 17.4882 208.942 17.4162 208.63 16.9842C208.294 16.5282 208.366 15.0162 208.366 13.0482V9.64022Z" fill="white"/>
<path d="M226.303 19.3602C231.967 19.3602 235.351 15.6882 235.351 10.8162C235.351 6.73622 231.919 3.06422 226.447 3.06422C220.135 3.06422 217.159 6.95222 217.159 11.2962C217.159 14.9682 219.919 19.3602 226.303 19.3602ZM226.879 17.9202C223.303 17.9202 221.767 14.1042 221.767 10.2642C221.767 5.39222 223.855 4.45622 225.703 4.45622C229.591 4.45622 230.743 8.60822 230.743 11.7762C230.743 17.4162 228.199 17.9202 226.879 17.9202Z" fill="white"/>
<path d="M243.806 9.37622C243.806 6.83222 243.806 5.82422 243.854 5.15222C243.902 4.50422 244.046 4.04822 244.646 3.92822C244.862 3.88022 245.222 3.85622 245.414 3.83222C245.702 3.78422 245.774 3.71222 245.774 3.56822C245.774 3.44822 245.654 3.35222 245.246 3.35222C244.478 3.35222 241.67 3.42422 241.55 3.42422C241.478 3.42422 239.102 3.35222 238.238 3.35222C237.806 3.35222 237.71 3.44822 237.71 3.56822C237.71 3.68822 237.758 3.78422 238.094 3.83222C238.262 3.85622 238.79 3.90422 239.03 3.97622C239.51 4.09622 239.63 4.40822 239.678 4.93622C239.726 5.60822 239.726 6.13622 239.726 9.37622V12.5442C239.726 15.5442 240.566 17.0562 241.742 17.9682C243.014 19.0002 244.862 19.3602 246.95 19.3602C248.438 19.3602 250.118 19.0002 251.414 17.9922C253.574 16.3122 253.67 13.7682 253.67 11.3682V9.37622C253.67 6.32822 253.694 5.87222 253.742 5.20022C253.79 4.31222 253.958 4.02422 254.534 3.92822C254.822 3.85622 254.99 3.85622 255.206 3.83222C255.494 3.78422 255.566 3.68822 255.566 3.59222C255.566 3.44822 255.47 3.35222 255.11 3.35222C254.006 3.35222 252.59 3.42422 252.206 3.42422C251.75 3.42422 250.478 3.35222 249.206 3.35222C248.846 3.35222 248.726 3.42422 248.726 3.56822C248.726 3.68822 248.798 3.80822 249.11 3.83222C249.59 3.88022 249.638 3.88022 249.902 3.92822C250.598 4.04822 250.766 4.40822 250.814 5.20022C250.862 5.87222 250.862 6.32822 250.862 9.37622V11.8242C250.862 13.9362 250.91 16.1922 249.638 17.1762C248.942 17.7282 248.054 17.8482 247.43 17.8482C246.974 17.8482 246.302 17.8242 245.462 17.3442C244.19 16.5282 243.806 15.3522 243.806 12.5202V9.37622Z" fill="white"/>
<path d="M259.412 13.0242C259.412 15.0642 259.388 16.4562 259.292 17.3202C259.244 18.0642 259.052 18.4242 258.62 18.5202C258.38 18.5682 258.068 18.5682 257.876 18.5922C257.636 18.5922 257.492 18.6882 257.492 18.8082C257.492 18.9522 257.564 19.0722 257.924 19.0722C258.62 19.0722 260.876 19.0002 261.116 19.0002C261.236 19.0002 263.78 19.0722 265.244 19.0722C265.556 19.0722 265.652 18.9762 265.652 18.8562C265.652 18.7362 265.652 18.6162 265.268 18.5922C265.004 18.5682 264.572 18.5442 264.284 18.4482C263.636 18.2802 263.516 17.8482 263.468 17.3202C263.42 16.6962 263.372 15.6882 263.372 14.1282V12.8562C263.372 12.7362 263.444 12.6882 263.54 12.6882L264.98 12.7122C265.1 12.7122 265.197 12.7602 265.22 12.8322C265.628 13.4562 265.988 14.1522 266.996 15.8322C267.764 17.0802 268.436 17.9202 269.06 18.3282C269.852 18.8322 270.884 19.0722 273.38 19.0722H275.252C275.444 19.0722 275.684 19.0482 275.684 18.8562C275.684 18.7362 275.564 18.6162 275.348 18.5922C275.18 18.5682 274.988 18.5682 274.772 18.5202C274.1 18.4242 273.596 18.1122 272.492 16.8402C271.172 15.3762 269.636 13.0962 268.508 11.3682C270.26 10.2402 271.364 8.92022 271.364 7.28822C271.364 5.65622 270.476 4.62422 269.324 4.04822C268.46 3.56822 266.972 3.35222 264.812 3.35222C263.732 3.35222 261.476 3.42422 261.116 3.42422C260.852 3.42422 258.645 3.35222 257.78 3.35222C257.421 3.35222 257.348 3.47222 257.348 3.59222C257.348 3.71222 257.444 3.83222 257.708 3.83222C257.876 3.85622 258.068 3.85622 258.452 3.92822C258.908 3.97622 259.292 4.26422 259.34 5.15222C259.388 5.82422 259.412 6.13622 259.412 9.37622V13.0242ZM263.372 5.12822C263.372 4.96022 263.42 4.93622 263.516 4.88822C263.636 4.81622 263.996 4.81622 264.308 4.81622C265.388 4.81622 267.404 5.51222 267.404 8.46422C267.404 9.80822 267.044 10.6482 266.66 10.9362C266.324 11.1762 265.82 11.2722 265.34 11.2722C264.716 11.2722 263.972 11.2002 263.564 10.9842C263.468 10.9122 263.372 10.8162 263.372 10.6722V5.12822Z" fill="white"/>
</svg>
