<svg viewBox="0 0 143 12" fill="none" xmlns="http://www.w3.org/2000/svg">
<g opacity="0.5">
<path d="M0.828052 5.65587C0.660052 5.65587 0.612052 5.66787 0.588052 5.75187L0.432052 6.37587C0.420052 6.47187 0.420052 6.54387 0.480052 6.54387C0.540052 6.54387 0.708052 6.47187 0.948052 6.39987C1.48805 6.23187 2.50805 6.07587 3.32405 5.93187C3.55205 5.88387 3.72005 5.84787 3.72005 5.75187C3.72005 5.69187 3.68405 5.65587 3.42005 5.65587H0.828052Z" fill="white"/>
<path d="M8.32548 9.45987C8.55348 10.0359 8.61348 10.2039 8.75748 10.2039C8.87748 10.2039 8.92548 10.0119 9.26148 9.29187C9.53748 8.70387 10.0775 7.40787 10.8095 5.65587C11.4215 4.17987 12.0215 2.73987 12.1535 2.40387C12.4775 1.58787 12.6575 1.38387 12.8135 1.27587C13.0415 1.13187 13.3055 1.13187 13.3895 1.13187C13.4855 1.13187 13.5335 1.10787 13.5335 1.04787C13.5335 0.987867 13.4615 0.963867 13.3295 0.963867C12.9815 0.963867 12.4655 0.999867 12.3935 0.999867C12.2495 0.999867 11.6975 0.963867 11.2175 0.963867C11.0255 0.963867 10.9535 0.987867 10.9535 1.05987C10.9535 1.11987 11.0135 1.13187 11.0855 1.13187C11.2175 1.13187 11.3975 1.13187 11.5415 1.17987C11.6615 1.23987 11.6975 1.35987 11.6975 1.45587C11.6975 1.56387 11.6495 1.73187 11.5895 1.91187C11.3255 2.77587 9.71748 6.96387 9.02148 8.57187L6.57348 2.19987C6.44148 1.86387 6.33348 1.53987 6.33348 1.43187C6.33348 1.34787 6.35748 1.25187 6.48948 1.19187C6.59748 1.14387 6.81348 1.13187 6.94548 1.13187C7.02948 1.13187 7.06548 1.10787 7.06548 1.04787C7.06548 0.987867 6.95748 0.963867 6.74148 0.963867C6.28548 0.963867 5.76948 0.999867 5.64948 0.999867C5.50548 0.999867 4.85748 0.963867 4.28148 0.963867C4.08948 0.963867 3.96948 0.975867 3.96948 1.04787C3.96948 1.09587 3.99348 1.13187 4.06548 1.13187C4.13748 1.13187 4.34148 1.13187 4.52148 1.17987C4.94148 1.29987 5.12148 1.43187 5.38548 2.10387L8.32548 9.45987Z" fill="white"/>
<path d="M18.0035 10.1679C20.5595 10.1679 22.2515 8.29587 22.2515 6.00387C22.2515 3.59187 20.4395 2.17587 18.0635 2.17587C15.0995 2.17587 13.8635 4.56387 13.8635 6.15987C13.8635 7.98387 15.0635 10.1679 18.0035 10.1679ZM18.3035 9.75987C16.2875 9.75987 14.9795 8.19987 14.9795 5.84787C14.9795 3.57987 16.3235 2.54787 17.9915 2.54787C19.6355 2.54787 21.1235 3.89187 21.1235 6.30387C21.1235 9.35187 19.1075 9.75987 18.3035 9.75987Z" fill="white"/>
<path d="M27.099 2.78787C27.447 2.78787 27.819 2.79987 28.275 2.79987C29.487 2.81187 29.643 2.93187 29.691 3.41187C29.703 3.53187 29.703 3.54387 29.703 3.57987C29.703 3.67587 29.727 3.72387 29.787 3.72387C29.823 3.72387 29.871 3.68787 29.871 3.57987C29.871 3.48387 29.895 2.69187 29.895 2.35587C29.895 2.30787 29.871 2.24787 29.823 2.24787C29.787 2.24787 29.751 2.25987 29.595 2.29587C29.427 2.33187 29.067 2.35587 28.731 2.35587H24.795C24.783 2.35587 24.447 2.34387 24.027 2.29587C23.811 2.27187 23.583 2.16387 23.499 2.16387C23.463 2.16387 23.427 2.21187 23.391 2.35587C23.319 2.67987 23.139 3.47187 23.151 3.54387C23.151 3.60387 23.163 3.65187 23.211 3.65187C23.259 3.65187 23.283 3.63987 23.319 3.55587C23.343 3.49587 23.391 3.35187 23.499 3.18387C23.667 2.93187 23.835 2.81187 24.603 2.79987C25.083 2.78787 25.719 2.78787 26.115 2.78787V7.07187C26.115 7.97187 26.115 8.83587 26.067 9.26787C26.019 9.67587 25.983 9.81987 25.755 9.85587C25.659 9.86787 25.587 9.86787 25.491 9.86787C25.395 9.86787 25.359 9.91587 25.359 9.95187C25.359 10.0119 25.407 10.0359 25.539 10.0359C25.851 10.0359 26.559 9.99987 26.607 9.99987C26.655 9.99987 27.363 10.0359 27.975 10.0359C28.095 10.0359 28.131 9.99987 28.131 9.93987C28.131 9.90387 28.083 9.86787 27.987 9.86787C27.891 9.86787 27.663 9.85587 27.519 9.81987C27.219 9.74787 27.195 9.57987 27.159 9.29187C27.111 8.84787 27.099 7.99587 27.099 7.07187V2.78787Z" fill="white"/>
<path d="M32.1928 7.07187C32.1928 7.98387 32.1808 8.47587 32.1688 8.88387C32.1448 9.62787 32.0008 9.78387 31.7848 9.83187C31.7008 9.85587 31.6168 9.86787 31.5448 9.86787C31.4848 9.86787 31.4368 9.90387 31.4368 9.95187C31.4368 10.0119 31.4968 10.0359 31.6048 10.0359C31.8928 10.0359 32.1208 9.99987 32.3968 9.99987C32.8408 9.99987 33.3928 10.0239 33.8128 10.0359C34.2328 10.0359 34.5688 10.0599 35.3608 10.0599C35.7568 10.0599 35.8408 10.0359 35.8888 9.79587C35.9248 9.59187 36.0208 8.83587 36.0208 8.75187C36.0208 8.67987 36.0208 8.57187 35.9488 8.57187C35.9008 8.57187 35.8648 8.61987 35.8408 8.73987C35.7448 9.18387 35.6608 9.42387 35.3008 9.53187C35.0008 9.61587 34.6168 9.60387 34.3888 9.60387C33.9808 9.60387 33.6928 9.57987 33.5128 9.49587C33.2608 9.38787 33.2008 9.15987 33.1768 8.71587C33.1648 8.51187 33.1768 7.45587 33.1768 7.08387V6.20787C33.1768 6.15987 33.1888 6.12387 33.2608 6.12387C33.4528 6.12387 34.4248 6.14787 34.7008 6.17187C35.1568 6.20787 35.2288 6.37587 35.2768 6.53187C35.3008 6.62787 35.3128 6.74787 35.3128 6.81987C35.3128 6.90387 35.3248 6.97587 35.3848 6.97587C35.4328 6.97587 35.4568 6.93987 35.4688 6.84387C35.4808 6.68787 35.4808 6.44787 35.5168 6.11187C35.5528 5.76387 35.6008 5.53587 35.6008 5.47587C35.6008 5.41587 35.5768 5.40387 35.5528 5.40387C35.5048 5.40387 35.4688 5.42787 35.4208 5.49987C35.3248 5.63187 35.1448 5.66787 34.8688 5.67987C34.6168 5.70387 33.3928 5.71587 33.2488 5.71587C33.1888 5.71587 33.1768 5.66787 33.1768 5.59587V2.87187C33.1768 2.79987 33.2008 2.77587 33.2368 2.77587C33.2608 2.77587 34.4488 2.78787 34.6048 2.79987C35.2048 2.83587 35.3128 2.91987 35.3848 3.15987C35.4208 3.24387 35.4568 3.36387 35.4688 3.54387C35.4688 3.62787 35.4928 3.67587 35.5528 3.67587C35.6128 3.67587 35.6368 3.60387 35.6368 3.49587C35.6488 3.26787 35.6608 3.07587 35.6728 2.87187C35.6968 2.57187 35.7688 2.40387 35.7688 2.33187C35.7688 2.27187 35.7448 2.24787 35.7208 2.24787C35.6728 2.24787 35.6608 2.25987 35.5888 2.28387C35.4928 2.31987 35.3608 2.33187 35.1208 2.34387C34.8808 2.35587 32.7448 2.35587 32.6848 2.35587C32.0128 2.34387 31.6888 2.31987 31.4488 2.31987C31.3288 2.31987 31.2688 2.34387 31.2688 2.41587C31.2688 2.45187 31.3408 2.48787 31.4248 2.48787C31.5208 2.48787 31.6408 2.49987 31.7128 2.51187C32.0608 2.58387 32.1448 2.75187 32.1688 3.08787C32.1928 3.41187 32.1928 3.69987 32.1928 5.27187V7.07187Z" fill="white"/>
<path d="M37.851 9.33987C37.851 9.36387 37.875 9.42387 37.947 9.48387C38.187 9.68787 38.283 9.92787 38.283 10.0839C38.283 10.3479 38.211 10.6119 37.815 11.1639C37.779 11.2119 37.575 11.4519 37.731 11.4519C37.791 11.4519 37.923 11.3439 38.055 11.1999C38.691 10.5279 38.991 9.93987 38.991 9.47187C38.991 9.00387 38.751 8.64387 38.559 8.64387C38.259 8.64387 37.851 9.05187 37.851 9.33987Z" fill="white"/>
<path d="M41.2009 7.07187C41.2009 8.03187 41.1889 8.73987 41.1529 9.18387C41.1289 9.61587 41.0929 9.80787 40.8169 9.84387C40.7449 9.85587 40.6849 9.85587 40.5649 9.86787C40.4689 9.87987 40.4449 9.91587 40.4449 9.95187C40.4449 10.0119 40.5049 10.0359 40.6129 10.0359C40.8649 10.0359 41.3569 10.0119 41.5849 9.99987H41.6689C41.7169 9.99987 42.3769 10.0359 43.0009 10.0359C43.1209 10.0359 43.1569 9.99987 43.1569 9.95187C43.1569 9.90387 43.1089 9.87987 43.0129 9.86787C42.9049 9.85587 42.7969 9.84387 42.6409 9.81987C42.3049 9.77187 42.2209 9.68787 42.2089 9.08787C42.1969 8.60787 42.1849 7.88787 42.1849 7.08387V6.24387C42.1849 6.15987 42.1969 6.13587 42.2689 6.13587C42.4609 6.13587 43.5409 6.13587 43.7809 6.17187C44.3689 6.24387 44.3929 6.65187 44.4049 6.81987C44.4169 6.92787 44.4169 6.99987 44.4889 6.99987C44.5489 6.99987 44.5729 6.93987 44.5729 6.81987C44.5729 6.65187 44.5849 6.44787 44.6209 6.12387C44.6569 5.76387 44.7049 5.55987 44.7049 5.49987C44.7049 5.43987 44.6929 5.39187 44.6569 5.39187C44.6089 5.39187 44.5849 5.42787 44.5369 5.48787C44.3809 5.67987 44.2249 5.70387 43.7329 5.71587C43.3369 5.72787 42.7609 5.72787 42.2689 5.72787C42.1969 5.72787 42.1849 5.67987 42.1849 5.61987V2.90787C42.1849 2.81187 42.2089 2.78787 42.2929 2.78787C42.8209 2.78787 43.2889 2.79987 43.8049 2.81187C44.1049 2.82387 44.3209 2.83587 44.4769 2.97987C44.6209 3.12387 44.6689 3.44787 44.6689 3.57987C44.6809 3.66387 44.7049 3.72387 44.7649 3.72387C44.8129 3.72387 44.8489 3.67587 44.8489 3.54387C44.8729 3.23187 44.8609 3.01587 44.9089 2.70387C44.9209 2.58387 44.9569 2.41587 44.9809 2.33187C45.0049 2.25987 44.9809 2.22387 44.9449 2.22387C44.9209 2.22387 44.8849 2.23587 44.8249 2.25987C44.7049 2.30787 44.5249 2.33187 44.2849 2.34387C44.0329 2.35587 41.8489 2.35587 41.6689 2.35587C41.2729 2.35587 40.8769 2.31987 40.4449 2.31987C40.3249 2.31987 40.2649 2.34387 40.2649 2.40387C40.2649 2.45187 40.3249 2.48787 40.4209 2.49987C40.5289 2.51187 40.6129 2.51187 40.7209 2.52387C41.0929 2.55987 41.1529 2.75187 41.1769 3.08787C41.2009 3.41187 41.2009 3.69987 41.2009 5.27187V7.07187Z" fill="white"/>
<path d="M47.5566 7.07187C47.5566 7.97187 47.5566 8.82387 47.4966 9.25587C47.4606 9.54387 47.4246 9.78387 47.2206 9.83187C47.1246 9.85587 46.9926 9.86787 46.9326 9.86787C46.8246 9.86787 46.7766 9.90387 46.7766 9.95187C46.7766 10.0119 46.8606 10.0359 46.9686 10.0359C47.3046 10.0359 48.0126 9.99987 48.0486 9.99987C48.1086 9.99987 48.8046 10.0359 49.4166 10.0359C49.5366 10.0359 49.5846 9.99987 49.5846 9.95187C49.5846 9.90387 49.5606 9.87987 49.4526 9.86787C49.4046 9.86787 49.1526 9.85587 48.9966 9.81987C48.6846 9.74787 48.6366 9.61587 48.5886 9.26787C48.5286 8.83587 48.5406 7.99587 48.5406 7.07187V5.27187C48.5406 3.68787 48.5286 3.41187 48.5526 3.08787C48.5766 2.73987 48.6126 2.55987 48.9606 2.51187C49.0446 2.49987 49.1046 2.49987 49.1766 2.48787C49.2726 2.47587 49.3086 2.45187 49.3086 2.40387C49.3086 2.34387 49.2486 2.31987 49.1286 2.31987C48.7926 2.31987 48.0966 2.35587 48.0486 2.35587C48.0126 2.35587 47.3286 2.31987 46.9566 2.31987C46.8246 2.31987 46.7766 2.34387 46.7766 2.40387C46.7766 2.45187 46.8246 2.47587 46.9086 2.48787C46.9806 2.49987 47.0646 2.49987 47.1846 2.52387C47.4366 2.57187 47.5086 2.75187 47.5326 3.07587C47.5566 3.39987 47.5566 3.68787 47.5566 5.27187V7.07187Z" fill="white"/>
<path d="M58.2473 8.06787C58.2473 7.63587 58.2473 7.33587 58.2713 6.98787C58.2953 6.63987 58.3673 6.42387 58.6553 6.38787C58.7513 6.37587 58.7753 6.37587 58.8593 6.37587C58.9673 6.37587 59.0033 6.32787 59.0033 6.29187C59.0033 6.23187 58.9553 6.20787 58.8353 6.20787C58.5113 6.20787 57.8033 6.23187 57.7553 6.23187C57.7073 6.23187 57.0113 6.20787 56.5313 6.20787C56.3993 6.20787 56.3513 6.23187 56.3513 6.29187C56.3513 6.32787 56.3993 6.37587 56.4953 6.37587C56.5913 6.37587 56.7113 6.38787 56.7833 6.39987C57.2033 6.45987 57.2633 6.61587 57.2633 7.40787V9.13587C57.2633 9.30387 57.1793 9.42387 57.0593 9.49587C56.7833 9.63987 56.2553 9.69987 55.9193 9.69987C54.8753 9.69987 53.9873 9.35187 53.1953 8.58387C52.8833 8.28387 52.1033 7.22787 52.1033 5.79987C52.1033 4.61187 52.4993 3.69987 53.1113 3.23187C53.9153 2.61987 54.6713 2.59587 55.3193 2.59587C56.6633 2.59587 57.5273 3.03987 57.8033 3.43587C57.9833 3.69987 58.0313 4.07187 58.0313 4.17987C58.0433 4.25187 58.0553 4.32387 58.1153 4.32387C58.1993 4.32387 58.2113 4.27587 58.2113 4.10787C58.2113 3.05187 58.2953 2.69187 58.2953 2.54787C58.2953 2.49987 58.2953 2.45187 58.1993 2.45187C57.9473 2.43987 57.4793 2.37987 57.2873 2.34387C56.8553 2.27187 56.3393 2.17587 55.5713 2.17587C54.8393 2.17587 53.8193 2.24787 52.8953 2.78787C51.9113 3.37587 51.0833 4.53987 51.0833 6.17187C51.0833 7.53987 51.7313 8.54787 52.3793 9.08787C53.6033 10.1079 55.1153 10.1679 55.8953 10.1679C56.4833 10.1679 57.4433 10.0479 58.1033 9.71187C58.2353 9.63987 58.2473 9.62787 58.2473 9.14787V8.06787Z" fill="white"/>
<path d="M62.6129 5.53587C62.5769 5.53587 62.5409 5.53587 62.5409 5.47587V5.25987C62.5409 3.67587 62.5409 3.41187 62.5529 3.08787C62.5769 2.75187 62.6489 2.54787 62.9489 2.49987C63.0809 2.47587 63.1169 2.47587 63.1889 2.47587C63.2609 2.47587 63.3089 2.45187 63.3089 2.40387C63.3089 2.34387 63.2489 2.31987 63.1289 2.31987C62.7929 2.31987 62.0969 2.35587 62.0489 2.35587C61.8929 2.35587 61.3169 2.31987 60.8009 2.31987C60.6809 2.31987 60.6209 2.33187 60.6209 2.40387C60.6209 2.43987 60.6689 2.47587 60.7529 2.47587C60.8489 2.47587 60.9689 2.48787 61.0769 2.49987C61.4249 2.53587 61.5089 2.76387 61.5329 3.07587C61.5569 3.39987 61.5569 3.71187 61.5569 5.29587V7.07187C61.5569 8.05587 61.5689 8.85987 61.4969 9.29187C61.4609 9.55587 61.4129 9.78387 61.1969 9.83187C61.1009 9.85587 61.0049 9.86787 60.9089 9.86787C60.8009 9.86787 60.7769 9.91587 60.7769 9.95187C60.7769 10.0119 60.8489 10.0359 60.9689 10.0359C61.2809 10.0359 62.0129 9.99987 62.0489 9.99987C62.1089 9.99987 62.8169 10.0359 63.4289 10.0359C63.5369 10.0359 63.5849 9.99987 63.5849 9.95187C63.5849 9.90387 63.5249 9.86787 63.4409 9.86787C63.3449 9.86787 63.1649 9.85587 63.0089 9.83187C62.6969 9.79587 62.6369 9.55587 62.6009 9.29187C62.5409 8.85987 62.5409 8.07987 62.5409 7.10787V6.03987C62.5409 5.97987 62.5649 5.96787 62.6009 5.96787H66.9569C66.9929 5.96787 67.0289 5.99187 67.0289 6.03987V7.10787C67.0289 8.07987 67.0289 8.83587 66.9689 9.26787C66.9329 9.54387 66.8729 9.80787 66.6689 9.84387C66.5729 9.86787 66.4889 9.86787 66.3929 9.86787C66.2969 9.86787 66.2609 9.90387 66.2609 9.93987C66.2609 10.0119 66.3209 10.0359 66.4409 10.0359C66.7649 10.0359 67.4609 9.99987 67.5089 9.99987C67.5689 9.99987 68.2649 10.0359 68.8649 10.0359C68.9849 10.0359 69.0449 10.0119 69.0449 9.95187C69.0449 9.90387 68.9849 9.86787 68.8889 9.86787C68.7809 9.86787 68.6249 9.85587 68.4689 9.83187C68.1569 9.79587 68.0969 9.55587 68.0609 9.26787C68.0129 8.83587 68.0129 8.05587 68.0129 7.07187V5.27187C68.0129 3.68787 68.0129 3.41187 68.0249 3.08787C68.0489 2.75187 68.0969 2.55987 68.4209 2.51187C68.4929 2.49987 68.5889 2.48787 68.6609 2.48787C68.7569 2.48787 68.7929 2.43987 68.7929 2.40387C68.7929 2.33187 68.7209 2.31987 68.6009 2.31987C68.2409 2.31987 67.5689 2.35587 67.5209 2.35587C67.4729 2.35587 66.7649 2.31987 66.2609 2.31987C66.1529 2.31987 66.0929 2.33187 66.0929 2.40387C66.0929 2.45187 66.1529 2.48787 66.2369 2.48787C66.3329 2.48787 66.4529 2.49987 66.5369 2.51187C66.9329 2.58387 66.9809 2.75187 67.0049 3.07587C67.0289 3.39987 67.0289 3.67587 67.0289 5.25987V5.47587C67.0289 5.53587 66.9929 5.53587 66.9569 5.53587H62.6129Z" fill="white"/>
<path d="M74.0729 2.78787C74.4209 2.78787 74.7929 2.79987 75.2489 2.79987C76.4609 2.81187 76.6169 2.93187 76.6649 3.41187C76.6769 3.53187 76.6769 3.54387 76.6769 3.57987C76.6769 3.67587 76.7009 3.72387 76.7609 3.72387C76.7969 3.72387 76.8449 3.68787 76.8449 3.57987C76.8449 3.48387 76.8689 2.69187 76.8689 2.35587C76.8689 2.30787 76.8449 2.24787 76.7969 2.24787C76.7609 2.24787 76.7249 2.25987 76.5689 2.29587C76.4009 2.33187 76.0409 2.35587 75.7049 2.35587H71.7689C71.7569 2.35587 71.4209 2.34387 71.0009 2.29587C70.7849 2.27187 70.5569 2.16387 70.4729 2.16387C70.4369 2.16387 70.4009 2.21187 70.3649 2.35587C70.2929 2.67987 70.1129 3.47187 70.1249 3.54387C70.1249 3.60387 70.1369 3.65187 70.1849 3.65187C70.2329 3.65187 70.2569 3.63987 70.2929 3.55587C70.3169 3.49587 70.3649 3.35187 70.4729 3.18387C70.6409 2.93187 70.8089 2.81187 71.5769 2.79987C72.0569 2.78787 72.6929 2.78787 73.0889 2.78787V7.07187C73.0889 7.97187 73.0889 8.83587 73.0409 9.26787C72.9929 9.67587 72.9569 9.81987 72.7289 9.85587C72.6329 9.86787 72.5609 9.86787 72.4649 9.86787C72.3689 9.86787 72.3329 9.91587 72.3329 9.95187C72.3329 10.0119 72.3809 10.0359 72.5129 10.0359C72.8249 10.0359 73.5329 9.99987 73.5809 9.99987C73.6289 9.99987 74.3369 10.0359 74.9489 10.0359C75.0689 10.0359 75.1049 9.99987 75.1049 9.93987C75.1049 9.90387 75.0569 9.86787 74.9609 9.86787C74.8649 9.86787 74.6369 9.85587 74.4929 9.81987C74.1929 9.74787 74.1689 9.57987 74.1329 9.29187C74.0849 8.84787 74.0729 7.99587 74.0729 7.07187V2.78787Z" fill="white"/>
<path d="M77.0278 9.33987C77.0278 9.36387 77.0518 9.42387 77.1238 9.48387C77.3638 9.68787 77.4598 9.92787 77.4598 10.0839C77.4598 10.3479 77.3879 10.6119 76.9919 11.1639C76.9558 11.2119 76.7519 11.4519 76.9079 11.4519C76.9678 11.4519 77.0998 11.3439 77.2318 11.1999C77.8679 10.5279 78.1678 9.93987 78.1678 9.47187C78.1678 9.00387 77.9278 8.64387 77.7358 8.64387C77.4358 8.64387 77.0278 9.05187 77.0278 9.33987Z" fill="white"/>
<path d="M80.3778 7.07187C80.3778 8.00787 80.3778 8.82387 80.3178 9.26787C80.2818 9.55587 80.2098 9.80787 80.0058 9.84387C79.9098 9.86787 79.8738 9.86787 79.7898 9.86787C79.6338 9.86787 79.6218 9.92787 79.6218 9.96387C79.6218 10.0119 79.6818 10.0359 79.7898 10.0359C80.1858 10.0359 80.4978 9.99987 80.8698 9.99987C80.9178 9.99987 81.2058 10.0119 81.5418 10.0359C81.8538 10.0359 82.0938 10.0599 82.2858 10.0599C84.1098 10.0599 85.0098 8.94387 85.0098 7.82787C85.0098 6.65187 83.9778 5.91987 83.1738 5.67987C83.6778 5.28387 84.1818 4.71987 84.1818 3.83187C84.1818 3.31587 83.8218 2.31987 82.0218 2.31987C81.5538 2.31987 81.1578 2.35587 80.8698 2.35587C80.8458 2.35587 80.1258 2.31987 79.6218 2.31987C79.5138 2.31987 79.4418 2.34387 79.4418 2.40387C79.4418 2.45187 79.4898 2.48787 79.5978 2.48787C79.6218 2.48787 79.7898 2.49987 79.8858 2.51187C80.2458 2.58387 80.3298 2.75187 80.3538 3.07587C80.3778 3.39987 80.3778 3.69987 80.3778 5.27187V7.07187ZM81.3138 2.81187C81.3138 2.75187 81.3498 2.72787 81.4578 2.70387C81.5658 2.66787 81.8178 2.64387 81.9138 2.64387C82.9338 2.64387 83.3058 3.56787 83.3058 4.39587C83.3058 4.79187 83.1858 5.12787 82.9938 5.35587C82.7658 5.60787 82.5858 5.64387 81.9738 5.64387C81.5778 5.64387 81.4458 5.61987 81.3738 5.60787C81.3378 5.58387 81.3138 5.57187 81.3138 5.48787V2.81187ZM81.3138 6.05187C81.3138 5.99187 81.3378 5.97987 81.3738 5.97987C81.5418 5.95587 81.9618 5.95587 82.1658 5.97987C82.4058 6.00387 82.6218 6.02787 82.9818 6.24387C83.7978 6.79587 84.0138 7.71987 84.0138 8.33187C84.0138 9.43587 83.1138 9.68787 82.5978 9.68787C82.4778 9.68787 81.9978 9.67587 81.7098 9.53187C81.3498 9.37587 81.3618 9.21987 81.3258 8.69187C81.3138 8.59587 81.3138 7.27587 81.3138 6.51987V6.05187Z" fill="white"/>
<path d="M87.4248 7.07187C87.4248 7.98387 87.4128 8.47587 87.4008 8.88387C87.3768 9.62787 87.2328 9.78387 87.0168 9.83187C86.9328 9.85587 86.8488 9.86787 86.7768 9.86787C86.7168 9.86787 86.6688 9.90387 86.6688 9.95187C86.6688 10.0119 86.7288 10.0359 86.8368 10.0359C87.1248 10.0359 87.3528 9.99987 87.6288 9.99987C88.0728 9.99987 88.6248 10.0239 89.0448 10.0359C89.4648 10.0359 89.8008 10.0599 90.5928 10.0599C90.9888 10.0599 91.0728 10.0359 91.1208 9.79587C91.1568 9.59187 91.2528 8.83587 91.2528 8.75187C91.2528 8.67987 91.2528 8.57187 91.1808 8.57187C91.1328 8.57187 91.0968 8.61987 91.0728 8.73987C90.9768 9.18387 90.8928 9.42387 90.5328 9.53187C90.2328 9.61587 89.8488 9.60387 89.6208 9.60387C89.2128 9.60387 88.9248 9.57987 88.7448 9.49587C88.4928 9.38787 88.4328 9.15987 88.4088 8.71587C88.3968 8.51187 88.4088 7.45587 88.4088 7.08387V6.20787C88.4088 6.15987 88.4208 6.12387 88.4928 6.12387C88.6848 6.12387 89.6568 6.14787 89.9328 6.17187C90.3888 6.20787 90.4608 6.37587 90.5088 6.53187C90.5328 6.62787 90.5448 6.74787 90.5448 6.81987C90.5448 6.90387 90.5568 6.97587 90.6168 6.97587C90.6648 6.97587 90.6888 6.93987 90.7008 6.84387C90.7128 6.68787 90.7128 6.44787 90.7488 6.11187C90.7848 5.76387 90.8328 5.53587 90.8328 5.47587C90.8328 5.41587 90.8088 5.40387 90.7848 5.40387C90.7368 5.40387 90.7008 5.42787 90.6528 5.49987C90.5568 5.63187 90.3768 5.66787 90.1008 5.67987C89.8488 5.70387 88.6248 5.71587 88.4808 5.71587C88.4208 5.71587 88.4088 5.66787 88.4088 5.59587V2.87187C88.4088 2.79987 88.4328 2.77587 88.4688 2.77587C88.4928 2.77587 89.6808 2.78787 89.8368 2.79987C90.4368 2.83587 90.5448 2.91987 90.6168 3.15987C90.6528 3.24387 90.6888 3.36387 90.7008 3.54387C90.7008 3.62787 90.7248 3.67587 90.7848 3.67587C90.8448 3.67587 90.8688 3.60387 90.8688 3.49587C90.8808 3.26787 90.8928 3.07587 90.9048 2.87187C90.9288 2.57187 91.0008 2.40387 91.0008 2.33187C91.0008 2.27187 90.9768 2.24787 90.9528 2.24787C90.9048 2.24787 90.8928 2.25987 90.8208 2.28387C90.7248 2.31987 90.5928 2.33187 90.3528 2.34387C90.1128 2.35587 87.9768 2.35587 87.9168 2.35587C87.2448 2.34387 86.9208 2.31987 86.6808 2.31987C86.5608 2.31987 86.5008 2.34387 86.5008 2.41587C86.5008 2.45187 86.5728 2.48787 86.6568 2.48787C86.7528 2.48787 86.8728 2.49987 86.9448 2.51187C87.2928 2.58387 87.3768 2.75187 87.4008 3.08787C87.4248 3.41187 87.4248 3.69987 87.4248 5.27187V7.07187Z" fill="white"/>
<path d="M95.4484 8.29587C95.4484 8.39187 95.4484 8.82387 95.4124 9.25587C95.3884 9.54387 95.3044 9.79587 95.1004 9.83187C95.0044 9.85587 94.8964 9.86787 94.8004 9.86787C94.7164 9.86787 94.6804 9.90387 94.6804 9.93987C94.6804 9.99987 94.7284 10.0359 94.8484 10.0359C95.1844 10.0359 95.9044 9.99987 95.9284 9.99987C95.9644 9.99987 96.7084 10.0359 97.3084 10.0359C97.4164 10.0359 97.4524 9.99987 97.4524 9.93987C97.4524 9.90387 97.4164 9.86787 97.3204 9.86787C97.2364 9.86787 97.0324 9.85587 96.8764 9.81987C96.5044 9.74787 96.4804 9.54387 96.4564 9.25587C96.4324 8.82387 96.4324 8.37987 96.4324 8.29587V7.41987C96.4324 7.10787 96.4084 6.84387 96.5524 6.47187C96.7324 6.05187 97.8964 4.09587 98.5924 3.13587C98.7844 2.87187 98.8564 2.76387 99.0364 2.64387C99.2044 2.52387 99.3844 2.49987 99.6364 2.48787C99.7204 2.48787 99.7804 2.45187 99.7804 2.39187C99.7804 2.35587 99.7444 2.31987 99.6364 2.31987C99.4324 2.31987 98.7364 2.35587 98.5804 2.35587C98.3884 2.35587 98.1364 2.31987 97.8484 2.31987C97.7284 2.31987 97.7044 2.35587 97.7044 2.39187C97.7044 2.43987 97.7404 2.47587 97.8364 2.48787C97.9684 2.51187 98.1124 2.51187 98.1124 2.66787C98.1124 2.79987 98.0644 2.90787 97.8364 3.30387C97.6684 3.60387 96.3244 5.79987 96.1324 6.21987C95.9524 5.91987 94.3684 3.37587 94.2124 3.07587C94.1284 2.91987 94.0564 2.79987 94.0564 2.67987C94.0564 2.58387 94.0804 2.52387 94.2484 2.48787C94.3444 2.46387 94.3804 2.43987 94.3804 2.39187C94.3804 2.35587 94.3444 2.31987 94.2244 2.31987C93.7804 2.31987 93.3844 2.35587 93.3124 2.35587C93.2884 2.35587 92.3764 2.31987 92.1844 2.31987C92.0884 2.31987 92.0404 2.35587 92.0404 2.39187C92.0404 2.45187 92.1004 2.48787 92.1724 2.48787C92.4124 2.49987 92.5684 2.54787 92.7364 2.66787C92.9044 2.79987 93.0244 2.94387 93.3484 3.39987C93.7204 3.91587 95.1124 6.18387 95.1844 6.31587C95.3644 6.62787 95.4484 6.84387 95.4484 7.41987V8.29587Z" fill="white"/>
<path d="M104.318 10.1679C106.874 10.1679 108.566 8.29587 108.566 6.00387C108.566 3.59187 106.754 2.17587 104.378 2.17587C101.414 2.17587 100.178 4.56387 100.178 6.15987C100.178 7.98387 101.378 10.1679 104.318 10.1679ZM104.618 9.75987C102.602 9.75987 101.294 8.19987 101.294 5.84787C101.294 3.57987 102.638 2.54787 104.306 2.54787C105.95 2.54787 107.438 3.89187 107.438 6.30387C107.438 9.35187 105.422 9.75987 104.618 9.75987Z" fill="white"/>
<path d="M111.95 5.27187C111.95 3.68787 111.95 3.41187 111.962 3.08787C111.986 2.75187 112.034 2.54787 112.322 2.51187C112.418 2.49987 112.514 2.48787 112.586 2.48787C112.646 2.48787 112.73 2.46387 112.73 2.40387C112.73 2.34387 112.694 2.31987 112.562 2.31987C112.238 2.31987 111.53 2.35587 111.434 2.35587C111.35 2.35587 110.702 2.31987 110.186 2.31987C110.054 2.31987 110.006 2.34387 110.006 2.41587C110.006 2.45187 110.054 2.48787 110.138 2.48787C110.234 2.48787 110.378 2.49987 110.45 2.51187C110.822 2.55987 110.882 2.76387 110.894 3.08787C110.93 3.41187 110.93 3.68787 110.93 5.27187V6.75987C110.93 8.24787 111.302 8.96787 111.818 9.44787C112.598 10.1679 113.726 10.1679 114.062 10.1679C114.71 10.1679 115.478 10.1079 116.258 9.44787C117.11 8.71587 117.23 7.41987 117.23 6.33987V5.27187C117.23 3.69987 117.23 3.42387 117.242 3.09987C117.266 2.75187 117.314 2.53587 117.65 2.49987C117.77 2.48787 117.794 2.48787 117.866 2.48787C117.938 2.48787 117.986 2.45187 117.986 2.40387C117.986 2.34387 117.938 2.31987 117.818 2.31987C117.482 2.31987 116.966 2.35587 116.906 2.35587C116.858 2.35587 116.258 2.31987 115.742 2.31987C115.634 2.31987 115.574 2.34387 115.574 2.41587C115.574 2.45187 115.622 2.48787 115.694 2.48787C115.802 2.48787 115.946 2.49987 116.03 2.51187C116.414 2.57187 116.45 2.75187 116.474 3.09987C116.498 3.42387 116.498 3.69987 116.498 5.27187V6.54387C116.498 7.58787 116.39 8.49987 115.91 9.05187C115.454 9.57987 114.89 9.74787 114.266 9.74787C113.774 9.74787 113.198 9.65187 112.682 9.19587C112.226 8.78787 111.95 8.16387 111.95 6.69987V5.27187Z" fill="white"/>
<path d="M120.105 8.53587C120.105 9.41187 120.045 9.73587 119.781 9.81987C119.625 9.86787 119.493 9.86787 119.409 9.86787C119.289 9.86787 119.241 9.90387 119.241 9.95187C119.241 10.0239 119.313 10.0359 119.421 10.0359C119.937 10.0359 120.381 9.99987 120.465 9.99987C120.549 9.99987 120.981 10.0359 121.629 10.0359C121.761 10.0359 121.821 10.0119 121.821 9.95187C121.821 9.90387 121.773 9.86787 121.677 9.86787C121.581 9.86787 121.377 9.86787 121.185 9.81987C120.885 9.74787 120.813 9.43587 120.789 8.60787L120.633 3.91587C120.933 4.22787 122.133 5.47587 123.381 6.77187C124.425 7.79187 126.093 9.44787 126.141 9.47187C126.729 10.0239 126.849 10.1079 126.933 10.1079C127.017 10.1079 127.041 10.0479 127.041 9.44787L127.065 3.42387C127.065 2.70387 127.149 2.58387 127.425 2.52387C127.557 2.49987 127.653 2.49987 127.725 2.48787C127.797 2.47587 127.833 2.43987 127.833 2.39187C127.833 2.33187 127.797 2.31987 127.665 2.31987C127.197 2.31987 126.825 2.35587 126.705 2.35587C126.597 2.35587 126.093 2.31987 125.577 2.31987C125.457 2.31987 125.361 2.33187 125.361 2.39187C125.361 2.43987 125.385 2.48787 125.505 2.48787C125.589 2.48787 125.769 2.49987 125.973 2.53587C126.297 2.61987 126.369 2.83587 126.381 3.48387L126.513 8.47587C126.201 8.18787 125.001 6.95187 124.065 6.03987C122.385 4.32387 120.717 2.61987 120.609 2.49987C120.525 2.41587 120.321 2.17587 120.237 2.17587C120.141 2.17587 120.105 2.29587 120.105 2.66787C120.117 4.65987 120.105 2.81187 120.105 8.53587Z" fill="white"/>
<path d="M130.641 7.04787C130.641 8.01987 130.653 8.83587 130.581 9.27987C130.545 9.54387 130.473 9.79587 130.269 9.83187C130.173 9.85587 130.089 9.86787 129.993 9.86787C129.897 9.86787 129.861 9.91587 129.861 9.95187C129.861 10.0119 129.921 10.0359 130.029 10.0359C130.209 10.0359 130.497 10.0119 130.725 10.0119C130.953 9.99987 131.109 9.99987 131.133 9.99987C131.169 9.99987 131.541 10.0359 131.997 10.0599C132.453 10.0959 133.041 10.1199 133.497 10.1199C135.321 10.1199 136.233 9.41187 136.701 8.94387C137.289 8.34387 137.841 7.34787 137.841 6.07587C137.841 4.86387 137.349 4.02387 136.821 3.49587C135.549 2.21187 133.581 2.31987 132.525 2.31987C131.853 2.31987 131.229 2.35587 131.145 2.35587C131.109 2.35587 130.353 2.31987 129.861 2.31987C129.753 2.31987 129.681 2.34387 129.681 2.41587C129.681 2.45187 129.741 2.48787 129.801 2.48787C129.897 2.48787 130.077 2.49987 130.149 2.51187C130.497 2.58387 130.593 2.75187 130.617 3.07587C130.641 3.38787 130.641 3.68787 130.641 5.27187V7.04787ZM131.625 5.07987C131.625 4.35987 131.625 3.33987 131.637 2.99187C131.637 2.88387 131.673 2.83587 131.769 2.78787C131.841 2.73987 132.213 2.70387 132.381 2.70387C133.569 2.70387 134.745 2.82387 135.765 3.84387C136.173 4.23987 136.797 5.06787 136.797 6.42387C136.797 7.38387 136.545 8.28387 136.017 8.81187C135.393 9.43587 134.505 9.74787 133.521 9.74787C132.273 9.74787 131.889 9.49587 131.757 9.29187C131.673 9.18387 131.649 8.85987 131.637 8.48787C131.637 8.30787 131.625 7.37187 131.625 6.29187V5.07987Z" fill="white"/>
<path d="M139.949 5.65587C139.781 5.65587 139.733 5.66787 139.709 5.75187L139.553 6.37587C139.541 6.47187 139.541 6.54387 139.601 6.54387C139.661 6.54387 139.829 6.47187 140.069 6.39987C140.609 6.23187 141.629 6.07587 142.445 5.93187C142.673 5.88387 142.841 5.84787 142.841 5.75187C142.841 5.69187 142.805 5.65587 142.541 5.65587H139.949Z" fill="white"/>
</g>
</svg>
