<?xml version="1.0" encoding="UTF-8"?>
<svg width="110px" height="31px" viewBox="0 0 110 31" version="1.1" xmlns="http://www.w3.org/2000/svg" xmlns:xlink="http://www.w3.org/1999/xlink">
    <title>编组</title>
    <defs>
        <polygon id="path-1" points="0 0 29.8383878 0 29.8383878 29.9109224 0 29.9109224"></polygon>
        <polygon id="path-3" points="0 0 27.8974452 0 27.8974452 30.0482714 0 30.0482714"></polygon>
        <polygon id="path-5" points="0 31 110 31 110 0 0 0"></polygon>
    </defs>
    <g id="页面-1" stroke="none" stroke-width="1" fill="none" fill-rule="evenodd">
        <g id="画板" transform="translate(-1296.000000, -1689.000000)">
            <g id="编组" transform="translate(1296.000000, 1689.000000)">
                <g transform="translate(0.000000, 0.000383)">
                    <mask id="mask-2" fill="white">
                        <use xlink:href="#path-1"></use>
                    </mask>
                    <g id="Clip-2"></g>
                    <path d="M14.77137,11.6506126 C13.461724,14.7183774 12.1982331,17.6782662 10.9232033,20.6656028 L18.5272267,20.6656028 C17.2739924,17.65784 16.0470407,14.7119942 14.77137,11.6506126 M7.02183035,29.8746422 L-0.000128208117,29.8746422 C5.00319355,19.8791928 9.97446327,9.94693709 14.945092,0.0146813549 C15.0200937,0.0102131164 15.0944544,0.00510655822 15.1694562,0 C20.0445698,9.93544734 24.9196834,19.8721713 29.8383878,29.8969834 L28.8390056,29.8969834 C26.9793468,29.8969834 25.118406,29.8752806 23.2587473,29.9103881 C22.7234784,29.9206013 22.4427026,29.7871924 22.2420569,29.2669618 C21.8285857,28.1907547 21.3215226,27.1509317 20.8766405,26.0862144 C20.7516376,25.7868424 20.5875312,25.6872645 20.2618826,25.6885411 C16.6156437,25.7000309 12.9687638,25.6910944 9.32188396,25.7076907 C9.13341803,25.7089674 8.84559081,25.8430145 8.77379426,25.9955729 C8.17185715,27.2671059 7.60966456,28.5571502 7.02183035,29.8746422" id="Fill-1" fill="#FFFFFF" mask="url(#mask-2)"></path>
                </g>
                <g transform="translate(25.057443, 0.951729)">
                    <mask id="mask-4" fill="white">
                        <use xlink:href="#path-3"></use>
                    </mask>
                    <g id="Clip-4"></g>
                    <path d="M0,0.0130279087 C2.42377445,0.0130279087 4.74305928,0.0047297516 7.06234411,0.032177502 C7.21811697,0.0340924614 7.43607077,0.280483896 7.51491876,0.460490073 C8.98546586,3.81613714 10.4387049,7.17880573 11.8964312,10.538921 C12.6458076,12.265576 13.395184,13.9915927 14.1881512,15.8197406 C14.3118721,15.5516463 14.3964894,15.37547 14.4746964,15.1967405 C16.6035922,10.3308288 18.7401804,5.46810873 20.8485629,0.592622267 C21.0511317,0.126010509 21.2934451,-0.0067600044 21.7851232,0 C23.7909392,0.0296242229 25.7980373,0.0123895889 27.8974452,0.0123895889 C27.8070584,0.240908069 27.7448775,0.419637607 27.6673116,0.590068988 C23.2652859,10.2197612 18.8619781,19.848815 14.4593114,29.4778688 C14.4439264,29.5110615 14.4381571,29.5519139 14.4144386,29.5774467 C14.2669992,29.7363884 14.1150726,29.8921384 13.963787,30.0485267 C13.8105783,29.8966066 13.5977529,29.7727726 13.5124945,29.5895748 C12.3951607,27.180556 11.2951351,24.7619623 10.1906222,22.3465603 C6.88605795,15.1156738 3.58149374,7.88542573 0.276929532,0.654539285 C0.194876337,0.475809747 0.119874589,0.292611971 0,0.0130279087" id="Fill-3" fill="#FFFFFF" mask="url(#mask-4)"></path>
                </g>
                <path d="M100.432982,8.81845156 C101.764423,8.9907979 102.654188,8.84015443 103.32087,8.43290641 C104.554873,7.67905076 104.397818,5.58280861 103.436898,5.02491712 C102.479825,4.46957891 101.465057,4.56213528 100.432982,4.61894574 L100.432982,8.81845156 Z M96.482249,1.39543087 C98.3816523,1.39543087 100.242593,1.34628024 102.099688,1.41138886 C103.496515,1.4611778 104.844623,1.75671986 106.036959,2.59036549 C107.444043,3.57337795 108.208163,5.58663853 107.872258,7.27180274 C107.531866,8.98313806 106.49338,10.0740266 104.943344,10.8732029 C106.608126,13.2190281 108.256882,15.5418738 109.999872,17.99749 C108.358808,17.99749 106.928005,18.0025965 105.497203,17.9872768 C105.388226,17.9860002 105.24912,17.8634428 105.177323,17.760035 C103.843959,15.8195429 102.524057,13.8688376 101.183641,11.9321754 C101.038124,11.7221682 100.78299,11.5874828 100.579139,11.4176897 C100.526574,11.4572655 100.47465,11.4968413 100.422084,11.5370555 L100.422084,17.9713189 L96.482249,17.9713189 L96.482249,1.39543087 Z" id="Fill-5" fill="#FFFFFF"></path>
                <path d="M86.7895231,7.72877587 C86.0830963,9.38968393 85.4087216,10.9759086 84.7298597,12.5710697 L88.8132882,12.5710697 C88.1363493,10.9503758 87.4773596,9.37372593 86.7895231,7.72877587 M78.2534267,17.9980644 C79.5842269,15.3547823 80.8720774,12.8180995 82.1419788,10.2718419 C83.6375265,7.27365387 85.1164071,4.26716771 86.6119548,1.26897972 C86.6927259,1.10748481 86.8581144,0.988119016 86.9843994,0.849603624 C87.0876069,0.981735818 87.2177382,1.1004633 87.2901758,1.24791517 C88.7966211,4.2990837 90.3011434,7.35152888 91.79605,10.4084423 C92.8473566,12.5583033 93.8864834,14.7139092 94.9262512,16.8695151 C95.096768,17.2225059 95.2422842,17.5876248 95.4211345,17.9980644 C94.0467435,17.9980644 92.7261999,18.0070009 91.4050153,17.9846597 C91.2787303,17.9821065 91.1024441,17.81742 91.0383401,17.6852878 C90.7575643,17.1031401 90.4973018,16.510141 90.2575526,15.9101205 C90.153063,15.6484093 90.0030595,15.5724493 89.7286941,15.5737259 C87.7933926,15.5852157 85.8593732,15.5903222 83.9240717,15.569896 C83.5586785,15.5660661 83.4093161,15.7205395 83.2862363,16.0192731 C83.0548206,16.5829095 82.8099431,17.1427159 82.540065,17.6891177 C82.4746789,17.8218882 82.2900592,17.9821065 82.1580048,17.9846597 C80.8906676,18.0076392 79.6214073,17.9980644 78.2534267,17.9980644" id="Fill-7" fill="#FFFFFF"></path>
                <path d="M64.1954067,1.68720684 L64.1954067,5.68308864 C63.7383447,5.44244209 63.2774365,5.1845609 62.8037075,4.95412746 C61.8402235,4.48496242 60.8555852,4.05090497 59.7485081,4.15239782 C59.0395172,4.21750643 58.5132229,4.50538865 58.3978356,4.95285082 C58.2388575,5.5688294 58.4234772,6.17204159 59.067082,6.55503346 C60.1350556,7.19079996 61.2421327,7.76209616 62.304978,8.40488418 C63.5857771,9.17980439 64.8383704,10.0243015 65.2685086,11.570312 C65.764033,13.3563307 65.5306942,15.0242603 64.295409,16.4917574 C63.2043579,17.7907382 61.7748374,18.3090538 60.1222348,18.4513992 C58.5427108,18.5867229 57.0478041,18.2101143 55.5343073,17.8864862 C54.9253188,17.7562689 54.9035234,17.2966787 54.8714714,16.8319819 C54.7887771,15.6217276 54.7118523,14.4114733 54.6297991,13.1546216 C55.1868633,13.4514403 55.7311068,13.7495357 56.2830427,14.0342263 C57.3830684,14.5997776 58.546557,14.9310656 59.7901758,14.7944651 C60.2023649,14.7491444 60.631862,14.5812663 60.9889217,14.3642376 C61.6491935,13.9614578 61.7857351,12.9324864 61.0645644,12.3631051 C60.2754435,11.740105 59.4132439,11.207108 58.5721987,10.6517698 C57.7760262,10.1270709 56.8971596,9.70450324 56.1798352,9.09171626 C55.2278899,8.27849686 54.643902,7.22399259 54.5227453,5.91862864 C54.4022297,4.6068815 54.7221089,3.4483311 55.6048218,2.50936271 C56.4074046,1.65529085 57.4394799,1.14910326 58.6266871,0.947394214 C60.536988,0.622489447 62.3299786,1.08144137 64.1954067,1.68720684" id="Fill-9" fill="#FFFFFF"></path>
                <polygon id="Fill-11" fill="#FFFFFF" points="75.6765076 17.9749573 71.5674375 17.9749573 71.5674375 5.03621538 66.4089839 5.03621538 66.4089839 1.42907032 80.8214993 1.42907032 80.8214993 4.9947246 75.6765076 4.9947246"></polygon>
                <path d="M57.523905,25.4465541 C57.523905,25.2582498 57.5258281,25.0980315 57.5232639,24.9371749 C57.5130073,24.2082137 57.2251801,23.8807557 56.5046505,23.8309667 C55.739248,23.7779862 54.9712814,23.709686 54.2058789,23.7281973 C53.2994475,23.7492618 52.3859647,23.7977741 51.4929952,23.9401194 C50.668617,24.070975 50.494895,24.2803439 50.4654071,25.2499516 C50.4301499,26.4302049 50.4673302,27.6187563 50.5698967,28.7951797 C50.6436164,29.6307402 50.9487517,29.8413858 51.9494161,29.8656419 C53.3481666,29.8988346 54.7488403,29.8835149 56.1482319,29.8656419 C56.4296487,29.861812 56.7161939,29.7769155 56.987354,29.6888273 C57.6065992,29.4877566 57.5424952,28.9177371 57.6328819,28.4370823 C57.6489079,28.3502708 57.6463437,28.2596294 57.6540362,28.1440935 L58.8284226,28.1440935 C58.692522,28.7626253 58.6232896,29.3505179 58.4194387,29.8892598 C58.3207184,30.1503325 58.0046854,30.4101287 57.7283969,30.5084299 C57.2956945,30.6629033 56.8161962,30.7177988 56.3514418,30.7458849 C55.328341,30.8078019 54.3026761,30.8652507 53.2789342,30.851846 C52.5019931,30.8409945 51.7167183,30.7695027 50.952598,30.6335406 C49.9057787,30.4471512 49.357689,29.706062 49.3371757,28.6560259 C49.3217907,27.8204654 49.2249936,26.9842664 49.2455069,26.1499825 C49.2608919,25.5250674 49.3711508,24.8956841 49.5038462,24.2816205 C49.7141076,23.3069062 50.6359239,22.9194461 51.5160726,22.8530608 C52.7936665,22.7560362 54.0795939,22.7311418 55.3616751,22.7407166 C56.0270752,22.7458231 56.6924753,22.8811469 57.3559524,22.9743416 C58.0027623,23.064983 58.3072566,23.5475528 58.4745682,24.0888479 C58.6046994,24.508224 58.6046994,24.9671759 58.6668803,25.4465541 L57.523905,25.4465541 Z" id="Fill-13" fill="#FFFFFF"></path>
                <path d="M71.6117975,23.827073 L71.6117975,26.7927067 C73.3881209,26.7927067 75.1509825,26.8476022 76.9074337,26.7729188 C78.0311779,26.7250448 78.1991305,26.4397158 78.1991305,25.2907402 C78.1991305,25.1260537 78.2055409,24.9613672 78.1978484,24.7979574 C78.1651554,24.1309132 77.8946362,23.8372861 77.2247488,23.8321796 C75.3689363,23.8174982 73.5137649,23.827073 71.6117975,23.827073 L71.6117975,23.827073 Z M71.5547449,27.6748646 L71.5547449,30.7260332 L70.5008741,30.7260332 L70.5008741,22.837039 L71.0752465,22.837039 C73.0631134,22.837039 75.0509802,22.8306558 77.0394881,22.8427839 C77.3984708,22.8446989 77.7779669,22.8619335 78.11259,22.9755544 C78.6600387,23.1613055 79.1664608,23.4874869 79.2087694,24.1251683 C79.2594116,24.8924287 79.311977,25.6833069 79.1799226,26.4326943 C79.0337654,27.2631484 78.3786219,27.671673 77.5324483,27.673588 C75.7471503,27.6780562 73.9618523,27.6748646 72.1765542,27.6748646 L71.5547449,27.6748646 Z" id="Fill-15" fill="#FFFFFF"></path>
                <path d="M99.1276953,28.0846021 C98.269983,26.6158283 97.4423996,25.1987584 96.5885335,23.7363678 C95.7391548,25.1930135 94.9013147,26.6298713 94.053218,28.0846021 L99.1276953,28.0846021 Z M101.857887,30.7534171 C101.520059,30.7534171 101.210436,30.7674601 100.904019,30.7451189 C100.804016,30.7374591 100.69504,30.6500093 100.62132,30.5708576 C100.525164,30.4661732 100.42452,30.3442541 100.386058,30.2127602 C100.041819,29.0542098 99.2135947,28.8971832 98.1308772,28.9725049 C96.7757174,29.0656996 95.4083778,29.0044209 94.0468076,28.9878246 C93.6910301,28.9833563 93.4153826,29.0120807 93.2974312,29.4123072 C93.2544815,29.5603974 93.0942213,29.671465 93.0378097,29.8189169 C92.725623,30.6423494 92.1659945,30.9755524 91.2589221,30.6870318 C91.7038043,29.9223247 92.1512506,29.1371914 92.6134409,28.3616329 C93.6307723,26.6496592 94.6583603,24.9440688 95.6750507,23.2314568 C96.0077508,22.6722887 97.1154689,22.6486709 97.4526562,23.2065623 C98.9078184,25.6187728 100.363622,28.0297066 101.813655,30.4444703 C101.855323,30.5134088 101.839938,30.61554 101.857887,30.7534171 L101.857887,30.7534171 Z" id="Fill-17" fill="#FFFFFF"></path>
                <path d="M66.9692534,28.0858149 C66.1025665,26.6138495 65.2711369,25.1999712 64.4230402,23.7605601 C63.5640458,25.2242273 62.7287699,26.6464038 61.8825963,28.0858149 L66.9692534,28.0858149 Z M59.0985571,30.7112241 C59.4235647,30.1399279 59.7024173,29.6273572 60.0005012,29.1262761 C61.181939,27.1366334 62.3646588,25.1469906 63.5640458,23.167561 C63.6557146,23.0169175 63.8659759,22.8975517 64.0454673,22.8452095 C65.1192102,22.5311562 65.4128068,23.3775682 65.8166624,24.0529105 C67.0878459,26.1778771 68.3590293,28.3022053 69.6263666,30.4290868 C69.6680342,30.4999403 69.6680342,30.5956883 69.7052146,30.7533532 C69.3590527,30.7533532 69.0526353,30.7718645 68.7507051,30.7437784 C68.637241,30.732927 68.5058276,30.6359024 68.4314669,30.5407928 C68.2994126,30.3729147 68.1609478,30.1897169 68.10069,29.9899228 C67.8109396,29.0439329 67.1327187,28.9360568 66.2551342,28.976271 C64.767279,29.0439329 63.2742954,29.0005271 61.7838761,28.9896757 C61.4883564,28.9871224 61.2652742,29.0126552 61.1575794,29.3439432 C61.0986037,29.5265026 60.9389846,29.6733162 60.8479568,29.8488541 C60.3492273,30.8152703 60.3517914,30.8165469 59.0985571,30.7112241 L59.0985571,30.7112241 Z" id="Fill-19" fill="#FFFFFF"></path>
                <path d="M86.7231754,23.8264347 L83.5910511,23.8264347 C82.6955174,23.8264347 82.6955174,23.8264347 82.7576983,22.8746999 L91.7688058,22.8746999 C91.7784214,22.9895974 91.7835497,23.1115165 91.7995757,23.2308823 C91.8579104,23.6719613 91.7047017,23.8551591 91.2226392,23.8372861 C90.2854379,23.8015402 89.3450314,23.8264347 88.4065479,23.8264347 L87.8315345,23.8264347 L87.8315345,30.7126284 L86.7231754,30.7126284 L86.7231754,23.8264347 Z" id="Fill-21" fill="#FFFFFF"></path>
                <polygon id="Fill-23" fill="#FFFFFF" points="103.723892 29.7801071 109.795829 29.7801071 109.795829 30.7165222 102.666175 30.7165222 102.666175 22.8619973 103.723892 22.8619973"></polygon>
                <mask id="mask-6" fill="white">
                    <use xlink:href="#path-5"></use>
                </mask>
                <g id="Clip-26"></g>
                <polygon id="Fill-25" fill="#FFFFFF" mask="url(#mask-6)" points="80.8941933 30.7440338 81.9147299 30.7440338 81.9147299 22.8761042 80.8941933 22.8761042"></polygon>
            </g>
        </g>
    </g>
</svg>