<svg width="96" height="16" viewBox="0 0 96 16" fill="none" xmlns="http://www.w3.org/2000/svg">
<path d="M37.8731 15.9632H35.1137V4.81231L34.9983 4.76801L30.0294 12.1611L25.1259 4.84216L25.0298 4.87298V15.9478H22.2925V0.125273C23.227 0.125273 24.1654 0.111791 25.1029 0.140682C25.225 0.140682 25.3663 0.344843 25.4548 0.481592C26.897 2.70554 28.335 4.93141 29.7689 7.1592C29.865 7.30269 29.9612 7.44137 30.0804 7.61856L32.8879 3.27725C33.4946 2.3383 34.0955 1.39647 34.7147 0.463295C34.8022 0.329435 34.9541 0.147423 35.081 0.143571C36.0031 0.116606 36.927 0.129126 37.877 0.129126L37.8731 15.9632Z" fill="white"/>
<path fill-rule="evenodd" clip-rule="evenodd" d="M55.7209 8.02179C55.5284 7.91932 55.3357 7.81672 55.148 7.70717C55.2297 7.64938 55.3336 7.57716 55.4412 7.51071C56.8354 6.65362 57.4325 5.38917 57.295 3.7867C57.1584 2.2083 56.246 1.19616 54.8144 0.604864C53.8981 0.219654 52.928 0.123352 51.9463 0.123352H45.4631C45.3626 0.123352 45.2604 0.129256 45.1526 0.135483C45.0975 0.138666 45.0409 0.141933 44.9824 0.144539V2.59832C45.5543 2.59832 46.1234 2.59793 46.6905 2.59753C48.2895 2.59642 49.8722 2.59532 51.455 2.60314C51.9023 2.6008 52.3491 2.63624 52.7905 2.70907C53.8346 2.90168 54.4538 3.57579 54.5153 4.53882C54.5788 5.52784 54.0865 6.26263 53.052 6.56791C52.4991 6.72271 51.9281 6.80271 51.354 6.80578C49.9339 6.82679 48.5137 6.82335 47.0935 6.81991C46.5609 6.81862 46.0284 6.81733 45.4958 6.81733H44.9785V15.9458C45.0339 15.9659 45.0913 15.9801 45.1497 15.9882C45.8699 15.9871 46.5901 15.9875 47.3102 15.9878C49.1673 15.9887 51.0241 15.9897 52.8808 15.9661C54.1442 15.9507 55.3595 15.68 56.4383 14.9722C58.6006 13.5518 58.8622 10.3141 56.9094 8.75108C56.5495 8.46295 56.1357 8.24267 55.7209 8.02179ZM47.7447 13.5123V9.12281L47.7437 9.118C48.3275 9.13695 48.9089 9.147 49.4877 9.157C50.8496 9.18054 52.1976 9.20384 53.5308 9.34238C55.023 9.4955 55.7306 10.7339 55.2999 12.0388C55.0374 12.8256 54.4029 13.1665 53.6654 13.3659C53.3898 13.4483 53.1048 13.4956 52.8174 13.5065C51.5764 13.5158 50.335 13.5145 49.0782 13.5132C48.6358 13.5127 48.1915 13.5123 47.7447 13.5123Z" fill="white"/>
<path d="M96 15.9661C94.8779 15.9661 93.8597 15.9776 92.8435 15.9507C92.7156 15.9507 92.5666 15.7581 92.4714 15.6232C91.3493 14.0497 90.2273 12.477 89.1283 10.8852C88.9024 10.5587 88.6678 10.4345 88.263 10.4489C87.3063 10.4826 86.3478 10.4595 85.3382 10.4595V15.9256H82.5961V7.98646H83.1393C85.3507 7.98068 87.5563 7.98646 89.7648 7.95949C90.1643 7.94963 90.5594 7.87348 90.934 7.73414C92.3877 7.20159 93.0281 5.83217 92.5416 4.36356C92.2175 3.38609 91.1955 2.71968 89.8696 2.70042C87.6457 2.66864 85.4209 2.68019 83.1961 2.67345H82.5903V0.195592C82.6399 0.169069 82.6935 0.150852 82.749 0.141663C85.4209 0.160923 88.0957 0.114698 90.7638 0.225446C93.1906 0.321748 95.0597 1.97141 95.4327 4.12088C95.9077 6.86068 94.6453 8.9803 91.9868 9.90576C91.9281 9.92695 91.8724 9.95873 91.7483 10.0165L96 15.9661Z" fill="white"/>
<path d="M16.5373 15.9892C15.5701 15.9892 14.6913 16.0065 13.8154 15.9709C13.6798 15.9651 13.5019 15.7388 13.4308 15.576C12.07 12.3961 10.7175 9.21302 9.37338 6.02669C9.06283 5.29287 8.74169 4.56386 8.42153 3.83389C8.36768 3.70869 8.29846 3.59024 8.19654 3.39378C7.57543 4.83832 6.98413 6.21448 6.39955 7.58775C5.27399 10.2418 4.15163 12.8982 3.03248 15.5568C2.89691 15.8813 2.73058 16.0142 2.36426 15.9988C1.60181 15.967 0.83648 15.9892 0 15.9892C0.0846094 15.7715 0.139413 15.6117 0.207678 15.4576C2.39406 10.4633 4.5782 5.46878 6.7601 0.473896C6.91009 0.130097 7.06874 -0.022061 7.45813 0.00297758C8.0023 0.0411956 8.54847 0.0411956 9.09263 0.00297758C9.45703 -0.022061 9.6224 0.109873 9.76566 0.434412C11.1348 3.59441 12.5129 6.7496 13.9 9.89997C14.7115 11.7548 15.5223 13.6095 16.3325 15.4643C16.3892 15.6107 16.446 15.7561 16.5373 15.9892Z" fill="white"/>
<path d="M66.853 9.23065V13.5074H76.1004V15.9555H64.3638V6.76917H76.0937V9.23065H66.853Z" fill="white"/>
<path d="M64.3521 0.148376H76.1022V2.57905H64.3521V0.148376Z" fill="white"/>
</svg>
