<svg xmlns="http://www.w3.org/2000/svg" viewBox="0 0 1013.23 391.54"><defs><style>.cls-1{fill:#fff;}</style></defs><g id="Layer_2" data-name="Layer 2"><g id="图层_1" data-name="图层 1"><path class="cls-1" d="M261.42,168.66a93.14,93.14,0,1,1-93.15-93.52h.42V0h-.42A168.28,168.28,0,1,0,336.56,168.66Z"/><rect class="cls-1" x="168.69" y="75.02" width="92.72" height="93.64"/><line class="cls-1" x1="322.38" y1="391.54" x2="322.38" y2="378.83"/><path class="cls-1" d="M958.74,67.69a54.5,54.5,0,1,0,54.49,54.5A54.5,54.5,0,0,0,958.74,67.69Zm0,86.37a31.87,31.87,0,1,1,31.86-31.87A31.87,31.87,0,0,1,958.74,154.06Z"/><path class="cls-1" d="M772,67.06a54.5,54.5,0,1,0,47.85,80.59l-20.16-10a32,32,0,0,1-58.57-7.6h84.72c.09-.6.17-1.2.25-1.81h0v0c0-.26.06-.52.09-.78l.12-1.24c0-.21,0-.43,0-.64,0-.47.06-.94.08-1.41l0-.56c0-.65,0-1.31,0-2A54.45,54.45,0,0,0,772,67.06Zm-29.79,42.76h0a32,32,0,0,1,59.58,0H742.16Z"/><path class="cls-1" d="M613,77.38a54.49,54.49,0,1,0,0,88.78v7.48h22.61V69.84H613Zm0,48.45a1,1,0,0,1,0,.29c0,.32-.09.65-.14,1a5,5,0,0,1-.11.58c0,.25-.09.49-.15.74s-.13.64-.22,1a8.17,8.17,0,0,1-.27,1c-.1.37-.21.75-.33,1.12a.85.85,0,0,1-.06.17c-.12.41-.27.82-.43,1.22a29.47,29.47,0,0,1-2.47,5.16c-.23.4-.47.77-.73,1.15,0,0,0,0,0,0-.17.26-.34.53-.53.78l-.49.69c0,.08-.12.16-.17.23-.28.37-.56.73-.85,1.07s-.41.5-.64.74-.45.52-.67.76-.57.6-.87.87a8.21,8.21,0,0,1-.59.59c-.2.2-.41.38-.63.58s-.62.53-.94.8-.79.65-1.2.95a30.29,30.29,0,0,1-2.6,1.75c-.41.25-.84.51-1.28.73s-.94.49-1.43.73a13.61,13.61,0,0,1-1.35.61c-.45.2-.92.39-1.39.55l-.12,0c-.43.16-.85.3-1.29.44l-.28.08c-.45.14-.9.27-1.36.38a14.11,14.11,0,0,1-1.4.32,1.13,1.13,0,0,1-.31.06,8,8,0,0,1-.85.16c-.38.07-.75.14-1.13.18s-.84.12-1.26.14-1,.09-1.49.11-1,0-1.52,0a31.77,31.77,0,0,1-22.53-9.34,27.91,27.91,0,0,1-2.06-2.27,31.88,31.88,0,0,1-4.29-6.8,30.12,30.12,0,0,1-1.49-3.81c-.13-.43-.27-.87-.38-1.31-.24-.89-.44-1.79-.61-2.7s-.28-1.85-.38-2.79-.12-1.88-.12-2.85,0-1.91.12-2.85.22-1.87.38-2.79.37-1.81.61-2.7c.11-.44.23-.88.38-1.31a30.12,30.12,0,0,1,1.49-3.81,31.49,31.49,0,0,1,4.29-6.8,27.91,27.91,0,0,1,2.06-2.27,31.77,31.77,0,0,1,22.53-9.34c.5,0,1,0,1.52,0s1,.06,1.49.11.85.08,1.26.14l.33,0c.28,0,.53.08.8.14a8,8,0,0,1,.85.16,1.13,1.13,0,0,1,.31.06,14.11,14.11,0,0,1,1.4.32c.46.11.91.24,1.36.39l.28.07c.44.14.86.28,1.29.44l.12.06a13.78,13.78,0,0,1,1.39.54,13.61,13.61,0,0,1,1.35.61c.49.24,1,.48,1.43.73s.87.48,1.28.73c.9.54,1.76,1.13,2.6,1.75.41.3.8.62,1.2,1s.64.53.94.8.43.38.63.58a8.21,8.21,0,0,1,.59.59c.31.29.61.59.89.91.18.17.35.36.51.54l.77.91c.3.35.58.71.86,1.08,0,.07.12.15.17.23.16.23.33.45.49.69s.36.52.53.78a26.4,26.4,0,0,1,1.38,2.3c.25.45.48.91.7,1.38a26.37,26.37,0,0,1,1.13,2.65,8.53,8.53,0,0,1,.32.89c.28.8.53,1.64.74,2.5.09.39.19.78.27,1.18a4.76,4.76,0,0,1,.1.52q.09.42.15.84c0,.26.09.51.12.78s0,.25,0,.38a30.66,30.66,0,0,1,0,8.12Z"/><path class="cls-1" d="M520.94,111.82c0-.66-.08-1.33-.13-2l-.06-.81c-.08-.82-.17-1.63-.27-2.44h0c-.14-1.07-.29-2.13-.48-3.18H459.66v24.7H494a42.51,42.51,0,0,1-40.56,30.08,42.07,42.07,0,0,1-12.81-2,42.77,42.77,0,0,1,14.12-83,42.12,42.12,0,0,1,12.63,1.92s.05,0,.08,0a42.46,42.46,0,0,1,18.61,13l19.74-15.93A68.17,68.17,0,0,0,475.5,50.73a.5.5,0,0,0-.13,0,67.46,67.46,0,0,0-20.21-3.08c-37.55,0-68,30.63-68,68.42a68.43,68.43,0,0,0,45.36,64.55A68.29,68.29,0,0,0,521,115.33c0-.91,0-1.81-.06-2.71C521,112.35,521,112.09,520.94,111.82Z"/><rect class="cls-1" x="831.71" y="149.17" width="23.95" height="23.95"/><rect class="cls-1" x="868.23" y="47.69" width="23.95" height="23.95"/><rect class="cls-1" x="868.23" y="81.86" width="23.95" height="92.8"/><path class="cls-1" d="M683.49,46.51H660.88V69.79H647.42V91.66h13.46v58.08c0,.26,0,.51,0,.76s0,.25,0,.37A27.78,27.78,0,0,0,666,166.54a19.24,19.24,0,0,0,9.56,7.08,43.85,43.85,0,0,0,7.94,1.92,46.75,46.75,0,0,0,6.76.5,43.89,43.89,0,0,0,20-4.68V152.93a20.64,20.64,0,0,1-12.41,3.93,22.36,22.36,0,0,1-7.2-1.17,9.45,9.45,0,0,1-4.67-3.47,13.56,13.56,0,0,1-2.49-7.2V91.66h26.94V69.79H683.49Z"/><rect class="cls-1" x="414.6" y="255.16" width="144.15" height="3.99"/><rect class="cls-1" x="841.65" y="254.79" width="144.15" height="3.99"/><path class="cls-1" d="M625.19,271.75l.65-.53.64.53,8.34,7.4.82.64-.76.77c-.44.43-.88.84-1.35,1.23a13.46,13.46,0,0,1-1.47,1.17,22.75,22.75,0,0,1-9.1,4,23.18,23.18,0,0,1-10-.17,23.18,23.18,0,0,1-17.9-21.49H595V203h13v61.11a10.34,10.34,0,0,0,7.92,10,10.07,10.07,0,0,0,4.82,0,11,11,0,0,0,4.28-2.23Z"/><path class="cls-1" d="M667.83,228.61a30.55,30.55,0,0,1,6.63,3v-4.35h14.26V286.9H674.46v-4.06a30.58,30.58,0,0,1-6.63,3.06,30.26,30.26,0,0,1-9.16,1.41,30.06,30.06,0,1,1,0-60.11A30.26,30.26,0,0,1,667.83,228.61Zm-9.16,12.85a15.84,15.84,0,1,0,11.15,4.64A15.21,15.21,0,0,0,658.67,241.46Z"/><path class="cls-1" d="M722.66,232.89a27.27,27.27,0,1,1,0,54.53,27.12,27.12,0,0,1-8.28-1.29,25.54,25.54,0,0,1-6-2.76V287h-13V203.07h13v33.87a26.38,26.38,0,0,1,6-2.76A27.12,27.12,0,0,1,722.66,232.89ZM712.56,250a14.39,14.39,0,1,0,10.1-4.17A14,14,0,0,0,712.56,250Z"/><path class="cls-1" d="M787.42,227.31a18.36,18.36,0,0,1,6.11,1.06,19.67,19.67,0,0,1,5.4,3.11,19.06,19.06,0,0,1,3.93,4.58A19.54,19.54,0,0,1,805,241.7l.35,1.58H792.88l-.35-.7a6.36,6.36,0,0,0-.94-1.35,6.54,6.54,0,0,0-2.81-1.76,6.09,6.09,0,0,0-1.71-.24H770.34a6,6,0,0,0-2.34.47,5.64,5.64,0,0,0-3.29,3.29,5.84,5.84,0,0,0-.47,2.35,5.76,5.76,0,0,0,.47,2.29,6.49,6.49,0,0,0,1.11,1.81l.18.18a6.1,6.1,0,0,0,2,1.35,6.55,6.55,0,0,0,2.34.41h17.08a18,18,0,0,1,12.27,4.93l.41.36a17.59,17.59,0,0,1,3.94,5.87,18.13,18.13,0,0,1,0,13.73,16.92,16.92,0,0,1-3.94,5.87l-.41.41a18.7,18.7,0,0,1-5.4,3.52,18.2,18.2,0,0,1-6.87,1.35h-17.9a17.9,17.9,0,0,1-6.87-1.35,19.26,19.26,0,0,1-5.87-3.93,17.56,17.56,0,0,1-3.81-5.69,18.6,18.6,0,0,1-1.47-6.69v-1.35h12.74l.06,1.29a6.28,6.28,0,0,0,1.76,4,6.32,6.32,0,0,0,2,1.35,6.09,6.09,0,0,0,2.35.47h16.2A6,6,0,0,0,789,275a6.84,6.84,0,0,0,1.94-1.29v-.06a5.7,5.7,0,0,0,1.35-1.94,6,6,0,0,0,.47-2.35,5.65,5.65,0,0,0-.47-2.29,6.21,6.21,0,0,0-1.35-2,5.57,5.57,0,0,0-1.94-1.35,5.87,5.87,0,0,0-2.35-.47H769.52a17.9,17.9,0,0,1-6.87-1.35,17.24,17.24,0,0,1-5.45-3.52l-.18-.18-.24-.23a18.33,18.33,0,0,1-5.28-12.68A18.35,18.35,0,0,1,756.43,233l.18-.18.17-.23a19.3,19.3,0,0,1,5.87-3.94,18.09,18.09,0,0,1,6.87-1.35Z"/></g></g></svg>