<svg width="110" height="28" viewBox="0 0 110 28" fill="none" xmlns="http://www.w3.org/2000/svg">
<mask id="mask0_3407_3710" style="mask-type:alpha" maskUnits="userSpaceOnUse" x="0" y="0" width="28" height="28">
<path fill-rule="evenodd" clip-rule="evenodd" d="M0 0H27.5297V27.3373H0V0Z" fill="white"/>
</mask>
<g mask="url(#mask0_3407_3710)">
<path fill-rule="evenodd" clip-rule="evenodd" d="M4.69319 18.434C4.68545 18.386 4.67589 18.3648 4.67999 18.3467C5.14196 16.3087 5.60256 14.2708 6.06817 12.2337C6.43821 10.6152 6.81871 8.9995 7.18282 7.37925C7.22606 7.18485 7.29661 7.13105 7.49323 7.13151C10.311 7.13829 13.1288 7.12789 15.9466 7.14281C16.4295 7.14552 16.9211 7.20339 17.3926 7.30872C18.6747 7.59398 19.7662 8.23096 20.6624 9.18711C21.5717 10.1573 22.1288 11.2979 22.2763 12.6179C22.4656 14.316 22.0237 15.8467 20.9377 17.1722C19.707 18.6745 18.0931 19.4349 16.1478 19.4769C15.0791 19.4995 14.0095 19.4778 12.9408 19.4828C12.6063 19.4846 12.2695 19.49 11.9382 19.528C10.3119 19.7156 8.85456 20.9484 8.44084 22.5131C8.16001 23.5786 7.92698 24.6559 7.66891 25.7269C7.63387 25.8716 7.6853 25.9417 7.81729 26.0031C8.93012 26.5226 10.0894 26.8987 11.2982 27.1112C12.833 27.3811 14.37 27.4195 15.9175 27.1713C17.4495 26.9254 18.9005 26.4566 20.2641 25.7287C22.4411 24.5669 24.1811 22.9376 25.4828 20.8508C26.6425 18.9905 27.2979 16.9602 27.4822 14.7875C27.5969 13.4385 27.5036 12.0926 27.2055 10.7698C26.6671 8.38106 25.5806 6.26487 23.9166 4.45474C22.6085 3.03159 21.0551 1.94163 19.2769 1.16541C17.6475 0.453833 15.9398 0.0858397 14.1679 0.00943815C13.152 -0.0348657 12.1466 0.0777022 11.1471 0.267576C9.17863 0.641898 7.38627 1.42264 5.7696 2.58313C3.7524 4.03159 2.21994 5.88422 1.19404 8.14552C0.194547 10.3472 -0.16092 12.6541 0.065741 15.0474C0.1727 16.1763 0.433497 17.278 0.827651 18.3485C1.43709 20.0036 2.34146 21.4778 3.51482 22.7947C3.54167 22.825 3.57763 22.8472 3.61131 22.8738C3.6286 22.8481 3.64089 22.8363 3.64453 22.8228C3.69733 22.5949 3.74876 22.3671 3.80019 22.1388C4.10286 20.8006 4.69319 19.6067 5.59255 18.561C6.32806 17.7057 7.23152 17.0705 8.22419 16.5515C9.7694 15.7432 11.4034 15.2689 13.1643 15.2812C13.9736 15.2866 14.7833 15.2929 15.5925 15.2762C15.8624 15.2703 16.1419 15.226 16.3986 15.1428C17.3102 14.8472 17.8464 13.8883 17.6425 12.9629C17.429 11.9972 16.6453 11.3847 15.6025 11.382C14.1365 11.3783 12.6705 11.3806 11.2049 11.3811C11.1298 11.3811 11.0552 11.3892 10.9774 11.3937C10.7257 12.5031 10.4771 13.5981 10.2314 14.6939C10.1986 14.8404 10.1567 14.9358 9.97831 14.9841C8.60378 15.3598 7.36033 15.9986 6.23294 16.8648C5.65126 17.3114 5.1456 17.8309 4.69319 18.434Z" fill="white"/>
</g>
<mask id="mask1_3407_3710" style="mask-type:alpha" maskUnits="userSpaceOnUse" x="0" y="0" width="28" height="28">
<path fill-rule="evenodd" clip-rule="evenodd" d="M0 0H27.5297V27.3373H0V0Z" fill="white"/>
</mask>
<g mask="url(#mask1_3407_3710)">
<path fill-rule="evenodd" clip-rule="evenodd" d="M4.69319 18.434C5.1456 17.8309 5.65126 17.3114 6.23294 16.8648C7.36033 15.9986 8.60378 15.3598 9.97831 14.9841C10.1567 14.9358 10.1986 14.8404 10.2314 14.6939C10.4771 13.5981 10.7257 12.5031 10.9774 11.3937C11.0552 11.3892 11.1298 11.3811 11.2049 11.3811C12.6705 11.3806 14.1365 11.3783 15.6025 11.382C16.6453 11.3847 17.429 11.9972 17.6425 12.9629C17.8464 13.8883 17.3102 14.8472 16.3986 15.1428C16.1419 15.226 15.8624 15.2703 15.5925 15.2762C14.7833 15.2929 13.9736 15.2866 13.1643 15.2812C11.4034 15.2689 9.7694 15.7432 8.22419 16.5515C7.23152 17.0705 6.32806 17.7057 5.59255 18.561C4.69319 19.6067 4.10286 20.8006 3.80019 22.1388C3.74876 22.3671 3.69733 22.5949 3.64453 22.8228C3.64089 22.8363 3.6286 22.8481 3.61131 22.8738C3.57763 22.8472 3.54167 22.825 3.51482 22.7947C2.34146 21.4778 1.43709 20.0036 0.827651 18.3485C0.433497 17.278 0.1727 16.1763 0.065741 15.0474C-0.16092 12.6541 0.194547 10.3472 1.19404 8.14552C2.21994 5.88422 3.7524 4.03159 5.7696 2.58313C7.38627 1.42264 9.17863 0.641898 11.1471 0.267576C12.1466 0.0777022 13.152 -0.0348657 14.1679 0.00943815C15.9398 0.0858397 17.6475 0.453833 19.2769 1.16541C21.0551 1.94163 22.6085 3.03159 23.9166 4.45474C25.5806 6.26487 26.6671 8.38106 27.2055 10.7698C27.5036 12.0926 27.5969 13.4385 27.4822 14.7875C27.2979 16.9602 26.6425 18.9905 25.4828 20.8508C24.1811 22.9376 22.4411 24.5669 20.2641 25.7287C18.9005 26.4566 17.4495 26.9254 15.9175 27.1713C14.37 27.4195 12.833 27.3811 11.2982 27.1112C10.0894 26.8987 8.93012 26.5226 7.81729 26.0031C7.6853 25.9417 7.63387 25.8716 7.66891 25.7269C7.92698 24.6559 8.16001 23.5786 8.44084 22.5131C8.85456 20.9484 10.3119 19.7156 11.9382 19.528C12.2695 19.49 12.6063 19.4846 12.9408 19.4828C14.0095 19.4778 15.0791 19.4995 16.1478 19.4769C18.0931 19.4349 19.707 18.6745 20.9377 17.1722C22.0237 15.8467 22.4656 14.316 22.2763 12.6179C22.1288 11.2979 21.5717 10.1573 20.6624 9.18711C19.7662 8.23096 18.6747 7.59398 17.3926 7.30872C16.9211 7.20339 16.4295 7.14552 15.9466 7.14281C13.1288 7.12789 10.311 7.13829 7.49323 7.13151C7.29661 7.13105 7.22606 7.18485 7.18282 7.37925C6.81871 8.9995 6.43821 10.6152 6.06817 12.2337C5.60256 14.2708 5.14196 16.3087 4.67999 18.3467C4.67589 18.3648 4.68545 18.386 4.69319 18.434Z" fill="white"/>
</g>
<path fill-rule="evenodd" clip-rule="evenodd" d="M37.1527 11.4316V13.3502H37.9051C38.4467 13.3502 38.809 13.315 38.992 13.2444C39.174 13.1739 39.3174 13.0627 39.4212 12.9117C39.5249 12.7612 39.5768 12.5862 39.5768 12.3859C39.5768 12.14 39.504 11.9375 39.3584 11.7774C39.2132 11.6174 39.0288 11.5175 38.8058 11.4777C38.642 11.447 38.312 11.4316 37.8168 11.4316H37.1527ZM35.7782 17.0496V10.2878H37.9838C38.8199 10.2878 39.3647 10.3213 39.6187 10.3891C40.0088 10.4908 40.3351 10.711 40.5986 11.051C40.8612 11.3905 40.9932 11.8299 40.9932 12.3679C40.9932 12.7829 40.9172 13.1319 40.7657 13.4149C40.6136 13.6979 40.4211 13.9199 40.1872 14.0812C39.9537 14.2431 39.7161 14.3498 39.4749 14.4018C39.1463 14.4664 38.6711 14.4985 38.0489 14.4985H37.1527V17.0496H35.7782Z" fill="white"/>
<path fill-rule="evenodd" clip-rule="evenodd" d="M42.1586 17.0495V10.3429H43.5331V15.9103H46.9512V17.0495H42.1586Z" fill="white"/>
<path fill-rule="evenodd" clip-rule="evenodd" d="M47.9219 10.2878H49.2964V13.9501C49.2964 14.5315 49.3132 14.908 49.3474 15.0803C49.4061 15.357 49.5463 15.5789 49.7679 15.7462C49.9891 15.9139 50.2918 15.998 50.6755 15.998C51.0656 15.998 51.3596 15.9189 51.558 15.7602C51.756 15.602 51.8753 15.4076 51.9153 15.1766C51.9558 14.9465 51.9758 14.5636 51.9758 14.0283V10.2878H53.3504V13.8393C53.3504 14.6508 53.313 15.2245 53.2389 15.5599C53.1647 15.8949 53.0277 16.1775 52.8279 16.4085C52.6281 16.6391 52.3613 16.8226 52.0268 16.96C51.6927 17.0966 51.2563 17.1648 50.7174 17.1648C50.067 17.1648 49.574 17.0902 49.2386 16.9415C48.9023 16.7923 48.6369 16.5984 48.4421 16.3601C48.2468 16.1219 48.1185 15.8723 48.0566 15.6106C47.9665 15.2231 47.9219 14.6508 47.9219 13.8949V10.2878Z" fill="white"/>
<path fill-rule="evenodd" clip-rule="evenodd" d="M56.3316 17.0495V11.4315H54.3116V10.2878H59.7215V11.4315H57.7061V17.0495H56.3316Z" fill="white"/>
<path fill-rule="evenodd" clip-rule="evenodd" d="M61.5745 13.6638C61.5745 14.4296 61.7525 15.01 62.1084 15.4052C62.4643 15.8007 62.9167 15.9978 63.4643 15.9978C64.0123 15.9978 64.462 15.8016 64.8133 15.4097C65.1647 15.0177 65.3404 14.4296 65.3404 13.6457C65.3404 12.8704 65.1692 12.2926 64.8274 11.911C64.4856 11.5299 64.0309 11.3392 63.4643 11.3392C62.8981 11.3392 62.4411 11.5322 62.0948 11.9183C61.7475 12.3039 61.5745 12.8857 61.5745 13.6638ZM60.1581 13.7103C60.1581 13.0213 60.2619 12.4431 60.4689 11.9761C60.6241 11.6312 60.8353 11.3224 61.103 11.0485C61.3706 10.7749 61.6642 10.572 61.9828 10.44C62.4074 10.2618 62.8962 10.1719 63.4506 10.1719C64.4537 10.1719 65.2561 10.4815 65.8583 11.0991C66.4605 11.7175 66.7613 12.5769 66.7613 13.6778C66.7613 14.7691 66.4627 15.6235 65.8651 16.2397C65.2675 16.8563 64.4687 17.1646 63.4693 17.1646C62.4566 17.1646 61.6519 16.8581 61.0543 16.2447C60.4567 15.6316 60.1581 14.7863 60.1581 13.7103Z" fill="white"/>
<path fill-rule="evenodd" clip-rule="evenodd" d="M74.8324 14.5635L76.1651 14.983C75.9607 15.7213 75.6212 16.2692 75.146 16.6272C74.6708 16.9857 74.0677 17.1648 73.3372 17.1648C72.4333 17.1648 71.6901 16.8583 71.108 16.2448C70.5263 15.6313 70.235 14.7927 70.235 13.7285C70.235 12.6033 70.5276 11.729 71.113 11.1064C71.6978 10.4839 72.467 10.172 73.4205 10.172C74.2534 10.172 74.9298 10.4166 75.45 10.9057C75.7595 11.1951 75.9916 11.6101 76.1468 12.1512L74.786 12.474C74.7054 12.1236 74.5379 11.8465 74.2821 11.6435C74.0268 11.4405 73.7164 11.3393 73.3514 11.3393C72.8466 11.3393 72.437 11.5192 72.1229 11.8791C71.8084 12.2385 71.6514 12.8212 71.6514 13.6272C71.6514 14.4817 71.8061 15.0906 72.1156 15.4536C72.4251 15.8162 72.8279 15.998 73.3231 15.998C73.6886 15.998 74.0027 15.8827 74.2657 15.6521C74.5288 15.4211 74.7181 15.0585 74.8324 14.5635Z" fill="white"/>
<path fill-rule="evenodd" clip-rule="evenodd" d="M80.9528 14.3746L80.0147 11.8651L79.0949 14.3746H80.9528ZM83.484 17.0495H81.9884L81.3939 15.5138H78.6726L78.111 17.0495H76.6527L79.3044 10.2878H80.7576L83.484 17.0495Z" fill="white"/>
<path fill-rule="evenodd" clip-rule="evenodd" d="M85.5875 11.4316V13.3502H86.3398C86.8814 13.3502 87.2437 13.315 87.4267 13.2444C87.6092 13.1739 87.7521 13.0627 87.8559 12.9117C87.9597 12.7612 88.0116 12.5862 88.0116 12.3859C88.0116 12.14 87.9387 11.9375 87.7936 11.7774C87.6479 11.6174 87.4636 11.5175 87.2406 11.4777C87.0767 11.447 86.7467 11.4316 86.2515 11.4316H85.5875ZM84.2129 17.0496V10.2878H86.419C87.2546 10.2878 87.7994 10.3213 88.0534 10.3891C88.4434 10.4908 88.7702 10.711 89.0333 11.051C89.2964 11.3905 89.4279 11.8299 89.4279 12.3679C89.4279 12.7829 89.3519 13.1319 89.2004 13.4149C89.0488 13.6979 88.8558 13.9199 88.6223 14.0812C88.3884 14.2431 88.1508 14.3498 87.9096 14.4018C87.5814 14.4664 87.1058 14.4985 86.4836 14.4985H85.5874V17.0496H84.2129Z" fill="white"/>
<mask id="mask2_3407_3710" style="mask-type:alpha" maskUnits="userSpaceOnUse" x="0" y="0" width="110" height="28">
<path fill-rule="evenodd" clip-rule="evenodd" d="M0 27.3373H110V0H0V27.3373Z" fill="white"/>
</mask>
<g mask="url(#mask2_3407_3710)">
<path fill-rule="evenodd" clip-rule="evenodd" d="M90.5144 17.0493H91.8894V10.2875H90.5144V17.0493Z" fill="white"/>
<path fill-rule="evenodd" clip-rule="evenodd" d="M94.7311 17.0495V11.4315H92.7112V10.2878H98.121V11.4315H96.1056V17.0495H94.7311Z" fill="white"/>
<path fill-rule="evenodd" clip-rule="evenodd" d="M101.91 14.3746L100.972 11.8651L100.053 14.3746H101.91ZM104.441 17.0495H102.946L102.351 15.5138H99.63L99.0684 17.0495H97.6101L100.262 10.2878H101.715L104.441 17.0495Z" fill="white"/>
<path fill-rule="evenodd" clip-rule="evenodd" d="M105.208 17.0495V10.3429H106.582V15.9103H110V17.0495H105.208Z" fill="white"/>
</g>
</svg>
