<?xml version="1.0" encoding="UTF-8"?>
<svg width="85px" height="19px" viewBox="0 0 85 19" version="1.1" xmlns="http://www.w3.org/2000/svg" xmlns:xlink="http://www.w3.org/1999/xlink">
    <title>编组 6备份@3x</title>
    <g id="页面-1" stroke="none" stroke-width="1" fill="none" fill-rule="evenodd">
        <g id="Dark_HomePage备份-13" transform="translate(-139.000000, -3950.000000)">
            <g id="编组-5备份-3" transform="translate(80.000000, 3898.000000)">
                <g id="编组-6备份" transform="translate(60.000000, 53.000000)">
                    <rect id="矩形" stroke="#2AD4D8" x="-4.54747351e-13" y="0" width="83" height="17" rx="5"></rect>
                    <path d="M12.028,13 L12.028,11.625 L8.365,11.625 L8.365,11.581 L11.995,5.553 L11.995,4.541 L6.594,4.541 L6.594,5.905 L9.971,5.905 L9.971,5.949 L6.264,12.087 L6.264,13 L12.028,13 Z M15.746,13.11 C16.505,13.11 17.22,12.978 17.726,12.758 L17.495,11.636 C17.077,11.779 16.604,11.889 15.999,11.889 C15.119,11.889 14.371,11.471 14.327,10.426 L17.99,10.426 C18.023,10.25 18.034,10.019 18.034,9.777 C18.034,7.797 17.066,6.741 15.581,6.741 C13.788,6.741 12.776,8.259 12.776,10.019 C12.776,11.922 13.854,13.11 15.746,13.11 Z M16.527,9.293 L14.327,9.293 C14.371,8.688 14.701,7.874 15.482,7.874 C16.285,7.874 16.538,8.655 16.527,9.293 Z M21.796,13.11 C22.445,13.11 23.006,12.978 23.281,12.846 L23.105,11.625 C22.841,11.746 22.522,11.823 22.115,11.823 C21.18,11.823 20.487,11.13 20.487,9.931 C20.487,8.853 21.081,8.028 22.104,8.028 C22.555,8.028 22.852,8.127 23.061,8.226 L23.325,6.983 C23.061,6.873 22.577,6.752 22.049,6.752 C20.025,6.752 18.837,8.16 18.837,9.997 C18.837,11.944 20.003,13.11 21.796,13.11 Z M25.954,13 L25.954,9.832 C25.954,8.787 26.515,8.292 27.252,8.292 C27.417,8.292 27.549,8.303 27.67,8.325 L27.67,6.774 C27.56,6.752 27.461,6.741 27.307,6.741 C26.735,6.741 26.075,7.148 25.789,7.94 L25.745,7.94 L25.679,6.873 L24.282,6.873 C24.304,7.423 24.326,8.028 24.326,8.787 L24.326,13 L25.954,13 Z M31.212,13.11 C31.971,13.11 32.686,12.978 33.192,12.758 L32.961,11.636 C32.543,11.779 32.07,11.889 31.465,11.889 C30.585,11.889 29.837,11.471 29.793,10.426 L33.456,10.426 C33.489,10.25 33.5,10.019 33.5,9.777 C33.5,7.797 32.532,6.741 31.047,6.741 C29.254,6.741 28.242,8.259 28.242,10.019 C28.242,11.922 29.32,13.11 31.212,13.11 Z M31.993,9.293 L29.793,9.293 C29.837,8.688 30.167,7.874 30.948,7.874 C31.751,7.874 32.004,8.655 31.993,9.293 Z M34.842,15.739 C35.205,15.673 35.832,15.453 36.426,14.881 C37.119,14.188 37.636,13.11 38.318,11.13 L39.704,6.873 L38.01,6.873 L37.24,10.074 C37.152,10.459 37.053,10.888 36.987,11.218 L36.954,11.218 C36.877,10.877 36.767,10.448 36.668,10.074 L35.766,6.873 L33.984,6.873 L36.041,12.505 C36.085,12.626 36.107,12.714 36.107,12.78 C36.107,12.901 35.832,13.528 35.293,13.913 C35.007,14.111 34.699,14.287 34.435,14.364 L34.842,15.739 Z M44.203,13 L44.368,9.744 C44.423,8.699 44.478,7.445 44.5,6.378 L44.533,6.378 C44.731,7.412 44.995,8.556 45.27,9.513 L46.205,12.879 L47.437,12.879 L48.471,9.458 C48.757,8.512 49.065,7.39 49.307,6.378 L49.34,6.378 C49.329,7.236 49.384,8.6 49.428,9.711 L49.582,13 L51.133,13 L50.649,4.541 L48.647,4.541 L47.69,7.72 C47.404,8.732 47.151,9.755 46.953,10.701 L46.92,10.701 C46.733,9.733 46.491,8.743 46.216,7.72 L45.303,4.541 L43.29,4.541 L42.718,13 L44.203,13 Z M54.961,13.121 C56.325,13.121 57.821,12.219 57.821,9.887 C57.821,8.028 56.743,6.741 55.027,6.741 C53.366,6.741 52.123,7.907 52.123,9.964 C52.123,11.955 53.311,13.121 54.961,13.121 Z M54.983,11.922 C54.191,11.922 53.773,11.02 53.773,9.931 C53.773,8.996 54.092,7.94 54.994,7.94 C55.83,7.94 56.171,8.963 56.171,9.92 C56.171,11.009 55.753,11.922 54.983,11.922 Z M62.1,13.121 C63.365,13.121 64.608,12.043 64.608,9.821 C64.608,7.995 63.706,6.741 62.353,6.741 C61.572,6.741 61,7.071 60.648,7.61 L60.626,7.61 L60.626,4.156 L58.998,4.156 L58.998,11.24 C58.998,11.867 58.976,12.56 58.954,13 L60.34,13 L60.417,12.153 L60.45,12.153 C60.835,12.846 61.418,13.121 62.1,13.121 Z M61.726,11.823 C61.077,11.823 60.626,11.251 60.626,10.558 L60.626,9.359 C60.626,8.567 61.165,8.039 61.726,8.039 C62.562,8.039 62.969,8.853 62.969,9.898 C62.969,11.086 62.518,11.823 61.726,11.823 Z M66.566,6.07 C67.072,6.07 67.446,5.729 67.446,5.201 C67.446,4.695 67.094,4.332 66.566,4.332 C66.06,4.332 65.697,4.695 65.697,5.201 C65.697,5.696 66.049,6.07 66.566,6.07 Z M67.391,13 L67.391,6.873 L65.763,6.873 L65.763,13 L67.391,13 Z M70.482,13 L70.482,4.156 L68.854,4.156 L68.854,13 L70.482,13 Z M74.585,13.11 C75.344,13.11 76.059,12.978 76.565,12.758 L76.334,11.636 C75.916,11.779 75.443,11.889 74.838,11.889 C73.958,11.889 73.21,11.471 73.166,10.426 L76.829,10.426 C76.862,10.25 76.873,10.019 76.873,9.777 C76.873,7.797 75.905,6.741 74.42,6.741 C72.627,6.741 71.615,8.259 71.615,10.019 C71.615,11.922 72.693,13.11 74.585,13.11 Z M75.366,9.293 L73.166,9.293 C73.21,8.688 73.54,7.874 74.321,7.874 C75.124,7.874 75.377,8.655 75.366,9.293 Z" id="ZecreyMobile" fill="#2AD4D8" fill-rule="nonzero"></path>
                </g>
            </g>
        </g>
    </g>
</svg>