<svg xmlns="http://www.w3.org/2000/svg" xmlns:xlink="http://www.w3.org/1999/xlink" width="100" height="100" viewBox="0 0 2000 2000" shape-rendering="crispEdges" fill="transparent"><path fill="#fff" d="M776 200h64v64h-64zM1096 200h64v64h-64zM1224 200h64v64h-64zM712 264h64v64h-64zM776 264h64v64h-64zM904 264h64v64h-64zM968 264h64v64h-64zM1032 264h64v64h-64zM1096 264h64v64h-64zM776 328h64v64h-64zM840 328h64v64h-64zM904 328h64v64h-64zM712 392h64v64h-64zM776 392h64v64h-64zM904 392h64v64h-64zM1032 392h64v64h-64zM1160 392h64v64h-64zM1224 392h64v64h-64zM840 456h64v64h-64zM968 456h64v64h-64zM1160 456h64v64h-64zM1224 456h64v64h-64zM712 520h64v64h-64zM840 520h64v64h-64zM1032 520h64v64h-64zM1096 520h64v64h-64zM1160 520h64v64h-64zM712 584h64v64h-64zM840 584h64v64h-64zM968 584h64v64h-64zM1096 584h64v64h-64zM1224 584h64v64h-64zM968 648h64v64h-64zM1224 648h64v64h-64zM200 712h64v64h-64zM264 712h64v64h-64zM328 712h64v64h-64zM392 712h64v64h-64zM456 712h64v64h-64zM584 712h64v64h-64zM648 712h64v64h-64zM712 712h64v64h-64zM776 712h64v64h-64zM840 712h64v64h-64zM968 712h64v64h-64zM1096 712h64v64h-64zM1160 712h64v64h-64zM1288 712h64v64h-64zM1416 712h64v64h-64zM1544 712h64v64h-64zM1672 712h64v64h-64zM776 776h64v64h-64zM1160 776h64v64h-64zM1224 776h64v64h-64zM1288 776h64v64h-64zM1416 776h64v64h-64zM1480 776h64v64h-64zM1736 776h64v64h-64zM200 840h64v64h-64zM264 840h64v64h-64zM328 840h64v64h-64zM456 840h64v64h-64zM584 840h64v64h-64zM776 840h64v64h-64zM904 840h64v64h-64zM968 840h64v64h-64zM1096 840h64v64h-64zM1160 840h64v64h-64zM1288 840h64v64h-64zM1352 840h64v64h-64zM1480 840h64v64h-64zM1608 840h64v64h-64zM328 904h64v64h-64zM392 904h64v64h-64zM648 904h64v64h-64zM712 904h64v64h-64zM776 904h64v64h-64zM840 904h64v64h-64zM904 904h64v64h-64zM1096 904h64v64h-64zM1224 904h64v64h-64zM1288 904h64v64h-64zM200 968h64v64h-64zM392 968h64v64h-64zM520 968h64v64h-64zM584 968h64v64h-64zM648 968h64v64h-64zM776 968h64v64h-64zM904 968h64v64h-64zM1096 968h64v64h-64zM1160 968h64v64h-64zM1352 968h64v64h-64zM1416 968h64v64h-64zM1480 968h64v64h-64zM1544 968h64v64h-64zM1672 968h64v64h-64zM1736 968h64v64h-64zM200 1032h64v64h-64zM264 1032h64v64h-64zM328 1032h64v64h-64zM776 1032h64v64h-64zM840 1032h64v64h-64zM968 1032h64v64h-64zM1224 1032h64v64h-64zM1288 1032h64v64h-64zM1352 1032h64v64h-64zM1416 1032h64v64h-64zM1480 1032h64v64h-64zM200 1096h64v64h-64zM584 1096h64v64h-64zM776 1096h64v64h-64zM840 1096h64v64h-64zM1032 1096h64v64h-64zM1288 1096h64v64h-64zM1352 1096h64v64h-64zM1480 1096h64v64h-64zM1608 1096h64v64h-64zM1672 1096h64v64h-64zM1736 1096h64v64h-64zM200 1160h64v64h-64zM328 1160h64v64h-64zM392 1160h64v64h-64zM456 1160h64v64h-64zM648 1160h64v64h-64zM712 1160h64v64h-64zM776 1160h64v64h-64zM840 1160h64v64h-64zM968 1160h64v64h-64zM1096 1160h64v64h-64zM1288 1160h64v64h-64zM1672 1160h64v64h-64zM1736 1160h64v64h-64zM200 1224h64v64h-64zM328 1224h64v64h-64zM584 1224h64v64h-64zM648 1224h64v64h-64zM712 1224h64v64h-64zM968 1224h64v64h-64zM1096 1224h64v64h-64zM1160 1224h64v64h-64zM1224 1224h64v64h-64zM1288 1224h64v64h-64zM1352 1224h64v64h-64zM1416 1224h64v64h-64zM1480 1224h64v64h-64zM1544 1224h64v64h-64zM1736 1224h64v64h-64zM712 1288h64v64h-64zM1096 1288h64v64h-64zM1224 1288h64v64h-64zM1480 1288h64v64h-64zM1736 1288h64v64h-64zM712 1352h64v64h-64zM776 1352h64v64h-64zM904 1352h64v64h-64zM968 1352h64v64h-64zM1032 1352h64v64h-64zM1096 1352h64v64h-64zM1224 1352h64v64h-64zM1352 1352h64v64h-64zM1480 1352h64v64h-64zM1608 1352h64v64h-64zM1672 1352h64v64h-64zM1736 1352h64v64h-64zM776 1416h64v64h-64zM840 1416h64v64h-64zM904 1416h64v64h-64zM1032 1416h64v64h-64zM1224 1416h64v64h-64zM1480 1416h64v64h-64zM1544 1416h64v64h-64zM712 1480h64v64h-64zM776 1480h64v64h-64zM840 1480h64v64h-64zM904 1480h64v64h-64zM968 1480h64v64h-64zM1032 1480h64v64h-64zM1224 1480h64v64h-64zM1288 1480h64v64h-64zM1352 1480h64v64h-64zM1416 1480h64v64h-64zM1480 1480h64v64h-64zM1544 1480h64v64h-64zM712 1544h64v64h-64zM776 1544h64v64h-64zM968 1544h64v64h-64zM1160 1544h64v64h-64zM1224 1544h64v64h-64zM1352 1544h64v64h-64zM1480 1544h64v64h-64zM1672 1544h64v64h-64zM1736 1544h64v64h-64zM712 1608h64v64h-64zM776 1608h64v64h-64zM968 1608h64v64h-64zM1032 1608h64v64h-64zM1480 1608h64v64h-64zM1608 1608h64v64h-64zM1736 1608h64v64h-64zM712 1672h64v64h-64zM968 1672h64v64h-64zM1096 1672h64v64h-64zM1224 1672h64v64h-64zM1288 1672h64v64h-64zM1352 1672h64v64h-64zM1416 1672h64v64h-64zM1480 1672h64v64h-64zM1544 1672h64v64h-64zM1672 1672h64v64h-64zM712 1736h64v64h-64zM776 1736h64v64h-64zM840 1736h64v64h-64zM1096 1736h64v64h-64zM1160 1736h64v64h-64zM1608 1736h64v64h-64zM1672 1736h64v64h-64zM1736 1736h64v64h-64z"></path><svg x="200" y="200" viewBox="0 0 700 700" xml:space="preserve" width="448" height="448" shape-rendering="auto"><path fill="#fff" d="M21.2-.1C9.5-.1-.1 9.5-.1 21.2V678.8c0 11.7 9.5 21.3 21.3 21.3h657.6c11.7 0 21.3-9.5 21.3-21.3V21.2c0-11.7-9.5-21.3-21.3-21.3H21.2zM600 200v387.8c0 6.8-5.5 12.2-12.2 12.2H112.2c-6.8 0-12.2-5.5-12.2-12.2V112.2c0-6.8 5.5-12.2 12.2-12.2h475.6c6.8 0 12.2 5.5 12.2 12.2V200z"></path></svg><svg x="200" y="200" viewBox="0 0 700 700" xml:space="preserve" width="448" height="448" shape-rendering="auto"><path fill="#fff" d="M500 400V221.2c0-11.7-9.5-21.3-21.3-21.3H221.2c-11.7 0-21.3 9.5-21.3 21.3v257.6c0 11.7 9.5 21.3 21.3 21.3h257.5c11.7 0 21.3-9.5 21.3-21.3V400z"></path></svg><svg x="1352" y="200" viewBox="0 0 700 700" xml:space="preserve" width="448" height="448" shape-rendering="auto"><path fill="#fff" d="M21.2-.1C9.5-.1-.1 9.5-.1 21.2V678.8c0 11.7 9.5 21.3 21.3 21.3h657.6c11.7 0 21.3-9.5 21.3-21.3V21.2c0-11.7-9.5-21.3-21.3-21.3H21.2zM600 200v387.8c0 6.8-5.5 12.2-12.2 12.2H112.2c-6.8 0-12.2-5.5-12.2-12.2V112.2c0-6.8 5.5-12.2 12.2-12.2h475.6c6.8 0 12.2 5.5 12.2 12.2V200z"></path></svg><svg x="1352" y="200" viewBox="0 0 700 700" xml:space="preserve" width="448" height="448" shape-rendering="auto"><path fill="#fff" d="M500 400V221.2c0-11.7-9.5-21.3-21.3-21.3H221.2c-11.7 0-21.3 9.5-21.3 21.3v257.6c0 11.7 9.5 21.3 21.3 21.3h257.5c11.7 0 21.3-9.5 21.3-21.3V400z"></path></svg><svg x="200" y="1352" viewBox="0 0 700 700" xml:space="preserve" width="448" height="448" shape-rendering="auto"><path fill="#fff" d="M21.2-.1C9.5-.1-.1 9.5-.1 21.2V678.8c0 11.7 9.5 21.3 21.3 21.3h657.6c11.7 0 21.3-9.5 21.3-21.3V21.2c0-11.7-9.5-21.3-21.3-21.3H21.2zM600 200v387.8c0 6.8-5.5 12.2-12.2 12.2H112.2c-6.8 0-12.2-5.5-12.2-12.2V112.2c0-6.8 5.5-12.2 12.2-12.2h475.6c6.8 0 12.2 5.5 12.2 12.2V200z"></path></svg><svg x="200" y="1352" viewBox="0 0 700 700" xml:space="preserve" width="448" height="448" shape-rendering="auto"><path fill="#fff" d="M500 400V221.2c0-11.7-9.5-21.3-21.3-21.3H221.2c-11.7 0-21.3 9.5-21.3 21.3v257.6c0 11.7 9.5 21.3 21.3 21.3h257.5c11.7 0 21.3-9.5 21.3-21.3V400z"></path></svg></svg>