<svg width="133" height="55" viewBox="0 0 133 55" fill="none" xmlns="http://www.w3.org/2000/svg">
    <path fill-rule="evenodd" clip-rule="evenodd" d="M42.6641 41.975C29.0659 41.975 15.4683 41.9755 1.87021 41.9745C0.00598944 41.974 0.00149737 41.97 0.000998246 40.1131C-0.000499123 31.7794 0 23.4451 0.000499123 15.1114C0.000499123 12.9534 0.00149729 12.9524 2.21661 12.9524C29.0799 12.9519 55.9432 12.9519 82.8065 12.9519C83.2223 12.9519 83.6416 12.9168 84.0534 12.958C85.0796 13.0605 85.4499 12.6247 85.4359 11.5862C85.3925 8.27864 85.418 4.96957 85.4224 1.66101C85.4244 -0.3009 85.4823 -0.345135 87.1095 0.599378C102.056 9.27844 117 17.9625 131.943 26.6501C133.354 27.471 133.348 27.5253 131.951 28.3376C117.081 36.983 102.211 45.6284 87.3396 54.2712C85.4254 55.3836 85.422 55.3791 85.4214 53.1508C85.4204 50.0101 85.423 46.869 85.42 43.7283C85.4185 41.98 85.414 41.9755 83.7075 41.9755C70.026 41.9745 56.345 41.975 42.6641 41.975Z" fill="white"/>
</svg>
