<svg xmlns="http://www.w3.org/2000/svg" width="80.971" height="83.699" viewBox="0 0 80.971 83.699">
  <g id="Group_76" data-name="Group 76" transform="translate(-81.733 6.812)">
    <path id="Path_245" data-name="Path 245" d="M116.851,43.769V21.826h2.961v18.98h15v2.962Z" transform="translate(2.906 2.942)" fill="#8a8a8a"/>
    <g id="Group_73" data-name="Group 73" transform="translate(143.142 8.363)">
      <path id="Path_247" data-name="Path 247" d="M147.838,39.761a10.078,10.078,0,0,1-8.523-5.543c-2.126-4.178-2.606-11.982,7.185-25.431l1.338-1.837,1.338,1.837c9.791,13.449,9.311,21.253,7.184,25.431A10.077,10.077,0,0,1,147.838,39.761Zm0-27.132c-7.833,11.488-6.9,17.482-5.574,20.087a6.026,6.026,0,0,0,11.148,0C154.739,30.111,155.67,24.117,147.838,12.629Z" transform="translate(-138.057 -6.949)" fill="#8a8a8a"/>
    </g>
    <g id="Group_74" data-name="Group 74" transform="translate(89.913 57.008)">
      <path id="Path_248" data-name="Path 248" d="M96.614,64.714a6.826,6.826,0,1,1,6.825-6.826A6.834,6.834,0,0,1,96.614,64.714Zm0-10.344a3.518,3.518,0,1,0,3.517,3.518A3.523,3.523,0,0,0,96.614,54.37Z" transform="translate(-89.787 -51.062)" fill="#8a8a8a"/>
    </g>
    <g id="Group_75" data-name="Group 75" transform="translate(88.559 7.338)">
      <path id="Path_249" data-name="Path 249" d="M95.323,55.839a31.808,31.808,0,0,1,28.03-46.857,31.6,31.6,0,0,1,22.5,9.318l.014.014c.411-.873.874-1.78,1.4-2.725A34.78,34.78,0,0,0,92.6,57.1,6.8,6.8,0,0,1,95.323,55.839Z" transform="translate(-88.559 -6.02)" fill="#8a8a8a"/>
      <path id="Path_250" data-name="Path 250" d="M153.962,36.531c.017.423.031.848.031,1.274a31.817,31.817,0,0,1-52.185,24.451,6.846,6.846,0,0,1-1.76,2.394,34.489,34.489,0,0,0,22.094,7.924h.025A34.775,34.775,0,0,0,156.938,37.8c0-.887-.044-1.762-.11-2.632A10.269,10.269,0,0,1,153.962,36.531Z" transform="translate(-87.379 -3.026)" fill="#8a8a8a"/>
    </g>
    <rect id="Rectangle_152" data-name="Rectangle 152" width="2.961" height="11.207" transform="translate(139.268 -6.812)" fill="#8a8a8a"/>
    <rect id="Rectangle_153" data-name="Rectangle 153" width="2.961" height="7.758" transform="translate(133.212 -6.812)" fill="#8a8a8a"/>
    <rect id="Rectangle_154" data-name="Rectangle 154" width="2.961" height="13.687" transform="translate(155.173 62.662)" fill="#8a8a8a"/>
    <rect id="Rectangle_155" data-name="Rectangle 155" width="2.961" height="5.691" transform="translate(147.941 70.659)" fill="#8a8a8a"/>
    <g id="Group_77" data-name="Group 77" transform="translate(81.733 -2.933)">
      <path id="Path_248-2" data-name="Path 248" d="M96.614,64.714a6.826,6.826,0,1,1,6.825-6.826A6.834,6.834,0,0,1,96.614,64.714Zm0-10.344a3.518,3.518,0,1,0,3.517,3.518A3.523,3.523,0,0,0,96.614,54.37Z" transform="translate(-89.787 -51.062)" fill="#8a8a8a"/>
    </g>
  </g>
</svg>
