<svg xmlns="http://www.w3.org/2000/svg" width="295.61" height="419.652" viewBox="0 0 295.61 419.652">
  <path id="Path_262" data-name="Path 262" d="M220.062,217.331c.036-1.02.049-2.028.049-3.048a117.418,117.418,0,0,0-117.036-117.8,72.57,72.57,0,0,0-72.815,72.354A44.821,44.821,0,0,0,74.941,213.81a27.312,27.312,0,0,0,7.892-1.117,40.113,40.113,0,1,1,77.478-14.461c0,.388-.012.765-.012,1.165a61.323,61.323,0,0,1-61.511,59.945A99.118,99.118,0,0,1,0,159.911,160.428,160.428,0,0,1,160.942,0c143.336.462,259.17,117.025,258.709,260.373a263.328,263.328,0,0,1-2.5,35.236l-259.486-.838C192.548,285.727,218.981,254.874,220.062,217.331Z" transform="translate(0 419.652) rotate(-90)" fill="#00acb1" opacity="0.2"/>
</svg>
