<svg xmlns="http://www.w3.org/2000/svg" width="105.355" height="52.947" viewBox="0 0 105.355 52.947">
  <g id="Group_56" data-name="Group 56" transform="translate(-358.66 -623.387)">
    <circle id="Ellipse_17" data-name="Ellipse 17" cx="5.696" cy="5.696" r="5.696" transform="translate(398.218 643.011)" fill="#00acb1"/>
    <path id="Path_156" data-name="Path 156" d="M458.981,631.869q1.429.134,2.833.34c0-.029.01-.057.013-.087a2.871,2.871,0,0,0-5.716-.538c0,.03,0,.059,0,.089Q457.538,631.734,458.981,631.869Z" transform="translate(-42.216 -2.424)" fill="#00acb1"/>
    <path id="Path_157" data-name="Path 157" d="M473.327,634.522c.008-.058.02-.115.025-.175a2.869,2.869,0,0,0-5.622-1.035A55.068,55.068,0,0,1,473.327,634.522Z" transform="translate(-47.252 -3.388)" fill="#00acb1"/>
    <path id="Path_158" data-name="Path 158" d="M484.515,637.942a2.869,2.869,0,0,0-5.419-1.879A54.467,54.467,0,0,1,484.515,637.942Z" transform="translate(-52.176 -4.691)" fill="#00acb1"/>
    <path id="Path_159" data-name="Path 159" d="M495.262,642.719a2.868,2.868,0,0,0-5.151-2.524A54.6,54.6,0,0,1,495.262,642.719Z" transform="translate(-56.948 -6.6)" fill="#00acb1"/>
    <path id="Path_160" data-name="Path 160" d="M505.351,648.842a2.868,2.868,0,0,0-4.8-3.124A54.758,54.758,0,0,1,505.351,648.842Z" transform="translate(-61.47 -9.165)" fill="#00acb1"/>
    <path id="Path_161" data-name="Path 161" d="M514.668,655.964a2.87,2.87,0,0,0-4.4-3.686A55.118,55.118,0,0,1,514.668,655.964Z" transform="translate(-65.681 -12.078)" fill="#00acb1"/>
    <path id="Path_162" data-name="Path 162" d="M523.1,664.268a2.869,2.869,0,0,0-3.922-4.184A55.2,55.2,0,0,1,523.1,664.268Z" transform="translate(-69.539 -15.586)" fill="#00acb1"/>
    <path id="Path_163" data-name="Path 163" d="M464.015,676.334a52.984,52.984,0,0,0-52.407-45.214v-7.733a52.947,52.947,0,0,0-52.948,52.947H464.015ZM385.06,651.941a14.414,14.414,0,1,1,14.414,14.414A14.414,14.414,0,0,1,385.06,651.941Z" transform="translate(0 0)" fill="#00acb1"/>
  </g>
</svg>
