<svg width="73" height="98" viewBox="0 0 73 98" fill="none" xmlns="http://www.w3.org/2000/svg">
    <path d="M16.4634 45.2864C25.4415 45.2864 32.7197 38.0352 32.7197 29.0906C32.7197 20.1459 25.4415 12.8948 16.4634 12.8948C7.48529 12.8948 0.207092 20.1459 0.207092 29.0906C0.207092 38.0352 7.48529 45.2864 16.4634 45.2864Z" fill="white"/>
    <path d="M59.2268 63.8548H44.5237C44.5237 63.8548 30.5453 52.6106 29.3028 51.6822C28.0603 50.7537 25.7823 49.7222 23.4008 49.7222H9.21536C4.14174 49.7222 0 53.8485 0 58.9032V94.3895C0 96.4527 1.65669 98.0001 3.62402 98.0001H28.9922C31.063 98.0001 32.7197 96.3495 32.6162 94.2864L32.5126 73.0359L37.2756 76.8527C38.6217 77.8843 40.1748 78.5032 41.9351 78.5032H59.0197C62.9544 78.5032 66.3713 75.5116 66.5784 71.6948C66.889 67.3622 63.4721 63.8548 59.2268 63.8548Z" fill="white"/>
    <path d="M57.156 0C44.9378 0 40.4855 8.87158 40.4855 14.8547V15.7832C40.4855 16.9179 41.4174 17.7432 42.4528 17.7432H47.7335C48.8725 17.7432 49.7008 16.8147 49.7008 15.7832V14.8547C49.7008 14.6484 49.8044 9.28421 57.0524 9.28421C61.8154 9.28421 63.7827 10.9347 63.7827 15.0611C63.7827 17.7432 60.5729 20.5284 57.6737 22.9011C53.5319 26.3053 51.4611 29.9158 51.4611 33.9389V36.0021C51.4611 37.1368 52.393 37.9621 53.4284 37.9621H58.7091C59.8481 37.9621 60.6764 37.0337 60.6764 36.0021V33.9389C60.6764 33.5263 60.6764 32.2884 63.4721 30.0189C66.9926 27.1305 72.9981 22.2821 72.9981 14.9579C73.1017 7.84 68.9599 0 57.156 0Z" fill="white"/>
    <path d="M56.3276 54.0547C59.5872 54.0547 62.2296 51.4221 62.2296 48.1747C62.2296 44.9272 59.5872 42.2947 56.3276 42.2947C53.068 42.2947 50.4256 44.9272 50.4256 48.1747C50.4256 51.4221 53.068 54.0547 56.3276 54.0547Z" fill="white"/>
</svg>
