<svg width="81" height="81" viewBox="0 0 81 81" fill="none" xmlns="http://www.w3.org/2000/svg">
    <path fill-rule="evenodd" clip-rule="evenodd" d="M0.456909 40.6811C0.456909 18.6725 18.3012 0.827637 40.3095 0.827637C62.3212 0.827637 80.1638 18.6725 80.1638 40.6811C80.1638 62.6915 62.3212 80.5345 40.3095 80.5345C18.3012 80.5345 0.456909 62.6915 0.456909 40.6811ZM9.12082 40.6812C9.12082 57.9065 23.0846 71.8708 40.3094 71.8708C57.5377 71.8708 71.4998 57.9065 71.4998 40.6812C71.4998 23.4549 57.5377 9.49151 40.3094 9.49151C23.0846 9.49151 9.12082 23.4549 9.12082 40.6812Z" fill="white"/>
    <ellipse cx="28.6148" cy="31.0293" rx="5.77628" ry="5.77615" fill="white"/>
    <ellipse cx="52.0076" cy="31.0293" rx="5.77628" ry="5.77615" fill="white"/>
    <path d="M40.3112 43.4724C32.1679 43.4724 24.7542 47.3217 20.9628 53.5189C19.8391 55.3557 20.4178 57.7564 22.2546 58.8801C24.0922 60.0038 26.4913 59.4251 27.615 57.5892C29.9638 53.7503 34.9465 51.2707 40.3112 51.2707C45.6742 51.2707 50.6569 53.7503 53.0057 57.5892C53.7404 58.7909 55.0218 59.4536 56.3352 59.4536C57.0284 59.4536 57.7301 59.2682 58.3661 58.8801C60.2028 57.7564 60.7816 55.3565 59.6579 53.5189C55.8665 47.3217 48.4527 43.4724 40.3112 43.4724Z" fill="white"/>
</svg>
