<svg width="109" height="66" viewBox="0 0 109 66" fill="none" xmlns="http://www.w3.org/2000/svg">
    <path fill-rule="evenodd" clip-rule="evenodd" d="M54.1292 0C40.7106 0 28.4291 4.89098 18.9906 13.0805L14.5557 9.21324L9.32468 14.4454L42.8712 52.7771C42.5301 56.0756 43.5535 59.6017 46.0553 62.104C50.4902 66.54 57.6544 66.54 62.0894 62.104C66.5243 57.668 66.5243 50.5022 62.0894 46.0662C59.5876 43.5638 56.0624 42.4264 52.7646 42.8814L31.9544 24.5686C38.0951 19.9051 45.8278 17.0615 54.1292 17.0615C74.5983 17.0615 91.201 33.6681 91.201 54.142H108.259C108.145 24.3411 83.9231 0 54.1292 0ZM50.9451 50.957C52.6509 49.2509 55.6075 49.2509 57.3133 50.957C59.019 52.6632 59.019 55.6205 57.3133 57.3267C55.6075 59.0328 52.6509 59.0328 50.9451 57.3267C49.2393 55.5068 49.2393 52.6632 50.9451 50.957ZM20.4691 38.5592L8.52878 25.0237C3.18408 33.4407 0.113717 43.4502 0 54.0283H17.0576C17.0576 48.4549 18.3084 43.2227 20.4691 38.5592Z" fill="white"/>
</svg>
