<svg width="33" height="41" viewBox="0 0 33 41" fill="none" xmlns="http://www.w3.org/2000/svg">
    <g filter="url(#filter0_dd)">
        <path fill-rule="evenodd" clip-rule="evenodd" d="M28.4918 22.1586V20.0208C28.4918 19.1227 27.7604 18.3945 26.8589 18.3945C25.9596 18.3945 25.2304 19.1194 25.2277 20.0153V18.8796C25.2277 17.7016 24.2481 16.7468 23.039 16.7468C21.8299 16.7468 20.8672 17.7016 20.8672 18.8796V17.2319C20.8672 16.0538 19.8746 15.099 18.671 15.099C17.4673 15.099 16.5079 16.0544 16.5079 17.2319V4.95958C16.5079 3.87722 15.6375 3 14.5849 3C13.5328 3 12.6793 3.87777 12.6793 4.95958V25.6367L7.76695 19.2305C7.29518 18.4248 6.23167 18.1597 5.39122 18.6376C4.55077 19.1161 4.2519 20.1572 4.72366 20.963C4.72366 20.963 8.56485 26.9699 10.1329 29.3414C11.7009 31.7129 14.2746 34.6382 14.2746 36C16.1971 36 22.3371 36 25.1682 36C25.1682 33.7011 28.5 30.1102 28.5 26.6525C28.5 23.1937 28.5 22.1988 28.5 22.1988C28.5 22.1988 28.4973 22.1834 28.4918 22.1586Z" fill="white"/>
        <path d="M26.8589 17.5613C26.4983 17.5613 26.1554 17.6387 25.8464 17.7778C25.3982 16.6774 24.2992 15.9136 23.039 15.9136C22.4969 15.9136 21.9879 16.0543 21.5485 16.3015C21.145 15.1074 19.9878 14.2658 18.671 14.2658C18.1933 14.2658 17.7418 14.3757 17.3412 14.5717V4.95958C17.3412 3.42917 16.1097 2.16676 14.5849 2.16676C13.0508 2.16676 11.8461 3.4397 11.8461 4.95958V23.1807L8.45664 18.7606C7.72768 17.5772 6.1759 17.2329 4.97933 17.9133L4.97897 17.9135C3.75982 18.6076 3.28425 20.1537 4.00461 21.384L4.01287 21.3981L4.02168 21.4118L4.72366 20.963L4.02173 21.4119L4.02186 21.4121L4.02239 21.413L4.02449 21.4162L4.03279 21.4292L4.06529 21.48L4.18998 21.6749L4.64679 22.3881C5.03157 22.9886 5.56097 23.814 6.13942 24.7135C7.29523 26.5109 8.65039 28.61 9.4378 29.8009C9.90642 30.5097 10.4894 31.3028 11.0517 32.0677C11.4268 32.578 11.7927 33.0757 12.1093 33.5275C12.5232 34.1182 12.8701 34.6518 13.1113 35.108C13.3676 35.5929 13.4413 35.8766 13.4413 36V36.8332H14.2746H14.2859H14.2973H14.3088H14.3204H14.3321H14.3439H14.3558H14.3677H14.3798H14.392H14.4042H14.4166H14.429H14.4416H14.4542H14.4669H14.4797H14.4926H14.5056H14.5187H14.5319H14.5451H14.5585H14.5719H14.5855H14.5991H14.6128H14.6266H14.6405H14.6544H14.6685H14.6826H14.6968H14.7111H14.7255H14.74H14.7546H14.7692H14.784H14.7988H14.8137H14.8287H14.8437H14.8589H14.8741H14.8894H14.9048H14.9203H14.9358H14.9514H14.9672H14.9829H14.9988H15.0148H15.0308H15.0469H15.0631H15.0793H15.0957H15.1121H15.1286H15.1451H15.1618H15.1785H15.1953H15.2121H15.2291H15.2461H15.2632H15.2804H15.2976H15.3149H15.3323H15.3497H15.3672H15.3848H15.4025H15.4202H15.438H15.4559H15.4739H15.4919H15.51H15.5281H15.5463H15.5646H15.583H15.6014H15.6199H15.6384H15.6571H15.6758H15.6945H15.7133H15.7322H15.7512H15.7702H15.7893H15.8084H15.8276H15.8469H15.8662H15.8856H15.905H15.9246H15.9441H15.9638H15.9835H16.0032H16.023H16.0429H16.0629H16.0829H16.1029H16.123H16.1432H16.1634H16.1837H16.204H16.2244H16.2449H16.2654H16.286H16.3066H16.3273H16.348H16.3688H16.3896H16.4105H16.4315H16.4525H16.4735H16.4946H16.5158H16.537H16.5582H16.5795H16.6009H16.6223H16.6437H16.6653H16.6868H16.7084H16.7301H16.7518H16.7735H16.7953H16.8172H16.839H16.861H16.883H16.905H16.9271H16.9492H16.9713H16.9935H17.0158H17.0381H17.0604H17.0828H17.1052H17.1277H17.1502H17.1728H17.1954H17.218H17.2407H17.2634H17.2861H17.3089H17.3318H17.3546H17.3775H17.4005H17.4235H17.4465H17.4696H17.4927H17.5158H17.539H17.5622H17.5854H17.6087H17.632H17.6554H17.6787H17.7022H17.7256H17.7491H17.7726H17.7962H17.8197H17.8433H17.867H17.8907H17.9144H17.9381H17.9619H17.9857H18.0095H18.0334H18.0572H18.0812H18.1051H18.1291H18.1531H18.1771H18.2011H18.2252H18.2493H18.2735H18.2976H18.3218H18.346H18.3702H18.3945H18.4188H18.4431H18.4674H18.4917H18.5161H18.5405H18.5649H18.5894H18.6138H18.6383H18.6628H18.6873H18.7118H18.7364H18.761H18.7856H18.8102H18.8348H18.8595H18.8841H18.9088H18.9335H18.9582H18.983H19.0077H19.0325H19.0573H19.0821H19.1069H19.1317H19.1565H19.1814H19.2063H19.2311H19.256H19.2809H19.3058H19.3308H19.3557H19.3806H19.4056H19.4306H19.4555H19.4805H19.5055H19.5305H19.5555H19.5806H19.6056H19.6306H19.6557H19.6807H19.7058H19.7308H19.7559H19.781H19.8061H19.8311H19.8562H19.8813H19.9064H19.9315H19.9566H19.9817H20.0068H20.0319H20.057H20.0821H20.1072H20.1324H20.1575H20.1826H20.2077H20.2328H20.2579H20.283H20.3081H20.3332H20.3583H20.3834H20.4085H20.4336H20.4587H20.4838H20.5089H20.534H20.559H20.5841H20.6092H20.6342H20.6593H20.6843H20.7093H20.7344H20.7594H20.7844H20.8094H20.8344H20.8594H20.8843H20.9093H20.9343H20.9592H20.9841H21.0091H21.034H21.0589H21.0838H21.1086H21.1335H21.1584H21.1832H21.208H21.2328H21.2576H21.2824H21.3071H21.3319H21.3566H21.3813H21.406H21.4307H21.4554H21.48H21.5047H21.5293H21.5539H21.5784H21.603H21.6275H21.652H21.6765H21.701H21.7255H21.7499H21.7743H21.7987H21.8231H21.8474H21.8717H21.896H21.9203H21.9445H21.9688H21.993H22.0172H22.0413H22.0654H22.0895H22.1136H22.1376H22.1617H22.1857H22.2096H22.2336H22.2575H22.2813H22.3052H22.329H22.3528H22.3766H22.4003H22.424H22.4477H22.4713H22.4949H22.5185H22.542H22.5656H22.589H22.6125H22.6359H22.6593H22.6826H22.7059H22.7292H22.7524H22.7756H22.7988H22.8219H22.845H22.8681H22.8911H22.9141H22.937H22.9599H22.9828H23.0056H23.0284H23.0511H23.0738H23.0965H23.1191H23.1417H23.1642H23.1867H23.2092H23.2316H23.254H23.2763H23.2986H23.3209H23.3431H23.3652H23.3873H23.4094H23.4314H23.4534H23.4753H23.4972H23.519H23.5408H23.5625H23.5842H23.6059H23.6275H23.649H23.6705H23.692H23.7134H23.7347H23.756H23.7773H23.7984H23.8196H23.8407H23.8617H23.8827H23.9036H23.9245H23.9454H23.9661H23.9868H24.0075H24.0281H24.0487H24.0692H24.0896H24.11H24.1303H24.1506H24.1708H24.191H24.2111H24.2311H24.2511H24.271H24.2909H24.3107H24.3305H24.3501H24.3698H24.3893H24.4088H24.4283H24.4477H24.467H24.4862H24.5054H24.5246H24.5436H24.5626H24.5816H24.6004H24.6192H24.638H24.6567H24.6753H24.6938H24.7123H24.7307H24.749H24.7673H24.7855H24.8037H24.8217H24.8397H24.8577H24.8755H24.8933H24.911H24.9287H24.9463H24.9638H24.9812H24.9986H25.0159H25.0331H25.0502H25.0673H25.0843H25.1012H25.1181H25.1349H25.1516H25.1682H26.0014V36C26.0014 35.6041 26.1505 35.0794 26.4522 34.3898C26.6887 33.8492 26.9867 33.2757 27.3132 32.6473C27.3987 32.4829 27.4861 32.3147 27.5749 32.1423C28.3973 30.5455 29.3332 28.6117 29.3332 26.6525V26.6323V26.6121V26.592V26.5719V26.5519V26.5319V26.512V26.4922V26.4724V26.4527V26.433V26.4134V26.3938V26.3743V26.3548V26.3354V26.3161V26.2968V26.2775V26.2584V26.2392V26.2202V26.2012V26.1822V26.1633V26.1444V26.1257V26.1069V26.0882V26.0696V26.051V26.0325V26.014V25.9956V25.9773V25.9589V25.9407V25.9225V25.9044V25.8863V25.8682V25.8502V25.8323V25.8144V25.7966V25.7788V25.7611V25.7435V25.7259V25.7083V25.6908V25.6734V25.656V25.6386V25.6213V25.6041V25.5869V25.5698V25.5527V25.5357V25.5187V25.5018V25.4849V25.4681V25.4513V25.4346V25.4179V25.4013V25.3848V25.3683V25.3518V25.3354V25.3191V25.3028V25.2865V25.2703V25.2542V25.2381V25.222V25.206V25.1901V25.1742V25.1584V25.1426V25.1269V25.1112V25.0955V25.08V25.0644V25.0489V25.0335V25.0181V25.0028V24.9875V24.9723V24.9571V24.942V24.9269V24.9119V24.8969V24.8819V24.8671V24.8522V24.8375V24.8227V24.808V24.7934V24.7788V24.7643V24.7498V24.7354V24.721V24.7066V24.6924V24.6781V24.6639V24.6498V24.6357V24.6216V24.6076V24.5937V24.5798V24.5659V24.5521V24.5384V24.5247V24.511V24.4974V24.4839V24.4703V24.4569V24.4435V24.4301V24.4168V24.4035V24.3903V24.3771V24.3639V24.3509V24.3378V24.3248V24.3119V24.299V24.2861V24.2733V24.2606V24.2479V24.2352V24.2226V24.21V24.1975V24.185V24.1726V24.1602V24.1479V24.1356V24.1233V24.1111V24.099V24.0869V24.0748V24.0628V24.0508V24.0389V24.027V24.0152V24.0034V23.9917V23.98V23.9683V23.9567V23.9452V23.9336V23.9222V23.9107V23.8994V23.888V23.8767V23.8655V23.8543V23.8431V23.832V23.8209V23.8099V23.7989V23.788V23.7771V23.7663V23.7555V23.7447V23.734V23.7233V23.7127V23.7021V23.6916V23.6811V23.6706V23.6602V23.6498V23.6395V23.6292V23.619V23.6088V23.5987V23.5886V23.5785V23.5685V23.5585V23.5486V23.5387V23.5288V23.519V23.5092V23.4995V23.4898V23.4802V23.4706V23.461V23.4515V23.4421V23.4326V23.4233V23.4139V23.4046V23.3953V23.3861V23.3769V23.3678V23.3587V23.3497V23.3407V23.3317V23.3227V23.3139V23.305V23.2962V23.2874V23.2787V23.27V23.2614V23.2528V23.2442V23.2357V23.2272V23.2188V23.2104V23.202V23.1937V23.1854V23.1772V23.169V23.1608V23.1527V23.1446V23.1366V23.1286V23.1206V23.1127V23.1048V23.097V23.0892V23.0814V23.0737V23.066V23.0583V23.0507V23.0432V23.0356V23.0281V23.0207V23.0133V23.0059V22.9986V22.9913V22.984V22.9768V22.9696V22.9624V22.9553V22.9483V22.9412V22.9342V22.9273V22.9204V22.9135V22.9066V22.8998V22.8931V22.8863V22.8797V22.873V22.8664V22.8598V22.8533V22.8468V22.8403V22.8338V22.8275V22.8211V22.8148V22.8085V22.8022V22.796V22.7899V22.7837V22.7776V22.7715V22.7655V22.7595V22.7536V22.7476V22.7418V22.7359V22.7301V22.7243V22.7186V22.7129V22.7072V22.7016V22.696V22.6904V22.6849V22.6794V22.6739V22.6685V22.6631V22.6577V22.6524V22.6471V22.6419V22.6367V22.6315V22.6264V22.6212V22.6162V22.6111V22.6061V22.6011V22.5962V22.5913V22.5864V22.5816V22.5768V22.572V22.5673V22.5626V22.5579V22.5533V22.5487V22.5441V22.5396V22.5351V22.5306V22.5262V22.5218V22.5174V22.5131V22.5088V22.5045V22.5003V22.4961V22.4919V22.4877V22.4836V22.4796V22.4755V22.4715V22.4675V22.4636V22.4597V22.4558V22.452V22.4481V22.4444V22.4406V22.4369V22.4332V22.4295V22.4259V22.4223V22.4188V22.4152V22.4117V22.4083V22.4048V22.4014V22.398V22.3947V22.3914V22.3881V22.3849V22.3816V22.3784V22.3753V22.3722V22.3691V22.366V22.3629V22.3599V22.357V22.354V22.3511V22.3482V22.3454V22.3425V22.3397V22.337V22.3342V22.3315V22.3288V22.3262V22.3236V22.321V22.3184V22.3159V22.3134V22.3109V22.3085V22.306V22.3037V22.3013V22.299V22.2967V22.2944V22.2921V22.2899V22.2877V22.2856V22.2835V22.2814V22.2793V22.2772V22.2752V22.2732V22.2713V22.2693V22.2674V22.2655V22.2637V22.2619V22.2601V22.2583V22.2566V22.2549V22.2532V22.2515V22.2499V22.2483V22.2467V22.2451V22.2436V22.2421V22.2406V22.2392V22.2378V22.2364V22.235V22.2337V22.2324V22.2311V22.2298V22.2286V22.2274V22.2262V22.225V22.2239V22.2228V22.2217V22.2207V22.2197V22.2187V22.2177V22.2167V22.2158V22.2149V22.214V22.2132V22.2124V22.2116V22.2108V22.21V22.2093V22.2086V22.2079V22.2073V22.2066V22.206V22.2055V22.2049V22.2044V22.2039V22.2034V22.2029V22.2025V22.2021V22.2017V22.2014V22.201V22.2007V22.2004V22.2002V22.1999V22.1997V22.1995V22.1993V22.1992V22.199V22.1989V22.1989V22.1988V22.1988V22.1255L29.3251 22.0794V20.0208C29.3251 18.6593 28.2174 17.5613 26.8589 17.5613ZM28.7267 22.1586L28.5 22.1988L28.7266 22.1586H28.7267Z" stroke="black" stroke-width="1.66647"/>
    </g>
    <defs>
        <filter id="filter0_dd" x="0.831268" y="0.333496" width="31.3352" height="40.3329" filterUnits="userSpaceOnUse" color-interpolation-filters="sRGB">
            <feFlood flood-opacity="0" result="BackgroundImageFix"/>
            <feColorMatrix in="SourceAlpha" type="matrix" values="0 0 0 0 0 0 0 0 0 0 0 0 0 0 0 0 0 0 127 0"/>
            <feOffset dy="1"/>
            <feGaussianBlur stdDeviation="0.5"/>
            <feColorMatrix type="matrix" values="0 0 0 0 0 0 0 0 0 0 0 0 0 0 0 0 0 0 0.582909 0"/>
            <feBlend mode="normal" in2="BackgroundImageFix" result="effect1_dropShadow"/>
            <feColorMatrix in="SourceAlpha" type="matrix" values="0 0 0 0 0 0 0 0 0 0 0 0 0 0 0 0 0 0 127 0"/>
            <feOffset dy="1"/>
            <feGaussianBlur stdDeviation="1"/>
            <feColorMatrix type="matrix" values="0 0 0 0 0 0 0 0 0 0 0 0 0 0 0 0 0 0 0.179348 0"/>
            <feBlend mode="normal" in2="effect1_dropShadow" result="effect2_dropShadow"/>
            <feBlend mode="normal" in="SourceGraphic" in2="effect2_dropShadow" result="shape"/>
        </filter>
    </defs>
</svg>
