<?xml version="1.0" encoding="UTF-8"?>
<svg width="120px" height="46px" viewBox="0 0 120 46" version="1.1" xmlns="http://www.w3.org/2000/svg" xmlns:xlink="http://www.w3.org/1999/xlink">
    <!-- Generator: Sketch 61.2 (89653) - https://sketch.com -->
    <title>logo（公司）</title>
    <desc>Created with Sketch.</desc>
    <g id="远算云官网" stroke="none" stroke-width="1" fill="none" fill-rule="evenodd">
        <g id="logo（公司）" fill-rule="nonzero">
            <g id="编组" fill="#FFFFFF">
                <path d="M8.52645161,21.7096774 C8.52645161,21.7096774 5.00516129,21.9070968 4.40387097,20.4 C4.14064516,19.7406452 4.22709677,18.7277419 5.0916129,17.9664516 L16.2683871,8.60903226 C21.3148387,6.89935484 26.0748387,9.1883871 27.5122581,13.7845161 C28.6477419,17.4193548 27.363871,21.0012903 24.4619355,23.1522581 C22.8722581,24.3303226 19.2206452,25.2387097 16.116129,23.5548387 L16.1148387,28.2941935 C18.2025806,27.0387097 20.9870968,26.0283871 24.5806452,25.9535484 C27.2993548,25.8980645 29.5225806,26.4774194 31.4064516,27.3187097 C33.6322581,28.3122581 35.2929032,29.7703226 36.2683871,30.803871 C38.4825806,33.1496774 39.4929032,35.6451613 39.9677419,37.4154839 C40.04,37.6825806 40.1032258,37.96 40.16,38.2425806 C43.7729032,34.1870968 45.9690323,28.843871 45.9690323,22.9858065 C45.9690323,10.3135484 35.6954839,0.04 23.0232258,0.04 C10.3509677,0.04 0.0774193548,10.3135484 0.0774193548,22.9858065 C0.0774193548,30.16 3.37032258,36.563871 8.52774194,40.7716129 L8.52645161,21.7096774 Z" id="路径"></path>
                <path d="M34.5690323,32.4903226 C34.5690323,32.4903226 32.6283871,30.3019355 29.4787097,29.1677419 C27.8658065,28.5858065 25.7432258,28.076129 22.9070968,28.4 C21.6580645,28.5419355 20.6232258,28.7806452 19.5845161,29.2077419 C18.276129,29.7458065 17.12,30.4580645 16.1122581,31.2670968 L16.1122581,34.243871 C16.7367742,33.5896774 17.7612903,32.3883871 20.123871,31.4387097 C22.2722581,30.5754839 24.4206452,30.5006452 26.1870968,30.7767742 C28.3883871,31.1212903 30.3006452,32.2245161 31.3148387,33.0670968 C33.7754839,35.1625806 34.4787097,37.2670968 34.7909677,38.6180645 C35.0012903,39.7806452 35.0980645,41.2141935 35.1419355,42.4722581 C36.1651613,41.8348387 37.1354839,41.12 38.0412903,40.3341935 C37.7703226,37.7225806 36.9974194,35.4116129 34.5690323,32.4903226 Z" id="路径"></path>
                <path d="M32.4723621,43.5109677 C32.4723621,43.5109677 32.4864516,42.0090323 32.1832258,38.9845161 C31.9032258,36.1896774 28.7883871,33.6258065 24.843871,33.3354839 C19.6851613,32.9548387 16.4412903,38.0916129 16.1832258,38.8348387 C16.0967742,39.0812903 16.1109677,39.4864516 16.1122581,40.003871 C16.1187097,41.4025806 16.116129,43.683871 16.1135484,44.8709677 C18.2941935,45.5587097 20.6141935,45.9303226 23.0219355,45.9303226 C26.3909677,45.9303226 29.5896774,45.203871 32.4723621,43.9006452 L32.4723621,43.5109677 Z" id="路径"></path>
                <path d="M13.6283871,43.9251613 L13.6232258,33.8077419 C11.883871,36.0567742 11.0167742,38.4619355 11.0193491,39.9651613 C11.0193491,40.1006452 11.0193491,41.2735484 11.0193491,42.5432258 C11.8554839,43.0580645 12.7264516,43.52 13.6283871,43.9251613 Z" id="路径"></path>
                <path d="M19.0167742,17.1174194 C19.0941935,17.2116129 19.2077419,17.3225806 19.3458065,17.3845161 C19.6025806,17.5006452 19.9535484,17.5819355 20.3058065,17.3806452 C20.8567742,17.0670968 21.0077419,16.4206452 20.7303226,15.9045161 C20.5741935,15.6154839 20.2658065,15.4206452 19.9754839,15.3793548 C19.643871,15.3316129 19.2180645,15.4141935 18.6825806,15.7251613 C18.6825806,15.7251613 16.4877419,17.3883871 16.1419355,17.883871 C16.1225806,17.9109677 16.1148387,17.9432258 16.1148387,17.9767742 L16.1148387,20.8593548 C18.7651613,22.4141935 20.7806452,22.483871 22.9496774,21.0580645 C25.6270968,19.2993548 26.0129032,16.0593548 24.7870968,13.7574194 C24.2348387,12.7187097 23.5045161,12.0735484 23.1483871,11.7870968 C23.0025806,11.6696774 21.1367742,10.043871 18.5290323,10.6670968 C17.4619355,10.9212903 17.3264516,11.0619355 16.2064516,11.9483871 C15.5393548,12.476129 7.69419355,19.0748387 7.69419355,19.0748387 C7.44258065,19.2967742 7.66322581,19.3316129 7.72387097,19.3354839 L11.0141935,19.5070968 L11.0167742,33.3290323 C11.2296774,32.9406452 12.0516129,31.596129 13.6219355,30.1587097 L13.6154839,16.963871 C13.6154839,16.9148387 13.636129,16.8670968 13.6722581,16.8348387 L17.9987097,12.9509677 C18.0129032,12.9380645 18.0283871,12.9277419 18.0451613,12.92 C18.4696774,12.7367742 19.2916129,12.596129 20.1883871,12.7483871 C21.8787097,13.0335484 23.5664516,14.6967742 23.3703226,16.7793548 C23.203871,18.5587097 21.7470968,19.9058065 20.1767742,20.0606452 C19.1974194,20.1574194 17.2258065,18.7858065 17.2258065,18.7858065 L18.7677419,17.1148387 C18.836129,17.0387097 18.9535484,17.04 19.0167742,17.1174194 Z" id="路径"></path>
            </g>
            <g id="编组" transform="translate(54.967742, 9.419355)">
                <path d="M9.2916129,10.363871 C9.2916129,10.5780645 9.46451613,10.7509677 9.67870968,10.7509677 L14.6825806,10.7509677 C14.6606452,12.6941935 14.5754839,14.2735484 14.4258065,15.5329032 C14.276129,16.7935484 14.0412903,17.843871 13.7212903,18.6877419 C13.4696774,19.3509677 13.16,19.923871 12.796129,20.4090323 L10.3987097,22.9058065 C10.0825806,23.2348387 10.0929032,23.7587097 10.4219355,24.0748387 L11.1729032,24.796129 C11.3509677,24.9664516 11.6322581,24.9612903 11.8025806,24.7832258 C11.8025806,24.7832258 14.796129,21.6619355 14.7987097,21.6503226 C15.3819355,20.8593548 15.8464516,19.9896774 16.1858065,19.04 C16.5483871,18.0258065 16.7948387,16.8567742 16.9225806,15.5329032 C17.0503226,14.2090323 17.1251613,12.6296774 17.1470968,10.7509677 L21.2903226,10.7509677 L21.2903226,19.4722581 C21.3109677,20.4967742 21.3909677,21.3406452 21.5509677,22.0025806 C21.7109677,22.6645161 21.9729032,23.1870968 22.3354839,23.5716129 C22.6980645,23.956129 23.1780645,24.2167742 23.7767742,24.356129 C24.3741935,24.4941935 25.1109677,24.563871 25.9870968,24.563871 C26.883871,24.563871 27.636129,24.5096774 28.2451613,24.403871 C28.8541935,24.2967742 29.3496774,24.003871 29.7341935,23.5225806 C30.1187097,23.0425806 30.3909677,22.3109677 30.5509677,21.3290323 C30.7109677,20.3470968 30.8077419,18.9806452 30.7909677,17.2296774 C30.7754839,15.6580645 30.0541935,14.916129 28.756129,14.8787097 C28.5780645,14.8735484 28.2464516,14.9135484 28.2593548,15.3522581 C28.2593548,15.3522581 28.2503226,19.9509677 28.2296774,20.16 C28.1651613,20.7896774 28.0477419,21.2490323 27.8774194,21.5367742 C27.7058065,21.8245161 27.4709677,21.9909677 27.1729032,22.0335484 C26.8735484,22.076129 26.4890323,22.1083871 26.0206452,22.1290323 C25.2309677,22.1716129 24.6645161,21.9845161 24.323871,21.5690323 C23.9819355,21.1522581 23.8116129,20.4322581 23.7445161,19.4077419 L23.7445161,10.7496774 L29.9380645,10.7496774 C30.1522581,10.7496774 30.3251613,10.5767742 30.3251613,10.3625806 L30.3251613,10.3612903 C30.3251613,9.22193548 29.4012903,8.29806452 28.2619355,8.29806452 L9.67870968,8.29806452 C9.46451613,8.29806452 9.2916129,8.47096774 9.2916129,8.68516129" id="路径" fill="#FFFFFF"></path>
                <path d="M29.8154839,26.1070968 L27.723871,26.1070968 C27.723871,26.1070968 13.5625806,26.0180645 12.7935484,25.9109677 C12.0245161,25.803871 11.3316129,25.6012903 10.7122581,25.3019355 C10.0929032,25.0025806 9.52774194,24.5974194 9.01548387,24.0851613 C8.50322581,23.5729032 8.02709677,22.9058065 7.51354839,22.0941935 C7.53419355,21.923871 7.48516129,8.4916129 7.48516129,8.4916129 C7.48516129,8.31483871 7.34193548,8.17032258 7.16387097,8.17032258 L2.10967742,8.17032258 C0.945806452,8.17032258 -0.0116129032,9.11483871 0.00116140808,10.2787097 C0.00387096774,10.4851613 0.144516129,10.6219355 0.322580645,10.6219355 L4.77290323,10.6219355 C4.94709677,10.6219355 5.03483871,10.7509677 5.03483871,11.0090323 L5.03483871,21.7458065 C5.03483871,21.7458065 4.81548387,23.5974194 4.2283871,24.4193548 C3.64129032,25.2412903 1.3716129,26.8180645 1.35096774,26.8425806 L1.34709677,26.8451613 C0.429677419,27.523871 0.236129032,28.8193548 0.91483871,29.7367742 L0.91483871,29.7367742 C1.04387097,29.9109677 1.28903226,29.9470968 1.46322581,29.8193548 L2.6116129,28.9690323 C2.62193548,28.9625806 4.56387097,27.6967742 5.20516129,27.0464516 C5.84516129,26.3948387 6.33677419,25.7380645 6.67870968,25.0774194 C7.25548387,25.76 7.82580645,26.3212903 8.39225806,26.7587097 C8.95741935,27.196129 9.57677419,27.5432258 10.2503226,27.8 C10.9225806,28.0567742 11.68,28.2322581 12.523871,28.3290323 C13.3664516,28.4245161 31.5612903,28.5587097 31.5612903,28.5587097 C31.7341935,28.5587097 31.8735484,28.4180645 31.8735484,28.2451613 L31.8735484,28.163871 C31.8722581,27.0270968 30.9509677,26.1070968 29.8154839,26.1070968 Z" id="路径" fill="#FFFFFF"></path>
                <path d="M11.2270968,4.30064516 L28.3883871,4.30064516 C28.6025806,4.30064516 28.7754839,4.12774194 28.7754839,3.91354839 C28.7754839,2.77290323 27.8516129,1.84903226 26.7109677,1.84903226 L11.2270968,1.84903226 C11.0129032,1.84903226 10.84,2.02193548 10.84,2.23612903 L10.84,3.91354839 C10.84,4.12645161 11.0129032,4.30064516 11.2270968,4.30064516 Z" id="路径" fill="#FFFFFF"></path>
                <path d="M1.20516129,6.27870968 L2.32258065,6.97419355 C2.52774194,7.10193548 2.79741935,7.03870968 2.92516129,6.83354839 L6.55612903,1.00516129 C6.68387097,0.8 6.62064516,0.530322581 6.41677419,0.402580645 L6.41677419,0.402580645 C5.59483871,-0.109677419 4.51354839,0.141935484 4.00129032,0.963870968 L1.06580645,5.67612903 C0.936774194,5.88129032 1,6.15096774 1.20516129,6.27870968 Z" id="路径" fill="#16D3F2"></path>
                <path d="M63.0412903,22.7316129 L57.9174194,22.7316129 L57.9174194,22.7316129 L57.9174194,20.7780645 C57.9174194,20.7780645 59.4116129,20.7303226 59.7754839,20.6335484 C60.1380645,20.5380645 60.4206452,20.3767742 60.6245161,20.1535484 C60.8270968,19.9290323 60.9651613,19.6245161 61.0412903,19.2412903 C61.116129,18.8567742 61.116129,9.60774194 61.0412903,9.23354839 C60.9664516,8.86064516 60.8270968,8.56129032 60.6245161,8.33677419 C60.4219355,8.11225806 60.1329032,7.95225806 59.76,7.85677419 C59.3858065,7.76129032 40.6735484,7.74967742 40.3212903,7.82451613 C39.9690323,7.89935484 39.6851613,8.04903226 39.4722581,8.27354839 C39.2580645,8.49806452 39.1148387,8.80129032 39.04,9.18580645 C38.9651613,9.57032258 38.9703226,18.9264516 39.0554839,19.3212903 C39.1406452,19.716129 39.2851613,20.0206452 39.4877419,20.2335484 C39.6903226,20.4477419 39.9729032,20.5909677 40.3367742,20.6658065 C40.6993548,20.7406452 43.3148387,20.7780645 43.3148387,20.7780645 C43.3070968,20.9703226 43.2296774,22.3045161 43.1870968,22.7316129 L35.9819355,22.7316129 C35.9819355,22.7316129 35.6748387,22.7316129 35.6748387,22.7316129 C35.4490323,22.7316129 35.2670968,22.9148387 35.2670968,23.1393548 L35.2670968,24.6451613 C35.2670968,24.8709677 35.4503226,25.0529032 35.6748387,25.0529032 L42.6748387,25.0529032 C42.3535484,25.8903226 41.8580645,26.5690323 41.1858065,27.0851613 C40.4916129,27.6180645 39.5148387,28.1419355 38.2554839,28.6541935 C37.8283871,28.8464516 37.5509677,29.0916129 37.4232258,29.3909677 C37.2954839,29.6903226 37.283871,30 37.3909677,30.32 C37.5187097,30.6825806 37.7212903,30.9019355 38,30.9767742 C38.2774194,31.0516129 38.7251613,30.9716129 39.3445161,30.7367742 C40.1341935,30.4167742 40.8387097,30.0748387 41.4580645,29.7122581 C42.0774194,29.3483871 42.6219355,28.9329032 43.0916129,28.4632258 C43.5612903,27.9935484 43.956129,27.4748387 44.276129,26.9096774 C44.5845161,26.3651613 44.8425806,25.7458065 45.0516129,25.0529032 L55.6451613,25.0529032 L55.6451613,29.84 C55.6451613,30.2670968 55.7458065,30.5767742 55.9496774,30.7690323 C56.1522581,30.9612903 56.4348387,31.0567742 56.7987097,31.0567742 C57.5458065,31.0567742 57.92,30.6516129 57.92,29.84 L57.92,25.0529032 L64.5148387,25.0529032 C64.7406452,25.0529032 64.9225806,24.8696774 64.9225806,24.6451613 L64.9225806,24.6090323 C64.9187097,23.5716129 64.0787097,22.7316129 63.0412903,22.7316129 Z M45.643871,20.7780645 L55.6541935,20.7780645 L55.6425806,22.7316129 L45.5225806,22.7316129 C45.5651613,22.56 45.643871,20.7780645 45.643871,20.7780645 Z M41.1354839,10.5303226 C41.1354839,10.1251613 41.2735484,9.92129032 41.5522581,9.92129032 L58.3974194,9.92129032 C58.7174194,9.92129032 58.8774194,10.123871 58.8774194,10.5303226 L58.8774194,11.3625806 L41.1354839,11.3625806 L41.1354839,10.5303226 Z M41.1354839,13.603871 L58.8774194,13.603871 L58.8774194,14.9174194 L41.1354839,14.9174194 L41.1354839,13.603871 Z M41.5522581,18.5677419 C41.2748387,18.5677419 41.1354839,18.3548387 41.1354839,17.9277419 L41.1354839,17.1277419 L58.8774194,17.1277419 L58.8774194,17.9277419 C58.8774194,18.3548387 58.7174194,18.5677419 58.3974194,18.5677419 L41.5522581,18.5677419 Z" id="形状" fill="#FFFFFF"></path>
                <path d="M50.1264516,6.21677419 L51.3470968,6.97677419 C51.523871,7.08645161 51.756129,7.03225806 51.8658065,6.85677419 L53.4258065,4.35225806 L56.6,4.35225806 L56.8593548,5.35354839 C57.1290323,6.39483871 58.1922581,7.01935484 59.2335484,6.74967742 C59.363871,6.71612903 59.4412903,6.58322581 59.4077419,6.45290323 L58.8619355,4.35225806 L64.1677419,4.35225806 C64.2658065,4.35225806 64.3445161,4.27354839 64.3445161,4.17548387 L64.3445161,4.02709677 C64.3445161,3.00387097 63.5148387,2.17419355 62.4916129,2.17419355 L54.7806452,2.17419355 L55.5587097,0.92516129 C55.6683871,0.748387097 55.6141935,0.516129032 55.4387097,0.406451613 L55.3883871,0.375483871 C54.5664516,-0.136774194 53.483871,0.11483871 52.9716129,0.936774194 L50.0051613,5.69935484 C49.8967742,5.87483871 49.9496774,6.10709677 50.1264516,6.21677419 Z" id="路径" fill="#FFFFFF"></path>
                <path d="M35.9251613,6.21806452 L37.1458065,6.97806452 C37.3225806,7.08774194 37.5548387,7.03354839 37.6645161,6.85806452 L39.2283871,4.3483871 C39.2374194,4.34967742 39.2464516,4.35096774 39.2567742,4.35096774 L42.6167742,4.35096774 L42.7974194,5.04774194 C43.0670968,6.08903226 44.1303226,6.71354839 45.1716129,6.44387097 C45.3019355,6.41032258 45.3793548,6.27741935 45.3458065,6.14709677 L44.88,4.35096774 L50.2580645,4.35096774 C50.356129,4.35096774 50.4348387,4.27225806 50.4348387,4.17419355 L50.4348387,4.02580645 C50.4348387,3.00258065 49.6051613,2.17290323 48.5819355,2.17290323 L40.5832258,2.17290323 L41.36,0.92516129 C41.4696774,0.748387097 41.4154839,0.516129032 41.24,0.406451613 L41.1896774,0.375483871 C40.3664516,-0.136774194 39.2851613,0.11483871 38.7716129,0.936774194 L35.8051613,5.69806452 C35.6941935,5.87612903 35.7483871,6.1083871 35.9251613,6.21806452 Z" id="路径" fill="#FFFFFF"></path>
            </g>
        </g>
    </g>
</svg>