<svg viewBox="0 0 117 99" fill="none" xmlns="http://www.w3.org/2000/svg">
<path fill-rule="evenodd" clip-rule="evenodd" d="M-34.5487 97.3458C-34.643 97.4167 -34.7378 97.4882 -34.8326 97.5591C-34.6284 97.9572 -34.4384 98.3632 -34.2176 98.7519C-31.1635 104.117 -28.0962 109.475 -25.051 114.846C-21.0565 121.891 -17.0901 128.953 -13.087 135.994C-12.0432 137.829 -11.8041 137.829 -10.7959 136.094C-8.35494 131.893 -5.98164 127.652 -3.4987 123.476C-2.63386 122.021 -2.89995 121.167 -4.24879 120.176C-9.05539 116.645 -13.7639 112.981 -18.5248 109.387C-23.8574 105.362 -29.2067 101.359 -34.5487 97.3458V97.3458ZM44.5101 143.42C44.549 143.296 44.5877 143.173 44.6266 143.048C43.3725 142.474 42.1329 141.865 40.8616 141.331C30.3607 136.916 19.8455 132.535 9.35843 128.087C7.85327 127.449 6.93597 127.647 6.11093 129.132C3.75308 133.375 1.32076 137.578 -1.14982 141.756C-2.01541 143.22 -1.76765 143.694 -0.0472899 143.671C5.65591 143.592 11.3607 143.61 17.0645 143.58C26.213 143.532 35.3612 143.474 44.5101 143.42V143.42ZM73.3674 131.318C73.4813 131.363 73.5948 131.409 73.7082 131.453C75.0028 129.211 76.2971 126.968 77.5923 124.727C85.1449 111.653 92.7001 98.5806 100.243 85.5017C100.566 84.9428 101.248 84.3279 100.924 83.7247C100.492 82.9191 99.5868 83.4607 98.9254 83.5351C94.1785 84.0699 89.4422 84.7084 84.6935 85.2241C83.2815 85.3774 82.6425 85.9493 82.364 87.3783C81.0911 93.9035 79.7024 100.407 78.3644 106.919C76.6942 115.051 75.0327 123.185 73.3674 131.318V131.318ZM-39.2645 66.2196C-39.1993 66.267 -39.1342 66.3147 -39.0689 66.3621C-38.8605 66.2023 -38.6412 66.0547 -38.445 65.8809C-27.4527 56.1266 -16.472 46.3583 -5.45374 36.6333C-4.39198 35.6962 -4.12156 34.9014 -4.72175 33.5544C-6.77444 28.9478 -8.69084 24.2807 -10.6845 19.6476C-10.877 19.2003 -10.9014 18.5714 -11.661 18.4088L-39.2645 66.2196ZM76.2604 26.5896C76.117 26.6488 75.974 26.7072 75.8309 26.7661C75.865 27.2864 75.862 27.8127 75.9398 28.3269C78.1399 42.8971 80.3752 57.4623 82.5191 72.0412C82.7662 73.7243 83.2724 74.2819 85.0331 74.0267C89.8902 73.3225 94.774 72.8076 99.646 72.2063C101.856 71.9333 101.937 71.7266 100.828 69.7821C94.9473 59.4712 89.0724 49.1563 83.2014 38.8395C80.88 34.7605 78.5734 30.6735 76.2604 26.5896V26.5896ZM50.8397 11.8788L50.7609 11.4917C48.2003 11.5024 45.6394 11.5083 43.0789 11.5237C28.8135 11.6105 14.5479 11.7183 0.282329 11.7629C-1.50619 11.7686 -1.75575 12.2727 -1.05184 13.8599C0.966266 18.4091 2.92053 22.9899 4.77603 27.6084C5.41654 29.2024 6.12433 29.4978 7.74097 28.8519C18.4718 24.5646 29.2425 20.3775 39.9988 16.1539C43.6146 14.7344 47.2264 13.3043 50.8397 11.8788V11.8788ZM-1.45446 108.351C-0.806616 107.637 -1.02409 106.941 -1.04005 106.314C-1.51342 87.9777 -2.00314 69.6429 -2.50663 51.308C-2.52252 50.7385 -2.26807 49.9474 -2.85716 49.6508C-3.49361 49.33 -3.89229 50.0836 -4.31004 50.4536C-15.0593 59.9807 -25.783 69.5363 -36.5494 79.0438C-37.8332 80.1778 -37.8664 80.7693 -36.4136 81.8558C-27.3435 88.643 -18.3541 95.538 -9.33512 102.394C-6.714 104.386 -4.08255 106.364 -1.45446 108.351V108.351ZM17.9129 119.535C20.9328 120.803 23.6042 121.918 26.2717 123.044C37.1406 127.63 48.0193 132.193 58.8635 136.836C60.3664 137.479 60.8249 137.084 61.123 135.618C63.9986 121.472 66.9191 107.335 69.8146 93.1935C69.9176 92.6904 70.2953 92.0393 69.855 91.6765C69.2738 91.1971 68.7708 91.8919 68.2872 92.1531C52.4979 100.688 36.7167 109.24 20.9369 117.794C20.0247 118.288 19.1364 118.829 17.9129 119.535V119.535ZM43.1618 53.8345L43.156 53.8446C51.6629 58.7561 60.168 63.6716 68.682 68.5709C69.2369 68.89 69.8535 69.5931 70.4488 69.2365C71.2348 68.7652 70.6316 67.8871 70.5337 67.2259C68.2485 51.8437 65.9158 36.4687 63.6409 21.0846C63.3884 19.3772 62.7345 19.2169 61.2398 19.8088C46.7794 25.5345 32.2955 31.2004 17.8228 36.8949C17.2353 37.1263 16.299 37.0942 16.2403 37.8703C16.1827 38.6326 17.1062 38.7738 17.6476 39.0877C26.145 44.0164 34.6548 48.923 43.1618 53.8345V53.8345ZM37.5806 63.5924L37.5936 63.5698C28.5762 58.3636 19.5598 53.1548 10.5368 47.9574C10.0372 47.6694 9.50331 47.0944 8.9233 47.4086C8.22555 47.7871 8.51332 48.6032 8.52676 49.236C8.5769 51.5612 8.68401 53.8851 8.74757 56.2102C9.22411 73.6803 9.69455 91.1506 10.1702 108.621C10.2266 110.695 10.4166 110.82 12.1481 109.88C29.4357 100.496 46.7229 91.1113 63.9966 81.7012C64.6635 81.3377 65.806 81.2091 65.8177 80.3611C65.8306 79.3986 64.6419 79.2393 63.9358 78.8293C55.1616 73.7317 46.3689 68.6663 37.5806 63.5924V63.5924ZM95.6875 115.835C89.5621 126.444 83.4131 137.041 77.3216 147.67C74.7024 152.241 70.9321 154.5 65.5959 154.507C41.0244 154.543 16.4528 154.683 -8.11871 154.8C-13.1497 154.823 -16.6245 152.435 -19.0515 148.135C-25.873 136.048 -32.7551 123.994 -39.6198 111.931C-44.8752 102.696 -50.095 93.4407 -55.4213 84.2469C-57.9458 79.8899 -57.7778 75.692 -55.3024 71.4076C-42.976 50.0768 -30.6655 28.7377 -18.3597 7.39546C-15.7857 2.93077 -12.1071 0.614651 -6.81758 0.603921C17.9528 0.553761 42.7235 0.372061 67.4939 0.265086C72.2834 0.24399 75.6133 2.65051 77.9114 6.74101C82.206 14.3839 86.5361 22.0067 90.874 29.6248C98.6624 43.3019 106.431 56.9909 114.287 70.6288C116.828 75.0403 116.787 79.2912 114.257 83.6544C108.045 94.3682 101.866 105.101 95.6737 115.827L95.6875 115.835Z" fill="currentColor"/>
</svg>
