<svg viewBox="0 0 72 58" fill="none" xmlns="http://www.w3.org/2000/svg">
<g opacity="0.05">
<path fill-rule="evenodd" clip-rule="evenodd" d="M30.9164 36.2867C29.9236 34.4957 30.5718 32.2384 32.3641 31.2449C34.1565 30.2514 36.4143 30.8979 37.407 32.6888C38.3997 34.4798 37.7516 36.7371 35.9592 37.7307C34.1669 38.7242 31.9091 38.0776 30.9164 36.2867Z" fill="#FFFDFD"/>
<mask id="mask0_3301_441" style="mask-type:alpha" maskUnits="userSpaceOnUse" x="0" y="0" width="97" height="100">
<path fill-rule="evenodd" clip-rule="evenodd" d="M0.387665 34.365L60.7364 0.913127L96.6123 65.635L36.2636 99.0868L0.387665 34.365Z" fill="white"/>
</mask>
<g mask="url(#mask0_3301_441)">
<path fill-rule="evenodd" clip-rule="evenodd" d="M37.2011 45.9377C32.6655 48.4518 26.9522 46.8158 24.4401 42.2838C21.9279 37.7517 23.5681 32.0396 28.1037 29.5255C32.6392 27.0114 38.3526 28.6473 40.8648 33.1794C43.3769 37.7115 41.7366 43.4236 37.2011 45.9377M32.9947 22.0459L30.5543 17.6433C13.8935 26.8785 7.86829 47.8605 17.0965 64.5086L44.5017 49.3176C49.7277 46.4209 56.3724 48.1303 59.3993 53.2767C59.4676 53.3929 59.5346 53.5102 59.6004 53.6288C63.7776 61.1647 61.0502 70.6625 53.5085 74.843C48.8467 77.427 42.9743 75.7457 40.3922 71.0874C38.7971 68.2097 39.8385 64.583 42.7184 62.9866C43.0365 62.8103 43.3709 62.6859 43.7092 62.6108C43.8023 63.3252 44.0436 64.0337 44.4445 64.6925C45.8454 66.9943 48.8055 67.8899 51.2476 66.7458C54.0731 65.4222 55.1482 62.012 53.6615 59.3298C53.6362 59.2843 53.6106 59.2408 53.5854 59.1954C51.3674 55.3634 46.4734 54.0002 42.5806 56.158C36.2158 59.6861 33.9136 67.7033 37.4397 74.0645C43.1464 84.3597 56.1259 88.077 66.4302 82.3652C83.0993 73.1254 89.1277 52.1324 79.8942 35.4748C70.6614 18.8184 49.6638 12.8061 32.9947 22.0459" fill="#FFFDFD"/>
</g>
<path fill-rule="evenodd" clip-rule="evenodd" d="M35.4043 19.4633C35.9752 19.2136 36.5492 18.9801 37.1255 18.7623C37.1184 18.7446 37.1131 18.7266 37.1054 18.7091C36.6919 17.7636 35.5898 17.3326 34.6436 17.7466C33.6973 18.1604 33.2655 19.2624 33.679 20.208C33.6868 20.2259 33.6965 20.2425 33.7049 20.2599C34.2614 19.9815 34.8277 19.7155 35.4043 19.4633Z" fill="#FFFDFD"/>
<path fill-rule="evenodd" clip-rule="evenodd" d="M41.2417 17.4848C41.2285 17.4488 41.2165 17.4127 41.201 17.3773C40.7874 16.4317 39.6853 16.0008 38.7391 16.4146C37.8956 16.7836 37.4628 17.6993 37.6713 18.5637C38.8533 18.1386 40.0447 17.7792 41.2417 17.4848Z" fill="#FFFDFD"/>
<path fill-rule="evenodd" clip-rule="evenodd" d="M45.4793 16.7121C45.4534 16.5865 45.4146 16.4617 45.3612 16.3396C44.9477 15.3941 43.8455 14.9631 42.8994 15.377C42.1119 15.7216 41.6826 16.5426 41.7986 17.3535C43.0222 17.0734 44.2506 16.8601 45.4793 16.7121Z" fill="#FFFDFD"/>
<path fill-rule="evenodd" clip-rule="evenodd" d="M49.788 16.4575C49.7746 16.2464 49.7268 16.034 49.6372 15.8289C49.2237 14.8833 48.1215 14.4524 47.1753 14.8662C46.4513 15.183 46.0301 15.9029 46.0567 16.647C47.3028 16.5176 48.5479 16.4554 49.788 16.4575Z" fill="#FFFDFD"/>
<path fill-rule="evenodd" clip-rule="evenodd" d="M54.0821 16.7252C54.0864 16.4657 54.0381 16.2013 53.9274 15.948C53.5138 15.0025 52.4116 14.5715 51.4655 14.9855C50.8406 15.2587 50.4423 15.8324 50.3613 16.4626C51.6095 16.485 52.8513 16.5736 54.0821 16.7252Z" fill="#FFFDFD"/>
<path fill-rule="evenodd" clip-rule="evenodd" d="M58.3199 17.5085C58.3865 17.153 58.3509 16.7747 58.1951 16.4184C57.7817 15.4728 56.6794 15.0419 55.7334 15.4558C55.1531 15.7096 54.7676 16.2224 54.6504 16.7989C55.8876 16.9716 57.1121 17.2092 58.3199 17.5085Z" fill="#FFFDFD"/>
<path fill-rule="evenodd" clip-rule="evenodd" d="M62.4373 18.7958C62.5547 18.391 62.5369 17.9446 62.3548 17.5283C61.9414 16.5828 60.8392 16.1518 59.893 16.5656C59.4008 16.7811 59.0496 17.1832 58.8823 17.652C60.0871 17.9714 61.2737 18.3537 62.4373 18.7958Z" fill="#FFFDFD"/>
</g>
</svg>
