<svg width="260" height="165" viewBox="0 0 260 165" fill="none" xmlns="http://www.w3.org/2000/svg">
    <path fill-rule="evenodd" clip-rule="evenodd" d="M77.6004 102.73C78.059 104.282 78.9824 104.819 79.6808 105.51C88.7794 114.516 97.9039 123.496 107.006 132.5C111.131 136.579 111.163 138.978 107.129 142.981C100.782 149.278 94.423 155.562 88.0331 161.817C84.6199 165.159 81.605 165.207 78.2066 161.859C53.0169 137.045 27.8469 112.212 2.70146 87.3555C-0.90725 83.7874 -0.886348 80.6476 2.67933 77.1243C27.9059 52.2034 53.1472 27.2982 78.4045 2.40879C81.6813 -0.820832 84.658 -0.801421 87.9999 2.45853C94.4734 8.77339 100.903 15.1319 107.316 21.5062C111.053 25.2187 111.092 27.8878 107.342 31.6197C98.2678 40.6486 89.1458 49.6313 79.9943 58.585C79.1373 59.4233 77.9434 59.9268 76.5602 60.804C78.7144 62.1907 79.9574 61.8583 81.1071 61.8583C137.259 61.8789 193.411 61.8753 249.563 61.8765C250.79 61.8765 252.02 61.8498 253.246 61.8971C257.028 62.0427 259.204 64.0202 259.239 67.7267C259.326 77.3136 259.314 86.903 259.245 96.4887C259.22 100.007 257.485 101.92 253.984 102.472C252.38 102.725 250.725 102.72 249.094 102.72C193.35 102.731 137.606 102.73 81.862 102.73H77.6004Z" fill="url(#paint0_linear)" style="mix-blend-mode:overlay"/>
    <defs>
        <linearGradient id="paint0_linear" x1="-113.631" y1="93.8276" x2="35.9222" y2="315.233" gradientUnits="userSpaceOnUse">
            <stop stop-color="white"/>
            <stop offset="1" stop-color="#7D7D7D" stop-opacity="0.398738"/>
        </linearGradient>
    </defs>
</svg>
