<svg id="Group_67" data-name="Group 67" xmlns="http://www.w3.org/2000/svg" width="51.735" height="26" viewBox="0 0 51.735 26">
  <circle id="Ellipse_17" data-name="Ellipse 17" cx="2.797" cy="2.797" r="2.797" transform="translate(26.715 9.636)" fill="#2ad4d9"/>
  <path id="Path_156" data-name="Path 156" d="M457.509,630.4q-.7.066-1.391.167c0-.014,0-.028-.006-.043a1.41,1.41,0,0,1,2.807-.264c0,.015,0,.029,0,.044Q458.218,630.334,457.509,630.4Z" transform="translate(-434.307 -627.425)" fill="#2ad4d9"/>
  <path id="Path_157" data-name="Path 157" d="M467.748,632.835c0-.028-.01-.057-.012-.086a1.409,1.409,0,0,1,2.761-.508A27.055,27.055,0,0,0,467.748,632.835Z" transform="translate(-449.118 -629.031)" fill="#2ad4d9"/>
  <path id="Path_158" data-name="Path 158" d="M479.16,636.045a1.409,1.409,0,0,1,2.661-.923A26.752,26.752,0,0,0,479.16,636.045Z" transform="translate(-463.606 -631.201)" fill="#2ad4d9"/>
  <path id="Path_159" data-name="Path 159" d="M490.247,640.634a1.408,1.408,0,0,1,2.529-1.239A26.791,26.791,0,0,0,490.247,640.634Z" transform="translate(-477.627 -634.382)" fill="#2ad4d9"/>
  <path id="Path_160" data-name="Path 160" d="M500.738,646.654a1.408,1.408,0,0,1,2.357-1.534A26.877,26.877,0,0,0,500.738,646.654Z" transform="translate(-490.851 -638.654)" fill="#2ad4d9"/>
  <path id="Path_161" data-name="Path 161" d="M510.591,653.573a1.409,1.409,0,0,1,2.16-1.81A27.08,27.08,0,0,0,510.591,653.573Z" transform="translate(-503.212 -643.507)" fill="#2ad4d9"/>
  <path id="Path_162" data-name="Path 162" d="M519.589,661.772a1.409,1.409,0,0,1,1.926-2.055A27.114,27.114,0,0,0,519.589,661.772Z" transform="translate(-514.454 -649.351)" fill="#2ad4d9"/>
  <path id="Path_163" data-name="Path 163" d="M358.66,649.387a26.018,26.018,0,0,1,25.735-22.2v-3.8a26,26,0,0,1,26,26H358.66Zm38.771-11.978a7.078,7.078,0,1,0-7.078,7.078A7.078,7.078,0,0,0,397.431,637.409Z" transform="translate(-358.66 -623.387)" fill="#2ad4d9"/>
</svg>
