<svg width="215" height="286" viewBox="0 0 215 286" fill="none" xmlns="http://www.w3.org/2000/svg">
<circle cx="28" cy="250" r="20" fill="black" fill-opacity="0.2"/>
<circle cx="174" cy="250" r="20" fill="black" fill-opacity="0.2"/>
<mask id="mask0_3301_187" style="mask-type:alpha" maskUnits="userSpaceOnUse" x="20" y="251" width="16" height="8">
<path fill-rule="evenodd" clip-rule="evenodd" d="M20 251.634H36V259H20V251.634Z" fill="white"/>
</mask>
<g mask="url(#mask0_3301_187)">
<path fill-rule="evenodd" clip-rule="evenodd" d="M28.0061 257.287C29.9861 257.287 31.966 257.286 33.9459 257.288C34.0993 257.288 34.2205 257.305 34.172 257.071C34.0157 256.315 33.7191 255.627 33.2237 255.029C32.2814 253.89 31.0248 253.402 29.5701 253.39C28.3437 253.38 27.1158 253.337 25.89 253.426C25.2407 253.474 24.6279 253.653 24.0639 253.97C22.8491 254.652 22.1326 255.688 21.8454 257.029C21.7989 257.246 21.8491 257.292 22.0665 257.291C24.0464 257.283 26.0263 257.287 28.0061 257.287ZM27.9902 258.999C25.7255 258.999 23.4609 259.001 21.1962 258.998C20.5753 258.998 20.103 258.632 20.0214 258.088C19.97 257.746 20.0214 257.402 20.068 257.063C20.2171 255.977 20.5996 254.981 21.2993 254.117C22.4226 252.73 23.8521 251.855 25.6695 251.724C27.2642 251.609 28.8683 251.594 30.461 251.734C32.0305 251.872 33.3279 252.591 34.3884 253.746C35.0739 254.493 35.5432 255.341 35.7949 256.31C35.9247 256.809 35.9963 257.319 36 257.836C36.0049 258.54 35.5508 258.996 34.8319 258.998C32.5513 259.002 30.2708 258.999 27.9902 258.999Z" fill="#2AD4D9"/>
</g>
<path fill-rule="evenodd" clip-rule="evenodd" d="M27.9738 248.287C29.4896 248.258 30.7772 247.289 30.8154 245.542C30.8475 244.072 29.8371 242.779 28.0459 242.738C26.5355 242.703 25.2212 243.716 25.1926 245.482C25.1681 246.988 26.2104 248.205 27.9738 248.287ZM32.5797 245.504C32.5809 248.043 30.5732 250.017 27.9946 250.012C25.4275 250.008 23.4296 248.037 23.4285 245.509C23.4273 242.97 25.4349 240.996 28.0135 241C30.581 241.004 32.5785 242.975 32.5797 245.504Z" fill="#2AD4D9"/>
<mask id="mask1_3301_187" style="mask-type:alpha" maskUnits="userSpaceOnUse" x="166" y="251" width="16" height="8">
<path fill-rule="evenodd" clip-rule="evenodd" d="M166 251.634H182V259H166V251.634Z" fill="white"/>
</mask>
<g mask="url(#mask1_3301_187)">
<path fill-rule="evenodd" clip-rule="evenodd" d="M174.006 257.287C175.986 257.287 177.966 257.286 179.946 257.288C180.099 257.288 180.221 257.305 180.172 257.071C180.016 256.315 179.719 255.627 179.224 255.029C178.281 253.89 177.025 253.402 175.57 253.39C174.344 253.38 173.116 253.337 171.89 253.426C171.241 253.474 170.628 253.653 170.064 253.97C168.849 254.652 168.133 255.688 167.845 257.029C167.799 257.246 167.849 257.292 168.066 257.291C170.046 257.283 172.026 257.287 174.006 257.287ZM173.99 258.999C171.726 258.999 169.461 259.001 167.196 258.998C166.575 258.998 166.103 258.632 166.021 258.088C165.97 257.746 166.021 257.402 166.068 257.063C166.217 255.977 166.6 254.981 167.299 254.117C168.423 252.73 169.852 251.855 171.669 251.724C173.264 251.609 174.868 251.594 176.461 251.734C178.03 251.872 179.328 252.591 180.388 253.746C181.074 254.493 181.543 255.341 181.795 256.31C181.925 256.809 181.996 257.319 182 257.836C182.005 258.54 181.551 258.996 180.832 258.998C178.551 259.002 176.271 258.999 173.99 258.999Z" fill="#2AD4D9"/>
</g>
<path fill-rule="evenodd" clip-rule="evenodd" d="M173.974 248.287C175.49 248.258 176.777 247.289 176.815 245.542C176.848 244.072 175.837 242.779 174.046 242.738C172.536 242.703 171.221 243.716 171.193 245.482C171.168 246.988 172.21 248.205 173.974 248.287ZM178.58 245.504C178.581 248.043 176.573 250.017 173.995 250.012C171.427 250.008 169.43 248.037 169.428 245.509C169.427 242.97 171.435 240.996 174.014 241C176.581 241.004 178.579 242.975 178.58 245.504Z" fill="#2AD4D9"/>
<path opacity="0.2" d="M29 99.8199V91.8199H173.727V99.8199" stroke="white" stroke-dasharray="4"/>
<path opacity="0.2" d="M28.3633 224.82V216.82H174.363V224.82" stroke="white" stroke-dasharray="4"/>
<path opacity="0.2" d="M173.727 182.503V190.503L29.0001 190.503V182.503" stroke="white" stroke-dasharray="4"/>
<circle cx="102" cy="30" r="30" fill="black" fill-opacity="0.2"/>
<mask id="mask2_3301_187" style="mask-type:alpha" maskUnits="userSpaceOnUse" x="88" y="16" width="28" height="15">
<path fill-rule="evenodd" clip-rule="evenodd" d="M88.9338 16.9091H115.086V30.0166H88.9338V16.9091Z" fill="white"/>
</mask>
<g mask="url(#mask2_3301_187)">
<path fill-rule="evenodd" clip-rule="evenodd" d="M101.999 27.5073C102.21 27.4867 102.4 27.4174 102.589 27.3366C105.472 26.0992 108.356 24.8634 111.238 23.624C111.324 23.587 111.467 23.5785 111.457 23.4486C111.449 23.3511 111.326 23.3351 111.246 23.3006C108.352 22.0582 105.457 20.821 102.566 19.5721C102.173 19.402 101.82 19.4112 101.427 19.581C98.5481 20.827 95.6627 22.0589 92.7805 23.2983C92.6944 23.3353 92.5517 23.3434 92.5611 23.4732C92.5682 23.5709 92.6916 23.5872 92.7718 23.6217C95.6757 24.8684 98.5802 26.1133 101.485 27.3589C101.652 27.4306 101.821 27.4944 101.999 27.5073ZM101.953 30.0163C101.466 30.0246 100.966 29.8825 100.484 29.6753C97.0707 28.2073 93.6633 26.725 90.2447 25.2688C88.7706 24.6409 88.6846 23.2096 89.2766 22.3738C89.5157 22.0362 89.854 21.8299 90.2191 21.6721C93.6505 20.1883 97.0848 18.7113 100.518 17.231C101.508 16.804 102.498 16.801 103.487 17.2265C106.932 18.7087 110.374 20.1952 113.819 21.6764C115.261 22.2964 115.331 23.7257 114.731 24.5621C114.491 24.8973 114.149 25.099 113.783 25.257C110.362 26.7356 106.939 28.2114 103.514 29.6822C103.033 29.8888 102.53 30.0234 101.953 30.0163Z" fill="#2AD4D9"/>
</g>
<g opacity="0.6">
<mask id="mask3_3301_187" style="mask-type:alpha" maskUnits="userSpaceOnUse" x="88" y="27" width="28" height="10">
<path fill-rule="evenodd" clip-rule="evenodd" d="M88.9102 27.7631H115.091V36.554H88.9102V27.7631Z" fill="white"/>
</mask>
<g mask="url(#mask3_3301_187)">
<path fill-rule="evenodd" clip-rule="evenodd" d="M101.889 36.5537C101.484 36.5613 101.002 36.4323 100.541 36.2353C97.1036 34.7654 93.6664 33.2939 90.2331 31.8136C89.1215 31.3343 88.6245 30.2398 89.0764 29.1931C89.3933 28.4586 90.0011 27.9958 90.7742 27.7994C91.2722 27.6729 91.7017 27.8879 92.0028 28.2755C92.3073 28.6674 92.3164 29.1341 92.0673 29.5561C91.9189 29.8076 91.998 29.8706 92.2161 29.963C95.3144 31.2759 98.4108 32.5933 101.505 33.9147C101.839 34.0572 102.155 34.0607 102.488 33.9166C105.535 32.5988 108.583 31.2845 111.633 29.9739C111.844 29.8836 111.917 29.7897 111.85 29.5405C111.588 28.573 112.37 27.7725 113.337 28.0116C114.115 28.2041 114.731 28.6148 114.991 29.4191C115.31 30.403 114.85 31.3319 113.81 31.7826C111.336 32.8551 108.857 33.9165 106.381 34.9831C105.454 35.382 104.53 35.7854 103.603 36.1822C103.089 36.4022 102.559 36.5575 101.889 36.5537Z" fill="#2AD4D9"/>
</g>
</g>
<g opacity="0.3">
<mask id="mask4_3301_187" style="mask-type:alpha" maskUnits="userSpaceOnUse" x="88" y="34" width="28" height="10">
<path fill-rule="evenodd" clip-rule="evenodd" d="M88.9092 34.3008H115.091V43.0909H88.9092V34.3008Z" fill="white"/>
</mask>
<g mask="url(#mask4_3301_187)">
<path fill-rule="evenodd" clip-rule="evenodd" d="M102.009 43.0904C101.488 43.1001 100.997 42.9668 100.525 42.7651C97.098 41.2993 93.6713 39.8321 90.248 38.3571C89.1203 37.8712 88.6162 36.763 89.0822 35.7131C89.4061 34.9833 90.0163 34.5216 90.7918 34.3338C91.2901 34.2131 91.7166 34.4331 92.0134 34.8261C92.3041 35.211 92.3149 35.6685 92.0751 36.0782C91.9209 36.3418 92.0033 36.41 92.2323 36.507C95.3202 37.8152 98.4063 39.1277 101.49 40.4454C101.849 40.5985 102.18 40.5882 102.536 40.4339C105.561 39.1229 108.589 37.8184 111.619 36.5172C111.841 36.4216 111.919 36.3249 111.846 36.0597C111.589 35.1162 112.374 34.3149 113.321 34.5451C114.126 34.7408 114.758 35.1634 115.006 36.005C115.295 36.9839 114.827 37.8792 113.794 38.3267C111.663 39.2496 109.528 40.1658 107.395 41.0848C106.136 41.6273 104.878 42.1703 103.619 42.7123C103.104 42.9336 102.574 43.0875 102.009 43.0904Z" fill="#2AD4D9"/>
</g>
</g>
<path opacity="0.30144" d="M0.32 170H5.12V168.56H2.44L5.1 164.54V163.5H0.58V164.94H2.98L0.32 168.96V170ZM5.76285 167.5C5.76285 169.16 6.88285 170.12 8.34285 170.12C8.90285 170.12 9.62285 169.92 10.1629 169.54L9.60285 168.52C9.24285 168.72 8.92285 168.82 8.58285 168.82C8.02285 168.82 7.58285 168.62 7.42285 167.98H10.2729C10.3029 167.86 10.3429 167.6 10.3429 167.3C10.3429 165.96 9.64285 164.88 8.16285 164.88C6.94285 164.88 5.76285 165.88 5.76285 167.5ZM7.40285 166.94C7.50285 166.39 7.82285 166.18 8.20285 166.18C8.72285 166.18 8.88285 166.52 8.88285 166.94H7.40285ZM11.1471 167.5C11.1471 169.16 12.2471 170.12 13.6671 170.12C14.1871 170.12 14.8471 169.94 15.3471 169.5L14.6671 168.42C14.4471 168.58 14.1871 168.74 13.8671 168.74C13.3271 168.74 12.9071 168.26 12.9071 167.5C12.9071 166.74 13.2871 166.26 13.9271 166.26C14.1071 166.26 14.2871 166.32 14.5071 166.5L15.2871 165.44C14.9471 165.1 14.4271 164.88 13.8271 164.88C12.4071 164.88 11.1471 165.84 11.1471 167.5ZM16.2445 170H17.9645V167.22C18.2045 166.6 18.6445 166.38 19.0045 166.38C19.2245 166.38 19.3845 166.42 19.5645 166.46L19.8445 164.98C19.7045 164.92 19.5345 164.88 19.2245 164.88C18.7345 164.88 18.1745 165.18 17.8045 165.86H17.7645L17.6445 165H16.2445V170ZM20.1871 167.5C20.1871 169.16 21.3071 170.12 22.7671 170.12C23.3271 170.12 24.0471 169.92 24.5871 169.54L24.0271 168.52C23.6671 168.72 23.3471 168.82 23.0071 168.82C22.4471 168.82 22.0071 168.62 21.8471 167.98H24.6971C24.7271 167.86 24.7671 167.6 24.7671 167.3C24.7671 165.96 24.0671 164.88 22.5871 164.88C21.3671 164.88 20.1871 165.88 20.1871 167.5ZM21.8271 166.94C21.9271 166.39 22.2471 166.18 22.6271 166.18C23.1471 166.18 23.3071 166.52 23.3071 166.94H21.8271ZM26.0137 170.48L25.7137 171.78C25.9337 171.84 26.1337 171.88 26.4737 171.88C27.7137 171.88 28.2537 171.27 28.7737 169.92L30.4537 165H28.8137L28.3137 166.92C28.1937 167.4 28.0937 167.86 27.9937 168.34H27.9537C27.8337 167.84 27.7337 167.38 27.5937 166.92L26.9937 165H25.2737L27.1737 169.82L27.1137 170.04C27.0137 170.34 26.7937 170.54 26.3337 170.54C26.2337 170.54 26.1037 170.5 26.0137 170.48ZM33.6344 170H35.2144V168.08C35.2144 167.42 35.0744 166.41 34.9944 165.76H35.0344L35.5544 167.28L36.4544 169.47H37.0944L37.9944 167.28L38.5344 165.76H38.5744C38.4944 166.41 38.3544 167.42 38.3544 168.08V170H39.9544V163.5H38.1744L37.1944 166.2L36.8344 167.26H36.7944L36.4344 166.2L35.4144 163.5H33.6344V170ZM41.1187 167.5C41.1187 169.16 42.3187 170.12 43.5987 170.12C44.8787 170.12 46.0787 169.16 46.0787 167.5C46.0787 165.84 44.8787 164.88 43.5987 164.88C42.3187 164.88 41.1187 165.84 41.1187 167.5ZM42.8787 167.5C42.8787 166.74 43.0787 166.26 43.5987 166.26C44.1187 166.26 44.3187 166.74 44.3187 167.5C44.3187 168.26 44.1187 168.74 43.5987 168.74C43.0787 168.74 42.8787 168.26 42.8787 167.5ZM47.095 170H48.435L48.575 169.46H48.615C48.995 169.9 49.435 170.12 49.875 170.12C50.935 170.12 51.955 169.14 51.955 167.41C51.955 165.88 51.185 164.88 50.005 164.88C49.565 164.88 49.125 165.06 48.775 165.38L48.815 164.66V163.04H47.095V170ZM48.815 168.48V166.64C49.035 166.38 49.235 166.28 49.495 166.28C49.955 166.28 50.195 166.62 50.195 167.44C50.195 168.4 49.855 168.72 49.455 168.72C49.235 168.72 49.015 168.66 48.815 168.48ZM53.8764 164.38C54.4364 164.38 54.8364 164.02 54.8364 163.52C54.8364 163.02 54.4364 162.66 53.8764 162.66C53.3164 162.66 52.9164 163.02 52.9164 163.52C52.9164 164.02 53.3164 164.38 53.8764 164.38ZM53.0164 170H54.7364V165H53.0164V170ZM56.0178 168.24C56.0178 169.36 56.3978 170.12 57.5578 170.12C57.9378 170.12 58.2178 170.06 58.3978 169.98L58.1978 168.72C58.1178 168.74 58.0778 168.74 58.0178 168.74C57.8978 168.74 57.7378 168.64 57.7378 168.3V163.04H56.0178V168.24ZM58.8569 167.5C58.8569 169.16 59.9769 170.12 61.4369 170.12C61.9969 170.12 62.7169 169.92 63.2569 169.54L62.6969 168.52C62.3369 168.72 62.0169 168.82 61.6769 168.82C61.1169 168.82 60.6769 168.62 60.5169 167.98H63.3669C63.3969 167.86 63.4369 167.6 63.4369 167.3C63.4369 165.96 62.7369 164.88 61.2569 164.88C60.0369 164.88 58.8569 165.88 58.8569 167.5ZM60.4969 166.94C60.5969 166.39 60.9169 166.18 61.2969 166.18C61.8169 166.18 61.9769 166.52 61.9769 166.94H60.4969Z" fill="white"/>
<path opacity="0.30144" d="M18.68 281.86C18.68 284.08 19.56 285.12 21.38 285.12C23.2 285.12 24.04 284.08 24.04 281.86V278.5H22.38V282.06C22.38 283.22 22.06 283.64 21.38 283.64C20.7 283.64 20.4 283.22 20.4 282.06V278.5H18.68V281.86ZM24.9217 284.42C25.4417 284.84 26.2217 285.12 26.8617 285.12C28.2617 285.12 29.0017 284.4 29.0017 283.46C29.0017 282.56 28.3217 282.18 27.7217 281.96C27.2217 281.78 26.7817 281.68 26.7817 281.42C26.7817 281.22 26.9317 281.14 27.2217 281.14C27.5317 281.14 27.8817 281.3 28.2417 281.56L29.0017 280.54C28.5617 280.21 27.9817 279.88 27.1617 279.88C25.9817 279.88 25.1817 280.52 25.1817 281.5C25.1817 282.32 25.8617 282.75 26.4417 282.98C26.9417 283.18 27.4017 283.3 27.4017 283.56C27.4017 283.76 27.2617 283.86 26.9017 283.86C26.5517 283.86 26.1417 283.7 25.6817 283.36L24.9217 284.42ZM29.7038 282.5C29.7038 284.16 30.8238 285.12 32.2838 285.12C32.8438 285.12 33.5638 284.92 34.1038 284.54L33.5438 283.52C33.1838 283.72 32.8638 283.82 32.5238 283.82C31.9638 283.82 31.5238 283.62 31.3638 282.98H34.2138C34.2438 282.86 34.2838 282.6 34.2838 282.3C34.2838 280.96 33.5838 279.88 32.1038 279.88C30.8838 279.88 29.7038 280.88 29.7038 282.5ZM31.3438 281.94C31.4438 281.39 31.7638 281.18 32.1438 281.18C32.6638 281.18 32.8238 281.52 32.8238 281.94H31.3438ZM35.348 285H37.068V282.22C37.308 281.6 37.748 281.38 38.108 281.38C38.328 281.38 38.488 281.42 38.668 281.46L38.948 279.98C38.808 279.92 38.638 279.88 38.328 279.88C37.838 279.88 37.278 280.18 36.908 280.86H36.868L36.748 280H35.348V285Z" fill="white"/>
<path opacity="0.30144" d="M142.32 170H147.12V168.56H144.44L147.1 164.54V163.5H142.58V164.94H144.98L142.32 168.96V170ZM147.763 167.5C147.763 169.16 148.883 170.12 150.343 170.12C150.903 170.12 151.623 169.92 152.163 169.54L151.603 168.52C151.243 168.72 150.923 168.82 150.583 168.82C150.023 168.82 149.583 168.62 149.423 167.98H152.273C152.303 167.86 152.343 167.6 152.343 167.3C152.343 165.96 151.643 164.88 150.163 164.88C148.943 164.88 147.763 165.88 147.763 167.5ZM149.403 166.94C149.503 166.39 149.823 166.18 150.203 166.18C150.723 166.18 150.883 166.52 150.883 166.94H149.403ZM153.147 167.5C153.147 169.16 154.247 170.12 155.667 170.12C156.187 170.12 156.847 169.94 157.347 169.5L156.667 168.42C156.447 168.58 156.187 168.74 155.867 168.74C155.327 168.74 154.907 168.26 154.907 167.5C154.907 166.74 155.287 166.26 155.927 166.26C156.107 166.26 156.287 166.32 156.507 166.5L157.287 165.44C156.947 165.1 156.427 164.88 155.827 164.88C154.407 164.88 153.147 165.84 153.147 167.5ZM158.244 170H159.964V167.22C160.204 166.6 160.644 166.38 161.004 166.38C161.224 166.38 161.384 166.42 161.564 166.46L161.844 164.98C161.704 164.92 161.534 164.88 161.224 164.88C160.734 164.88 160.174 165.18 159.804 165.86H159.764L159.644 165H158.244V170ZM162.187 167.5C162.187 169.16 163.307 170.12 164.767 170.12C165.327 170.12 166.047 169.92 166.587 169.54L166.027 168.52C165.667 168.72 165.347 168.82 165.007 168.82C164.447 168.82 164.007 168.62 163.847 167.98H166.697C166.727 167.86 166.767 167.6 166.767 167.3C166.767 165.96 166.067 164.88 164.587 164.88C163.367 164.88 162.187 165.88 162.187 167.5ZM163.827 166.94C163.927 166.39 164.247 166.18 164.627 166.18C165.147 166.18 165.307 166.52 165.307 166.94H163.827ZM168.014 170.48L167.714 171.78C167.934 171.84 168.134 171.88 168.474 171.88C169.714 171.88 170.254 171.27 170.774 169.92L172.454 165H170.814L170.314 166.92C170.194 167.4 170.094 167.86 169.994 168.34H169.954C169.834 167.84 169.734 167.38 169.594 166.92L168.994 165H167.274L169.174 169.82L169.114 170.04C169.014 170.34 168.794 170.54 168.334 170.54C168.234 170.54 168.104 170.5 168.014 170.48ZM176.154 170H178.294L178.774 167.42C178.874 166.92 178.944 166.38 179.014 165.9H179.054C179.114 166.38 179.194 166.92 179.294 167.42L179.794 170H181.974L183.054 163.5H181.414L181.054 166.34C180.984 167 180.904 167.69 180.834 168.38H180.794C180.674 167.69 180.554 166.99 180.434 166.34L179.814 163.5H178.374L177.754 166.34C177.634 167.01 177.514 167.7 177.394 168.38H177.354C177.284 167.7 177.204 167.02 177.134 166.34L176.774 163.5H175.014L176.154 170ZM183.597 167.5C183.597 169.16 184.717 170.12 186.177 170.12C186.737 170.12 187.457 169.92 187.997 169.54L187.437 168.52C187.077 168.72 186.757 168.82 186.417 168.82C185.857 168.82 185.417 168.62 185.257 167.98H188.107C188.137 167.86 188.177 167.6 188.177 167.3C188.177 165.96 187.477 164.88 185.997 164.88C184.777 164.88 183.597 165.88 183.597 167.5ZM185.237 166.94C185.337 166.39 185.657 166.18 186.037 166.18C186.557 166.18 186.717 166.52 186.717 166.94H185.237ZM189.241 170H190.581L190.721 169.46H190.761C191.141 169.9 191.581 170.12 192.021 170.12C193.081 170.12 194.101 169.14 194.101 167.41C194.101 165.88 193.331 164.88 192.151 164.88C191.711 164.88 191.271 165.06 190.921 165.38L190.961 164.66V163.04H189.241V170ZM190.961 168.48V166.64C191.181 166.38 191.381 166.28 191.641 166.28C192.101 166.28 192.341 166.62 192.341 167.44C192.341 168.4 192.001 168.72 191.601 168.72C191.381 168.72 191.161 168.66 190.961 168.48ZM199.093 167.29L199.203 166.84C199.363 166.22 199.523 165.44 199.663 164.78H199.703C199.863 165.43 200.023 166.22 200.183 166.84L200.293 167.29H199.093ZM200.923 170H202.743L200.763 163.5H198.683L196.703 170H198.463L198.783 168.62H200.603L200.923 170ZM205.003 169.62C205.323 169.94 205.703 170.12 206.123 170.12C207.183 170.12 208.203 169.14 208.203 167.42C208.203 165.88 207.443 164.88 206.263 164.88C205.763 164.88 205.273 165.12 204.903 165.46H204.863L204.743 165H203.343V171.76H205.063V170.38L205.003 169.62ZM205.063 168.48V166.64C205.283 166.38 205.483 166.28 205.743 166.28C206.203 166.28 206.443 166.62 206.443 167.44C206.443 168.4 206.103 168.72 205.703 168.72C205.483 168.72 205.263 168.66 205.063 168.48ZM210.925 169.62C211.245 169.94 211.625 170.12 212.045 170.12C213.105 170.12 214.125 169.14 214.125 167.42C214.125 165.88 213.365 164.88 212.185 164.88C211.685 164.88 211.195 165.12 210.825 165.46H210.785L210.665 165H209.265V171.76H210.985V170.38L210.925 169.62ZM210.985 168.48V166.64C211.205 166.38 211.405 166.28 211.665 166.28C212.125 166.28 212.365 166.62 212.365 167.44C212.365 168.4 212.025 168.72 211.625 168.72C211.405 168.72 211.185 168.66 210.985 168.48Z" fill="white"/>
<path opacity="0.30144" d="M157.44 281.8C157.44 284.02 158.88 285.12 160.58 285.12C161.38 285.12 162.13 284.8 162.68 284.16L161.74 283.12C161.46 283.42 161.1 283.64 160.6 283.64C159.76 283.64 159.2 282.96 159.2 281.74C159.2 280.56 159.86 279.86 160.64 279.86C161.06 279.86 161.34 280.02 161.66 280.3L162.6 279.24C162.14 278.78 161.44 278.38 160.62 278.38C158.94 278.38 157.44 279.62 157.44 281.8ZM163.56 285H165.28V282.22C165.52 281.6 165.96 281.38 166.32 281.38C166.54 281.38 166.7 281.42 166.88 281.46L167.16 279.98C167.02 279.92 166.85 279.88 166.54 279.88C166.05 279.88 165.49 280.18 165.12 280.86H165.08L164.96 280H163.56V285ZM167.503 282.5C167.503 284.16 168.623 285.12 170.083 285.12C170.643 285.12 171.363 284.92 171.903 284.54L171.343 283.52C170.983 283.72 170.663 283.82 170.323 283.82C169.763 283.82 169.323 283.62 169.163 282.98H172.013C172.043 282.86 172.083 282.6 172.083 282.3C172.083 280.96 171.383 279.88 169.903 279.88C168.683 279.88 167.503 280.88 167.503 282.5ZM169.143 281.94C169.243 281.39 169.563 281.18 169.943 281.18C170.463 281.18 170.623 281.52 170.623 281.94H169.143ZM172.889 283.58C172.889 284.4 173.449 285.12 174.389 285.12C174.929 285.12 175.369 284.88 175.769 284.52H175.809L175.929 285H177.329V282.22C177.329 280.58 176.549 279.88 175.249 279.88C174.469 279.88 173.749 280.12 173.049 280.54L173.649 281.66C174.169 281.38 174.549 281.24 174.909 281.24C175.349 281.24 175.569 281.4 175.609 281.76C173.689 281.96 172.889 282.54 172.889 283.58ZM174.529 283.44C174.529 283.16 174.789 282.9 175.609 282.78V283.46C175.429 283.66 175.269 283.8 174.989 283.8C174.689 283.8 174.529 283.67 174.529 283.44ZM178.81 283.08C178.81 284.3 179.35 285.12 180.65 285.12C181.2 285.12 181.57 285.02 181.83 284.94L181.57 283.7C181.45 283.74 181.29 283.78 181.13 283.78C180.81 283.78 180.53 283.6 180.53 283.05V281.34H181.67V280H180.53V278.7H179.11L178.91 280L178.15 280.06V281.34H178.81V283.08ZM182.357 282.5C182.357 284.16 183.557 285.12 184.837 285.12C186.117 285.12 187.317 284.16 187.317 282.5C187.317 280.84 186.117 279.88 184.837 279.88C183.557 279.88 182.357 280.84 182.357 282.5ZM184.117 282.5C184.117 281.74 184.317 281.26 184.837 281.26C185.357 281.26 185.557 281.74 185.557 282.5C185.557 283.26 185.357 283.74 184.837 283.74C184.317 283.74 184.117 283.26 184.117 282.5ZM188.333 285H190.053V282.22C190.293 281.6 190.733 281.38 191.093 281.38C191.313 281.38 191.473 281.42 191.653 281.46L191.933 279.98C191.793 279.92 191.623 279.88 191.313 279.88C190.823 279.88 190.263 280.18 189.893 280.86H189.853L189.733 280H188.333V285Z" fill="white"/>
<path opacity="0.2" d="M101.5 84.5V68.5" stroke="white" stroke-linecap="round" stroke-dasharray="4"/>
<path opacity="0.2" d="M101.5 209.5V197.5" stroke="white" stroke-linecap="round" stroke-dasharray="4"/>
<circle cx="177" cy="130" r="25" fill="black" fill-opacity="0.2"/>
<mask id="mask5_3301_187" style="mask-type:alpha" maskUnits="userSpaceOnUse" x="165" y="119" width="24" height="22">
<path fill-rule="evenodd" clip-rule="evenodd" d="M165.125 119.375H188.875V140.625H165.125V119.375Z" fill="white"/>
</mask>
<g mask="url(#mask5_3301_187)">
<path fill-rule="evenodd" clip-rule="evenodd" d="M178.218 138.605C177.807 138.595 177.396 138.602 176.984 138.602C176.581 138.602 176.179 138.594 175.777 138.605C175.596 138.61 175.555 138.542 175.587 138.377C175.687 137.871 175.78 137.365 175.874 136.858C175.902 136.71 175.978 136.643 176.138 136.644C176.713 136.651 177.29 136.651 177.866 136.644C178.028 136.643 178.098 136.717 178.125 136.863C178.219 137.369 178.312 137.875 178.412 138.38C178.446 138.552 178.393 138.609 178.218 138.605ZM167.135 128.374C167.135 126.367 167.135 124.358 167.136 122.35C167.136 122.231 167.136 122.11 167.157 121.993C167.22 121.638 167.374 121.482 167.728 121.421C167.862 121.398 168.001 121.398 168.138 121.398C174.047 121.398 179.956 121.398 185.865 121.398C185.919 121.398 185.974 121.397 186.029 121.398C186.629 121.407 186.862 121.634 186.863 122.238C186.867 124.006 186.865 125.773 186.865 127.54V128.374H186.866V131.532C186.831 131.53 186.793 131.53 186.749 131.53H167.313C167.251 131.53 167.189 131.533 167.127 131.533V128.374H167.135ZM188.875 122.158C188.875 121.889 188.847 121.624 188.773 121.366C188.424 120.139 187.418 119.379 186.121 119.377C183.084 119.373 180.046 119.376 177.008 119.375C173.998 119.375 170.988 119.375 167.978 119.376C166.251 119.377 165.126 120.51 165.126 122.251C165.125 126.09 165.125 129.93 165.126 133.77C165.126 135.511 166.25 136.645 167.976 136.646C169.825 136.647 171.673 136.646 173.521 136.646C173.841 136.646 173.843 136.651 173.781 136.973C173.695 137.415 173.604 137.857 173.532 138.301C173.496 138.521 173.41 138.613 173.175 138.607C172.59 138.592 172.004 138.592 171.419 138.607C170.814 138.622 170.4 139.045 170.4 139.614C170.401 140.183 170.815 140.593 171.42 140.622C171.465 140.624 171.511 140.624 171.557 140.624C175.18 140.624 178.803 140.624 182.426 140.625C182.592 140.625 182.755 140.612 182.914 140.564C183.226 140.469 183.437 140.264 183.537 139.955C183.763 139.25 183.323 138.628 182.571 138.607C181.976 138.59 181.381 138.595 180.787 138.606C180.59 138.609 180.508 138.531 180.475 138.346C180.392 137.874 180.307 137.404 180.206 136.936C180.155 136.7 180.226 136.64 180.462 136.641C182.346 136.65 184.231 136.65 186.116 136.645C187.716 136.64 188.871 135.48 188.873 133.87C188.877 129.965 188.874 126.061 188.875 122.158Z" fill="#2AD4D9"/>
</g>
<circle cx="33" cy="130" r="25" fill="black" fill-opacity="0.2"/>
<mask id="mask6_3301_187" style="mask-type:alpha" maskUnits="userSpaceOnUse" x="24" y="117" width="18" height="26">
<path fill-rule="evenodd" clip-rule="evenodd" d="M24.25 117.5H41.125V142.5H24.25V117.5Z" fill="white"/>
</mask>
<g mask="url(#mask6_3301_187)">
<path fill-rule="evenodd" clip-rule="evenodd" d="M38.7902 130.007C38.7902 127.018 38.7903 124.029 38.7898 121.039C38.7898 120.909 38.7951 120.778 38.7785 120.65C38.7146 120.154 38.5064 119.948 38.0183 119.889C37.9342 119.878 37.8486 119.88 37.7636 119.88C34.3843 119.88 31.0051 119.88 27.6258 119.881C27.5094 119.881 27.3911 119.883 27.277 119.904C26.8655 119.979 26.6846 120.16 26.6123 120.578C26.5868 120.725 26.5861 120.879 26.586 121.03C26.5849 127.009 26.5848 132.988 26.5863 138.966C26.5863 139.128 26.5953 139.291 26.6176 139.451C26.6688 139.816 26.8721 140.038 27.2381 140.085C27.3849 140.104 27.5335 140.118 27.6813 140.118C29.5197 140.12 31.3582 140.12 33.1965 140.119C34.7374 140.119 36.2783 140.122 37.8192 140.118C38.5265 140.116 38.7787 139.854 38.7897 139.138C38.7913 139.04 38.7902 138.943 38.7902 138.845C38.7902 135.899 38.7902 132.953 38.7902 130.007ZM24.2508 129.986C24.2508 126.953 24.2498 123.92 24.2511 120.888C24.252 118.839 25.5574 117.502 27.5598 117.501C30.9818 117.5 34.4038 117.499 37.8258 117.501C39.8099 117.502 41.1235 118.842 41.1239 120.866C41.1253 126.964 41.1255 133.062 41.1239 139.161C41.1233 141.143 39.8019 142.496 37.8633 142.498C34.4094 142.501 30.9555 142.501 27.5016 142.498C25.581 142.496 24.2538 141.141 24.2517 139.183C24.2485 136.117 24.2508 133.052 24.2508 129.986Z" fill="#2AD4D9"/>
</g>
<path fill-rule="evenodd" clip-rule="evenodd" d="M32.6974 119.5C33.1854 119.501 33.6735 119.495 34.1614 119.502C34.6914 119.511 35.0039 119.818 34.9984 120.31C34.9929 120.798 34.6985 121.091 34.1792 121.095C33.1819 121.103 32.1846 121.103 31.1873 121.095C30.6872 121.091 30.3756 120.77 30.377 120.294C30.3783 119.826 30.6994 119.518 31.2015 119.501C31.2227 119.5 31.2439 119.5 31.2651 119.5C31.7425 119.5 32.2199 119.5 32.6974 119.5Z" fill="#2AD4D9"/>
</svg>
