<svg width="270" height="300" viewBox="0 0 270 300" fill="none" xmlns="http://www.w3.org/2000/svg">
<circle opacity="0.2" cx="189.5" cy="200.5" r="92" stroke="white"/>
<circle opacity="0.1" cx="189.5" cy="200.5" r="150" stroke="white"/>
<circle opacity="0.05" cx="190" cy="201" r="200" stroke="white"/>
<rect x="149.5" y="160.5" width="80" height="80" rx="20" fill="#F0BB10"/>
<path fill-rule="evenodd" clip-rule="evenodd" d="M204.728 179.647L189.419 170.5L174.245 179.647L179.809 183.095L189.581 177.228L199.163 183.095L204.728 179.647ZM170.065 182.038L175.792 185.486L170.065 188.934V195.662L164.5 192.215V185.486L170.065 182.038ZM204.728 191.353L199.001 187.905L189.419 193.744L179.837 187.877L174.109 191.325V198.053L184.044 203.92V215.653L189.581 219.101L195.146 215.653V203.948L204.728 198.081V191.353ZM170.065 200.5L164.5 197.052V215.486L179.647 224.633V217.905L170.065 212.038V200.5ZM195.146 227.052V220.324L189.419 223.772L183.854 220.324V227.052L189.419 230.5L195.146 227.052ZM214.337 197.052V215.514L199.028 224.661V217.933L208.61 212.066V200.528L214.337 197.052ZM174.109 202.891L179.674 206.339V213.067L174.109 209.62V202.891ZM204.728 209.62V202.891L199.163 206.339V213.067L204.728 209.62ZM214.5 185.486L208.773 182.038L203.208 185.486L208.773 188.934V195.662L214.5 192.215V185.486ZM189.419 182.038L195.146 185.486L189.419 188.934L183.854 185.486L189.419 182.038Z" fill="white"/>
</svg>
