<svg width="250" height="206" viewBox="0 0 250 206" fill="none" xmlns="http://www.w3.org/2000/svg">
<rect y="20" width="50" height="50" rx="12.5" fill="white" fill-opacity="0.02"/>
<rect x="1.5" y="21.5" width="47" height="47" rx="11" stroke="white" stroke-opacity="0.1" stroke-width="3"/>
<path opacity="0.1" fill-rule="evenodd" clip-rule="evenodd" d="M28.8243 46.8191L34.7831 43.3787C35.7693 42.8093 35.764 41.3938 34.7737 40.8508L16.6618 30.9213C15.37 30.2131 13.9442 31.6552 14.6786 32.9272L21.1759 44.1809L15.217 47.6213C14.2308 48.1907 14.2362 49.6062 15.2265 50.1491L33.3384 60.0787C34.6301 60.7869 36.056 59.3447 35.3216 58.0728L28.8243 46.8191Z" fill="white"/>
<path opacity="0.1" fill-rule="evenodd" clip-rule="evenodd" d="M280.507 -19.452C280.555 -18.0333 280.196 -16.4366 279.706 -14.8573C262.944 39.1856 246.181 93.2285 229.427 147.274C224.379 163.557 219.362 179.85 214.312 196.133C213.318 199.338 211.763 202.208 208.853 204.091C204.772 206.729 199.97 206.615 196.167 203.863C191.85 200.738 190.395 196.418 192.084 190.744C194.78 181.689 197.639 172.684 200.435 163.66C219.493 102.153 238.549 40.6451 257.613 -20.8608C258.837 -24.8128 260.787 -28.2075 264.798 -29.9815C272.421 -33.3527 280.651 -27.974 280.507 -19.452Z" fill="white"/>
<path opacity="0.1" fill-rule="evenodd" clip-rule="evenodd" d="M169.644 144.531C169.595 151.142 161.105 156.619 153.888 153.277C152.329 152.555 150.801 151.575 149.55 150.403C130.614 132.634 111.724 114.816 92.8323 97.0005C91.5639 95.8055 90.301 94.5901 89.4805 93.0095C86.8622 87.9613 87.713 83.1467 92.063 79.055C111.277 60.984 130.5 42.9217 149.744 24.8829C156.848 18.2233 166.665 20.2734 169.209 28.9079C170.383 32.8915 169.464 36.4697 166.704 39.4875C161.572 45.1017 155.729 49.9812 150.197 55.1801C139.501 65.2283 128.738 75.203 117.944 85.1456C116.371 86.5939 116.285 87.5417 117.886 89.0605C133.372 103.756 148.799 118.514 164.236 133.26C167.091 135.988 169.759 138.833 169.644 144.531Z" fill="white"/>
</svg>
