<svg width="218" height="243" viewBox="0 0 218 243" fill="none" xmlns="http://www.w3.org/2000/svg">
<path opacity="0.30144" d="M3.32 241H8.12V239.56H5.44L8.1 235.54V234.5H3.58V235.94H5.98L3.32 239.96V241ZM8.76285 238.5C8.76285 240.16 9.88285 241.12 11.3429 241.12C11.9029 241.12 12.6229 240.92 13.1629 240.54L12.6029 239.52C12.2429 239.72 11.9229 239.82 11.5829 239.82C11.0229 239.82 10.5829 239.62 10.4229 238.98H13.2729C13.3029 238.86 13.3429 238.6 13.3429 238.3C13.3429 236.96 12.6429 235.88 11.1629 235.88C9.94285 235.88 8.76285 236.88 8.76285 238.5ZM10.4029 237.94C10.5029 237.39 10.8229 237.18 11.2029 237.18C11.7229 237.18 11.8829 237.52 11.8829 237.94H10.4029ZM14.1471 238.5C14.1471 240.16 15.2471 241.12 16.6671 241.12C17.1871 241.12 17.8471 240.94 18.3471 240.5L17.6671 239.42C17.4471 239.58 17.1871 239.74 16.8671 239.74C16.3271 239.74 15.9071 239.26 15.9071 238.5C15.9071 237.74 16.2871 237.26 16.9271 237.26C17.1071 237.26 17.2871 237.32 17.5071 237.5L18.2871 236.44C17.9471 236.1 17.4271 235.88 16.8271 235.88C15.4071 235.88 14.1471 236.84 14.1471 238.5ZM19.2445 241H20.9645V238.22C21.2045 237.6 21.6445 237.38 22.0045 237.38C22.2245 237.38 22.3845 237.42 22.5645 237.46L22.8445 235.98C22.7045 235.92 22.5345 235.88 22.2245 235.88C21.7345 235.88 21.1745 236.18 20.8045 236.86H20.7645L20.6445 236H19.2445V241ZM23.1871 238.5C23.1871 240.16 24.3071 241.12 25.7671 241.12C26.3271 241.12 27.0471 240.92 27.5871 240.54L27.0271 239.52C26.6671 239.72 26.3471 239.82 26.0071 239.82C25.4471 239.82 25.0071 239.62 24.8471 238.98H27.6971C27.7271 238.86 27.7671 238.6 27.7671 238.3C27.7671 236.96 27.0671 235.88 25.5871 235.88C24.3671 235.88 23.1871 236.88 23.1871 238.5ZM24.8271 237.94C24.9271 237.39 25.2471 237.18 25.6271 237.18C26.1471 237.18 26.3071 237.52 26.3071 237.94H24.8271ZM29.0137 241.48L28.7137 242.78C28.9337 242.84 29.1337 242.88 29.4737 242.88C30.7137 242.88 31.2537 242.27 31.7737 240.92L33.4537 236H31.8137L31.3137 237.92C31.1937 238.4 31.0937 238.86 30.9937 239.34H30.9537C30.8337 238.84 30.7337 238.38 30.5937 237.92L29.9937 236H28.2737L30.1737 240.82L30.1137 241.04C30.0137 241.34 29.7937 241.54 29.3337 241.54C29.2337 241.54 29.1037 241.5 29.0137 241.48ZM36.6344 241H38.2144V239.08C38.2144 238.42 38.0744 237.41 37.9944 236.76H38.0344L38.5544 238.28L39.4544 240.47H40.0944L40.9944 238.28L41.5344 236.76H41.5744C41.4944 237.41 41.3544 238.42 41.3544 239.08V241H42.9544V234.5H41.1744L40.1944 237.2L39.8344 238.26H39.7944L39.4344 237.2L38.4144 234.5H36.6344V241ZM44.1187 238.5C44.1187 240.16 45.3187 241.12 46.5987 241.12C47.8787 241.12 49.0787 240.16 49.0787 238.5C49.0787 236.84 47.8787 235.88 46.5987 235.88C45.3187 235.88 44.1187 236.84 44.1187 238.5ZM45.8787 238.5C45.8787 237.74 46.0787 237.26 46.5987 237.26C47.1187 237.26 47.3187 237.74 47.3187 238.5C47.3187 239.26 47.1187 239.74 46.5987 239.74C46.0787 239.74 45.8787 239.26 45.8787 238.5ZM50.095 241H51.435L51.575 240.46H51.615C51.995 240.9 52.435 241.12 52.875 241.12C53.935 241.12 54.955 240.14 54.955 238.41C54.955 236.88 54.185 235.88 53.005 235.88C52.565 235.88 52.125 236.06 51.775 236.38L51.815 235.66V234.04H50.095V241ZM51.815 239.48V237.64C52.035 237.38 52.235 237.28 52.495 237.28C52.955 237.28 53.195 237.62 53.195 238.44C53.195 239.4 52.855 239.72 52.455 239.72C52.235 239.72 52.015 239.66 51.815 239.48ZM56.8764 235.38C57.4364 235.38 57.8364 235.02 57.8364 234.52C57.8364 234.02 57.4364 233.66 56.8764 233.66C56.3164 233.66 55.9164 234.02 55.9164 234.52C55.9164 235.02 56.3164 235.38 56.8764 235.38ZM56.0164 241H57.7364V236H56.0164V241ZM59.0178 239.24C59.0178 240.36 59.3978 241.12 60.5578 241.12C60.9378 241.12 61.2178 241.06 61.3978 240.98L61.1978 239.72C61.1178 239.74 61.0778 239.74 61.0178 239.74C60.8978 239.74 60.7378 239.64 60.7378 239.3V234.04H59.0178V239.24ZM61.8569 238.5C61.8569 240.16 62.9769 241.12 64.4369 241.12C64.9969 241.12 65.7169 240.92 66.2569 240.54L65.6969 239.52C65.3369 239.72 65.0169 239.82 64.6769 239.82C64.1169 239.82 63.6769 239.62 63.5169 238.98H66.3669C66.3969 238.86 66.4369 238.6 66.4369 238.3C66.4369 236.96 65.7369 235.88 64.2569 235.88C63.0369 235.88 61.8569 236.88 61.8569 238.5ZM63.4969 237.94C63.5969 237.39 63.9169 237.18 64.2969 237.18C64.8169 237.18 64.9769 237.52 64.9769 237.94H63.4969Z" fill="white"/>
<path opacity="0.30144" d="M145.32 241H150.12V239.56H147.44L150.1 235.54V234.5H145.58V235.94H147.98L145.32 239.96V241ZM150.763 238.5C150.763 240.16 151.883 241.12 153.343 241.12C153.903 241.12 154.623 240.92 155.163 240.54L154.603 239.52C154.243 239.72 153.923 239.82 153.583 239.82C153.023 239.82 152.583 239.62 152.423 238.98H155.273C155.303 238.86 155.343 238.6 155.343 238.3C155.343 236.96 154.643 235.88 153.163 235.88C151.943 235.88 150.763 236.88 150.763 238.5ZM152.403 237.94C152.503 237.39 152.823 237.18 153.203 237.18C153.723 237.18 153.883 237.52 153.883 237.94H152.403ZM156.147 238.5C156.147 240.16 157.247 241.12 158.667 241.12C159.187 241.12 159.847 240.94 160.347 240.5L159.667 239.42C159.447 239.58 159.187 239.74 158.867 239.74C158.327 239.74 157.907 239.26 157.907 238.5C157.907 237.74 158.287 237.26 158.927 237.26C159.107 237.26 159.287 237.32 159.507 237.5L160.287 236.44C159.947 236.1 159.427 235.88 158.827 235.88C157.407 235.88 156.147 236.84 156.147 238.5ZM161.244 241H162.964V238.22C163.204 237.6 163.644 237.38 164.004 237.38C164.224 237.38 164.384 237.42 164.564 237.46L164.844 235.98C164.704 235.92 164.534 235.88 164.224 235.88C163.734 235.88 163.174 236.18 162.804 236.86H162.764L162.644 236H161.244V241ZM165.187 238.5C165.187 240.16 166.307 241.12 167.767 241.12C168.327 241.12 169.047 240.92 169.587 240.54L169.027 239.52C168.667 239.72 168.347 239.82 168.007 239.82C167.447 239.82 167.007 239.62 166.847 238.98H169.697C169.727 238.86 169.767 238.6 169.767 238.3C169.767 236.96 169.067 235.88 167.587 235.88C166.367 235.88 165.187 236.88 165.187 238.5ZM166.827 237.94C166.927 237.39 167.247 237.18 167.627 237.18C168.147 237.18 168.307 237.52 168.307 237.94H166.827ZM171.014 241.48L170.714 242.78C170.934 242.84 171.134 242.88 171.474 242.88C172.714 242.88 173.254 242.27 173.774 240.92L175.454 236H173.814L173.314 237.92C173.194 238.4 173.094 238.86 172.994 239.34H172.954C172.834 238.84 172.734 238.38 172.594 237.92L171.994 236H170.274L172.174 240.82L172.114 241.04C172.014 241.34 171.794 241.54 171.334 241.54C171.234 241.54 171.104 241.5 171.014 241.48ZM179.154 241H181.294L181.774 238.42C181.874 237.92 181.944 237.38 182.014 236.9H182.054C182.114 237.38 182.194 237.92 182.294 238.42L182.794 241H184.974L186.054 234.5H184.414L184.054 237.34C183.984 238 183.904 238.69 183.834 239.38H183.794C183.674 238.69 183.554 237.99 183.434 237.34L182.814 234.5H181.374L180.754 237.34C180.634 238.01 180.514 238.7 180.394 239.38H180.354C180.284 238.7 180.204 238.02 180.134 237.34L179.774 234.5H178.014L179.154 241ZM186.597 238.5C186.597 240.16 187.717 241.12 189.177 241.12C189.737 241.12 190.457 240.92 190.997 240.54L190.437 239.52C190.077 239.72 189.757 239.82 189.417 239.82C188.857 239.82 188.417 239.62 188.257 238.98H191.107C191.137 238.86 191.177 238.6 191.177 238.3C191.177 236.96 190.477 235.88 188.997 235.88C187.777 235.88 186.597 236.88 186.597 238.5ZM188.237 237.94C188.337 237.39 188.657 237.18 189.037 237.18C189.557 237.18 189.717 237.52 189.717 237.94H188.237ZM192.241 241H193.581L193.721 240.46H193.761C194.141 240.9 194.581 241.12 195.021 241.12C196.081 241.12 197.101 240.14 197.101 238.41C197.101 236.88 196.331 235.88 195.151 235.88C194.711 235.88 194.271 236.06 193.921 236.38L193.961 235.66V234.04H192.241V241ZM193.961 239.48V237.64C194.181 237.38 194.381 237.28 194.641 237.28C195.101 237.28 195.341 237.62 195.341 238.44C195.341 239.4 195.001 239.72 194.601 239.72C194.381 239.72 194.161 239.66 193.961 239.48ZM202.093 238.29L202.203 237.84C202.363 237.22 202.523 236.44 202.663 235.78H202.703C202.863 236.43 203.023 237.22 203.183 237.84L203.293 238.29H202.093ZM203.923 241H205.743L203.763 234.5H201.683L199.703 241H201.463L201.783 239.62H203.603L203.923 241ZM208.003 240.62C208.323 240.94 208.703 241.12 209.123 241.12C210.183 241.12 211.203 240.14 211.203 238.42C211.203 236.88 210.443 235.88 209.263 235.88C208.763 235.88 208.273 236.12 207.903 236.46H207.863L207.743 236H206.343V242.76H208.063V241.38L208.003 240.62ZM208.063 239.48V237.64C208.283 237.38 208.483 237.28 208.743 237.28C209.203 237.28 209.443 237.62 209.443 238.44C209.443 239.4 209.103 239.72 208.703 239.72C208.483 239.72 208.263 239.66 208.063 239.48ZM213.925 240.62C214.245 240.94 214.625 241.12 215.045 241.12C216.105 241.12 217.125 240.14 217.125 238.42C217.125 236.88 216.365 235.88 215.185 235.88C214.685 235.88 214.195 236.12 213.825 236.46H213.785L213.665 236H212.265V242.76H213.985V241.38L213.925 240.62ZM213.985 239.48V237.64C214.205 237.38 214.405 237.28 214.665 237.28C215.125 237.28 215.365 237.62 215.365 238.44C215.365 239.4 215.025 239.72 214.625 239.72C214.405 239.72 214.185 239.66 213.985 239.48Z" fill="white"/>
<path opacity="0.2" d="M104.5 117.5V85.5" stroke="white" stroke-linecap="round" stroke-dasharray="4"/>
<circle cx="177" cy="194" r="32" fill="black" fill-opacity="0.2"/>
<mask id="mask0_3301_187" style="mask-type:alpha" maskUnits="userSpaceOnUse" x="161" y="180" width="32" height="28">
<path fill-rule="evenodd" clip-rule="evenodd" d="M161.8 180.4H192.2V207.6H161.8V180.4Z" fill="white"/>
</mask>
<g mask="url(#mask0_3301_187)">
<path fill-rule="evenodd" clip-rule="evenodd" d="M178.56 205.014C178.033 205.002 177.507 205.011 176.98 205.011C176.464 205.011 175.949 205.001 175.435 205.015C175.203 205.02 175.15 204.934 175.192 204.722C175.319 204.075 175.439 203.427 175.559 202.779C175.594 202.589 175.692 202.502 175.896 202.505C176.633 202.513 177.371 202.514 178.108 202.505C178.316 202.502 178.405 202.597 178.44 202.785C178.561 203.432 178.679 204.08 178.807 204.726C178.851 204.946 178.783 205.02 178.56 205.014ZM164.373 191.919C164.373 189.349 164.373 186.778 164.374 184.208C164.374 184.056 164.374 183.901 164.401 183.751C164.481 183.296 164.679 183.096 165.132 183.018C165.304 182.989 165.482 182.99 165.656 182.99C173.22 182.989 180.784 182.989 188.347 182.989C188.417 182.989 188.487 182.989 188.557 182.989C189.325 183.001 189.624 183.292 189.625 184.065C189.629 186.327 189.627 188.589 189.627 190.852V191.919H189.628V195.96C189.584 195.959 189.535 195.958 189.479 195.958H164.6C164.521 195.958 164.442 195.963 164.362 195.963V191.919H164.373ZM192.2 183.962C192.2 183.617 192.164 183.279 192.07 182.949C191.622 181.378 190.335 180.405 188.675 180.403C184.787 180.398 180.899 180.401 177.01 180.401C173.158 180.401 169.305 180.4 165.452 180.401C163.242 180.402 161.802 181.853 161.801 184.081C161.8 188.996 161.8 193.91 161.801 198.825C161.802 201.054 163.24 202.505 165.45 202.507C167.816 202.509 170.181 202.507 172.546 202.507C172.957 202.507 172.96 202.514 172.88 202.925C172.77 203.492 172.653 204.057 172.561 204.626C172.515 204.907 172.404 205.025 172.104 205.017C171.355 204.998 170.605 204.998 169.856 205.017C169.082 205.037 168.552 205.577 168.553 206.305C168.553 207.035 169.084 207.56 169.857 207.596C169.916 207.599 169.974 207.599 170.033 207.599C174.67 207.599 179.308 207.599 183.946 207.6C184.158 207.6 184.366 207.584 184.57 207.521C184.969 207.4 185.24 207.138 185.367 206.742C185.657 205.84 185.093 205.044 184.131 205.017C183.37 204.995 182.608 205.002 181.847 205.015C181.595 205.02 181.49 204.919 181.449 204.682C181.342 204.079 181.232 203.477 181.104 202.878C181.038 202.575 181.13 202.5 181.431 202.501C183.844 202.512 186.256 202.512 188.669 202.506C190.717 202.5 192.195 201.015 192.197 198.953C192.202 193.956 192.199 188.959 192.2 183.962Z" fill="#2AD4D9"/>
</g>
<circle cx="32" cy="194" r="32" fill="black" fill-opacity="0.2"/>
<mask id="mask1_3301_187" style="mask-type:alpha" maskUnits="userSpaceOnUse" x="20" y="178" width="23" height="32">
<path fill-rule="evenodd" clip-rule="evenodd" d="M20.8 178H42.4V210H20.8V178Z" fill="white"/>
</mask>
<g mask="url(#mask1_3301_187)">
<path fill-rule="evenodd" clip-rule="evenodd" d="M39.4115 194.009C39.4115 190.183 39.4116 186.357 39.411 182.53C39.411 182.364 39.4178 182.196 39.3966 182.032C39.3148 181.398 39.0482 181.134 38.4235 181.058C38.3159 181.044 38.2062 181.047 38.0975 181.047C33.772 181.046 29.4466 181.046 25.1211 181.048C24.9721 181.048 24.8206 181.05 24.6747 181.077C24.1478 181.173 23.9163 181.405 23.8238 181.939C23.7912 182.129 23.7902 182.325 23.7901 182.518C23.7887 190.171 23.7886 197.824 23.7905 205.477C23.7905 205.684 23.8021 205.892 23.8306 206.097C23.8961 206.564 24.1563 206.849 24.6248 206.909C24.8128 206.933 25.003 206.951 25.1921 206.951C27.5453 206.954 29.8985 206.953 32.2516 206.953C34.224 206.953 36.1962 206.957 38.1686 206.951C39.074 206.948 39.3967 206.613 39.4109 205.697C39.4129 205.572 39.4115 205.447 39.4115 205.322C39.4115 201.551 39.4115 197.78 39.4115 194.009ZM20.8011 193.982C20.8011 190.1 20.7998 186.218 20.8015 182.336C20.8026 179.713 22.4735 178.003 25.0365 178.002C29.4167 178 33.797 177.999 38.1771 178.002C40.7167 178.003 42.3981 179.718 42.3987 182.308C42.4004 190.114 42.4006 197.92 42.3987 205.726C42.3979 208.263 40.7065 209.995 38.225 209.997C33.8041 210.001 29.383 210.001 24.9621 209.997C22.5037 209.995 20.8049 208.261 20.8022 205.754C20.7981 201.83 20.8011 197.906 20.8011 193.982Z" fill="#2AD4D9"/>
</g>
<path fill-rule="evenodd" clip-rule="evenodd" d="M31.6124 180.56C32.2372 180.561 32.8619 180.553 33.4865 180.563C34.1649 180.573 34.5649 180.968 34.5578 181.597C34.5507 182.221 34.1739 182.597 33.5092 182.602C32.2327 182.612 30.9561 182.612 29.6796 182.602C29.0395 182.596 28.6406 182.186 28.6423 181.576C28.6441 180.978 29.055 180.583 29.6977 180.561C29.7249 180.56 29.752 180.56 29.7792 180.56C30.3903 180.56 31.0014 180.56 31.6124 180.56Z" fill="#2AD4D9"/>
<circle cx="104" cy="40" r="40" fill="black" fill-opacity="0.2"/>
<mask id="mask2_3301_187" style="mask-type:alpha" maskUnits="userSpaceOnUse" x="84" y="25" width="26" height="24">
<path fill-rule="evenodd" clip-rule="evenodd" d="M84.3635 25.4545H109.914V48.3688H84.3635V25.4545Z" fill="white"/>
</mask>
<g mask="url(#mask2_3301_187)">
<path fill-rule="evenodd" clip-rule="evenodd" d="M106.918 35.0306C106.918 33.2057 106.923 31.3807 106.916 29.5558C106.913 28.7095 106.566 28.3806 105.7 28.3647C105.646 28.3637 105.592 28.3642 105.537 28.3642C99.9449 28.3642 94.3527 28.3638 88.7605 28.3659C88.5713 28.366 88.3809 28.3834 88.1933 28.4082C87.7445 28.4674 87.4917 28.7336 87.4127 29.1552C87.3788 29.3358 87.3654 29.5222 87.3653 29.706C87.3626 33.2368 87.3627 36.7677 87.3636 40.2986C87.3639 41.3523 87.6689 41.6524 88.7395 41.6538C90.1002 41.6553 91.4609 41.661 92.8214 41.6498C93.1373 41.6472 93.2621 41.7484 93.2492 42.0619C93.23 42.524 93.243 42.9874 93.2452 43.4502C93.2472 43.8739 93.2599 43.8801 93.6329 43.6736C94.6968 43.0847 95.7639 42.5017 96.8222 41.9036C97.1389 41.7246 97.4596 41.6472 97.8274 41.6487C100.413 41.6589 102.998 41.6554 105.583 41.6534C106.611 41.6526 106.917 41.3529 106.918 40.3467C106.92 38.5747 106.919 36.8027 106.918 35.0306ZM97.1577 25.4585C100.03 25.4582 102.902 25.4535 105.773 25.4599C107.445 25.4637 108.699 26.1751 109.495 27.6112C109.776 28.1191 109.903 28.6793 109.904 29.2539C109.91 33.0769 109.923 36.9002 109.901 40.7231C109.888 42.8631 108.143 44.537 105.934 44.5547C103.498 44.5743 101.062 44.5635 98.6252 44.556C98.2998 44.5549 98.0213 44.6311 97.7389 44.7889C95.7218 45.9163 93.6973 47.0312 91.6749 48.1497C91.5922 48.1954 91.5081 48.2398 91.4213 48.2775C90.8166 48.5396 90.2705 48.2169 90.2595 47.5725C90.2452 46.7392 90.2355 45.9051 90.2632 45.0725C90.2763 44.68 90.1696 44.5387 89.7431 44.5494C89.0654 44.5662 88.3836 44.6105 87.7065 44.4961C85.7999 44.1739 84.3953 42.6467 84.3832 40.7701C84.3583 36.9206 84.3557 33.0709 84.383 29.2215C84.3978 27.1248 86.1738 25.4742 88.3785 25.4625C91.3048 25.4472 94.2313 25.4587 97.1577 25.4585Z" fill="#2AD4D9"/>
</g>
<g opacity="0.3">
<mask id="mask3_3301_187" style="mask-type:alpha" maskUnits="userSpaceOnUse" x="100" y="33" width="24" height="23">
<path fill-rule="evenodd" clip-rule="evenodd" d="M100.054 33.0736H123.636V56H100.054V33.0736Z" fill="white"/>
</mask>
<g mask="url(#mask3_3301_187)">
<path fill-rule="evenodd" clip-rule="evenodd" d="M123.632 42.636C123.632 44.462 123.635 46.288 123.632 48.1141C123.627 50.5313 121.933 52.1751 119.445 52.1817C119.05 52.1828 118.652 52.2093 118.261 52.1747C117.83 52.1366 117.729 52.3062 117.742 52.6963C117.77 53.4892 117.755 54.2838 117.749 55.0777C117.744 55.9028 117.191 56.2329 116.445 55.8262C114.368 54.693 112.3 53.5441 110.234 52.3928C109.977 52.2494 109.722 52.1767 109.424 52.1781C107.695 52.186 105.966 52.1846 104.237 52.1813C101.752 52.1763 100.064 50.5286 100.057 48.1068C100.056 47.6701 100.066 47.2333 100.055 46.7969C100.048 46.5334 100.138 46.4105 100.428 46.4151C101.177 46.4266 101.926 46.4266 102.675 46.4151C102.964 46.4105 103.057 46.5311 103.05 46.7958C103.038 47.2189 103.043 47.6426 103.048 48.0659C103.058 48.9347 103.396 49.271 104.289 49.2737C106.276 49.2795 108.264 49.2793 110.252 49.2721C110.561 49.2709 110.834 49.327 111.105 49.48C112.199 50.0984 113.305 50.6968 114.399 51.3145C114.67 51.4673 114.778 51.4573 114.765 51.1181C114.747 50.6556 114.779 50.1911 114.755 49.7292C114.738 49.3859 114.857 49.2647 115.219 49.2694C116.54 49.2864 117.86 49.276 119.181 49.2757C119.304 49.2756 119.426 49.2793 119.548 49.2723C120.292 49.2294 120.595 48.9342 120.638 48.2082C120.648 48.0499 120.642 47.8907 120.642 47.7319C120.642 44.2785 120.643 40.8249 120.641 37.3714C120.641 37.1999 120.642 37.0256 120.613 36.8577C120.507 36.2556 120.192 36.0031 119.5 35.9903C118.737 35.9763 117.975 35.986 117.212 35.9859C115.579 35.9857 113.945 35.9779 112.311 35.9918C111.95 35.9948 111.798 35.9014 111.813 35.5246C111.839 34.8508 111.83 34.175 111.816 33.5005C111.81 33.2035 111.899 33.0738 112.23 33.0751C114.735 33.0854 117.241 33.0574 119.745 33.0901C121.901 33.1182 123.61 34.8231 123.628 36.9199C123.644 38.8252 123.631 40.7306 123.632 42.636Z" fill="#2AD4D9"/>
</g>
</g>
<path fill-rule="evenodd" clip-rule="evenodd" d="M94.922 36.7235C95.2331 36.7615 95.5611 36.8037 95.8887 36.9187C96.4902 37.1297 97.1177 37.2526 97.7671 37.1438C97.9973 37.1051 98.2036 37.014 98.2372 36.7713C98.2712 36.524 98.0509 36.4285 97.8619 36.3642C97.3493 36.1899 96.8282 36.0391 96.3115 35.8756C95.8168 35.7191 95.3724 35.4637 94.9181 35.2225C93.6049 34.5253 93.6567 33.0035 94.1501 32.0992C94.4708 31.5111 94.9826 31.1217 95.6382 30.9438C95.9569 30.8573 96.0667 30.7111 96.07 30.3895C96.077 29.7091 96.5509 29.2154 97.1387 29.2154C97.7318 29.2154 98.2101 29.7058 98.2104 30.3859C98.2107 30.7367 98.3484 30.8846 98.6791 30.9517C98.8893 30.9944 99.0984 31.0727 99.2888 31.1704C99.7973 31.4315 100.02 31.9917 99.8329 32.4853C99.6529 32.9591 99.1798 33.2086 98.6041 33.0999C98.178 33.0194 97.767 32.8745 97.3299 32.8327C97.0271 32.8037 96.732 32.818 96.4388 32.8852C96.2239 32.9345 96.0569 33.0501 96.037 33.2776C96.0184 33.4918 96.2031 33.5669 96.3649 33.6336C96.8288 33.8251 97.3061 33.9828 97.798 34.0888C98.5484 34.2504 99.189 34.6193 99.7747 35.0796C100.256 35.4581 100.385 36.0075 100.41 36.5733C100.462 37.6901 99.804 38.6635 98.7229 39.0316C98.3623 39.1543 98.1906 39.3029 98.2072 39.6981C98.225 40.1179 98.0352 40.4811 97.6086 40.6535C97.2067 40.816 96.809 40.788 96.4508 40.5212C96.1387 40.2887 96.0522 39.9538 96.0675 39.6026C96.0811 39.2904 95.9435 39.1594 95.6503 39.0802C95.1805 38.9532 94.698 38.8455 94.2854 38.5709C93.8754 38.2979 93.7221 37.8436 93.8784 37.3821C94.0072 37.0018 94.4527 36.7136 94.922 36.7235Z" fill="#2AD4D9"/>
<path opacity="0.2" d="M32 151.504V128.82H176.727V151.504" stroke="white" stroke-dasharray="4"/>
</svg>
